<?xml version="1.0" encoding="UTF-8"?>
<svg xmlns="http://www.w3.org/2000/svg" xmlns:xlink="http://www.w3.org/1999/xlink" width="100px" height="100px" viewBox="0 0 100 100" version="1.1">
<defs>
<filter id="alpha" filterUnits="objectBoundingBox" x="0%" y="0%" width="100%" height="100%">
  <feColorMatrix type="matrix" in="SourceGraphic" values="0 0 0 0 1 0 0 0 0 1 0 0 0 0 1 0 0 0 1 0"/>
</filter>
<mask id="mask0">
  <g filter="url(#alpha)">
<rect x="0" y="0" width="100" height="100" style="fill:rgb(0%,0%,0%);fill-opacity:0.101961;stroke:none;"/>
  </g>
</mask>
<clipPath id="clip1">
  <rect x="0" y="0" width="100" height="100"/>
</clipPath>
<g id="surface5" clip-path="url(#clip1)">
<path style=" stroke:none;fill-rule:nonzero;fill:rgb(0%,0%,0%);fill-opacity:1;" d="M 86.144531 93.839844 C 86.144531 90.433594 71.339844 87.667969 53.082031 87.667969 C 34.820312 87.667969 20.015625 90.433594 20.015625 93.839844 C 20.015625 97.25 34.820312 100.015625 53.082031 100.015625 C 71.339844 100.015625 86.144531 97.25 86.144531 93.839844 Z M 86.144531 93.839844 "/>
</g>
<mask id="mask1">
  <g filter="url(#alpha)">
<rect x="0" y="0" width="100" height="100" style="fill:rgb(0%,0%,0%);fill-opacity:0.101961;stroke:none;"/>
  </g>
</mask>
<clipPath id="clip2">
  <rect x="0" y="0" width="100" height="100"/>
</clipPath>
<g id="surface8" clip-path="url(#clip2)">
<path style=" stroke:none;fill-rule:nonzero;fill:rgb(0%,0%,0%);fill-opacity:1;" d="M 49.511719 79.445312 C 56.417969 75.015625 64.304688 73.597656 72.015625 75.5 C 82.941406 78.191406 96.671875 77.136719 99.328125 56.359375 C 103.871094 20.871094 84.835938 11.503906 84.835938 11.503906 C 84.835938 11.503906 72.175781 10.277344 64.691406 5.59375 C 54.058594 -1.054688 41.90625 -1.902344 31.222656 3.722656 C 24.386719 7.320312 18.761719 12.328125 17.800781 19.199219 C 15.109375 38.425781 19.527344 49.015625 11.265625 55.289062 C 3.007812 61.566406 10.066406 78.796875 16.398438 78.199219 C 22.734375 77.601562 37.039062 71.058594 42.613281 78.636719 C 44.597656 81.324219 47.101562 80.992188 49.511719 79.445312 Z M 49.511719 79.445312 "/>
</g>
<mask id="mask2">
  <g filter="url(#alpha)">
<rect x="0" y="0" width="100" height="100" style="fill:rgb(0%,0%,0%);fill-opacity:0.101961;stroke:none;"/>
  </g>
</mask>
<clipPath id="clip3">
  <rect x="0" y="0" width="100" height="100"/>
</clipPath>
<g id="surface11" clip-path="url(#clip3)">
<path style=" stroke:none;fill-rule:nonzero;fill:rgb(0%,0%,0%);fill-opacity:1;" d="M 96.652344 89.636719 C 96.652344 88.535156 94.484375 87.640625 91.8125 87.640625 C 89.140625 87.640625 86.976562 88.535156 86.976562 89.636719 C 86.976562 90.738281 89.140625 91.632812 91.8125 91.632812 C 94.484375 91.632812 96.652344 90.738281 96.652344 89.636719 Z M 96.652344 89.636719 "/>
</g>
<mask id="mask3">
  <g filter="url(#alpha)">
<rect x="0" y="0" width="100" height="100" style="fill:rgb(0%,0%,0%);fill-opacity:0.101961;stroke:none;"/>
  </g>
</mask>
<clipPath id="clip4">
  <rect x="0" y="0" width="100" height="100"/>
</clipPath>
<g id="surface14" clip-path="url(#clip4)">
<path style=" stroke:none;fill-rule:nonzero;fill:rgb(0%,0%,0%);fill-opacity:1;" d="M 11.707031 87.144531 C 11.707031 86.042969 9.539062 85.148438 6.867188 85.148438 C 4.195312 85.148438 2.027344 86.042969 2.027344 87.144531 C 2.027344 88.246094 4.195312 89.136719 6.867188 89.136719 C 9.539062 89.136719 11.707031 88.246094 11.707031 87.144531 Z M 11.707031 87.144531 "/>
</g>
<linearGradient id="linear0" gradientUnits="userSpaceOnUse" x1="777.820007" y1="813.840027" x2="777.820007" y2="182.839996" gradientTransform="matrix(0.107527,0,0,0.124688,-14.500001,-6.103491)">
<stop offset="0" style="stop-color:rgb(50.196078%,50.196078%,50.196078%);stop-opacity:0.25098;"/>
<stop offset="0.54" style="stop-color:rgb(50.196078%,50.196078%,50.196078%);stop-opacity:0.121569;"/>
<stop offset="1" style="stop-color:rgb(50.196078%,50.196078%,50.196078%);stop-opacity:0.101961;"/>
</linearGradient>
<mask id="mask4">
  <g filter="url(#alpha)">
<rect x="0" y="0" width="100" height="100" style="fill:rgb(0%,0%,0%);fill-opacity:0.101961;stroke:none;"/>
  </g>
</mask>
<clipPath id="clip5">
  <rect x="0" y="0" width="100" height="100"/>
</clipPath>
<g id="surface17" clip-path="url(#clip5)">
<path style=" stroke:none;fill-rule:nonzero;fill:rgb(0%,0%,0%);fill-opacity:1;" d="M 80.117188 53.425781 C 80.117188 53.425781 81.722656 59.78125 76.90625 60.871094 L 71.6875 60.5625 C 71.6875 60.5625 64.324219 58.855469 62.316406 60.097656 C 62.316406 60.097656 61.515625 60.25 61.78125 61.492188 C 62.046875 62.734375 61.378906 71.113281 61.378906 71.113281 L 61.378906 73.90625 C 61.378906 73.90625 56.828125 73.90625 56.292969 73.285156 C 56.292969 73.285156 56.695312 70.800781 56.292969 68.785156 C 55.894531 66.765625 56.964844 60.402344 56.964844 60.402344 L 57.070312 56.582031 C 57.085938 55.617188 57.550781 54.738281 58.285156 54.285156 C 58.535156 54.128906 58.820312 54.046875 59.105469 54.042969 C 59.105469 54.042969 68.207031 52.335938 71.417969 52.644531 C 74.628906 52.957031 80.117188 53.425781 80.117188 53.425781 Z M 80.117188 53.425781 "/>
</g>
<mask id="mask5">
  <g filter="url(#alpha)">
<rect x="0" y="0" width="100" height="100" style="fill:rgb(0%,0%,0%);fill-opacity:0.101961;stroke:none;"/>
  </g>
</mask>
<clipPath id="clip6">
  <rect x="0" y="0" width="100" height="100"/>
</clipPath>
<g id="surface20" clip-path="url(#clip6)">
<path style=" stroke:none;fill-rule:nonzero;fill:rgb(0%,0%,0%);fill-opacity:1;" d="M 71.152344 32.941406 C 71.152344 32.941406 68.742188 36.199219 68.472656 37.285156 C 68.207031 38.371094 65.261719 41.164062 65.261719 41.164062 C 65.261719 41.164062 67.402344 43.023438 67.003906 43.957031 C 66.609375 44.890625 69.8125 40.855469 69.8125 40.855469 L 73.558594 34.496094 Z M 71.152344 32.941406 "/>
</g>
<mask id="mask6">
  <g filter="url(#alpha)">
<rect x="0" y="0" width="100" height="100" style="fill:rgb(0%,0%,0%);fill-opacity:0.101961;stroke:none;"/>
  </g>
</mask>
<clipPath id="clip7">
  <rect x="0" y="0" width="100" height="100"/>
</clipPath>
<g id="surface23" clip-path="url(#clip7)">
<path style=" stroke:none;fill-rule:nonzero;fill:rgb(0%,0%,0%);fill-opacity:1;" d="M 73.566406 32.320312 C 73.566406 32.320312 78.25 30.921875 78.917969 38.835938 C 79.585938 46.75 78.378906 47.683594 80.390625 52.492188 C 82.398438 57.304688 66.738281 53.117188 66.738281 53.117188 C 66.738281 53.117188 67.542969 52.03125 70.082031 52.492188 L 71.289062 48.304688 C 71.289062 48.304688 71.6875 46.441406 69.414062 46.441406 C 67.140625 46.441406 68.210938 41.011719 68.210938 41.011719 C 68.210938 41.011719 69.414062 36.355469 70.082031 35.890625 C 70.753906 35.425781 71.953125 32.628906 73.566406 32.320312 Z M 73.566406 32.320312 "/>
</g>
<mask id="mask7">
  <g filter="url(#alpha)">
<rect x="0" y="0" width="100" height="100" style="fill:rgb(0%,0%,0%);fill-opacity:0.101961;stroke:none;"/>
  </g>
</mask>
<clipPath id="clip8">
  <rect x="0" y="0" width="100" height="100"/>
</clipPath>
<g id="surface26" clip-path="url(#clip8)">
<path style=" stroke:none;fill-rule:nonzero;fill:rgb(0%,0%,0%);fill-opacity:1;" d="M 76.371094 39.300781 L 69.273438 46.75 C 69.273438 46.75 67.9375 43.648438 67.539062 43.648438 C 67.136719 43.648438 72.355469 34.492188 72.355469 34.492188 C 72.355469 34.492188 73.695312 32.628906 74.496094 33.558594 C 75.296875 34.488281 77.707031 33.871094 76.371094 39.300781 Z M 76.371094 39.300781 "/>
</g>
<mask id="mask8">
  <g filter="url(#alpha)">
<rect x="0" y="0" width="100" height="100" style="fill:rgb(0%,0%,0%);fill-opacity:0.101961;stroke:none;"/>
  </g>
</mask>
<clipPath id="clip9">
  <rect x="0" y="0" width="100" height="100"/>
</clipPath>
<g id="surface29" clip-path="url(#clip9)">
<path style=" stroke:none;fill-rule:nonzero;fill:rgb(0%,0%,0%);fill-opacity:1;" d="M 68.601562 25.203125 C 67.800781 25.328125 66.996094 24.671875 66.730469 23.789062 C 66.46875 22.90625 66.703125 21.878906 67.234375 21.179688 C 67.769531 20.480469 68.5625 20.089844 69.363281 19.996094 C 69.851562 19.941406 70.371094 19.984375 70.796875 19.699219 C 71.0625 19.523438 71.261719 19.238281 71.488281 18.992188 C 72.328125 18.074219 73.550781 17.738281 74.707031 17.800781 C 75.859375 17.863281 76.976562 18.28125 78.078125 18.699219 C 78.488281 18.851562 78.960938 19.082031 79.058594 19.570312 C 79.128906 19.9375 78.949219 20.300781 78.890625 20.667969 C 78.703125 21.839844 79.675781 22.800781 80.585938 23.359375 C 81.492188 23.917969 82.566406 24.503906 82.816406 25.660156 C 83.042969 26.695312 82.503906 27.714844 82.152344 28.703125 C 81.539062 30.433594 81.484375 32.359375 81.988281 34.132812 C 82.246094 35.027344 82.644531 35.878906 82.804688 36.800781 C 82.976562 37.832031 82.835938 38.90625 82.410156 39.835938 C 82.285156 40.105469 82.128906 40.378906 82.113281 40.683594 C 82.109375 40.941406 82.164062 41.195312 82.265625 41.425781 C 83.046875 43.464844 84.539062 45.023438 86.371094 45.71875 C 86.082031 46.320312 85.457031 46.574219 84.878906 46.730469 C 83.890625 47 82.882812 47.140625 81.867188 47.152344 C 81.1875 47.160156 80.484375 47.105469 79.863281 46.78125 C 79.242188 46.453125 78.699219 45.832031 78.582031 45.050781 C 78.515625 44.601562 78.589844 44.132812 78.542969 43.679688 C 78.433594 42.660156 77.726562 41.855469 77.464844 40.871094 C 77.21875 39.929688 77.074219 39.785156 77.167969 38.808594 C 77.265625 37.828125 77.246094 36.742188 76.695312 35.992188 C 76.121094 35.207031 75.109375 35.03125 74.238281 35.253906 C 73.371094 35.480469 72.921875 35.164062 72.125 35.628906 C 70.738281 36.449219 69.257812 37.035156 67.726562 37.367188 C 68.140625 36.089844 68.660156 34.6875 69.75 34.171875 C 70.0625 34.023438 70.421875 33.945312 70.632812 33.640625 C 70.972656 33.160156 70.742188 32.382812 71.035156 31.863281 C 71.324219 31.339844 72.019531 31.316406 72.417969 30.882812 C 72.757812 30.507812 72.816406 29.898438 72.6875 29.378906 C 72.554688 28.863281 72.265625 28.425781 71.972656 28.007812 C 71.714844 27.636719 71.449219 27.269531 71.179688 26.90625 C 70.925781 26.601562 70.714844 26.257812 70.554688 25.878906 C 70.460938 25.628906 70.480469 25.160156 70.332031 24.960938 C 69.953125 24.457031 69.0625 25.132812 68.601562 25.203125 Z M 68.601562 25.203125 "/>
</g>
<mask id="mask9">
  <g filter="url(#alpha)">
<rect x="0" y="0" width="100" height="100" style="fill:rgb(0%,0%,0%);fill-opacity:0.101961;stroke:none;"/>
  </g>
</mask>
<clipPath id="clip10">
  <rect x="0" y="0" width="100" height="100"/>
</clipPath>
<g id="surface32" clip-path="url(#clip10)">
<path style=" stroke:none;fill-rule:nonzero;fill:rgb(100%,100%,100%);fill-opacity:1;" d="M 57.519531 72.804688 C 57.507812 72.390625 57.457031 71.980469 57.367188 71.582031 L 57.433594 71.605469 C 57.5 72 57.53125 72.402344 57.519531 72.804688 Z M 57.519531 72.804688 "/>
<path style=" stroke:none;fill-rule:nonzero;fill:rgb(100%,100%,100%);fill-opacity:1;" d="M 56.832031 78.558594 C 57.90625 78.632812 61.246094 76.851562 61.917969 75.921875 C 62.003906 75.796875 62.058594 75.640625 62.070312 75.480469 C 62.109375 75.746094 62.054688 76.015625 61.917969 76.230469 C 61.246094 77.160156 57.90625 78.941406 56.832031 78.867188 C 55.695312 78.789062 51.886719 79.023438 51.746094 77.007812 C 51.734375 76.949219 51.742188 76.894531 51.765625 76.84375 C 52.070312 78.707031 55.722656 78.488281 56.832031 78.558594 Z M 56.832031 78.558594 "/>
</g>
<linearGradient id="linear1" gradientUnits="userSpaceOnUse" x1="475.850006" y1="808.789978" x2="475.850006" y2="120.269997" gradientTransform="matrix(-0.107527,0,0,0.124688,97.112903,-6.103491)">
<stop offset="0" style="stop-color:rgb(50.196078%,50.196078%,50.196078%);stop-opacity:0.25098;"/>
<stop offset="0.54" style="stop-color:rgb(50.196078%,50.196078%,50.196078%);stop-opacity:0.121569;"/>
<stop offset="1" style="stop-color:rgb(50.196078%,50.196078%,50.196078%);stop-opacity:0.101961;"/>
</linearGradient>
<mask id="mask10">
  <g filter="url(#alpha)">
<rect x="0" y="0" width="100" height="100" style="fill:rgb(0%,0%,0%);fill-opacity:0.0509804;stroke:none;"/>
  </g>
</mask>
<clipPath id="clip11">
  <rect x="0" y="0" width="100" height="100"/>
</clipPath>
<g id="surface35" clip-path="url(#clip11)">
<path style=" stroke:none;fill-rule:nonzero;fill:rgb(0%,0%,0%);fill-opacity:1;" d="M 44.472656 48.953125 L 46.835938 49.320312 C 46.835938 49.320312 46.285156 53.925781 46.863281 58.980469 L 46.863281 70.523438 C 46.863281 70.523438 46.910156 71.539062 45.089844 73.015625 C 43.183594 74.558594 41.347656 76.210938 39.585938 77.96875 L 32.992188 84.59375 C 32.992188 84.59375 30.375 80.886719 30.738281 78.695312 C 30.738281 78.695312 35.097656 77.09375 35.679688 74.484375 C 36.015625 72.984375 37.703125 71.738281 39.089844 70.949219 C 40.871094 69.925781 41.84375 67.605469 41.355469 65.371094 C 41.273438 64.992188 41.148438 64.628906 40.984375 64.289062 C 39.820312 61.929688 38.152344 56.621094 38.152344 56.621094 L 41.347656 49.542969 Z M 44.472656 48.953125 "/>
</g>
<mask id="mask11">
  <g filter="url(#alpha)">
<rect x="0" y="0" width="100" height="100" style="fill:rgb(0%,0%,0%);fill-opacity:0.101961;stroke:none;"/>
  </g>
</mask>
<clipPath id="clip12">
  <rect x="0" y="0" width="100" height="100"/>
</clipPath>
<g id="surface38" clip-path="url(#clip12)">
<path style=" stroke:none;fill-rule:nonzero;fill:rgb(0%,0%,0%);fill-opacity:1;" d="M 40.355469 23.511719 C 40.355469 23.511719 41.179688 24.539062 42.453125 24.664062 C 43.175781 24.730469 43.878906 24.972656 44.515625 25.378906 C 45.269531 25.863281 46.089844 26.570312 46.34375 27.429688 C 46.851562 29.113281 50.050781 31.894531 51.503906 31.304688 L 50.996094 36.359375 C 50.996094 36.359375 46.855469 36.109375 46.128906 34.253906 L 47.363281 52.28125 L 46.277344 52.28125 C 46.277344 52.28125 45.695312 47.398438 45.257812 46.386719 C 44.824219 45.375 43.953125 39.8125 43.878906 38.464844 C 43.804688 37.117188 42.714844 29.363281 41.769531 28.015625 L 40.355469 24.015625 Z M 40.355469 23.511719 "/>
</g>
<mask id="mask12">
  <g filter="url(#alpha)">
<rect x="0" y="0" width="100" height="100" style="fill:rgb(0%,0%,0%);fill-opacity:0.101961;stroke:none;"/>
  </g>
</mask>
<clipPath id="clip13">
  <rect x="0" y="0" width="100" height="100"/>
</clipPath>
<g id="surface41" clip-path="url(#clip13)">
<path style=" stroke:none;fill-rule:nonzero;fill:rgb(0%,0%,0%);fill-opacity:1;" d="M 40.355469 23.761719 C 40.355469 23.761719 41.324219 24.707031 42.597656 24.835938 C 43.320312 24.898438 44.023438 25.140625 44.660156 25.546875 C 45.414062 26.03125 46.234375 26.738281 46.488281 27.597656 C 46.996094 29.28125 50.195312 32.0625 51.652344 31.472656 L 51.140625 36.527344 C 51.140625 36.527344 47 36.277344 46.273438 34.421875 L 47.511719 52.449219 L 46.421875 52.449219 C 46.421875 52.449219 45.839844 47.5625 45.40625 46.550781 C 44.96875 45.542969 44.097656 39.980469 44.023438 38.632812 C 43.949219 37.28125 42.859375 29.53125 41.917969 28.183594 L 40.355469 24.265625 Z M 40.355469 23.761719 "/>
</g>
<mask id="mask13">
  <g filter="url(#alpha)">
<rect x="0" y="0" width="100" height="100" style="fill:rgb(0%,0%,0%);fill-opacity:0.101961;stroke:none;"/>
  </g>
</mask>
<clipPath id="clip14">
  <rect x="0" y="0" width="100" height="100"/>
</clipPath>
<g id="surface44" clip-path="url(#clip14)">
<path style=" stroke:none;fill-rule:nonzero;fill:rgb(0%,0%,0%);fill-opacity:1;" d="M 36.648438 20.351562 C 36.742188 19.550781 36.554688 19.054688 36.46875 18.117188 L 40.609375 21.742188 C 40.609375 21.742188 40.507812 22.230469 40.433594 22.945312 C 40.226562 22.984375 40.019531 23.003906 39.808594 23.003906 C 38.363281 23.003906 37.328125 21.703125 36.648438 20.351562 Z M 36.648438 20.351562 "/>
</g>
<mask id="mask14">
  <g filter="url(#alpha)">
<rect x="0" y="0" width="100" height="100" style="fill:rgb(0%,0%,0%);fill-opacity:0.101961;stroke:none;"/>
  </g>
</mask>
<clipPath id="clip15">
  <rect x="0" y="0" width="100" height="100"/>
</clipPath>
<g id="surface47" clip-path="url(#clip15)">
<path style=" stroke:none;fill-rule:nonzero;fill:rgb(0%,0%,0%);fill-opacity:1;" d="M 44.089844 13.742188 C 44.113281 12.976562 44.003906 12.210938 43.769531 11.492188 C 43.902344 11.722656 43.863281 12.035156 43.6875 12.21875 C 43.558594 11.4375 43.214844 10.722656 42.703125 10.191406 C 42.984375 10.246094 43.125 10.648438 43.058594 10.96875 C 42.992188 11.285156 42.777344 11.53125 42.574219 11.757812 C 42.597656 11.277344 42.324219 10.828125 41.976562 10.5625 C 41.625 10.296875 41.210938 10.1875 40.804688 10.070312 C 41.097656 10.191406 41.28125 10.519531 41.253906 10.875 C 41.253906 10.933594 41.234375 10.992188 41.195312 11.03125 C 41.15625 11.0625 41.109375 11.078125 41.066406 11.074219 C 40.65625 11.09375 40.246094 11.082031 39.835938 11.042969 C 39.335938 10.976562 38.828125 10.945312 38.324219 10.949219 C 36.738281 11.027344 35.15625 12.277344 34.804688 14.066406 C 34.730469 14.5 34.691406 14.941406 34.6875 15.382812 L 34.609375 17.636719 C 34.589844 18.292969 34.566406 18.960938 34.679688 19.605469 C 34.898438 20.828125 35.578125 21.871094 36.53125 22.449219 C 37.101562 21.492188 37.152344 20.261719 37.347656 19.121094 C 37.378906 18.855469 37.464844 18.605469 37.59375 18.386719 C 37.738281 18.179688 37.988281 18.046875 38.203125 18.144531 C 38.414062 18.246094 38.507812 18.621094 38.332031 18.789062 C 38.484375 19.007812 38.785156 18.84375 38.960938 18.652344 C 39.457031 18.105469 39.800781 17.394531 39.945312 16.613281 C 40.015625 16.222656 40.085938 15.742188 40.414062 15.605469 C 40.527344 15.570312 40.648438 15.558594 40.765625 15.578125 C 41.457031 15.632812 42.539062 15.964844 43.207031 15.710938 C 43.832031 15.46875 44.089844 14.417969 44.089844 13.742188 Z M 44.089844 13.742188 "/>
</g>
<mask id="mask15">
  <g filter="url(#alpha)">
<rect x="0" y="0" width="100" height="100" style="fill:rgb(0%,0%,0%);fill-opacity:0.101961;stroke:none;"/>
  </g>
</mask>
<clipPath id="clip16">
  <rect x="0" y="0" width="100" height="100"/>
</clipPath>
<g id="surface50" clip-path="url(#clip16)">
<path style=" stroke:none;fill-rule:nonzero;fill:rgb(0%,0%,0%);fill-opacity:1;" d="M 51.835938 31.304688 C 51.835938 31.304688 52.417969 34.421875 51.324219 36.359375 L 50.707031 36.300781 L 51.046875 31.355469 Z M 51.835938 31.304688 "/>
</g>
<mask id="mask16">
  <g filter="url(#alpha)">
<rect x="0" y="0" width="100" height="100" style="fill:rgb(0%,0%,0%);fill-opacity:0.101961;stroke:none;"/>
  </g>
</mask>
<clipPath id="clip17">
  <rect x="0" y="0" width="100" height="100"/>
</clipPath>
<g id="surface53" clip-path="url(#clip17)">
<path style=" stroke:none;fill-rule:nonzero;fill:rgb(0%,0%,0%);fill-opacity:1;" d="M 36.066406 22.792969 L 31.382812 27.46875 C 31.382812 27.46875 28.617188 30.753906 29.78125 36.0625 C 29.78125 36.0625 30.292969 43.8125 30.875 44.152344 C 30.875 44.152344 32.90625 48.871094 33.050781 53.335938 C 33.050781 53.335938 35.777344 46.976562 37.011719 50.851562 C 38.25 54.722656 41.117188 55.273438 41.117188 55.273438 L 39.519531 32.355469 C 39.519531 32.355469 35.488281 24.226562 36.066406 22.792969 Z M 36.066406 22.792969 "/>
</g>
<mask id="mask17">
  <g filter="url(#alpha)">
<rect x="0" y="0" width="100" height="100" style="fill:rgb(0%,0%,0%);fill-opacity:0.101961;stroke:none;"/>
  </g>
</mask>
<clipPath id="clip18">
  <rect x="0" y="0" width="100" height="100"/>
</clipPath>
<g id="surface56" clip-path="url(#clip18)">
<path style=" stroke:none;fill-rule:nonzero;fill:rgb(0%,0%,0%);fill-opacity:1;" d="M 34.90625 43.097656 C 34.90625 43.097656 32.335938 46.449219 31.332031 45.910156 L 30.402344 43.398438 L 33.886719 41.664062 Z M 34.90625 43.097656 "/>
</g>
<mask id="mask18">
  <g filter="url(#alpha)">
<rect x="0" y="0" width="100" height="100" style="fill:rgb(0%,0%,0%);fill-opacity:0.101961;stroke:none;"/>
  </g>
</mask>
<clipPath id="clip19">
  <rect x="0" y="0" width="100" height="100"/>
</clipPath>
<g id="surface59" clip-path="url(#clip19)">
<path style=" stroke:none;fill-rule:nonzero;fill:rgb(0%,0%,0%);fill-opacity:1;" d="M 36.78125 50.550781 C 36.78125 50.550781 35.558594 53.460938 34.90625 53.632812 L 35.847656 54.894531 L 37.230469 51.863281 Z M 36.78125 50.550781 "/>
</g>
<mask id="mask19">
  <g filter="url(#alpha)">
<rect x="0" y="0" width="100" height="100" style="fill:rgb(0%,0%,0%);fill-opacity:0.101961;stroke:none;"/>
  </g>
</mask>
<clipPath id="clip20">
  <rect x="0" y="0" width="100" height="100"/>
</clipPath>
<g id="surface62" clip-path="url(#clip20)">
<path style=" stroke:none;fill-rule:nonzero;fill:rgb(0%,0%,0%);fill-opacity:1;" d="M 34.542969 32.652344 C 34.542969 32.652344 34.398438 38.71875 34.976562 40.992188 "/>
</g>
<mask id="mask20">
  <g filter="url(#alpha)">
<rect x="0" y="0" width="100" height="100" style="fill:rgb(0%,0%,0%);fill-opacity:0.101961;stroke:none;"/>
  </g>
</mask>
<clipPath id="clip21">
  <rect x="0" y="0" width="100" height="100"/>
</clipPath>
<g id="surface65" clip-path="url(#clip21)">
<path style=" stroke:none;fill-rule:nonzero;fill:rgb(0%,0%,0%);fill-opacity:1;" d="M 46.3125 33.832031 C 46.3125 33.832031 45.441406 33.492188 45.441406 32.652344 "/>
</g>
</defs>
<g id="surface1">
<use xlink:href="#surface5" mask="url(#mask0)"/>
<use xlink:href="#surface8" mask="url(#mask1)"/>
<use xlink:href="#surface11" mask="url(#mask2)"/>
<path style="fill:none;stroke-width:2;stroke-linecap:butt;stroke-linejoin:miter;stroke:rgb(32.549021%,32.941177%,38.039216%);stroke-opacity:1;stroke-miterlimit:10;" d="M 986.88985 770.123438 C 986.88985 770.123438 998.914459 729.271563 984.637506 699.196563 C 978.570709 686.633985 976.717975 672.442345 979.406256 658.751954 C 980.750397 652.235704 982.675787 645.876095 985.1461 639.735782 " transform="matrix(0.107527,0,0,0.124688,-14.500001,-6.103491)"/>
<path style=" stroke:none;fill-rule:nonzero;fill:rgb(100%,47.450981%,77.64706%);fill-opacity:1;" d="M 90.476562 71.296875 C 90.476562 71.921875 91.449219 73.730469 91.449219 73.730469 C 91.449219 73.730469 92.421875 71.921875 92.421875 71.296875 C 92.421875 70.671875 91.988281 70.167969 91.449219 70.167969 C 90.910156 70.167969 90.472656 70.671875 90.472656 71.296875 Z M 90.476562 71.296875 "/>
<path style=" stroke:none;fill-rule:nonzero;fill:rgb(100%,47.450981%,77.64706%);fill-opacity:1;" d="M 88.863281 74.753906 C 89.15625 75.277344 90.824219 76.183594 90.824219 76.183594 C 90.824219 76.183594 90.792969 74.050781 90.5 73.527344 C 90.207031 73.003906 89.605469 72.851562 89.152344 73.191406 C 88.703125 73.53125 88.574219 74.230469 88.867188 74.753906 Z M 88.863281 74.753906 "/>
<path style=" stroke:none;fill-rule:nonzero;fill:rgb(100%,47.450981%,77.64706%);fill-opacity:1;" d="M 88.933594 80.660156 C 89.414062 80.941406 91.246094 80.75 91.246094 80.75 C 91.246094 80.75 90.292969 78.925781 89.8125 78.644531 C 89.332031 78.363281 88.746094 78.585938 88.503906 79.144531 C 88.261719 79.699219 88.453125 80.378906 88.933594 80.660156 Z M 88.933594 80.660156 "/>
<path style=" stroke:none;fill-rule:nonzero;fill:rgb(100%,47.450981%,77.64706%);fill-opacity:1;" d="M 89.855469 85.117188 C 90.285156 85.492188 92.121094 85.65625 92.121094 85.65625 C 92.121094 85.65625 91.449219 83.671875 91.015625 83.296875 C 90.582031 82.925781 89.972656 83.03125 89.652344 83.535156 C 89.332031 84.035156 89.421875 84.742188 89.855469 85.113281 Z M 89.855469 85.117188 "/>
<path style=" stroke:none;fill-rule:nonzero;fill:rgb(100%,47.450981%,77.64706%);fill-opacity:1;" d="M 92.867188 76.304688 C 92.484375 76.738281 90.683594 77.191406 90.683594 77.191406 C 90.683594 77.191406 91.125 75.117188 91.511719 74.683594 C 91.898438 74.25 92.515625 74.257812 92.890625 74.707031 C 93.265625 75.152344 93.253906 75.871094 92.867188 76.304688 Z M 92.867188 76.304688 "/>
<path style=" stroke:none;fill-rule:nonzero;fill:rgb(100%,47.450981%,77.64706%);fill-opacity:1;" d="M 93.886719 81.53125 C 93.40625 81.808594 91.574219 81.617188 91.574219 81.617188 C 91.574219 81.617188 92.527344 79.792969 93.007812 79.511719 C 93.488281 79.230469 94.074219 79.457031 94.316406 80.011719 C 94.5625 80.570312 94.367188 81.25 93.886719 81.53125 Z M 93.886719 81.53125 "/>
<path style=" stroke:none;fill-rule:nonzero;fill:rgb(100%,47.450981%,77.64706%);fill-opacity:1;" d="M 94.28125 86.769531 C 93.851562 87.140625 92.015625 87.308594 92.015625 87.308594 C 92.015625 87.308594 92.6875 85.320312 93.121094 84.953125 C 93.554688 84.582031 94.164062 84.6875 94.484375 85.1875 C 94.804688 85.6875 94.714844 86.398438 94.28125 86.769531 Z M 94.28125 86.769531 "/>
<use xlink:href="#surface14" mask="url(#mask3)"/>
<path style="fill:none;stroke-width:2;stroke-linecap:butt;stroke-linejoin:miter;stroke:rgb(32.549021%,32.941177%,38.039216%);stroke-opacity:1;stroke-miterlimit:10;" d="M 198.751178 748.005782 C 198.751178 748.005782 224.435162 660.81961 193.955865 596.690938 C 181.132037 569.748751 176.954303 539.51711 182.803131 510.319298 C 185.636725 496.440938 189.705475 482.844532 195.009381 469.718048 " transform="matrix(0.107527,0,0,0.124688,-14.500001,-6.103491)"/>
<path style=" stroke:none;fill-rule:nonzero;fill:rgb(100%,47.450981%,77.64706%);fill-opacity:1;" d="M 4.433594 47.410156 C 4.433594 48.742188 6.511719 52.605469 6.511719 52.605469 C 6.511719 52.605469 8.589844 48.738281 8.589844 47.410156 C 8.589844 46.078125 7.660156 45 6.511719 45 C 5.363281 45 4.433594 46.078125 4.433594 47.410156 Z M 4.433594 47.410156 "/>
<path style=" stroke:none;fill-rule:nonzero;fill:rgb(100%,47.450981%,77.64706%);fill-opacity:1;" d="M 0.996094 54.789062 C 1.621094 55.910156 5.175781 57.839844 5.175781 57.839844 C 5.175781 57.839844 5.109375 53.285156 4.484375 52.167969 C 4.089844 51.421875 3.378906 50.980469 2.625 51.019531 C 1.871094 51.054688 1.195312 51.5625 0.855469 52.347656 C 0.515625 53.128906 0.570312 54.0625 0.996094 54.785156 Z M 0.996094 54.789062 "/>
<path style=" stroke:none;fill-rule:nonzero;fill:rgb(100%,47.450981%,77.64706%);fill-opacity:1;" d="M 1.144531 67.398438 C 2.167969 67.996094 6.082031 67.585938 6.082031 67.585938 C 6.082031 67.585938 4.039062 63.695312 3.015625 63.097656 C 1.992188 62.5 0.742188 62.976562 0.222656 64.164062 C -0.292969 65.355469 0.117188 66.804688 1.144531 67.40625 Z M 1.144531 67.398438 "/>
<path style=" stroke:none;fill-rule:nonzero;fill:rgb(100%,47.450981%,77.64706%);fill-opacity:1;" d="M 3.109375 76.90625 C 4.035156 77.699219 7.949219 78.054688 7.949219 78.054688 C 7.949219 78.054688 6.507812 73.816406 5.582031 73.027344 C 4.660156 72.238281 3.359375 72.460938 2.675781 73.535156 C 1.992188 74.605469 2.1875 76.113281 3.109375 76.90625 Z M 3.109375 76.90625 "/>
<path style=" stroke:none;fill-rule:nonzero;fill:rgb(100%,47.450981%,77.64706%);fill-opacity:1;" d="M 9.542969 58.097656 C 8.71875 59.023438 4.878906 59.984375 4.878906 59.984375 C 4.878906 59.984375 5.820312 55.5625 6.644531 54.636719 C 7.46875 53.707031 8.785156 53.726562 9.585938 54.683594 C 10.386719 55.636719 10.371094 57.167969 9.546875 58.097656 Z M 9.542969 58.097656 "/>
<path style=" stroke:none;fill-rule:nonzero;fill:rgb(100%,47.450981%,77.64706%);fill-opacity:1;" d="M 11.71875 69.25 C 10.695312 69.851562 6.78125 69.4375 6.78125 69.4375 C 6.78125 69.4375 8.824219 65.542969 9.847656 64.949219 C 10.871094 64.347656 12.121094 64.828125 12.640625 66.015625 C 13.15625 67.207031 12.746094 68.65625 11.71875 69.253906 Z M 11.71875 69.25 "/>
<path style=" stroke:none;fill-rule:nonzero;fill:rgb(100%,47.450981%,77.64706%);fill-opacity:1;" d="M 12.550781 80.429688 C 11.628906 81.222656 7.714844 81.578125 7.714844 81.578125 C 7.714844 81.578125 9.15625 77.339844 10.078125 76.550781 C 11.003906 75.761719 12.304688 75.988281 12.988281 77.058594 C 13.671875 78.128906 13.476562 79.636719 12.550781 80.429688 Z M 12.550781 80.429688 "/>
<path style=" stroke:none;fill-rule:nonzero;fill:url(#linear0);" d="M 86.914062 46.210938 C 87.175781 46.0625 87.398438 45.832031 87.546875 45.539062 C 87.179688 45.40625 86.824219 45.242188 86.480469 45.042969 L 86.789062 43.484375 C 86.847656 43.1875 86.796875 42.882812 86.65625 42.628906 C 86.515625 42.375 86.292969 42.199219 86.039062 42.140625 L 85.671875 42.046875 C 85.144531 41.910156 84.617188 42.285156 84.488281 42.894531 L 84.421875 43.238281 C 83.917969 42.605469 83.503906 41.886719 83.199219 41.105469 C 83.09375 40.871094 83.035156 40.605469 83.039062 40.339844 C 83.058594 40.023438 83.21875 39.742188 83.351562 39.46875 C 83.804688 38.511719 83.953125 37.402344 83.769531 36.332031 C 83.601562 35.375 83.179688 34.503906 82.910156 33.578125 C 82.375 31.746094 82.433594 29.75 83.082031 27.964844 C 83.453125 26.945312 84.027344 25.890625 83.785156 24.820312 C 83.519531 23.628906 82.390625 23.019531 81.421875 22.453125 C 80.453125 21.882812 79.429688 20.882812 79.628906 19.671875 C 79.695312 19.289062 79.878906 18.917969 79.804688 18.539062 C 79.703125 18.039062 79.203125 17.789062 78.769531 17.636719 C 77.601562 17.207031 76.421875 16.773438 75.199219 16.707031 C 74.195312 16.65625 73.144531 16.878906 72.308594 17.484375 C 72.058594 17.644531 71.828125 17.835938 71.621094 18.054688 C 71.429688 18.285156 71.226562 18.5 71.007812 18.695312 C 70.570312 18.957031 70.042969 18.921875 69.542969 18.976562 C 68.96875 19.039062 68.417969 19.25 67.925781 19.601562 C 67.621094 19.785156 67.351562 20.027344 67.121094 20.320312 C 66.554688 21.042969 66.304688 22.101562 66.582031 23.015625 C 66.636719 23.195312 66.714844 23.363281 66.8125 23.519531 C 66.382812 24.332031 66.160156 25.265625 66.160156 26.214844 C 66.160156 28.917969 67.953125 31.148438 70.265625 31.464844 C 70.398438 32.066406 70.53125 32.699219 70.632812 33.28125 C 70.605469 33.3125 70.578125 33.339844 70.546875 33.363281 C 70.355469 33.46875 70.140625 33.535156 69.941406 33.628906 C 69.792969 33.695312 69.652344 33.777344 69.519531 33.875 C 68.535156 34.492188 68.03125 35.824219 67.625 37.039062 C 67.90625 36.980469 68.183594 36.914062 68.457031 36.835938 C 68.441406 36.875 68.433594 36.914062 68.421875 36.953125 C 68.140625 38.074219 66.582031 44.324219 66.582031 44.324219 L 66.910156 43.5 C 66.925781 43.617188 66.910156 43.738281 66.863281 43.84375 C 66.726562 44.15625 66.988281 43.929688 67.40625 43.480469 C 67.40625 43.507812 67.414062 43.523438 67.429688 43.523438 C 66.445312 45.382812 63.351562 51.191406 61.8125 53.550781 C 59.898438 53.847656 58.503906 54.101562 58.503906 54.101562 C 58.203125 54.105469 57.90625 54.191406 57.636719 54.351562 C 56.867188 54.8125 56.375 55.71875 56.351562 56.722656 L 56.242188 60.671875 C 56.242188 60.671875 55.425781 65.421875 55.441406 68.125 C 55.429688 68.582031 55.460938 69.039062 55.535156 69.488281 C 55.664062 70.164062 55.726562 70.855469 55.722656 71.550781 C 55.71875 72.363281 55.65625 73.175781 55.535156 73.976562 C 55.539062 73.984375 55.550781 73.988281 55.558594 73.996094 C 55.542969 74.085938 55.535156 74.136719 55.535156 74.136719 C 55.691406 74.3125 56.167969 74.441406 56.777344 74.53125 C 56.605469 75.640625 55.972656 76.777344 54.121094 76.859375 C 51.410156 76.980469 50.847656 77.53125 50.738281 77.8125 C 50.714844 77.863281 50.710938 77.925781 50.71875 77.984375 C 50.863281 80.066406 54.898438 79.824219 56.101562 79.90625 C 56.28125 79.910156 56.457031 79.894531 56.632812 79.851562 C 56.738281 79.828125 56.847656 79.800781 56.960938 79.765625 C 57.25 79.679688 57.578125 79.5625 57.914062 79.417969 C 58.320312 79.25 58.75 79.042969 59.164062 78.824219 C 59.371094 78.714844 59.574219 78.601562 59.773438 78.484375 C 59.902344 78.410156 60.03125 78.332031 60.152344 78.253906 C 60.765625 77.867188 61.265625 77.480469 61.484375 77.179688 C 61.503906 77.152344 61.523438 77.125 61.539062 77.09375 C 61.546875 77.082031 61.550781 77.070312 61.558594 77.058594 C 61.5625 77.046875 61.578125 77.019531 61.585938 77 C 61.59375 76.976562 61.59375 76.96875 61.601562 76.957031 C 61.605469 76.941406 61.613281 76.917969 61.617188 76.898438 C 61.621094 76.878906 61.625 76.867188 61.628906 76.847656 C 61.632812 76.832031 61.636719 76.8125 61.640625 76.796875 C 61.644531 76.777344 61.644531 76.757812 61.648438 76.738281 C 61.652344 76.71875 61.648438 76.707031 61.648438 76.691406 C 61.703125 76.019531 61.269531 75.105469 60.914062 74.492188 L 60.914062 71.886719 C 60.914062 71.886719 61.417969 65.757812 61.40625 63.050781 C 61.421875 62.628906 61.398438 62.207031 61.339844 61.789062 C 61.3125 61.660156 61.292969 61.527344 61.285156 61.394531 C 61.285156 60.964844 61.546875 60.597656 61.90625 60.507812 C 63.167969 59.746094 66.421875 60.058594 68.855469 60.4375 C 66.742188 60.808594 62.011719 61.457031 62.011719 62.191406 L 62.011719 63.9375 C 62.019531 64.816406 62.601562 65.542969 63.359375 65.613281 L 63.359375 95.371094 L 65.042969 95.371094 L 65.042969 65.621094 L 80.007812 65.621094 L 80.007812 95.371094 L 81.691406 95.371094 L 81.691406 65.28125 C 82.511719 64.789062 83.03125 63.808594 83.039062 62.734375 L 83.039062 62.304688 L 86.171875 46.59375 C 86.433594 46.507812 86.683594 46.378906 86.914062 46.210938 Z M 80.667969 62.070312 C 80.566406 61.570312 79.867188 61.128906 78.753906 60.785156 C 80.644531 59.710938 81.042969 57.578125 81.03125 55.921875 C 81.035156 55.359375 80.992188 54.800781 80.910156 54.246094 C 81.152344 54.007812 81.273438 53.636719 81.21875 53.273438 C 81.242188 52.945312 81.183594 52.613281 81.042969 52.328125 C 79.921875 49.707031 79.75 48.210938 79.726562 46.175781 C 79.949219 46.417969 80.207031 46.613281 80.484375 46.75 C 81.144531 47.082031 81.882812 47.140625 82.609375 47.132812 C 82.957031 47.132812 83.304688 47.109375 83.65625 47.078125 Z M 69.140625 46.398438 C 69.230469 46.597656 69.285156 46.722656 69.285156 46.722656 L 69.59375 46.40625 C 71.070312 46.464844 71.386719 47.292969 71.429688 47.839844 C 71.425781 47.894531 71.421875 47.949219 71.410156 48.003906 L 70.132812 52.332031 C 67.921875 51.9375 66.953125 52.625 66.679688 52.882812 C 65.996094 52.957031 65.300781 53.042969 64.617188 53.132812 C 65.992188 51.058594 67.882812 48.261719 69.140625 46.398438 Z M 69.140625 46.398438 "/>
<path style=" stroke:none;fill-rule:nonzero;fill:rgb(97.254902%,74.117649%,77.254903%);fill-opacity:1;" d="M 65.570312 40.960938 C 65.570312 40.960938 60.554688 50.765625 59.378906 52.066406 C 59.378906 52.066406 54.363281 58.101562 56.914062 57.679688 C 57.101562 57.648438 60.769531 54.050781 60.984375 53.460938 C 61.199219 52.871094 68.136719 42.417969 68.136719 42.417969 L 67.148438 41.363281 Z M 65.570312 40.960938 "/>
<path style=" stroke:none;fill-rule:nonzero;fill:rgb(25.098041%,25.490198%,30.19608%);fill-opacity:1;" d="M 80.996094 93.851562 L 79.40625 93.851562 L 79.40625 64.496094 L 80.996094 64.496094 Z M 80.996094 93.851562 "/>
<path style=" stroke:none;fill-rule:nonzero;fill:rgb(25.098041%,25.490198%,30.19608%);fill-opacity:1;" d="M 65.09375 93.851562 L 63.503906 93.851562 L 63.503906 64.496094 L 65.09375 64.496094 Z M 65.09375 93.851562 "/>
<path style=" stroke:none;fill-rule:nonzero;fill:rgb(96.470588%,77.64706%,80.392158%);fill-opacity:1;" d="M 62.230469 61.726562 C 62.230469 62.847656 68.84375 63.753906 72.882812 63.753906 C 76.925781 63.753906 80.042969 62.847656 80.042969 61.726562 C 80.042969 60.605469 76.921875 59.699219 72.882812 59.699219 C 68.84375 59.699219 62.230469 60.605469 62.230469 61.726562 Z M 62.230469 61.726562 "/>
<path style=" stroke:none;fill-rule:nonzero;fill:rgb(25.098041%,25.490198%,30.19608%);fill-opacity:1;" d="M 80.332031 65.046875 L 63.359375 65.046875 C 63.0625 65.050781 62.773438 64.910156 62.558594 64.667969 C 62.347656 64.421875 62.226562 64.085938 62.226562 63.738281 L 62.226562 61.726562 L 82.269531 61.726562 L 82.269531 62.804688 C 82.269531 64.042969 81.402344 65.046875 80.332031 65.046875 Z M 80.332031 65.046875 "/>
<path style=" stroke:none;fill-rule:nonzero;fill:rgb(25.098041%,25.490198%,30.19608%);fill-opacity:1;" d="M 80.316406 64.699219 L 79.472656 64.480469 L 83.683594 42.835938 C 83.777344 42.367188 84.179688 42.070312 84.585938 42.175781 L 85.292969 42.363281 C 85.699219 42.46875 85.953125 42.9375 85.863281 43.40625 L 81.949219 63.507812 C 81.78125 64.359375 81.054688 64.894531 80.320312 64.699219 Z M 80.316406 64.699219 "/>
<path style=" stroke:none;fill-rule:nonzero;fill:rgb(34.901962%,29.803923%,46.27451%);fill-opacity:1;" d="M 60.984375 72.976562 C 60.984375 72.976562 62.589844 75.304688 61.921875 76.238281 C 61.25 77.167969 57.910156 78.949219 56.835938 78.875 C 55.699219 78.796875 51.890625 79.03125 51.75 77.015625 C 51.75 77.015625 51.484375 76.082031 54.960938 75.925781 C 58.441406 75.773438 57.367188 71.578125 57.367188 71.578125 Z M 60.984375 72.976562 "/>
<use xlink:href="#surface17" mask="url(#mask4)"/>
<path style=" stroke:none;fill-rule:nonzero;fill:rgb(54.509807%,61.176473%,81.960785%);fill-opacity:1;" d="M 80.117188 53.269531 C 80.117188 53.269531 81.722656 59.628906 76.90625 60.71875 L 71.6875 60.40625 C 71.6875 60.40625 64.324219 58.699219 62.316406 59.941406 C 62.316406 59.941406 61.515625 60.097656 61.78125 61.339844 C 62.046875 62.578125 61.378906 70.953125 61.378906 70.953125 L 61.378906 73.746094 C 61.378906 73.746094 56.832031 73.746094 56.296875 73.125 C 56.296875 73.125 56.695312 70.640625 56.296875 68.625 C 55.894531 66.605469 56.964844 60.242188 56.964844 60.242188 L 57.070312 56.421875 C 57.089844 55.457031 57.550781 54.578125 58.285156 54.125 C 58.539062 53.96875 58.820312 53.886719 59.105469 53.882812 C 59.105469 53.882812 68.207031 52.175781 71.417969 52.484375 C 74.628906 52.796875 80.117188 53.269531 80.117188 53.269531 Z M 80.117188 53.269531 "/>
<path style=" stroke:none;fill-rule:nonzero;fill:rgb(100%,47.450981%,77.64706%);fill-opacity:1;" d="M 71.152344 32.941406 C 71.152344 32.941406 68.742188 36.199219 68.472656 37.285156 C 68.207031 38.371094 65.261719 41.164062 65.261719 41.164062 C 65.261719 41.164062 67.402344 43.023438 67.003906 43.957031 C 66.609375 44.890625 69.8125 40.855469 69.8125 40.855469 L 73.558594 34.496094 Z M 71.152344 32.941406 "/>
<use xlink:href="#surface20" mask="url(#mask5)"/>
<path style=" stroke:none;fill-rule:nonzero;fill:rgb(97.254902%,74.117649%,77.254903%);fill-opacity:1;" d="M 69.542969 29.214844 C 69.542969 29.214844 70.75 33.714844 70.75 35.421875 C 70.75 37.128906 75.832031 34.957031 75.695312 34.027344 C 75.554688 33.09375 72.75 29.679688 72.617188 28.289062 C 72.480469 26.898438 69.542969 29.214844 69.542969 29.214844 Z M 69.542969 29.214844 "/>
<use xlink:href="#surface23" mask="url(#mask6)"/>
<path style=" stroke:none;fill-rule:nonzero;fill:rgb(100%,47.450981%,77.64706%);fill-opacity:1;" d="M 73.566406 32.007812 C 73.566406 32.007812 78.25 30.613281 78.917969 38.527344 C 79.585938 46.441406 78.378906 47.371094 80.390625 52.183594 C 82.398438 56.992188 66.738281 52.804688 66.738281 52.804688 C 66.738281 52.804688 67.542969 51.71875 70.082031 52.183594 L 71.289062 47.992188 C 71.289062 47.992188 71.6875 46.132812 69.414062 46.132812 C 67.140625 46.132812 68.210938 40.699219 68.210938 40.699219 C 68.210938 40.699219 69.414062 36.042969 70.082031 35.578125 C 70.753906 35.113281 71.953125 32.320312 73.566406 32.007812 Z M 73.566406 32.007812 "/>
<path style=" stroke:none;fill-rule:nonzero;fill:rgb(97.254902%,74.117649%,77.254903%);fill-opacity:1;" d="M 67.828125 43.082031 C 67.828125 43.082031 62.8125 52.886719 61.636719 54.1875 C 61.636719 54.1875 56.621094 60.222656 59.171875 59.796875 C 59.359375 59.765625 63.027344 56.167969 63.242188 55.582031 C 63.457031 54.992188 70.394531 44.539062 70.394531 44.539062 L 69.40625 43.484375 Z M 67.828125 43.082031 "/>
<use xlink:href="#surface26" mask="url(#mask7)"/>
<path style=" stroke:none;fill-rule:nonzero;fill:rgb(100%,47.450981%,77.64706%);fill-opacity:1;" d="M 76.503906 38.992188 L 69.40625 46.441406 C 69.40625 46.441406 68.066406 43.335938 67.667969 43.335938 C 67.265625 43.335938 72.488281 34.179688 72.488281 34.179688 C 72.488281 34.179688 73.828125 32.320312 74.628906 33.25 C 75.433594 34.179688 77.84375 33.558594 76.503906 38.992188 Z M 76.503906 38.992188 "/>
<path style=" stroke:none;fill-rule:nonzero;fill:rgb(97.254902%,74.117649%,77.254903%);fill-opacity:1;" d="M 75.164062 26.886719 C 75.164062 24.058594 73.1875 21.765625 70.75 21.765625 C 68.308594 21.765625 66.332031 24.058594 66.332031 26.886719 C 66.332031 29.714844 68.308594 32.007812 70.75 32.007812 C 73.1875 32.007812 75.164062 29.714844 75.164062 26.886719 Z M 75.164062 26.886719 "/>
<use xlink:href="#surface29" mask="url(#mask8)"/>
<path style=" stroke:none;fill-rule:nonzero;fill:rgb(92.156863%,39.215687%,45.882353%);fill-opacity:1;" d="M 68.761719 25.089844 C 67.964844 25.214844 67.160156 24.558594 66.894531 23.675781 C 66.628906 22.792969 66.863281 21.765625 67.398438 21.066406 C 67.929688 20.367188 68.726562 19.976562 69.527344 19.882812 C 70.015625 19.828125 70.535156 19.867188 70.957031 19.585938 C 71.226562 19.410156 71.425781 19.125 71.648438 18.878906 C 72.492188 17.957031 73.710938 17.625 74.867188 17.6875 C 76.023438 17.75 77.140625 18.167969 78.242188 18.585938 C 78.652344 18.738281 79.125 18.96875 79.21875 19.457031 C 79.292969 19.824219 79.113281 20.1875 79.054688 20.554688 C 78.867188 21.726562 79.839844 22.6875 80.746094 23.246094 C 81.65625 23.804688 82.726562 24.390625 82.980469 25.542969 C 83.207031 26.582031 82.664062 27.601562 82.3125 28.589844 C 81.703125 30.320312 81.644531 32.246094 82.152344 34.019531 C 82.410156 34.914062 82.808594 35.765625 82.964844 36.6875 C 83.136719 37.71875 83 38.792969 82.570312 39.722656 C 82.445312 39.992188 82.292969 40.265625 82.273438 40.570312 C 82.273438 40.828125 82.324219 41.082031 82.425781 41.3125 C 83.210938 43.351562 84.703125 44.910156 86.535156 45.605469 C 86.246094 46.207031 85.621094 46.460938 85.039062 46.617188 C 84.054688 46.886719 83.042969 47.027344 82.03125 47.039062 C 81.347656 47.046875 80.648438 46.992188 80.027344 46.664062 C 79.402344 46.339844 78.863281 45.71875 78.746094 44.9375 C 78.675781 44.488281 78.753906 44.019531 78.703125 43.566406 C 78.597656 42.542969 77.886719 41.742188 77.628906 40.757812 C 77.378906 39.816406 77.238281 39.671875 77.332031 38.695312 C 77.429688 37.714844 77.410156 36.628906 76.859375 35.878906 C 76.28125 35.09375 75.269531 34.917969 74.402344 35.140625 C 73.53125 35.367188 73.082031 35.050781 72.289062 35.515625 C 70.902344 36.335938 69.417969 36.917969 67.886719 37.25 C 68.300781 35.976562 68.824219 34.574219 69.910156 34.058594 C 70.222656 33.910156 70.585938 33.832031 70.796875 33.527344 C 71.132812 33.042969 70.90625 32.269531 71.195312 31.75 C 71.488281 31.226562 72.179688 31.203125 72.578125 30.769531 C 72.917969 30.394531 72.980469 29.78125 72.847656 29.265625 C 72.71875 28.75 72.429688 28.308594 72.136719 27.894531 C 71.878906 27.523438 71.613281 27.15625 71.34375 26.792969 C 71.09375 26.488281 70.882812 26.144531 70.726562 25.765625 C 70.632812 25.515625 70.652344 25.046875 70.5 24.847656 C 70.113281 24.34375 69.226562 25.019531 68.761719 25.089844 Z M 68.761719 25.089844 "/>
<use xlink:href="#surface32" mask="url(#mask9)"/>
<path style=" stroke:none;fill-rule:nonzero;fill:url(#linear1);" d="M 28.257812 79.550781 C 28.902344 79.300781 29.871094 79.015625 30.632812 79.117188 C 31.359375 78.808594 33.0625 78.011719 34.226562 76.824219 C 34.195312 75.648438 34.21875 74.472656 34.304688 73.304688 C 34.898438 65.449219 33.558594 60.273438 33.558594 60.273438 C 33.558594 60.273438 32.507812 56.324219 32.625 53.046875 C 32.554688 53.195312 32.515625 53.285156 32.515625 53.285156 C 32.421875 50.457031 31.59375 47.535156 30.972656 45.710938 C 30.949219 45.703125 30.925781 45.695312 30.902344 45.683594 L 30.195312 43.773438 C 30.140625 43.660156 30.097656 43.542969 30.066406 43.417969 L 29.957031 43.117188 L 29.992188 43.101562 C 29.980469 43.050781 29.96875 42.996094 29.957031 42.945312 C 29.511719 40.765625 29.175781 35.601562 29.175781 35.601562 C 27.984375 30.164062 30.8125 26.800781 30.8125 26.800781 L 35.609375 22.007812 C 35.582031 22.070312 35.566406 22.136719 35.558594 22.203125 L 35.601562 22.164062 C 35.667969 21.9375 35.742188 21.664062 35.816406 21.359375 C 35.644531 21.21875 35.484375 21.0625 35.335938 20.890625 C 34.789062 20.292969 34.414062 19.515625 34.261719 18.664062 C 34.144531 18.003906 34.167969 17.320312 34.191406 16.644531 L 34.269531 14.335938 C 34.273438 13.882812 34.3125 13.433594 34.386719 12.988281 C 34.75 11.152344 36.371094 9.871094 37.996094 9.792969 C 38.511719 9.765625 39.027344 9.84375 39.542969 9.886719 C 39.960938 9.925781 40.382812 9.9375 40.800781 9.917969 C 40.847656 9.921875 40.894531 9.90625 40.9375 9.878906 C 40.972656 9.835938 40.996094 9.777344 40.996094 9.71875 C 41.011719 9.5 40.953125 9.285156 40.828125 9.125 C 40.765625 9.058594 40.691406 9.011719 40.613281 8.980469 L 40.730469 9.011719 C 40.671875 8.960938 40.609375 8.917969 40.539062 8.894531 C 40.953125 9.007812 41.378906 9.125 41.734375 9.390625 C 41.835938 9.46875 41.929688 9.5625 42.015625 9.664062 C 42.234375 9.890625 42.378906 10.199219 42.417969 10.539062 C 42.605469 10.328125 42.785156 10.09375 42.847656 9.804688 C 42.875 9.6875 42.875 9.566406 42.847656 9.453125 C 42.878906 9.492188 42.90625 9.535156 42.929688 9.574219 C 42.929688 9.5625 42.929688 9.550781 42.921875 9.539062 C 43.226562 9.976562 43.441406 10.488281 43.546875 11.035156 C 43.628906 10.914062 43.667969 10.757812 43.652344 10.605469 C 43.675781 10.691406 43.695312 10.777344 43.71875 10.863281 C 43.726562 10.804688 43.730469 10.75 43.726562 10.691406 C 43.910156 11.351562 43.996094 12.042969 43.972656 12.738281 C 43.972656 13.433594 43.707031 14.511719 43.066406 14.753906 C 43.035156 14.765625 43 14.777344 42.964844 14.785156 C 43.699219 16.101562 43.808594 17.753906 43.265625 19.1875 C 42.71875 20.621094 41.589844 21.636719 40.257812 21.898438 C 40.246094 21.980469 40.238281 22.070312 40.226562 22.164062 L 40.203125 22.164062 C 40.183594 22.351562 40.171875 22.546875 40.160156 22.753906 C 40.320312 22.9375 40.496094 23.101562 40.6875 23.246094 C 41.222656 23.613281 41.824219 23.84375 42.445312 23.921875 C 43.183594 23.984375 43.90625 24.234375 44.558594 24.648438 C 45.324219 25.148438 46.167969 25.867188 46.433594 26.75 C 46.875 28.214844 49.3125 30.488281 50.949219 30.773438 L 51.53125 30.734375 L 51.570312 30.71875 L 51.570312 30.730469 L 51.714844 30.71875 L 51.761719 30.71875 L 51.761719 30.730469 L 51.90625 30.71875 C 51.90625 30.71875 51.921875 30.800781 51.941406 30.9375 C 52.765625 30.613281 54.507812 29.703125 56.78125 27.3125 C 59.3125 24.652344 62.726562 25.175781 64.046875 25.511719 C 64.136719 25.535156 64.207031 25.621094 64.21875 25.726562 C 64.234375 25.835938 64.1875 25.941406 64.105469 25.996094 C 63.574219 26.335938 62.75 26.828125 62.359375 26.882812 C 62.359375 26.882812 63.160156 27.839844 62.3125 28.351562 C 62.105469 28.46875 61.859375 28.441406 61.675781 28.28125 C 61.265625 27.933594 60.132812 28.71875 58.492188 29.125 C 58.492188 29.125 53.859375 34.683594 51.5625 35.542969 C 51.507812 35.664062 51.449219 35.785156 51.386719 35.898438 L 51.246094 35.882812 L 51.238281 35.898438 L 51.21875 35.898438 L 51.199219 36.074219 C 51.199219 36.074219 47.625 35.855469 46.46875 34.347656 C 46.386719 34.261719 46.3125 34.167969 46.242188 34.070312 L 47.484375 52.207031 L 47.472656 52.207031 L 47.484375 52.378906 L 46.570312 52.378906 C 46.492188 54.613281 46.574219 56.851562 46.816406 59.066406 L 46.816406 70.886719 C 46.816406 70.886719 46.863281 71.929688 45 73.445312 C 43.046875 75.019531 41.164062 76.714844 39.359375 78.515625 L 39.132812 78.742188 C 39.476562 82.359375 40.191406 89.101562 40.789062 89.351562 L 40.421875 89.425781 C 41.058594 90.355469 42.847656 92.90625 43.394531 92.976562 C 44.066406 93.0625 44.511719 94.269531 43.394531 94.53125 C 42.363281 94.769531 39.6875 95.082031 36.765625 93.773438 C 36.332031 93.574219 36.066406 93.0625 36.128906 92.523438 L 36.34375 90.621094 C 36.304688 90.644531 36.269531 90.6875 36.25 90.734375 C 36.101562 91.253906 36.25 90.042969 36.25 90.042969 C 35.636719 87.761719 35.15625 85.4375 34.8125 83.082031 L 32.597656 85.292969 C 32.597656 85.292969 32.550781 85.230469 32.476562 85.113281 C 31.9375 86.542969 30.96875 89.457031 31.183594 91.59375 C 31.484375 94.527344 28.65625 91.9375 28.953125 90.210938 C 29.195312 88.816406 28.121094 82.898438 27.699219 80.691406 C 27.605469 80.203125 27.847656 79.710938 28.257812 79.550781 Z M 28.257812 79.550781 "/>
<path style=" stroke:none;fill-rule:nonzero;fill:rgb(99.607843%,76.47059%,74.509805%);fill-opacity:1;" d="M 51.363281 31.675781 C 51.363281 31.675781 53.46875 31.253906 56.59375 27.96875 C 59.066406 25.371094 62.398438 25.882812 63.691406 26.210938 C 63.785156 26.226562 63.859375 26.3125 63.871094 26.421875 C 63.886719 26.527344 63.835938 26.636719 63.75 26.683594 C 63.230469 27.011719 62.421875 27.492188 62.046875 27.546875 C 62.046875 27.546875 62.824219 28.484375 61.996094 28.984375 C 61.796875 29.097656 61.554688 29.070312 61.375 28.914062 C 60.976562 28.578125 59.871094 29.339844 58.269531 29.738281 C 58.269531 29.738281 52.019531 37.238281 50.566406 35.972656 Z M 51.363281 31.675781 "/>
<path style=" stroke:none;fill-rule:nonzero;fill:rgb(99.607843%,76.47059%,74.509805%);fill-opacity:1;" d="M 40.609375 21.488281 C 40.609375 21.488281 40.027344 24.355469 40.609375 26.375 L 37.992188 26.796875 L 35.667969 25.441406 L 35.667969 23.679688 C 35.667969 23.679688 36.757812 20.984375 36.46875 17.867188 Z M 40.609375 21.488281 "/>
<path style=" stroke:none;fill-rule:nonzero;fill:rgb(35.294119%,34.117648%,45.09804%);fill-opacity:1;" d="M 33.199219 83.582031 C 33.199219 83.582031 31.304688 87.878906 31.601562 90.742188 C 31.894531 93.605469 29.125 91.078125 29.421875 89.394531 C 29.65625 88.03125 28.605469 82.253906 28.199219 80.101562 C 28.105469 79.617188 28.34375 79.132812 28.75 78.980469 C 29.621094 78.644531 31.082031 78.230469 31.820312 78.863281 C 32.90625 79.789062 33.199219 83.582031 33.199219 83.582031 Z M 33.199219 83.582031 "/>
<path style=" stroke:none;fill-rule:nonzero;fill:rgb(35.294119%,34.117648%,45.09804%);fill-opacity:1;" d="M 40.390625 88.300781 C 40.390625 88.300781 42.863281 92.007812 43.515625 92.089844 C 44.167969 92.175781 44.605469 93.355469 43.515625 93.605469 C 42.511719 93.839844 39.894531 94.144531 37.042969 92.867188 C 36.617188 92.675781 36.359375 92.171875 36.421875 91.648438 L 36.832031 88.046875 Z M 40.390625 88.300781 "/>
<path style=" stroke:none;fill-rule:nonzero;fill:rgb(37.64706%,36.470589%,50.980395%);fill-opacity:1;" d="M 44.460938 48.953125 L 46.824219 49.320312 C 46.824219 49.320312 46.273438 53.925781 46.855469 58.980469 L 46.855469 70.523438 C 46.855469 70.523438 46.898438 71.539062 45.082031 73.015625 C 43.171875 74.554688 41.332031 76.210938 39.570312 77.96875 L 32.976562 84.589844 C 32.976562 84.589844 30.359375 80.882812 30.726562 78.691406 C 30.726562 78.691406 35.082031 77.09375 35.664062 74.480469 C 36 72.984375 37.6875 71.738281 39.074219 70.945312 C 40.855469 69.925781 41.828125 67.601562 41.339844 65.367188 C 41.257812 64.988281 41.132812 64.625 40.96875 64.285156 C 39.804688 61.925781 38.136719 56.617188 38.136719 56.617188 L 41.332031 49.542969 Z M 44.460938 48.953125 "/>
<use xlink:href="#surface35" mask="url(#mask10)"/>
<path style=" stroke:none;fill-rule:nonzero;fill:rgb(37.64706%,36.470589%,50.980395%);fill-opacity:1;" d="M 40.972656 88.550781 C 40.972656 88.550781 36.683594 89.394531 36.539062 89.90625 C 36.398438 90.417969 36.539062 89.230469 36.539062 89.230469 C 36.539062 89.230469 34.066406 80.554688 34.652344 72.886719 C 35.234375 65.21875 33.921875 60.167969 33.921875 60.167969 C 33.921875 60.167969 32.398438 54.4375 33.269531 51.152344 C 34.140625 47.867188 43.296875 49.300781 43.296875 49.300781 C 43.296875 49.300781 40.101562 57.96875 40.171875 62.101562 C 40.171875 62.101562 39.808594 74.570312 39.15625 76.003906 C 39.15625 76 40.171875 88.214844 40.972656 88.550781 Z M 40.972656 88.550781 "/>
<path style=" stroke:none;fill-rule:nonzero;fill:rgb(100%,100%,100%);fill-opacity:1;" d="M 40.464844 23.679688 C 40.464844 23.679688 40.027344 26.796875 35.667969 25.449219 L 38.570312 51.058594 C 38.570312 51.058594 47 51.398438 46.925781 50.21875 L 45.1875 34.714844 Z M 40.464844 23.679688 "/>
<use xlink:href="#surface38" mask="url(#mask11)"/>
<use xlink:href="#surface41" mask="url(#mask12)"/>
<path style=" stroke:none;fill-rule:nonzero;fill:rgb(40.392157%,39.215687%,49.411765%);fill-opacity:1;" d="M 40.355469 23.59375 C 40.355469 23.59375 41.324219 24.539062 42.597656 24.664062 C 43.320312 24.730469 44.023438 24.972656 44.660156 25.378906 C 45.414062 25.863281 46.234375 26.570312 46.488281 27.429688 C 46.996094 29.113281 50.195312 31.894531 51.652344 31.304688 L 51.140625 36.359375 C 51.140625 36.359375 47 36.109375 46.273438 34.253906 L 47.507812 52.28125 L 46.421875 52.28125 C 46.421875 52.28125 45.839844 47.398438 45.40625 46.386719 C 44.96875 45.375 44.097656 39.8125 44.023438 38.464844 C 43.949219 37.117188 42.859375 29.363281 41.917969 28.015625 L 40.355469 24.101562 Z M 40.355469 23.59375 "/>
<use xlink:href="#surface44" mask="url(#mask13)"/>
<path style=" stroke:none;fill-rule:nonzero;fill:rgb(99.607843%,76.47059%,74.509805%);fill-opacity:1;" d="M 43.734375 18.203125 C 43.734375 15.691406 41.976562 13.652344 39.808594 13.652344 C 37.644531 13.652344 35.886719 15.691406 35.886719 18.203125 C 35.886719 20.714844 37.644531 22.753906 39.808594 22.753906 C 41.976562 22.753906 43.734375 20.714844 43.734375 18.203125 Z M 43.734375 18.203125 "/>
<use xlink:href="#surface47" mask="url(#mask14)"/>
<path style=" stroke:none;fill-rule:nonzero;fill:rgb(56.862748%,38.039216%,40.784314%);fill-opacity:1;" d="M 44.019531 13.660156 C 44.042969 12.890625 43.933594 12.125 43.695312 11.40625 C 43.828125 11.640625 43.792969 11.949219 43.613281 12.132812 C 43.488281 11.351562 43.144531 10.636719 42.632812 10.105469 C 42.910156 10.160156 43.054688 10.5625 42.988281 10.878906 C 42.917969 11.199219 42.707031 11.445312 42.503906 11.671875 C 42.527344 11.191406 42.25 10.742188 41.902344 10.476562 C 41.554688 10.210938 41.140625 10.101562 40.734375 9.984375 C 41.023438 10.101562 41.207031 10.433594 41.183594 10.789062 C 41.183594 10.847656 41.160156 10.902344 41.125 10.945312 C 41.085938 10.976562 41.039062 10.988281 40.992188 10.984375 C 40.582031 11.003906 40.171875 10.996094 39.765625 10.957031 C 39.261719 10.890625 38.757812 10.859375 38.253906 10.863281 C 36.664062 10.941406 35.085938 12.191406 34.730469 13.980469 C 34.65625 14.414062 34.621094 14.851562 34.617188 15.292969 L 34.539062 17.546875 C 34.515625 18.207031 34.492188 18.875 34.609375 19.519531 C 34.828125 20.738281 35.507812 21.777344 36.457031 22.355469 C 37.027344 21.398438 37.078125 20.167969 37.277344 19.027344 C 37.308594 18.761719 37.390625 18.507812 37.523438 18.289062 C 37.664062 18.082031 37.917969 17.953125 38.128906 18.050781 C 38.34375 18.148438 38.433594 18.527344 38.257812 18.695312 C 38.410156 18.910156 38.710938 18.75 38.886719 18.558594 C 39.386719 18.011719 39.730469 17.300781 39.871094 16.519531 C 39.941406 16.128906 40.015625 15.648438 40.339844 15.511719 C 40.457031 15.476562 40.574219 15.464844 40.691406 15.484375 C 41.382812 15.539062 42.464844 15.871094 43.136719 15.617188 C 43.761719 15.390625 44.019531 14.335938 44.019531 13.660156 Z M 44.019531 13.660156 "/>
<use xlink:href="#surface50" mask="url(#mask15)"/>
<path style=" stroke:none;fill-rule:nonzero;fill:rgb(99.215686%,43.529412%,55.29412%);fill-opacity:1;" d="M 51.6875 31.304688 C 51.6875 31.304688 52.269531 34.421875 51.179688 36.359375 L 50.5625 36.300781 L 50.898438 31.355469 Z M 51.6875 31.304688 "/>
<use xlink:href="#surface53" mask="url(#mask16)"/>
<path style=" stroke:none;fill-rule:nonzero;fill:rgb(40.392157%,39.215687%,49.411765%);fill-opacity:1;" d="M 35.921875 22.792969 L 31.238281 27.46875 C 31.238281 27.46875 28.476562 30.753906 29.636719 36.0625 C 29.636719 36.0625 30.144531 43.8125 30.726562 44.152344 C 30.726562 44.152344 32.761719 48.871094 32.90625 53.335938 C 32.90625 53.335938 35.777344 46.636719 37.011719 50.511719 C 38.25 54.386719 40.972656 55.273438 40.972656 55.273438 L 39.371094 32.355469 C 39.371094 32.355469 35.339844 24.226562 35.921875 22.792969 Z M 35.921875 22.792969 "/>
<path style=" stroke:none;fill-rule:nonzero;fill:rgb(99.607843%,76.47059%,74.509805%);fill-opacity:1;" d="M 33.78125 42.550781 C 33.78125 42.550781 32.617188 41.625 30.726562 44.152344 L 35.378906 53.925781 L 36.941406 51.183594 C 36.941406 51.183594 33.632812 43.648438 33.78125 42.550781 Z M 33.78125 42.550781 "/>
<use xlink:href="#surface56" mask="url(#mask17)"/>
<path style=" stroke:none;fill-rule:nonzero;fill:rgb(99.215686%,43.529412%,55.29412%);fill-opacity:1;" d="M 34.90625 42.929688 C 34.90625 42.929688 32.335938 46.28125 31.332031 45.742188 L 30.402344 43.234375 L 33.886719 41.496094 Z M 34.90625 42.929688 "/>
<use xlink:href="#surface59" mask="url(#mask18)"/>
<path style=" stroke:none;fill-rule:nonzero;fill:rgb(30.19608%,28.627452%,50.588238%);fill-opacity:1;" d="M 36.855469 50.636719 C 36.855469 50.636719 35.632812 53.542969 34.976562 53.714844 L 35.921875 54.980469 L 37.304688 51.945312 Z M 36.855469 50.636719 "/>
<use xlink:href="#surface62" mask="url(#mask19)"/>
<use xlink:href="#surface65" mask="url(#mask20)"/>
<path style=" stroke:none;fill-rule:nonzero;fill:rgb(25.098041%,25.490198%,30.19608%);fill-opacity:1;" d="M 57.785156 26.472656 L 63.878906 27.613281 L 63.808594 28.117188 L 57.714844 26.976562 Z M 57.785156 26.472656 "/>
<path style=" stroke:none;fill-rule:nonzero;fill:rgb(25.098041%,25.490198%,30.19608%);fill-opacity:1;" d="M 65.878906 28.242188 C 65.878906 28.242188 65.246094 28.738281 64.640625 28.828125 C 64.527344 28.847656 64.417969 28.847656 64.304688 28.828125 C 63.75 28.726562 63.460938 28.410156 63.410156 28.039062 C 63.386719 27.871094 63.414062 27.695312 63.476562 27.542969 C 63.628906 27.207031 63.988281 27.015625 64.542969 27.121094 C 64.714844 27.15625 64.875 27.230469 65.023438 27.339844 C 65.347656 27.582031 65.636719 27.886719 65.878906 28.242188 Z M 65.878906 28.242188 "/>
<path style=" stroke:none;fill-rule:nonzero;fill:rgb(97.254902%,74.117649%,77.254903%);fill-opacity:1;" d="M 65.878906 28.242188 C 65.878906 28.242188 65.246094 28.738281 64.640625 28.828125 C 64.621094 28.75 64.625 28.667969 64.652344 28.59375 C 64.710938 28.488281 64.78125 28.390625 64.855469 28.304688 C 64.921875 28.199219 64.9375 28.03125 64.84375 27.96875 C 64.820312 27.957031 64.800781 27.945312 64.78125 27.929688 C 64.726562 27.871094 64.78125 27.765625 64.828125 27.703125 C 64.917969 27.597656 65.023438 27.472656 65.019531 27.328125 C 65.347656 27.574219 65.636719 27.882812 65.878906 28.242188 Z M 65.878906 28.242188 "/>
</g>
</svg>
