<?xml version="1.0" encoding="UTF-8"?>
<svg xmlns="http://www.w3.org/2000/svg" xmlns:xlink="http://www.w3.org/1999/xlink" width="100px" height="100px" viewBox="0 0 100 100" version="1.1">
<g id="surface1">
<path style=" stroke:none;fill-rule:nonzero;fill:rgb(99.607843%,97.254902%,96.862745%);fill-opacity:1;" d="M 0 0 C 33 0 66 0 100 0 C 100 33 100 66 100 100 C 67 100 34 100 0 100 C 0 67 0 34 0 0 Z M 0 0 "/>
<path style=" stroke:none;fill-rule:nonzero;fill:rgb(97.254902%,45.490196%,66.666669%);fill-opacity:1;" d="M 42.007812 15.308594 C 42.066406 15.304688 42.121094 15.304688 42.179688 15.304688 C 42.242188 15.304688 42.304688 15.304688 42.367188 15.304688 C 42.46875 15.304688 42.46875 15.304688 42.570312 15.304688 C 42.792969 15.304688 43.015625 15.304688 43.238281 15.304688 C 43.394531 15.304688 43.554688 15.300781 43.714844 15.300781 C 44.101562 15.300781 44.492188 15.300781 44.878906 15.300781 C 45.195312 15.300781 45.511719 15.300781 45.824219 15.296875 C 46.71875 15.296875 47.613281 15.296875 48.507812 15.296875 C 48.558594 15.296875 48.605469 15.296875 48.65625 15.296875 C 48.726562 15.296875 48.726562 15.296875 48.800781 15.296875 C 49.582031 15.296875 50.367188 15.292969 51.148438 15.292969 C 51.953125 15.289062 52.753906 15.289062 53.558594 15.289062 C 54.011719 15.289062 54.460938 15.285156 54.910156 15.285156 C 55.335938 15.28125 55.761719 15.28125 56.183594 15.285156 C 56.339844 15.285156 56.496094 15.285156 56.652344 15.28125 C 56.863281 15.28125 57.078125 15.28125 57.289062 15.285156 C 57.351562 15.28125 57.414062 15.28125 57.476562 15.28125 C 57.746094 15.285156 57.902344 15.296875 58.136719 15.507812 C 58.355469 15.867188 58.414062 16.117188 58.414062 16.601562 C 58.414062 16.699219 58.417969 16.796875 58.417969 16.898438 C 58.417969 17.007812 58.417969 17.113281 58.417969 17.226562 C 58.417969 17.394531 58.417969 17.394531 58.417969 17.570312 C 58.417969 17.945312 58.417969 18.320312 58.417969 18.699219 C 58.417969 18.894531 58.417969 19.085938 58.417969 19.28125 C 58.417969 19.894531 58.417969 20.507812 58.417969 21.121094 C 58.417969 21.753906 58.417969 22.386719 58.421875 23.019531 C 58.421875 23.5625 58.421875 24.105469 58.421875 24.648438 C 58.421875 24.972656 58.421875 25.296875 58.421875 25.621094 C 58.425781 25.984375 58.421875 26.34375 58.421875 26.707031 C 58.421875 26.8125 58.421875 26.921875 58.425781 27.03125 C 58.417969 27.960938 58.417969 27.960938 58.203125 28.320312 C 57.96875 28.589844 57.800781 28.648438 57.507812 28.648438 C 57.433594 28.648438 57.359375 28.648438 57.285156 28.644531 C 57.207031 28.644531 57.128906 28.644531 57.046875 28.640625 C 56.96875 28.640625 56.886719 28.640625 56.804688 28.640625 C 56.589844 28.640625 56.378906 28.636719 56.164062 28.632812 C 55.949219 28.628906 55.730469 28.628906 55.511719 28.628906 C 55.085938 28.625 54.660156 28.617188 54.230469 28.613281 C 54.230469 29.839844 54.230469 31.0625 54.230469 32.324219 C 54.734375 32.320312 54.734375 32.320312 55.246094 32.316406 C 56.351562 32.3125 57.453125 32.308594 58.558594 32.304688 C 59.230469 32.300781 59.898438 32.300781 60.570312 32.292969 C 61.152344 32.289062 61.738281 32.289062 62.320312 32.289062 C 62.628906 32.285156 62.9375 32.285156 63.246094 32.28125 C 63.539062 32.28125 63.828125 32.28125 64.121094 32.28125 C 64.226562 32.28125 64.335938 32.277344 64.441406 32.277344 C 65.546875 32.261719 65.546875 32.261719 66.03125 32.910156 C 66.066406 32.976562 66.101562 33.039062 66.136719 33.105469 C 66.171875 33.171875 66.210938 33.234375 66.246094 33.300781 C 66.550781 33.933594 66.546875 34.605469 66.546875 35.359375 C 66.546875 35.449219 66.546875 35.535156 66.546875 35.628906 C 66.546875 35.925781 66.546875 36.222656 66.546875 36.523438 C 66.546875 36.738281 66.546875 36.953125 66.546875 37.167969 C 66.546875 37.761719 66.546875 38.355469 66.546875 38.949219 C 66.550781 39.523438 66.550781 40.097656 66.550781 40.671875 C 66.550781 42.207031 66.554688 43.746094 66.554688 45.28125 C 66.554688 45.792969 66.554688 46.300781 66.554688 46.808594 C 66.554688 49.519531 66.558594 52.226562 66.558594 54.933594 C 66.558594 55.5625 66.558594 56.1875 66.558594 56.816406 C 66.558594 56.894531 66.558594 56.972656 66.558594 57.050781 C 66.558594 59.578125 66.5625 62.105469 66.566406 64.632812 C 66.566406 67.230469 66.570312 69.828125 66.570312 72.425781 C 66.570312 72.792969 66.570312 73.160156 66.570312 73.527344 C 66.570312 73.601562 66.570312 73.671875 66.570312 73.746094 C 66.570312 74.910156 66.570312 76.070312 66.574219 77.230469 C 66.574219 78.398438 66.574219 79.570312 66.574219 80.738281 C 66.574219 81.371094 66.574219 82 66.574219 82.632812 C 66.578125 83.214844 66.578125 83.792969 66.578125 84.371094 C 66.574219 84.582031 66.578125 84.792969 66.578125 85 C 66.585938 87.265625 66.585938 87.265625 66.070312 88.257812 C 65.832031 88.539062 65.640625 88.542969 65.347656 88.539062 C 65.269531 88.539062 65.269531 88.539062 65.1875 88.539062 C 65.003906 88.542969 64.820312 88.542969 64.640625 88.539062 C 64.507812 88.539062 64.378906 88.542969 64.246094 88.542969 C 63.886719 88.546875 63.523438 88.542969 63.160156 88.542969 C 62.773438 88.542969 62.382812 88.542969 61.992188 88.546875 C 61.230469 88.550781 60.464844 88.550781 59.703125 88.546875 C 59.082031 88.546875 58.460938 88.546875 57.839844 88.550781 C 57.753906 88.550781 57.664062 88.550781 57.574219 88.550781 C 57.441406 88.550781 57.304688 88.550781 57.171875 88.550781 C 55.921875 88.550781 54.675781 88.554688 53.425781 88.550781 C 53.378906 88.550781 53.332031 88.550781 53.285156 88.550781 C 52.902344 88.550781 52.519531 88.550781 52.136719 88.550781 C 50.644531 88.550781 49.152344 88.550781 47.664062 88.554688 C 45.988281 88.558594 44.3125 88.5625 42.636719 88.5625 C 42.460938 88.5625 42.28125 88.558594 42.101562 88.558594 C 42.058594 88.558594 42.015625 88.558594 41.96875 88.558594 C 41.304688 88.558594 40.640625 88.5625 39.976562 88.5625 C 39.222656 88.566406 38.464844 88.566406 37.710938 88.5625 C 37.324219 88.5625 36.941406 88.5625 36.554688 88.566406 C 36.203125 88.566406 35.851562 88.566406 35.496094 88.5625 C 35.371094 88.5625 35.242188 88.5625 35.113281 88.566406 C 34.941406 88.566406 34.765625 88.566406 34.59375 88.5625 C 34.542969 88.5625 34.492188 88.566406 34.441406 88.566406 C 34.25 88.558594 34.09375 88.527344 33.9375 88.351562 C 33.503906 87.65625 33.359375 86.808594 33.367188 85.878906 C 33.367188 85.789062 33.363281 85.699219 33.363281 85.605469 C 33.363281 85.308594 33.363281 85.007812 33.367188 84.710938 C 33.367188 84.492188 33.363281 84.277344 33.363281 84.058594 C 33.363281 83.464844 33.363281 82.867188 33.367188 82.273438 C 33.367188 81.695312 33.367188 81.121094 33.363281 80.542969 C 33.363281 79.292969 33.363281 78.039062 33.363281 76.789062 C 33.367188 75.695312 33.367188 74.601562 33.367188 73.503906 C 33.367188 73.433594 33.367188 73.359375 33.367188 73.285156 C 33.367188 72.988281 33.367188 72.695312 33.367188 72.398438 C 33.367188 69.632812 33.367188 66.867188 33.367188 64.101562 C 33.371094 61.644531 33.371094 59.1875 33.371094 56.730469 C 33.371094 56.101562 33.367188 55.472656 33.367188 54.839844 C 33.367188 54.726562 33.367188 54.726562 33.367188 54.605469 C 33.367188 52.554688 33.367188 50.5 33.371094 48.445312 C 33.371094 48.226562 33.371094 48.003906 33.371094 47.78125 C 33.371094 47.636719 33.371094 47.488281 33.371094 47.34375 C 33.371094 46.25 33.371094 45.15625 33.371094 44.058594 C 33.371094 42.816406 33.371094 41.570312 33.371094 40.328125 C 33.371094 39.691406 33.371094 39.058594 33.371094 38.421875 C 33.371094 37.839844 33.371094 37.261719 33.371094 36.679688 C 33.375 36.46875 33.371094 36.257812 33.371094 36.046875 C 33.371094 35.761719 33.371094 35.476562 33.375 35.191406 C 33.375 35.109375 33.371094 35.027344 33.371094 34.941406 C 33.378906 34.242188 33.484375 33.621094 33.800781 33.082031 C 33.851562 32.988281 33.851562 32.988281 33.90625 32.894531 C 34.4375 32.226562 34.980469 32.265625 35.640625 32.269531 C 35.746094 32.269531 35.855469 32.269531 35.964844 32.269531 C 36.257812 32.265625 36.550781 32.265625 36.84375 32.265625 C 37.152344 32.265625 37.457031 32.261719 37.765625 32.261719 C 38.347656 32.257812 38.925781 32.253906 39.507812 32.253906 C 40.167969 32.25 40.832031 32.246094 41.492188 32.242188 C 42.851562 32.234375 44.210938 32.230469 45.574219 32.226562 C 45.59375 31.035156 45.617188 29.84375 45.636719 28.613281 C 45.367188 28.617188 45.09375 28.621094 44.8125 28.628906 C 44.59375 28.628906 44.375 28.632812 44.15625 28.632812 C 43.925781 28.636719 43.699219 28.636719 43.46875 28.644531 C 43.203125 28.648438 42.9375 28.648438 42.675781 28.652344 C 42.59375 28.652344 42.511719 28.65625 42.425781 28.65625 C 41.710938 28.65625 41.710938 28.65625 41.40625 28.222656 C 41.265625 27.90625 41.257812 27.816406 41.257812 27.449219 C 41.257812 27.351562 41.257812 27.25 41.257812 27.148438 C 41.257812 27.042969 41.257812 26.933594 41.257812 26.820312 C 41.257812 26.707031 41.257812 26.59375 41.253906 26.472656 C 41.253906 26.160156 41.253906 25.847656 41.253906 25.53125 C 41.253906 25.335938 41.253906 25.140625 41.253906 24.945312 C 41.253906 24.261719 41.25 23.574219 41.25 22.890625 C 41.253906 22.253906 41.25 21.617188 41.25 20.980469 C 41.246094 20.429688 41.246094 19.882812 41.246094 19.335938 C 41.246094 19.007812 41.246094 18.679688 41.246094 18.355469 C 41.242188 17.988281 41.242188 17.625 41.246094 17.261719 C 41.242188 17.152344 41.242188 17.042969 41.242188 16.933594 C 41.246094 16.335938 41.265625 15.976562 41.535156 15.527344 C 41.738281 15.324219 41.78125 15.308594 42.007812 15.308594 Z M 42.007812 15.308594 "/>
<path style=" stroke:none;fill-rule:nonzero;fill:rgb(99.215686%,61.176473%,75.294119%);fill-opacity:1;" d="M 42.007812 15.308594 C 42.066406 15.304688 42.121094 15.304688 42.179688 15.304688 C 42.242188 15.304688 42.304688 15.304688 42.367188 15.304688 C 42.46875 15.304688 42.46875 15.304688 42.570312 15.304688 C 42.792969 15.304688 43.015625 15.304688 43.238281 15.304688 C 43.394531 15.304688 43.554688 15.300781 43.714844 15.300781 C 44.101562 15.300781 44.492188 15.300781 44.878906 15.300781 C 45.195312 15.300781 45.511719 15.300781 45.824219 15.296875 C 46.71875 15.296875 47.613281 15.296875 48.507812 15.296875 C 48.558594 15.296875 48.605469 15.296875 48.65625 15.296875 C 48.726562 15.296875 48.726562 15.296875 48.800781 15.296875 C 49.582031 15.296875 50.367188 15.292969 51.148438 15.292969 C 51.953125 15.289062 52.753906 15.289062 53.558594 15.289062 C 54.011719 15.289062 54.460938 15.285156 54.910156 15.285156 C 55.335938 15.28125 55.761719 15.28125 56.183594 15.285156 C 56.339844 15.285156 56.496094 15.285156 56.652344 15.28125 C 56.863281 15.28125 57.078125 15.28125 57.289062 15.285156 C 57.351562 15.28125 57.414062 15.28125 57.476562 15.28125 C 57.746094 15.285156 57.902344 15.296875 58.136719 15.507812 C 58.355469 15.867188 58.414062 16.117188 58.414062 16.601562 C 58.414062 16.699219 58.417969 16.796875 58.417969 16.898438 C 58.417969 17.007812 58.417969 17.113281 58.417969 17.226562 C 58.417969 17.394531 58.417969 17.394531 58.417969 17.570312 C 58.417969 17.945312 58.417969 18.320312 58.417969 18.699219 C 58.417969 18.894531 58.417969 19.085938 58.417969 19.28125 C 58.417969 19.894531 58.417969 20.507812 58.417969 21.121094 C 58.417969 21.753906 58.417969 22.386719 58.421875 23.019531 C 58.421875 23.5625 58.421875 24.105469 58.421875 24.648438 C 58.421875 24.972656 58.421875 25.296875 58.421875 25.621094 C 58.425781 25.984375 58.421875 26.34375 58.421875 26.707031 C 58.421875 26.8125 58.421875 26.921875 58.425781 27.03125 C 58.417969 27.960938 58.417969 27.960938 58.203125 28.320312 C 57.96875 28.589844 57.800781 28.648438 57.507812 28.648438 C 57.433594 28.648438 57.359375 28.648438 57.285156 28.644531 C 57.207031 28.644531 57.128906 28.644531 57.046875 28.640625 C 56.96875 28.640625 56.886719 28.640625 56.804688 28.640625 C 56.589844 28.640625 56.378906 28.636719 56.164062 28.632812 C 55.949219 28.628906 55.730469 28.628906 55.511719 28.628906 C 55.085938 28.625 54.660156 28.617188 54.230469 28.613281 C 54.230469 29.839844 54.230469 31.0625 54.230469 32.324219 C 54.734375 32.320312 54.734375 32.320312 55.246094 32.316406 C 56.351562 32.3125 57.453125 32.308594 58.558594 32.304688 C 59.230469 32.300781 59.898438 32.300781 60.570312 32.292969 C 61.152344 32.289062 61.738281 32.289062 62.320312 32.289062 C 62.628906 32.285156 62.9375 32.285156 63.246094 32.28125 C 63.539062 32.28125 63.828125 32.28125 64.121094 32.28125 C 64.226562 32.28125 64.335938 32.277344 64.441406 32.277344 C 65.546875 32.261719 65.546875 32.261719 66.03125 32.910156 C 66.066406 32.976562 66.101562 33.039062 66.136719 33.105469 C 66.171875 33.171875 66.210938 33.234375 66.246094 33.300781 C 66.550781 33.933594 66.546875 34.605469 66.546875 35.359375 C 66.546875 35.449219 66.546875 35.535156 66.546875 35.628906 C 66.546875 35.925781 66.546875 36.222656 66.546875 36.523438 C 66.546875 36.738281 66.546875 36.953125 66.546875 37.167969 C 66.546875 37.761719 66.546875 38.355469 66.546875 38.949219 C 66.550781 39.523438 66.550781 40.097656 66.550781 40.671875 C 66.550781 42.207031 66.554688 43.746094 66.554688 45.28125 C 66.554688 45.792969 66.554688 46.300781 66.554688 46.808594 C 66.554688 49.519531 66.558594 52.226562 66.558594 54.933594 C 66.558594 55.5625 66.558594 56.1875 66.558594 56.816406 C 66.558594 56.894531 66.558594 56.972656 66.558594 57.050781 C 66.558594 59.578125 66.5625 62.105469 66.566406 64.632812 C 66.566406 67.230469 66.570312 69.828125 66.570312 72.425781 C 66.570312 72.792969 66.570312 73.160156 66.570312 73.527344 C 66.570312 73.601562 66.570312 73.671875 66.570312 73.746094 C 66.570312 74.910156 66.570312 76.070312 66.574219 77.230469 C 66.574219 78.398438 66.574219 79.570312 66.574219 80.738281 C 66.574219 81.371094 66.574219 82 66.574219 82.632812 C 66.578125 83.214844 66.578125 83.792969 66.578125 84.371094 C 66.574219 84.582031 66.578125 84.792969 66.578125 85 C 66.585938 87.265625 66.585938 87.265625 66.070312 88.257812 C 65.832031 88.539062 65.640625 88.542969 65.347656 88.539062 C 65.269531 88.539062 65.269531 88.539062 65.1875 88.539062 C 65.003906 88.542969 64.820312 88.542969 64.640625 88.539062 C 64.507812 88.539062 64.378906 88.542969 64.246094 88.542969 C 63.886719 88.546875 63.523438 88.542969 63.160156 88.542969 C 62.773438 88.542969 62.382812 88.542969 61.992188 88.546875 C 61.230469 88.550781 60.464844 88.550781 59.703125 88.546875 C 59.082031 88.546875 58.460938 88.546875 57.839844 88.550781 C 57.753906 88.550781 57.664062 88.550781 57.574219 88.550781 C 57.441406 88.550781 57.304688 88.550781 57.171875 88.550781 C 55.921875 88.550781 54.675781 88.554688 53.425781 88.550781 C 53.378906 88.550781 53.332031 88.550781 53.285156 88.550781 C 52.902344 88.550781 52.519531 88.550781 52.136719 88.550781 C 50.644531 88.550781 49.152344 88.550781 47.664062 88.554688 C 45.988281 88.558594 44.3125 88.5625 42.636719 88.5625 C 42.460938 88.5625 42.28125 88.558594 42.101562 88.558594 C 42.058594 88.558594 42.015625 88.558594 41.96875 88.558594 C 41.304688 88.558594 40.640625 88.5625 39.976562 88.5625 C 39.222656 88.566406 38.464844 88.566406 37.710938 88.5625 C 37.324219 88.5625 36.941406 88.5625 36.554688 88.566406 C 36.203125 88.566406 35.851562 88.566406 35.496094 88.5625 C 35.371094 88.5625 35.242188 88.5625 35.113281 88.566406 C 34.941406 88.566406 34.765625 88.566406 34.59375 88.5625 C 34.542969 88.5625 34.492188 88.566406 34.441406 88.566406 C 34.25 88.558594 34.09375 88.527344 33.9375 88.351562 C 33.503906 87.65625 33.359375 86.808594 33.367188 85.878906 C 33.367188 85.789062 33.363281 85.699219 33.363281 85.605469 C 33.363281 85.308594 33.363281 85.007812 33.367188 84.710938 C 33.367188 84.492188 33.363281 84.277344 33.363281 84.058594 C 33.363281 83.464844 33.363281 82.867188 33.367188 82.273438 C 33.367188 81.695312 33.367188 81.121094 33.363281 80.542969 C 33.363281 79.292969 33.363281 78.039062 33.363281 76.789062 C 33.367188 75.695312 33.367188 74.601562 33.367188 73.503906 C 33.367188 73.433594 33.367188 73.359375 33.367188 73.285156 C 33.367188 72.988281 33.367188 72.695312 33.367188 72.398438 C 33.367188 69.632812 33.367188 66.867188 33.367188 64.101562 C 33.371094 61.644531 33.371094 59.1875 33.371094 56.730469 C 33.371094 56.101562 33.367188 55.472656 33.367188 54.839844 C 33.367188 54.726562 33.367188 54.726562 33.367188 54.605469 C 33.367188 52.554688 33.367188 50.5 33.371094 48.445312 C 33.371094 48.226562 33.371094 48.003906 33.371094 47.78125 C 33.371094 47.636719 33.371094 47.488281 33.371094 47.34375 C 33.371094 46.25 33.371094 45.15625 33.371094 44.058594 C 33.371094 42.816406 33.371094 41.570312 33.371094 40.328125 C 33.371094 39.691406 33.371094 39.058594 33.371094 38.421875 C 33.371094 37.839844 33.371094 37.261719 33.371094 36.679688 C 33.375 36.46875 33.371094 36.257812 33.371094 36.046875 C 33.371094 35.761719 33.371094 35.476562 33.375 35.191406 C 33.375 35.109375 33.371094 35.027344 33.371094 34.941406 C 33.378906 34.242188 33.484375 33.621094 33.800781 33.082031 C 33.851562 32.988281 33.851562 32.988281 33.90625 32.894531 C 34.4375 32.226562 34.980469 32.265625 35.640625 32.269531 C 35.746094 32.269531 35.855469 32.269531 35.964844 32.269531 C 36.257812 32.265625 36.550781 32.265625 36.84375 32.265625 C 37.152344 32.265625 37.457031 32.261719 37.765625 32.261719 C 38.347656 32.257812 38.925781 32.253906 39.507812 32.253906 C 40.167969 32.25 40.832031 32.246094 41.492188 32.242188 C 42.851562 32.234375 44.210938 32.230469 45.574219 32.226562 C 45.59375 31.035156 45.617188 29.84375 45.636719 28.613281 C 45.367188 28.617188 45.09375 28.621094 44.8125 28.628906 C 44.59375 28.628906 44.375 28.632812 44.15625 28.632812 C 43.925781 28.636719 43.699219 28.636719 43.46875 28.644531 C 43.203125 28.648438 42.9375 28.648438 42.675781 28.652344 C 42.59375 28.652344 42.511719 28.65625 42.425781 28.65625 C 41.710938 28.65625 41.710938 28.65625 41.40625 28.222656 C 41.265625 27.90625 41.257812 27.816406 41.257812 27.449219 C 41.257812 27.351562 41.257812 27.25 41.257812 27.148438 C 41.257812 27.042969 41.257812 26.933594 41.257812 26.820312 C 41.257812 26.707031 41.257812 26.59375 41.253906 26.472656 C 41.253906 26.160156 41.253906 25.847656 41.253906 25.53125 C 41.253906 25.335938 41.253906 25.140625 41.253906 24.945312 C 41.253906 24.261719 41.25 23.574219 41.25 22.890625 C 41.253906 22.253906 41.25 21.617188 41.25 20.980469 C 41.246094 20.429688 41.246094 19.882812 41.246094 19.335938 C 41.246094 19.007812 41.246094 18.679688 41.246094 18.355469 C 41.242188 17.988281 41.242188 17.625 41.246094 17.261719 C 41.242188 17.152344 41.242188 17.042969 41.242188 16.933594 C 41.246094 16.335938 41.265625 15.976562 41.535156 15.527344 C 41.738281 15.324219 41.78125 15.308594 42.007812 15.308594 Z M 60.394531 40.148438 C 60.238281 40.171875 60.078125 40.191406 59.917969 40.214844 C 57.605469 40.535156 55.296875 40.878906 52.992188 41.28125 C 52.355469 41.394531 51.722656 41.5 51.085938 41.578125 C 50.960938 41.59375 50.835938 41.613281 50.714844 41.628906 C 48.929688 41.867188 47.15625 41.8125 45.371094 41.753906 C 45.308594 41.753906 45.25 41.75 45.1875 41.75 C 44.835938 41.738281 44.480469 41.722656 44.128906 41.707031 C 44.003906 41.703125 43.882812 41.695312 43.757812 41.691406 C 42.730469 41.660156 41.742188 41.484375 40.730469 41.222656 C 40.589844 41.1875 40.453125 41.152344 40.3125 41.117188 C 39.804688 40.992188 39.300781 40.867188 38.792969 40.730469 C 38.253906 40.589844 37.726562 40.476562 37.179688 40.484375 C 37.082031 40.484375 37.082031 40.484375 36.988281 40.484375 C 36.535156 40.5 36.144531 40.589844 35.742188 40.917969 C 35.675781 40.964844 35.675781 40.964844 35.613281 41.015625 C 35.605469 45.796875 35.601562 50.578125 35.597656 55.355469 C 35.597656 55.921875 35.597656 56.488281 35.597656 57.050781 C 35.597656 57.164062 35.597656 57.277344 35.597656 57.390625 C 35.597656 59.210938 35.59375 61.03125 35.59375 62.847656 C 35.589844 64.714844 35.589844 66.582031 35.585938 68.449219 C 35.585938 69.601562 35.585938 70.753906 35.582031 71.90625 C 35.582031 72.695312 35.582031 73.484375 35.582031 74.277344 C 35.582031 74.730469 35.582031 75.1875 35.582031 75.644531 C 35.578125 76.0625 35.578125 76.476562 35.582031 76.894531 C 35.582031 77.046875 35.582031 77.199219 35.578125 77.347656 C 35.574219 78.621094 35.683594 79.867188 36.261719 80.859375 C 36.425781 81.085938 36.59375 81.269531 36.785156 81.445312 C 36.824219 81.484375 36.863281 81.523438 36.90625 81.5625 C 37.8125 82.332031 38.996094 82.054688 39.988281 81.886719 C 40.152344 81.859375 40.3125 81.832031 40.472656 81.808594 C 40.996094 81.722656 41.519531 81.632812 42.042969 81.539062 C 44.492188 81.097656 46.933594 80.929688 49.402344 80.925781 C 49.5625 80.925781 49.722656 80.925781 49.882812 80.925781 C 51.011719 80.921875 52.140625 80.953125 53.269531 81.046875 C 53.316406 81.050781 53.367188 81.054688 53.414062 81.058594 C 54.3125 81.132812 55.203125 81.269531 56.097656 81.429688 C 56.167969 81.445312 56.167969 81.445312 56.242188 81.457031 C 56.628906 81.527344 57.011719 81.601562 57.398438 81.671875 C 57.484375 81.691406 57.484375 81.691406 57.574219 81.707031 C 57.855469 81.761719 58.136719 81.8125 58.417969 81.867188 C 59.34375 82.050781 60.269531 82.152344 61.203125 82.164062 C 61.292969 82.164062 61.382812 82.167969 61.46875 82.171875 C 62.410156 82.210938 63.230469 81.84375 63.929688 80.878906 C 64.417969 80.109375 64.589844 79.191406 64.589844 78.148438 C 64.589844 78.050781 64.589844 78.050781 64.589844 77.949219 C 64.589844 77.730469 64.589844 77.511719 64.589844 77.292969 C 64.589844 77.132812 64.589844 76.976562 64.589844 76.816406 C 64.589844 76.378906 64.589844 75.945312 64.589844 75.507812 C 64.589844 75.035156 64.589844 74.566406 64.589844 74.09375 C 64.589844 73.28125 64.589844 72.464844 64.589844 71.648438 C 64.589844 70.46875 64.589844 69.292969 64.589844 68.113281 C 64.589844 66.199219 64.589844 64.289062 64.589844 62.375 C 64.585938 60.515625 64.585938 58.660156 64.585938 56.800781 C 64.585938 56.6875 64.585938 56.570312 64.585938 56.453125 C 64.585938 55.878906 64.585938 55.304688 64.585938 54.730469 C 64.585938 49.964844 64.585938 45.195312 64.582031 40.429688 C 64.5625 40.527344 64.539062 40.625 64.519531 40.722656 C 64.449219 40.667969 64.382812 40.609375 64.316406 40.550781 C 63.058594 39.625 61.738281 39.960938 60.394531 40.148438 Z M 60.394531 40.148438 "/>
<path style=" stroke:none;fill-rule:nonzero;fill:rgb(99.607843%,78.823531%,85.490197%);fill-opacity:1;" d="M 39.191406 45.214844 C 46.390625 45.214844 53.585938 45.214844 61.003906 45.214844 C 61.003906 53.949219 61.003906 62.679688 61.003906 71.679688 C 53.804688 71.679688 46.609375 71.679688 39.191406 71.679688 C 39.191406 62.945312 39.191406 54.210938 39.191406 45.214844 Z M 39.191406 45.214844 "/>
<path style=" stroke:none;fill-rule:nonzero;fill:rgb(12.54902%,14.509805%,17.647059%);fill-opacity:1;" d="M 42.007812 15.308594 C 42.066406 15.304688 42.121094 15.304688 42.179688 15.304688 C 42.242188 15.304688 42.304688 15.304688 42.367188 15.304688 C 42.46875 15.304688 42.46875 15.304688 42.570312 15.304688 C 42.792969 15.304688 43.015625 15.304688 43.238281 15.304688 C 43.394531 15.304688 43.554688 15.300781 43.714844 15.300781 C 44.101562 15.300781 44.492188 15.300781 44.878906 15.300781 C 45.195312 15.300781 45.511719 15.300781 45.824219 15.296875 C 46.71875 15.296875 47.613281 15.296875 48.507812 15.296875 C 48.558594 15.296875 48.605469 15.296875 48.65625 15.296875 C 48.726562 15.296875 48.726562 15.296875 48.800781 15.296875 C 49.582031 15.296875 50.367188 15.292969 51.148438 15.292969 C 51.953125 15.289062 52.753906 15.289062 53.558594 15.289062 C 54.011719 15.289062 54.460938 15.285156 54.910156 15.285156 C 55.335938 15.28125 55.761719 15.28125 56.183594 15.285156 C 56.339844 15.285156 56.496094 15.285156 56.652344 15.28125 C 56.863281 15.28125 57.078125 15.28125 57.289062 15.285156 C 57.351562 15.28125 57.414062 15.28125 57.476562 15.28125 C 57.746094 15.285156 57.902344 15.296875 58.136719 15.507812 C 58.355469 15.867188 58.414062 16.117188 58.414062 16.601562 C 58.414062 16.699219 58.417969 16.796875 58.417969 16.898438 C 58.417969 17.007812 58.417969 17.113281 58.417969 17.226562 C 58.417969 17.394531 58.417969 17.394531 58.417969 17.570312 C 58.417969 17.945312 58.417969 18.320312 58.417969 18.699219 C 58.417969 18.894531 58.417969 19.085938 58.417969 19.28125 C 58.417969 19.894531 58.417969 20.507812 58.417969 21.121094 C 58.417969 21.753906 58.417969 22.386719 58.421875 23.019531 C 58.421875 23.5625 58.421875 24.105469 58.421875 24.648438 C 58.421875 24.972656 58.421875 25.296875 58.421875 25.621094 C 58.425781 25.984375 58.421875 26.34375 58.421875 26.707031 C 58.421875 26.8125 58.421875 26.921875 58.425781 27.03125 C 58.417969 27.960938 58.417969 27.960938 58.203125 28.320312 C 57.964844 28.59375 57.796875 28.648438 57.5 28.648438 C 57.425781 28.648438 57.351562 28.648438 57.273438 28.644531 C 57.195312 28.644531 57.117188 28.644531 57.035156 28.640625 C 56.953125 28.640625 56.871094 28.640625 56.785156 28.640625 C 56.570312 28.640625 56.351562 28.636719 56.136719 28.632812 C 55.914062 28.628906 55.691406 28.628906 55.46875 28.628906 C 55.035156 28.625 54.601562 28.617188 54.167969 28.613281 C 54.167969 29.839844 54.167969 31.0625 54.167969 32.324219 C 51.351562 32.324219 48.539062 32.324219 45.636719 32.324219 C 45.636719 31.101562 45.636719 29.875 45.636719 28.613281 C 45.367188 28.617188 45.09375 28.621094 44.8125 28.628906 C 44.59375 28.628906 44.375 28.632812 44.15625 28.632812 C 43.925781 28.636719 43.699219 28.636719 43.46875 28.644531 C 43.203125 28.648438 42.9375 28.648438 42.675781 28.652344 C 42.59375 28.652344 42.511719 28.65625 42.425781 28.65625 C 41.710938 28.65625 41.710938 28.65625 41.40625 28.222656 C 41.265625 27.90625 41.257812 27.816406 41.257812 27.449219 C 41.257812 27.351562 41.257812 27.25 41.257812 27.148438 C 41.257812 27.042969 41.257812 26.933594 41.257812 26.820312 C 41.257812 26.707031 41.257812 26.59375 41.253906 26.472656 C 41.253906 26.160156 41.253906 25.847656 41.253906 25.53125 C 41.253906 25.335938 41.253906 25.140625 41.253906 24.945312 C 41.253906 24.261719 41.25 23.574219 41.25 22.890625 C 41.253906 22.253906 41.25 21.617188 41.25 20.980469 C 41.246094 20.429688 41.246094 19.882812 41.246094 19.335938 C 41.246094 19.007812 41.246094 18.679688 41.246094 18.355469 C 41.242188 17.988281 41.242188 17.625 41.246094 17.261719 C 41.242188 17.152344 41.242188 17.042969 41.242188 16.933594 C 41.246094 16.335938 41.265625 15.976562 41.535156 15.527344 C 41.738281 15.324219 41.78125 15.308594 42.007812 15.308594 Z M 42.007812 15.308594 "/>
<path style=" stroke:none;fill-rule:nonzero;fill:rgb(99.607843%,78.039217%,84.705883%);fill-opacity:1;" d="M 39.191406 45.214844 C 46.390625 45.214844 53.585938 45.214844 61.003906 45.214844 C 61.003906 53.949219 61.003906 62.679688 61.003906 71.679688 C 53.804688 71.679688 46.609375 71.679688 39.191406 71.679688 C 39.191406 62.945312 39.191406 54.210938 39.191406 45.214844 Z M 40.625 47.363281 C 40.625 54.453125 40.625 61.542969 40.625 68.847656 C 46.875 68.847656 53.128906 68.847656 59.570312 68.847656 C 59.570312 61.757812 59.570312 54.667969 59.570312 47.363281 C 53.320312 47.363281 47.066406 47.363281 40.625 47.363281 Z M 40.625 47.363281 "/>
<path style=" stroke:none;fill-rule:nonzero;fill:rgb(98.039216%,59.607846%,74.117649%);fill-opacity:1;" d="M 36.851562 35.828125 C 36.898438 35.828125 36.945312 35.828125 36.992188 35.828125 C 37.148438 35.824219 37.304688 35.824219 37.460938 35.824219 C 37.570312 35.824219 37.683594 35.824219 37.796875 35.824219 C 38.109375 35.824219 38.417969 35.824219 38.726562 35.824219 C 39.0625 35.824219 39.398438 35.824219 39.730469 35.824219 C 40.464844 35.820312 41.195312 35.820312 41.925781 35.820312 C 42.382812 35.820312 42.839844 35.820312 43.296875 35.820312 C 44.558594 35.816406 45.824219 35.816406 47.085938 35.816406 C 47.167969 35.816406 47.25 35.816406 47.332031 35.816406 C 47.414062 35.816406 47.492188 35.816406 47.578125 35.816406 C 47.742188 35.816406 47.90625 35.816406 48.070312 35.816406 C 48.152344 35.816406 48.234375 35.816406 48.316406 35.816406 C 49.636719 35.816406 50.960938 35.8125 52.28125 35.8125 C 53.636719 35.808594 54.992188 35.808594 56.347656 35.808594 C 57.109375 35.808594 57.871094 35.808594 58.632812 35.804688 C 59.28125 35.804688 59.929688 35.804688 60.578125 35.804688 C 60.910156 35.804688 61.238281 35.804688 61.570312 35.804688 C 61.875 35.800781 62.175781 35.800781 62.480469 35.804688 C 62.589844 35.804688 62.699219 35.804688 62.808594 35.800781 C 62.957031 35.800781 63.105469 35.800781 63.253906 35.804688 C 63.335938 35.804688 63.421875 35.804688 63.503906 35.804688 C 63.808594 35.851562 64.070312 35.972656 64.304688 36.277344 C 64.5625 36.789062 64.59375 37.15625 64.59375 37.777344 C 64.59375 37.890625 64.59375 37.890625 64.59375 38.003906 C 64.59375 38.164062 64.59375 38.320312 64.59375 38.476562 C 64.589844 38.71875 64.59375 38.960938 64.59375 39.203125 C 64.59375 39.355469 64.59375 39.511719 64.59375 39.664062 C 64.59375 39.734375 64.59375 39.808594 64.59375 39.882812 C 64.589844 40.1875 64.582031 40.429688 64.519531 40.722656 C 64.203125 40.570312 63.894531 40.398438 63.585938 40.226562 C 62.605469 39.730469 61.402344 40.105469 60.394531 40.246094 C 60.238281 40.269531 60.078125 40.289062 59.917969 40.3125 C 57.605469 40.632812 55.296875 40.976562 52.992188 41.378906 C 52.355469 41.492188 51.722656 41.597656 51.085938 41.675781 C 50.960938 41.691406 50.835938 41.710938 50.714844 41.726562 C 48.929688 41.964844 47.15625 41.910156 45.371094 41.851562 C 45.308594 41.851562 45.25 41.847656 45.1875 41.847656 C 44.835938 41.835938 44.480469 41.820312 44.128906 41.804688 C 44.003906 41.800781 43.882812 41.792969 43.757812 41.789062 C 42.730469 41.757812 41.742188 41.582031 40.730469 41.320312 C 40.589844 41.285156 40.453125 41.25 40.3125 41.214844 C 39.804688 41.089844 39.300781 40.964844 38.792969 40.828125 C 38.253906 40.6875 37.726562 40.574219 37.179688 40.582031 C 37.117188 40.582031 37.050781 40.582031 36.988281 40.582031 C 36.527344 40.597656 36.15625 40.710938 35.742188 41.015625 C 35.699219 41.015625 35.65625 41.015625 35.613281 41.015625 C 35.605469 40.445312 35.601562 39.871094 35.597656 39.300781 C 35.597656 39.105469 35.59375 38.914062 35.59375 38.71875 C 35.589844 38.4375 35.585938 38.15625 35.585938 37.878906 C 35.585938 37.792969 35.582031 37.707031 35.582031 37.617188 C 35.582031 37.039062 35.648438 36.707031 35.871094 36.230469 C 36.167969 35.816406 36.460938 35.828125 36.851562 35.828125 Z M 36.851562 35.828125 "/>
<path style=" stroke:none;fill-rule:nonzero;fill:rgb(99.607843%,70.980394%,80.392158%);fill-opacity:1;" d="M 37.503906 34.921875 C 37.617188 34.921875 37.730469 34.921875 37.84375 34.921875 C 38.152344 34.921875 38.464844 34.921875 38.773438 34.921875 C 39.109375 34.921875 39.445312 34.921875 39.78125 34.917969 C 40.4375 34.917969 41.09375 34.917969 41.75 34.917969 C 42.285156 34.917969 42.816406 34.917969 43.351562 34.917969 C 43.464844 34.917969 43.464844 34.917969 43.582031 34.917969 C 43.738281 34.917969 43.890625 34.917969 44.046875 34.917969 C 45.492188 34.914062 46.941406 34.917969 48.386719 34.917969 C 49.710938 34.917969 51.035156 34.917969 52.359375 34.914062 C 53.71875 34.914062 55.078125 34.910156 56.4375 34.914062 C 57.203125 34.914062 57.964844 34.914062 58.726562 34.910156 C 59.378906 34.910156 60.027344 34.910156 60.675781 34.910156 C 61.007812 34.910156 61.339844 34.910156 61.671875 34.910156 C 61.976562 34.910156 62.277344 34.910156 62.582031 34.910156 C 62.691406 34.910156 62.800781 34.910156 62.910156 34.910156 C 63.554688 34.90625 64.144531 34.917969 64.675781 35.535156 C 64.710938 35.597656 64.742188 35.660156 64.777344 35.722656 C 64.8125 35.785156 64.847656 35.847656 64.882812 35.910156 C 65.089844 36.425781 65.121094 36.960938 65.121094 37.550781 C 65.121094 37.625 65.121094 37.695312 65.121094 37.769531 C 65.121094 38.007812 65.121094 38.246094 65.121094 38.484375 C 65.121094 38.65625 65.121094 38.828125 65.121094 39 C 65.125 39.476562 65.125 39.949219 65.125 40.425781 C 65.125 40.9375 65.125 41.449219 65.125 41.960938 C 65.125 42.964844 65.125 43.96875 65.125 44.972656 C 65.125 45.789062 65.125 46.601562 65.125 47.417969 C 65.128906 49.734375 65.128906 52.050781 65.128906 54.363281 C 65.128906 54.488281 65.128906 54.613281 65.128906 54.742188 C 65.128906 54.867188 65.128906 54.992188 65.128906 55.121094 C 65.128906 57.144531 65.128906 59.167969 65.132812 61.191406 C 65.132812 63.269531 65.132812 65.347656 65.132812 67.425781 C 65.132812 68.59375 65.132812 69.757812 65.136719 70.925781 C 65.136719 71.917969 65.136719 72.914062 65.136719 73.90625 C 65.136719 74.414062 65.136719 74.917969 65.136719 75.425781 C 65.136719 75.890625 65.136719 76.355469 65.136719 76.820312 C 65.136719 76.988281 65.136719 77.15625 65.136719 77.320312 C 65.140625 78.21875 65.101562 79.074219 64.984375 79.957031 C 64.972656 80.039062 64.964844 80.121094 64.953125 80.203125 C 64.824219 81.097656 64.574219 81.753906 64.085938 82.3125 C 62.117188 84.1875 59.050781 83.007812 56.890625 82.566406 C 56.277344 82.445312 55.664062 82.351562 55.050781 82.261719 C 54.921875 82.246094 54.921875 82.246094 54.792969 82.226562 C 53.699219 82.078125 52.617188 82.015625 51.519531 82.019531 C 51.378906 82.019531 51.238281 82.019531 51.097656 82.019531 C 50.800781 82.019531 50.507812 82.019531 50.214844 82.019531 C 49.839844 82.019531 49.46875 82.019531 49.09375 82.019531 C 48.804688 82.019531 48.511719 82.019531 48.222656 82.019531 C 48.085938 82.019531 47.945312 82.019531 47.808594 82.019531 C 46.589844 82.015625 45.371094 82.0625 44.15625 82.238281 C 44.074219 82.25 43.992188 82.261719 43.90625 82.273438 C 43.289062 82.363281 42.671875 82.476562 42.058594 82.59375 C 41.976562 82.609375 41.894531 82.625 41.808594 82.640625 C 41.402344 82.714844 40.992188 82.796875 40.585938 82.878906 C 39.800781 83.03125 39.027344 83.132812 38.234375 83.136719 C 38.160156 83.136719 38.089844 83.140625 38.015625 83.140625 C 37.152344 83.125 36.445312 82.804688 35.808594 81.878906 C 35.742188 81.769531 35.675781 81.65625 35.613281 81.542969 C 35.5625 81.457031 35.515625 81.371094 35.464844 81.28125 C 35.296875 80.804688 35.226562 80.3125 35.15625 79.785156 C 35.144531 79.714844 35.136719 79.648438 35.125 79.578125 C 35.003906 78.722656 35.007812 77.875 35.007812 77.007812 C 35.007812 76.835938 35.007812 76.664062 35.007812 76.492188 C 35.007812 76.019531 35.007812 75.550781 35.007812 75.082031 C 35.007812 74.574219 35.007812 74.0625 35.007812 73.554688 C 35.007812 72.5625 35.007812 71.566406 35.007812 70.574219 C 35.007812 69.765625 35.007812 68.957031 35.007812 68.148438 C 35.007812 68.03125 35.007812 67.917969 35.007812 67.800781 C 35.007812 67.566406 35.007812 67.332031 35.007812 67.097656 C 35.007812 64.90625 35.007812 62.714844 35.007812 60.523438 C 35.011719 58.644531 35.007812 56.761719 35.007812 54.882812 C 35.007812 52.699219 35.007812 50.515625 35.007812 48.332031 C 35.007812 48.097656 35.007812 47.867188 35.007812 47.632812 C 35.007812 47.519531 35.007812 47.402344 35.007812 47.285156 C 35.007812 46.476562 35.007812 45.671875 35.007812 44.863281 C 35.007812 43.878906 35.007812 42.894531 35.007812 41.914062 C 35.007812 41.410156 35.007812 40.910156 35.007812 40.40625 C 35.007812 39.949219 35.007812 39.488281 35.007812 39.027344 C 35.007812 38.863281 35.007812 38.695312 35.007812 38.53125 C 35.007812 38.304688 35.007812 38.078125 35.007812 37.851562 C 35.007812 37.726562 35.007812 37.601562 35.007812 37.472656 C 35.046875 36.65625 35.199219 36.066406 35.589844 35.480469 C 36.152344 34.835938 36.835938 34.917969 37.503906 34.921875 Z M 35.78125 36.375 C 35.601562 36.792969 35.605469 37.113281 35.601562 37.597656 C 35.601562 37.667969 35.601562 37.742188 35.601562 37.8125 C 35.601562 38.050781 35.601562 38.289062 35.601562 38.527344 C 35.601562 38.699219 35.601562 38.871094 35.601562 39.042969 C 35.601562 39.515625 35.601562 39.988281 35.601562 40.464844 C 35.601562 40.972656 35.601562 41.484375 35.597656 41.992188 C 35.597656 43.226562 35.597656 44.457031 35.597656 45.691406 C 35.597656 46.273438 35.597656 46.851562 35.59375 47.433594 C 35.59375 49.363281 35.59375 51.292969 35.59375 53.222656 C 35.59375 53.722656 35.59375 54.222656 35.59375 54.722656 C 35.59375 54.847656 35.59375 54.972656 35.59375 55.101562 C 35.59375 57.117188 35.589844 59.132812 35.589844 61.148438 C 35.585938 63.21875 35.585938 65.289062 35.585938 67.359375 C 35.585938 68.519531 35.585938 69.683594 35.582031 70.84375 C 35.582031 71.835938 35.582031 72.824219 35.582031 73.816406 C 35.582031 74.320312 35.582031 74.824219 35.578125 75.328125 C 35.578125 75.792969 35.578125 76.253906 35.578125 76.71875 C 35.582031 76.882812 35.578125 77.050781 35.578125 77.21875 C 35.574219 78.539062 35.65625 79.820312 36.261719 80.859375 C 36.425781 81.085938 36.59375 81.269531 36.785156 81.445312 C 36.824219 81.484375 36.863281 81.523438 36.90625 81.5625 C 37.8125 82.332031 38.996094 82.054688 39.988281 81.886719 C 40.152344 81.859375 40.3125 81.832031 40.472656 81.808594 C 40.996094 81.722656 41.519531 81.632812 42.042969 81.539062 C 44.492188 81.097656 46.933594 80.929688 49.402344 80.925781 C 49.5625 80.925781 49.722656 80.925781 49.882812 80.925781 C 51.011719 80.921875 52.140625 80.953125 53.269531 81.046875 C 53.316406 81.050781 53.367188 81.054688 53.414062 81.058594 C 54.3125 81.132812 55.203125 81.269531 56.097656 81.429688 C 56.167969 81.445312 56.167969 81.445312 56.242188 81.457031 C 56.628906 81.527344 57.011719 81.601562 57.398438 81.671875 C 57.484375 81.691406 57.484375 81.691406 57.574219 81.707031 C 57.855469 81.761719 58.136719 81.8125 58.417969 81.867188 C 59.34375 82.050781 60.269531 82.152344 61.203125 82.164062 C 61.292969 82.164062 61.382812 82.167969 61.46875 82.171875 C 62.410156 82.210938 63.230469 81.84375 63.929688 80.878906 C 64.429688 80.09375 64.589844 79.160156 64.59375 78.097656 C 64.59375 78.027344 64.59375 77.957031 64.59375 77.882812 C 64.59375 77.644531 64.59375 77.40625 64.59375 77.167969 C 64.59375 76.996094 64.59375 76.820312 64.59375 76.648438 C 64.59375 76.175781 64.59375 75.703125 64.59375 75.226562 C 64.59375 74.714844 64.59375 74.203125 64.59375 73.691406 C 64.59375 72.574219 64.597656 71.457031 64.597656 70.339844 C 64.597656 69.640625 64.597656 68.941406 64.597656 68.246094 C 64.597656 66.3125 64.597656 64.382812 64.597656 62.449219 C 64.597656 62.328125 64.597656 62.203125 64.597656 62.074219 C 64.597656 61.953125 64.597656 61.828125 64.597656 61.699219 C 64.597656 61.449219 64.597656 61.199219 64.597656 60.945312 C 64.597656 60.820312 64.597656 60.695312 64.597656 60.570312 C 64.597656 58.550781 64.601562 56.53125 64.601562 54.507812 C 64.601562 52.4375 64.605469 50.363281 64.605469 48.292969 C 64.605469 47.128906 64.605469 45.964844 64.605469 44.800781 C 64.605469 43.808594 64.605469 42.816406 64.605469 41.828125 C 64.605469 41.320312 64.605469 40.816406 64.609375 40.308594 C 64.609375 39.847656 64.609375 39.382812 64.609375 38.921875 C 64.605469 38.753906 64.609375 38.585938 64.609375 38.417969 C 64.609375 38.191406 64.609375 37.960938 64.609375 37.734375 C 64.609375 37.609375 64.609375 37.480469 64.609375 37.351562 C 64.578125 36.917969 64.488281 36.589844 64.292969 36.265625 C 63.945312 35.851562 63.71875 35.828125 63.277344 35.828125 C 63.234375 35.828125 63.1875 35.828125 63.140625 35.828125 C 62.984375 35.824219 62.828125 35.824219 62.671875 35.824219 C 62.558594 35.824219 62.445312 35.824219 62.332031 35.824219 C 62.023438 35.824219 61.710938 35.824219 61.402344 35.824219 C 61.066406 35.824219 60.734375 35.824219 60.398438 35.824219 C 59.667969 35.820312 58.9375 35.820312 58.203125 35.820312 C 57.746094 35.820312 57.289062 35.820312 56.835938 35.820312 C 55.570312 35.816406 54.308594 35.816406 53.042969 35.816406 C 52.960938 35.816406 52.882812 35.816406 52.796875 35.816406 C 52.71875 35.816406 52.636719 35.816406 52.554688 35.816406 C 52.386719 35.816406 52.222656 35.816406 52.058594 35.816406 C 51.976562 35.816406 51.898438 35.816406 51.8125 35.816406 C 50.492188 35.816406 49.171875 35.8125 47.847656 35.8125 C 46.492188 35.808594 45.136719 35.808594 43.78125 35.808594 C 43.019531 35.808594 42.257812 35.808594 41.496094 35.804688 C 40.847656 35.804688 40.199219 35.804688 39.550781 35.804688 C 39.222656 35.804688 38.890625 35.804688 38.558594 35.804688 C 38.257812 35.800781 37.953125 35.800781 37.652344 35.804688 C 37.542969 35.804688 37.433594 35.804688 37.324219 35.800781 C 37.171875 35.800781 37.023438 35.800781 36.875 35.804688 C 36.792969 35.804688 36.710938 35.804688 36.625 35.804688 C 36.28125 35.859375 36.027344 35.992188 35.78125 36.375 Z M 35.78125 36.375 "/>
<path style=" stroke:none;fill-rule:nonzero;fill:rgb(99.607843%,89.411765%,89.803922%);fill-opacity:1;" d="M 81.496094 15.132812 C 81.660156 15.320312 81.8125 15.515625 81.964844 15.722656 C 82.011719 15.78125 82.058594 15.839844 82.101562 15.898438 C 82.785156 16.828125 83.285156 18.351562 83.339844 19.734375 C 83.382812 21.542969 83.175781 23.171875 82.335938 24.546875 C 81.335938 26.113281 80.175781 26.945312 78.730469 26.992188 C 77.234375 27.007812 75.972656 26.484375 74.851562 24.933594 C 74.300781 24.050781 73.949219 23.011719 73.699219 21.875 C 73.675781 21.777344 73.65625 21.679688 73.632812 21.582031 C 73.570312 20.351562 73.554688 19.113281 73.894531 17.96875 C 73.914062 17.886719 73.9375 17.804688 73.957031 17.722656 C 74.253906 16.695312 74.824219 15.722656 75.457031 15.136719 C 75.519531 15.074219 75.585938 15.011719 75.652344 14.945312 C 77.394531 13.304688 79.800781 13.363281 81.496094 15.132812 Z M 81.496094 15.132812 "/>
<path style=" stroke:none;fill-rule:nonzero;fill:rgb(99.607843%,89.019608%,89.803922%);fill-opacity:1;" d="M 79.871094 34.886719 C 80.566406 35.601562 81.089844 36.558594 81.316406 37.792969 C 81.347656 38.0625 81.371094 38.304688 81.378906 38.574219 C 81.382812 38.660156 81.386719 38.75 81.394531 38.839844 C 81.429688 40.191406 81.097656 41.375 80.527344 42.394531 C 79.914062 43.367188 79.152344 43.9375 78.253906 43.984375 C 77.203125 44 76.363281 43.496094 75.601562 42.410156 C 74.933594 41.382812 74.652344 40.210938 74.664062 38.789062 C 74.675781 38.394531 74.714844 38.066406 74.804688 37.695312 C 74.824219 37.605469 74.84375 37.515625 74.863281 37.421875 C 75.054688 36.648438 75.324219 36.117188 75.714844 35.546875 C 75.753906 35.492188 75.789062 35.433594 75.828125 35.375 C 76.917969 33.835938 78.628906 33.773438 79.871094 34.886719 Z M 79.871094 34.886719 "/>
<path style=" stroke:none;fill-rule:nonzero;fill:rgb(99.607843%,69.803923%,80.000001%);fill-opacity:1;" d="M 37.605469 35.214844 C 37.71875 35.214844 37.828125 35.214844 37.941406 35.214844 C 38.246094 35.214844 38.550781 35.214844 38.855469 35.214844 C 39.1875 35.214844 39.515625 35.214844 39.84375 35.210938 C 40.492188 35.210938 41.136719 35.210938 41.78125 35.210938 C 42.304688 35.210938 42.832031 35.210938 43.355469 35.210938 C 43.429688 35.210938 43.503906 35.210938 43.582031 35.210938 C 43.734375 35.210938 43.886719 35.210938 44.039062 35.210938 C 45.460938 35.207031 46.882812 35.210938 48.304688 35.210938 C 49.609375 35.210938 50.910156 35.210938 52.210938 35.207031 C 53.546875 35.207031 54.882812 35.203125 56.21875 35.207031 C 56.972656 35.207031 57.722656 35.207031 58.472656 35.203125 C 59.109375 35.203125 59.75 35.203125 60.386719 35.203125 C 60.714844 35.203125 61.039062 35.203125 61.363281 35.203125 C 61.664062 35.203125 61.960938 35.203125 62.261719 35.203125 C 62.367188 35.203125 62.476562 35.203125 62.582031 35.203125 C 64.042969 35.191406 64.042969 35.191406 64.527344 35.902344 C 64.566406 35.976562 64.605469 36.054688 64.648438 36.132812 C 64.691406 36.195312 64.734375 36.261719 64.777344 36.328125 C 64.890625 36.8125 64.925781 37.234375 64.925781 37.746094 C 64.925781 37.816406 64.925781 37.886719 64.925781 37.960938 C 64.925781 38.199219 64.925781 38.433594 64.925781 38.671875 C 64.925781 38.84375 64.925781 39.015625 64.925781 39.1875 C 64.929688 39.660156 64.929688 40.132812 64.929688 40.605469 C 64.929688 41.117188 64.929688 41.625 64.929688 42.136719 C 64.929688 43.132812 64.929688 44.132812 64.929688 45.132812 C 64.929688 45.945312 64.929688 46.753906 64.929688 47.566406 C 64.933594 49.871094 64.933594 52.171875 64.933594 54.476562 C 64.933594 54.597656 64.933594 54.722656 64.933594 54.851562 C 64.933594 54.976562 64.933594 55.101562 64.933594 55.226562 C 64.933594 57.242188 64.933594 59.253906 64.9375 61.269531 C 64.9375 63.335938 64.9375 65.402344 64.9375 67.472656 C 64.9375 68.632812 64.9375 69.792969 64.941406 70.953125 C 64.941406 71.941406 64.941406 72.929688 64.941406 73.921875 C 64.941406 74.425781 64.941406 74.929688 64.941406 75.433594 C 64.941406 75.894531 64.941406 76.355469 64.941406 76.820312 C 64.941406 76.984375 64.941406 77.152344 64.941406 77.316406 C 64.949219 78.605469 64.859375 79.796875 64.324219 80.859375 C 64.285156 80.941406 64.242188 81.019531 64.203125 81.101562 C 63.808594 81.789062 63.203125 82.1875 62.628906 82.421875 C 62.566406 82.421875 62.5 82.421875 62.433594 82.421875 C 62.433594 82.484375 62.433594 82.550781 62.433594 82.617188 C 62.261719 82.648438 62.089844 82.679688 61.914062 82.714844 C 61.914062 82.683594 61.914062 82.648438 61.914062 82.617188 C 61.398438 82.585938 60.882812 82.550781 60.351562 82.519531 C 60.351562 82.453125 60.351562 82.390625 60.351562 82.324219 C 60.203125 82.292969 60.050781 82.257812 59.894531 82.226562 C 59.894531 82.195312 59.894531 82.160156 59.894531 82.128906 C 59.964844 82.128906 60.035156 82.128906 60.109375 82.128906 C 60.375 82.125 60.640625 82.121094 60.90625 82.113281 C 61.019531 82.113281 61.132812 82.109375 61.25 82.109375 C 62.269531 82.105469 63.132812 81.871094 63.914062 80.800781 C 64.386719 80.054688 64.527344 79.097656 64.527344 78.097656 C 64.527344 78.027344 64.527344 77.957031 64.527344 77.882812 C 64.527344 77.644531 64.527344 77.40625 64.527344 77.167969 C 64.527344 76.996094 64.527344 76.820312 64.527344 76.648438 C 64.527344 76.175781 64.527344 75.703125 64.527344 75.226562 C 64.527344 74.714844 64.527344 74.203125 64.53125 73.691406 C 64.53125 72.574219 64.53125 71.457031 64.53125 70.339844 C 64.53125 69.640625 64.53125 68.941406 64.53125 68.246094 C 64.53125 66.3125 64.535156 64.382812 64.535156 62.449219 C 64.535156 62.328125 64.535156 62.203125 64.535156 62.074219 C 64.535156 61.953125 64.535156 61.828125 64.535156 61.699219 C 64.535156 61.449219 64.535156 61.199219 64.535156 60.945312 C 64.535156 60.820312 64.535156 60.695312 64.535156 60.570312 C 64.535156 58.550781 64.535156 56.53125 64.535156 54.507812 C 64.539062 52.4375 64.539062 50.363281 64.539062 48.292969 C 64.539062 47.128906 64.539062 45.964844 64.539062 44.800781 C 64.542969 43.808594 64.542969 42.816406 64.542969 41.828125 C 64.542969 41.320312 64.542969 40.816406 64.542969 40.308594 C 64.542969 39.847656 64.542969 39.382812 64.542969 38.921875 C 64.542969 38.753906 64.542969 38.585938 64.542969 38.417969 C 64.542969 38.191406 64.542969 37.960938 64.542969 37.734375 C 64.542969 37.609375 64.542969 37.480469 64.542969 37.351562 C 64.507812 36.859375 64.402344 36.539062 64.164062 36.199219 C 63.875 35.914062 63.625 35.925781 63.277344 35.925781 C 63.234375 35.925781 63.1875 35.925781 63.140625 35.925781 C 62.984375 35.921875 62.828125 35.921875 62.671875 35.921875 C 62.558594 35.921875 62.445312 35.921875 62.332031 35.921875 C 62.023438 35.921875 61.710938 35.921875 61.402344 35.921875 C 61.066406 35.921875 60.734375 35.921875 60.398438 35.921875 C 59.667969 35.917969 58.9375 35.917969 58.203125 35.917969 C 57.746094 35.917969 57.289062 35.917969 56.835938 35.917969 C 55.570312 35.914062 54.308594 35.914062 53.042969 35.914062 C 52.960938 35.914062 52.882812 35.914062 52.796875 35.914062 C 52.71875 35.914062 52.636719 35.914062 52.554688 35.914062 C 52.386719 35.914062 52.222656 35.914062 52.058594 35.914062 C 51.976562 35.914062 51.898438 35.914062 51.8125 35.914062 C 50.492188 35.914062 49.171875 35.910156 47.847656 35.910156 C 46.492188 35.90625 45.136719 35.90625 43.78125 35.90625 C 43.019531 35.90625 42.257812 35.90625 41.496094 35.902344 C 40.847656 35.902344 40.199219 35.902344 39.550781 35.902344 C 39.222656 35.902344 38.890625 35.902344 38.558594 35.902344 C 38.257812 35.898438 37.953125 35.898438 37.652344 35.902344 C 37.542969 35.902344 37.433594 35.902344 37.324219 35.898438 C 37.171875 35.898438 37.023438 35.898438 36.875 35.902344 C 36.792969 35.902344 36.710938 35.902344 36.625 35.902344 C 36.265625 35.957031 36.015625 36.085938 35.78125 36.515625 C 35.617188 37.015625 35.640625 37.546875 35.644531 38.089844 C 35.644531 38.207031 35.644531 38.328125 35.640625 38.449219 C 35.640625 38.777344 35.640625 39.105469 35.640625 39.433594 C 35.644531 39.785156 35.640625 40.140625 35.640625 40.496094 C 35.640625 41.113281 35.640625 41.730469 35.640625 42.347656 C 35.640625 43.25 35.640625 44.152344 35.636719 45.054688 C 35.636719 46.539062 35.632812 48.019531 35.632812 49.503906 C 35.632812 51.515625 35.628906 53.53125 35.628906 55.546875 C 35.628906 55.804688 35.628906 56.0625 35.628906 56.320312 C 35.625 57.257812 35.625 58.195312 35.625 59.132812 C 35.625 59.722656 35.621094 60.316406 35.621094 60.90625 C 35.617188 65.207031 35.609375 69.503906 35.589844 73.804688 C 35.585938 74.160156 35.585938 74.519531 35.582031 74.875 C 35.582031 75.421875 35.578125 75.96875 35.574219 76.515625 C 35.574219 76.710938 35.574219 76.90625 35.570312 77.101562 C 35.570312 77.367188 35.570312 77.632812 35.566406 77.898438 C 35.566406 77.972656 35.566406 78.050781 35.566406 78.128906 C 35.5625 78.527344 35.535156 78.839844 35.417969 79.199219 C 35.230469 78.917969 35.269531 78.71875 35.269531 78.324219 C 35.269531 78.253906 35.269531 78.179688 35.269531 78.109375 C 35.269531 77.867188 35.269531 77.625 35.269531 77.382812 C 35.269531 77.210938 35.269531 77.039062 35.265625 76.863281 C 35.265625 76.386719 35.265625 75.90625 35.265625 75.425781 C 35.265625 74.910156 35.265625 74.394531 35.265625 73.878906 C 35.261719 72.75 35.261719 71.621094 35.261719 70.496094 C 35.261719 69.789062 35.261719 69.085938 35.261719 68.378906 C 35.261719 66.429688 35.257812 64.480469 35.257812 62.53125 C 35.257812 62.40625 35.257812 62.28125 35.257812 62.152344 C 35.257812 61.898438 35.257812 61.648438 35.257812 61.394531 C 35.257812 61.207031 35.257812 61.207031 35.257812 61.011719 C 35.257812 60.886719 35.257812 60.761719 35.257812 60.632812 C 35.257812 58.59375 35.257812 56.554688 35.253906 54.515625 C 35.25 52.425781 35.25 50.332031 35.25 48.242188 C 35.25 47.066406 35.25 45.890625 35.25 44.714844 C 35.246094 43.714844 35.246094 42.714844 35.246094 41.714844 C 35.246094 41.203125 35.246094 40.695312 35.246094 40.183594 C 35.246094 39.714844 35.246094 39.246094 35.246094 38.78125 C 35.246094 38.609375 35.246094 38.441406 35.246094 38.273438 C 35.238281 36.601562 35.238281 36.601562 35.613281 35.9375 C 36.210938 35.179688 36.867188 35.210938 37.605469 35.214844 Z M 37.605469 35.214844 "/>
<path style=" stroke:none;fill-rule:nonzero;fill:rgb(99.607843%,78.039217%,84.313726%);fill-opacity:1;" d="M 37.503906 34.921875 C 37.617188 34.921875 37.730469 34.921875 37.84375 34.921875 C 38.152344 34.921875 38.464844 34.921875 38.773438 34.921875 C 39.109375 34.921875 39.445312 34.921875 39.78125 34.917969 C 40.4375 34.917969 41.09375 34.917969 41.75 34.917969 C 42.285156 34.917969 42.816406 34.917969 43.351562 34.917969 C 43.464844 34.917969 43.464844 34.917969 43.582031 34.917969 C 43.738281 34.917969 43.890625 34.917969 44.046875 34.917969 C 45.492188 34.914062 46.941406 34.917969 48.386719 34.917969 C 49.710938 34.917969 51.035156 34.917969 52.359375 34.914062 C 53.71875 34.914062 55.078125 34.910156 56.4375 34.914062 C 57.203125 34.914062 57.964844 34.914062 58.726562 34.910156 C 59.378906 34.910156 60.027344 34.910156 60.675781 34.910156 C 61.007812 34.910156 61.339844 34.910156 61.671875 34.910156 C 61.976562 34.910156 62.277344 34.910156 62.582031 34.910156 C 62.691406 34.910156 62.800781 34.910156 62.910156 34.910156 C 63.554688 34.90625 64.144531 34.917969 64.675781 35.535156 C 64.710938 35.597656 64.742188 35.660156 64.777344 35.722656 C 64.8125 35.785156 64.847656 35.847656 64.882812 35.910156 C 65.089844 36.425781 65.121094 36.964844 65.121094 37.554688 C 65.121094 37.625 65.121094 37.699219 65.121094 37.773438 C 65.121094 38.011719 65.121094 38.25 65.121094 38.488281 C 65.121094 38.664062 65.121094 38.835938 65.121094 39.007812 C 65.121094 39.484375 65.121094 39.960938 65.121094 40.4375 C 65.121094 40.953125 65.121094 41.464844 65.121094 41.980469 C 65.121094 42.984375 65.121094 43.992188 65.121094 45 C 65.121094 45.816406 65.121094 46.636719 65.121094 47.453125 C 65.121094 47.570312 65.121094 47.6875 65.121094 47.804688 C 65.121094 48.042969 65.121094 48.28125 65.121094 48.515625 C 65.121094 50.734375 65.121094 52.953125 65.121094 55.171875 C 65.121094 57.074219 65.121094 58.976562 65.121094 60.878906 C 65.121094 63.089844 65.121094 65.300781 65.121094 67.507812 C 65.121094 67.746094 65.121094 67.980469 65.121094 68.214844 C 65.121094 68.332031 65.121094 68.449219 65.121094 68.566406 C 65.121094 69.386719 65.121094 70.203125 65.121094 71.019531 C 65.121094 72.015625 65.121094 73.011719 65.121094 74.007812 C 65.121094 74.515625 65.121094 75.023438 65.121094 75.53125 C 65.121094 75.996094 65.121094 76.460938 65.121094 76.925781 C 65.121094 77.09375 65.121094 77.261719 65.121094 77.429688 C 65.125 78.746094 65.109375 79.855469 64.582031 80.957031 C 64.550781 81.027344 64.519531 81.097656 64.488281 81.167969 C 64.078125 81.976562 63.421875 82.398438 62.769531 82.5625 C 62.65625 82.582031 62.546875 82.601562 62.433594 82.617188 C 62.433594 82.550781 62.433594 82.488281 62.433594 82.421875 C 62.511719 82.378906 62.59375 82.335938 62.671875 82.292969 C 63.566406 81.800781 64.179688 81.363281 64.597656 80.015625 C 64.777344 79.363281 64.851562 78.808594 64.851562 78.097656 C 64.851562 78.027344 64.851562 77.957031 64.851562 77.882812 C 64.851562 77.644531 64.851562 77.40625 64.851562 77.167969 C 64.851562 76.996094 64.851562 76.824219 64.851562 76.652344 C 64.855469 76.175781 64.855469 75.703125 64.855469 75.230469 C 64.855469 74.71875 64.855469 74.207031 64.855469 73.695312 C 64.855469 72.578125 64.855469 71.460938 64.855469 70.34375 C 64.855469 69.648438 64.855469 68.949219 64.859375 68.253906 C 64.859375 66.320312 64.859375 64.390625 64.859375 62.460938 C 64.859375 62.335938 64.859375 62.214844 64.859375 62.085938 C 64.859375 61.960938 64.859375 61.835938 64.859375 61.710938 C 64.859375 61.460938 64.859375 61.207031 64.859375 60.957031 C 64.859375 60.832031 64.859375 60.707031 64.859375 60.578125 C 64.859375 58.5625 64.859375 56.542969 64.863281 54.523438 C 64.863281 52.453125 64.863281 50.382812 64.863281 48.308594 C 64.863281 47.148438 64.863281 45.984375 64.867188 44.820312 C 64.867188 43.828125 64.867188 42.839844 64.867188 41.847656 C 64.867188 41.34375 64.867188 40.835938 64.867188 40.332031 C 64.867188 39.871094 64.867188 39.40625 64.867188 38.945312 C 64.867188 38.777344 64.867188 38.609375 64.867188 38.441406 C 64.871094 38.214844 64.867188 37.988281 64.867188 37.757812 C 64.867188 37.632812 64.867188 37.507812 64.867188 37.375 C 64.839844 36.953125 64.757812 36.621094 64.648438 36.230469 C 64.628906 36.132812 64.605469 36.035156 64.582031 35.9375 C 64.46875 35.828125 64.46875 35.828125 64.324219 35.742188 C 64.269531 35.707031 64.21875 35.675781 64.164062 35.640625 C 63.585938 35.3125 63.039062 35.296875 62.425781 35.300781 C 62.316406 35.300781 62.203125 35.300781 62.09375 35.300781 C 61.789062 35.296875 61.484375 35.296875 61.179688 35.300781 C 60.847656 35.300781 60.519531 35.296875 60.191406 35.296875 C 59.546875 35.292969 58.902344 35.292969 58.257812 35.296875 C 57.730469 35.296875 57.207031 35.296875 56.683594 35.296875 C 56.609375 35.296875 56.535156 35.296875 56.457031 35.296875 C 56.304688 35.296875 56.15625 35.292969 56.003906 35.292969 C 54.582031 35.292969 53.160156 35.292969 51.738281 35.296875 C 50.441406 35.296875 49.140625 35.296875 47.839844 35.292969 C 46.503906 35.289062 45.167969 35.289062 43.832031 35.289062 C 43.683594 35.289062 43.53125 35.289062 43.378906 35.289062 C 43.304688 35.289062 43.230469 35.289062 43.15625 35.289062 C 42.632812 35.289062 42.109375 35.289062 41.585938 35.289062 C 40.949219 35.285156 40.308594 35.285156 39.671875 35.289062 C 39.347656 35.289062 39.023438 35.289062 38.695312 35.289062 C 38.398438 35.285156 38.101562 35.285156 37.800781 35.289062 C 37.695312 35.289062 37.585938 35.289062 37.480469 35.289062 C 36.859375 35.28125 36.285156 35.324219 35.742188 35.839844 C 35.601562 36.085938 35.503906 36.324219 35.417969 36.621094 C 35.394531 36.683594 35.375 36.75 35.351562 36.816406 C 35.34375 37.046875 35.34375 37.273438 35.34375 37.503906 C 35.34375 37.574219 35.34375 37.648438 35.34375 37.722656 C 35.34375 37.964844 35.34375 38.207031 35.34375 38.453125 C 35.34375 38.625 35.34375 38.800781 35.34375 38.976562 C 35.34375 39.460938 35.347656 39.945312 35.347656 40.425781 C 35.347656 40.949219 35.347656 41.46875 35.347656 41.988281 C 35.347656 42.894531 35.351562 43.796875 35.351562 44.699219 C 35.351562 46.125 35.351562 47.550781 35.355469 48.976562 C 35.355469 49.464844 35.355469 49.949219 35.355469 50.4375 C 35.355469 50.558594 35.355469 50.683594 35.355469 50.808594 C 35.355469 52.195312 35.355469 53.582031 35.355469 54.96875 C 35.359375 55.097656 35.359375 55.222656 35.359375 55.355469 C 35.359375 57.410156 35.359375 59.46875 35.363281 61.527344 C 35.363281 63.636719 35.367188 65.746094 35.367188 67.859375 C 35.367188 69.160156 35.367188 70.464844 35.371094 71.765625 C 35.371094 72.660156 35.371094 73.550781 35.371094 74.441406 C 35.371094 74.957031 35.371094 75.472656 35.375 75.988281 C 35.375 76.460938 35.375 76.929688 35.375 77.402344 C 35.375 77.574219 35.375 77.746094 35.375 77.917969 C 35.375 78.148438 35.375 78.378906 35.375 78.609375 C 35.375 78.738281 35.375 78.867188 35.375 79 C 35.367188 79.097656 35.359375 79.195312 35.351562 79.296875 C 35.289062 79.359375 35.222656 79.425781 35.15625 79.492188 C 35.058594 78.96875 35.007812 78.515625 35.007812 77.96875 C 35.007812 77.894531 35.007812 77.824219 35.007812 77.753906 C 35.007812 77.515625 35.007812 77.28125 35.007812 77.042969 C 35.007812 76.871094 35.007812 76.699219 35.007812 76.527344 C 35.007812 76.058594 35.007812 75.585938 35.007812 75.113281 C 35.007812 74.605469 35.007812 74.097656 35.007812 73.589844 C 35.007812 72.59375 35.007812 71.597656 35.007812 70.601562 C 35.007812 69.792969 35.007812 68.984375 35.007812 68.175781 C 35.007812 68.0625 35.007812 67.945312 35.007812 67.828125 C 35.007812 67.59375 35.007812 67.359375 35.007812 67.125 C 35.007812 64.933594 35.007812 62.738281 35.007812 60.546875 C 35.011719 58.664062 35.007812 56.78125 35.007812 54.898438 C 35.007812 52.714844 35.007812 50.527344 35.007812 48.34375 C 35.007812 48.109375 35.007812 47.878906 35.007812 47.644531 C 35.007812 47.53125 35.007812 47.414062 35.007812 47.296875 C 35.007812 46.488281 35.007812 45.679688 35.007812 44.871094 C 35.007812 43.886719 35.007812 42.902344 35.007812 41.917969 C 35.007812 41.414062 35.007812 40.914062 35.007812 40.410156 C 35.007812 39.949219 35.007812 39.492188 35.007812 39.03125 C 35.007812 38.863281 35.007812 38.699219 35.007812 38.53125 C 35.007812 38.304688 35.007812 38.078125 35.007812 37.851562 C 35.007812 37.726562 35.007812 37.601562 35.007812 37.472656 C 35.046875 36.65625 35.199219 36.066406 35.589844 35.480469 C 36.152344 34.835938 36.835938 34.917969 37.503906 34.921875 Z M 37.503906 34.921875 "/>
<path style=" stroke:none;fill-rule:nonzero;fill:rgb(98.039216%,47.843137%,68.235296%);fill-opacity:1;" d="M 40.363281 46.972656 C 46.789062 46.972656 53.210938 46.972656 59.832031 46.972656 C 59.832031 54.320312 59.832031 61.667969 59.832031 69.238281 C 53.40625 69.238281 46.984375 69.238281 40.363281 69.238281 C 40.363281 61.890625 40.363281 54.542969 40.363281 46.972656 Z M 40.625 47.363281 C 40.625 54.453125 40.625 61.542969 40.625 68.847656 C 46.875 68.847656 53.128906 68.847656 59.570312 68.847656 C 59.570312 61.757812 59.570312 54.667969 59.570312 47.363281 C 53.320312 47.363281 47.066406 47.363281 40.625 47.363281 Z M 40.625 47.363281 "/>
<path style=" stroke:none;fill-rule:nonzero;fill:rgb(19.215687%,21.960784%,26.274511%);fill-opacity:1;" d="M 54.101562 29.003906 C 54.101562 30.035156 54.101562 31.066406 54.101562 32.128906 C 51.332031 32.128906 48.558594 32.128906 45.703125 32.128906 C 45.703125 31.128906 45.703125 30.132812 45.703125 29.101562 C 46.789062 29.089844 47.875 29.074219 48.960938 29.0625 C 49.464844 29.058594 49.96875 29.050781 50.472656 29.046875 C 50.910156 29.039062 51.347656 29.035156 51.789062 29.03125 C 52.019531 29.027344 52.253906 29.023438 52.484375 29.023438 C 52.746094 29.019531 53.003906 29.015625 53.265625 29.011719 C 53.378906 29.011719 53.378906 29.011719 53.5 29.011719 C 53.605469 29.007812 53.605469 29.007812 53.710938 29.007812 C 53.773438 29.007812 53.835938 29.007812 53.898438 29.003906 C 54.035156 29.003906 54.035156 29.003906 54.101562 29.003906 Z M 54.101562 29.003906 "/>
<path style=" stroke:none;fill-rule:nonzero;fill:rgb(99.607843%,89.411765%,89.803922%);fill-opacity:1;" d="M 34.050781 88.476562 C 48.59375 88.476562 63.140625 88.476562 78.125 88.476562 C 78.125 88.507812 78.125 88.539062 78.125 88.574219 C 74.171875 88.574219 70.21875 88.574219 66.144531 88.574219 C 66.144531 88.640625 66.144531 88.703125 66.144531 88.769531 C 71.472656 88.769531 76.800781 88.769531 82.292969 88.769531 C 82.292969 88.800781 82.292969 88.835938 82.292969 88.867188 C 76.433594 88.871094 70.578125 88.875 64.71875 88.875 C 64.632812 88.875 64.542969 88.875 64.457031 88.875 C 62.621094 88.875 60.785156 88.875 58.949219 88.878906 C 58.023438 88.878906 57.101562 88.878906 56.179688 88.878906 C 56.039062 88.878906 55.902344 88.878906 55.761719 88.878906 C 53.617188 88.878906 51.476562 88.878906 49.332031 88.878906 C 49.285156 88.878906 49.238281 88.878906 49.191406 88.878906 C 48.449219 88.882812 47.707031 88.882812 46.960938 88.882812 C 44.820312 88.882812 42.679688 88.882812 40.539062 88.886719 C 40.496094 88.886719 40.453125 88.886719 40.40625 88.886719 C 39.484375 88.886719 38.5625 88.886719 37.640625 88.886719 C 37.207031 88.886719 36.777344 88.886719 36.34375 88.886719 C 36.257812 88.886719 36.175781 88.886719 36.085938 88.886719 C 34.714844 88.886719 33.34375 88.886719 31.972656 88.886719 C 30.597656 88.890625 29.21875 88.890625 27.84375 88.890625 C 27.023438 88.890625 26.207031 88.890625 25.386719 88.890625 C 24.839844 88.890625 24.292969 88.890625 23.75 88.890625 C 23.4375 88.890625 23.125 88.890625 22.8125 88.890625 C 22.53125 88.890625 22.246094 88.890625 21.964844 88.890625 C 21.863281 88.890625 21.757812 88.890625 21.65625 88.890625 C 21.519531 88.894531 21.382812 88.890625 21.242188 88.890625 C 21.128906 88.890625 21.128906 88.890625 21.011719 88.890625 C 20.832031 88.867188 20.832031 88.867188 20.703125 88.671875 C 25.109375 88.671875 29.511719 88.671875 34.050781 88.671875 C 34.050781 88.609375 34.050781 88.542969 34.050781 88.476562 Z M 34.050781 88.476562 "/>
<path style=" stroke:none;fill-rule:nonzero;fill:rgb(99.607843%,97.647059%,97.254902%);fill-opacity:1;" d="M 80.867188 18.804688 C 81.160156 19.144531 81.160156 19.144531 81.25 19.335938 C 81.234375 19.605469 81.234375 19.605469 81.183594 19.824219 C 80.988281 19.921875 80.988281 19.921875 80.839844 19.820312 C 80.785156 19.769531 80.726562 19.71875 80.667969 19.664062 C 79.648438 18.796875 78.472656 18.4375 77.308594 18.855469 C 77.007812 19.023438 76.722656 19.25 76.4375 19.476562 C 76.277344 19.597656 76.152344 19.691406 75.976562 19.726562 C 75.832031 19.636719 75.832031 19.636719 75.714844 19.53125 C 75.726562 19.3125 75.726562 19.3125 75.78125 19.042969 C 76.269531 18.425781 76.859375 18.09375 77.472656 17.871094 C 77.523438 17.851562 77.574219 17.832031 77.628906 17.8125 C 78.710938 17.558594 79.972656 17.832031 80.867188 18.804688 Z M 80.867188 18.804688 "/>
<path style=" stroke:none;fill-rule:nonzero;fill:rgb(99.607843%,97.647059%,97.254902%);fill-opacity:1;" d="M 80.207031 21.582031 C 80.347656 21.828125 80.347656 21.828125 80.402344 22.070312 C 80.351562 22.296875 80.351562 22.296875 80.273438 22.460938 C 80.027344 22.421875 79.828125 22.332031 79.605469 22.175781 C 78.921875 21.703125 78.117188 21.582031 77.402344 21.960938 C 77.210938 22.074219 77.0625 22.191406 76.886719 22.363281 C 76.695312 22.328125 76.636719 22.28125 76.496094 22.070312 C 76.511719 21.824219 76.539062 21.714844 76.660156 21.546875 C 77.667969 20.625 79.210938 20.527344 80.207031 21.582031 Z M 80.207031 21.582031 "/>
<path style=" stroke:none;fill-rule:nonzero;fill:rgb(99.607843%,97.254902%,96.470588%);fill-opacity:1;" d="M 78.515625 37.792969 C 78.710938 37.964844 78.867188 38.167969 78.972656 38.476562 C 79.003906 38.949219 79.019531 39.332031 78.859375 39.746094 C 78.570312 40.128906 78.570312 40.128906 78.328125 40.144531 C 78.074219 40.121094 77.960938 40.085938 77.773438 39.8125 C 77.582031 39.332031 77.507812 39.058594 77.5625 38.496094 C 77.691406 37.839844 78.109375 37.636719 78.515625 37.792969 Z M 78.515625 37.792969 "/>
<path style=" stroke:none;fill-rule:nonzero;fill:rgb(98.039216%,54.509807%,70.980394%);fill-opacity:1;" d="M 63.542969 39.941406 C 63.910156 39.988281 64.183594 40.09375 64.519531 40.332031 C 64.539062 40.265625 64.5625 40.203125 64.582031 40.136719 C 64.5625 40.328125 64.539062 40.523438 64.519531 40.722656 C 64.386719 40.660156 64.257812 40.59375 64.128906 40.527344 C 64.082031 40.503906 64.035156 40.484375 63.988281 40.460938 C 63.941406 40.433594 63.894531 40.410156 63.847656 40.386719 C 63.804688 40.363281 63.757812 40.34375 63.714844 40.320312 C 63.605469 40.234375 63.605469 40.234375 63.542969 39.941406 Z M 63.542969 39.941406 "/>
</g>
</svg>
