<?xml version="1.0" encoding="UTF-8"?>
<svg xmlns="http://www.w3.org/2000/svg" xmlns:xlink="http://www.w3.org/1999/xlink" width="100px" height="100px" viewBox="0 0 100 100" version="1.1">
<defs>
<filter id="alpha" filterUnits="objectBoundingBox" x="0%" y="0%" width="100%" height="100%">
  <feColorMatrix type="matrix" in="SourceGraphic" values="0 0 0 0 1 0 0 0 0 1 0 0 0 0 1 0 0 0 1 0"/>
</filter>
<mask id="mask0">
  <g filter="url(#alpha)">
<rect x="0" y="0" width="100" height="100" style="fill:rgb(0%,0%,0%);fill-opacity:0.698039;stroke:none;"/>
  </g>
</mask>
<clipPath id="clip1">
  <rect x="0" y="0" width="100" height="100"/>
</clipPath>
<g id="surface5" clip-path="url(#clip1)">
<path style=" stroke:none;fill-rule:nonzero;fill:rgb(100%,100%,100%);fill-opacity:1;" d="M 84.480469 36 C 84.9375 31.308594 86.023438 26.867188 84.101562 22.355469 C 80.578125 14.074219 69.949219 9.679688 61.6875 13.601562 C 57.464844 15.601562 53.851562 18.527344 49.199219 19.601562 C 36.644531 22.496094 17.265625 7.058594 10.429688 25.035156 C 8.085938 31.203125 9.03125 39.328125 13.273438 44.484375 C 14.632812 46.140625 16.296875 47.578125 17.304688 49.472656 C 20.0625 54.648438 16.160156 60.339844 14.398438 65.171875 C 10.21875 76.585938 25.980469 82.898438 34.535156 84.0625 C 48.675781 86 60.339844 69.800781 74.398438 76.398438 C 84.199219 81 92.800781 69.800781 91 58.601562 C 89.820312 51.269531 83.859375 44.25 84.414062 36.777344 C 84.4375 36.519531 84.457031 36.261719 84.480469 36 Z M 84.480469 36 "/>
</g>
<mask id="mask1">
  <g filter="url(#alpha)">
<rect x="0" y="0" width="100" height="100" style="fill:rgb(0%,0%,0%);fill-opacity:0.501961;stroke:none;"/>
  </g>
</mask>
<clipPath id="clip2">
  <rect x="0" y="0" width="100" height="100"/>
</clipPath>
<g id="surface8" clip-path="url(#clip2)">
<path style=" stroke:none;fill-rule:nonzero;fill:rgb(0%,0%,0%);fill-opacity:1;" d="M 15.910156 26.785156 C 15.910156 26.785156 15.222656 25.066406 14.023438 23.867188 C 12.824219 22.667969 7.933594 21.894531 7.933594 21.894531 C 8.722656 22.65625 9.441406 23.488281 10.078125 24.382812 C 11.191406 25.925781 14.878906 29.445312 14.878906 29.445312 C 14.878906 29.445312 13.078125 27.898438 11.445312 27.726562 C 9.8125 27.554688 5.699219 28.414062 5.445312 28.414062 C 5.195312 28.414062 6.988281 29.101562 8.277344 29.699219 C 9.566406 30.300781 14.539062 30.816406 14.539062 30.816406 C 14.539062 30.816406 12.394531 31.414062 10.941406 31.933594 C 9.484375 32.449219 8.105469 36.21875 8.105469 36.21875 C 8.105469 36.21875 9.992188 34.503906 11.621094 34.074219 C 13.253906 33.648438 15.566406 32.875 15.566406 32.875 C 15.566406 32.875 14.109375 34.507812 13.769531 35.621094 C 13.425781 36.738281 13.683594 39.308594 13.683594 39.308594 C 13.683594 39.308594 14.453125 36.910156 15.398438 35.964844 C 16.34375 35.019531 17.367188 33.398438 17.367188 33.398438 C 17.84375 34.175781 18.273438 34.976562 18.65625 35.800781 C 19.34375 37.257812 19.769531 39.398438 19.769531 39.398438 C 19.769531 39.398438 20.886719 37 20.800781 35.800781 C 20.714844 34.601562 19.429688 32.453125 19.429688 32.453125 C 19.429688 32.453125 20.285156 31.855469 21.570312 32.367188 C 22.859375 32.882812 25.089844 35.027344 25.089844 35.027344 C 25.089844 35.027344 24.574219 32.195312 23.714844 31.082031 C 22.859375 29.96875 19.171875 29.621094 19.171875 29.621094 C 19.171875 29.621094 21.230469 28.421875 22.515625 28.164062 C 23.800781 27.90625 25.515625 28.507812 25.515625 28.507812 C 25.515625 28.507812 23.542969 25.761719 22 25.589844 C 20.457031 25.417969 18.140625 27.8125 18.140625 27.8125 L 18.828125 24.382812 C 18.996094 23.523438 18.65625 21.382812 18.65625 21.382812 C 18.65625 21.382812 17.710938 21.894531 16.597656 23.527344 C 15.9375 24.472656 15.6875 25.648438 15.910156 26.785156 Z M 15.910156 26.785156 "/>
</g>
</defs>
<g id="surface1">
<path style=" stroke:none;fill-rule:nonzero;fill:rgb(100%,47.450981%,77.64706%);fill-opacity:1;" d="M 84.480469 36 C 84.9375 31.308594 86.023438 26.867188 84.101562 22.355469 C 80.578125 14.074219 69.949219 9.679688 61.6875 13.601562 C 57.464844 15.601562 53.851562 18.527344 49.199219 19.601562 C 36.644531 22.496094 17.265625 7.058594 10.429688 25.035156 C 8.085938 31.203125 9.03125 39.328125 13.273438 44.484375 C 14.632812 46.140625 16.296875 47.578125 17.304688 49.472656 C 20.0625 54.648438 16.160156 60.339844 14.398438 65.171875 C 10.21875 76.585938 25.980469 82.898438 34.535156 84.0625 C 48.675781 86 60.339844 69.800781 74.398438 76.398438 C 84.199219 81 92.800781 69.800781 91 58.601562 C 89.820312 51.269531 83.859375 44.25 84.414062 36.777344 C 84.4375 36.519531 84.457031 36.261719 84.480469 36 Z M 84.480469 36 "/>
<use xlink:href="#surface5" mask="url(#mask0)"/>
<path style="fill-rule:nonzero;fill:rgb(100%,100%,100%);fill-opacity:1;stroke-width:1;stroke-linecap:round;stroke-linejoin:round;stroke:rgb(18.039216%,20.784314%,22.745098%);stroke-opacity:1;stroke-miterlimit:4;" d="M 120.292969 160.722656 C 120.292969 141.660156 104.84375 126.191406 85.761719 126.191406 C 66.699219 126.191406 51.230469 141.660156 51.230469 160.722656 C 51.230469 179.804688 66.699219 195.253906 85.761719 195.253906 C 104.84375 195.253906 120.292969 179.804688 120.292969 160.722656 Z M 120.292969 160.722656 " transform="matrix(0.2,0,0,0.2,0,0)"/>
<path style="fill-rule:nonzero;fill:rgb(100%,100%,100%);fill-opacity:1;stroke-width:1;stroke-linecap:round;stroke-linejoin:round;stroke:rgb(18.039216%,20.784314%,22.745098%);stroke-opacity:1;stroke-miterlimit:4;" d="M 117.734375 157.304688 C 117.734375 138.222656 102.265625 122.773438 83.203125 122.773438 C 64.121094 122.773438 48.671875 138.222656 48.671875 157.304688 C 48.671875 176.367188 64.121094 191.835938 83.203125 191.835938 C 102.265625 191.835938 117.734375 176.367188 117.734375 157.304688 Z M 117.734375 157.304688 " transform="matrix(0.2,0,0,0.2,0,0)"/>
<path style="fill-rule:nonzero;fill:rgb(18.039216%,20.784314%,22.745098%);fill-opacity:1;stroke-width:1;stroke-linecap:round;stroke-linejoin:round;stroke:rgb(18.039216%,20.784314%,22.745098%);stroke-opacity:1;stroke-miterlimit:4;" d="M 114.296875 157.304688 C 114.296875 140.117188 100.371094 126.191406 83.203125 126.191406 C 66.015625 126.191406 52.109375 140.117188 52.109375 157.304688 C 52.109375 174.472656 66.015625 188.398438 83.203125 188.398438 C 100.371094 188.398438 114.296875 174.472656 114.296875 157.304688 Z M 114.296875 157.304688 " transform="matrix(0.2,0,0,0.2,0,0)"/>
<path style=" stroke:none;fill-rule:nonzero;fill:rgb(100%,47.450981%,77.64706%);fill-opacity:1;" d="M 15.910156 26.785156 C 15.910156 26.785156 15.222656 25.066406 14.023438 23.867188 C 12.824219 22.667969 7.933594 21.894531 7.933594 21.894531 C 8.722656 22.65625 9.441406 23.488281 10.078125 24.382812 C 11.191406 25.925781 14.878906 29.445312 14.878906 29.445312 C 14.878906 29.445312 13.078125 27.898438 11.445312 27.726562 C 9.8125 27.554688 5.699219 28.414062 5.445312 28.414062 C 5.195312 28.414062 6.988281 29.101562 8.277344 29.699219 C 9.566406 30.300781 14.539062 30.816406 14.539062 30.816406 C 14.539062 30.816406 12.394531 31.414062 10.941406 31.933594 C 9.484375 32.449219 8.105469 36.21875 8.105469 36.21875 C 8.105469 36.21875 9.992188 34.503906 11.621094 34.074219 C 13.253906 33.648438 15.566406 32.875 15.566406 32.875 C 15.566406 32.875 14.109375 34.507812 13.769531 35.621094 C 13.425781 36.738281 13.683594 39.308594 13.683594 39.308594 C 13.683594 39.308594 14.453125 36.910156 15.398438 35.964844 C 16.34375 35.019531 17.367188 33.398438 17.367188 33.398438 C 17.84375 34.175781 18.273438 34.976562 18.65625 35.800781 C 19.34375 37.257812 19.769531 39.398438 19.769531 39.398438 C 19.769531 39.398438 20.886719 37 20.800781 35.800781 C 20.714844 34.601562 19.429688 32.453125 19.429688 32.453125 C 19.429688 32.453125 20.285156 31.855469 21.570312 32.367188 C 22.859375 32.882812 25.089844 35.027344 25.089844 35.027344 C 25.089844 35.027344 24.574219 32.195312 23.714844 31.082031 C 22.859375 29.96875 19.171875 29.621094 19.171875 29.621094 C 19.171875 29.621094 21.230469 28.421875 22.515625 28.164062 C 23.800781 27.90625 25.515625 28.507812 25.515625 28.507812 C 25.515625 28.507812 23.542969 25.761719 22 25.589844 C 20.457031 25.417969 18.140625 27.8125 18.140625 27.8125 L 18.828125 24.382812 C 18.996094 23.523438 18.65625 21.382812 18.65625 21.382812 C 18.65625 21.382812 17.710938 21.894531 16.597656 23.527344 C 15.9375 24.472656 15.6875 25.648438 15.910156 26.785156 Z M 15.910156 26.785156 "/>
<use xlink:href="#surface8" mask="url(#mask1)"/>
<path style="fill:none;stroke-width:0.5;stroke-linecap:round;stroke-linejoin:round;stroke:rgb(18.039216%,20.784314%,22.745098%);stroke-opacity:1;stroke-miterlimit:4;" d="M 88.007812 120.859375 C 88.300781 119.628906 88.632812 118.398438 89.003906 117.1875 " transform="matrix(0.2,0,0,0.2,0,0)"/>
<path style="fill:none;stroke-width:0.5;stroke-linecap:round;stroke-linejoin:round;stroke:rgb(18.039216%,20.784314%,22.745098%);stroke-opacity:1;stroke-miterlimit:4;" d="M 59.355469 120.859375 C 63.359375 123.789062 68.359375 127.851562 70.976562 131.347656 C 75.683594 137.773438 85.136719 151.503906 85.136719 151.503906 C 84.863281 142.285156 85.585938 133.066406 87.304688 124.003906 " transform="matrix(0.2,0,0,0.2,0,0)"/>
<path style="fill:none;stroke-width:0.5;stroke-linecap:round;stroke-linejoin:round;stroke:rgb(18.039216%,20.784314%,22.745098%);stroke-opacity:1;stroke-miterlimit:4;" d="M 53.398438 116.757812 C 53.398438 116.757812 54.648438 117.558594 56.503906 118.847656 " transform="matrix(0.2,0,0,0.2,0,0)"/>
<path style="fill:none;stroke-width:0.5;stroke-linecap:round;stroke-linejoin:round;stroke:rgb(18.039216%,20.784314%,22.745098%);stroke-opacity:1;stroke-miterlimit:4;" d="M 85.136719 151.503906 C 85.136719 151.503906 101.425781 135.214844 108.28125 133.925781 C 115.15625 132.636719 121.152344 137.773438 121.152344 137.773438 " transform="matrix(0.2,0,0,0.2,0,0)"/>
<path style="fill:none;stroke-width:0.5;stroke-linecap:round;stroke-linejoin:round;stroke:rgb(18.039216%,20.784314%,22.745098%);stroke-opacity:1;stroke-miterlimit:4;" d="M 55.996094 165.136719 C 51.992188 167.65625 51.679688 169.140625 51.679688 169.140625 " transform="matrix(0.2,0,0,0.2,0,0)"/>
<path style="fill:none;stroke-width:0.5;stroke-linecap:round;stroke-linejoin:round;stroke:rgb(18.039216%,20.784314%,22.745098%);stroke-opacity:1;stroke-miterlimit:4;" d="M 120.722656 166.523438 C 120.722656 166.523438 118.164062 160.078125 109.140625 157.070312 C 100.136719 154.082031 85.996094 153.652344 85.996094 153.652344 C 85.996094 153.652344 66.152344 160.15625 58.886719 163.535156 " transform="matrix(0.2,0,0,0.2,0,0)"/>
<path style="fill:none;stroke-width:0.5;stroke-linecap:round;stroke-linejoin:round;stroke:rgb(18.039216%,20.784314%,22.745098%);stroke-opacity:1;stroke-miterlimit:4;" d="M 77.324219 151.191406 C 82.128906 152.597656 85.996094 153.652344 85.996094 153.652344 " transform="matrix(0.2,0,0,0.2,0,0)"/>
<path style="fill:none;stroke-width:0.5;stroke-linecap:round;stroke-linejoin:round;stroke:rgb(18.039216%,20.784314%,22.745098%);stroke-opacity:1;stroke-miterlimit:4;" d="M 47.109375 143.574219 C 51.777344 143.867188 57.773438 144.492188 61.113281 145.9375 C 63.828125 147.109375 69.199219 148.789062 74.257812 150.292969 " transform="matrix(0.2,0,0,0.2,0,0)"/>
<path style="fill:none;stroke-width:0.5;stroke-linecap:round;stroke-linejoin:round;stroke:rgb(18.039216%,20.784314%,22.745098%);stroke-opacity:1;stroke-miterlimit:4;" d="M 40.527344 143.359375 C 40.527344 143.359375 42.089844 143.359375 44.394531 143.457031 " transform="matrix(0.2,0,0,0.2,0,0)"/>
<path style="fill:none;stroke-width:0.5;stroke-linecap:round;stroke-linejoin:round;stroke:rgb(18.039216%,20.784314%,22.745098%);stroke-opacity:1;stroke-miterlimit:4;" d="M 85.136719 156.210938 C 85.136719 156.210938 73.125 174.21875 72.265625 178.535156 C 71.738281 181.074219 71.464844 183.652344 71.40625 186.25 " transform="matrix(0.2,0,0,0.2,0,0)"/>
<path style="fill:none;stroke-width:0.5;stroke-linecap:round;stroke-linejoin:round;stroke:rgb(18.039216%,20.784314%,22.745098%);stroke-opacity:1;stroke-miterlimit:4;" d="M 90.46875 161.894531 C 92.773438 164.882812 95.546875 168.886719 96.71875 172.089844 C 98.066406 175.996094 99.0625 180 99.707031 184.082031 " transform="matrix(0.2,0,0,0.2,0,0)"/>
<path style="fill:none;stroke-width:0.5;stroke-linecap:round;stroke-linejoin:round;stroke:rgb(18.039216%,20.784314%,22.745098%);stroke-opacity:1;stroke-miterlimit:4;" d="M 86.835938 157.519531 C 86.835938 157.519531 87.832031 158.574219 89.121094 160.195312 " transform="matrix(0.2,0,0,0.2,0,0)"/>
<path style=" stroke:none;fill-rule:nonzero;fill:rgb(100%,47.450981%,77.64706%);fill-opacity:1;" d="M 14.820312 27.523438 C 14.820312 27.523438 14.378906 25.722656 14.652344 24.054688 C 14.925781 22.382812 18.453125 18.898438 18.453125 18.898438 C 18.257812 19.976562 18.160156 21.074219 18.160156 22.171875 C 18.160156 24.074219 17.210938 29.082031 17.210938 29.082031 C 17.210938 29.082031 17.773438 26.777344 18.996094 25.683594 C 20.222656 24.585938 24.066406 22.882812 24.277344 22.734375 C 24.484375 22.589844 23.421875 24.195312 22.726562 25.433594 C 22.035156 26.675781 18.289062 30 18.289062 30 C 18.289062 30 20.378906 29.234375 21.863281 28.800781 C 23.347656 28.363281 26.664062 30.632812 26.664062 30.632812 C 26.664062 30.632812 24.128906 30.339844 22.554688 30.941406 C 20.980469 31.542969 18.648438 32.269531 18.648438 32.269531 C 18.648438 32.269531 20.785156 32.742188 21.714844 33.449219 C 22.640625 34.152344 23.9375 36.398438 23.9375 36.398438 C 23.9375 36.398438 21.910156 34.898438 20.59375 34.683594 C 19.273438 34.464844 17.488281 33.742188 17.488281 33.742188 C 17.554688 34.648438 17.675781 35.550781 17.84375 36.445312 C 18.136719 38.03125 19.042969 40.023438 19.042969 40.023438 C 19.042969 40.023438 16.738281 38.722656 16.105469 37.695312 C 15.472656 36.671875 15.269531 34.179688 15.269531 34.179688 C 15.269531 34.179688 14.222656 34.191406 13.46875 35.359375 C 12.71875 36.527344 12.164062 39.570312 12.164062 39.570312 C 12.164062 39.570312 10.933594 36.96875 10.976562 35.570312 C 11.023438 34.171875 13.820312 31.734375 13.820312 31.734375 C 13.820312 31.734375 11.449219 31.960938 10.253906 32.5 C 9.054688 33.039062 8.011719 34.53125 8.011719 34.53125 C 8.011719 34.53125 8.011719 31.148438 9.167969 30.109375 C 10.324219 29.070312 13.605469 29.671875 13.605469 29.671875 L 11.046875 27.285156 C 10.40625 26.683594 9.433594 24.742188 9.433594 24.742188 C 9.433594 24.742188 10.503906 24.613281 12.359375 25.285156 C 13.449219 25.667969 14.335938 26.476562 14.820312 27.523438 Z M 14.820312 27.523438 "/>
<path style="fill:none;stroke-width:0.5;stroke-linecap:round;stroke-linejoin:round;stroke:rgb(18.039216%,20.784314%,22.745098%);stroke-opacity:1;stroke-miterlimit:4;" d="M 59.628906 131.933594 C 58.613281 131.113281 57.675781 130.3125 56.679688 129.53125 " transform="matrix(0.2,0,0,0.2,0,0)"/>
<path style="fill:none;stroke-width:0.5;stroke-linecap:round;stroke-linejoin:round;stroke:rgb(18.039216%,20.784314%,22.745098%);stroke-opacity:1;stroke-miterlimit:4;" d="M 82.890625 115.234375 C 81.347656 119.941406 79.609375 126.152344 79.570312 130.527344 C 79.492188 138.515625 79.824219 155.15625 79.824219 155.15625 C 74.667969 147.5 68.691406 140.449219 61.992188 134.082031 " transform="matrix(0.2,0,0,0.2,0,0)"/>
<path style="fill:none;stroke-width:0.5;stroke-linecap:round;stroke-linejoin:round;stroke:rgb(18.039216%,20.784314%,22.745098%);stroke-opacity:1;stroke-miterlimit:4;" d="M 85.351562 108.417969 C 85.351562 108.417969 84.785156 109.804688 84.023438 111.933594 " transform="matrix(0.2,0,0,0.2,0,0)"/>
<path style="fill:none;stroke-width:0.5;stroke-linecap:round;stroke-linejoin:round;stroke:rgb(18.039216%,20.784314%,22.745098%);stroke-opacity:1;stroke-miterlimit:4;" d="M 79.824219 155.15625 C 79.824219 155.15625 57.070312 151.425781 50.761719 154.375 C 44.433594 157.34375 42.558594 165 42.558594 165 " transform="matrix(0.2,0,0,0.2,0,0)"/>
<path style="fill:none;stroke-width:0.5;stroke-linecap:round;stroke-linejoin:round;stroke:rgb(18.039216%,20.784314%,22.745098%);stroke-opacity:1;stroke-miterlimit:4;" d="M 111.445312 149.238281 C 116.132812 148.964844 117.265625 149.921875 117.265625 149.921875 " transform="matrix(0.2,0,0,0.2,0,0)"/>
<path style="fill:none;stroke-width:0.5;stroke-linecap:round;stroke-linejoin:round;stroke:rgb(18.039216%,20.784314%,22.745098%);stroke-opacity:1;stroke-miterlimit:4;" d="M 59.667969 188.105469 C 59.667969 188.105469 58.007812 181.386719 63.574219 173.691406 C 69.121094 165.996094 80.390625 157.402344 80.390625 157.402344 C 80.390625 157.402344 100.292969 151.09375 108.164062 149.628906 " transform="matrix(0.2,0,0,0.2,0,0)"/>
<path style="fill:none;stroke-width:0.5;stroke-linecap:round;stroke-linejoin:round;stroke:rgb(18.039216%,20.784314%,22.745098%);stroke-opacity:1;stroke-miterlimit:4;" d="M 85.996094 150.351562 C 82.929688 154.277344 80.390625 157.402344 80.390625 157.402344 " transform="matrix(0.2,0,0,0.2,0,0)"/>
<path style="fill:none;stroke-width:0.5;stroke-linecap:round;stroke-linejoin:round;stroke:rgb(18.039216%,20.784314%,22.745098%);stroke-opacity:1;stroke-miterlimit:4;" d="M 106.09375 126.542969 C 102.460938 129.53125 97.96875 133.535156 96.09375 136.601562 C 94.550781 139.140625 91.191406 143.613281 87.96875 147.8125 " transform="matrix(0.2,0,0,0.2,0,0)"/>
<path style="fill:none;stroke-width:0.5;stroke-linecap:round;stroke-linejoin:round;stroke:rgb(18.039216%,20.784314%,22.745098%);stroke-opacity:1;stroke-miterlimit:4;" d="M 111.308594 122.519531 C 111.308594 122.519531 110.039062 123.4375 108.203125 124.84375 " transform="matrix(0.2,0,0,0.2,0,0)"/>
<path style="fill:none;stroke-width:0.5;stroke-linecap:round;stroke-linejoin:round;stroke:rgb(18.039216%,20.784314%,22.745098%);stroke-opacity:1;stroke-miterlimit:4;" d="M 82.578125 159.003906 C 82.578125 159.003906 102.851562 166.621094 106.035156 169.609375 C 107.949219 171.367188 109.6875 173.300781 111.230469 175.371094 " transform="matrix(0.2,0,0,0.2,0,0)"/>
<path style="fill:none;stroke-width:0.5;stroke-linecap:round;stroke-linejoin:round;stroke:rgb(18.039216%,20.784314%,22.745098%);stroke-opacity:1;stroke-miterlimit:4;" d="M 81.542969 166.699219 C 81.40625 170.488281 81.484375 175.332031 82.421875 178.632812 C 83.613281 182.597656 85.136719 186.445312 86.992188 190.136719 " transform="matrix(0.2,0,0,0.2,0,0)"/>
<path style="fill:none;stroke-width:0.5;stroke-linecap:round;stroke-linejoin:round;stroke:rgb(18.039216%,20.784314%,22.745098%);stroke-opacity:1;stroke-miterlimit:4;" d="M 81.933594 160.996094 C 81.933594 160.996094 81.777344 162.421875 81.660156 164.511719 " transform="matrix(0.2,0,0,0.2,0,0)"/>
<path style="fill-rule:nonzero;fill:rgb(100%,100%,100%);fill-opacity:1;stroke-width:1;stroke-linecap:round;stroke-linejoin:round;stroke:rgb(18.039216%,20.784314%,22.745098%);stroke-opacity:1;stroke-miterlimit:4;" d="M 140.820312 183.4375 L 367.5 183.4375 C 373.398438 183.4375 378.164062 188.203125 378.164062 194.101562 L 378.164062 341.09375 C 378.164062 347.539062 372.949219 352.773438 366.503906 352.773438 L 141.835938 352.773438 C 135.390625 352.773438 130.15625 347.539062 130.15625 341.09375 L 130.15625 194.101562 C 130.15625 188.203125 134.941406 183.4375 140.820312 183.4375 Z M 140.820312 183.4375 " transform="matrix(0.2,0,0,0.2,0,0)"/>
<path style=" stroke:none;fill-rule:nonzero;fill:rgb(18.039216%,20.784314%,22.745098%);fill-opacity:1;" d="M 41.964844 40.019531 L 44.757812 40.019531 L 44.757812 41.855469 L 41.964844 41.855469 Z M 41.964844 40.019531 "/>
<path style=" stroke:none;fill-rule:nonzero;fill:rgb(18.039216%,20.784314%,22.745098%);fill-opacity:1;" d="M 33.121094 51.335938 L 35.710938 51.335938 L 35.710938 53.90625 L 33.121094 53.90625 Z M 33.121094 51.335938 "/>
<path style=" stroke:none;fill-rule:nonzero;fill:rgb(18.039216%,20.784314%,22.745098%);fill-opacity:1;" d="M 44.550781 42.292969 L 47.164062 42.292969 L 47.164062 44.867188 L 44.550781 44.867188 Z M 44.550781 42.292969 "/>
<path style=" stroke:none;fill-rule:nonzero;fill:rgb(18.039216%,20.784314%,22.745098%);fill-opacity:1;" d="M 38.730469 40.019531 L 41.523438 40.019531 L 41.523438 41.855469 L 38.730469 41.855469 Z M 38.730469 40.019531 "/>
<path style=" stroke:none;fill-rule:nonzero;fill:rgb(18.039216%,20.784314%,22.745098%);fill-opacity:1;" d="M 47.605469 42.292969 L 50.214844 42.292969 L 50.214844 44.867188 L 47.605469 44.867188 Z M 47.605469 42.292969 "/>
<path style=" stroke:none;fill-rule:nonzero;fill:rgb(18.039216%,20.784314%,22.745098%);fill-opacity:1;" d="M 45.199219 40.019531 L 47.988281 40.019531 L 47.988281 41.855469 L 45.199219 41.855469 Z M 45.199219 40.019531 "/>
<path style=" stroke:none;fill-rule:nonzero;fill:rgb(18.039216%,20.784314%,22.745098%);fill-opacity:1;" d="M 29.234375 48.320312 L 34.144531 48.320312 L 34.144531 50.890625 L 29.234375 50.890625 Z M 29.234375 48.320312 "/>
<path style=" stroke:none;fill-rule:nonzero;fill:rgb(18.039216%,20.784314%,22.745098%);fill-opacity:1;" d="M 38.445312 42.292969 L 41.058594 42.292969 L 41.058594 44.867188 L 38.445312 44.867188 Z M 38.445312 42.292969 "/>
<path style=" stroke:none;fill-rule:nonzero;fill:rgb(18.039216%,20.784314%,22.745098%);fill-opacity:1;" d="M 29.234375 51.335938 L 32.679688 51.335938 L 32.679688 53.90625 L 29.234375 53.90625 Z M 29.234375 51.335938 "/>
<path style=" stroke:none;fill-rule:nonzero;fill:rgb(18.039216%,20.784314%,22.745098%);fill-opacity:1;" d="M 48.433594 40.019531 L 51.222656 40.019531 L 51.222656 41.855469 L 48.433594 41.855469 Z M 48.433594 40.019531 "/>
<path style=" stroke:none;fill-rule:nonzero;fill:rgb(18.039216%,20.784314%,22.745098%);fill-opacity:1;" d="M 32.339844 42.292969 L 34.953125 42.292969 L 34.953125 44.867188 L 32.339844 44.867188 Z M 32.339844 42.292969 "/>
<path style=" stroke:none;fill-rule:nonzero;fill:rgb(18.039216%,20.784314%,22.745098%);fill-opacity:1;" d="M 32.265625 40.019531 L 35.058594 40.019531 L 35.058594 41.855469 L 32.265625 41.855469 Z M 32.265625 40.019531 "/>
<path style=" stroke:none;fill-rule:nonzero;fill:rgb(18.039216%,20.784314%,22.745098%);fill-opacity:1;" d="M 35.5 40.019531 L 38.292969 40.019531 L 38.292969 41.855469 L 35.5 41.855469 Z M 35.5 40.019531 "/>
<path style=" stroke:none;fill-rule:nonzero;fill:rgb(18.039216%,20.784314%,22.745098%);fill-opacity:1;" d="M 35.390625 42.292969 L 38.003906 42.292969 L 38.003906 44.867188 L 35.390625 44.867188 Z M 35.390625 42.292969 "/>
<path style=" stroke:none;fill-rule:nonzero;fill:rgb(18.039216%,20.784314%,22.745098%);fill-opacity:1;" d="M 41.496094 42.292969 L 44.109375 42.292969 L 44.109375 44.867188 L 41.496094 44.867188 Z M 41.496094 42.292969 "/>
<path style=" stroke:none;fill-rule:nonzero;fill:rgb(18.039216%,20.784314%,22.745098%);fill-opacity:1;" d="M 61.367188 40.019531 L 64.15625 40.019531 L 64.15625 41.855469 L 61.367188 41.855469 Z M 61.367188 40.019531 "/>
<path style=" stroke:none;fill-rule:nonzero;fill:rgb(18.039216%,20.784314%,22.745098%);fill-opacity:1;" d="M 64.597656 40.019531 L 67.390625 40.019531 L 67.390625 41.855469 L 64.597656 41.855469 Z M 64.597656 40.019531 "/>
<path style=" stroke:none;fill-rule:nonzero;fill:rgb(18.039216%,20.784314%,22.745098%);fill-opacity:1;" d="M 62.871094 42.292969 L 65.480469 42.292969 L 65.480469 44.867188 L 62.871094 44.867188 Z M 62.871094 42.292969 "/>
<path style=" stroke:none;fill-rule:nonzero;fill:rgb(18.039216%,20.784314%,22.745098%);fill-opacity:1;" d="M 65.925781 42.292969 L 68.535156 42.292969 L 68.535156 44.867188 L 65.925781 44.867188 Z M 65.925781 42.292969 "/>
<path style=" stroke:none;fill-rule:nonzero;fill:rgb(18.039216%,20.784314%,22.745098%);fill-opacity:1;" d="M 69.519531 51.335938 L 73.367188 51.335938 L 73.367188 53.90625 L 69.519531 53.90625 Z M 69.519531 51.335938 "/>
<path style=" stroke:none;fill-rule:nonzero;fill:rgb(18.039216%,20.784314%,22.745098%);fill-opacity:1;" d="M 67.832031 40.019531 L 70.625 40.019531 L 70.625 41.855469 L 67.832031 41.855469 Z M 67.832031 40.019531 "/>
<path style=" stroke:none;fill-rule:nonzero;fill:rgb(18.039216%,20.784314%,22.745098%);fill-opacity:1;" d="M 29.234375 42.292969 L 31.898438 42.292969 L 31.898438 44.867188 L 29.234375 44.867188 Z M 29.234375 42.292969 "/>
<path style=" stroke:none;fill-rule:nonzero;fill:rgb(18.039216%,20.784314%,22.745098%);fill-opacity:1;" d="M 51.664062 40.019531 L 54.457031 40.019531 L 54.457031 41.855469 L 51.664062 41.855469 Z M 51.664062 40.019531 "/>
<path style=" stroke:none;fill-rule:nonzero;fill:rgb(18.039216%,20.784314%,22.745098%);fill-opacity:1;" d="M 54.898438 40.019531 L 57.691406 40.019531 L 57.691406 41.855469 L 54.898438 41.855469 Z M 54.898438 40.019531 "/>
<path style=" stroke:none;fill-rule:nonzero;fill:rgb(18.039216%,20.784314%,22.745098%);fill-opacity:1;" d="M 53.710938 42.292969 L 56.324219 42.292969 L 56.324219 44.867188 L 53.710938 44.867188 Z M 53.710938 42.292969 "/>
<path style=" stroke:none;fill-rule:nonzero;fill:rgb(18.039216%,20.784314%,22.745098%);fill-opacity:1;" d="M 59.816406 42.292969 L 62.429688 42.292969 L 62.429688 44.867188 L 59.816406 44.867188 Z M 59.816406 42.292969 "/>
<path style=" stroke:none;fill-rule:nonzero;fill:rgb(18.039216%,20.784314%,22.745098%);fill-opacity:1;" d="M 50.65625 42.292969 L 53.269531 42.292969 L 53.269531 44.867188 L 50.65625 44.867188 Z M 50.65625 42.292969 "/>
<path style=" stroke:none;fill-rule:nonzero;fill:rgb(18.039216%,20.784314%,22.745098%);fill-opacity:1;" d="M 56.765625 42.292969 L 59.375 42.292969 L 59.375 44.867188 L 56.765625 44.867188 Z M 56.765625 42.292969 "/>
<path style=" stroke:none;fill-rule:nonzero;fill:rgb(18.039216%,20.784314%,22.745098%);fill-opacity:1;" d="M 58.132812 40.019531 L 60.925781 40.019531 L 60.925781 41.855469 L 58.132812 41.855469 Z M 58.132812 40.019531 "/>
<path style=" stroke:none;fill-rule:nonzero;fill:rgb(18.039216%,20.784314%,22.745098%);fill-opacity:1;" d="M 54.355469 51.335938 L 56.945312 51.335938 L 56.945312 53.90625 L 54.355469 53.90625 Z M 54.355469 51.335938 "/>
<path style=" stroke:none;fill-rule:nonzero;fill:rgb(18.039216%,20.784314%,22.745098%);fill-opacity:1;" d="M 67.953125 48.320312 L 70.546875 48.320312 L 70.546875 50.890625 L 67.953125 50.890625 Z M 67.953125 48.320312 "/>
<path style=" stroke:none;fill-rule:nonzero;fill:rgb(18.039216%,20.784314%,22.745098%);fill-opacity:1;" d="M 64.921875 48.320312 L 67.511719 48.320312 L 67.511719 50.890625 L 64.921875 50.890625 Z M 64.921875 48.320312 "/>
<path style=" stroke:none;fill-rule:nonzero;fill:rgb(18.039216%,20.784314%,22.745098%);fill-opacity:1;" d="M 66.484375 51.335938 L 69.078125 51.335938 L 69.078125 53.90625 L 66.484375 53.90625 Z M 66.484375 51.335938 "/>
<path style=" stroke:none;fill-rule:nonzero;fill:rgb(18.039216%,20.784314%,22.745098%);fill-opacity:1;" d="M 63.453125 51.335938 L 66.046875 51.335938 L 66.046875 53.90625 L 63.453125 53.90625 Z M 63.453125 51.335938 "/>
<path style=" stroke:none;fill-rule:nonzero;fill:rgb(18.039216%,20.784314%,22.745098%);fill-opacity:1;" d="M 57.386719 51.335938 L 59.976562 51.335938 L 59.976562 53.90625 L 57.386719 53.90625 Z M 57.386719 51.335938 "/>
<path style=" stroke:none;fill-rule:nonzero;fill:rgb(18.039216%,20.784314%,22.745098%);fill-opacity:1;" d="M 60.421875 51.335938 L 63.011719 51.335938 L 63.011719 53.90625 L 60.421875 53.90625 Z M 60.421875 51.335938 "/>
<path style=" stroke:none;fill-rule:nonzero;fill:rgb(18.039216%,20.784314%,22.745098%);fill-opacity:1;" d="M 61.886719 48.320312 L 64.476562 48.320312 L 64.476562 50.890625 L 61.886719 50.890625 Z M 61.886719 48.320312 "/>
<path style=" stroke:none;fill-rule:nonzero;fill:rgb(18.039216%,20.784314%,22.745098%);fill-opacity:1;" d="M 58.855469 48.320312 L 61.445312 48.320312 L 61.445312 50.890625 L 58.855469 50.890625 Z M 58.855469 48.320312 "/>
<path style=" stroke:none;fill-rule:nonzero;fill:rgb(18.039216%,20.784314%,22.745098%);fill-opacity:1;" d="M 71.066406 40.019531 L 73.367188 40.019531 L 73.367188 41.855469 L 71.066406 41.855469 Z M 71.066406 40.019531 "/>
<path style=" stroke:none;fill-rule:nonzero;fill:rgb(18.039216%,20.784314%,22.745098%);fill-opacity:1;" d="M 29.234375 40.019531 L 31.824219 40.019531 L 31.824219 41.855469 L 29.234375 41.855469 Z M 29.234375 40.019531 "/>
<path style=" stroke:none;fill-rule:nonzero;fill:rgb(18.039216%,20.784314%,22.745098%);fill-opacity:1;" d="M 29.234375 54.347656 L 73.367188 54.347656 L 73.367188 57.019531 L 29.234375 57.019531 Z M 29.234375 54.347656 "/>
<path style=" stroke:none;fill-rule:nonzero;fill:rgb(18.039216%,20.784314%,22.745098%);fill-opacity:1;" d="M 68.976562 42.292969 L 73.367188 42.292969 L 73.367188 44.867188 L 68.976562 44.867188 Z M 68.976562 42.292969 "/>
<path style=" stroke:none;fill-rule:nonzero;fill:rgb(18.039216%,20.784314%,22.745098%);fill-opacity:1;" d="M 70.984375 48.320312 L 73.367188 48.320312 L 73.367188 50.890625 L 70.984375 50.890625 Z M 70.984375 48.320312 "/>
<path style=" stroke:none;fill-rule:nonzero;fill:rgb(18.039216%,20.784314%,22.745098%);fill-opacity:1;" d="M 70.253906 47.859375 L 69.8125 47.859375 L 69.8125 45.308594 L 67.21875 45.308594 L 67.21875 47.859375 L 66.78125 47.859375 L 66.78125 45.308594 L 64.1875 45.308594 L 64.1875 47.859375 L 63.746094 47.859375 L 63.746094 45.308594 L 61.152344 45.308594 L 61.152344 47.859375 L 60.710938 47.859375 L 60.710938 45.308594 L 58.121094 45.308594 L 58.121094 47.859375 L 57.679688 47.859375 L 57.679688 45.308594 L 55.089844 45.308594 L 55.089844 47.859375 L 54.644531 47.859375 L 54.644531 45.308594 L 52.054688 45.308594 L 52.054688 47.859375 L 51.613281 47.859375 L 51.613281 45.308594 L 49.019531 45.308594 L 49.019531 47.859375 L 48.578125 47.859375 L 48.578125 45.308594 L 45.988281 45.308594 L 45.988281 47.859375 L 45.546875 47.859375 L 45.546875 45.308594 L 42.953125 45.308594 L 42.953125 47.859375 L 42.511719 47.859375 L 42.511719 45.308594 L 39.921875 45.308594 L 39.921875 47.859375 L 39.480469 47.859375 L 39.480469 45.308594 L 36.886719 45.308594 L 36.886719 47.859375 L 36.445312 47.859375 L 36.445312 45.308594 L 33.855469 45.308594 L 33.855469 47.859375 L 33.410156 47.859375 L 33.410156 45.308594 L 29.234375 45.308594 L 29.234375 47.878906 L 73.367188 47.878906 L 73.367188 45.308594 L 70.253906 45.308594 Z M 70.253906 47.859375 "/>
<path style=" stroke:none;fill-rule:nonzero;fill:rgb(18.039216%,20.784314%,22.745098%);fill-opacity:1;" d="M 46.71875 48.320312 L 49.3125 48.320312 L 49.3125 50.890625 L 46.71875 50.890625 Z M 46.71875 48.320312 "/>
<path style=" stroke:none;fill-rule:nonzero;fill:rgb(18.039216%,20.784314%,22.745098%);fill-opacity:1;" d="M 55.820312 48.320312 L 58.410156 48.320312 L 58.410156 50.890625 L 55.820312 50.890625 Z M 55.820312 48.320312 "/>
<path style=" stroke:none;fill-rule:nonzero;fill:rgb(18.039216%,20.784314%,22.745098%);fill-opacity:1;" d="M 40.652344 48.320312 L 43.246094 48.320312 L 43.246094 50.890625 L 40.652344 50.890625 Z M 40.652344 48.320312 "/>
<path style=" stroke:none;fill-rule:nonzero;fill:rgb(18.039216%,20.784314%,22.745098%);fill-opacity:1;" d="M 42.21875 51.335938 L 44.8125 51.335938 L 44.8125 53.90625 L 42.21875 53.90625 Z M 42.21875 51.335938 "/>
<path style=" stroke:none;fill-rule:nonzero;fill:rgb(18.039216%,20.784314%,22.745098%);fill-opacity:1;" d="M 43.6875 48.320312 L 46.277344 48.320312 L 46.277344 50.890625 L 43.6875 50.890625 Z M 43.6875 48.320312 "/>
<path style=" stroke:none;fill-rule:nonzero;fill:rgb(18.039216%,20.784314%,22.745098%);fill-opacity:1;" d="M 37.621094 48.320312 L 40.210938 48.320312 L 40.210938 50.890625 L 37.621094 50.890625 Z M 37.621094 48.320312 "/>
<path style=" stroke:none;fill-rule:nonzero;fill:rgb(18.039216%,20.784314%,22.745098%);fill-opacity:1;" d="M 36.152344 51.335938 L 38.746094 51.335938 L 38.746094 53.90625 L 36.152344 53.90625 Z M 36.152344 51.335938 "/>
<path style=" stroke:none;fill-rule:nonzero;fill:rgb(18.039216%,20.784314%,22.745098%);fill-opacity:1;" d="M 39.1875 51.335938 L 41.777344 51.335938 L 41.777344 53.90625 L 39.1875 53.90625 Z M 39.1875 51.335938 "/>
<path style=" stroke:none;fill-rule:nonzero;fill:rgb(18.039216%,20.784314%,22.745098%);fill-opacity:1;" d="M 49.753906 48.320312 L 52.347656 48.320312 L 52.347656 50.890625 L 49.753906 50.890625 Z M 49.753906 48.320312 "/>
<path style=" stroke:none;fill-rule:nonzero;fill:rgb(18.039216%,20.784314%,22.745098%);fill-opacity:1;" d="M 51.320312 51.335938 L 53.910156 51.335938 L 53.910156 53.90625 L 51.320312 53.90625 Z M 51.320312 51.335938 "/>
<path style=" stroke:none;fill-rule:nonzero;fill:rgb(18.039216%,20.784314%,22.745098%);fill-opacity:1;" d="M 52.785156 48.320312 L 55.378906 48.320312 L 55.378906 50.890625 L 52.785156 50.890625 Z M 52.785156 48.320312 "/>
<path style=" stroke:none;fill-rule:nonzero;fill:rgb(18.039216%,20.784314%,22.745098%);fill-opacity:1;" d="M 45.253906 51.335938 L 47.847656 51.335938 L 47.847656 53.90625 L 45.253906 53.90625 Z M 45.253906 51.335938 "/>
<path style=" stroke:none;fill-rule:nonzero;fill:rgb(18.039216%,20.784314%,22.745098%);fill-opacity:1;" d="M 48.285156 51.335938 L 50.878906 51.335938 L 50.878906 53.90625 L 48.285156 53.90625 Z M 48.285156 51.335938 "/>
<path style=" stroke:none;fill-rule:nonzero;fill:rgb(18.039216%,20.784314%,22.745098%);fill-opacity:1;" d="M 34.585938 48.320312 L 37.179688 48.320312 L 37.179688 50.890625 L 34.585938 50.890625 Z M 34.585938 48.320312 "/>
<path style="fill-rule:nonzero;fill:rgb(18.039216%,20.784314%,22.745098%);fill-opacity:1;stroke-width:1;stroke-linecap:round;stroke-linejoin:round;stroke:rgb(18.039216%,20.784314%,22.745098%);stroke-opacity:1;stroke-miterlimit:4;" d="M 392.324219 91.425781 L 114.667969 91.425781 C 111.914062 91.425781 109.316406 92.714844 107.636719 94.902344 C 105.957031 97.089844 105.390625 99.941406 106.09375 102.617188 L 126.40625 178.183594 C 127.441406 182.070312 130.957031 184.765625 134.960938 184.765625 L 163.300781 184.765625 L 163.300781 190 L 345 190 L 345 184.804688 L 371.992188 184.804688 C 376.015625 184.804688 379.53125 182.089844 380.566406 178.222656 L 400.878906 102.636719 C 401.601562 99.980469 401.035156 97.128906 399.355469 94.921875 C 397.695312 92.734375 395.097656 91.445312 392.324219 91.425781 Z M 392.324219 91.425781 " transform="matrix(0.2,0,0,0.2,0,0)"/>
<path style="fill-rule:nonzero;fill:rgb(100%,47.450981%,77.64706%);fill-opacity:1;stroke-width:1;stroke-linecap:round;stroke-linejoin:round;stroke:rgb(18.039216%,20.784314%,22.745098%);stroke-opacity:1;stroke-miterlimit:4;" d="M 360.9375 178.105469 L 146.074219 178.105469 L 124.570312 100.761719 L 382.402344 100.761719 Z M 360.9375 178.105469 " transform="matrix(0.2,0,0,0.2,0,0)"/>
<path style=" stroke:none;fill-rule:nonzero;fill:rgb(18.039216%,20.784314%,22.745098%);fill-opacity:1;" d="M 32.066406 28.832031 L 32.066406 29.03125 L 31.308594 29.03125 L 31.308594 28.832031 Z M 32.066406 28.832031 "/>
<path style=" stroke:none;fill-rule:nonzero;fill:rgb(18.039216%,20.784314%,22.745098%);fill-opacity:1;" d="M 33.011719 28.832031 L 33.011719 29.03125 L 32.25 29.03125 L 32.25 28.832031 Z M 33.011719 28.832031 "/>
<path style=" stroke:none;fill-rule:nonzero;fill:rgb(18.039216%,20.784314%,22.745098%);fill-opacity:1;" d="M 33.953125 28.832031 L 33.953125 29.03125 L 33.199219 29.03125 L 33.199219 28.832031 Z M 33.953125 28.832031 "/>
<path style=" stroke:none;fill-rule:nonzero;fill:rgb(18.039216%,20.784314%,22.745098%);fill-opacity:1;" d="M 34.894531 28.832031 L 34.894531 29.03125 L 34.136719 29.03125 L 34.136719 28.832031 Z M 34.894531 28.832031 "/>
<path style=" stroke:none;fill-rule:nonzero;fill:rgb(18.039216%,20.784314%,22.745098%);fill-opacity:1;" d="M 35.839844 28.832031 L 35.839844 29.03125 L 35.078125 29.03125 L 35.078125 28.832031 Z M 35.839844 28.832031 "/>
<path style=" stroke:none;fill-rule:nonzero;fill:rgb(18.039216%,20.784314%,22.745098%);fill-opacity:1;" d="M 36.785156 28.832031 L 36.785156 29.03125 L 36.023438 29.03125 L 36.023438 28.832031 Z M 36.785156 28.832031 "/>
<path style=" stroke:none;fill-rule:nonzero;fill:rgb(18.039216%,20.784314%,22.745098%);fill-opacity:1;" d="M 37.726562 28.832031 L 37.726562 29.03125 L 36.96875 29.03125 L 36.96875 28.832031 Z M 37.726562 28.832031 "/>
<path style=" stroke:none;fill-rule:nonzero;fill:rgb(18.039216%,20.784314%,22.745098%);fill-opacity:1;" d="M 38.660156 29.886719 L 37.824219 27.65625 L 38.023438 27.65625 L 38.859375 29.886719 Z M 38.660156 29.886719 "/>
<path style=" stroke:none;fill-rule:nonzero;fill:rgb(18.039216%,20.784314%,22.745098%);fill-opacity:1;" d="M 31.300781 25.589844 L 31.300781 25.789062 L 30.542969 25.789062 L 30.542969 25.589844 Z M 31.300781 25.589844 "/>
<path style=" stroke:none;fill-rule:nonzero;fill:rgb(18.039216%,20.784314%,22.745098%);fill-opacity:1;" d="M 32.246094 25.589844 L 32.246094 25.789062 L 31.488281 25.789062 L 31.488281 25.589844 Z M 32.246094 25.589844 "/>
<path style=" stroke:none;fill-rule:nonzero;fill:rgb(18.039216%,20.784314%,22.745098%);fill-opacity:1;" d="M 33.199219 25.589844 L 33.199219 25.789062 L 32.441406 25.789062 L 32.441406 25.589844 Z M 33.199219 25.589844 "/>
<path style=" stroke:none;fill-rule:nonzero;fill:rgb(18.039216%,20.784314%,22.745098%);fill-opacity:1;" d="M 34.132812 25.589844 L 34.132812 25.789062 L 33.375 25.789062 L 33.375 25.589844 Z M 34.132812 25.589844 "/>
<path style=" stroke:none;fill-rule:nonzero;fill:rgb(18.039216%,20.784314%,22.745098%);fill-opacity:1;" d="M 35.074219 25.589844 L 35.074219 25.789062 L 34.316406 25.789062 L 34.316406 25.589844 Z M 35.074219 25.589844 "/>
<path style=" stroke:none;fill-rule:nonzero;fill:rgb(18.039216%,20.784314%,22.745098%);fill-opacity:1;" d="M 36.671875 25.589844 L 36.671875 25.789062 L 35.910156 25.789062 L 35.910156 25.589844 Z M 36.671875 25.589844 "/>
<path style=" stroke:none;fill-rule:nonzero;fill:rgb(18.039216%,20.784314%,22.745098%);fill-opacity:1;" d="M 37.613281 25.589844 L 37.613281 25.789062 L 36.855469 25.789062 L 36.855469 25.589844 Z M 37.613281 25.589844 "/>
<path style=" stroke:none;fill-rule:nonzero;fill:rgb(18.039216%,20.784314%,22.745098%);fill-opacity:1;" d="M 38.558594 25.589844 L 38.558594 25.789062 L 37.800781 25.789062 L 37.800781 25.589844 Z M 38.558594 25.589844 "/>
<path style=" stroke:none;fill-rule:nonzero;fill:rgb(18.039216%,20.784314%,22.745098%);fill-opacity:1;" d="M 39.503906 25.589844 L 39.503906 25.789062 L 38.742188 25.789062 L 38.742188 25.589844 Z M 39.503906 25.589844 "/>
<path style=" stroke:none;fill-rule:nonzero;fill:rgb(18.039216%,20.784314%,22.745098%);fill-opacity:1;" d="M 40.445312 25.589844 L 40.445312 25.789062 L 39.6875 25.789062 L 39.6875 25.589844 Z M 40.445312 25.589844 "/>
<path style=" stroke:none;fill-rule:nonzero;fill:rgb(18.039216%,20.784314%,22.745098%);fill-opacity:1;" d="M 41.386719 25.589844 L 41.386719 25.789062 L 40.628906 25.789062 L 40.628906 25.589844 Z M 41.386719 25.589844 "/>
<path style=" stroke:none;fill-rule:nonzero;fill:rgb(18.039216%,20.784314%,22.745098%);fill-opacity:1;" d="M 42.332031 25.589844 L 42.332031 25.789062 L 41.570312 25.789062 L 41.570312 25.589844 Z M 42.332031 25.589844 "/>
<path style=" stroke:none;fill-rule:nonzero;fill:rgb(18.039216%,20.784314%,22.745098%);fill-opacity:1;" d="M 43.925781 25.589844 L 43.925781 25.789062 L 43.167969 25.789062 L 43.167969 25.589844 Z M 43.925781 25.589844 "/>
<path style=" stroke:none;fill-rule:nonzero;fill:rgb(18.039216%,20.784314%,22.745098%);fill-opacity:1;" d="M 44.871094 25.589844 L 44.871094 25.789062 L 44.109375 25.789062 L 44.109375 25.589844 Z M 44.871094 25.589844 "/>
<path style=" stroke:none;fill-rule:nonzero;fill:rgb(18.039216%,20.784314%,22.745098%);fill-opacity:1;" d="M 45.8125 25.589844 L 45.8125 25.789062 L 45.054688 25.789062 L 45.054688 25.589844 Z M 45.8125 25.589844 "/>
<path style=" stroke:none;fill-rule:nonzero;fill:rgb(18.039216%,20.784314%,22.745098%);fill-opacity:1;" d="M 47.398438 25.589844 L 47.398438 25.789062 L 46.640625 25.789062 L 46.640625 25.589844 Z M 47.398438 25.589844 "/>
<path style=" stroke:none;fill-rule:nonzero;fill:rgb(18.039216%,20.784314%,22.745098%);fill-opacity:1;" d="M 48.351562 25.589844 L 48.351562 25.789062 L 47.601562 25.789062 L 47.601562 25.589844 Z M 48.351562 25.589844 "/>
<path style=" stroke:none;fill-rule:nonzero;fill:rgb(18.039216%,20.784314%,22.745098%);fill-opacity:1;" d="M 49.296875 25.589844 L 49.296875 25.789062 L 48.535156 25.789062 L 48.535156 25.589844 Z M 49.296875 25.589844 "/>
<path style=" stroke:none;fill-rule:nonzero;fill:rgb(18.039216%,20.784314%,22.745098%);fill-opacity:1;" d="M 52.84375 25.589844 L 52.84375 25.789062 L 52.085938 25.789062 L 52.085938 25.589844 Z M 52.84375 25.589844 "/>
<path style=" stroke:none;fill-rule:nonzero;fill:rgb(18.039216%,20.784314%,22.745098%);fill-opacity:1;" d="M 53.789062 25.589844 L 53.789062 25.789062 L 53.027344 25.789062 L 53.027344 25.589844 Z M 53.789062 25.589844 "/>
<path style=" stroke:none;fill-rule:nonzero;fill:rgb(18.039216%,20.784314%,22.745098%);fill-opacity:1;" d="M 54.730469 25.589844 L 54.730469 25.789062 L 53.972656 25.789062 L 53.972656 25.589844 Z M 54.730469 25.589844 "/>
<path style=" stroke:none;fill-rule:nonzero;fill:rgb(18.039216%,20.784314%,22.745098%);fill-opacity:1;" d="M 55.675781 25.589844 L 55.675781 25.789062 L 54.914062 25.789062 L 54.914062 25.589844 Z M 55.675781 25.589844 "/>
<path style=" stroke:none;fill-rule:nonzero;fill:rgb(18.039216%,20.784314%,22.745098%);fill-opacity:1;" d="M 56.617188 25.589844 L 56.617188 25.789062 L 55.859375 25.789062 L 55.859375 25.589844 Z M 56.617188 25.589844 "/>
<path style=" stroke:none;fill-rule:nonzero;fill:rgb(18.039216%,20.784314%,22.745098%);fill-opacity:1;" d="M 58.210938 25.589844 L 58.210938 25.789062 L 57.453125 25.789062 L 57.453125 25.589844 Z M 58.210938 25.589844 "/>
<path style=" stroke:none;fill-rule:nonzero;fill:rgb(18.039216%,20.784314%,22.745098%);fill-opacity:1;" d="M 59.15625 25.589844 L 59.15625 25.789062 L 58.398438 25.789062 L 58.398438 25.589844 Z M 59.15625 25.589844 "/>
<path style=" stroke:none;fill-rule:nonzero;fill:rgb(18.039216%,20.784314%,22.745098%);fill-opacity:1;" d="M 60.101562 25.589844 L 60.101562 25.789062 L 59.339844 25.789062 L 59.339844 25.589844 Z M 60.101562 25.589844 "/>
<path style=" stroke:none;fill-rule:nonzero;fill:rgb(18.039216%,20.784314%,22.745098%);fill-opacity:1;" d="M 61.695312 25.589844 L 61.695312 25.789062 L 60.9375 25.789062 L 60.9375 25.589844 Z M 61.695312 25.589844 "/>
<path style=" stroke:none;fill-rule:nonzero;fill:rgb(18.039216%,20.784314%,22.745098%);fill-opacity:1;" d="M 63.289062 25.589844 L 63.289062 25.789062 L 62.53125 25.789062 L 62.53125 25.589844 Z M 63.289062 25.589844 "/>
<path style="fill-rule:nonzero;fill:rgb(100%,100%,100%);fill-opacity:1;stroke-width:1;stroke-linecap:round;stroke-linejoin:round;stroke:rgb(18.039216%,20.784314%,22.745098%);stroke-opacity:1;stroke-miterlimit:4;" d="M 379.6875 292.285156 L 368.984375 333.574219 L 379.101562 336.542969 Z M 379.6875 292.285156 " transform="matrix(0.2,0,0,0.2,0,0)"/>
<path style="fill-rule:nonzero;fill:rgb(100%,100%,100%);fill-opacity:1;stroke-width:1;stroke-linecap:butt;stroke-linejoin:miter;stroke:rgb(18.039216%,20.784314%,22.745098%);stroke-opacity:1;stroke-miterlimit:10;" d="M 384.492188 248.652344 C 383.28125 246.796875 382.832031 244.550781 383.261719 242.382812 C 383.808594 238.300781 388.710938 237.382812 388.710938 237.382812 C 388.710938 237.382812 389.785156 236.5625 393.710938 238.066406 C 397.65625 239.550781 428.046875 243.671875 447.460938 246.308594 C 466.875 248.925781 473.164062 247.226562 472.890625 253.90625 C 472.636719 260.566406 455.585938 320.429688 455.332031 322.304688 C 455.078125 324.199219 384.492188 248.652344 384.492188 248.652344 Z M 384.492188 248.652344 " transform="matrix(0.2,0,0,0.2,0,0)"/>
<path style="fill-rule:nonzero;fill:rgb(100%,100%,100%);fill-opacity:1;stroke-width:1;stroke-linecap:round;stroke-linejoin:round;stroke:rgb(18.039216%,20.784314%,22.745098%);stroke-opacity:1;stroke-miterlimit:4;" d="M 377.499845 253.741822 L 459.946196 253.740841 L 459.944376 352.014615 L 377.51738 352.012972 Z M 377.499845 253.741822 " transform="matrix(0.198187,0.0268664,-0.0268664,0.198187,8.896,-10.7)"/>
<path style="fill:none;stroke-width:0.5;stroke-linecap:round;stroke-linejoin:round;stroke:rgb(18.039216%,20.784314%,22.745098%);stroke-opacity:1;stroke-miterlimit:4;" d="M 450.996094 279.160156 L 455.742188 279.804688 " transform="matrix(0.2,0,0,0.2,0,0)"/>
<path style="fill:none;stroke-width:0.5;stroke-linecap:round;stroke-linejoin:round;stroke:rgb(18.039216%,20.784314%,22.745098%);stroke-opacity:1;stroke-miterlimit:4;" d="M 421.230469 275.136719 L 447.226562 278.652344 " transform="matrix(0.2,0,0,0.2,0,0)"/>
<path style="fill:none;stroke-width:0.5;stroke-linecap:round;stroke-linejoin:round;stroke:rgb(18.039216%,20.784314%,22.745098%);stroke-opacity:1;stroke-miterlimit:4;" d="M 389.746094 270.859375 L 417.480469 274.628906 " transform="matrix(0.2,0,0,0.2,0,0)"/>
<path style="fill:none;stroke-width:0.5;stroke-linecap:round;stroke-linejoin:round;stroke:rgb(18.039216%,20.784314%,22.745098%);stroke-opacity:1;stroke-miterlimit:4;" d="M 443.554688 286.972656 L 454.570312 288.476562 " transform="matrix(0.2,0,0,0.2,0,0)"/>
<path style="fill:none;stroke-width:0.5;stroke-linecap:round;stroke-linejoin:round;stroke:rgb(18.039216%,20.784314%,22.745098%);stroke-opacity:1;stroke-miterlimit:4;" d="M 388.574219 279.511719 L 432.285156 285.449219 " transform="matrix(0.2,0,0,0.2,0,0)"/>
<path style="fill:none;stroke-width:0.5;stroke-linecap:round;stroke-linejoin:round;stroke:rgb(18.039216%,20.784314%,22.745098%);stroke-opacity:1;stroke-miterlimit:4;" d="M 410.742188 291.347656 L 453.398438 297.128906 " transform="matrix(0.2,0,0,0.2,0,0)"/>
<path style="fill:none;stroke-width:0.5;stroke-linecap:round;stroke-linejoin:round;stroke:rgb(18.039216%,20.784314%,22.745098%);stroke-opacity:1;stroke-miterlimit:4;" d="M 387.382812 288.164062 L 406.367188 290.742188 " transform="matrix(0.2,0,0,0.2,0,0)"/>
<path style="fill:none;stroke-width:0.5;stroke-linecap:round;stroke-linejoin:round;stroke:rgb(18.039216%,20.784314%,22.745098%);stroke-opacity:1;stroke-miterlimit:4;" d="M 424.921875 302.070312 L 452.226562 305.78125 " transform="matrix(0.2,0,0,0.2,0,0)"/>
<path style="fill:none;stroke-width:0.5;stroke-linecap:round;stroke-linejoin:round;stroke:rgb(18.039216%,20.784314%,22.745098%);stroke-opacity:1;stroke-miterlimit:4;" d="M 401.757812 298.925781 L 421.796875 301.640625 " transform="matrix(0.2,0,0,0.2,0,0)"/>
<path style="fill:none;stroke-width:0.5;stroke-linecap:round;stroke-linejoin:round;stroke:rgb(18.039216%,20.784314%,22.745098%);stroke-opacity:1;stroke-miterlimit:4;" d="M 386.210938 296.835938 L 398.300781 298.476562 " transform="matrix(0.2,0,0,0.2,0,0)"/>
<path style="fill:none;stroke-width:0.5;stroke-linecap:round;stroke-linejoin:round;stroke:rgb(18.039216%,20.784314%,22.745098%);stroke-opacity:1;stroke-miterlimit:4;" d="M 441.289062 313.105469 L 451.054688 314.433594 " transform="matrix(0.2,0,0,0.2,0,0)"/>
<path style="fill:none;stroke-width:0.5;stroke-linecap:round;stroke-linejoin:round;stroke:rgb(18.039216%,20.784314%,22.745098%);stroke-opacity:1;stroke-miterlimit:4;" d="M 385.058594 305.488281 L 434.707031 312.226562 " transform="matrix(0.2,0,0,0.2,0,0)"/>
<path style="fill:none;stroke-width:0.5;stroke-linecap:round;stroke-linejoin:round;stroke:rgb(18.039216%,20.784314%,22.745098%);stroke-opacity:1;stroke-miterlimit:4;" d="M 422.265625 319.335938 L 449.882812 323.085938 " transform="matrix(0.2,0,0,0.2,0,0)"/>
<path style="fill:none;stroke-width:0.5;stroke-linecap:round;stroke-linejoin:round;stroke:rgb(18.039216%,20.784314%,22.745098%);stroke-opacity:1;stroke-miterlimit:4;" d="M 383.867188 314.140625 L 417.558594 318.710938 " transform="matrix(0.2,0,0,0.2,0,0)"/>
<path style="fill:none;stroke-width:0.5;stroke-linecap:round;stroke-linejoin:round;stroke:rgb(18.039216%,20.784314%,22.745098%);stroke-opacity:1;stroke-miterlimit:4;" d="M 430.78125 329.316406 L 448.691406 331.738281 " transform="matrix(0.2,0,0,0.2,0,0)"/>
<path style="fill:none;stroke-width:0.5;stroke-linecap:round;stroke-linejoin:round;stroke:rgb(18.039216%,20.784314%,22.745098%);stroke-opacity:1;stroke-miterlimit:4;" d="M 394.472656 324.394531 L 426.40625 328.710938 " transform="matrix(0.2,0,0,0.2,0,0)"/>
<path style="fill:none;stroke-width:0.5;stroke-linecap:round;stroke-linejoin:round;stroke:rgb(18.039216%,20.784314%,22.745098%);stroke-opacity:1;stroke-miterlimit:4;" d="M 382.695312 322.792969 L 390.703125 323.886719 " transform="matrix(0.2,0,0,0.2,0,0)"/>
<path style="fill:none;stroke-width:1;stroke-linecap:round;stroke-linejoin:round;stroke:rgb(18.039216%,20.784314%,22.745098%);stroke-opacity:1;stroke-miterlimit:4;" d="M 466.171875 259.746094 C 466.171875 259.746094 467.578125 246.152344 472.578125 251.621094 " transform="matrix(0.2,0,0,0.2,0,0)"/>
<path style="fill-rule:nonzero;fill:rgb(100%,100%,100%);fill-opacity:1;stroke-width:1;stroke-linecap:round;stroke-linejoin:round;stroke:rgb(18.039216%,20.784314%,22.745098%);stroke-opacity:1;stroke-miterlimit:4;" d="M 438.476562 364.355469 L 438.398438 372.988281 L 433.359375 365.878906 L 413.164062 297.96875 L 418.28125 296.445312 Z M 438.476562 364.355469 " transform="matrix(0.2,0,0,0.2,0,0)"/>
<path style="fill-rule:nonzero;fill:rgb(100%,47.450981%,77.64706%);fill-opacity:1;stroke-width:0.5;stroke-linecap:round;stroke-linejoin:round;stroke:rgb(18.039216%,20.784314%,22.745098%);stroke-opacity:1;stroke-miterlimit:4;" d="M 424.373708 295.740508 L 427.284645 295.735039 L 427.286988 366.597541 L 424.38152 366.584259 Z M 424.373708 295.740508 " transform="matrix(0.192,-0.056,0.056,0.192,-15.342,27.014001)"/>
<path style="fill:none;stroke-width:1;stroke-linecap:round;stroke-linejoin:round;stroke:rgb(18.039216%,20.784314%,22.745098%);stroke-opacity:1;stroke-miterlimit:4;" d="M 438.476562 364.375 L 433.378906 365.898438 L 438.398438 372.988281 Z M 438.476562 364.375 " transform="matrix(0.2,0,0,0.2,0,0)"/>
<path style="fill-rule:nonzero;fill:rgb(18.039216%,20.784314%,22.745098%);fill-opacity:1;stroke-width:1;stroke-linecap:round;stroke-linejoin:round;stroke:rgb(18.039216%,20.784314%,22.745098%);stroke-opacity:1;stroke-miterlimit:4;" d="M 435.878906 369.433594 L 438.398438 372.988281 L 438.4375 368.671875 Z M 435.878906 369.433594 " transform="matrix(0.2,0,0,0.2,0,0)"/>
<path style="fill-rule:nonzero;fill:rgb(100%,100%,100%);fill-opacity:1;stroke-width:1;stroke-linecap:round;stroke-linejoin:round;stroke:rgb(18.039216%,20.784314%,22.745098%);stroke-opacity:1;stroke-miterlimit:4;" d="M 413.476562 289.609375 C 412.050781 290.019531 411.25 291.503906 411.679688 292.929688 L 413.164062 297.96875 L 418.28125 296.445312 L 416.796875 291.40625 C 416.367188 289.980469 414.882812 289.179688 413.476562 289.609375 Z M 413.476562 289.609375 " transform="matrix(0.2,0,0,0.2,0,0)"/>
<path style="fill-rule:nonzero;fill:rgb(18.039216%,20.784314%,22.745098%);fill-opacity:1;stroke-width:1;stroke-linecap:round;stroke-linejoin:round;stroke:rgb(18.039216%,20.784314%,22.745098%);stroke-opacity:1;stroke-miterlimit:4;" d="M 413.476562 289.609375 C 412.050781 290.019531 411.25 291.503906 411.679688 292.929688 L 412.382812 295.332031 L 417.5 293.808594 L 416.796875 291.40625 C 416.367188 289.980469 414.882812 289.179688 413.476562 289.609375 Z M 413.476562 289.609375 " transform="matrix(0.2,0,0,0.2,0,0)"/>
<path style="fill:none;stroke-width:1;stroke-linecap:round;stroke-linejoin:round;stroke:rgb(100%,100%,100%);stroke-opacity:1;stroke-miterlimit:4;" d="M 161.640625 249.492188 C 161.015625 250.390625 160.371094 251.328125 159.746094 252.324219 " transform="matrix(0.2,0,0,0.2,0,0)"/>
<path style="fill:none;stroke-width:1;stroke-linecap:round;stroke-linejoin:round;stroke:rgb(100%,100%,100%);stroke-opacity:1;stroke-miterlimit:4;" d="M 172.109375 237.441406 C 169.316406 240.039062 166.738281 242.832031 164.394531 245.820312 " transform="matrix(0.2,0,0,0.2,0,0)"/>
<path style="fill:none;stroke-width:1;stroke-linecap:round;stroke-linejoin:round;stroke:rgb(100%,100%,100%);stroke-opacity:1;stroke-miterlimit:4;" d="M 160.761719 242.753906 C 158.027344 246.601562 155.546875 250.605469 153.359375 254.765625 " transform="matrix(0.2,0,0,0.2,0,0)"/>
<path style="fill:none;stroke-width:1;stroke-linecap:round;stroke-linejoin:round;stroke:rgb(100%,100%,100%);stroke-opacity:1;stroke-miterlimit:4;" d="M 231.289062 264.746094 C 230.664062 265.644531 230.019531 266.582031 229.394531 267.578125 " transform="matrix(0.2,0,0,0.2,0,0)"/>
<path style="fill:none;stroke-width:1;stroke-linecap:round;stroke-linejoin:round;stroke:rgb(100%,100%,100%);stroke-opacity:1;stroke-miterlimit:4;" d="M 241.757812 252.714844 C 238.964844 255.292969 236.386719 258.085938 234.042969 261.074219 " transform="matrix(0.2,0,0,0.2,0,0)"/>
<path style="fill:none;stroke-width:1;stroke-linecap:round;stroke-linejoin:round;stroke:rgb(100%,100%,100%);stroke-opacity:1;stroke-miterlimit:4;" d="M 230.410156 258.007812 C 227.675781 261.855469 225.195312 265.878906 223.007812 270.058594 " transform="matrix(0.2,0,0,0.2,0,0)"/>
<path style="fill:none;stroke-width:1;stroke-linecap:round;stroke-linejoin:round;stroke:rgb(100%,100%,100%);stroke-opacity:1;stroke-miterlimit:4;" d="M 331.113281 240 C 330.195312 239.375 329.238281 238.769531 328.242188 238.144531 " transform="matrix(0.2,0,0,0.2,0,0)"/>
<path style="fill:none;stroke-width:1;stroke-linecap:round;stroke-linejoin:round;stroke:rgb(100%,100%,100%);stroke-opacity:1;stroke-miterlimit:4;" d="M 343.300781 250.273438 C 340.683594 247.539062 337.832031 245.019531 334.824219 242.714844 " transform="matrix(0.2,0,0,0.2,0,0)"/>
<path style="fill:none;stroke-width:1;stroke-linecap:round;stroke-linejoin:round;stroke:rgb(100%,100%,100%);stroke-opacity:1;stroke-miterlimit:4;" d="M 337.832031 239.003906 C 333.945312 236.328125 329.882812 233.90625 325.664062 231.777344 " transform="matrix(0.2,0,0,0.2,0,0)"/>
<path style="fill:none;stroke-width:1;stroke-linecap:round;stroke-linejoin:round;stroke:rgb(18.039216%,20.784314%,22.745098%);stroke-opacity:1;stroke-miterlimit:4;" d="M 228.242188 301.992188 C 227.734375 305.761719 226.953125 310.996094 226.171875 314.101562 " transform="matrix(0.2,0,0,0.2,0,0)"/>
<path style="fill:none;stroke-width:1;stroke-linecap:round;stroke-linejoin:round;stroke:rgb(18.039216%,20.784314%,22.745098%);stroke-opacity:1;stroke-miterlimit:4;" d="M 228.828125 297.421875 C 228.828125 297.421875 228.75 298.144531 228.59375 299.296875 " transform="matrix(0.2,0,0,0.2,0,0)"/>
<path style="fill:none;stroke-width:1;stroke-linecap:round;stroke-linejoin:round;stroke:rgb(18.039216%,20.784314%,22.745098%);stroke-opacity:1;stroke-miterlimit:4;" d="M 231.503906 308.105469 C 230.410156 311.738281 229.0625 315.3125 227.5 318.769531 " transform="matrix(0.2,0,0,0.2,0,0)"/>
<path style="fill:none;stroke-width:1;stroke-linecap:round;stroke-linejoin:round;stroke:rgb(18.039216%,20.784314%,22.745098%);stroke-opacity:1;stroke-miterlimit:4;" d="M 281.503906 313.4375 C 281.503906 313.4375 282.167969 322.109375 286.835938 326.777344 " transform="matrix(0.2,0,0,0.2,0,0)"/>
<path style="fill:none;stroke-width:1;stroke-linecap:round;stroke-linejoin:round;stroke:rgb(18.039216%,20.784314%,22.745098%);stroke-opacity:1;stroke-miterlimit:4;" d="M 280.820312 322.109375 C 280.820312 322.109375 282.832031 328.105469 286.835938 330.761719 " transform="matrix(0.2,0,0,0.2,0,0)"/>
<path style=" stroke:none;fill-rule:nonzero;fill:rgb(100%,47.450981%,77.64706%);fill-opacity:1;" d="M 29 73.6875 C 29 73.6875 29.886719 72.972656 29.886719 66.835938 C 29.886719 60.699219 30.910156 56.214844 32.171875 54.246094 C 33.429688 52.28125 34.609375 51.492188 35.160156 51.492188 C 35.710938 51.492188 35.316406 52.203125 34.53125 53.222656 C 33.742188 54.246094 33.035156 54.796875 32.71875 56.058594 C 32.402344 57.316406 32.40625 58.890625 32.800781 58.730469 C 33.195312 58.574219 33.820312 55.429688 34.371094 54.246094 C 34.921875 53.066406 36.261719 51.570312 37.046875 50.863281 C 37.835938 50.15625 39.566406 48.03125 40.351562 48.582031 C 41.136719 49.132812 40.667969 49.921875 40.195312 50.234375 C 39.722656 50.546875 37.835938 52.433594 36.96875 53.617188 C 36.105469 54.800781 35.554688 57.789062 36.027344 57.867188 C 36.496094 57.945312 37.914062 53.539062 38.699219 52.597656 C 39.484375 51.652344 42.632812 49.054688 43.34375 48.976562 C 44.050781 48.898438 44.128906 49.996094 43.5 50.550781 C 42.871094 51.101562 40.746094 53.460938 40.039062 54.875 C 39.328125 56.292969 39.015625 58.890625 39.636719 58.261719 C 40.261719 57.628906 41.289062 55.035156 42.15625 54.167969 C 43.023438 53.300781 45.617188 50.550781 46.246094 50.863281 C 46.878906 51.179688 46.71875 51.964844 46.171875 52.515625 C 45.621094 53.066406 43.492188 56.058594 42.945312 57.628906 C 42.394531 59.203125 41.761719 63.609375 42.078125 62.980469 C 42.394531 62.355469 43.414062 59.125 43.964844 57.78125 C 44.515625 56.4375 45.617188 55.816406 45.777344 56.445312 C 45.933594 57.070312 45.617188 57.386719 45.222656 58.804688 C 44.828125 60.222656 44.824219 64.007812 43.652344 66.121094 C 42.480469 68.238281 37.777344 72.765625 37.148438 74.339844 C 36.691406 75.421875 36.148438 76.464844 35.523438 77.457031 "/>
<path style=" stroke:none;fill-rule:nonzero;fill:rgb(100%,47.450981%,77.64706%);fill-opacity:1;" d="M 72.710938 74.21875 C 72.710938 74.21875 71.800781 72.972656 71.800781 66.835938 C 71.800781 60.699219 70.777344 56.214844 69.519531 54.246094 C 68.261719 52.28125 67.078125 51.492188 66.527344 51.492188 C 65.976562 51.492188 66.371094 52.203125 67.15625 53.222656 C 67.945312 54.246094 68.652344 54.796875 68.957031 56.058594 C 69.265625 57.316406 69.273438 58.890625 68.878906 58.730469 C 68.484375 58.574219 67.859375 55.429688 67.304688 54.246094 C 66.753906 53.066406 65.417969 51.570312 64.632812 50.863281 C 63.847656 50.15625 62.113281 48.03125 61.324219 48.582031 C 60.539062 49.132812 61.011719 49.921875 61.484375 50.234375 C 61.957031 50.546875 63.84375 52.433594 64.710938 53.617188 C 65.574219 54.800781 66.125 57.789062 65.652344 57.867188 C 65.183594 57.945312 63.773438 53.539062 62.984375 52.601562 C 62.199219 51.660156 59.050781 49.058594 58.34375 48.980469 C 57.632812 48.902344 57.554688 50.003906 58.1875 50.554688 C 58.816406 51.105469 60.941406 53.464844 61.648438 54.878906 C 62.355469 56.296875 62.671875 58.894531 62.046875 58.265625 C 61.425781 57.632812 60.394531 55.039062 59.53125 54.171875 C 58.667969 53.304688 56.070312 50.554688 55.441406 50.867188 C 54.808594 51.183594 54.96875 51.96875 55.519531 52.519531 C 56.066406 53.070312 58.195312 56.0625 58.742188 57.632812 C 59.292969 59.207031 59.925781 63.613281 59.609375 62.984375 C 59.296875 62.359375 58.273438 59.128906 57.722656 57.785156 C 57.171875 56.441406 56.070312 55.820312 55.910156 56.449219 C 55.753906 57.074219 56.070312 57.390625 56.460938 58.808594 C 56.855469 60.226562 56.863281 64.011719 58.035156 66.125 C 59.210938 68.242188 63.78125 72.371094 64.410156 73.945312 C 65.039062 75.519531 66.179688 78 66.179688 78 "/>
<path style="fill-rule:nonzero;fill:rgb(100%,100%,100%);fill-opacity:1;stroke-width:1;stroke-linecap:round;stroke-linejoin:round;stroke:rgb(18.039216%,20.784314%,22.745098%);stroke-opacity:1;stroke-miterlimit:4;" d="M 143.496094 375.996094 C 143.496094 375.996094 149.394531 356.738281 149.394531 325.996094 C 149.394531 295.273438 154.511719 272.890625 160.800781 263.066406 C 167.109375 253.222656 173.007812 249.296875 175.761719 249.296875 C 178.515625 249.296875 176.542969 252.832031 172.617188 257.949219 C 168.671875 263.046875 165.136719 265.800781 163.554688 272.109375 C 161.972656 278.398438 161.992188 286.269531 163.964844 285.488281 C 165.9375 284.6875 169.0625 268.964844 171.816406 263.066406 C 174.570312 257.167969 181.269531 249.6875 185.195312 246.132812 C 189.121094 242.597656 197.792969 231.972656 201.71875 234.726562 C 205.644531 237.480469 203.300781 241.425781 200.9375 242.988281 C 198.574219 244.550781 189.121094 253.984375 184.804688 259.902344 C 180.488281 265.820312 177.734375 280.761719 180.097656 281.152344 C 182.441406 281.542969 189.53125 259.511719 193.457031 254.785156 C 197.382812 250.058594 213.125 237.089844 216.679688 236.699219 C 220.214844 236.308594 220.605469 241.816406 217.460938 244.570312 C 214.316406 247.324219 203.691406 259.121094 200.15625 266.191406 C 196.601562 273.28125 195.039062 286.269531 198.144531 283.125 C 201.269531 279.960938 206.40625 266.992188 210.742188 262.65625 C 215.078125 258.320312 228.046875 244.570312 231.191406 246.132812 C 234.355469 247.714844 233.554688 251.640625 230.800781 254.394531 C 228.066406 257.148438 217.421875 272.109375 214.6875 279.960938 C 211.933594 287.832031 208.769531 309.863281 210.351562 306.71875 C 211.933594 303.574219 217.03125 287.441406 219.785156 280.722656 C 222.539062 273.984375 228.046875 270.878906 228.847656 274.023438 C 229.628906 277.1875 228.046875 278.75 226.074219 285.820312 C 224.101562 292.910156 224.082031 311.835938 218.222656 322.421875 C 212.363281 333.007812 189.492188 361.757812 186.347656 369.628906 C 183.203125 377.5 176.113281 394.804688 176.113281 394.804688 " transform="matrix(0.2,0,0,0.2,0,0)"/>
<path style="fill-rule:nonzero;fill:rgb(100%,100%,100%);fill-opacity:1;stroke-width:1;stroke-linecap:round;stroke-linejoin:round;stroke:rgb(18.039216%,20.784314%,22.745098%);stroke-opacity:1;stroke-miterlimit:4;" d="M 364.882812 375.996094 C 364.882812 375.996094 358.984375 356.738281 358.984375 325.996094 C 358.984375 295.273438 353.867188 272.890625 347.578125 263.066406 C 341.289062 253.222656 335.371094 249.296875 332.636719 249.296875 C 329.882812 249.296875 331.835938 252.832031 335.78125 257.949219 C 339.726562 263.046875 343.242188 265.800781 344.785156 272.109375 C 346.308594 278.398438 346.367188 286.269531 344.394531 285.488281 C 342.421875 284.6875 339.277344 268.964844 336.523438 263.066406 C 333.769531 257.167969 327.070312 249.6875 323.144531 246.132812 C 319.21875 242.597656 310.566406 231.972656 306.621094 234.726562 C 302.675781 237.480469 305.058594 241.425781 307.402344 242.988281 C 309.765625 244.550781 319.21875 253.984375 323.535156 259.902344 C 327.871094 265.820312 330.625 280.761719 328.261719 281.152344 C 325.898438 281.542969 318.828125 259.511719 314.882812 254.785156 C 310.957031 250.058594 295.214844 237.089844 291.679688 236.699219 C 288.125 236.308594 287.734375 241.816406 290.898438 244.570312 C 294.042969 247.324219 304.667969 259.121094 308.203125 266.191406 C 311.738281 273.28125 313.300781 286.269531 310.195312 283.125 C 307.089844 279.960938 301.933594 266.992188 297.617188 262.65625 C 293.300781 258.320312 280.3125 244.570312 277.167969 246.132812 C 274.003906 247.714844 274.804688 251.640625 277.558594 254.394531 C 280.292969 257.148438 290.9375 272.109375 293.671875 279.960938 C 296.425781 287.832031 299.570312 309.863281 298.007812 306.71875 C 296.445312 303.574219 291.328125 287.441406 288.574219 280.722656 C 285.820312 273.984375 280.3125 270.878906 279.511719 274.023438 C 278.730469 277.1875 280.3125 278.75 282.265625 285.820312 C 284.238281 292.910156 284.277344 311.835938 290.136719 322.421875 C 296.015625 333.007812 318.867188 361.757812 322.011719 369.628906 C 325.15625 377.5 332.246094 394.804688 332.246094 394.804688 " transform="matrix(0.2,0,0,0.2,0,0)"/>
<path style="fill-rule:nonzero;fill:rgb(18.039216%,20.784314%,22.745098%);fill-opacity:1;stroke-width:1;stroke-linecap:round;stroke-linejoin:round;stroke:rgb(18.039216%,20.784314%,22.745098%);stroke-opacity:1;stroke-miterlimit:4;" d="M 118.59375 435.996094 L 178.59375 435.996094 C 179.375 433.007812 180.351562 429.648438 181.601562 425.996094 C 186.328125 411.855469 201.601562 394.179688 201.601562 394.179688 C 190.644531 384.53125 177.773438 377.324219 163.847656 373.007812 C 140.839844 365.917969 124.003906 368.007812 124.003906 368.007812 C 127.109375 380.78125 127.441406 394.082031 125 406.992188 C 121.992188 421.5625 120 430.761719 118.59375 435.996094 Z M 118.59375 435.996094 " transform="matrix(0.2,0,0,0.2,0,0)"/>
<path style="fill-rule:nonzero;fill:rgb(18.039216%,20.784314%,22.745098%);fill-opacity:1;stroke-width:1;stroke-linecap:round;stroke-linejoin:round;stroke:rgb(18.039216%,20.784314%,22.745098%);stroke-opacity:1;stroke-miterlimit:4;" d="M 329.394531 435.996094 L 391.738281 435.996094 C 389.746094 430.820312 385.429688 419.570312 381.09375 408.320312 C 375.195312 393.007812 377.558594 372.382812 375.195312 372.382812 C 372.832031 372.382812 346.328125 370.605469 333.378906 374.726562 C 320.410156 378.847656 305.664062 390.644531 305.664062 390.644531 C 312.34375 398.398438 318.085938 406.914062 322.753906 415.996094 C 325.761719 422.382812 328.007812 429.082031 329.394531 435.996094 Z M 329.394531 435.996094 " transform="matrix(0.2,0,0,0.2,0,0)"/>
<path style=" stroke:none;fill-rule:nonzero;fill:rgb(100%,100%,100%);fill-opacity:1;" d="M 31.214844 76.039062 C 31.128906 75.699219 29.851562 76.210938 29.851562 76.210938 C 29.851562 76.210938 30.277344 74.59375 29.597656 74.59375 C 28.914062 74.59375 28.828125 75.792969 28.828125 75.792969 C 28.828125 75.792969 27.546875 75.28125 27.546875 76.046875 C 27.546875 76.8125 28.398438 76.800781 28.398438 76.800781 C 28.398438 76.800781 27.375 78.078125 28.144531 78.335938 C 28.910156 78.589844 29.421875 77.652344 29.421875 77.652344 C 29.421875 77.652344 29.933594 78.507812 30.621094 78.164062 C 31.308594 77.820312 30.792969 77.054688 30.792969 77.054688 C 30.792969 77.054688 31.300781 76.382812 31.214844 76.039062 Z M 29.511719 77.320312 C 29.332031 77.28125 29.214844 77.109375 29.238281 76.925781 C 29.265625 76.746094 29.429688 76.617188 29.609375 76.628906 C 29.792969 76.640625 29.9375 76.792969 29.9375 76.976562 C 29.90625 77.1875 29.71875 77.335938 29.511719 77.320312 Z M 33.09375 85.601562 C 33.007812 85.261719 31.726562 85.773438 31.726562 85.773438 C 31.726562 85.773438 32.152344 84.152344 31.46875 84.152344 C 30.785156 84.152344 30.703125 85.351562 30.703125 85.351562 C 30.703125 85.351562 29.425781 84.839844 29.425781 85.605469 C 29.425781 86.371094 30.277344 86.375 30.277344 86.375 C 30.277344 86.375 29.253906 87.652344 30.023438 87.910156 C 30.789062 88.164062 31.300781 87.226562 31.300781 87.226562 C 31.300781 87.226562 31.8125 88.078125 32.5 87.738281 C 33.1875 87.394531 32.671875 86.628906 32.671875 86.628906 C 32.671875 86.628906 33.175781 85.933594 33.09375 85.601562 Z M 31.386719 86.878906 C 31.207031 86.839844 31.089844 86.667969 31.117188 86.488281 C 31.140625 86.304688 31.304688 86.175781 31.488281 86.1875 C 31.671875 86.203125 31.8125 86.355469 31.8125 86.539062 C 31.78125 86.746094 31.59375 86.890625 31.386719 86.871094 Z M 25.585938 86.878906 C 25.5 86.539062 24.222656 87.050781 24.222656 87.050781 C 24.222656 87.050781 24.648438 85.429688 23.964844 85.429688 C 23.285156 85.429688 23.199219 86.628906 23.199219 86.628906 C 23.199219 86.628906 21.917969 86.117188 21.917969 86.886719 C 21.917969 87.652344 22.773438 87.652344 22.773438 87.652344 C 22.773438 87.652344 21.746094 88.933594 22.515625 89.1875 C 23.285156 89.445312 23.792969 88.507812 23.792969 88.507812 C 23.792969 88.507812 24.304688 89.359375 24.992188 89.019531 C 25.683594 88.679688 25.164062 87.910156 25.164062 87.910156 C 25.164062 87.910156 25.671875 87.210938 25.589844 86.871094 Z M 23.878906 88.15625 C 23.699219 88.117188 23.582031 87.945312 23.609375 87.765625 C 23.636719 87.582031 23.800781 87.453125 23.984375 87.46875 C 24.164062 87.480469 24.308594 87.632812 24.304688 87.816406 C 24.273438 88.023438 24.089844 88.167969 23.882812 88.148438 Z M 34.878906 80.226562 L 35.816406 80.226562 C 36.5 80.226562 36.925781 80.996094 36.925781 80.996094 C 35.476562 81.410156 34.882812 80.21875 34.882812 80.21875 Z M 33.941406 86.878906 L 34.878906 86.878906 C 35.5625 86.878906 35.988281 87.648438 35.988281 87.648438 C 34.539062 88.0625 33.945312 86.871094 33.945312 86.871094 Z M 25.757812 85.601562 L 26.695312 85.601562 C 27.378906 85.601562 27.804688 86.367188 27.804688 86.367188 C 26.355469 86.785156 25.757812 85.601562 25.757812 85.601562 Z M 30.292969 79.582031 L 30.839844 80.34375 C 31.238281 80.898438 30.863281 81.691406 30.863281 81.691406 C 29.671875 80.753906 30.292969 79.570312 30.292969 79.570312 Z M 25.601562 82.128906 L 26.027344 81.296875 C 26.34375 80.695312 27.21875 80.660156 27.21875 80.660156 C 26.925781 82.144531 25.601562 82.128906 25.601562 82.128906 Z M 25.601562 82.128906 "/>
<path style=" stroke:none;fill-rule:nonzero;fill:rgb(100%,100%,100%);fill-opacity:1;" d="M 71.378906 77.660156 C 71.292969 77.320312 70.011719 77.832031 70.011719 77.832031 C 70.011719 77.832031 70.441406 76.210938 69.757812 76.210938 C 69.074219 76.210938 68.988281 77.410156 68.988281 77.410156 C 68.988281 77.410156 67.710938 76.902344 67.710938 77.667969 C 67.710938 78.433594 68.5625 78.4375 68.5625 78.4375 C 68.5625 78.4375 67.539062 79.714844 68.308594 79.972656 C 69.074219 80.226562 69.585938 79.289062 69.585938 79.289062 C 69.585938 79.289062 70.097656 80.140625 70.785156 79.800781 C 71.472656 79.457031 70.957031 78.691406 70.957031 78.691406 C 70.957031 78.691406 71.460938 78 71.378906 77.660156 Z M 69.671875 78.941406 C 69.492188 78.898438 69.375 78.730469 69.402344 78.546875 C 69.429688 78.367188 69.589844 78.234375 69.773438 78.25 C 69.957031 78.261719 70.097656 78.414062 70.097656 78.597656 C 70.074219 78.808594 69.882812 78.960938 69.671875 78.941406 Z M 75.382812 84.3125 C 75.300781 83.96875 74.019531 84.480469 74.019531 84.480469 C 74.019531 84.480469 74.445312 82.863281 73.765625 82.863281 C 73.082031 82.863281 72.996094 84.0625 72.996094 84.0625 C 72.996094 84.0625 71.71875 83.550781 71.71875 84.316406 C 71.71875 85.085938 72.570312 85.085938 72.570312 85.085938 C 72.570312 85.085938 71.546875 86.363281 72.316406 86.621094 C 73.085938 86.875 73.59375 85.9375 73.59375 85.9375 C 73.59375 85.9375 74.105469 86.789062 74.792969 86.449219 C 75.480469 86.109375 74.964844 85.34375 74.964844 85.34375 C 74.964844 85.34375 75.46875 84.652344 75.382812 84.3125 Z M 73.679688 85.601562 C 73.5 85.558594 73.382812 85.386719 73.410156 85.207031 C 73.4375 85.023438 73.597656 84.894531 73.78125 84.910156 C 73.964844 84.921875 74.105469 85.078125 74.105469 85.261719 C 74.078125 85.46875 73.890625 85.621094 73.679688 85.601562 Z M 71.121094 86.878906 C 71.035156 86.539062 69.757812 87.050781 69.757812 87.050781 C 69.757812 87.050781 70.183594 85.429688 69.503906 85.429688 C 68.820312 85.429688 68.734375 86.628906 68.734375 86.628906 C 68.734375 86.628906 67.453125 86.117188 67.453125 86.886719 C 67.453125 87.652344 68.308594 87.652344 68.308594 87.652344 C 68.308594 87.652344 67.285156 88.933594 68.050781 89.1875 C 68.820312 89.445312 69.328125 88.507812 69.328125 88.507812 C 69.328125 88.507812 69.84375 89.359375 70.53125 89.019531 C 71.21875 88.679688 70.703125 87.910156 70.703125 87.910156 C 70.703125 87.910156 71.199219 87.210938 71.121094 86.871094 Z M 69.414062 88.15625 C 69.238281 88.117188 69.117188 87.945312 69.144531 87.765625 C 69.171875 87.582031 69.335938 87.453125 69.519531 87.46875 C 69.703125 87.480469 69.84375 87.632812 69.84375 87.816406 C 69.8125 88.023438 69.625 88.167969 69.414062 88.148438 Z M 75.042969 81.847656 L 75.980469 81.847656 C 76.664062 81.847656 77.089844 82.617188 77.089844 82.617188 C 75.640625 83.03125 75.042969 81.839844 75.042969 81.839844 Z M 64.980469 86.699219 L 65.921875 86.699219 C 66.601562 86.699219 67.027344 87.464844 67.027344 87.464844 C 65.578125 87.894531 64.980469 86.699219 64.980469 86.699219 Z M 70.453125 81.199219 L 71.003906 81.960938 C 71.402344 82.519531 71.023438 83.308594 71.023438 83.308594 C 69.832031 82.375 70.453125 81.199219 70.453125 81.199219 Z M 76 85.96875 L 76.546875 86.730469 C 76.945312 87.285156 76.566406 88.078125 76.566406 88.078125 C 75.375 87.148438 76 85.96875 76 85.96875 Z M 65.753906 83.75 L 66.183594 82.914062 C 66.496094 82.316406 67.382812 82.28125 67.382812 82.28125 C 67.085938 83.765625 65.753906 83.75 65.753906 83.75 Z M 65.753906 83.75 "/>
</g>
</svg>
