<?xml version="1.0" encoding="UTF-8"?>
<svg xmlns="http://www.w3.org/2000/svg" xmlns:xlink="http://www.w3.org/1999/xlink" width="100px" height="100px" viewBox="0 0 100 100" version="1.1">
<g id="surface1">
<path style=" stroke:none;fill-rule:nonzero;fill:rgb(0%,84.705883%,100%);fill-opacity:1;" d="M 82.058594 32.378906 C 80.996094 31.96875 79.925781 31.589844 78.847656 31.238281 C 79.027344 30.40625 79.195312 29.582031 79.34375 28.773438 C 81.777344 15.492188 80.1875 4.792969 74.753906 1.269531 C 69.546875 -2.105469 61.035156 1.414062 52.433594 9.835938 C 51.585938 10.667969 50.757812 11.523438 49.949219 12.398438 C 49.40625 11.816406 48.855469 11.242188 48.296875 10.683594 C 39.28125 1.679688 30.25 -2.113281 24.824219 1.417969 C 19.621094 4.804688 18.082031 14.863281 20.269531 27.449219 C 20.488281 28.699219 20.734375 29.9375 21.007812 31.171875 C 19.730469 31.578125 18.496094 32.015625 17.316406 32.476562 C 6.75 36.621094 0 43.117188 0 49.855469 C 0 56.8125 7.246094 63.792969 18.25 68.023438 C 19.144531 68.367188 20.042969 68.683594 20.949219 68.972656 C 20.65625 70.300781 20.394531 71.636719 20.164062 72.980469 C 18.078125 85.351562 19.707031 95.171875 24.894531 98.535156 C 30.253906 102.011719 39.246094 98.441406 48.003906 89.828125 C 48.714844 89.128906 49.410156 88.410156 50.085938 87.667969 C 50.964844 88.621094 51.863281 89.542969 52.785156 90.4375 C 61.265625 98.648438 69.644531 101.964844 74.828125 98.589844 C 80.179688 95.105469 81.921875 84.554688 79.660156 71.71875 C 79.484375 70.710938 79.285156 69.710938 79.0625 68.71875 C 79.695312 68.507812 80.316406 68.289062 80.917969 68.066406 C 92.359375 63.800781 99.804688 56.90625 99.804688 49.855469 C 99.804688 43.09375 92.839844 36.554688 82.058594 32.378906 Z M 79.578125 63.511719 C 79.03125 63.714844 78.472656 63.910156 77.902344 64.101562 C 76.640625 59.601562 74.933594 54.820312 72.847656 49.878906 C 74.839844 45.054688 76.476562 40.332031 77.707031 35.863281 C 78.726562 36.195312 79.71875 36.542969 80.671875 36.914062 C 89.910156 40.492188 95.542969 45.78125 95.542969 49.855469 C 95.542969 54.195312 89.457031 59.828125 79.578125 63.511719 Z M 75.480469 72.648438 C 76.476562 78.324219 76.621094 83.457031 75.957031 87.46875 C 75.363281 91.074219 74.167969 93.476562 72.691406 94.441406 C 69.546875 96.488281 62.820312 93.824219 55.566406 86.800781 C 54.707031 85.972656 53.871094 85.113281 53.054688 84.226562 C 55.867188 80.769531 58.679688 76.746094 61.421875 72.277344 C 66.246094 71.796875 70.804688 71.007812 74.9375 69.933594 C 75.136719 70.835938 75.316406 71.738281 75.480469 72.648438 Z M 34.027344 94.085938 C 30.953125 95.304688 28.503906 95.339844 27.027344 94.382812 C 23.878906 92.339844 22.570312 84.453125 24.355469 73.875 C 24.566406 72.625 24.808594 71.382812 25.082031 70.148438 C 29.171875 71.167969 33.695312 71.898438 38.53125 72.339844 C 41.292969 76.710938 44.1875 80.726562 47.101562 84.246094 C 46.480469 84.921875 45.847656 85.578125 45.199219 86.21875 C 41.324219 90.023438 37.445312 92.726562 34.027344 94.085938 Z M 19.628906 63.484375 C 14.761719 61.613281 10.742188 59.183594 7.988281 56.527344 C 5.515625 54.144531 4.265625 51.777344 4.265625 49.855469 C 4.265625 45.765625 9.683594 40.550781 18.71875 37.007812 C 19.816406 36.578125 20.964844 36.171875 22.152344 35.789062 C 23.402344 40.359375 25.042969 45.140625 27.019531 49.972656 C 25.015625 54.875 23.355469 59.730469 22.09375 64.351562 C 21.265625 64.085938 20.445312 63.796875 19.628906 63.484375 Z M 24.457031 26.53125 C 22.578125 15.746094 23.824219 7.609375 26.960938 5.570312 C 30.300781 3.394531 37.683594 6.496094 45.464844 14.269531 C 45.972656 14.777344 46.472656 15.296875 46.960938 15.824219 C 44.0625 19.328125 41.195312 23.316406 38.460938 27.660156 C 33.765625 28.148438 29.273438 28.9375 25.140625 29.988281 C 24.886719 28.84375 24.660156 27.6875 24.457031 26.53125 Z M 67.507812 38.488281 C 66.53125 36.59375 65.519531 34.722656 64.472656 32.875 C 67.65625 33.328125 70.707031 33.929688 73.574219 34.664062 C 72.710938 37.765625 71.640625 41.007812 70.378906 44.332031 C 69.457031 42.363281 68.5 40.414062 67.507812 38.488281 Z M 49.949219 19.25 C 51.917969 21.648438 53.886719 24.324219 55.824219 27.226562 C 51.894531 27.019531 47.957031 27.019531 44.027344 27.226562 C 45.96875 24.347656 47.953125 21.675781 49.949219 19.25 Z M 32.28125 38.523438 C 31.300781 40.433594 30.363281 42.367188 29.464844 44.328125 C 28.222656 41.015625 27.160156 37.757812 26.292969 34.613281 C 29.140625 33.894531 32.175781 33.308594 35.339844 32.863281 C 34.28125 34.722656 33.261719 36.609375 32.28125 38.523438 Z M 35.433594 67.183594 C 32.164062 66.773438 29.082031 66.21875 26.234375 65.523438 C 27.117188 62.320312 28.199219 58.992188 29.46875 55.609375 C 30.371094 57.570312 31.316406 59.507812 32.296875 61.417969 C 33.308594 63.382812 34.355469 65.308594 35.433594 67.183594 Z M 50.070312 80.792969 C 48.046875 78.34375 46.03125 75.628906 44.0625 72.710938 C 45.972656 72.792969 47.921875 72.835938 49.902344 72.835938 C 51.9375 72.835938 53.949219 72.785156 55.925781 72.6875 C 53.984375 75.65625 52.023438 78.375 50.070312 80.792969 Z M 70.417969 55.4375 C 71.753906 58.859375 72.878906 62.167969 73.769531 65.3125 C 70.875 66.054688 67.75 66.65625 64.460938 67.097656 C 65.515625 65.21875 66.535156 63.3125 67.523438 61.386719 C 68.527344 59.425781 69.492188 57.445312 70.417969 55.4375 Z M 63.832031 58.988281 C 62.320312 61.945312 60.722656 64.84375 59.042969 67.679688 C 56 67.921875 52.953125 68.042969 49.902344 68.042969 C 46.796875 68.042969 43.777344 67.933594 40.867188 67.71875 C 39.144531 64.890625 37.515625 61.984375 35.988281 59.015625 C 34.46875 56.0625 33.046875 53.042969 31.730469 49.96875 C 33.042969 46.894531 34.460938 43.875 35.976562 40.917969 C 37.492188 37.960938 39.105469 35.070312 40.816406 32.25 C 43.78125 32 46.828125 31.867188 49.902344 31.867188 C 52.992188 31.867188 56.039062 32 59.007812 32.253906 C 60.699219 35.070312 62.304688 37.949219 63.816406 40.890625 C 65.335938 43.839844 66.773438 46.847656 68.121094 49.902344 C 66.785156 52.988281 65.355469 56.019531 63.832031 58.988281 Z M 72.625 5.425781 C 75.96875 7.59375 77.269531 16.339844 75.167969 27.804688 C 75.035156 28.539062 74.882812 29.28125 74.71875 30.039062 C 70.578125 28.964844 66.082031 28.164062 61.375 27.667969 C 58.632812 23.273438 55.789062 19.277344 52.9375 15.820312 C 53.683594 15.011719 54.449219 14.21875 55.234375 13.453125 C 62.601562 6.238281 69.488281 3.390625 72.625 5.425781 Z M 49.902344 39.828125 C 54.824219 39.828125 58.816406 44.316406 58.816406 49.855469 C 58.816406 55.390625 54.824219 59.878906 49.902344 59.878906 C 44.980469 59.878906 40.992188 55.390625 40.992188 49.855469 C 40.992188 44.316406 44.980469 39.828125 49.902344 39.828125 Z M 49.902344 39.828125 "/>
</g>
</svg>
