<?xml version="1.0" encoding="UTF-8"?>
<svg xmlns="http://www.w3.org/2000/svg" xmlns:xlink="http://www.w3.org/1999/xlink" width="100px" height="100px" viewBox="0 0 100 100" version="1.1">
<defs>
<filter id="alpha" filterUnits="objectBoundingBox" x="0%" y="0%" width="100%" height="100%">
  <feColorMatrix type="matrix" in="SourceGraphic" values="0 0 0 0 1 0 0 0 0 1 0 0 0 0 1 0 0 0 1 0"/>
</filter>
<mask id="mask0">
  <g filter="url(#alpha)">
<rect x="0" y="0" width="100" height="100" style="fill:rgb(0%,0%,0%);fill-opacity:0.698039;stroke:none;"/>
  </g>
</mask>
<clipPath id="clip1">
  <rect x="0" y="0" width="100" height="100"/>
</clipPath>
<g id="surface5" clip-path="url(#clip1)">
<path style=" stroke:none;fill-rule:nonzero;fill:rgb(100%,100%,100%);fill-opacity:1;" d="M 35.070312 87.785156 C 35.070312 87.785156 50.230469 93.1875 64.9375 84.554688 C 79.640625 75.921875 86.898438 58.828125 93.144531 45.132812 C 99.390625 31.4375 95.519531 17.511719 84.132812 11.175781 C 72.742188 4.835938 65.171875 14.199219 49.3125 14.675781 C 33.453125 15.152344 29.15625 12.875 16.113281 21.910156 C 3.066406 30.949219 0.949219 52.289062 11.535156 68.058594 C 22.117188 83.832031 35.070312 87.785156 35.070312 87.785156 Z M 35.070312 87.785156 "/>
</g>
<mask id="mask1">
  <g filter="url(#alpha)">
<rect x="0" y="0" width="100" height="100" style="fill:rgb(0%,0%,0%);fill-opacity:0.6;stroke:none;"/>
  </g>
</mask>
<clipPath id="clip2">
  <rect x="0" y="0" width="100" height="100"/>
</clipPath>
<g id="surface8" clip-path="url(#clip2)">
<path style=" stroke:none;fill-rule:nonzero;fill:rgb(100%,100%,100%);fill-opacity:1;" d="M 54.242188 34.03125 C 54.175781 34.03125 54.144531 34.019531 54.140625 33.996094 C 54.636719 33.75 55.019531 33.46875 55.164062 33.199219 C 55.621094 32.363281 54.636719 31.90625 53.800781 32.136719 C 53.800781 32.136719 51.550781 32.597656 50.414062 33.050781 C 49.277344 33.507812 49.097656 34.484375 50.613281 34.714844 C 50.707031 34.726562 50.800781 34.738281 50.898438 34.742188 L 50.867188 34.742188 L 50.941406 34.742188 C 51.277344 34.753906 51.613281 34.734375 51.941406 34.683594 C 52.105469 34.683594 52.191406 34.703125 52.09375 34.75 C 51.789062 34.902344 51.121094 35.3125 52.042969 35.414062 C 52.964844 35.519531 55.113281 34.648438 55.316406 34.390625 C 55.519531 34.136719 54.550781 34.03125 54.242188 34.03125 Z M 54.242188 34.03125 "/>
</g>
</defs>
<g id="surface1">
<path style=" stroke:none;fill-rule:nonzero;fill:rgb(100%,47.450981%,77.64706%);fill-opacity:1;" d="M 35.070312 87.785156 C 35.070312 87.785156 50.230469 93.1875 64.9375 84.554688 C 79.640625 75.921875 86.898438 58.828125 93.144531 45.132812 C 99.390625 31.4375 95.519531 17.511719 84.132812 11.175781 C 72.742188 4.835938 65.171875 14.199219 49.3125 14.675781 C 33.453125 15.152344 29.15625 12.875 16.113281 21.910156 C 3.066406 30.949219 0.949219 52.289062 11.535156 68.058594 C 22.117188 83.832031 35.070312 87.785156 35.070312 87.785156 Z M 35.070312 87.785156 "/>
<use xlink:href="#surface5" mask="url(#mask0)"/>
<path style="fill:none;stroke-width:1;stroke-linecap:round;stroke-linejoin:round;stroke:rgb(58.039218%,58.039218%,58.039218%);stroke-opacity:1;stroke-miterlimit:4;" d="M 51.738281 201.796875 L 75.46875 201.796875 C 77.753906 201.796875 79.609375 203.652344 79.609375 205.9375 L 79.609375 229.667969 C 79.609375 231.953125 77.753906 233.808594 75.46875 233.808594 L 51.738281 233.808594 C 49.453125 233.808594 47.597656 231.953125 47.597656 229.667969 L 47.597656 205.9375 C 47.597656 203.652344 49.453125 201.796875 51.738281 201.796875 Z M 51.738281 201.796875 " transform="matrix(0.2,0,0,0.2,0,0)"/>
<path style="fill:none;stroke-width:1;stroke-linecap:round;stroke-linejoin:round;stroke:rgb(58.039218%,58.039218%,58.039218%);stroke-opacity:1;stroke-miterlimit:4;" d="M 86.445312 201.796875 L 110.175781 201.796875 C 112.460938 201.796875 114.316406 203.652344 114.316406 205.9375 L 114.316406 229.667969 C 114.316406 231.953125 112.460938 233.808594 110.175781 233.808594 L 86.445312 233.808594 C 84.160156 233.808594 82.304688 231.953125 82.304688 229.667969 L 82.304688 205.9375 C 82.304688 203.652344 84.160156 201.796875 86.445312 201.796875 Z M 86.445312 201.796875 " transform="matrix(0.2,0,0,0.2,0,0)"/>
<path style="fill:none;stroke-width:1;stroke-linecap:round;stroke-linejoin:round;stroke:rgb(58.039218%,58.039218%,58.039218%);stroke-opacity:1;stroke-miterlimit:4;" d="M 121.152344 201.796875 L 144.882812 201.796875 C 147.167969 201.796875 149.023438 203.652344 149.023438 205.9375 L 149.023438 229.667969 C 149.023438 231.953125 147.167969 233.808594 144.882812 233.808594 L 121.152344 233.808594 C 118.867188 233.808594 117.011719 231.953125 117.011719 229.667969 L 117.011719 205.9375 C 117.011719 203.652344 118.867188 201.796875 121.152344 201.796875 Z M 121.152344 201.796875 " transform="matrix(0.2,0,0,0.2,0,0)"/>
<path style="fill:none;stroke-width:1;stroke-linecap:round;stroke-linejoin:round;stroke:rgb(58.039218%,58.039218%,58.039218%);stroke-opacity:1;stroke-miterlimit:4;" d="M 155.859375 201.796875 L 179.589844 201.796875 C 181.875 201.796875 183.710938 203.652344 183.710938 205.9375 L 183.710938 229.667969 C 183.710938 231.953125 181.875 233.808594 179.589844 233.808594 L 155.859375 233.808594 C 153.574219 233.808594 151.71875 231.953125 151.71875 229.667969 L 151.71875 205.9375 C 151.71875 203.652344 153.574219 201.796875 155.859375 201.796875 Z M 155.859375 201.796875 " transform="matrix(0.2,0,0,0.2,0,0)"/>
<path style="fill:none;stroke-width:1;stroke-linecap:round;stroke-linejoin:round;stroke:rgb(58.039218%,58.039218%,58.039218%);stroke-opacity:1;stroke-miterlimit:4;" d="M 190.566406 201.796875 L 214.296875 201.796875 C 216.582031 201.796875 218.4375 203.652344 218.4375 205.9375 L 218.4375 229.667969 C 218.4375 231.953125 216.582031 233.808594 214.296875 233.808594 L 190.566406 233.808594 C 188.28125 233.808594 186.425781 231.953125 186.425781 229.667969 L 186.425781 205.9375 C 186.425781 203.652344 188.28125 201.796875 190.566406 201.796875 Z M 190.566406 201.796875 " transform="matrix(0.2,0,0,0.2,0,0)"/>
<path style="fill:none;stroke-width:1;stroke-linecap:round;stroke-linejoin:round;stroke:rgb(58.039218%,58.039218%,58.039218%);stroke-opacity:1;stroke-miterlimit:4;" d="M 225.273438 201.796875 L 249.003906 201.796875 C 251.289062 201.796875 253.144531 203.652344 253.144531 205.9375 L 253.144531 229.667969 C 253.144531 231.953125 251.289062 233.808594 249.003906 233.808594 L 225.273438 233.808594 C 222.988281 233.808594 221.132812 231.953125 221.132812 229.667969 L 221.132812 205.9375 C 221.132812 203.652344 222.988281 201.796875 225.273438 201.796875 Z M 225.273438 201.796875 " transform="matrix(0.2,0,0,0.2,0,0)"/>
<path style="fill:none;stroke-width:1;stroke-linecap:round;stroke-linejoin:round;stroke:rgb(58.039218%,58.039218%,58.039218%);stroke-opacity:1;stroke-miterlimit:4;" d="M 259.960938 201.796875 L 283.710938 201.796875 C 285.996094 201.796875 287.832031 203.652344 287.832031 205.9375 L 287.832031 229.667969 C 287.832031 231.953125 285.996094 233.808594 283.710938 233.808594 L 259.960938 233.808594 C 257.695312 233.808594 255.839844 231.953125 255.839844 229.667969 L 255.839844 205.9375 C 255.839844 203.652344 257.695312 201.796875 259.960938 201.796875 Z M 259.960938 201.796875 " transform="matrix(0.2,0,0,0.2,0,0)"/>
<path style="fill:none;stroke-width:1;stroke-linecap:round;stroke-linejoin:round;stroke:rgb(58.039218%,58.039218%,58.039218%);stroke-opacity:1;stroke-miterlimit:4;" d="M 294.6875 201.796875 L 318.417969 201.796875 C 320.703125 201.796875 322.558594 203.652344 322.558594 205.9375 L 322.558594 229.667969 C 322.558594 231.953125 320.703125 233.808594 318.417969 233.808594 L 294.6875 233.808594 C 292.402344 233.808594 290.546875 231.953125 290.546875 229.667969 L 290.546875 205.9375 C 290.546875 203.652344 292.402344 201.796875 294.6875 201.796875 Z M 294.6875 201.796875 " transform="matrix(0.2,0,0,0.2,0,0)"/>
<path style="fill:none;stroke-width:1;stroke-linecap:round;stroke-linejoin:round;stroke:rgb(58.039218%,58.039218%,58.039218%);stroke-opacity:1;stroke-miterlimit:4;" d="M 329.394531 201.796875 L 353.125 201.796875 C 355.410156 201.796875 357.265625 203.652344 357.265625 205.9375 L 357.265625 229.667969 C 357.265625 231.953125 355.410156 233.808594 353.125 233.808594 L 329.394531 233.808594 C 327.109375 233.808594 325.253906 231.953125 325.253906 229.667969 L 325.253906 205.9375 C 325.253906 203.652344 327.109375 201.796875 329.394531 201.796875 Z M 329.394531 201.796875 " transform="matrix(0.2,0,0,0.2,0,0)"/>
<path style="fill:none;stroke-width:1;stroke-linecap:round;stroke-linejoin:round;stroke:rgb(58.039218%,58.039218%,58.039218%);stroke-opacity:1;stroke-miterlimit:4;" d="M 364.082031 201.796875 L 387.832031 201.796875 C 390.117188 201.796875 391.953125 203.652344 391.953125 205.9375 L 391.953125 229.667969 C 391.953125 231.953125 390.117188 233.808594 387.832031 233.808594 L 364.082031 233.808594 C 361.816406 233.808594 359.960938 231.953125 359.960938 229.667969 L 359.960938 205.9375 C 359.960938 203.652344 361.816406 201.796875 364.082031 201.796875 Z M 364.082031 201.796875 " transform="matrix(0.2,0,0,0.2,0,0)"/>
<path style="fill:none;stroke-width:1;stroke-linecap:round;stroke-linejoin:round;stroke:rgb(58.039218%,58.039218%,58.039218%);stroke-opacity:1;stroke-miterlimit:4;" d="M 398.808594 201.796875 L 422.539062 201.796875 C 424.824219 201.796875 426.679688 203.652344 426.679688 205.9375 L 426.679688 229.667969 C 426.679688 231.953125 424.824219 233.808594 422.539062 233.808594 L 398.808594 233.808594 C 396.523438 233.808594 394.667969 231.953125 394.667969 229.667969 L 394.667969 205.9375 C 394.667969 203.652344 396.523438 201.796875 398.808594 201.796875 Z M 398.808594 201.796875 " transform="matrix(0.2,0,0,0.2,0,0)"/>
<path style="fill:none;stroke-width:1;stroke-linecap:round;stroke-linejoin:round;stroke:rgb(58.039218%,58.039218%,58.039218%);stroke-opacity:1;stroke-miterlimit:4;" d="M 433.515625 201.796875 L 457.246094 201.796875 C 459.53125 201.796875 461.386719 203.652344 461.386719 205.9375 L 461.386719 229.667969 C 461.386719 231.953125 459.53125 233.808594 457.246094 233.808594 L 433.515625 233.808594 C 431.230469 233.808594 429.375 231.953125 429.375 229.667969 L 429.375 205.9375 C 429.375 203.652344 431.230469 201.796875 433.515625 201.796875 Z M 433.515625 201.796875 " transform="matrix(0.2,0,0,0.2,0,0)"/>
<path style="fill:none;stroke-width:1;stroke-linecap:round;stroke-linejoin:round;stroke:rgb(58.039218%,58.039218%,58.039218%);stroke-opacity:1;stroke-miterlimit:4;" d="M 51.738281 235.996094 L 75.46875 235.996094 C 77.753906 235.996094 79.609375 237.851562 79.609375 240.136719 L 79.609375 263.867188 C 79.609375 266.152344 77.753906 268.007812 75.46875 268.007812 L 51.738281 268.007812 C 49.453125 268.007812 47.597656 266.152344 47.597656 263.867188 L 47.597656 240.136719 C 47.597656 237.851562 49.453125 235.996094 51.738281 235.996094 Z M 51.738281 235.996094 " transform="matrix(0.2,0,0,0.2,0,0)"/>
<path style="fill:none;stroke-width:1;stroke-linecap:round;stroke-linejoin:round;stroke:rgb(58.039218%,58.039218%,58.039218%);stroke-opacity:1;stroke-miterlimit:4;" d="M 86.445312 235.996094 L 110.175781 235.996094 C 112.460938 235.996094 114.316406 237.851562 114.316406 240.136719 L 114.316406 263.867188 C 114.316406 266.152344 112.460938 268.007812 110.175781 268.007812 L 86.445312 268.007812 C 84.160156 268.007812 82.304688 266.152344 82.304688 263.867188 L 82.304688 240.136719 C 82.304688 237.851562 84.160156 235.996094 86.445312 235.996094 Z M 86.445312 235.996094 " transform="matrix(0.2,0,0,0.2,0,0)"/>
<path style="fill:none;stroke-width:1;stroke-linecap:round;stroke-linejoin:round;stroke:rgb(58.039218%,58.039218%,58.039218%);stroke-opacity:1;stroke-miterlimit:4;" d="M 121.152344 235.996094 L 144.882812 235.996094 C 147.167969 235.996094 149.023438 237.851562 149.023438 240.136719 L 149.023438 263.867188 C 149.023438 266.152344 147.167969 268.007812 144.882812 268.007812 L 121.152344 268.007812 C 118.867188 268.007812 117.011719 266.152344 117.011719 263.867188 L 117.011719 240.136719 C 117.011719 237.851562 118.867188 235.996094 121.152344 235.996094 Z M 121.152344 235.996094 " transform="matrix(0.2,0,0,0.2,0,0)"/>
<path style="fill:none;stroke-width:1;stroke-linecap:round;stroke-linejoin:round;stroke:rgb(58.039218%,58.039218%,58.039218%);stroke-opacity:1;stroke-miterlimit:4;" d="M 155.859375 235.996094 L 179.589844 235.996094 C 181.875 235.996094 183.710938 237.851562 183.710938 240.136719 L 183.710938 263.867188 C 183.710938 266.152344 181.875 268.007812 179.589844 268.007812 L 155.859375 268.007812 C 153.574219 268.007812 151.71875 266.152344 151.71875 263.867188 L 151.71875 240.136719 C 151.71875 237.851562 153.574219 235.996094 155.859375 235.996094 Z M 155.859375 235.996094 " transform="matrix(0.2,0,0,0.2,0,0)"/>
<path style="fill:none;stroke-width:1;stroke-linecap:round;stroke-linejoin:round;stroke:rgb(58.039218%,58.039218%,58.039218%);stroke-opacity:1;stroke-miterlimit:4;" d="M 190.566406 235.996094 L 214.296875 235.996094 C 216.582031 235.996094 218.4375 237.851562 218.4375 240.136719 L 218.4375 263.867188 C 218.4375 266.152344 216.582031 268.007812 214.296875 268.007812 L 190.566406 268.007812 C 188.28125 268.007812 186.425781 266.152344 186.425781 263.867188 L 186.425781 240.136719 C 186.425781 237.851562 188.28125 235.996094 190.566406 235.996094 Z M 190.566406 235.996094 " transform="matrix(0.2,0,0,0.2,0,0)"/>
<path style="fill:none;stroke-width:1;stroke-linecap:round;stroke-linejoin:round;stroke:rgb(58.039218%,58.039218%,58.039218%);stroke-opacity:1;stroke-miterlimit:4;" d="M 225.273438 235.996094 L 249.003906 235.996094 C 251.289062 235.996094 253.144531 237.851562 253.144531 240.136719 L 253.144531 263.867188 C 253.144531 266.152344 251.289062 268.007812 249.003906 268.007812 L 225.273438 268.007812 C 222.988281 268.007812 221.132812 266.152344 221.132812 263.867188 L 221.132812 240.136719 C 221.132812 237.851562 222.988281 235.996094 225.273438 235.996094 Z M 225.273438 235.996094 " transform="matrix(0.2,0,0,0.2,0,0)"/>
<path style="fill:none;stroke-width:1;stroke-linecap:round;stroke-linejoin:round;stroke:rgb(58.039218%,58.039218%,58.039218%);stroke-opacity:1;stroke-miterlimit:4;" d="M 259.960938 235.996094 L 283.710938 235.996094 C 285.996094 235.996094 287.832031 237.851562 287.832031 240.136719 L 287.832031 263.867188 C 287.832031 266.152344 285.996094 268.007812 283.710938 268.007812 L 259.960938 268.007812 C 257.695312 268.007812 255.839844 266.152344 255.839844 263.867188 L 255.839844 240.136719 C 255.839844 237.851562 257.695312 235.996094 259.960938 235.996094 Z M 259.960938 235.996094 " transform="matrix(0.2,0,0,0.2,0,0)"/>
<path style="fill:none;stroke-width:1;stroke-linecap:round;stroke-linejoin:round;stroke:rgb(58.039218%,58.039218%,58.039218%);stroke-opacity:1;stroke-miterlimit:4;" d="M 294.6875 235.996094 L 318.417969 235.996094 C 320.703125 235.996094 322.558594 237.851562 322.558594 240.136719 L 322.558594 263.867188 C 322.558594 266.152344 320.703125 268.007812 318.417969 268.007812 L 294.6875 268.007812 C 292.402344 268.007812 290.546875 266.152344 290.546875 263.867188 L 290.546875 240.136719 C 290.546875 237.851562 292.402344 235.996094 294.6875 235.996094 Z M 294.6875 235.996094 " transform="matrix(0.2,0,0,0.2,0,0)"/>
<path style="fill:none;stroke-width:1;stroke-linecap:round;stroke-linejoin:round;stroke:rgb(58.039218%,58.039218%,58.039218%);stroke-opacity:1;stroke-miterlimit:4;" d="M 329.394531 235.996094 L 353.125 235.996094 C 355.410156 235.996094 357.265625 237.851562 357.265625 240.136719 L 357.265625 263.867188 C 357.265625 266.152344 355.410156 268.007812 353.125 268.007812 L 329.394531 268.007812 C 327.109375 268.007812 325.253906 266.152344 325.253906 263.867188 L 325.253906 240.136719 C 325.253906 237.851562 327.109375 235.996094 329.394531 235.996094 Z M 329.394531 235.996094 " transform="matrix(0.2,0,0,0.2,0,0)"/>
<path style="fill:none;stroke-width:1;stroke-linecap:round;stroke-linejoin:round;stroke:rgb(58.039218%,58.039218%,58.039218%);stroke-opacity:1;stroke-miterlimit:4;" d="M 364.082031 235.996094 L 387.832031 235.996094 C 390.117188 235.996094 391.953125 237.851562 391.953125 240.136719 L 391.953125 263.867188 C 391.953125 266.152344 390.117188 268.007812 387.832031 268.007812 L 364.082031 268.007812 C 361.816406 268.007812 359.960938 266.152344 359.960938 263.867188 L 359.960938 240.136719 C 359.960938 237.851562 361.816406 235.996094 364.082031 235.996094 Z M 364.082031 235.996094 " transform="matrix(0.2,0,0,0.2,0,0)"/>
<path style="fill:none;stroke-width:1;stroke-linecap:round;stroke-linejoin:round;stroke:rgb(58.039218%,58.039218%,58.039218%);stroke-opacity:1;stroke-miterlimit:4;" d="M 398.808594 235.996094 L 422.539062 235.996094 C 424.824219 235.996094 426.679688 237.851562 426.679688 240.136719 L 426.679688 263.867188 C 426.679688 266.152344 424.824219 268.007812 422.539062 268.007812 L 398.808594 268.007812 C 396.523438 268.007812 394.667969 266.152344 394.667969 263.867188 L 394.667969 240.136719 C 394.667969 237.851562 396.523438 235.996094 398.808594 235.996094 Z M 398.808594 235.996094 " transform="matrix(0.2,0,0,0.2,0,0)"/>
<path style="fill:none;stroke-width:1;stroke-linecap:round;stroke-linejoin:round;stroke:rgb(58.039218%,58.039218%,58.039218%);stroke-opacity:1;stroke-miterlimit:4;" d="M 433.515625 235.996094 L 457.246094 235.996094 C 459.53125 235.996094 461.386719 237.851562 461.386719 240.136719 L 461.386719 263.867188 C 461.386719 266.152344 459.53125 268.007812 457.246094 268.007812 L 433.515625 268.007812 C 431.230469 268.007812 429.375 266.152344 429.375 263.867188 L 429.375 240.136719 C 429.375 237.851562 431.230469 235.996094 433.515625 235.996094 Z M 433.515625 235.996094 " transform="matrix(0.2,0,0,0.2,0,0)"/>
<path style="fill:none;stroke-width:1;stroke-linecap:round;stroke-linejoin:round;stroke:rgb(58.039218%,58.039218%,58.039218%);stroke-opacity:1;stroke-miterlimit:4;" d="M 51.738281 270.195312 L 75.46875 270.195312 C 77.753906 270.195312 79.609375 272.050781 79.609375 274.335938 L 79.609375 298.066406 C 79.609375 300.351562 77.753906 302.207031 75.46875 302.207031 L 51.738281 302.207031 C 49.453125 302.207031 47.597656 300.351562 47.597656 298.066406 L 47.597656 274.335938 C 47.597656 272.050781 49.453125 270.195312 51.738281 270.195312 Z M 51.738281 270.195312 " transform="matrix(0.2,0,0,0.2,0,0)"/>
<path style="fill:none;stroke-width:1;stroke-linecap:round;stroke-linejoin:round;stroke:rgb(58.039218%,58.039218%,58.039218%);stroke-opacity:1;stroke-miterlimit:4;" d="M 86.445312 270.195312 L 110.175781 270.195312 C 112.460938 270.195312 114.316406 272.050781 114.316406 274.335938 L 114.316406 298.066406 C 114.316406 300.351562 112.460938 302.207031 110.175781 302.207031 L 86.445312 302.207031 C 84.160156 302.207031 82.304688 300.351562 82.304688 298.066406 L 82.304688 274.335938 C 82.304688 272.050781 84.160156 270.195312 86.445312 270.195312 Z M 86.445312 270.195312 " transform="matrix(0.2,0,0,0.2,0,0)"/>
<path style="fill:none;stroke-width:1;stroke-linecap:round;stroke-linejoin:round;stroke:rgb(58.039218%,58.039218%,58.039218%);stroke-opacity:1;stroke-miterlimit:4;" d="M 121.152344 270.195312 L 144.882812 270.195312 C 147.167969 270.195312 149.023438 272.050781 149.023438 274.335938 L 149.023438 298.066406 C 149.023438 300.351562 147.167969 302.207031 144.882812 302.207031 L 121.152344 302.207031 C 118.867188 302.207031 117.011719 300.351562 117.011719 298.066406 L 117.011719 274.335938 C 117.011719 272.050781 118.867188 270.195312 121.152344 270.195312 Z M 121.152344 270.195312 " transform="matrix(0.2,0,0,0.2,0,0)"/>
<path style="fill:none;stroke-width:1;stroke-linecap:round;stroke-linejoin:round;stroke:rgb(58.039218%,58.039218%,58.039218%);stroke-opacity:1;stroke-miterlimit:4;" d="M 155.859375 270.195312 L 179.589844 270.195312 C 181.875 270.195312 183.710938 272.050781 183.710938 274.335938 L 183.710938 298.066406 C 183.710938 300.351562 181.875 302.207031 179.589844 302.207031 L 155.859375 302.207031 C 153.574219 302.207031 151.71875 300.351562 151.71875 298.066406 L 151.71875 274.335938 C 151.71875 272.050781 153.574219 270.195312 155.859375 270.195312 Z M 155.859375 270.195312 " transform="matrix(0.2,0,0,0.2,0,0)"/>
<path style="fill:none;stroke-width:1;stroke-linecap:round;stroke-linejoin:round;stroke:rgb(58.039218%,58.039218%,58.039218%);stroke-opacity:1;stroke-miterlimit:4;" d="M 190.566406 270.195312 L 214.296875 270.195312 C 216.582031 270.195312 218.4375 272.050781 218.4375 274.335938 L 218.4375 298.066406 C 218.4375 300.351562 216.582031 302.207031 214.296875 302.207031 L 190.566406 302.207031 C 188.28125 302.207031 186.425781 300.351562 186.425781 298.066406 L 186.425781 274.335938 C 186.425781 272.050781 188.28125 270.195312 190.566406 270.195312 Z M 190.566406 270.195312 " transform="matrix(0.2,0,0,0.2,0,0)"/>
<path style="fill:none;stroke-width:1;stroke-linecap:round;stroke-linejoin:round;stroke:rgb(58.039218%,58.039218%,58.039218%);stroke-opacity:1;stroke-miterlimit:4;" d="M 225.273438 270.195312 L 249.003906 270.195312 C 251.289062 270.195312 253.144531 272.050781 253.144531 274.335938 L 253.144531 298.066406 C 253.144531 300.351562 251.289062 302.207031 249.003906 302.207031 L 225.273438 302.207031 C 222.988281 302.207031 221.132812 300.351562 221.132812 298.066406 L 221.132812 274.335938 C 221.132812 272.050781 222.988281 270.195312 225.273438 270.195312 Z M 225.273438 270.195312 " transform="matrix(0.2,0,0,0.2,0,0)"/>
<path style="fill:none;stroke-width:1;stroke-linecap:round;stroke-linejoin:round;stroke:rgb(58.039218%,58.039218%,58.039218%);stroke-opacity:1;stroke-miterlimit:4;" d="M 259.960938 270.195312 L 283.710938 270.195312 C 285.996094 270.195312 287.832031 272.050781 287.832031 274.335938 L 287.832031 298.066406 C 287.832031 300.351562 285.996094 302.207031 283.710938 302.207031 L 259.960938 302.207031 C 257.695312 302.207031 255.839844 300.351562 255.839844 298.066406 L 255.839844 274.335938 C 255.839844 272.050781 257.695312 270.195312 259.960938 270.195312 Z M 259.960938 270.195312 " transform="matrix(0.2,0,0,0.2,0,0)"/>
<path style="fill:none;stroke-width:1;stroke-linecap:round;stroke-linejoin:round;stroke:rgb(58.039218%,58.039218%,58.039218%);stroke-opacity:1;stroke-miterlimit:4;" d="M 294.6875 270.195312 L 318.417969 270.195312 C 320.703125 270.195312 322.558594 272.050781 322.558594 274.335938 L 322.558594 298.066406 C 322.558594 300.351562 320.703125 302.207031 318.417969 302.207031 L 294.6875 302.207031 C 292.402344 302.207031 290.546875 300.351562 290.546875 298.066406 L 290.546875 274.335938 C 290.546875 272.050781 292.402344 270.195312 294.6875 270.195312 Z M 294.6875 270.195312 " transform="matrix(0.2,0,0,0.2,0,0)"/>
<path style="fill:none;stroke-width:1;stroke-linecap:round;stroke-linejoin:round;stroke:rgb(58.039218%,58.039218%,58.039218%);stroke-opacity:1;stroke-miterlimit:4;" d="M 329.394531 270.195312 L 353.125 270.195312 C 355.410156 270.195312 357.265625 272.050781 357.265625 274.335938 L 357.265625 298.066406 C 357.265625 300.351562 355.410156 302.207031 353.125 302.207031 L 329.394531 302.207031 C 327.109375 302.207031 325.253906 300.351562 325.253906 298.066406 L 325.253906 274.335938 C 325.253906 272.050781 327.109375 270.195312 329.394531 270.195312 Z M 329.394531 270.195312 " transform="matrix(0.2,0,0,0.2,0,0)"/>
<path style="fill:none;stroke-width:1;stroke-linecap:round;stroke-linejoin:round;stroke:rgb(58.039218%,58.039218%,58.039218%);stroke-opacity:1;stroke-miterlimit:4;" d="M 364.082031 270.195312 L 387.832031 270.195312 C 390.117188 270.195312 391.953125 272.050781 391.953125 274.335938 L 391.953125 298.066406 C 391.953125 300.351562 390.117188 302.207031 387.832031 302.207031 L 364.082031 302.207031 C 361.816406 302.207031 359.960938 300.351562 359.960938 298.066406 L 359.960938 274.335938 C 359.960938 272.050781 361.816406 270.195312 364.082031 270.195312 Z M 364.082031 270.195312 " transform="matrix(0.2,0,0,0.2,0,0)"/>
<path style="fill:none;stroke-width:1;stroke-linecap:round;stroke-linejoin:round;stroke:rgb(58.039218%,58.039218%,58.039218%);stroke-opacity:1;stroke-miterlimit:4;" d="M 398.808594 270.195312 L 422.539062 270.195312 C 424.824219 270.195312 426.679688 272.050781 426.679688 274.335938 L 426.679688 298.066406 C 426.679688 300.351562 424.824219 302.207031 422.539062 302.207031 L 398.808594 302.207031 C 396.523438 302.207031 394.667969 300.351562 394.667969 298.066406 L 394.667969 274.335938 C 394.667969 272.050781 396.523438 270.195312 398.808594 270.195312 Z M 398.808594 270.195312 " transform="matrix(0.2,0,0,0.2,0,0)"/>
<path style="fill:none;stroke-width:1;stroke-linecap:round;stroke-linejoin:round;stroke:rgb(58.039218%,58.039218%,58.039218%);stroke-opacity:1;stroke-miterlimit:4;" d="M 433.515625 270.195312 L 457.246094 270.195312 C 459.53125 270.195312 461.386719 272.050781 461.386719 274.335938 L 461.386719 298.066406 C 461.386719 300.351562 459.53125 302.207031 457.246094 302.207031 L 433.515625 302.207031 C 431.230469 302.207031 429.375 300.351562 429.375 298.066406 L 429.375 274.335938 C 429.375 272.050781 431.230469 270.195312 433.515625 270.195312 Z M 433.515625 270.195312 " transform="matrix(0.2,0,0,0.2,0,0)"/>
<path style="fill:none;stroke-width:1;stroke-linecap:round;stroke-linejoin:round;stroke:rgb(58.039218%,58.039218%,58.039218%);stroke-opacity:1;stroke-miterlimit:4;" d="M 51.738281 304.394531 L 75.46875 304.394531 C 77.753906 304.394531 79.609375 306.25 79.609375 308.535156 L 79.609375 332.265625 C 79.609375 334.550781 77.753906 336.40625 75.46875 336.40625 L 51.738281 336.40625 C 49.453125 336.40625 47.597656 334.550781 47.597656 332.265625 L 47.597656 308.535156 C 47.597656 306.25 49.453125 304.394531 51.738281 304.394531 Z M 51.738281 304.394531 " transform="matrix(0.2,0,0,0.2,0,0)"/>
<path style="fill:none;stroke-width:1;stroke-linecap:round;stroke-linejoin:round;stroke:rgb(58.039218%,58.039218%,58.039218%);stroke-opacity:1;stroke-miterlimit:4;" d="M 86.445312 304.394531 L 110.175781 304.394531 C 112.460938 304.394531 114.316406 306.25 114.316406 308.535156 L 114.316406 332.265625 C 114.316406 334.550781 112.460938 336.40625 110.175781 336.40625 L 86.445312 336.40625 C 84.160156 336.40625 82.304688 334.550781 82.304688 332.265625 L 82.304688 308.535156 C 82.304688 306.25 84.160156 304.394531 86.445312 304.394531 Z M 86.445312 304.394531 " transform="matrix(0.2,0,0,0.2,0,0)"/>
<path style="fill:none;stroke-width:1;stroke-linecap:round;stroke-linejoin:round;stroke:rgb(58.039218%,58.039218%,58.039218%);stroke-opacity:1;stroke-miterlimit:4;" d="M 121.152344 304.394531 L 144.882812 304.394531 C 147.167969 304.394531 149.023438 306.25 149.023438 308.535156 L 149.023438 332.265625 C 149.023438 334.550781 147.167969 336.40625 144.882812 336.40625 L 121.152344 336.40625 C 118.867188 336.40625 117.011719 334.550781 117.011719 332.265625 L 117.011719 308.535156 C 117.011719 306.25 118.867188 304.394531 121.152344 304.394531 Z M 121.152344 304.394531 " transform="matrix(0.2,0,0,0.2,0,0)"/>
<path style="fill:none;stroke-width:1;stroke-linecap:round;stroke-linejoin:round;stroke:rgb(58.039218%,58.039218%,58.039218%);stroke-opacity:1;stroke-miterlimit:4;" d="M 155.859375 304.394531 L 179.589844 304.394531 C 181.875 304.394531 183.710938 306.25 183.710938 308.535156 L 183.710938 332.265625 C 183.710938 334.550781 181.875 336.40625 179.589844 336.40625 L 155.859375 336.40625 C 153.574219 336.40625 151.71875 334.550781 151.71875 332.265625 L 151.71875 308.535156 C 151.71875 306.25 153.574219 304.394531 155.859375 304.394531 Z M 155.859375 304.394531 " transform="matrix(0.2,0,0,0.2,0,0)"/>
<path style="fill:none;stroke-width:1;stroke-linecap:round;stroke-linejoin:round;stroke:rgb(58.039218%,58.039218%,58.039218%);stroke-opacity:1;stroke-miterlimit:4;" d="M 190.566406 304.394531 L 214.296875 304.394531 C 216.582031 304.394531 218.4375 306.25 218.4375 308.535156 L 218.4375 332.265625 C 218.4375 334.550781 216.582031 336.40625 214.296875 336.40625 L 190.566406 336.40625 C 188.28125 336.40625 186.425781 334.550781 186.425781 332.265625 L 186.425781 308.535156 C 186.425781 306.25 188.28125 304.394531 190.566406 304.394531 Z M 190.566406 304.394531 " transform="matrix(0.2,0,0,0.2,0,0)"/>
<path style="fill:none;stroke-width:1;stroke-linecap:round;stroke-linejoin:round;stroke:rgb(58.039218%,58.039218%,58.039218%);stroke-opacity:1;stroke-miterlimit:4;" d="M 225.273438 304.394531 L 249.003906 304.394531 C 251.289062 304.394531 253.144531 306.25 253.144531 308.535156 L 253.144531 332.265625 C 253.144531 334.550781 251.289062 336.40625 249.003906 336.40625 L 225.273438 336.40625 C 222.988281 336.40625 221.132812 334.550781 221.132812 332.265625 L 221.132812 308.535156 C 221.132812 306.25 222.988281 304.394531 225.273438 304.394531 Z M 225.273438 304.394531 " transform="matrix(0.2,0,0,0.2,0,0)"/>
<path style="fill:none;stroke-width:1;stroke-linecap:round;stroke-linejoin:round;stroke:rgb(58.039218%,58.039218%,58.039218%);stroke-opacity:1;stroke-miterlimit:4;" d="M 259.960938 304.394531 L 283.710938 304.394531 C 285.996094 304.394531 287.832031 306.25 287.832031 308.535156 L 287.832031 332.265625 C 287.832031 334.550781 285.996094 336.40625 283.710938 336.40625 L 259.960938 336.40625 C 257.695312 336.40625 255.839844 334.550781 255.839844 332.265625 L 255.839844 308.535156 C 255.839844 306.25 257.695312 304.394531 259.960938 304.394531 Z M 259.960938 304.394531 " transform="matrix(0.2,0,0,0.2,0,0)"/>
<path style="fill:none;stroke-width:1;stroke-linecap:round;stroke-linejoin:round;stroke:rgb(58.039218%,58.039218%,58.039218%);stroke-opacity:1;stroke-miterlimit:4;" d="M 294.6875 304.394531 L 318.417969 304.394531 C 320.703125 304.394531 322.558594 306.25 322.558594 308.535156 L 322.558594 332.265625 C 322.558594 334.550781 320.703125 336.40625 318.417969 336.40625 L 294.6875 336.40625 C 292.402344 336.40625 290.546875 334.550781 290.546875 332.265625 L 290.546875 308.535156 C 290.546875 306.25 292.402344 304.394531 294.6875 304.394531 Z M 294.6875 304.394531 " transform="matrix(0.2,0,0,0.2,0,0)"/>
<path style="fill:none;stroke-width:1;stroke-linecap:round;stroke-linejoin:round;stroke:rgb(58.039218%,58.039218%,58.039218%);stroke-opacity:1;stroke-miterlimit:4;" d="M 329.394531 304.394531 L 353.125 304.394531 C 355.410156 304.394531 357.265625 306.25 357.265625 308.535156 L 357.265625 332.265625 C 357.265625 334.550781 355.410156 336.40625 353.125 336.40625 L 329.394531 336.40625 C 327.109375 336.40625 325.253906 334.550781 325.253906 332.265625 L 325.253906 308.535156 C 325.253906 306.25 327.109375 304.394531 329.394531 304.394531 Z M 329.394531 304.394531 " transform="matrix(0.2,0,0,0.2,0,0)"/>
<path style="fill:none;stroke-width:1;stroke-linecap:round;stroke-linejoin:round;stroke:rgb(58.039218%,58.039218%,58.039218%);stroke-opacity:1;stroke-miterlimit:4;" d="M 364.082031 304.394531 L 387.832031 304.394531 C 390.117188 304.394531 391.953125 306.25 391.953125 308.535156 L 391.953125 332.265625 C 391.953125 334.550781 390.117188 336.40625 387.832031 336.40625 L 364.082031 336.40625 C 361.816406 336.40625 359.960938 334.550781 359.960938 332.265625 L 359.960938 308.535156 C 359.960938 306.25 361.816406 304.394531 364.082031 304.394531 Z M 364.082031 304.394531 " transform="matrix(0.2,0,0,0.2,0,0)"/>
<path style="fill:none;stroke-width:1;stroke-linecap:round;stroke-linejoin:round;stroke:rgb(58.039218%,58.039218%,58.039218%);stroke-opacity:1;stroke-miterlimit:4;" d="M 398.808594 304.394531 L 422.539062 304.394531 C 424.824219 304.394531 426.679688 306.25 426.679688 308.535156 L 426.679688 332.265625 C 426.679688 334.550781 424.824219 336.40625 422.539062 336.40625 L 398.808594 336.40625 C 396.523438 336.40625 394.667969 334.550781 394.667969 332.265625 L 394.667969 308.535156 C 394.667969 306.25 396.523438 304.394531 398.808594 304.394531 Z M 398.808594 304.394531 " transform="matrix(0.2,0,0,0.2,0,0)"/>
<path style="fill:none;stroke-width:1;stroke-linecap:round;stroke-linejoin:round;stroke:rgb(58.039218%,58.039218%,58.039218%);stroke-opacity:1;stroke-miterlimit:4;" d="M 433.515625 304.394531 L 457.246094 304.394531 C 459.53125 304.394531 461.386719 306.25 461.386719 308.535156 L 461.386719 332.265625 C 461.386719 334.550781 459.53125 336.40625 457.246094 336.40625 L 433.515625 336.40625 C 431.230469 336.40625 429.375 334.550781 429.375 332.265625 L 429.375 308.535156 C 429.375 306.25 431.230469 304.394531 433.515625 304.394531 Z M 433.515625 304.394531 " transform="matrix(0.2,0,0,0.2,0,0)"/>
<path style="fill:none;stroke-width:1;stroke-linecap:round;stroke-linejoin:round;stroke:rgb(58.039218%,58.039218%,58.039218%);stroke-opacity:1;stroke-miterlimit:4;" d="M 51.738281 339.804688 L 75.46875 339.804688 C 77.753906 339.804688 79.609375 341.640625 79.609375 343.925781 L 79.609375 367.675781 C 79.609375 369.941406 77.753906 371.796875 75.46875 371.796875 L 51.738281 371.796875 C 49.453125 371.796875 47.597656 369.941406 47.597656 367.675781 L 47.597656 343.925781 C 47.597656 341.640625 49.453125 339.804688 51.738281 339.804688 Z M 51.738281 339.804688 " transform="matrix(0.2,0,0,0.2,0,0)"/>
<path style="fill:none;stroke-width:1;stroke-linecap:round;stroke-linejoin:round;stroke:rgb(58.039218%,58.039218%,58.039218%);stroke-opacity:1;stroke-miterlimit:4;" d="M 86.445312 339.804688 L 110.175781 339.804688 C 112.460938 339.804688 114.316406 341.640625 114.316406 343.925781 L 114.316406 367.675781 C 114.316406 369.941406 112.460938 371.796875 110.175781 371.796875 L 86.445312 371.796875 C 84.160156 371.796875 82.304688 369.941406 82.304688 367.675781 L 82.304688 343.925781 C 82.304688 341.640625 84.160156 339.804688 86.445312 339.804688 Z M 86.445312 339.804688 " transform="matrix(0.2,0,0,0.2,0,0)"/>
<path style="fill:none;stroke-width:1;stroke-linecap:round;stroke-linejoin:round;stroke:rgb(58.039218%,58.039218%,58.039218%);stroke-opacity:1;stroke-miterlimit:4;" d="M 121.152344 339.804688 L 144.882812 339.804688 C 147.167969 339.804688 149.023438 341.640625 149.023438 343.925781 L 149.023438 367.675781 C 149.023438 369.941406 147.167969 371.796875 144.882812 371.796875 L 121.152344 371.796875 C 118.867188 371.796875 117.011719 369.941406 117.011719 367.675781 L 117.011719 343.925781 C 117.011719 341.640625 118.867188 339.804688 121.152344 339.804688 Z M 121.152344 339.804688 " transform="matrix(0.2,0,0,0.2,0,0)"/>
<path style="fill:none;stroke-width:1;stroke-linecap:round;stroke-linejoin:round;stroke:rgb(58.039218%,58.039218%,58.039218%);stroke-opacity:1;stroke-miterlimit:4;" d="M 155.859375 339.804688 L 179.589844 339.804688 C 181.875 339.804688 183.710938 341.640625 183.710938 343.925781 L 183.710938 367.675781 C 183.710938 369.941406 181.875 371.796875 179.589844 371.796875 L 155.859375 371.796875 C 153.574219 371.796875 151.71875 369.941406 151.71875 367.675781 L 151.71875 343.925781 C 151.71875 341.640625 153.574219 339.804688 155.859375 339.804688 Z M 155.859375 339.804688 " transform="matrix(0.2,0,0,0.2,0,0)"/>
<path style="fill:none;stroke-width:1;stroke-linecap:round;stroke-linejoin:round;stroke:rgb(58.039218%,58.039218%,58.039218%);stroke-opacity:1;stroke-miterlimit:4;" d="M 190.566406 339.804688 L 214.296875 339.804688 C 216.582031 339.804688 218.4375 341.640625 218.4375 343.925781 L 218.4375 367.675781 C 218.4375 369.941406 216.582031 371.796875 214.296875 371.796875 L 190.566406 371.796875 C 188.28125 371.796875 186.425781 369.941406 186.425781 367.675781 L 186.425781 343.925781 C 186.425781 341.640625 188.28125 339.804688 190.566406 339.804688 Z M 190.566406 339.804688 " transform="matrix(0.2,0,0,0.2,0,0)"/>
<path style="fill:none;stroke-width:1;stroke-linecap:round;stroke-linejoin:round;stroke:rgb(58.039218%,58.039218%,58.039218%);stroke-opacity:1;stroke-miterlimit:4;" d="M 225.273438 339.804688 L 249.003906 339.804688 C 251.289062 339.804688 253.144531 341.640625 253.144531 343.925781 L 253.144531 367.675781 C 253.144531 369.941406 251.289062 371.796875 249.003906 371.796875 L 225.273438 371.796875 C 222.988281 371.796875 221.132812 369.941406 221.132812 367.675781 L 221.132812 343.925781 C 221.132812 341.640625 222.988281 339.804688 225.273438 339.804688 Z M 225.273438 339.804688 " transform="matrix(0.2,0,0,0.2,0,0)"/>
<path style="fill:none;stroke-width:1;stroke-linecap:round;stroke-linejoin:round;stroke:rgb(58.039218%,58.039218%,58.039218%);stroke-opacity:1;stroke-miterlimit:4;" d="M 259.960938 339.804688 L 283.710938 339.804688 C 285.996094 339.804688 287.832031 341.640625 287.832031 343.925781 L 287.832031 367.675781 C 287.832031 369.941406 285.996094 371.796875 283.710938 371.796875 L 259.960938 371.796875 C 257.695312 371.796875 255.839844 369.941406 255.839844 367.675781 L 255.839844 343.925781 C 255.839844 341.640625 257.695312 339.804688 259.960938 339.804688 Z M 259.960938 339.804688 " transform="matrix(0.2,0,0,0.2,0,0)"/>
<path style="fill:none;stroke-width:1;stroke-linecap:round;stroke-linejoin:round;stroke:rgb(58.039218%,58.039218%,58.039218%);stroke-opacity:1;stroke-miterlimit:4;" d="M 294.6875 339.804688 L 318.417969 339.804688 C 320.703125 339.804688 322.558594 341.640625 322.558594 343.925781 L 322.558594 367.675781 C 322.558594 369.941406 320.703125 371.796875 318.417969 371.796875 L 294.6875 371.796875 C 292.402344 371.796875 290.546875 369.941406 290.546875 367.675781 L 290.546875 343.925781 C 290.546875 341.640625 292.402344 339.804688 294.6875 339.804688 Z M 294.6875 339.804688 " transform="matrix(0.2,0,0,0.2,0,0)"/>
<path style="fill:none;stroke-width:1;stroke-linecap:round;stroke-linejoin:round;stroke:rgb(58.039218%,58.039218%,58.039218%);stroke-opacity:1;stroke-miterlimit:4;" d="M 329.394531 339.804688 L 353.125 339.804688 C 355.410156 339.804688 357.265625 341.640625 357.265625 343.925781 L 357.265625 367.675781 C 357.265625 369.941406 355.410156 371.796875 353.125 371.796875 L 329.394531 371.796875 C 327.109375 371.796875 325.253906 369.941406 325.253906 367.675781 L 325.253906 343.925781 C 325.253906 341.640625 327.109375 339.804688 329.394531 339.804688 Z M 329.394531 339.804688 " transform="matrix(0.2,0,0,0.2,0,0)"/>
<path style="fill:none;stroke-width:1;stroke-linecap:round;stroke-linejoin:round;stroke:rgb(58.039218%,58.039218%,58.039218%);stroke-opacity:1;stroke-miterlimit:4;" d="M 364.082031 339.804688 L 387.832031 339.804688 C 390.117188 339.804688 391.953125 341.640625 391.953125 343.925781 L 391.953125 367.675781 C 391.953125 369.941406 390.117188 371.796875 387.832031 371.796875 L 364.082031 371.796875 C 361.816406 371.796875 359.960938 369.941406 359.960938 367.675781 L 359.960938 343.925781 C 359.960938 341.640625 361.816406 339.804688 364.082031 339.804688 Z M 364.082031 339.804688 " transform="matrix(0.2,0,0,0.2,0,0)"/>
<path style="fill:none;stroke-width:1;stroke-linecap:round;stroke-linejoin:round;stroke:rgb(58.039218%,58.039218%,58.039218%);stroke-opacity:1;stroke-miterlimit:4;" d="M 398.808594 339.804688 L 422.539062 339.804688 C 424.824219 339.804688 426.679688 341.640625 426.679688 343.925781 L 426.679688 367.675781 C 426.679688 369.941406 424.824219 371.796875 422.539062 371.796875 L 398.808594 371.796875 C 396.523438 371.796875 394.667969 369.941406 394.667969 367.675781 L 394.667969 343.925781 C 394.667969 341.640625 396.523438 339.804688 398.808594 339.804688 Z M 398.808594 339.804688 " transform="matrix(0.2,0,0,0.2,0,0)"/>
<path style="fill:none;stroke-width:1;stroke-linecap:round;stroke-linejoin:round;stroke:rgb(58.039218%,58.039218%,58.039218%);stroke-opacity:1;stroke-miterlimit:4;" d="M 433.515625 339.804688 L 457.246094 339.804688 C 459.53125 339.804688 461.386719 341.640625 461.386719 343.925781 L 461.386719 367.675781 C 461.386719 369.941406 459.53125 371.796875 457.246094 371.796875 L 433.515625 371.796875 C 431.230469 371.796875 429.375 369.941406 429.375 367.675781 L 429.375 343.925781 C 429.375 341.640625 431.230469 339.804688 433.515625 339.804688 Z M 433.515625 339.804688 " transform="matrix(0.2,0,0,0.2,0,0)"/>
<path style="fill:none;stroke-width:1;stroke-linecap:round;stroke-linejoin:round;stroke:rgb(58.039218%,58.039218%,58.039218%);stroke-opacity:1;stroke-miterlimit:4;" d="M 51.738281 374.003906 L 75.46875 374.003906 C 77.753906 374.003906 79.609375 375.839844 79.609375 378.125 L 79.609375 401.875 C 79.609375 404.160156 77.753906 405.996094 75.46875 405.996094 L 51.738281 405.996094 C 49.453125 405.996094 47.597656 404.160156 47.597656 401.875 L 47.597656 378.125 C 47.597656 375.839844 49.453125 374.003906 51.738281 374.003906 Z M 51.738281 374.003906 " transform="matrix(0.2,0,0,0.2,0,0)"/>
<path style="fill:none;stroke-width:1;stroke-linecap:round;stroke-linejoin:round;stroke:rgb(58.039218%,58.039218%,58.039218%);stroke-opacity:1;stroke-miterlimit:4;" d="M 86.445312 374.003906 L 110.175781 374.003906 C 112.460938 374.003906 114.316406 375.839844 114.316406 378.125 L 114.316406 401.875 C 114.316406 404.160156 112.460938 405.996094 110.175781 405.996094 L 86.445312 405.996094 C 84.160156 405.996094 82.304688 404.160156 82.304688 401.875 L 82.304688 378.125 C 82.304688 375.839844 84.160156 374.003906 86.445312 374.003906 Z M 86.445312 374.003906 " transform="matrix(0.2,0,0,0.2,0,0)"/>
<path style="fill:none;stroke-width:1;stroke-linecap:round;stroke-linejoin:round;stroke:rgb(58.039218%,58.039218%,58.039218%);stroke-opacity:1;stroke-miterlimit:4;" d="M 121.152344 374.003906 L 144.882812 374.003906 C 147.167969 374.003906 149.023438 375.839844 149.023438 378.125 L 149.023438 401.875 C 149.023438 404.160156 147.167969 405.996094 144.882812 405.996094 L 121.152344 405.996094 C 118.867188 405.996094 117.011719 404.160156 117.011719 401.875 L 117.011719 378.125 C 117.011719 375.839844 118.867188 374.003906 121.152344 374.003906 Z M 121.152344 374.003906 " transform="matrix(0.2,0,0,0.2,0,0)"/>
<path style="fill:none;stroke-width:1;stroke-linecap:round;stroke-linejoin:round;stroke:rgb(58.039218%,58.039218%,58.039218%);stroke-opacity:1;stroke-miterlimit:4;" d="M 155.859375 374.003906 L 179.589844 374.003906 C 181.875 374.003906 183.710938 375.839844 183.710938 378.125 L 183.710938 401.875 C 183.710938 404.160156 181.875 405.996094 179.589844 405.996094 L 155.859375 405.996094 C 153.574219 405.996094 151.71875 404.160156 151.71875 401.875 L 151.71875 378.125 C 151.71875 375.839844 153.574219 374.003906 155.859375 374.003906 Z M 155.859375 374.003906 " transform="matrix(0.2,0,0,0.2,0,0)"/>
<path style="fill:none;stroke-width:1;stroke-linecap:round;stroke-linejoin:round;stroke:rgb(58.039218%,58.039218%,58.039218%);stroke-opacity:1;stroke-miterlimit:4;" d="M 190.566406 374.003906 L 214.296875 374.003906 C 216.582031 374.003906 218.4375 375.839844 218.4375 378.125 L 218.4375 401.875 C 218.4375 404.160156 216.582031 405.996094 214.296875 405.996094 L 190.566406 405.996094 C 188.28125 405.996094 186.425781 404.160156 186.425781 401.875 L 186.425781 378.125 C 186.425781 375.839844 188.28125 374.003906 190.566406 374.003906 Z M 190.566406 374.003906 " transform="matrix(0.2,0,0,0.2,0,0)"/>
<path style="fill:none;stroke-width:1;stroke-linecap:round;stroke-linejoin:round;stroke:rgb(58.039218%,58.039218%,58.039218%);stroke-opacity:1;stroke-miterlimit:4;" d="M 225.273438 374.003906 L 249.003906 374.003906 C 251.289062 374.003906 253.144531 375.839844 253.144531 378.125 L 253.144531 401.875 C 253.144531 404.160156 251.289062 405.996094 249.003906 405.996094 L 225.273438 405.996094 C 222.988281 405.996094 221.132812 404.160156 221.132812 401.875 L 221.132812 378.125 C 221.132812 375.839844 222.988281 374.003906 225.273438 374.003906 Z M 225.273438 374.003906 " transform="matrix(0.2,0,0,0.2,0,0)"/>
<path style="fill:none;stroke-width:1;stroke-linecap:round;stroke-linejoin:round;stroke:rgb(58.039218%,58.039218%,58.039218%);stroke-opacity:1;stroke-miterlimit:4;" d="M 259.960938 374.003906 L 283.710938 374.003906 C 285.996094 374.003906 287.832031 375.839844 287.832031 378.125 L 287.832031 401.875 C 287.832031 404.160156 285.996094 405.996094 283.710938 405.996094 L 259.960938 405.996094 C 257.695312 405.996094 255.839844 404.160156 255.839844 401.875 L 255.839844 378.125 C 255.839844 375.839844 257.695312 374.003906 259.960938 374.003906 Z M 259.960938 374.003906 " transform="matrix(0.2,0,0,0.2,0,0)"/>
<path style="fill:none;stroke-width:1;stroke-linecap:round;stroke-linejoin:round;stroke:rgb(58.039218%,58.039218%,58.039218%);stroke-opacity:1;stroke-miterlimit:4;" d="M 294.6875 374.003906 L 318.417969 374.003906 C 320.703125 374.003906 322.558594 375.839844 322.558594 378.125 L 322.558594 401.875 C 322.558594 404.160156 320.703125 405.996094 318.417969 405.996094 L 294.6875 405.996094 C 292.402344 405.996094 290.546875 404.160156 290.546875 401.875 L 290.546875 378.125 C 290.546875 375.839844 292.402344 374.003906 294.6875 374.003906 Z M 294.6875 374.003906 " transform="matrix(0.2,0,0,0.2,0,0)"/>
<path style="fill:none;stroke-width:1;stroke-linecap:round;stroke-linejoin:round;stroke:rgb(58.039218%,58.039218%,58.039218%);stroke-opacity:1;stroke-miterlimit:4;" d="M 329.394531 374.003906 L 353.125 374.003906 C 355.410156 374.003906 357.265625 375.839844 357.265625 378.125 L 357.265625 401.875 C 357.265625 404.160156 355.410156 405.996094 353.125 405.996094 L 329.394531 405.996094 C 327.109375 405.996094 325.253906 404.160156 325.253906 401.875 L 325.253906 378.125 C 325.253906 375.839844 327.109375 374.003906 329.394531 374.003906 Z M 329.394531 374.003906 " transform="matrix(0.2,0,0,0.2,0,0)"/>
<path style="fill:none;stroke-width:1;stroke-linecap:round;stroke-linejoin:round;stroke:rgb(58.039218%,58.039218%,58.039218%);stroke-opacity:1;stroke-miterlimit:4;" d="M 364.082031 374.003906 L 387.832031 374.003906 C 390.117188 374.003906 391.953125 375.839844 391.953125 378.125 L 391.953125 401.875 C 391.953125 404.160156 390.117188 405.996094 387.832031 405.996094 L 364.082031 405.996094 C 361.816406 405.996094 359.960938 404.160156 359.960938 401.875 L 359.960938 378.125 C 359.960938 375.839844 361.816406 374.003906 364.082031 374.003906 Z M 364.082031 374.003906 " transform="matrix(0.2,0,0,0.2,0,0)"/>
<path style="fill:none;stroke-width:1;stroke-linecap:round;stroke-linejoin:round;stroke:rgb(58.039218%,58.039218%,58.039218%);stroke-opacity:1;stroke-miterlimit:4;" d="M 398.808594 374.003906 L 422.539062 374.003906 C 424.824219 374.003906 426.679688 375.839844 426.679688 378.125 L 426.679688 401.875 C 426.679688 404.160156 424.824219 405.996094 422.539062 405.996094 L 398.808594 405.996094 C 396.523438 405.996094 394.667969 404.160156 394.667969 401.875 L 394.667969 378.125 C 394.667969 375.839844 396.523438 374.003906 398.808594 374.003906 Z M 398.808594 374.003906 " transform="matrix(0.2,0,0,0.2,0,0)"/>
<path style="fill:none;stroke-width:1;stroke-linecap:round;stroke-linejoin:round;stroke:rgb(58.039218%,58.039218%,58.039218%);stroke-opacity:1;stroke-miterlimit:4;" d="M 433.515625 374.003906 L 457.246094 374.003906 C 459.53125 374.003906 461.386719 375.839844 461.386719 378.125 L 461.386719 401.875 C 461.386719 404.160156 459.53125 405.996094 457.246094 405.996094 L 433.515625 405.996094 C 431.230469 405.996094 429.375 404.160156 429.375 401.875 L 429.375 378.125 C 429.375 375.839844 431.230469 374.003906 433.515625 374.003906 Z M 433.515625 374.003906 " transform="matrix(0.2,0,0,0.2,0,0)"/>
<path style="fill:none;stroke-width:1;stroke-linecap:round;stroke-linejoin:round;stroke:rgb(58.039218%,58.039218%,58.039218%);stroke-opacity:1;stroke-miterlimit:4;" d="M 51.738281 408.203125 L 75.46875 408.203125 C 77.753906 408.203125 79.609375 410.058594 79.609375 412.324219 L 79.609375 436.074219 C 79.609375 438.359375 77.753906 440.195312 75.46875 440.195312 L 51.738281 440.195312 C 49.453125 440.195312 47.597656 438.359375 47.597656 436.074219 L 47.597656 412.324219 C 47.597656 410.058594 49.453125 408.203125 51.738281 408.203125 Z M 51.738281 408.203125 " transform="matrix(0.2,0,0,0.2,0,0)"/>
<path style="fill:none;stroke-width:1;stroke-linecap:round;stroke-linejoin:round;stroke:rgb(58.039218%,58.039218%,58.039218%);stroke-opacity:1;stroke-miterlimit:4;" d="M 86.445312 408.203125 L 110.175781 408.203125 C 112.460938 408.203125 114.316406 410.058594 114.316406 412.324219 L 114.316406 436.074219 C 114.316406 438.359375 112.460938 440.195312 110.175781 440.195312 L 86.445312 440.195312 C 84.160156 440.195312 82.304688 438.359375 82.304688 436.074219 L 82.304688 412.324219 C 82.304688 410.058594 84.160156 408.203125 86.445312 408.203125 Z M 86.445312 408.203125 " transform="matrix(0.2,0,0,0.2,0,0)"/>
<path style="fill:none;stroke-width:1;stroke-linecap:round;stroke-linejoin:round;stroke:rgb(58.039218%,58.039218%,58.039218%);stroke-opacity:1;stroke-miterlimit:4;" d="M 121.152344 408.203125 L 144.882812 408.203125 C 147.167969 408.203125 149.023438 410.058594 149.023438 412.324219 L 149.023438 436.074219 C 149.023438 438.359375 147.167969 440.195312 144.882812 440.195312 L 121.152344 440.195312 C 118.867188 440.195312 117.011719 438.359375 117.011719 436.074219 L 117.011719 412.324219 C 117.011719 410.058594 118.867188 408.203125 121.152344 408.203125 Z M 121.152344 408.203125 " transform="matrix(0.2,0,0,0.2,0,0)"/>
<path style="fill:none;stroke-width:1;stroke-linecap:round;stroke-linejoin:round;stroke:rgb(58.039218%,58.039218%,58.039218%);stroke-opacity:1;stroke-miterlimit:4;" d="M 155.859375 408.203125 L 179.589844 408.203125 C 181.875 408.203125 183.710938 410.058594 183.710938 412.324219 L 183.710938 436.074219 C 183.710938 438.359375 181.875 440.195312 179.589844 440.195312 L 155.859375 440.195312 C 153.574219 440.195312 151.71875 438.359375 151.71875 436.074219 L 151.71875 412.324219 C 151.71875 410.058594 153.574219 408.203125 155.859375 408.203125 Z M 155.859375 408.203125 " transform="matrix(0.2,0,0,0.2,0,0)"/>
<path style="fill:none;stroke-width:1;stroke-linecap:round;stroke-linejoin:round;stroke:rgb(58.039218%,58.039218%,58.039218%);stroke-opacity:1;stroke-miterlimit:4;" d="M 190.566406 408.203125 L 214.296875 408.203125 C 216.582031 408.203125 218.4375 410.058594 218.4375 412.324219 L 218.4375 436.074219 C 218.4375 438.359375 216.582031 440.195312 214.296875 440.195312 L 190.566406 440.195312 C 188.28125 440.195312 186.425781 438.359375 186.425781 436.074219 L 186.425781 412.324219 C 186.425781 410.058594 188.28125 408.203125 190.566406 408.203125 Z M 190.566406 408.203125 " transform="matrix(0.2,0,0,0.2,0,0)"/>
<path style="fill:none;stroke-width:1;stroke-linecap:round;stroke-linejoin:round;stroke:rgb(58.039218%,58.039218%,58.039218%);stroke-opacity:1;stroke-miterlimit:4;" d="M 225.273438 408.203125 L 249.003906 408.203125 C 251.289062 408.203125 253.144531 410.058594 253.144531 412.324219 L 253.144531 436.074219 C 253.144531 438.359375 251.289062 440.195312 249.003906 440.195312 L 225.273438 440.195312 C 222.988281 440.195312 221.132812 438.359375 221.132812 436.074219 L 221.132812 412.324219 C 221.132812 410.058594 222.988281 408.203125 225.273438 408.203125 Z M 225.273438 408.203125 " transform="matrix(0.2,0,0,0.2,0,0)"/>
<path style="fill:none;stroke-width:1;stroke-linecap:round;stroke-linejoin:round;stroke:rgb(58.039218%,58.039218%,58.039218%);stroke-opacity:1;stroke-miterlimit:4;" d="M 259.960938 408.203125 L 283.710938 408.203125 C 285.996094 408.203125 287.832031 410.058594 287.832031 412.324219 L 287.832031 436.074219 C 287.832031 438.359375 285.996094 440.195312 283.710938 440.195312 L 259.960938 440.195312 C 257.695312 440.195312 255.839844 438.359375 255.839844 436.074219 L 255.839844 412.324219 C 255.839844 410.058594 257.695312 408.203125 259.960938 408.203125 Z M 259.960938 408.203125 " transform="matrix(0.2,0,0,0.2,0,0)"/>
<path style="fill:none;stroke-width:1;stroke-linecap:round;stroke-linejoin:round;stroke:rgb(58.039218%,58.039218%,58.039218%);stroke-opacity:1;stroke-miterlimit:4;" d="M 294.6875 408.203125 L 318.417969 408.203125 C 320.703125 408.203125 322.558594 410.058594 322.558594 412.324219 L 322.558594 436.074219 C 322.558594 438.359375 320.703125 440.195312 318.417969 440.195312 L 294.6875 440.195312 C 292.402344 440.195312 290.546875 438.359375 290.546875 436.074219 L 290.546875 412.324219 C 290.546875 410.058594 292.402344 408.203125 294.6875 408.203125 Z M 294.6875 408.203125 " transform="matrix(0.2,0,0,0.2,0,0)"/>
<path style="fill:none;stroke-width:1;stroke-linecap:round;stroke-linejoin:round;stroke:rgb(58.039218%,58.039218%,58.039218%);stroke-opacity:1;stroke-miterlimit:4;" d="M 329.394531 408.203125 L 353.125 408.203125 C 355.410156 408.203125 357.265625 410.058594 357.265625 412.324219 L 357.265625 436.074219 C 357.265625 438.359375 355.410156 440.195312 353.125 440.195312 L 329.394531 440.195312 C 327.109375 440.195312 325.253906 438.359375 325.253906 436.074219 L 325.253906 412.324219 C 325.253906 410.058594 327.109375 408.203125 329.394531 408.203125 Z M 329.394531 408.203125 " transform="matrix(0.2,0,0,0.2,0,0)"/>
<path style="fill:none;stroke-width:1;stroke-linecap:round;stroke-linejoin:round;stroke:rgb(58.039218%,58.039218%,58.039218%);stroke-opacity:1;stroke-miterlimit:4;" d="M 364.082031 408.203125 L 387.832031 408.203125 C 390.117188 408.203125 391.953125 410.058594 391.953125 412.324219 L 391.953125 436.074219 C 391.953125 438.359375 390.117188 440.195312 387.832031 440.195312 L 364.082031 440.195312 C 361.816406 440.195312 359.960938 438.359375 359.960938 436.074219 L 359.960938 412.324219 C 359.960938 410.058594 361.816406 408.203125 364.082031 408.203125 Z M 364.082031 408.203125 " transform="matrix(0.2,0,0,0.2,0,0)"/>
<path style="fill:none;stroke-width:1;stroke-linecap:round;stroke-linejoin:round;stroke:rgb(58.039218%,58.039218%,58.039218%);stroke-opacity:1;stroke-miterlimit:4;" d="M 398.808594 408.203125 L 422.539062 408.203125 C 424.824219 408.203125 426.679688 410.058594 426.679688 412.324219 L 426.679688 436.074219 C 426.679688 438.359375 424.824219 440.195312 422.539062 440.195312 L 398.808594 440.195312 C 396.523438 440.195312 394.667969 438.359375 394.667969 436.074219 L 394.667969 412.324219 C 394.667969 410.058594 396.523438 408.203125 398.808594 408.203125 Z M 398.808594 408.203125 " transform="matrix(0.2,0,0,0.2,0,0)"/>
<path style="fill:none;stroke-width:1;stroke-linecap:round;stroke-linejoin:round;stroke:rgb(58.039218%,58.039218%,58.039218%);stroke-opacity:1;stroke-miterlimit:4;" d="M 433.515625 408.203125 L 457.246094 408.203125 C 459.53125 408.203125 461.386719 410.058594 461.386719 412.324219 L 461.386719 436.074219 C 461.386719 438.359375 459.53125 440.195312 457.246094 440.195312 L 433.515625 440.195312 C 431.230469 440.195312 429.375 438.359375 429.375 436.074219 L 429.375 412.324219 C 429.375 410.058594 431.230469 408.203125 433.515625 408.203125 Z M 433.515625 408.203125 " transform="matrix(0.2,0,0,0.2,0,0)"/>
<path style="fill-rule:nonzero;fill:rgb(100%,100%,100%);fill-opacity:1;stroke-width:1;stroke-linecap:butt;stroke-linejoin:miter;stroke:rgb(14.901961%,19.607843%,21.960784%);stroke-opacity:1;stroke-miterlimit:10;" d="M 362.695312 101.992188 C 362.695312 101.992188 378.691406 134.003906 382.695312 150 C 386.699219 165.996094 381.367188 188.671875 381.367188 194.003906 C 381.367188 199.335938 390.683594 235.332031 396.015625 244.003906 C 401.347656 252.65625 400.683594 257.34375 400.683594 257.34375 C 400.683594 257.34375 386.015625 264.667969 378.027344 267.34375 L 370 270 C 370 270 348.007812 231.347656 346.679688 220 C 345.332031 208.652344 354.667969 178.671875 355.996094 155.332031 C 357.324219 132.011719 355.996094 88.007812 362.695312 101.992188 Z M 362.695312 101.992188 " transform="matrix(0.2,0,0,0.2,0,0)"/>
<path style="fill-rule:nonzero;fill:rgb(100%,47.450981%,77.64706%);fill-opacity:1;stroke-width:1;stroke-linecap:butt;stroke-linejoin:miter;stroke:rgb(14.901961%,19.607843%,21.960784%);stroke-opacity:1;stroke-miterlimit:10;" d="M 256.40625 218.808594 C 256.40625 218.808594 244.414062 222.421875 240.117188 226.054688 C 235.800781 229.6875 196.289062 293.808594 194.101562 299.238281 C 191.933594 304.667969 198.105469 317.695312 207.519531 326.035156 C 216.914062 334.355469 222.734375 359.355469 222.734375 359.355469 L 197.363281 449.199219 L 375.585938 449.199219 C 376.328125 444.863281 373.457031 430.351562 354.941406 404.648438 C 346.933594 393.574219 341.542969 386.171875 341.542969 386.171875 L 344.082031 378.554688 C 344.082031 378.554688 354.941406 371.308594 362.558594 349.21875 C 370.15625 327.128906 374.863281 298.867188 375.957031 286.210938 C 377.03125 273.574219 377.753906 253.222656 371.953125 240.9375 C 366.132812 228.652344 350.957031 225.722656 350.957031 225.722656 C 350.957031 225.722656 302.773438 217.382812 298.066406 216.308594 C 293.359375 215.234375 256.40625 218.808594 256.40625 218.808594 Z M 256.40625 218.808594 " transform="matrix(0.2,0,0,0.2,0,0)"/>
<path style="fill-rule:nonzero;fill:rgb(100%,100%,100%);fill-opacity:1;stroke-width:1;stroke-linecap:butt;stroke-linejoin:miter;stroke:rgb(14.901961%,19.607843%,21.960784%);stroke-opacity:1;stroke-miterlimit:10;" d="M 242.011719 375.234375 L 237.148438 449.179688 L 244.921875 449.179688 L 246.386719 375.234375 Z M 242.011719 375.234375 " transform="matrix(0.2,0,0,0.2,0,0)"/>
<path style="fill-rule:nonzero;fill:rgb(100%,100%,100%);fill-opacity:1;stroke-width:1;stroke-linecap:butt;stroke-linejoin:miter;stroke:rgb(14.901961%,19.607843%,21.960784%);stroke-opacity:1;stroke-miterlimit:10;" d="M 248.671875 375.234375 L 251.269531 449.179688 L 259.042969 449.179688 L 253.046875 375.234375 Z M 248.671875 375.234375 " transform="matrix(0.2,0,0,0.2,0,0)"/>
<path style="fill:none;stroke-width:1;stroke-linecap:butt;stroke-linejoin:miter;stroke:rgb(14.901961%,19.607843%,21.960784%);stroke-opacity:1;stroke-miterlimit:10;" d="M 328.613281 421.132812 C 328.789062 423.027344 328.90625 424.902344 328.964844 426.71875 " transform="matrix(0.2,0,0,0.2,0,0)"/>
<path style="fill:none;stroke-width:1;stroke-linecap:butt;stroke-linejoin:miter;stroke:rgb(14.901961%,19.607843%,21.960784%);stroke-opacity:1;stroke-miterlimit:10;" d="M 321.757812 388.066406 C 324.375 396.855469 326.40625 405.820312 327.832031 414.882812 " transform="matrix(0.2,0,0,0.2,0,0)"/>
<path style="fill:none;stroke-width:1;stroke-linecap:butt;stroke-linejoin:miter;stroke:rgb(14.901961%,19.607843%,21.960784%);stroke-opacity:1;stroke-miterlimit:10;" d="M 309.648438 402.5 C 309.921875 412.5 309.804688 425.878906 307.832031 435.996094 " transform="matrix(0.2,0,0,0.2,0,0)"/>
<path style="fill:none;stroke-width:1;stroke-linecap:butt;stroke-linejoin:miter;stroke:rgb(14.901961%,19.607843%,21.960784%);stroke-opacity:1;stroke-miterlimit:10;" d="M 308.867188 388.066406 C 308.867188 388.066406 309.140625 391.054688 309.375 395.820312 " transform="matrix(0.2,0,0,0.2,0,0)"/>
<path style="fill:none;stroke-width:1;stroke-linecap:butt;stroke-linejoin:miter;stroke:rgb(14.901961%,19.607843%,21.960784%);stroke-opacity:1;stroke-miterlimit:10;" d="M 316.074219 379.824219 C 321.09375 376.484375 325.917969 372.871094 330.527344 369.003906 " transform="matrix(0.2,0,0,0.2,0,0)"/>
<path style="fill-rule:nonzero;fill:rgb(100%,100%,100%);fill-opacity:1;stroke-width:1;stroke-linecap:butt;stroke-linejoin:miter;stroke:rgb(14.901961%,19.607843%,21.960784%);stroke-opacity:1;stroke-miterlimit:10;" d="M 344.082031 378.554688 C 344.082031 378.554688 326.367188 382.304688 301.699219 379.316406 C 277.011719 376.308594 274.003906 375.644531 274.003906 375.644531 C 274.003906 375.644531 275 380.976562 286.992188 382.96875 C 299.003906 384.960938 309.375 388.359375 341.523438 386.171875 C 341.542969 386.171875 346.132812 383.476562 344.082031 378.554688 Z M 344.082031 378.554688 " transform="matrix(0.2,0,0,0.2,0,0)"/>
<path style="fill-rule:nonzero;fill:rgb(100%,100%,100%);fill-opacity:1;stroke-width:1;stroke-linecap:butt;stroke-linejoin:miter;stroke:rgb(14.901961%,19.607843%,21.960784%);stroke-opacity:1;stroke-miterlimit:10;" d="M 215.683594 283.007812 C 215.683594 283.007812 195.996094 290.644531 190 293.632812 C 184.003906 296.640625 181.347656 308.964844 181.992188 316.640625 C 182.65625 324.316406 186.992188 353.964844 186.992188 359.316406 C 186.992188 364.648438 194.003906 368.300781 201.679688 369.960938 C 209.335938 371.621094 224.003906 373.632812 229.667969 371.308594 C 235.332031 368.984375 239.84375 358.710938 240.097656 344.511719 C 240.332031 330.3125 235 304.003906 233.359375 293.300781 C 231.71875 282.617188 215.683594 283.007812 215.683594 283.007812 Z M 215.683594 283.007812 " transform="matrix(0.2,0,0,0.2,0,0)"/>
<path style="fill-rule:nonzero;fill:rgb(100%,100%,100%);fill-opacity:1;stroke-width:1;stroke-linecap:butt;stroke-linejoin:miter;stroke:rgb(14.901961%,19.607843%,21.960784%);stroke-opacity:1;stroke-miterlimit:10;" d="M 232.148438 221.71875 C 232.148438 221.71875 218.378906 209.707031 217.285156 208.300781 C 216.191406 206.914062 217.65625 203.59375 217.65625 203.59375 C 217.65625 203.59375 227.792969 192.363281 227.792969 190.195312 C 227.792969 188.007812 224.902344 189.101562 222.734375 190.917969 C 222.734375 190.917969 224.179688 186.210938 222.363281 186.210938 C 220.546875 186.210938 216.601562 189.511719 214.355469 191.328125 C 212.871094 192.714844 211.757812 194.453125 211.132812 196.386719 C 211.132812 196.386719 211.503906 188.027344 208.964844 189.101562 C 206.425781 190.195312 205.703125 196.71875 204.609375 200.332031 C 203.515625 203.964844 200.605469 214.101562 200.605469 214.101562 L 202.773438 219.179688 L 197.34375 215.175781 C 197.34375 215.175781 196.621094 202.167969 196.269531 199.589844 C 195.898438 197.011719 192.636719 198.144531 192.636719 205.390625 C 192.65625 210.976562 193.144531 216.542969 194.082031 222.050781 C 194.453125 223.496094 218.359375 241.25 220.175781 243.046875 C 222.207031 244.785156 224.394531 246.367188 226.699219 247.753906 C 226.699219 247.753906 221.621094 264.0625 217.265625 274.921875 C 212.929688 285.800781 207.480469 298.847656 206.035156 307.167969 C 204.589844 315.507812 212.558594 330.703125 213.652344 332.519531 C 214.746094 334.335938 224.140625 341.933594 228.496094 333.613281 C 232.851562 325.273438 237.929688 288.691406 239.726562 273.125 C 241.542969 257.558594 242.636719 245.957031 243.730469 241.230469 C 244.824219 236.523438 243.378906 220.585938 241.914062 216.972656 C 240.46875 213.359375 233.867188 211.972656 231.699219 207.285156 C 229.511719 202.597656 226.699219 197.402344 225.253906 202.128906 C 223.828125 206.835938 225.625 208.632812 227.070312 211.894531 C 228.515625 215.15625 232.148438 221.71875 232.148438 221.71875 Z M 232.148438 221.71875 " transform="matrix(0.2,0,0,0.2,0,0)"/>
<path style="fill:none;stroke-width:1;stroke-linecap:butt;stroke-linejoin:miter;stroke:rgb(14.901961%,19.607843%,21.960784%);stroke-opacity:1;stroke-miterlimit:10;" d="M 211.132812 196.386719 C 211.074219 198.574219 210.820312 200.742188 210.410156 202.871094 C 209.6875 206.875 208.964844 211.5625 208.964844 211.5625 L 213.671875 217.363281 " transform="matrix(0.2,0,0,0.2,0,0)"/>
<path style="fill:none;stroke-width:1;stroke-linecap:butt;stroke-linejoin:miter;stroke:rgb(14.901961%,19.607843%,21.960784%);stroke-opacity:1;stroke-miterlimit:10;" d="M 222.734375 190.917969 C 222.734375 190.917969 220.253906 193.867188 218.984375 195.390625 C 217.734375 196.933594 215.332031 199.335938 215.332031 199.335938 C 215.332031 199.335938 213.222656 208.730469 213.222656 209.160156 C 213.222656 209.589844 217.167969 213.925781 217.167969 213.925781 " transform="matrix(0.2,0,0,0.2,0,0)"/>
<path style="fill:none;stroke-width:1;stroke-linecap:butt;stroke-linejoin:miter;stroke:rgb(14.901961%,19.607843%,21.960784%);stroke-opacity:1;stroke-miterlimit:10;" d="M 202.792969 219.179688 L 207.363281 222.636719 " transform="matrix(0.2,0,0,0.2,0,0)"/>
<path style="fill:none;stroke-width:1;stroke-linecap:butt;stroke-linejoin:miter;stroke:rgb(14.901961%,19.607843%,21.960784%);stroke-opacity:1;stroke-miterlimit:10;" d="M 207.695312 223.964844 L 219.023438 213.964844 " transform="matrix(0.2,0,0,0.2,0,0)"/>
<path style="fill:none;stroke-width:1;stroke-linecap:butt;stroke-linejoin:miter;stroke:rgb(14.901961%,19.607843%,21.960784%);stroke-opacity:1;stroke-miterlimit:10;" d="M 225.351562 230.3125 C 225.351562 230.3125 234.6875 234.648438 235.019531 240.644531 C 235.351562 246.640625 232.363281 248.632812 232.363281 248.632812 " transform="matrix(0.2,0,0,0.2,0,0)"/>
<path style="fill-rule:nonzero;fill:rgb(100%,100%,100%);fill-opacity:1;stroke-width:1;stroke-linecap:butt;stroke-linejoin:miter;stroke:rgb(14.901961%,19.607843%,21.960784%);stroke-opacity:1;stroke-miterlimit:10;" d="M 277.050781 213.007812 C 277.050781 213.007812 258.59375 215.898438 256.40625 218.789062 C 254.238281 221.699219 252.792969 253.574219 252.402344 276.796875 C 252.03125 300.019531 255.3125 313.789062 255.3125 313.789062 L 240.097656 344.570312 L 247.34375 349.648438 C 247.34375 349.648438 311.09375 285.898438 320.15625 273.222656 C 329.21875 260.546875 355.644531 230.46875 355.644531 227.226562 C 355.644531 223.964844 338.261719 217.792969 332.460938 216.367188 C 326.660156 214.921875 317.246094 214.902344 307.109375 213.828125 C 296.972656 212.734375 277.050781 213.007812 277.050781 213.007812 Z M 277.050781 213.007812 " transform="matrix(0.2,0,0,0.2,0,0)"/>
<path style="fill:none;stroke-width:1;stroke-linecap:butt;stroke-linejoin:miter;stroke:rgb(14.901961%,19.607843%,21.960784%);stroke-opacity:1;stroke-miterlimit:10;" d="M 270.917969 295.898438 L 255.332031 313.710938 " transform="matrix(0.2,0,0,0.2,0,0)"/>
<path style="fill-rule:nonzero;fill:rgb(100%,100%,100%);fill-opacity:1;stroke-width:1;stroke-linecap:butt;stroke-linejoin:miter;stroke:rgb(14.901961%,19.607843%,21.960784%);stroke-opacity:1;stroke-miterlimit:10;" d="M 255.3125 104.941406 C 255.3125 104.941406 238.867188 124.765625 238.867188 131.503906 C 238.867188 138.242188 238.867188 148.789062 236.347656 152.578125 C 233.828125 156.386719 224.121094 160.585938 226.230469 165.214844 C 227.519531 167.988281 230.019531 170.019531 233.007812 170.703125 C 233.007812 170.703125 239.335938 193.046875 242.695312 198.515625 C 246.074219 204.003906 253.691406 204.84375 257.03125 204.003906 C 260.351562 203.164062 268.417969 198.515625 268.417969 198.515625 C 268.417969 198.515625 278.535156 218.320312 278.945312 221.289062 C 279.375 224.238281 269.257812 282.402344 269.257812 288.28125 C 269.257812 294.160156 270.9375 295.878906 270.9375 295.878906 C 270.9375 295.878906 315.625 233.066406 320.253906 227.167969 C 324.902344 221.269531 328.691406 217.050781 328.691406 217.050781 C 328.691406 217.050781 318.144531 203.144531 314.355469 193.046875 C 310.566406 182.96875 309.296875 179.980469 311.40625 177.050781 C 313.515625 174.121094 316.875 169.472656 316.875 169.472656 C 316.875 169.472656 283.59375 130.683594 272.636719 116.777344 C 261.679688 102.871094 259.101562 99.882812 255.3125 104.941406 Z M 255.3125 104.941406 " transform="matrix(0.2,0,0,0.2,0,0)"/>
<path style="fill-rule:nonzero;fill:rgb(14.901961%,19.607843%,21.960784%);fill-opacity:1;stroke-width:1;stroke-linecap:butt;stroke-linejoin:miter;stroke:rgb(14.901961%,19.607843%,21.960784%);stroke-opacity:1;stroke-miterlimit:10;" d="M 268.378906 198.515625 L 282.011719 189.316406 L 272.695312 204.648438 Z M 268.378906 198.515625 " transform="matrix(0.2,0,0,0.2,0,0)"/>
<path style="fill:none;stroke-width:1;stroke-linecap:round;stroke-linejoin:miter;stroke:rgb(14.901961%,19.607843%,21.960784%);stroke-opacity:1;stroke-miterlimit:10;" d="M 249.6875 145.351562 L 248.242188 149.101562 " transform="matrix(0.2,0,0,0.2,0,0)"/>
<path style="fill:none;stroke-width:2;stroke-linecap:round;stroke-linejoin:miter;stroke:rgb(14.901961%,19.607843%,21.960784%);stroke-opacity:1;stroke-miterlimit:10;" d="M 257.792969 149.6875 C 257.792969 149.6875 248.808594 152.304688 244.199219 148.242188 " transform="matrix(0.2,0,0,0.2,0,0)"/>
<path style=" stroke:none;fill-rule:nonzero;fill:rgb(14.901961%,19.607843%,21.960784%);fill-opacity:1;" d="M 51.28125 20.734375 C 51.203125 20.8125 51.128906 20.898438 51.0625 20.988281 C 51.0625 20.988281 50.382812 21.808594 49.640625 22.832031 C 50.496094 23.632812 52.699219 25.644531 53.507812 26.046875 C 54.464844 26.527344 51.714844 21.480469 51.28125 20.734375 Z M 51.28125 20.734375 "/>
<path style="fill-rule:nonzero;fill:rgb(14.901961%,19.607843%,21.960784%);fill-opacity:1;stroke-width:1;stroke-linecap:butt;stroke-linejoin:miter;stroke:rgb(14.901961%,19.607843%,21.960784%);stroke-opacity:1;stroke-miterlimit:10;" d="M 300 162.265625 C 300 162.265625 303.457031 172.070312 306.835938 175.097656 C 310.214844 178.105469 312.832031 175.097656 316.230469 170.566406 C 319.628906 166.054688 316.972656 160.429688 315.488281 160.429688 C 313.984375 160.429688 300.058594 157.421875 300.058594 157.421875 Z M 300 162.265625 " transform="matrix(0.2,0,0,0.2,0,0)"/>
<path style="fill:none;stroke-width:1;stroke-linecap:butt;stroke-linejoin:miter;stroke:rgb(14.901961%,19.607843%,21.960784%);stroke-opacity:1;stroke-miterlimit:10;" d="M 286.074219 165.644531 C 286.074219 165.644531 288.183594 173.632812 294.082031 171.542969 C 299.960938 169.433594 299.980469 162.265625 299.980469 162.265625 " transform="matrix(0.2,0,0,0.2,0,0)"/>
<path style="fill:none;stroke-width:2;stroke-linecap:round;stroke-linejoin:miter;stroke:rgb(14.901961%,19.607843%,21.960784%);stroke-opacity:1;stroke-miterlimit:10;" d="M 245.625 139.003906 C 245.625 139.003906 251.425781 134.082031 256.347656 139.863281 " transform="matrix(0.2,0,0,0.2,0,0)"/>
<path style=" stroke:none;fill-rule:nonzero;fill:rgb(14.901961%,19.607843%,21.960784%);fill-opacity:1;" d="M 50.171875 30.660156 C 50.171875 31.03125 50.054688 31.328125 49.910156 31.328125 C 49.765625 31.328125 49.648438 31.03125 49.648438 30.660156 C 49.648438 30.292969 49.765625 29.996094 49.910156 29.996094 C 50.054688 29.996094 50.171875 30.292969 50.171875 30.660156 Z M 50.171875 30.660156 "/>
<path style="fill:none;stroke-width:1;stroke-linecap:round;stroke-linejoin:miter;stroke:rgb(14.901961%,19.607843%,21.960784%);stroke-opacity:1;stroke-miterlimit:10;" d="M 236.367188 176.914062 C 236.367188 176.914062 240.703125 180.097656 245.371094 172.851562 " transform="matrix(0.2,0,0,0.2,0,0)"/>
<path style="fill-rule:nonzero;fill:rgb(100%,100%,100%);fill-opacity:1;stroke-width:1;stroke-linecap:butt;stroke-linejoin:miter;stroke:rgb(14.901961%,19.607843%,21.960784%);stroke-opacity:1;stroke-miterlimit:10;" d="M 247.734375 101.152344 C 247.734375 101.152344 262.890625 128.144531 270.078125 138.242188 C 277.246094 148.320312 310.527344 169.003906 313.066406 171.113281 C 315.605469 173.222656 321.914062 171.953125 323.613281 170.703125 C 325.292969 169.433594 342.617188 163.535156 348.066406 152.148438 C 353.515625 140.761719 359.0625 112.539062 352.265625 98.613281 C 345.488281 84.707031 325.722656 77.128906 313.90625 75.859375 C 307.011719 75.078125 300.019531 75.507812 293.261719 77.128906 C 293.261719 77.128906 287.773438 75.019531 280.605469 78.808594 C 273.4375 82.597656 271.757812 84.707031 271.757812 84.707031 C 271.757812 84.707031 256.582031 89.355469 247.734375 101.152344 Z M 247.734375 101.152344 " transform="matrix(0.2,0,0,0.2,0,0)"/>
<path style="fill-rule:nonzero;fill:rgb(100%,100%,100%);fill-opacity:1;stroke-width:1;stroke-linecap:butt;stroke-linejoin:miter;stroke:rgb(14.901961%,19.607843%,21.960784%);stroke-opacity:1;stroke-miterlimit:10;" d="M 299.570312 75.859375 C 299.570312 75.859375 308.007812 69.53125 314.746094 67.851562 C 321.503906 66.171875 340.46875 70.390625 347.207031 74.179688 C 353.945312 77.96875 369.960938 112.128906 372.929688 123.085938 C 375.878906 134.042969 369.121094 152.597656 368.691406 163.535156 C 368.28125 174.492188 382.1875 211.601562 383.886719 216.230469 C 385.566406 220.859375 385.976562 220.878906 375.878906 226.777344 C 365.78125 232.675781 339.628906 239.003906 333.28125 241.09375 C 326.953125 243.183594 320.234375 227.597656 315.996094 212.421875 C 311.777344 197.265625 313.046875 180.429688 317.265625 158.066406 C 321.484375 135.683594 324.433594 115.488281 322.324219 98.613281 C 320.214844 81.757812 308.007812 75 299.570312 75.859375 Z M 299.570312 75.859375 " transform="matrix(0.2,0,0,0.2,0,0)"/>
<path style="fill:none;stroke-width:1;stroke-linecap:butt;stroke-linejoin:miter;stroke:rgb(14.901961%,19.607843%,21.960784%);stroke-opacity:1;stroke-miterlimit:10;" d="M 293.242188 77.128906 C 301.230469 82.988281 306.894531 91.484375 309.257812 101.113281 C 313.046875 117.128906 318.105469 125.117188 321.894531 128.125 " transform="matrix(0.2,0,0,0.2,0,0)"/>
<path style="fill:none;stroke-width:1;stroke-linecap:butt;stroke-linejoin:miter;stroke:rgb(14.901961%,19.607843%,21.960784%);stroke-opacity:1;stroke-miterlimit:10;" d="M 271.757812 84.707031 C 271.757812 84.707031 301.367188 94.316406 313.59375 114.550781 " transform="matrix(0.2,0,0,0.2,0,0)"/>
<path style="fill-rule:nonzero;fill:rgb(100%,100%,100%);fill-opacity:1;stroke-width:1;stroke-linecap:butt;stroke-linejoin:miter;stroke:rgb(14.901961%,19.607843%,21.960784%);stroke-opacity:1;stroke-miterlimit:10;" d="M 142.309376 183.310063 C 142.299246 161.710799 134.836291 144.190396 125.636907 144.191743 C 116.437522 144.193091 108.974184 161.703115 108.984314 183.30238 C 108.987812 204.920015 116.432396 222.433786 125.63178 222.432438 C 134.831165 222.431091 142.294503 204.921066 142.309376 183.310063 Z M 142.309376 183.310063 " transform="matrix(0.188117,-0.0679118,0.0679118,0.188117,-10.958,10.712)"/>
<path style="fill-rule:nonzero;fill:rgb(100%,100%,100%);fill-opacity:1;stroke-width:1;stroke-linecap:butt;stroke-linejoin:miter;stroke:rgb(14.901961%,19.607843%,21.960784%);stroke-opacity:1;stroke-miterlimit:10;" d="M 144.115229 182.950321 C 144.130102 161.339318 136.660515 143.837286 127.461131 143.838633 C 118.261746 143.839981 110.798408 161.350006 110.808538 182.94927 C 110.793665 204.560273 118.263252 222.062305 127.462636 222.060958 C 136.655389 222.077981 144.125359 204.549586 144.115229 182.950321 Z M 144.115229 182.950321 " transform="matrix(0.188117,-0.0679118,0.0679118,0.188117,-10.91,10.832)"/>
<path style="fill:none;stroke-width:1;stroke-linecap:round;stroke-linejoin:miter;stroke:rgb(14.901961%,19.607843%,21.960784%);stroke-opacity:1;stroke-miterlimit:10;" d="M 127.324219 197.421875 L 127.167969 200.761719 " transform="matrix(0.2,0,0,0.2,0,0)"/>
<path style="fill:none;stroke-width:1;stroke-linecap:round;stroke-linejoin:miter;stroke:rgb(14.901961%,19.607843%,21.960784%);stroke-opacity:1;stroke-miterlimit:10;" d="M 129.355469 156.074219 L 127.539062 193.203125 " transform="matrix(0.2,0,0,0.2,0,0)"/>
<path style="fill:none;stroke-width:1;stroke-linecap:round;stroke-linejoin:miter;stroke:rgb(14.901961%,19.607843%,21.960784%);stroke-opacity:1;stroke-miterlimit:10;" d="M 124.53125 166.152344 L 123.222656 189.804688 " transform="matrix(0.2,0,0,0.2,0,0)"/>
<path style="fill:none;stroke-width:1;stroke-linecap:round;stroke-linejoin:miter;stroke:rgb(14.901961%,19.607843%,21.960784%);stroke-opacity:1;stroke-miterlimit:10;" d="M 142.675781 211.445312 L 142.480469 213.457031 " transform="matrix(0.2,0,0,0.2,0,0)"/>
<path style="fill:none;stroke-width:1;stroke-linecap:round;stroke-linejoin:miter;stroke:rgb(14.901961%,19.607843%,21.960784%);stroke-opacity:1;stroke-miterlimit:10;" d="M 144.257812 194.628906 L 143.105469 206.894531 " transform="matrix(0.2,0,0,0.2,0,0)"/>
<path style="fill-rule:nonzero;fill:rgb(14.901961%,19.607843%,21.960784%);fill-opacity:1;stroke-width:1;stroke-linecap:butt;stroke-linejoin:miter;stroke:rgb(14.901961%,19.607843%,21.960784%);stroke-opacity:1;stroke-miterlimit:10;" d="M 138.925781 220.117188 L 150.957031 253.4375 L 158.398438 249.0625 L 141.992188 218.945312 Z M 138.925781 220.117188 " transform="matrix(0.2,0,0,0.2,0,0)"/>
<path style="fill-rule:nonzero;fill:rgb(100%,100%,100%);fill-opacity:1;stroke-width:1;stroke-linecap:butt;stroke-linejoin:miter;stroke:rgb(14.901961%,19.607843%,21.960784%);stroke-opacity:1;stroke-miterlimit:10;" d="M 224.902344 325.996094 C 224.902344 325.996094 193.378906 308.242188 185.78125 298.847656 C 182.011719 294.335938 178.515625 289.609375 175.273438 284.707031 C 175.273438 284.707031 172.734375 264.414062 171.640625 258.261719 C 170.566406 252.128906 162.597656 239.785156 161.132812 235.449219 C 159.921875 231.660156 159.082031 227.792969 158.613281 223.847656 C 158.242188 220.957031 154.257812 221.679688 152.441406 225.664062 C 150.644531 229.648438 153.535156 236.523438 153.90625 239.0625 C 154.21875 240.917969 154.707031 242.734375 155.351562 244.492188 C 155.351562 244.492188 144.472656 234.355469 143.359375 233.632812 C 142.226562 232.890625 139.726562 232.910156 139.003906 236.894531 C 138.28125 240.878906 141.542969 245.957031 141.542969 245.957031 C 141.542969 245.957031 136.113281 249.941406 136.113281 252.460938 C 136.191406 254.648438 136.445312 256.835938 136.835938 258.984375 C 136.835938 258.984375 134.296875 267.675781 134.667969 269.863281 C 135.019531 272.03125 138.28125 278.554688 138.28125 278.554688 C 138.28125 278.554688 134.277344 278.90625 133.203125 277.832031 C 132.148438 276.757812 129.589844 270.9375 128.144531 272.382812 C 126.699219 273.847656 127.421875 279.277344 128.144531 281.09375 C 128.867188 282.890625 132.148438 282.890625 134.296875 285.429688 C 136.464844 287.96875 146.25 288.320312 148.066406 289.433594 C 149.863281 290.527344 169.804688 310.429688 179.21875 319.492188 C 188.632812 328.554688 215.800781 355.351562 217.617188 358.613281 C 219.414062 361.875 224.492188 365.859375 224.492188 365.859375 Z M 224.902344 325.996094 " transform="matrix(0.2,0,0,0.2,0,0)"/>
<path style="fill:none;stroke-width:1;stroke-linecap:butt;stroke-linejoin:miter;stroke:rgb(14.901961%,19.607843%,21.960784%);stroke-opacity:1;stroke-miterlimit:10;" d="M 155.351562 244.53125 L 164.765625 252.851562 " transform="matrix(0.2,0,0,0.2,0,0)"/>
<path style="fill:none;stroke-width:1;stroke-linecap:butt;stroke-linejoin:miter;stroke:rgb(14.901961%,19.607843%,21.960784%);stroke-opacity:1;stroke-miterlimit:10;" d="M 141.582031 245.976562 L 147.382812 255.390625 " transform="matrix(0.2,0,0,0.2,0,0)"/>
<path style="fill:none;stroke-width:1;stroke-linecap:butt;stroke-linejoin:miter;stroke:rgb(14.901961%,19.607843%,21.960784%);stroke-opacity:1;stroke-miterlimit:10;" d="M 136.875 259.023438 L 141.582031 267.714844 " transform="matrix(0.2,0,0,0.2,0,0)"/>
<path style="fill-rule:nonzero;fill:rgb(100%,47.450981%,77.64706%);fill-opacity:1;stroke-width:1;stroke-linecap:butt;stroke-linejoin:miter;stroke:rgb(14.901961%,19.607843%,21.960784%);stroke-opacity:1;stroke-miterlimit:10;" d="M 333.203125 264.453125 L 275.214844 333.28125 C 275.214844 333.28125 270.507812 331.113281 268.691406 332.929688 C 267.695312 333.886719 266.835938 334.980469 266.152344 336.171875 L 255.644531 333.28125 C 255.644531 333.28125 231.738281 322.402344 227.03125 322.402344 C 222.324219 322.402344 220.878906 323.144531 220.878906 324.941406 C 220.878906 326.757812 221.230469 394.863281 221.230469 399.570312 C 221.230469 404.277344 221.601562 408.632812 227.753906 410.800781 C 233.925781 412.96875 253.476562 416.230469 258.90625 415.878906 C 264.335938 415.507812 268.691406 412.246094 270.136719 409.355469 C 271.582031 406.445312 271.582031 394.140625 271.582031 394.140625 C 271.582031 394.140625 286.796875 395.957031 297.675781 386.894531 C 308.535156 377.832031 343.300781 326.757812 348.378906 319.882812 C 353.457031 313.027344 364.6875 295.253906 367.949219 288.730469 " transform="matrix(0.2,0,0,0.2,0,0)"/>
<path style="fill-rule:nonzero;fill:rgb(100%,100%,100%);fill-opacity:1;stroke-width:1;stroke-linecap:butt;stroke-linejoin:miter;stroke:rgb(14.901961%,19.607843%,21.960784%);stroke-opacity:1;stroke-miterlimit:10;" d="M 259.902344 334.433594 L 255.683594 333.28125 C 255.683594 333.28125 231.777344 322.402344 227.070312 322.402344 C 222.363281 322.402344 220.917969 323.144531 220.917969 324.941406 C 220.917969 326.757812 221.289062 394.863281 221.289062 399.570312 C 221.289062 404.277344 221.640625 408.632812 227.792969 410.800781 C 233.964844 412.96875 253.515625 416.230469 258.945312 415.878906 C 264.375 415.507812 268.730469 412.246094 270.175781 409.355469 C 271.621094 406.445312 271.621094 394.140625 271.621094 394.140625 C 271.621094 394.140625 267.636719 349.21875 260.390625 335.097656 Z M 259.902344 334.433594 " transform="matrix(0.2,0,0,0.2,0,0)"/>
<path style="fill:none;stroke-width:1;stroke-linecap:butt;stroke-linejoin:miter;stroke:rgb(14.901961%,19.607843%,21.960784%);stroke-opacity:1;stroke-miterlimit:10;" d="M 351.679688 315.527344 C 351.679688 315.527344 362.910156 307.207031 367.265625 299.238281 " transform="matrix(0.2,0,0,0.2,0,0)"/>
<path style="fill:none;stroke-width:1;stroke-linecap:butt;stroke-linejoin:miter;stroke:rgb(14.901961%,19.607843%,21.960784%);stroke-opacity:1;stroke-miterlimit:10;" d="M 281.855469 356.074219 C 282.207031 356.914062 282.539062 357.753906 282.851562 358.632812 " transform="matrix(0.2,0,0,0.2,0,0)"/>
<path style="fill:none;stroke-width:1;stroke-linecap:butt;stroke-linejoin:miter;stroke:rgb(14.901961%,19.607843%,21.960784%);stroke-opacity:1;stroke-miterlimit:10;" d="M 266.191406 336.171875 C 272.089844 340.449219 276.894531 346.054688 280.195312 352.558594 " transform="matrix(0.2,0,0,0.2,0,0)"/>
<path style="fill:none;stroke-width:1;stroke-linecap:butt;stroke-linejoin:miter;stroke:rgb(14.901961%,19.607843%,21.960784%);stroke-opacity:1;stroke-miterlimit:10;" d="M 276.347656 335.097656 C 276.347656 335.097656 283.574219 339.804688 285.742188 345.957031 " transform="matrix(0.2,0,0,0.2,0,0)"/>
<path style=" stroke:none;fill-rule:nonzero;fill:rgb(100%,47.450981%,77.64706%);fill-opacity:1;" d="M 54.242188 34.03125 C 54.175781 34.03125 54.144531 34.019531 54.140625 33.996094 C 54.636719 33.75 55.019531 33.46875 55.164062 33.199219 C 55.621094 32.363281 54.636719 31.90625 53.800781 32.136719 C 53.800781 32.136719 51.550781 32.597656 50.414062 33.050781 C 49.277344 33.507812 49.097656 34.484375 50.613281 34.714844 C 50.707031 34.726562 50.800781 34.738281 50.898438 34.742188 L 50.867188 34.742188 L 50.941406 34.742188 C 51.277344 34.753906 51.613281 34.734375 51.941406 34.683594 C 52.105469 34.683594 52.191406 34.703125 52.09375 34.75 C 51.789062 34.902344 51.121094 35.3125 52.042969 35.414062 C 52.964844 35.519531 55.113281 34.648438 55.316406 34.390625 C 55.519531 34.136719 54.550781 34.03125 54.242188 34.03125 Z M 54.242188 34.03125 "/>
<use xlink:href="#surface8" mask="url(#mask1)"/>
<path style="fill:none;stroke-width:1;stroke-linecap:butt;stroke-linejoin:miter;stroke:rgb(14.901961%,19.607843%,21.960784%);stroke-opacity:1;stroke-miterlimit:10;" d="M 29.003906 449.199219 L 476.328125 449.199219 " transform="matrix(0.2,0,0,0.2,0,0)"/>
<path style="fill-rule:nonzero;fill:rgb(100%,47.450981%,77.64706%);fill-opacity:1;stroke-width:1;stroke-linecap:butt;stroke-linejoin:miter;stroke:rgb(14.901961%,19.607843%,21.960784%);stroke-opacity:1;stroke-miterlimit:10;" d="M 176.640625 455.996094 L 162.65625 455.996094 C 160.9375 455.996094 159.492188 454.707031 159.296875 453.007812 L 153.007812 390 L 186.347656 390 L 180 453.007812 C 179.824219 454.707031 178.378906 455.996094 176.640625 455.996094 Z M 176.640625 455.996094 " transform="matrix(0.2,0,0,0.2,0,0)"/>
<path style="fill-rule:nonzero;fill:rgb(14.901961%,19.607843%,21.960784%);fill-opacity:1;stroke-width:1;stroke-linecap:butt;stroke-linejoin:miter;stroke:rgb(14.901961%,19.607843%,21.960784%);stroke-opacity:1;stroke-miterlimit:10;" d="M 161.5625 456.015625 L 177.519531 456.015625 L 177.519531 461.992188 L 161.5625 461.992188 Z M 161.5625 456.015625 " transform="matrix(0.2,0,0,0.2,0,0)"/>
<path style="fill-rule:nonzero;fill:rgb(100%,100%,100%);fill-opacity:1;stroke-width:1;stroke-linecap:butt;stroke-linejoin:miter;stroke:rgb(14.901961%,19.607843%,21.960784%);stroke-opacity:1;stroke-miterlimit:10;" d="M 96.015625 426.328125 L 140.351562 426.328125 C 143.105469 426.328125 145.351562 428.574219 145.351562 431.328125 L 145.351562 456.992188 C 145.351562 459.765625 143.105469 461.992188 140.351562 461.992188 L 96.015625 461.992188 C 93.261719 461.992188 91.015625 459.765625 91.015625 456.992188 L 91.015625 431.328125 C 91.015625 428.574219 93.261719 426.328125 96.015625 426.328125 Z M 96.015625 426.328125 " transform="matrix(0.2,0,0,0.2,0,0)"/>
<path style="fill-rule:nonzero;fill:rgb(14.901961%,19.607843%,21.960784%);fill-opacity:1;stroke-width:1;stroke-linecap:butt;stroke-linejoin:miter;stroke:rgb(14.901961%,19.607843%,21.960784%);stroke-opacity:1;stroke-miterlimit:10;" d="M 93.183594 433.496094 L 129.082031 433.496094 L 129.082031 450.722656 L 93.183594 450.722656 Z M 93.183594 433.496094 " transform="matrix(0.2,0,0,0.2,0,0)"/>
<path style="fill-rule:nonzero;fill:rgb(100%,100%,100%);fill-opacity:1;stroke-width:1;stroke-linecap:butt;stroke-linejoin:miter;stroke:rgb(14.901961%,19.607843%,21.960784%);stroke-opacity:1;stroke-miterlimit:10;" d="M 96.015625 418.320312 L 140.683594 418.320312 L 140.683594 426.328125 L 96.015625 426.328125 Z M 96.015625 418.320312 " transform="matrix(0.2,0,0,0.2,0,0)"/>
<path style="fill:none;stroke-width:1;stroke-linecap:butt;stroke-linejoin:miter;stroke:rgb(14.901961%,19.607843%,21.960784%);stroke-opacity:1;stroke-miterlimit:10;" d="M 96.699219 423.007812 L 121.015625 418.320312 " transform="matrix(0.2,0,0,0.2,0,0)"/>
<path style="fill:none;stroke-width:1;stroke-linecap:butt;stroke-linejoin:miter;stroke:rgb(14.901961%,19.607843%,21.960784%);stroke-opacity:1;stroke-miterlimit:10;" d="M 106.015625 426.679688 L 135.019531 418.671875 " transform="matrix(0.2,0,0,0.2,0,0)"/>
<path style="fill:none;stroke-width:1;stroke-linecap:butt;stroke-linejoin:miter;stroke:rgb(14.901961%,19.607843%,21.960784%);stroke-opacity:1;stroke-miterlimit:10;" d="M 129.6875 426.679688 L 140.351562 421.992188 " transform="matrix(0.2,0,0,0.2,0,0)"/>
<path style="fill-rule:nonzero;fill:rgb(100%,47.450981%,77.64706%);fill-opacity:1;stroke-width:1;stroke-linecap:butt;stroke-linejoin:miter;stroke:rgb(14.901961%,19.607843%,21.960784%);stroke-opacity:1;stroke-miterlimit:10;" d="M 58.125 362.558594 L 62.246094 362.558594 L 62.246094 366.894531 L 58.125 366.894531 Z M 58.125 362.558594 " transform="matrix(0.2,0,0,0.2,0,0)"/>
<path style="fill-rule:nonzero;fill:rgb(100%,47.450981%,77.64706%);fill-opacity:1;stroke-width:1;stroke-linecap:butt;stroke-linejoin:miter;stroke:rgb(14.901961%,19.607843%,21.960784%);stroke-opacity:1;stroke-miterlimit:10;" d="M 56.171875 366.464844 L 64.414062 366.464844 L 64.414062 368.417969 L 56.171875 368.417969 Z M 56.171875 366.464844 " transform="matrix(0.2,0,0,0.2,0,0)"/>
<path style="fill-rule:nonzero;fill:rgb(100%,100%,100%);fill-opacity:1;stroke-width:1;stroke-linecap:butt;stroke-linejoin:miter;stroke:rgb(14.901961%,19.607843%,21.960784%);stroke-opacity:1;stroke-miterlimit:10;" d="M 85.996094 400.273438 C 85.253906 390.820312 78.710938 382.792969 69.609375 380.136719 L 67.324219 379.472656 L 62.1875 378.867188 L 59.726562 378.867188 L 54.609375 379.472656 L 52.324219 380.136719 C 43.183594 382.792969 36.640625 390.800781 35.898438 400.273438 C 35.097656 409.980469 35.214844 419.746094 36.230469 429.433594 C 37.363281 439.023438 39.023438 448.574219 40.800781 454.179688 C 42.304688 458.847656 46.640625 462.011719 51.542969 461.992188 L 70.390625 461.992188 C 75.273438 461.992188 79.609375 458.847656 81.113281 454.179688 C 82.890625 448.574219 84.550781 439.023438 85.683594 429.433594 C 86.699219 419.746094 86.816406 409.980469 85.996094 400.273438 Z M 85.996094 400.273438 " transform="matrix(0.2,0,0,0.2,0,0)"/>
<path style="fill-rule:nonzero;fill:rgb(100%,47.450981%,77.64706%);fill-opacity:1;stroke-width:1;stroke-linecap:butt;stroke-linejoin:miter;stroke:rgb(14.901961%,19.607843%,21.960784%);stroke-opacity:1;stroke-miterlimit:10;" d="M 54.609375 370.371094 L 65.996094 370.371094 L 65.996094 379.492188 L 54.609375 379.492188 Z M 54.609375 370.371094 " transform="matrix(0.2,0,0,0.2,0,0)"/>
<path style="fill-rule:nonzero;fill:rgb(100%,47.450981%,77.64706%);fill-opacity:1;stroke-width:1;stroke-linecap:butt;stroke-linejoin:miter;stroke:rgb(14.901961%,19.607843%,21.960784%);stroke-opacity:1;stroke-miterlimit:10;" d="M 53.789062 367.558594 L 66.796875 367.558594 L 66.796875 376.660156 L 53.789062 376.660156 Z M 53.789062 367.558594 " transform="matrix(0.2,0,0,0.2,0,0)"/>
<path style="fill-rule:nonzero;fill:rgb(100%,47.450981%,77.64706%);fill-opacity:1;stroke-width:1;stroke-linecap:butt;stroke-linejoin:miter;stroke:rgb(14.901961%,19.607843%,21.960784%);stroke-opacity:1;stroke-miterlimit:10;" d="M 54.863281 364.296875 C 54.863281 364.296875 67.011719 364.082031 72.226562 364.726562 L 71.992188 362.734375 C 71.992188 362.734375 63.554688 360.136719 60.292969 360.351562 C 57.03125 360.566406 53.710938 360.78125 54.785156 364.042969 Z M 54.863281 364.296875 " transform="matrix(0.2,0,0,0.2,0,0)"/>
<path style="fill-rule:nonzero;fill:rgb(100%,47.450981%,77.64706%);fill-opacity:1;stroke-width:1;stroke-linecap:butt;stroke-linejoin:miter;stroke:rgb(14.901961%,19.607843%,21.960784%);stroke-opacity:1;stroke-miterlimit:10;" d="M 77.285156 418.964844 C 77.285156 403.242188 69.707031 390.507812 60.332031 390.507812 C 50.976562 390.507812 43.398438 403.242188 43.398438 418.964844 C 43.398438 434.6875 50.976562 447.441406 60.332031 447.441406 C 69.707031 447.441406 77.285156 434.6875 77.285156 418.964844 Z M 77.285156 418.964844 " transform="matrix(0.2,0,0,0.2,0,0)"/>
<path style="fill-rule:nonzero;fill:rgb(100%,47.450981%,77.64706%);fill-opacity:1;stroke-width:1;stroke-linecap:round;stroke-linejoin:round;stroke:rgb(14.901961%,19.607843%,21.960784%);stroke-opacity:1;stroke-miterlimit:4;" d="M 412.167969 405.195312 C 408.398438 404.023438 404.980469 401.992188 402.167969 399.257812 C 400.136719 397.1875 397.8125 395.449219 395.273438 394.0625 C 389.785156 391.328125 378.359375 389.0625 378.359375 389.0625 C 378.359375 389.0625 388.417969 386.777344 396.191406 388.613281 C 403.964844 390.449219 409.453125 398.203125 409.453125 398.203125 C 409.453125 398.203125 407.167969 395.019531 403.964844 385.410156 C 400.761719 375.800781 400.761719 355.214844 400.761719 355.214844 C 400.761719 355.214844 408.535156 363.90625 412.1875 374.433594 C 414.394531 380.800781 415.9375 387.402344 416.777344 394.101562 C 416.777344 394.101562 415.859375 378.105469 418.59375 368.945312 C 421.347656 359.785156 429.121094 348.359375 429.121094 348.359375 C 429.121094 348.359375 429.570312 368.496094 426.367188 379.453125 C 423.164062 390.429688 421.796875 395.46875 421.796875 395.46875 C 423.789062 389.765625 427.089844 384.589844 431.40625 380.371094 C 438.261719 373.964844 454.726562 368.476562 454.726562 368.476562 C 454.726562 368.476562 446.992188 382.636719 441.992188 387.207031 C 436.992188 391.796875 431.933594 396.816406 431.933594 396.816406 C 431.933594 396.816406 437.421875 392.695312 447.03125 392.695312 C 456.621094 392.695312 468.027344 399.101562 468.027344 399.101562 C 468.027344 399.101562 443.574219 398.945312 434.570312 403.105469 C 432.773438 403.984375 430.859375 404.628906 428.886719 405.019531 L 423.886719 405.898438 C 419.960938 406.582031 415.917969 406.328125 412.128906 405.136719 Z M 412.167969 405.195312 " transform="matrix(0.2,0,0,0.2,0,0)"/>
<path style="fill:none;stroke-width:1;stroke-linecap:round;stroke-linejoin:round;stroke:rgb(14.901961%,19.607843%,21.960784%);stroke-opacity:1;stroke-miterlimit:4;" d="M 412.050781 400.761719 L 406.425781 396.875 " transform="matrix(0.2,0,0,0.2,0,0)"/>
<path style="fill:none;stroke-width:1;stroke-linecap:round;stroke-linejoin:round;stroke:rgb(14.901961%,19.607843%,21.960784%);stroke-opacity:1;stroke-miterlimit:4;" d="M 418.125 403.808594 L 410.3125 383.007812 " transform="matrix(0.2,0,0,0.2,0,0)"/>
<path style="fill:none;stroke-width:1;stroke-linecap:round;stroke-linejoin:round;stroke:rgb(14.901961%,19.607843%,21.960784%);stroke-opacity:1;stroke-miterlimit:4;" d="M 418.125 403.808594 L 422.441406 376.054688 " transform="matrix(0.2,0,0,0.2,0,0)"/>
<path style="fill:none;stroke-width:1;stroke-linecap:round;stroke-linejoin:round;stroke:rgb(14.901961%,19.607843%,21.960784%);stroke-opacity:1;stroke-miterlimit:4;" d="M 418.125 403.808594 L 432.851562 385.605469 " transform="matrix(0.2,0,0,0.2,0,0)"/>
<path style="fill:none;stroke-width:1;stroke-linecap:round;stroke-linejoin:round;stroke:rgb(14.901961%,19.607843%,21.960784%);stroke-opacity:1;stroke-miterlimit:4;" d="M 421.191406 403.4375 L 436.757812 396.425781 " transform="matrix(0.2,0,0,0.2,0,0)"/>
<path style="fill-rule:nonzero;fill:rgb(100%,100%,100%);fill-opacity:1;stroke-width:1;stroke-linecap:round;stroke-linejoin:round;stroke:rgb(14.901961%,19.607843%,21.960784%);stroke-opacity:1;stroke-miterlimit:4;" d="M 434.492188 461.992188 L 401.621094 461.992188 C 400.175781 461.992188 398.808594 461.386719 397.8125 460.332031 C 396.835938 459.277344 396.347656 457.851562 396.464844 456.425781 L 400.46875 405.429688 L 435.722656 405.429688 L 439.726562 456.425781 C 439.824219 457.871094 439.335938 459.296875 438.339844 460.351562 C 437.34375 461.425781 435.957031 462.011719 434.492188 461.992188 Z M 434.492188 461.992188 " transform="matrix(0.2,0,0,0.2,0,0)"/>
<path style="fill:none;stroke-width:1;stroke-linecap:butt;stroke-linejoin:miter;stroke:rgb(100%,47.450981%,77.64706%);stroke-opacity:1;stroke-miterlimit:10;" d="M 414.160156 434.335938 C 413.378906 445.527344 410.039062 454.414062 406.71875 454.179688 C 403.378906 453.925781 401.308594 444.6875 402.089844 433.496094 C 402.871094 422.324219 406.191406 413.4375 409.53125 413.652344 C 412.851562 413.886719 414.941406 423.144531 414.160156 434.335938 Z M 414.160156 434.335938 " transform="matrix(0.2,0,0,0.2,0,0)"/>
<path style="fill:none;stroke-width:1;stroke-linecap:butt;stroke-linejoin:miter;stroke:rgb(100%,47.450981%,77.64706%);stroke-opacity:1;stroke-miterlimit:10;" d="M 420.234375 434.335938 C 421.015625 445.527344 424.355469 454.414062 427.675781 454.179688 C 431.015625 453.925781 433.085938 444.6875 432.304688 433.496094 C 431.523438 422.324219 428.183594 413.4375 424.863281 413.652344 C 421.523438 413.886719 419.453125 423.144531 420.234375 434.335938 Z M 420.234375 434.335938 " transform="matrix(0.2,0,0,0.2,0,0)"/>
</g>
</svg>
