<?xml version="1.0" encoding="UTF-8"?>
<svg xmlns="http://www.w3.org/2000/svg" xmlns:xlink="http://www.w3.org/1999/xlink" width="100px" height="100px" viewBox="0 0 100 100" version="1.1">
<defs>
<filter id="alpha" filterUnits="objectBoundingBox" x="0%" y="0%" width="100%" height="100%">
  <feColorMatrix type="matrix" in="SourceGraphic" values="0 0 0 0 1 0 0 0 0 1 0 0 0 0 1 0 0 0 1 0"/>
</filter>
<mask id="mask0">
  <g filter="url(#alpha)">
<rect x="0" y="0" width="100" height="100" style="fill:rgb(0%,0%,0%);fill-opacity:0.101961;stroke:none;"/>
  </g>
</mask>
<clipPath id="clip1">
  <rect x="0" y="0" width="100" height="100"/>
</clipPath>
<g id="surface5" clip-path="url(#clip1)">
<path style=" stroke:none;fill-rule:nonzero;fill:rgb(0%,0%,0%);fill-opacity:1;" d="M 13.070312 83.847656 C 12.570312 83.046875 11.039062 82.164062 9.027344 81.730469 C 7.011719 81.296875 5 80.757812 5.453125 79.589844 C 5.953125 78.328125 7.824219 78.269531 9.652344 79.015625 C 11.652344 79.835938 13.132812 81.867188 13.160156 83.140625 Z M 13.070312 83.847656 "/>
</g>
<mask id="mask1">
  <g filter="url(#alpha)">
<rect x="0" y="0" width="100" height="100" style="fill:rgb(0%,0%,0%);fill-opacity:0.101961;stroke:none;"/>
  </g>
</mask>
<clipPath id="clip2">
  <rect x="0" y="0" width="100" height="100"/>
</clipPath>
<g id="surface8" clip-path="url(#clip2)">
<path style=" stroke:none;fill-rule:nonzero;fill:rgb(0%,0%,0%);fill-opacity:1;" d="M 87.65625 47.132812 C 87.613281 47.113281 87.699219 44.132812 89.105469 42.484375 C 90.511719 40.835938 92.074219 40.742188 93.058594 41.246094 C 94.042969 41.753906 93.757812 42.777344 92.457031 43.308594 C 91.160156 43.839844 89.523438 44.816406 89.003906 46.785156 Z M 87.65625 47.132812 "/>
</g>
<mask id="mask2">
  <g filter="url(#alpha)">
<rect x="0" y="0" width="100" height="100" style="fill:rgb(0%,0%,0%);fill-opacity:0.14902;stroke:none;"/>
  </g>
</mask>
<clipPath id="clip3">
  <rect x="0" y="0" width="100" height="100"/>
</clipPath>
<g id="surface11" clip-path="url(#clip3)">
<path style=" stroke:none;fill-rule:nonzero;fill:rgb(0%,0%,0%);fill-opacity:1;" d="M 61.820312 83.570312 L 61.011719 83.101562 C 60.40625 84.296875 60.046875 85.601562 59.960938 86.9375 C 59.683594 90.773438 60.621094 93.21875 61.738281 93.851562 L 62.503906 94.289062 C 61.40625 93.617188 60.503906 91.1875 60.773438 87.40625 C 60.859375 86.070312 61.214844 84.765625 61.820312 83.570312 Z M 61.820312 83.570312 "/>
</g>
<mask id="mask3">
  <g filter="url(#alpha)">
<rect x="0" y="0" width="100" height="100" style="fill:rgb(0%,0%,0%);fill-opacity:0.4;stroke:none;"/>
  </g>
</mask>
<clipPath id="clip4">
  <rect x="0" y="0" width="100" height="100"/>
</clipPath>
<g id="surface14" clip-path="url(#clip4)">
<path style=" stroke:none;fill-rule:nonzero;fill:rgb(100%,100%,100%);fill-opacity:1;" d="M 71.042969 77.808594 C 70.742188 77.664062 70.410156 77.597656 70.074219 77.609375 C 69.113281 77.609375 67.789062 78.039062 66.320312 78.957031 C 64.746094 79.941406 62.941406 81.382812 61.820312 83.574219 L 61.011719 83.105469 C 62.128906 80.914062 63.933594 79.472656 65.507812 78.488281 C 66.976562 77.570312 68.308594 77.140625 69.261719 77.140625 C 69.613281 77.128906 69.964844 77.207031 70.277344 77.371094 Z M 71.042969 77.808594 "/>
</g>
<mask id="mask4">
  <g filter="url(#alpha)">
<rect x="0" y="0" width="100" height="100" style="fill:rgb(0%,0%,0%);fill-opacity:0.14902;stroke:none;"/>
  </g>
</mask>
<clipPath id="clip5">
  <rect x="0" y="0" width="100" height="100"/>
</clipPath>
<g id="surface17" clip-path="url(#clip5)">
<path style=" stroke:none;fill-rule:nonzero;fill:rgb(0%,0%,0%);fill-opacity:1;" d="M 75.199219 76.148438 C 75.273438 75.925781 75.363281 75.710938 75.472656 75.503906 L 74.660156 75.035156 C 74.558594 75.242188 74.46875 75.457031 74.398438 75.679688 C 73.78125 77.585938 74.433594 81.230469 76.527344 82.757812 C 76.648438 82.84375 76.773438 82.925781 76.902344 83 L 76.933594 83.019531 L 77.640625 83.417969 C 77.535156 83.355469 77.433594 83.289062 77.335938 83.21875 C 75.234375 81.699219 74.582031 78.054688 75.199219 76.148438 Z M 75.199219 76.148438 "/>
</g>
<mask id="mask5">
  <g filter="url(#alpha)">
<rect x="0" y="0" width="100" height="100" style="fill:rgb(0%,0%,0%);fill-opacity:0.14902;stroke:none;"/>
  </g>
</mask>
<clipPath id="clip6">
  <rect x="0" y="0" width="100" height="100"/>
</clipPath>
<g id="surface20" clip-path="url(#clip6)">
<path style=" stroke:none;fill-rule:nonzero;fill:rgb(0%,0%,0%);fill-opacity:1;" d="M 70.492188 81.8125 C 70.09375 83.738281 69.425781 85.597656 68.507812 87.339844 C 66.847656 90.464844 65.023438 92.277344 63.90625 93.03125 C 63.679688 93.183594 63.402344 93.238281 63.132812 93.183594 C 62.863281 93.128906 62.628906 92.964844 62.480469 92.734375 C 62.699219 92.746094 62.914062 92.683594 63.097656 92.5625 C 64.210938 91.8125 66.035156 90 67.695312 86.871094 C 68.613281 85.132812 69.28125 83.269531 69.679688 81.34375 C 69.960938 79.945312 69.957031 79.066406 69.898438 78.617188 L 70.074219 78.617188 C 70.441406 78.617188 70.609375 78.707031 70.632812 78.746094 C 70.71875 78.90625 70.886719 79.839844 70.492188 81.8125 Z M 70.492188 81.8125 "/>
</g>
<mask id="mask6">
  <g filter="url(#alpha)">
<rect x="0" y="0" width="100" height="100" style="fill:rgb(0%,0%,0%);fill-opacity:0.14902;stroke:none;"/>
  </g>
</mask>
<clipPath id="clip7">
  <rect x="0" y="0" width="100" height="100"/>
</clipPath>
<g id="surface23" clip-path="url(#clip7)">
<path style=" stroke:none;fill-rule:nonzero;fill:rgb(0%,0%,0%);fill-opacity:1;" d="M 83.210938 81.488281 C 82.613281 82.441406 81.316406 83.105469 80.039062 83.105469 C 79.277344 83.109375 78.53125 82.867188 77.917969 82.414062 C 77.839844 82.355469 77.765625 82.296875 77.691406 82.230469 C 77.75 82.28125 77.808594 82.328125 77.871094 82.375 C 78.300781 82.550781 78.761719 82.636719 79.226562 82.636719 C 80.503906 82.636719 81.808594 81.972656 82.398438 81.023438 C 83.429688 79.363281 84.414062 75.980469 84.140625 72.480469 C 84.070312 71.636719 83.898438 71.125 83.691406 70.816406 C 84.125 70.839844 84.800781 71.046875 84.953125 72.949219 C 85.226562 76.449219 84.242188 79.828125 83.210938 81.488281 Z M 83.210938 81.488281 "/>
</g>
<mask id="mask7">
  <g filter="url(#alpha)">
<rect x="0" y="0" width="100" height="100" style="fill:rgb(0%,0%,0%);fill-opacity:0.4;stroke:none;"/>
  </g>
</mask>
<clipPath id="clip8">
  <rect x="0" y="0" width="100" height="100"/>
</clipPath>
<g id="surface26" clip-path="url(#clip8)">
<path style=" stroke:none;fill-rule:nonzero;fill:rgb(100%,100%,100%);fill-opacity:1;" d="M 83.542969 69.8125 C 83.953125 69.800781 84.355469 69.90625 84.710938 70.113281 C 84.691406 70.097656 84.671875 70.085938 84.652344 70.074219 L 83.878906 69.636719 C 83.53125 69.433594 83.132812 69.335938 82.730469 69.34375 C 81.757812 69.34375 80.621094 69.808594 79.589844 70.355469 C 77.359375 71.539062 75.460938 73.460938 74.660156 75.035156 L 75.472656 75.503906 C 76.273438 73.929688 78.167969 72.007812 80.398438 70.824219 C 81.433594 70.277344 82.570312 69.8125 83.542969 69.8125 Z M 83.542969 69.8125 "/>
</g>
<mask id="mask8">
  <g filter="url(#alpha)">
<rect x="0" y="0" width="100" height="100" style="fill:rgb(0%,0%,0%);fill-opacity:0.8;stroke:none;"/>
  </g>
</mask>
<clipPath id="clip9">
  <rect x="0" y="0" width="100" height="100"/>
</clipPath>
<g id="surface29" clip-path="url(#clip9)">
<path style=" stroke:none;fill-rule:nonzero;fill:rgb(27.058825%,35.294119%,39.215687%);fill-opacity:1;" d="M 83.542969 70.8125 C 83.945312 70.8125 84.785156 70.8125 84.945312 72.949219 C 85.21875 76.449219 84.234375 79.828125 83.203125 81.488281 C 82.605469 82.441406 81.308594 83.105469 80.035156 83.105469 C 79.269531 83.109375 78.527344 82.867188 77.910156 82.414062 C 76.175781 81.148438 75.648438 77.976562 76.144531 76.457031 C 76.578125 75.121094 78.464844 72.976562 80.859375 71.707031 C 81.984375 71.109375 82.882812 70.8125 83.535156 70.8125 Z M 83.542969 70.8125 "/>
</g>
<mask id="mask9">
  <g filter="url(#alpha)">
<rect x="0" y="0" width="100" height="100" style="fill:rgb(0%,0%,0%);fill-opacity:0.8;stroke:none;"/>
  </g>
</mask>
<clipPath id="clip10">
  <rect x="0" y="0" width="100" height="100"/>
</clipPath>
<g id="surface32" clip-path="url(#clip10)">
<path style=" stroke:none;fill-rule:nonzero;fill:rgb(27.058825%,35.294119%,39.215687%);fill-opacity:1;" d="M 70.074219 78.601562 C 70.441406 78.601562 70.609375 78.691406 70.632812 78.730469 C 70.71875 78.902344 70.886719 79.832031 70.492188 81.804688 C 70.09375 83.734375 69.425781 85.59375 68.507812 87.332031 C 66.847656 90.460938 65.023438 92.273438 63.90625 93.023438 C 63.660156 93.191406 63.351562 93.242188 63.066406 93.160156 C 62.777344 93.082031 62.539062 92.878906 62.414062 92.609375 C 61.976562 91.695312 61.589844 90.023438 61.773438 87.472656 C 62 84.304688 63.660156 81.800781 66.851562 79.800781 C 68.066406 79.042969 69.242188 78.601562 70.074219 78.601562 Z M 70.074219 78.601562 "/>
</g>
<mask id="mask10">
  <g filter="url(#alpha)">
<rect x="0" y="0" width="100" height="100" style="fill:rgb(0%,0%,0%);fill-opacity:0.4;stroke:none;"/>
  </g>
</mask>
<clipPath id="clip11">
  <rect x="0" y="0" width="100" height="100"/>
</clipPath>
<g id="surface35" clip-path="url(#clip11)">
<path style=" stroke:none;fill-rule:nonzero;fill:rgb(100%,100%,100%);fill-opacity:1;" d="M 44.976562 61.84375 L 44.125 61.351562 L 44.058594 59.78125 L 33.976562 53.957031 C 32.601562 53.15625 31.242188 53.132812 30.195312 53.726562 L 30.9375 53.296875 C 31.992188 52.664062 33.382812 52.679688 34.785156 53.488281 L 44.871094 59.308594 Z M 44.976562 61.84375 "/>
</g>
<mask id="mask11">
  <g filter="url(#alpha)">
<rect x="0" y="0" width="100" height="100" style="fill:rgb(0%,0%,0%);fill-opacity:0.14902;stroke:none;"/>
  </g>
</mask>
<clipPath id="clip12">
  <rect x="0" y="0" width="100" height="100"/>
</clipPath>
<g id="surface38" clip-path="url(#clip12)">
<path style=" stroke:none;fill-rule:nonzero;fill:rgb(0%,0%,0%);fill-opacity:1;" d="M 31.824219 55.515625 C 31.667969 55.730469 31.5625 55.980469 31.519531 56.242188 L 31.4375 56.703125 C 31.398438 56.929688 31.308594 57.144531 31.175781 57.328125 C 31.050781 57.507812 30.886719 57.652344 30.695312 57.757812 L 29.90625 58.214844 C 30.289062 57.992188 30.550781 57.609375 30.628906 57.175781 L 30.710938 56.710938 C 30.835938 56.011719 31.273438 55.578125 31.824219 55.515625 Z M 31.824219 55.515625 "/>
</g>
<mask id="mask12">
  <g filter="url(#alpha)">
<rect x="0" y="0" width="100" height="100" style="fill:rgb(0%,0%,0%);fill-opacity:0.14902;stroke:none;"/>
  </g>
</mask>
<clipPath id="clip13">
  <rect x="0" y="0" width="100" height="100"/>
</clipPath>
<g id="surface41" clip-path="url(#clip13)">
<path style=" stroke:none;fill-rule:nonzero;fill:rgb(0%,0%,0%);fill-opacity:1;" d="M 30.472656 57.621094 C 30.34375 57.871094 30.148438 58.078125 29.90625 58.222656 L 30.695312 57.765625 C 30.886719 57.65625 31.050781 57.511719 31.175781 57.335938 C 31.214844 57.28125 31.25 57.222656 31.28125 57.160156 Z M 30.472656 57.621094 "/>
</g>
<mask id="mask13">
  <g filter="url(#alpha)">
<rect x="0" y="0" width="100" height="100" style="fill:rgb(0%,0%,0%);fill-opacity:0.4;stroke:none;"/>
  </g>
</mask>
<clipPath id="clip14">
  <rect x="0" y="0" width="100" height="100"/>
</clipPath>
<g id="surface44" clip-path="url(#clip14)">
<path style=" stroke:none;fill-rule:nonzero;fill:rgb(100%,100%,100%);fill-opacity:1;" d="M 70.566406 47.070312 L 69.714844 46.578125 L 69.648438 45.007812 L 59.5625 39.1875 C 58.191406 38.386719 56.828125 38.363281 55.78125 38.953125 L 56.527344 38.527344 C 57.582031 37.894531 58.96875 37.90625 60.375 38.726562 L 70.460938 44.546875 Z M 70.566406 47.070312 "/>
</g>
<mask id="mask14">
  <g filter="url(#alpha)">
<rect x="0" y="0" width="100" height="100" style="fill:rgb(0%,0%,0%);fill-opacity:0.14902;stroke:none;"/>
  </g>
</mask>
<clipPath id="clip15">
  <rect x="0" y="0" width="100" height="100"/>
</clipPath>
<g id="surface47" clip-path="url(#clip15)">
<path style=" stroke:none;fill-rule:nonzero;fill:rgb(0%,0%,0%);fill-opacity:1;" d="M 57.414062 40.742188 C 57.253906 40.957031 57.148438 41.207031 57.109375 41.472656 L 57.027344 41.933594 C 56.988281 42.15625 56.898438 42.371094 56.765625 42.558594 C 56.636719 42.734375 56.472656 42.878906 56.285156 42.984375 L 55.492188 43.445312 C 55.875 43.21875 56.140625 42.839844 56.214844 42.402344 L 56.296875 41.941406 C 56.421875 41.238281 56.863281 40.800781 57.414062 40.742188 Z M 57.414062 40.742188 "/>
</g>
<mask id="mask15">
  <g filter="url(#alpha)">
<rect x="0" y="0" width="100" height="100" style="fill:rgb(0%,0%,0%);fill-opacity:0.14902;stroke:none;"/>
  </g>
</mask>
<clipPath id="clip16">
  <rect x="0" y="0" width="100" height="100"/>
</clipPath>
<g id="surface50" clip-path="url(#clip16)">
<path style=" stroke:none;fill-rule:nonzero;fill:rgb(0%,0%,0%);fill-opacity:1;" d="M 56.0625 42.851562 C 55.933594 43.097656 55.734375 43.304688 55.492188 43.449219 L 56.285156 42.992188 C 56.472656 42.886719 56.636719 42.738281 56.765625 42.5625 C 56.804688 42.507812 56.839844 42.449219 56.871094 42.390625 Z M 56.0625 42.851562 "/>
</g>
<mask id="mask16">
  <g filter="url(#alpha)">
<rect x="0" y="0" width="100" height="100" style="fill:rgb(0%,0%,0%);fill-opacity:0.85098;stroke:none;"/>
  </g>
</mask>
<clipPath id="clip17">
  <rect x="0" y="0" width="100" height="100"/>
</clipPath>
<g id="surface53" clip-path="url(#clip17)">
<path style=" stroke:none;fill-rule:nonzero;fill:rgb(100%,47.450981%,77.64706%);fill-opacity:1;" d="M 55.363281 60.398438 C 55.1875 61.445312 54.839844 62.453125 54.328125 63.382812 C 53.570312 64.753906 52.4375 65.882812 51.066406 66.640625 C 49.441406 67.558594 48.488281 67.324219 47.921875 66.734375 C 47.882812 66.699219 47.851562 66.660156 47.820312 66.621094 C 47.785156 66.585938 47.757812 66.546875 47.726562 66.507812 C 47.699219 66.46875 47.671875 66.429688 47.648438 66.390625 C 47.628906 66.359375 47.605469 66.320312 47.585938 66.285156 C 47.566406 66.257812 47.550781 66.230469 47.539062 66.199219 C 47.523438 66.175781 47.507812 66.148438 47.496094 66.121094 C 47.472656 66.078125 47.453125 66.03125 47.433594 65.988281 C 47.371094 65.859375 47.320312 65.722656 47.273438 65.589844 C 47.246094 65.503906 47.21875 65.414062 47.195312 65.335938 C 47.152344 65.183594 47.121094 65.039062 47.09375 64.910156 L 47.074219 64.828125 L 47.054688 64.753906 C 46.820312 63.695312 46.542969 61.511719 47.054688 60.683594 C 47.570312 59.855469 48.933594 58.511719 51.164062 57.464844 C 51.238281 57.425781 51.320312 57.390625 51.402344 57.355469 C 51.734375 57.203125 52.074219 57.074219 52.421875 56.964844 C 52.554688 56.921875 52.6875 56.882812 52.820312 56.847656 C 53.148438 56.753906 53.484375 56.6875 53.820312 56.644531 C 53.929688 56.632812 54.023438 56.621094 54.125 56.617188 C 54.234375 56.605469 54.347656 56.601562 54.457031 56.605469 L 54.523438 56.605469 C 54.5625 56.601562 54.601562 56.601562 54.640625 56.605469 C 54.886719 56.601562 55.125 56.6875 55.3125 56.84375 C 55.742188 57.300781 55.613281 58.925781 55.363281 60.398438 Z M 55.363281 60.398438 "/>
</g>
<mask id="mask17">
  <g filter="url(#alpha)">
<rect x="0" y="0" width="100" height="100" style="fill:rgb(0%,0%,0%);fill-opacity:0.85098;stroke:none;"/>
  </g>
</mask>
<clipPath id="clip18">
  <rect x="0" y="0" width="100" height="100"/>
</clipPath>
<g id="surface56" clip-path="url(#clip18)">
<path style=" stroke:none;fill-rule:nonzero;fill:rgb(100%,47.450981%,77.64706%);fill-opacity:1;" d="M 69.09375 52 C 68.910156 53.035156 68.519531 55.273438 66.851562 57.109375 C 66.335938 57.671875 65.738281 58.15625 65.074219 58.542969 C 63.1875 59.664062 62.113281 59.425781 61.503906 58.800781 L 61.503906 58.789062 C 61.480469 58.765625 61.457031 58.738281 61.4375 58.714844 C 61.410156 58.6875 61.386719 58.65625 61.367188 58.628906 L 61.328125 58.585938 C 61.296875 58.539062 61.265625 58.492188 61.238281 58.449219 C 61.210938 58.402344 61.171875 58.339844 61.140625 58.28125 C 61.125 58.257812 61.113281 58.226562 61.097656 58.199219 L 61.074219 58.152344 C 61.0625 58.128906 61.054688 58.105469 61.042969 58.078125 C 61.035156 58.054688 61.027344 58.042969 61.019531 58.023438 C 60.917969 57.777344 60.839844 57.527344 60.789062 57.265625 C 60.539062 56.078125 60.40625 54.609375 60.855469 53.621094 C 61.300781 52.628906 63.054688 50.820312 64.753906 49.621094 C 65.144531 49.34375 65.507812 49.105469 65.851562 48.902344 L 65.980469 48.828125 L 66.121094 48.746094 C 66.25 48.675781 66.378906 48.605469 66.5 48.546875 L 66.636719 48.476562 L 66.816406 48.390625 C 66.921875 48.34375 67.019531 48.296875 67.117188 48.257812 C 67.316406 48.175781 67.496094 48.105469 67.664062 48.058594 L 67.796875 48.019531 L 67.828125 48.019531 C 67.859375 48.019531 67.886719 48 67.917969 47.992188 C 67.949219 47.988281 68.007812 47.96875 68.050781 47.960938 C 68.09375 47.949219 68.15625 47.9375 68.207031 47.925781 C 68.292969 47.910156 68.378906 47.898438 68.46875 47.890625 L 68.515625 47.890625 C 68.714844 47.863281 68.921875 47.882812 69.113281 47.957031 C 69.601562 48.171875 69.324219 50.683594 69.09375 52 Z M 69.09375 52 "/>
</g>
<mask id="mask18">
  <g filter="url(#alpha)">
<rect x="0" y="0" width="100" height="100" style="fill:rgb(0%,0%,0%);fill-opacity:0.4;stroke:none;"/>
  </g>
</mask>
<clipPath id="clip19">
  <rect x="0" y="0" width="100" height="100"/>
</clipPath>
<g id="surface59" clip-path="url(#clip19)">
<path style=" stroke:none;fill-rule:nonzero;fill:rgb(100%,100%,100%);fill-opacity:1;" d="M 53.484375 15.746094 C 52.886719 15.40625 49.320312 17.429688 47.886719 18.488281 C 47.292969 18.925781 46.742188 19.417969 46.238281 19.960938 L 45.429688 19.492188 C 45.929688 18.949219 46.480469 18.457031 47.074219 18.019531 C 48.511719 16.957031 52.09375 14.933594 52.675781 15.28125 Z M 53.484375 15.746094 "/>
</g>
<mask id="mask19">
  <g filter="url(#alpha)">
<rect x="0" y="0" width="100" height="100" style="fill:rgb(0%,0%,0%);fill-opacity:0.4;stroke:none;"/>
  </g>
</mask>
<clipPath id="clip20">
  <rect x="0" y="0" width="100" height="100"/>
</clipPath>
<g id="surface62" clip-path="url(#clip20)">
<path style=" stroke:none;fill-rule:nonzero;fill:rgb(100%,100%,100%);fill-opacity:1;" d="M 38.964844 25.460938 C 38.148438 24.980469 37.042969 24.972656 35.65625 25.550781 C 34.1875 26.164062 30.472656 28.351562 30.019531 29.351562 L 29.199219 28.882812 C 29.652344 27.882812 33.367188 25.695312 34.839844 25.085938 C 36.210938 24.511719 37.308594 24.515625 38.125 24.980469 Z M 38.964844 25.460938 "/>
</g>
<mask id="mask20">
  <g filter="url(#alpha)">
<rect x="0" y="0" width="100" height="100" style="fill:rgb(0%,0%,0%);fill-opacity:0.4;stroke:none;"/>
  </g>
</mask>
<clipPath id="clip21">
  <rect x="0" y="0" width="100" height="100"/>
</clipPath>
<g id="surface65" clip-path="url(#clip21)">
<path style=" stroke:none;fill-rule:nonzero;fill:rgb(100%,100%,100%);fill-opacity:1;" d="M 43.019531 26.101562 C 42.613281 25.914062 42.144531 25.949219 41.769531 26.191406 C 41.617188 26.28125 41.472656 26.390625 41.34375 26.515625 L 40.53125 26.042969 C 40.660156 25.921875 40.804688 25.8125 40.957031 25.722656 C 41.363281 25.453125 41.882812 25.4375 42.304688 25.683594 Z M 43.019531 26.101562 "/>
</g>
<mask id="mask21">
  <g filter="url(#alpha)">
<rect x="0" y="0" width="100" height="100" style="fill:rgb(0%,0%,0%);fill-opacity:0.0509804;stroke:none;"/>
  </g>
</mask>
<clipPath id="clip22">
  <rect x="0" y="0" width="100" height="100"/>
</clipPath>
<g id="surface68" clip-path="url(#clip22)">
<path style=" stroke:none;fill-rule:nonzero;fill:rgb(0%,0%,0%);fill-opacity:1;" d="M 41.34375 26.515625 C 40.980469 26.867188 40.671875 27.269531 40.425781 27.714844 C 40.335938 27.335938 40.203125 26.96875 40.027344 26.621094 C 40.179688 26.417969 40.347656 26.226562 40.535156 26.050781 Z M 41.34375 26.515625 "/>
</g>
<mask id="mask22">
  <g filter="url(#alpha)">
<rect x="0" y="0" width="100" height="100" style="fill:rgb(0%,0%,0%);fill-opacity:0.14902;stroke:none;"/>
  </g>
</mask>
<clipPath id="clip23">
  <rect x="0" y="0" width="100" height="100"/>
</clipPath>
<g id="surface71" clip-path="url(#clip23)">
<path style=" stroke:none;fill-rule:nonzero;fill:rgb(0%,0%,0%);fill-opacity:1;" d="M 31.949219 39.585938 L 31.160156 39.132812 C 30.222656 38.582031 29.53125 37.46875 29.199219 35.921875 C 28.8125 34.121094 28.445312 30.539062 29.199219 28.886719 L 30.011719 29.355469 C 29.257812 31.007812 29.625 34.585938 30.011719 36.390625 C 30.339844 37.921875 31.019531 39.027344 31.949219 39.585938 Z M 31.949219 39.585938 "/>
</g>
<mask id="mask23">
  <g filter="url(#alpha)">
<rect x="0" y="0" width="100" height="100" style="fill:rgb(0%,0%,0%);fill-opacity:0.14902;stroke:none;"/>
  </g>
</mask>
<clipPath id="clip24">
  <rect x="0" y="0" width="100" height="100"/>
</clipPath>
<g id="surface74" clip-path="url(#clip24)">
<path style=" stroke:none;fill-rule:nonzero;fill:rgb(0%,0%,0%);fill-opacity:1;" d="M 44.550781 32.480469 L 43.800781 32.046875 C 42.742188 31.433594 42.078125 30.019531 42.078125 28.011719 C 42.039062 27.871094 41.984375 27.738281 41.914062 27.609375 C 42.585938 27.386719 42.890625 28.476562 42.890625 28.476562 C 42.890625 30.449219 43.53125 31.851562 44.550781 32.480469 Z M 44.550781 32.480469 "/>
</g>
<mask id="mask24">
  <g filter="url(#alpha)">
<rect x="0" y="0" width="100" height="100" style="fill:rgb(0%,0%,0%);fill-opacity:0.0509804;stroke:none;"/>
  </g>
</mask>
<clipPath id="clip25">
  <rect x="0" y="0" width="100" height="100"/>
</clipPath>
<g id="surface77" clip-path="url(#clip25)">
<path style=" stroke:none;fill-rule:nonzero;fill:rgb(0%,0%,0%);fill-opacity:1;" d="M 46.242188 19.960938 C 44.644531 21.695312 43.5625 23.84375 43.121094 26.160156 L 43.109375 26.160156 L 43.074219 26.140625 L 43.023438 26.113281 L 42.308594 25.699219 C 42.753906 23.382812 43.835938 21.234375 45.433594 19.5 Z M 46.242188 19.960938 "/>
</g>
<mask id="mask25">
  <g filter="url(#alpha)">
<rect x="0" y="0" width="100" height="100" style="fill:rgb(0%,0%,0%);fill-opacity:0.4;stroke:none;"/>
  </g>
</mask>
<clipPath id="clip26">
  <rect x="0" y="0" width="100" height="100"/>
</clipPath>
<g id="surface80" clip-path="url(#clip26)">
<path style=" stroke:none;fill-rule:nonzero;fill:rgb(100%,47.450981%,77.64706%);fill-opacity:1;" d="M 39.511719 30.429688 C 39.511719 33.273438 37.785156 36.574219 35.652344 37.804688 C 34.488281 38.476562 33.453125 38.394531 32.738281 37.71875 C 33.339844 37.894531 34.066406 37.78125 34.839844 37.335938 C 36.972656 36.105469 38.699219 32.800781 38.699219 29.960938 C 38.699219 28.664062 38.34375 27.691406 37.75 27.125 C 38.808594 27.429688 39.511719 28.617188 39.511719 30.429688 Z M 39.511719 30.429688 "/>
</g>
<mask id="mask26">
  <g filter="url(#alpha)">
<rect x="0" y="0" width="100" height="100" style="fill:rgb(0%,0%,0%);fill-opacity:0.4;stroke:none;"/>
  </g>
</mask>
<clipPath id="clip27">
  <rect x="0" y="0" width="100" height="100"/>
</clipPath>
<g id="surface83" clip-path="url(#clip27)">
<path style=" stroke:none;fill-rule:nonzero;fill:rgb(100%,47.450981%,77.64706%);fill-opacity:1;" d="M 51.746094 23.367188 C 51.746094 26.207031 50.019531 29.511719 47.886719 30.742188 C 46.726562 31.410156 45.6875 31.328125 44.980469 30.65625 C 45.578125 30.832031 46.300781 30.71875 47.074219 30.273438 C 49.207031 29.042969 50.9375 25.738281 50.9375 22.894531 C 50.9375 21.601562 50.574219 20.625 49.984375 20.0625 C 51.046875 20.367188 51.746094 21.550781 51.746094 23.367188 Z M 51.746094 23.367188 "/>
</g>
<mask id="mask27">
  <g filter="url(#alpha)">
<rect x="0" y="0" width="100" height="100" style="fill:rgb(0%,0%,0%);fill-opacity:0.301961;stroke:none;"/>
  </g>
</mask>
<mask id="mask28">
  <g filter="url(#alpha)">
<rect x="0" y="0" width="100" height="100" style="fill:rgb(0%,0%,0%);fill-opacity:0.4;stroke:none;"/>
  </g>
</mask>
<clipPath id="clip29">
  <rect x="0" y="0" width="100" height="100"/>
</clipPath>
<g id="surface87" clip-path="url(#clip29)">
<path style=" stroke:none;fill-rule:nonzero;fill:rgb(0%,0%,0%);fill-opacity:1;" d="M 39.511719 30.429688 C 39.511719 33.273438 37.785156 36.574219 35.652344 37.804688 C 34.488281 38.476562 33.453125 38.394531 32.738281 37.71875 C 33.339844 37.894531 34.066406 37.78125 34.839844 37.335938 C 36.972656 36.105469 38.699219 32.800781 38.699219 29.960938 C 38.699219 28.664062 38.34375 27.691406 37.75 27.125 C 38.808594 27.429688 39.511719 28.617188 39.511719 30.429688 Z M 39.511719 30.429688 "/>
</g>
<clipPath id="clip28">
  <rect x="0" y="0" width="100" height="100"/>
</clipPath>
<g id="surface89" clip-path="url(#clip28)">
<use xlink:href="#surface87" mask="url(#mask28)"/>
</g>
<mask id="mask29">
  <g filter="url(#alpha)">
<rect x="0" y="0" width="100" height="100" style="fill:rgb(0%,0%,0%);fill-opacity:0.301961;stroke:none;"/>
  </g>
</mask>
<mask id="mask30">
  <g filter="url(#alpha)">
<rect x="0" y="0" width="100" height="100" style="fill:rgb(0%,0%,0%);fill-opacity:0.4;stroke:none;"/>
  </g>
</mask>
<clipPath id="clip31">
  <rect x="0" y="0" width="100" height="100"/>
</clipPath>
<g id="surface93" clip-path="url(#clip31)">
<path style=" stroke:none;fill-rule:nonzero;fill:rgb(0%,0%,0%);fill-opacity:1;" d="M 51.746094 23.367188 C 51.746094 26.207031 50.019531 29.511719 47.886719 30.742188 C 46.726562 31.410156 45.6875 31.328125 44.980469 30.65625 C 45.578125 30.832031 46.300781 30.71875 47.074219 30.273438 C 49.207031 29.042969 50.9375 25.738281 50.9375 22.894531 C 50.9375 21.601562 50.574219 20.625 49.984375 20.0625 C 51.046875 20.367188 51.746094 21.550781 51.746094 23.367188 Z M 51.746094 23.367188 "/>
</g>
<clipPath id="clip30">
  <rect x="0" y="0" width="100" height="100"/>
</clipPath>
<g id="surface95" clip-path="url(#clip30)">
<use xlink:href="#surface93" mask="url(#mask30)"/>
</g>
<mask id="mask31">
  <g filter="url(#alpha)">
<rect x="0" y="0" width="100" height="100" style="fill:rgb(0%,0%,0%);fill-opacity:0.2;stroke:none;"/>
  </g>
</mask>
<clipPath id="clip32">
  <rect x="0" y="0" width="100" height="100"/>
</clipPath>
<g id="surface98" clip-path="url(#clip32)">
<path style=" stroke:none;fill-rule:nonzero;fill:rgb(100%,47.450981%,77.64706%);fill-opacity:1;" d="M 37.972656 27.203125 C 36.269531 26.480469 33.851562 28.332031 32.570312 31.34375 C 31.289062 34.355469 31.628906 37.386719 33.332031 38.109375 C 35.035156 38.835938 37.457031 36.980469 38.738281 33.96875 C 40.019531 30.957031 39.675781 27.929688 37.972656 27.203125 Z M 37.972656 27.203125 "/>
</g>
<mask id="mask32">
  <g filter="url(#alpha)">
<rect x="0" y="0" width="100" height="100" style="fill:rgb(0%,0%,0%);fill-opacity:0.2;stroke:none;"/>
  </g>
</mask>
<clipPath id="clip33">
  <rect x="0" y="0" width="100" height="100"/>
</clipPath>
<g id="surface101" clip-path="url(#clip33)">
<path style=" stroke:none;fill-rule:nonzero;fill:rgb(100%,47.450981%,77.64706%);fill-opacity:1;" d="M 50.121094 20.109375 C 48.417969 19.386719 46.003906 21.242188 44.726562 24.253906 C 43.449219 27.265625 43.796875 30.289062 45.5 31.011719 C 47.203125 31.734375 49.617188 29.878906 50.894531 26.867188 C 52.171875 23.855469 51.824219 20.832031 50.121094 20.109375 Z M 50.121094 20.109375 "/>
</g>
<mask id="mask33">
  <g filter="url(#alpha)">
<rect x="0" y="0" width="100" height="100" style="fill:rgb(0%,0%,0%);fill-opacity:0.101961;stroke:none;"/>
  </g>
</mask>
<clipPath id="clip34">
  <rect x="0" y="0" width="100" height="100"/>
</clipPath>
<g id="surface104" clip-path="url(#clip34)">
<path style=" stroke:none;fill-rule:nonzero;fill:rgb(0%,0%,0%);fill-opacity:1;" d="M 16.554688 56.09375 C 16.078125 55.984375 15.667969 55.6875 15.410156 55.269531 C 15.15625 54.855469 15.078125 54.351562 15.199219 53.878906 C 15.207031 53.84375 15.21875 53.8125 15.230469 53.78125 C 15.320312 53.53125 15.5625 53.367188 15.828125 53.382812 C 15.441406 53.125 15.167969 52.722656 15.078125 52.261719 L 14.710938 50.089844 C 14.667969 49.734375 14.699219 49.375 14.804688 49.035156 L 13.605469 47.632812 L 13.378906 47.789062 C 13.199219 48.402344 13.214844 49.058594 13.429688 49.664062 L 14.628906 53.132812 C 14.628906 53.132812 14.066406 54.488281 13.414062 55.773438 C 15.398438 56.835938 17.742188 56.992188 19.847656 56.199219 C 18.753906 56.371094 17.636719 56.335938 16.554688 56.09375 Z M 16.554688 56.09375 "/>
</g>
</defs>
<g id="surface1">
<path style=" stroke:none;fill-rule:nonzero;fill:rgb(90.196079%,90.196079%,90.196079%);fill-opacity:1;" d="M 27.113281 84 C 27.113281 81.25 23.25 79.019531 18.484375 79.019531 C 13.722656 79.019531 9.859375 81.25 9.859375 84 C 9.859375 86.75 13.722656 88.980469 18.484375 88.980469 C 23.25 88.980469 27.113281 86.75 27.113281 84 Z M 27.113281 84 "/>
<path style=" stroke:none;fill-rule:nonzero;fill:rgb(90.196079%,90.196079%,90.196079%);fill-opacity:1;" d="M 91.292969 53.097656 C 91.292969 50.34375 87.429688 48.113281 82.664062 48.113281 C 77.902344 48.113281 74.039062 50.34375 74.039062 53.097656 C 74.039062 55.847656 77.902344 58.078125 82.664062 58.078125 C 87.429688 58.078125 91.292969 55.847656 91.292969 53.097656 Z M 91.292969 53.097656 "/>
<path style=" stroke:none;fill-rule:nonzero;fill:rgb(100%,47.450981%,77.64706%);fill-opacity:1;" d="M 13.070312 83.847656 C 12.570312 83.046875 11.039062 82.164062 9.027344 81.730469 C 7.011719 81.296875 5 80.757812 5.453125 79.589844 C 5.953125 78.328125 7.824219 78.269531 9.652344 79.015625 C 11.652344 79.835938 13.132812 81.867188 13.160156 83.140625 Z M 13.070312 83.847656 "/>
<use xlink:href="#surface5" mask="url(#mask0)"/>
<path style=" stroke:none;fill-rule:nonzero;fill:rgb(100%,100%,100%);fill-opacity:1;" d="M 13.226562 83.480469 C 13.171875 83.484375 13.117188 83.449219 13.09375 83.398438 C 11.492188 80.089844 7.789062 79.558594 6.621094 79.738281 C 6.539062 79.75 6.460938 79.695312 6.449219 79.613281 C 6.441406 79.574219 6.453125 79.53125 6.476562 79.5 C 6.5 79.46875 6.535156 79.445312 6.574219 79.441406 C 7.800781 79.25 11.691406 79.804688 13.363281 83.265625 C 13.398438 83.339844 13.367188 83.429688 13.292969 83.464844 C 13.273438 83.476562 13.25 83.480469 13.226562 83.480469 Z M 13.226562 83.480469 "/>
<path style=" stroke:none;fill-rule:nonzero;fill:rgb(100%,47.450981%,77.64706%);fill-opacity:1;" d="M 13.070312 83.847656 C 13.070312 83.847656 12.109375 80.035156 9.671875 77.988281 C 8.945312 77.378906 8.175781 76.617188 7.632812 76.09375 C 6.476562 74.960938 6.957031 73.734375 8.5625 73.757812 C 10.949219 73.789062 12.691406 75.796875 13.449219 78.425781 C 14.203125 81.054688 13.070312 83.847656 13.070312 83.847656 Z M 13.070312 83.847656 "/>
<path style=" stroke:none;fill-rule:nonzero;fill:rgb(100%,100%,100%);fill-opacity:1;" d="M 13.449219 82.367188 C 13.371094 82.367188 13.308594 82.308594 13.300781 82.230469 C 12.851562 77.386719 9.152344 74.949219 8.148438 74.691406 C 8.066406 74.671875 8.019531 74.589844 8.039062 74.507812 C 8.0625 74.425781 8.144531 74.378906 8.222656 74.398438 C 9.445312 74.714844 13.140625 77.242188 13.601562 82.199219 C 13.605469 82.28125 13.546875 82.355469 13.464844 82.363281 Z M 13.449219 82.367188 "/>
<path style=" stroke:none;fill-rule:nonzero;fill:rgb(100%,47.450981%,77.64706%);fill-opacity:1;" d="M 87.65625 47.132812 C 87.613281 47.113281 87.699219 44.132812 89.105469 42.484375 C 90.511719 40.835938 92.074219 40.742188 93.058594 41.246094 C 94.042969 41.753906 93.757812 42.777344 92.457031 43.308594 C 91.160156 43.839844 89.523438 44.816406 89.003906 46.785156 Z M 87.65625 47.132812 "/>
<use xlink:href="#surface8" mask="url(#mask1)"/>
<path style=" stroke:none;fill-rule:nonzero;fill:rgb(100%,100%,100%);fill-opacity:1;" d="M 88.199219 46.300781 C 88.246094 46.304688 88.289062 46.273438 88.300781 46.226562 C 89.003906 43.25 90.898438 41.90625 92.429688 41.644531 C 92.457031 41.640625 92.476562 41.625 92.492188 41.605469 C 92.507812 41.582031 92.511719 41.558594 92.507812 41.53125 C 92.5 41.480469 92.449219 41.445312 92.398438 41.453125 C 90.796875 41.730469 88.839844 43.117188 88.113281 46.183594 C 88.101562 46.234375 88.132812 46.285156 88.183594 46.296875 Z M 88.199219 46.300781 "/>
<path style=" stroke:none;fill-rule:nonzero;fill:rgb(100%,47.450981%,77.64706%);fill-opacity:1;" d="M 87.476562 52.660156 C 87.726562 51.890625 88.554688 51.433594 89.488281 51.421875 C 90.460938 51.40625 91.59375 51.394531 91.953125 50.601562 C 92.3125 49.804688 92.09375 48.683594 92.273438 48.148438 C 92.484375 47.507812 92.765625 47.132812 94.070312 46.828125 C 95.234375 46.558594 95.945312 45.519531 94.835938 44.972656 C 93.722656 44.429688 92.554688 44.632812 91.746094 44.925781 C 90.941406 45.214844 90.878906 45.578125 89.792969 45.402344 C 88.703125 45.226562 87.828125 45.855469 87.710938 46.515625 Z M 87.476562 52.660156 "/>
<path style=" stroke:none;fill-rule:nonzero;fill:rgb(100%,100%,100%);fill-opacity:1;" d="M 87.675781 50 C 87.714844 50.003906 87.75 49.980469 87.769531 49.945312 C 88.859375 47.496094 92.71875 45.496094 93.953125 45.445312 C 94.007812 45.441406 94.046875 45.398438 94.046875 45.347656 C 94.046875 45.320312 94.035156 45.296875 94.015625 45.277344 C 93.996094 45.261719 93.972656 45.253906 93.945312 45.253906 C 92.675781 45.308594 88.710938 47.359375 87.59375 49.867188 C 87.574219 49.914062 87.59375 49.96875 87.640625 49.992188 Z M 87.675781 50 "/>
<path style=" stroke:none;fill-rule:nonzero;fill:rgb(100%,100%,100%);fill-opacity:1;" d="M 88.648438 48.5625 L 88.671875 48.5625 C 88.695312 48.558594 88.71875 48.542969 88.734375 48.523438 C 88.75 48.503906 88.757812 48.476562 88.753906 48.453125 C 88.550781 47.121094 88.90625 46.296875 88.910156 46.289062 C 88.929688 46.257812 88.929688 46.21875 88.90625 46.1875 C 88.886719 46.15625 88.851562 46.140625 88.8125 46.144531 C 88.777344 46.152344 88.746094 46.175781 88.734375 46.210938 C 88.71875 46.246094 88.347656 47.089844 88.5625 48.480469 C 88.570312 48.527344 88.605469 48.558594 88.648438 48.5625 Z M 88.648438 48.5625 "/>
<path style=" stroke:none;fill-rule:nonzero;fill:rgb(100%,100%,100%);fill-opacity:1;" d="M 87.953125 49.480469 C 88.769531 49.132812 90.355469 49.539062 90.371094 49.546875 C 90.421875 49.558594 90.472656 49.527344 90.488281 49.476562 C 90.5 49.425781 90.46875 49.375 90.421875 49.359375 C 90.351562 49.34375 88.753906 48.933594 87.921875 49.304688 C 87.875 49.328125 87.851562 49.382812 87.875 49.433594 C 87.890625 49.460938 87.921875 49.480469 87.953125 49.480469 Z M 87.953125 49.480469 "/>
<path style=" stroke:none;fill-rule:nonzero;fill:rgb(21.568628%,27.843139%,30.980393%);fill-opacity:1;" d="M 85 71.859375 L 72.511719 64.660156 C 71.214844 63.914062 69.621094 63.914062 68.328125 64.660156 C 67.035156 65.40625 66.238281 66.789062 66.234375 68.28125 L 66.234375 68.726562 C 66.234375 69.058594 66.503906 69.328125 66.835938 69.328125 C 67.167969 69.328125 67.4375 69.058594 67.4375 68.726562 L 67.4375 68.28125 C 67.4375 67.214844 68.003906 66.230469 68.929688 65.699219 C 69.851562 65.167969 70.988281 65.167969 71.910156 65.699219 L 84.398438 72.898438 C 84.6875 73.066406 85.054688 72.96875 85.21875 72.679688 C 85.386719 72.394531 85.289062 72.027344 85 71.859375 Z M 85 71.859375 "/>
<path style=" stroke:none;fill-rule:nonzero;fill:rgb(100%,47.450981%,77.64706%);fill-opacity:1;" d="M 71.042969 77.808594 C 70.742188 77.664062 70.410156 77.597656 70.074219 77.609375 C 69.113281 77.609375 67.789062 78.039062 66.320312 78.957031 C 63.964844 80.429688 61.097656 82.925781 60.773438 87.410156 C 60.496094 91.191406 61.40625 93.621094 62.503906 94.292969 L 61.738281 93.855469 C 60.621094 93.222656 59.683594 90.777344 59.960938 86.941406 C 60.285156 82.460938 63.160156 79.960938 65.507812 78.488281 C 66.976562 77.570312 68.308594 77.140625 69.261719 77.140625 C 69.613281 77.128906 69.964844 77.207031 70.277344 77.371094 Z M 71.042969 77.808594 "/>
<use xlink:href="#surface11" mask="url(#mask2)"/>
<use xlink:href="#surface14" mask="url(#mask3)"/>
<path style=" stroke:none;fill-rule:nonzero;fill:rgb(100%,47.450981%,77.64706%);fill-opacity:1;" d="M 84.710938 70.113281 C 84.355469 69.90625 83.953125 69.800781 83.542969 69.8125 C 82.570312 69.8125 81.433594 70.277344 80.398438 70.824219 C 77.851562 72.175781 75.742188 74.488281 75.199219 76.148438 C 74.578125 78.054688 75.234375 81.699219 77.328125 83.222656 C 77.429688 83.296875 77.53125 83.367188 77.632812 83.425781 L 76.925781 83.023438 L 76.894531 83.007812 C 76.765625 82.933594 76.640625 82.851562 76.523438 82.761719 C 74.429688 81.234375 73.773438 77.59375 74.394531 75.6875 C 74.933594 74.03125 77.042969 71.710938 79.59375 70.363281 C 80.628906 69.8125 81.765625 69.351562 82.738281 69.351562 C 83.140625 69.339844 83.535156 69.441406 83.882812 69.640625 L 84.65625 70.082031 C 84.675781 70.089844 84.691406 70.101562 84.710938 70.113281 Z M 84.710938 70.113281 "/>
<use xlink:href="#surface17" mask="url(#mask4)"/>
<path style=" stroke:none;fill-rule:nonzero;fill:rgb(21.568628%,27.843139%,30.980393%);fill-opacity:1;" d="M 71.398438 80.589844 C 71.308594 80.589844 71.230469 80.527344 71.207031 80.441406 C 71.183594 80.351562 71.222656 80.257812 71.300781 80.214844 L 71.597656 80.042969 L 71.597656 79.84375 C 71.601562 79.417969 71.8125 79.023438 72.160156 78.78125 L 73.675781 77.90625 C 73.824219 77.808594 74.019531 77.796875 74.179688 77.882812 C 74.351562 78 74.449219 78.199219 74.4375 78.40625 L 74.535156 78.351562 C 74.632812 78.300781 74.75 78.335938 74.800781 78.425781 C 74.855469 78.519531 74.828125 78.636719 74.734375 78.695312 L 74.039062 79.097656 L 74.039062 78.429688 C 74.039062 78.296875 74 78.238281 73.976562 78.230469 C 73.957031 78.21875 73.917969 78.230469 73.875 78.253906 L 72.363281 79.128906 C 72.140625 79.296875 72.007812 79.558594 72 79.839844 L 72 80.273438 L 71.503906 80.558594 C 71.472656 80.578125 71.4375 80.589844 71.398438 80.589844 Z M 71.398438 80.589844 "/>
<path style=" stroke:none;fill-rule:nonzero;fill:rgb(100%,47.450981%,77.64706%);fill-opacity:1;" d="M 70.492188 81.8125 C 70.09375 83.738281 69.425781 85.597656 68.507812 87.339844 C 66.847656 90.464844 65.023438 92.277344 63.90625 93.03125 C 63.679688 93.183594 63.402344 93.238281 63.132812 93.183594 C 62.863281 93.128906 62.628906 92.964844 62.480469 92.734375 C 62.699219 92.746094 62.914062 92.683594 63.097656 92.5625 C 64.210938 91.8125 66.035156 90 67.695312 86.871094 C 68.613281 85.132812 69.28125 83.269531 69.679688 81.34375 C 69.960938 79.945312 69.957031 79.066406 69.898438 78.617188 L 70.074219 78.617188 C 70.441406 78.617188 70.609375 78.707031 70.632812 78.746094 C 70.71875 78.90625 70.886719 79.839844 70.492188 81.8125 Z M 70.492188 81.8125 "/>
<use xlink:href="#surface20" mask="url(#mask5)"/>
<path style=" stroke:none;fill-rule:nonzero;fill:rgb(100%,47.450981%,77.64706%);fill-opacity:1;" d="M 83.210938 81.488281 C 82.613281 82.441406 81.316406 83.105469 80.039062 83.105469 C 79.277344 83.109375 78.53125 82.867188 77.917969 82.414062 C 77.839844 82.355469 77.765625 82.296875 77.691406 82.230469 C 77.75 82.28125 77.808594 82.328125 77.871094 82.375 C 78.300781 82.550781 78.761719 82.636719 79.226562 82.636719 C 80.503906 82.636719 81.808594 81.972656 82.398438 81.023438 C 83.429688 79.363281 84.414062 75.980469 84.140625 72.480469 C 84.070312 71.636719 83.898438 71.125 83.691406 70.816406 C 84.125 70.839844 84.800781 71.046875 84.953125 72.949219 C 85.226562 76.449219 84.242188 79.828125 83.210938 81.488281 Z M 83.210938 81.488281 "/>
<use xlink:href="#surface23" mask="url(#mask6)"/>
<path style=" stroke:none;fill-rule:nonzero;fill:rgb(100%,47.450981%,77.64706%);fill-opacity:1;" d="M 70.074219 78.601562 C 70.441406 78.601562 70.609375 78.691406 70.632812 78.730469 C 70.71875 78.902344 70.886719 79.832031 70.492188 81.804688 C 70.09375 83.734375 69.425781 85.59375 68.507812 87.332031 C 66.847656 90.460938 65.023438 92.273438 63.90625 93.023438 C 63.660156 93.191406 63.351562 93.242188 63.066406 93.160156 C 62.777344 93.082031 62.539062 92.878906 62.414062 92.609375 C 61.976562 91.695312 61.589844 90.023438 61.773438 87.472656 C 62 84.304688 63.660156 81.800781 66.851562 79.800781 C 68.066406 79.042969 69.242188 78.601562 70.074219 78.601562 Z M 70.074219 77.601562 C 69.113281 77.601562 67.789062 78.027344 66.320312 78.945312 C 63.964844 80.421875 61.097656 82.914062 60.773438 87.398438 C 60.484375 91.359375 61.492188 93.839844 62.660156 94.367188 C 62.769531 94.414062 62.886719 94.4375 63.003906 94.433594 C 64.367188 94.433594 67.203125 91.914062 69.390625 87.800781 C 71.484375 83.859375 72.136719 79.457031 71.519531 78.269531 C 71.289062 77.828125 70.78125 77.601562 70.074219 77.601562 Z M 70.074219 77.601562 "/>
<path style=" stroke:none;fill-rule:nonzero;fill:rgb(100%,47.450981%,77.64706%);fill-opacity:1;" d="M 83.542969 70.8125 C 83.945312 70.8125 84.785156 70.8125 84.945312 72.949219 C 85.21875 76.449219 84.234375 79.828125 83.203125 81.488281 C 82.605469 82.441406 81.308594 83.105469 80.035156 83.105469 C 79.269531 83.109375 78.527344 82.867188 77.910156 82.414062 C 76.175781 81.148438 75.648438 77.976562 76.144531 76.457031 C 76.578125 75.121094 78.464844 72.976562 80.859375 71.707031 C 81.984375 71.109375 82.882812 70.8125 83.535156 70.8125 Z M 83.542969 69.8125 C 82.570312 69.8125 81.4375 70.277344 80.398438 70.824219 C 77.851562 72.175781 75.742188 74.492188 75.199219 76.148438 C 74.578125 78.054688 75.234375 81.699219 77.328125 83.222656 C 78.113281 83.800781 79.066406 84.109375 80.039062 84.105469 C 81.714844 84.105469 83.304688 83.226562 84.058594 82.019531 C 85.222656 80.140625 86.234375 76.5 85.945312 72.871094 C 85.765625 70.566406 84.785156 69.8125 83.546875 69.8125 Z M 83.542969 69.8125 "/>
<use xlink:href="#surface26" mask="url(#mask7)"/>
<path style=" stroke:none;fill-rule:nonzero;fill:rgb(21.568628%,27.843139%,30.980393%);fill-opacity:1;" d="M 60.523438 85.878906 L 48.035156 78.679688 C 46.742188 77.933594 45.148438 77.933594 43.855469 78.679688 C 42.558594 79.425781 41.761719 80.804688 41.761719 82.300781 L 41.761719 82.746094 C 41.761719 83.078125 42.03125 83.347656 42.363281 83.347656 C 42.695312 83.347656 42.960938 83.078125 42.960938 82.746094 L 42.960938 82.300781 C 42.964844 81.234375 43.53125 80.25 44.453125 79.71875 C 45.375 79.1875 46.511719 79.1875 47.4375 79.71875 L 59.925781 86.917969 C 60.214844 87.082031 60.582031 86.984375 60.746094 86.699219 C 60.910156 86.410156 60.8125 86.042969 60.527344 85.878906 Z M 60.523438 85.878906 "/>
<use xlink:href="#surface29" mask="url(#mask8)"/>
<use xlink:href="#surface32" mask="url(#mask9)"/>
<path style=" stroke:none;fill-rule:nonzero;fill:rgb(21.568628%,27.843139%,30.980393%);fill-opacity:1;" d="M 65.753906 79.019531 C 65.664062 79.019531 65.585938 78.960938 65.5625 78.875 C 65.535156 78.789062 65.570312 78.699219 65.644531 78.648438 C 70.167969 75.640625 74.875 72.921875 79.746094 70.511719 C 79.8125 70.472656 79.890625 70.472656 79.953125 70.515625 C 80.019531 70.554688 80.054688 70.625 80.046875 70.699219 C 80.039062 70.773438 79.992188 70.839844 79.921875 70.867188 C 75.070312 73.269531 70.375 75.980469 65.867188 78.984375 C 65.832031 79.007812 65.792969 79.019531 65.753906 79.019531 Z M 65.753906 79.019531 "/>
<path style=" stroke:none;fill-rule:nonzero;fill:rgb(100%,47.450981%,77.64706%);fill-opacity:1;" d="M 44.976562 61.84375 L 44.125 61.351562 L 44.058594 59.78125 L 33.976562 53.957031 C 32.601562 53.15625 31.242188 53.132812 30.195312 53.726562 L 30.9375 53.296875 C 31.992188 52.664062 33.382812 52.679688 34.785156 53.488281 L 44.871094 59.308594 Z M 44.976562 61.84375 "/>
<use xlink:href="#surface35" mask="url(#mask10)"/>
<path style=" stroke:none;fill-rule:nonzero;fill:rgb(100%,47.450981%,77.64706%);fill-opacity:1;" d="M 31.824219 55.515625 C 31.667969 55.730469 31.5625 55.980469 31.519531 56.242188 L 31.4375 56.703125 C 31.398438 56.929688 31.308594 57.144531 31.175781 57.328125 C 31.050781 57.507812 30.886719 57.652344 30.695312 57.757812 L 29.90625 58.214844 C 30.289062 57.992188 30.550781 57.609375 30.628906 57.175781 L 30.710938 56.710938 C 30.835938 56.011719 31.273438 55.578125 31.824219 55.515625 Z M 31.824219 55.515625 "/>
<use xlink:href="#surface38" mask="url(#mask11)"/>
<path style=" stroke:none;fill-rule:nonzero;fill:rgb(100%,47.450981%,77.64706%);fill-opacity:1;" d="M 44.164062 62.3125 L 32.800781 55.742188 C 32.511719 55.566406 32.171875 55.484375 31.835938 55.515625 C 31.28125 55.578125 30.835938 56.011719 30.71875 56.714844 L 30.636719 57.179688 C 30.558594 57.613281 30.296875 57.996094 29.914062 58.21875 L 29.882812 58.238281 C 29.417969 58.507812 28.84375 58.507812 28.375 58.238281 C 28.222656 58.144531 28.144531 57.96875 28.175781 57.792969 L 28.394531 56.574219 C 28.628906 55.253906 29.277344 54.292969 30.148438 53.773438 L 30.207031 53.738281 C 31.257812 53.140625 32.609375 53.179688 33.988281 53.972656 L 44.058594 59.78125 L 44.125 61.351562 Z M 44.164062 62.3125 "/>
<use xlink:href="#surface41" mask="url(#mask12)"/>
<path style=" stroke:none;fill-rule:nonzero;fill:rgb(100%,47.450981%,77.64706%);fill-opacity:1;" d="M 70.566406 47.070312 L 69.714844 46.578125 L 69.648438 45.007812 L 59.5625 39.1875 C 58.191406 38.386719 56.828125 38.363281 55.78125 38.953125 L 56.527344 38.527344 C 57.582031 37.894531 58.96875 37.90625 60.375 38.726562 L 70.460938 44.546875 Z M 70.566406 47.070312 "/>
<use xlink:href="#surface44" mask="url(#mask13)"/>
<path style=" stroke:none;fill-rule:nonzero;fill:rgb(100%,47.450981%,77.64706%);fill-opacity:1;" d="M 57.414062 40.742188 C 57.253906 40.957031 57.148438 41.207031 57.109375 41.472656 L 57.027344 41.933594 C 56.988281 42.15625 56.898438 42.371094 56.765625 42.558594 C 56.636719 42.734375 56.472656 42.878906 56.285156 42.984375 L 55.492188 43.445312 C 55.875 43.21875 56.140625 42.839844 56.214844 42.402344 L 56.296875 41.941406 C 56.421875 41.238281 56.863281 40.800781 57.414062 40.742188 Z M 57.414062 40.742188 "/>
<use xlink:href="#surface47" mask="url(#mask14)"/>
<path style=" stroke:none;fill-rule:nonzero;fill:rgb(100%,47.450981%,77.64706%);fill-opacity:1;" d="M 69.753906 47.542969 L 58.378906 40.972656 C 58.089844 40.792969 57.753906 40.710938 57.414062 40.742188 C 56.863281 40.808594 56.414062 41.238281 56.296875 41.945312 L 56.214844 42.40625 C 56.140625 42.84375 55.875 43.222656 55.492188 43.449219 L 55.464844 43.464844 C 54.996094 43.734375 54.421875 43.734375 53.957031 43.464844 C 53.804688 43.375 53.722656 43.199219 53.757812 43.023438 L 53.972656 41.800781 C 54.210938 40.480469 54.855469 39.519531 55.730469 39.003906 L 55.789062 38.96875 C 56.835938 38.367188 58.1875 38.40625 59.570312 39.199219 L 69.648438 45 L 69.714844 46.570312 Z M 69.753906 47.542969 "/>
<use xlink:href="#surface50" mask="url(#mask15)"/>
<path style=" stroke:none;fill-rule:nonzero;fill:rgb(0%,0%,0%);fill-opacity:1;" d="M 71.273438 45 C 70.835938 45.175781 70.339844 45.382812 69.808594 45.625 C 67.449219 46.699219 64.367188 48.386719 62.507812 50.058594 C 60.179688 52.160156 59.359375 53.488281 58.070312 54.234375 C 56.78125 54.980469 55.960938 54.597656 53.632812 55.183594 C 51.777344 55.652344 48.695312 57.527344 46.335938 59.183594 C 45.800781 59.554688 45.304688 59.914062 44.871094 60.246094 C 44.730469 61.089844 44.765625 61.953125 44.980469 62.78125 C 44.980469 62.78125 45.484375 62.335938 45.738281 63.320312 C 45.992188 64.304688 46.152344 66.382812 46.640625 67.304688 C 46.847656 67.742188 47.171875 68.113281 47.578125 68.378906 L 47.589844 68.378906 C 47.734375 68.464844 47.890625 68.53125 48.054688 68.578125 C 48.144531 68.601562 48.238281 68.617188 48.328125 68.632812 C 48.601562 68.664062 48.878906 68.65625 49.148438 68.605469 C 49.195312 68.605469 49.238281 68.589844 49.285156 68.578125 C 49.332031 68.566406 49.429688 68.546875 49.503906 68.527344 C 49.578125 68.507812 49.652344 68.480469 49.730469 68.457031 C 49.980469 68.378906 50.222656 68.28125 50.457031 68.167969 C 50.554688 68.125 50.65625 68.070312 50.765625 68.019531 C 50.875 67.964844 51.019531 67.882812 51.152344 67.804688 C 54.152344 66.074219 55.398438 63.691406 56.140625 61.550781 C 56.878906 59.410156 56.683594 57.113281 58.066406 56.3125 C 58.109375 56.289062 58.152344 56.265625 58.199219 56.246094 C 58.238281 56.226562 58.277344 56.210938 58.320312 56.199219 C 59.429688 55.84375 59.300781 58.128906 59.992188 59.328125 C 60.238281 59.792969 60.601562 60.1875 61.046875 60.46875 C 61.125 60.515625 61.210938 60.558594 61.296875 60.59375 C 61.339844 60.613281 61.382812 60.628906 61.429688 60.644531 C 61.476562 60.660156 61.523438 60.675781 61.570312 60.6875 C 61.617188 60.699219 61.652344 60.707031 61.699219 60.714844 L 61.835938 60.730469 C 61.871094 60.738281 61.910156 60.742188 61.945312 60.742188 L 62.023438 60.742188 C 62.457031 60.761719 62.886719 60.703125 63.300781 60.566406 L 63.417969 60.53125 C 63.960938 60.34375 64.484375 60.101562 64.980469 59.804688 C 67.980469 58.074219 69.011719 55.574219 69.496094 54.089844 C 69.984375 52.605469 70.148438 50.339844 70.402344 49.0625 C 70.65625 47.785156 71.160156 47.648438 71.160156 47.648438 C 71.523438 46 71.273438 45 71.273438 45 Z M 55.363281 60.398438 C 55.1875 61.445312 54.839844 62.453125 54.328125 63.382812 C 53.570312 64.753906 52.4375 65.882812 51.066406 66.640625 C 49.441406 67.558594 48.488281 67.324219 47.921875 66.734375 C 47.882812 66.699219 47.851562 66.660156 47.820312 66.621094 C 47.789062 66.585938 47.757812 66.546875 47.726562 66.507812 C 47.699219 66.46875 47.671875 66.429688 47.648438 66.390625 C 47.628906 66.359375 47.605469 66.320312 47.585938 66.285156 C 47.566406 66.257812 47.550781 66.230469 47.539062 66.199219 C 47.523438 66.175781 47.507812 66.148438 47.496094 66.121094 C 47.472656 66.078125 47.453125 66.03125 47.433594 65.988281 C 47.371094 65.859375 47.320312 65.722656 47.273438 65.589844 C 47.246094 65.503906 47.21875 65.414062 47.195312 65.335938 C 47.152344 65.183594 47.121094 65.039062 47.09375 64.910156 L 47.074219 64.828125 L 47.054688 64.753906 C 46.820312 63.695312 46.542969 61.511719 47.054688 60.683594 C 47.570312 59.855469 48.933594 58.511719 51.164062 57.464844 C 51.238281 57.425781 51.320312 57.390625 51.402344 57.355469 C 51.734375 57.203125 52.074219 57.074219 52.421875 56.964844 C 52.554688 56.921875 52.6875 56.882812 52.820312 56.847656 C 53.148438 56.753906 53.484375 56.6875 53.820312 56.644531 C 53.929688 56.632812 54.023438 56.621094 54.125 56.617188 C 54.234375 56.605469 54.347656 56.601562 54.457031 56.605469 L 54.640625 56.605469 C 54.886719 56.601562 55.125 56.6875 55.3125 56.84375 C 55.742188 57.300781 55.613281 58.925781 55.363281 60.398438 Z M 69.09375 52 C 68.910156 53.035156 68.519531 55.273438 66.851562 57.109375 C 66.335938 57.671875 65.738281 58.15625 65.074219 58.542969 C 63.1875 59.664062 62.113281 59.425781 61.503906 58.800781 L 61.503906 58.789062 C 61.480469 58.765625 61.457031 58.738281 61.4375 58.714844 C 61.410156 58.6875 61.386719 58.65625 61.367188 58.628906 L 61.328125 58.585938 C 61.296875 58.539062 61.265625 58.492188 61.238281 58.449219 C 61.210938 58.402344 61.171875 58.339844 61.140625 58.28125 C 61.125 58.257812 61.113281 58.226562 61.097656 58.199219 L 61.074219 58.152344 C 61.0625 58.128906 61.054688 58.105469 61.042969 58.078125 C 61.035156 58.054688 61.027344 58.042969 61.019531 58.023438 C 60.917969 57.777344 60.839844 57.527344 60.789062 57.265625 C 60.539062 56.078125 60.40625 54.609375 60.855469 53.621094 C 61.300781 52.628906 63.054688 50.820312 64.753906 49.621094 C 65.144531 49.34375 65.507812 49.105469 65.851562 48.902344 L 65.980469 48.828125 L 66.121094 48.746094 C 66.25 48.675781 66.378906 48.605469 66.5 48.546875 L 66.636719 48.476562 L 66.816406 48.390625 C 66.921875 48.34375 67.019531 48.296875 67.117188 48.257812 C 67.316406 48.175781 67.496094 48.105469 67.664062 48.058594 L 67.796875 48.019531 L 67.828125 48.019531 C 67.859375 48.019531 67.886719 48 67.917969 47.992188 C 67.949219 47.988281 68.007812 47.96875 68.050781 47.960938 C 68.09375 47.949219 68.15625 47.9375 68.207031 47.925781 C 68.292969 47.910156 68.378906 47.898438 68.46875 47.890625 L 68.515625 47.890625 C 68.714844 47.863281 68.921875 47.882812 69.113281 47.957031 C 69.601562 48.171875 69.324219 50.683594 69.09375 52 Z M 69.09375 52 "/>
<path style=" stroke:none;fill-rule:nonzero;fill:rgb(0%,0%,0%);fill-opacity:1;" d="M 61.050781 60.46875 L 60.269531 60.019531 C 59.808594 59.738281 59.433594 59.335938 59.1875 58.859375 C 58.742188 58.09375 58.636719 56.878906 58.324219 56.199219 C 59.433594 55.84375 59.304688 58.128906 59.996094 59.328125 C 60.242188 59.792969 60.605469 60.1875 61.050781 60.46875 Z M 61.050781 60.46875 "/>
<path style=" stroke:none;fill-rule:nonzero;fill:rgb(0%,0%,0%);fill-opacity:1;" d="M 46.640625 67.304688 C 46.152344 66.382812 45.988281 64.304688 45.738281 63.320312 C 45.484375 62.339844 44.980469 62.785156 44.980469 62.785156 L 44.890625 62.730469 C 44.902344 62.769531 44.914062 62.808594 44.925781 62.855469 C 45.179688 63.839844 45.339844 65.914062 45.828125 66.839844 C 46.039062 67.28125 46.367188 67.65625 46.78125 67.917969 L 47.578125 68.378906 C 47.171875 68.117188 46.847656 67.742188 46.640625 67.304688 Z M 46.640625 67.304688 "/>
<path style=" stroke:none;fill-rule:nonzero;fill:rgb(0%,0%,0%);fill-opacity:1;" d="M 44.871094 60.246094 L 44.058594 59.78125 C 43.917969 60.621094 43.953125 61.484375 44.164062 62.3125 L 44.890625 62.730469 L 44.980469 62.785156 C 44.765625 61.957031 44.730469 61.089844 44.871094 60.246094 Z M 44.871094 60.246094 "/>
<path style=" stroke:none;fill-rule:nonzero;fill:rgb(27.058825%,35.294119%,39.215687%);fill-opacity:1;" d="M 70.460938 44.539062 C 70.023438 44.710938 69.527344 44.921875 68.996094 45.160156 C 66.636719 46.234375 63.554688 47.921875 61.695312 49.597656 C 59.367188 51.699219 58.546875 53.027344 57.257812 53.773438 C 55.96875 54.515625 55.148438 54.132812 52.820312 54.71875 C 50.964844 55.191406 47.882812 57.066406 45.523438 58.71875 C 44.988281 59.089844 44.492188 59.453125 44.058594 59.785156 L 44.871094 60.253906 C 45.304688 59.921875 45.800781 59.558594 46.335938 59.1875 C 48.695312 57.539062 51.777344 55.664062 53.632812 55.1875 C 55.960938 54.601562 56.78125 54.988281 58.070312 54.242188 C 59.359375 53.496094 60.179688 52.167969 62.507812 50.066406 C 64.367188 48.390625 67.449219 46.707031 69.808594 45.628906 C 70.339844 45.386719 70.835938 45.179688 71.273438 45.007812 Z M 70.460938 44.539062 "/>
<path style=" stroke:none;fill-rule:nonzero;fill:rgb(21.568628%,27.843139%,30.980393%);fill-opacity:1;" d="M 71.273438 45 C 70.835938 45.175781 70.339844 45.382812 69.808594 45.625 C 67.449219 46.699219 64.367188 48.386719 62.507812 50.058594 C 60.179688 52.160156 59.359375 53.488281 58.070312 54.234375 C 56.78125 54.980469 55.960938 54.597656 53.632812 55.183594 C 51.777344 55.652344 48.695312 57.527344 46.335938 59.183594 C 45.800781 59.554688 45.304688 59.914062 44.871094 60.246094 C 44.730469 61.089844 44.765625 61.953125 44.980469 62.78125 C 44.980469 62.78125 45.484375 62.335938 45.738281 63.320312 C 45.992188 64.304688 46.152344 66.382812 46.640625 67.304688 C 46.847656 67.742188 47.171875 68.113281 47.578125 68.378906 L 47.589844 68.378906 C 47.734375 68.464844 47.890625 68.535156 48.054688 68.578125 C 48.144531 68.601562 48.238281 68.617188 48.328125 68.632812 C 48.601562 68.664062 48.878906 68.65625 49.148438 68.605469 C 49.195312 68.605469 49.238281 68.589844 49.285156 68.578125 C 49.332031 68.566406 49.429688 68.546875 49.503906 68.527344 C 49.578125 68.507812 49.652344 68.480469 49.730469 68.457031 C 49.980469 68.378906 50.222656 68.28125 50.457031 68.167969 C 50.554688 68.125 50.65625 68.070312 50.765625 68.019531 C 50.875 67.964844 51.019531 67.882812 51.152344 67.804688 C 54.152344 66.074219 55.398438 63.691406 56.140625 61.550781 C 56.878906 59.410156 56.683594 57.113281 58.066406 56.3125 C 58.109375 56.289062 58.152344 56.265625 58.199219 56.246094 C 58.238281 56.226562 58.277344 56.210938 58.320312 56.199219 C 59.429688 55.84375 59.300781 58.128906 59.992188 59.328125 C 60.238281 59.792969 60.601562 60.1875 61.046875 60.46875 C 61.125 60.515625 61.210938 60.554688 61.296875 60.59375 C 61.339844 60.613281 61.382812 60.628906 61.429688 60.640625 C 61.476562 60.65625 61.523438 60.671875 61.570312 60.683594 C 61.617188 60.695312 61.652344 60.707031 61.699219 60.714844 L 61.835938 60.730469 C 61.871094 60.734375 61.910156 60.738281 61.945312 60.742188 L 62.023438 60.742188 C 62.457031 60.761719 62.886719 60.703125 63.300781 60.566406 L 63.417969 60.527344 C 63.960938 60.339844 64.484375 60.097656 64.980469 59.804688 C 67.980469 58.070312 69.011719 55.574219 69.496094 54.089844 C 69.984375 52.601562 70.148438 50.339844 70.402344 49.058594 C 70.65625 47.78125 71.160156 47.644531 71.160156 47.644531 C 71.523438 46 71.273438 45 71.273438 45 Z M 55.363281 60.398438 C 55.1875 61.445312 54.839844 62.453125 54.328125 63.382812 C 53.570312 64.753906 52.4375 65.882812 51.066406 66.640625 C 49.441406 67.558594 48.488281 67.324219 47.921875 66.734375 C 47.882812 66.699219 47.851562 66.660156 47.820312 66.621094 C 47.785156 66.585938 47.757812 66.546875 47.726562 66.507812 C 47.699219 66.46875 47.671875 66.429688 47.648438 66.390625 C 47.628906 66.359375 47.605469 66.320312 47.585938 66.285156 C 47.566406 66.257812 47.550781 66.230469 47.539062 66.199219 C 47.523438 66.175781 47.507812 66.148438 47.496094 66.121094 C 47.472656 66.078125 47.453125 66.03125 47.433594 65.988281 C 47.371094 65.859375 47.320312 65.722656 47.273438 65.589844 C 47.246094 65.503906 47.21875 65.414062 47.195312 65.335938 C 47.152344 65.183594 47.121094 65.039062 47.09375 64.910156 L 47.074219 64.828125 L 47.054688 64.753906 C 46.820312 63.695312 46.542969 61.511719 47.054688 60.683594 C 47.570312 59.855469 48.933594 58.511719 51.164062 57.464844 C 51.238281 57.425781 51.320312 57.390625 51.402344 57.355469 C 51.734375 57.203125 52.074219 57.074219 52.421875 56.964844 C 52.554688 56.921875 52.6875 56.882812 52.820312 56.847656 C 53.148438 56.753906 53.484375 56.6875 53.820312 56.644531 C 53.929688 56.632812 54.023438 56.621094 54.125 56.617188 C 54.234375 56.605469 54.347656 56.601562 54.457031 56.605469 L 54.523438 56.605469 C 54.5625 56.601562 54.601562 56.601562 54.640625 56.605469 C 54.886719 56.601562 55.125 56.6875 55.3125 56.84375 C 55.742188 57.300781 55.613281 58.925781 55.363281 60.398438 Z M 69.09375 52 C 68.910156 53.035156 68.519531 55.273438 66.851562 57.109375 C 66.335938 57.671875 65.738281 58.15625 65.074219 58.542969 C 63.1875 59.664062 62.113281 59.425781 61.503906 58.800781 L 61.503906 58.789062 C 61.480469 58.765625 61.457031 58.738281 61.4375 58.714844 C 61.410156 58.6875 61.386719 58.65625 61.367188 58.628906 L 61.328125 58.585938 C 61.296875 58.539062 61.265625 58.492188 61.238281 58.449219 C 61.210938 58.402344 61.171875 58.339844 61.140625 58.28125 C 61.125 58.257812 61.113281 58.226562 61.097656 58.199219 L 61.074219 58.152344 C 61.0625 58.128906 61.054688 58.105469 61.042969 58.078125 C 61.035156 58.054688 61.027344 58.042969 61.019531 58.023438 C 60.917969 57.777344 60.839844 57.527344 60.789062 57.265625 C 60.539062 56.078125 60.40625 54.609375 60.855469 53.621094 C 61.300781 52.628906 63.054688 50.820312 64.753906 49.621094 C 65.144531 49.34375 65.507812 49.105469 65.851562 48.902344 L 65.980469 48.828125 L 66.121094 48.746094 C 66.25 48.675781 66.378906 48.605469 66.5 48.546875 L 66.636719 48.476562 L 66.816406 48.390625 C 66.921875 48.34375 67.019531 48.296875 67.117188 48.257812 C 67.316406 48.175781 67.496094 48.105469 67.664062 48.058594 L 67.796875 48.019531 L 67.828125 48.019531 C 67.859375 48.019531 67.886719 48 67.917969 47.992188 C 67.949219 47.988281 68.007812 47.96875 68.050781 47.960938 C 68.09375 47.949219 68.15625 47.9375 68.207031 47.925781 C 68.292969 47.910156 68.378906 47.898438 68.46875 47.890625 L 68.515625 47.890625 C 68.714844 47.863281 68.921875 47.882812 69.113281 47.957031 C 69.601562 48.171875 69.324219 50.683594 69.09375 52 Z M 69.09375 52 "/>
<path style=" stroke:none;fill-rule:nonzero;fill:rgb(0%,0%,0%);fill-opacity:1;" d="M 55.363281 60.398438 C 55.1875 61.445312 54.839844 62.453125 54.328125 63.382812 C 53.570312 64.753906 52.4375 65.882812 51.066406 66.640625 C 49.441406 67.558594 48.488281 67.324219 47.921875 66.734375 C 48.480469 66.867188 49.234375 66.746094 50.253906 66.171875 C 51.625 65.414062 52.757812 64.28125 53.519531 62.910156 C 54.027344 61.984375 54.375 60.972656 54.550781 59.929688 C 54.769531 58.640625 54.898438 57.238281 54.625 56.59375 C 54.871094 56.585938 55.109375 56.671875 55.296875 56.828125 C 55.742188 57.300781 55.613281 58.925781 55.363281 60.398438 Z M 55.363281 60.398438 "/>
<path style=" stroke:none;fill-rule:nonzero;fill:rgb(0%,0%,0%);fill-opacity:1;" d="M 69.09375 52 C 68.910156 53.035156 68.519531 55.273438 66.851562 57.109375 C 66.335938 57.671875 65.738281 58.15625 65.074219 58.542969 C 63.1875 59.664062 62.113281 59.425781 61.503906 58.800781 C 62.136719 58.957031 63.023438 58.800781 64.265625 58.074219 C 64.925781 57.6875 65.523438 57.203125 66.039062 56.636719 C 67.707031 54.804688 68.101562 52.566406 68.28125 51.53125 C 68.464844 50.492188 68.683594 48.675781 68.503906 47.863281 C 68.707031 47.835938 68.914062 47.859375 69.105469 47.929688 C 69.601562 48.171875 69.324219 50.683594 69.09375 52 Z M 69.09375 52 "/>
<use xlink:href="#surface53" mask="url(#mask16)"/>
<use xlink:href="#surface56" mask="url(#mask17)"/>
<path style=" stroke:none;fill-rule:nonzero;fill:rgb(21.568628%,27.843139%,30.980393%);fill-opacity:1;" d="M 30.824219 30.523438 C 30.703125 30.523438 30.582031 30.488281 30.476562 30.429688 L 18.023438 23.238281 C 17.121094 22.71875 16.011719 22.71875 15.109375 23.238281 C 14.210938 23.757812 13.652344 24.722656 13.652344 25.761719 L 13.652344 26.066406 C 13.652344 26.453125 13.339844 26.769531 12.953125 26.769531 C 12.566406 26.769531 12.253906 26.453125 12.253906 26.066406 L 12.253906 25.761719 C 12.253906 24.222656 13.078125 22.796875 14.410156 22.027344 C 15.746094 21.257812 17.390625 21.257812 18.722656 22.027344 L 31.175781 29.226562 C 31.449219 29.382812 31.582031 29.707031 31.5 30.011719 C 31.417969 30.320312 31.144531 30.53125 30.824219 30.53125 Z M 30.824219 30.523438 "/>
<path style=" stroke:none;fill-rule:nonzero;fill:rgb(21.568628%,27.843139%,30.980393%);fill-opacity:1;" d="M 52.363281 18.085938 C 52.238281 18.085938 52.121094 18.054688 52.015625 17.992188 L 39.5625 10.800781 C 38.660156 10.285156 37.550781 10.289062 36.652344 10.808594 C 35.753906 11.328125 35.203125 12.289062 35.199219 13.328125 L 35.199219 13.632812 C 35.199219 14.019531 34.886719 14.335938 34.5 14.335938 C 34.113281 14.335938 33.800781 14.019531 33.800781 13.632812 L 33.800781 13.328125 C 33.804688 11.792969 34.628906 10.375 35.960938 9.605469 C 37.289062 8.839844 38.929688 8.835938 40.261719 9.601562 L 52.714844 16.78125 C 52.988281 16.9375 53.121094 17.261719 53.039062 17.566406 C 52.957031 17.875 52.679688 18.085938 52.363281 18.085938 Z M 52.363281 18.085938 "/>
<path style=" stroke:none;fill-rule:nonzero;fill:rgb(100%,47.450981%,77.64706%);fill-opacity:1;" d="M 53.484375 15.746094 L 52.675781 15.28125 C 52.09375 14.929688 48.515625 16.953125 47.074219 18.015625 C 44.582031 19.886719 42.882812 22.625 42.304688 25.691406 C 41.886719 25.445312 41.363281 25.460938 40.960938 25.726562 C 40.191406 26.171875 39.613281 27.242188 39.613281 27.242188 C 39.476562 26.609375 39.1875 26.015625 38.773438 25.515625 L 38.972656 25.46875 L 38.140625 24.988281 C 37.328125 24.523438 36.230469 24.519531 34.855469 25.09375 C 33.386719 25.703125 29.671875 27.890625 29.21875 28.890625 C 28.460938 30.542969 28.832031 34.121094 29.21875 35.929688 C 29.546875 37.476562 30.238281 38.589844 31.179688 39.136719 L 32.046875 39.640625 L 32.007812 39.460938 C 32.839844 39.644531 33.804688 39.460938 34.859375 38.863281 C 37.617188 37.261719 39.859375 32.992188 39.859375 29.3125 C 39.859375 29.3125 40.207031 27.660156 40.976562 27.21875 C 41.746094 26.773438 42.097656 28.019531 42.097656 28.019531 C 42.097656 30.019531 42.761719 31.441406 43.816406 32.054688 L 44.652344 32.539062 L 44.695312 32.363281 C 45.40625 32.472656 46.222656 32.296875 47.09375 31.796875 C 49.855469 30.195312 52.054688 26.3125 52.730469 22.351562 C 53.050781 20.496094 53.355469 17.449219 53.03125 16 Z M 34.839844 37.335938 C 32.707031 38.566406 30.980469 37.261719 30.980469 34.414062 C 30.980469 31.570312 32.707031 28.273438 34.839844 27.039062 C 36.972656 25.808594 38.699219 27.117188 38.699219 29.960938 C 38.699219 32.804688 36.972656 36.105469 34.839844 37.335938 Z M 47.074219 30.273438 C 44.945312 31.503906 43.214844 30.195312 43.214844 27.355469 C 43.214844 24.511719 44.945312 21.207031 47.074219 19.976562 C 49.207031 18.746094 50.9375 20.050781 50.9375 22.894531 C 50.9375 25.738281 49.199219 29.039062 47.074219 30.273438 Z M 47.074219 30.273438 "/>
<use xlink:href="#surface59" mask="url(#mask18)"/>
<use xlink:href="#surface62" mask="url(#mask19)"/>
<use xlink:href="#surface65" mask="url(#mask20)"/>
<use xlink:href="#surface68" mask="url(#mask21)"/>
<use xlink:href="#surface71" mask="url(#mask22)"/>
<use xlink:href="#surface74" mask="url(#mask23)"/>
<use xlink:href="#surface77" mask="url(#mask24)"/>
<path style=" stroke:none;fill-rule:nonzero;fill:rgb(100%,47.450981%,77.64706%);fill-opacity:1;" d="M 53.527344 15.777344 C 53.070312 15.304688 49.359375 17.398438 47.886719 18.484375 C 45.394531 20.359375 43.695312 23.097656 43.117188 26.160156 C 42.699219 25.914062 42.175781 25.929688 41.773438 26.199219 C 41.003906 26.640625 40.425781 27.714844 40.425781 27.714844 C 40.335938 27.335938 40.203125 26.96875 40.027344 26.625 C 39.253906 25.164062 37.785156 24.671875 35.65625 25.558594 C 34.1875 26.171875 30.472656 28.359375 30.019531 29.359375 C 29.265625 31.011719 29.632812 34.589844 30.019531 36.394531 C 30.695312 39.570312 32.898438 40.921875 35.65625 39.324219 C 38.417969 37.730469 40.65625 33.457031 40.65625 29.777344 C 40.65625 29.777344 41.007812 28.125 41.777344 27.683594 C 42.546875 27.238281 42.898438 28.480469 42.898438 28.480469 C 42.898438 32.160156 45.136719 33.855469 47.898438 32.261719 C 50.660156 30.664062 52.859375 26.777344 53.535156 22.816406 C 53.910156 20.5625 54.28125 16.558594 53.527344 15.777344 Z M 35.652344 37.800781 C 33.519531 39.03125 31.792969 37.722656 31.792969 34.882812 C 31.792969 32.039062 33.519531 28.734375 35.652344 27.507812 C 37.785156 26.277344 39.511719 27.582031 39.511719 30.425781 C 39.511719 33.265625 37.785156 36.574219 35.652344 37.800781 Z M 47.886719 30.734375 C 45.757812 31.96875 44.027344 30.660156 44.027344 27.816406 C 44.027344 24.976562 45.757812 21.671875 47.886719 20.441406 C 50.019531 19.210938 51.746094 20.519531 51.746094 23.359375 C 51.746094 26.203125 50.019531 29.511719 47.886719 30.738281 Z M 47.886719 30.734375 "/>
<path style=" stroke:none;fill-rule:nonzero;fill:rgb(21.568628%,27.843139%,30.980393%);fill-opacity:1;" d="M 30.359375 30.09375 C 30.363281 29.734375 30.535156 29.402344 30.824219 29.195312 C 31.085938 29.046875 31.292969 29.207031 31.292969 29.550781 C 31.289062 29.90625 31.113281 30.238281 30.824219 30.445312 C 30.566406 30.601562 30.359375 30.4375 30.359375 30.09375 Z M 30.359375 30.09375 "/>
<path style=" stroke:none;fill-rule:nonzero;fill:rgb(21.568628%,27.843139%,30.980393%);fill-opacity:1;" d="M 52.832031 17.117188 C 52.832031 16.773438 52.621094 16.613281 52.363281 16.761719 C 52.074219 16.96875 51.902344 17.300781 51.894531 17.65625 C 51.894531 18.003906 52.097656 18.160156 52.363281 18.011719 C 52.652344 17.804688 52.828125 17.472656 52.832031 17.117188 Z M 52.832031 17.117188 "/>
<use xlink:href="#surface80" mask="url(#mask25)"/>
<use xlink:href="#surface83" mask="url(#mask26)"/>
<use xlink:href="#surface89" mask="url(#mask27)"/>
<use xlink:href="#surface95" mask="url(#mask29)"/>
<use xlink:href="#surface98" mask="url(#mask31)"/>
<use xlink:href="#surface101" mask="url(#mask32)"/>
<path style=" stroke:none;fill-rule:nonzero;fill:rgb(100%,65.882355%,65.490198%);fill-opacity:1;" d="M 70.835938 18.058594 C 71.128906 18.300781 71.464844 18.425781 71.851562 18.800781 C 72.09375 19.078125 72.402344 19.292969 72.746094 19.425781 C 73.191406 19.601562 73.613281 19.546875 74.847656 19.351562 C 76.359375 19.109375 77.011719 18.855469 77.664062 18.296875 C 78.425781 17.648438 80.132812 15.6875 80.957031 14.914062 C 81.828125 14.101562 83.027344 14.414062 83.027344 14.414062 C 82.660156 15.617188 82.109375 16.757812 81.398438 17.800781 C 80.738281 18.738281 79.507812 19.640625 78.949219 20.105469 C 78.054688 20.847656 77.578125 21.140625 75.617188 21.289062 C 74.136719 21.402344 73.941406 21.4375 72.726562 21.402344 C 72.289062 21.386719 72.015625 21.382812 71.300781 21.324219 C 70.988281 21.304688 70.679688 21.25 70.378906 21.164062 C 70.042969 21.085938 69.71875 20.957031 69.417969 20.785156 C 69.027344 20.53125 68.710938 20.175781 68.503906 19.757812 C 68.386719 19.527344 68.332031 19.273438 68.332031 19.015625 C 68.335938 18.761719 68.433594 18.515625 68.601562 18.320312 C 68.632812 18.28125 68.675781 18.25 68.722656 18.230469 C 68.816406 18.214844 68.914062 18.234375 68.992188 18.289062 C 69.457031 18.527344 69.921875 18.855469 70.40625 19.039062 C 70.816406 19.199219 71.128906 19.253906 71.101562 19.171875 C 71.070312 19.089844 70.820312 19.011719 70.566406 18.726562 C 70.3125 18.441406 70.25 18.039062 70.414062 17.910156 C 70.578125 17.785156 70.539062 17.816406 70.835938 18.058594 Z M 70.835938 18.058594 "/>
<path style=" stroke:none;fill-rule:nonzero;fill:rgb(87.843138%,87.843138%,87.843138%);fill-opacity:1;" d="M 83.378906 14.398438 C 82.914062 14.175781 82.382812 14.117188 81.878906 14.234375 C 81.117188 14.457031 80.507812 14.957031 79.777344 15.734375 C 79.050781 16.515625 77.820312 17.800781 77.820312 17.800781 C 77.820312 17.800781 78.421875 19.328125 79.785156 19.875 L 82.632812 17.238281 Z M 83.378906 14.398438 "/>
<path style=" stroke:none;fill-rule:nonzero;fill:rgb(100%,65.882355%,65.490198%);fill-opacity:1;" d="M 85.839844 49.390625 L 87.566406 49.390625 L 87.566406 52.347656 L 85.839844 52.347656 Z M 85.839844 49.390625 "/>
<path style=" stroke:none;fill-rule:nonzero;fill:rgb(100%,65.882355%,65.490198%);fill-opacity:1;" d="M 82.785156 50.132812 L 81.058594 50.195312 L 80.972656 47.0625 L 82.785156 47.003906 Z M 82.785156 50.132812 "/>
<path style=" stroke:none;fill-rule:nonzero;fill:rgb(21.568628%,27.843139%,30.980393%);fill-opacity:1;" d="M 88.300781 27.308594 C 88.300781 28.957031 88.011719 38.554688 88.011719 38.554688 C 88.050781 39.027344 88.507812 39.871094 88.542969 41.582031 C 88.59375 44.058594 87.640625 50.867188 87.640625 50.867188 C 87.035156 51.164062 86.332031 51.179688 85.714844 50.90625 C 85.714844 50.90625 84.933594 41.679688 84.625 39.222656 C 84.355469 37.082031 83.894531 31.265625 83.894531 31.265625 L 83.082031 38.265625 C 83.28125 39.160156 83.351562 40.082031 83.296875 41 C 83.214844 42.132812 82.894531 49.160156 82.894531 49.160156 C 82.285156 49.507812 81.550781 49.566406 80.894531 49.316406 C 80.894531 49.316406 79.679688 39.296875 79.65625 38.253906 C 79.632812 37.066406 80.109375 24.945312 80.109375 24.945312 Z M 88.300781 27.308594 "/>
<path style=" stroke:none;fill-rule:nonzero;fill:rgb(94.117647%,94.117647%,94.117647%);fill-opacity:1;" d="M 87.167969 15.175781 C 87.546875 15.34375 87.847656 15.65625 88 16.042969 C 88.175781 16.519531 88.261719 17.023438 88.253906 17.535156 L 88.253906 20.917969 L 88.300781 27.316406 C 85.820312 28.625 82.671875 28.71875 80.027344 26.78125 C 80.027344 26.78125 80.175781 18.554688 80.175781 17.207031 C 80.175781 17.148438 80.175781 17.085938 80.175781 17.023438 C 80.269531 15.101562 82.160156 13.78125 84.027344 14.261719 L 85.59375 14.660156 L 87.164062 15.179688 Z M 87.167969 15.175781 "/>
<path style=" stroke:none;fill-rule:nonzero;fill:rgb(14.901961%,19.607843%,21.960784%);fill-opacity:1;" d="M 85.839844 51.492188 L 85.839844 51.246094 C 85.675781 51.316406 85.289062 52.785156 84.605469 53.410156 C 84.058594 53.90625 83.316406 54.480469 83.128906 55.035156 C 82.941406 55.589844 84.160156 55.929688 84.671875 55.835938 C 85.261719 55.730469 86.289062 55.3125 86.546875 54.929688 C 86.804688 54.542969 86.925781 53.972656 87.132812 53.6875 C 87.339844 53.402344 87.824219 53.089844 87.933594 52.761719 C 87.992188 52.582031 87.921875 52.1875 87.835938 51.855469 C 87.746094 51.523438 87.664062 51.214844 87.5625 51.242188 L 87.5625 51.433594 C 87.316406 51.625 87.011719 51.726562 86.699219 51.722656 C 86.449219 51.734375 85.835938 51.6875 85.839844 51.492188 Z M 85.839844 51.492188 "/>
<path style=" stroke:none;fill-rule:nonzero;fill:rgb(14.901961%,19.607843%,21.960784%);fill-opacity:1;" d="M 81.042969 49.660156 C 80.953125 49.660156 80.878906 49.789062 80.683594 50.003906 C 80.386719 50.304688 80.042969 50.550781 79.664062 50.734375 C 79.019531 51.058594 77.761719 51.558594 77.191406 51.8125 C 76.835938 51.972656 76.851562 52.402344 77.21875 52.648438 C 77.589844 52.890625 78.476562 53.066406 79.539062 52.828125 C 80.121094 52.699219 80.875 52.164062 81.355469 52.195312 C 81.832031 52.222656 82.726562 52.214844 83.078125 51.972656 C 83.433594 51.726562 83.292969 51.210938 83.191406 50.761719 C 83.085938 50.277344 82.949219 49.515625 82.792969 49.546875 L 82.792969 49.714844 C 82.59375 50.03125 81.515625 50.160156 81.054688 49.929688 Z M 81.042969 49.660156 "/>
<path style=" stroke:none;fill-rule:nonzero;fill:rgb(14.901961%,19.607843%,21.960784%);fill-opacity:1;" d="M 83.894531 31.265625 C 83.003906 30.984375 82.183594 30.515625 81.496094 29.882812 C 81.496094 29.882812 81.960938 30.753906 83.339844 31.5625 L 83.15625 37.667969 Z M 83.894531 31.265625 "/>
<path style=" stroke:none;fill-rule:nonzero;fill:rgb(14.901961%,19.607843%,21.960784%);fill-opacity:1;" d="M 86.835938 10.570312 C 86.835938 10.570312 86.449219 12.371094 86.296875 12.679688 C 86.191406 12.863281 86.023438 13 85.820312 13.0625 L 85.847656 11.789062 Z M 86.835938 10.570312 "/>
<path style=" stroke:none;fill-rule:nonzero;fill:rgb(14.901961%,19.607843%,21.960784%);fill-opacity:1;" d="M 86.351562 7.980469 C 86.625 7.949219 86.898438 8.042969 87.089844 8.238281 C 87.40625 8.5625 87.230469 9.578125 86.835938 10.570312 L 86.109375 10.65625 Z M 86.351562 7.980469 "/>
<path style=" stroke:none;fill-rule:nonzero;fill:rgb(100%,65.882355%,65.490198%);fill-opacity:1;" d="M 85.890625 10.65625 C 86.039062 10.742188 86.242188 10.457031 86.425781 10.277344 C 86.605469 10.097656 87.191406 9.832031 87.480469 10.449219 C 87.773438 11.0625 87.222656 11.902344 86.761719 12.046875 C 85.960938 12.296875 85.847656 11.789062 85.847656 11.789062 L 85.820312 14.730469 C 84.488281 16.265625 82.152344 15.363281 83.203125 14.578125 L 83.203125 13.707031 C 82.847656 13.761719 82.488281 13.78125 82.128906 13.761719 C 81.546875 13.671875 81.179688 13.210938 81.003906 12.578125 C 80.714844 11.5625 80.601562 10.742188 80.851562 8.742188 C 81.113281 6.554688 83.660156 6.53125 85.035156 7.394531 C 86.410156 8.261719 85.890625 10.65625 85.890625 10.65625 Z M 85.890625 10.65625 "/>
<path style=" stroke:none;fill-rule:nonzero;fill:rgb(14.901961%,19.607843%,21.960784%);fill-opacity:1;" d="M 83.867188 11.15625 L 83.742188 11.15625 C 83.308594 11.136719 82.96875 10.78125 82.96875 10.347656 C 82.96875 9.914062 83.308594 9.558594 83.742188 9.535156 L 83.867188 9.535156 C 84.300781 9.558594 84.640625 9.914062 84.640625 10.347656 C 84.640625 10.78125 84.300781 11.136719 83.867188 11.15625 Z M 83.742188 9.675781 C 83.371094 9.675781 83.066406 9.976562 83.066406 10.347656 C 83.066406 10.71875 83.371094 11.023438 83.742188 11.023438 L 83.867188 11.023438 C 84.242188 11.023438 84.542969 10.71875 84.542969 10.347656 C 84.542969 9.976562 84.242188 9.675781 83.867188 9.675781 Z M 83.742188 9.675781 "/>
<path style=" stroke:none;fill-rule:nonzero;fill:rgb(14.901961%,19.607843%,21.960784%);fill-opacity:1;" d="M 81.398438 11.15625 L 81.277344 11.15625 C 80.976562 11.171875 80.695312 11.023438 80.539062 10.765625 C 80.386719 10.507812 80.386719 10.1875 80.539062 9.929688 C 80.695312 9.671875 80.976562 9.519531 81.277344 9.535156 L 81.398438 9.535156 C 81.699219 9.519531 81.984375 9.671875 82.136719 9.929688 C 82.289062 10.1875 82.289062 10.507812 82.136719 10.765625 C 81.984375 11.023438 81.699219 11.171875 81.398438 11.15625 Z M 81.277344 9.675781 C 80.902344 9.675781 80.601562 9.976562 80.601562 10.347656 C 80.601562 10.71875 80.902344 11.023438 81.277344 11.023438 L 81.398438 11.023438 C 81.773438 11.023438 82.074219 10.71875 82.074219 10.347656 C 82.074219 9.976562 81.773438 9.675781 81.398438 9.675781 Z M 81.277344 9.675781 "/>
<path style=" stroke:none;fill-rule:nonzero;fill:rgb(14.901961%,19.607843%,21.960784%);fill-opacity:1;" d="M 82.941406 10.1875 C 82.84375 10.050781 82.683594 9.96875 82.515625 9.96875 C 82.375 9.953125 82.234375 10.003906 82.140625 10.109375 L 82.03125 10.027344 C 82.152344 9.882812 82.335938 9.808594 82.523438 9.828125 C 82.738281 9.832031 82.9375 9.9375 83.058594 10.113281 Z M 82.941406 10.1875 "/>
<path style=" stroke:none;fill-rule:nonzero;fill:rgb(14.901961%,19.607843%,21.960784%);fill-opacity:1;" d="M 84.605469 10.179688 L 86.328125 10.179688 L 86.328125 10.316406 L 84.605469 10.316406 Z M 84.605469 10.179688 "/>
<path style=" stroke:none;fill-rule:nonzero;fill:rgb(14.901961%,19.607843%,21.960784%);fill-opacity:1;" d="M 85.890625 10.902344 C 85.964844 10.902344 86.242188 10.441406 86.425781 10.277344 C 86.675781 10.046875 86.351562 7.980469 86.351562 7.980469 C 86.484375 7.613281 86.390625 7.203125 86.109375 6.9375 C 85.765625 6.554688 85.191406 6.515625 84.210938 6.359375 C 83.695312 6.28125 82.914062 6.136719 82.410156 6.039062 C 81.796875 5.925781 81.289062 5.804688 80.855469 6.183594 C 80.503906 6.480469 80.378906 6.96875 80.546875 7.398438 C 80.671875 7.660156 80.890625 7.863281 81.160156 7.964844 C 81.160156 7.964844 81.429688 8.203125 82.363281 8.316406 C 83.222656 8.382812 84.085938 8.363281 84.941406 8.265625 C 85.210938 8.230469 85.269531 8.492188 85.414062 9.207031 C 85.539062 9.835938 85.644531 10.894531 85.890625 10.902344 Z M 85.890625 10.902344 "/>
<path style=" stroke:none;fill-rule:nonzero;fill:rgb(14.901961%,19.607843%,21.960784%);fill-opacity:1;" d="M 86.351562 8.140625 L 87.230469 7.671875 C 87.171875 7.550781 87.070312 7.457031 86.945312 7.417969 C 86.816406 7.375 86.679688 7.386719 86.5625 7.449219 C 86.320312 7.585938 86.226562 7.890625 86.351562 8.140625 Z M 86.351562 8.140625 "/>
<path style=" stroke:none;fill-rule:nonzero;fill:rgb(94.901961%,56.078434%,56.078434%);fill-opacity:1;" d="M 83.199219 13.707031 C 83.199219 13.707031 84.503906 13.445312 84.960938 13.199219 C 85.230469 13.0625 85.453125 12.84375 85.601562 12.578125 C 85.53125 12.84375 85.410156 13.09375 85.242188 13.3125 C 84.902344 13.738281 83.199219 14.054688 83.199219 14.054688 Z M 83.199219 13.707031 "/>
<path style=" stroke:none;fill-rule:nonzero;fill:rgb(14.901961%,19.607843%,21.960784%);fill-opacity:1;" d="M 83.519531 10.328125 C 83.523438 10.472656 83.644531 10.585938 83.785156 10.582031 C 83.929688 10.578125 84.042969 10.460938 84.042969 10.316406 C 84.039062 10.171875 83.921875 10.058594 83.78125 10.058594 C 83.632812 10.0625 83.515625 10.183594 83.519531 10.328125 Z M 83.519531 10.328125 "/>
<path style=" stroke:none;fill-rule:nonzero;fill:rgb(14.901961%,19.607843%,21.960784%);fill-opacity:1;" d="M 83.9375 9.246094 L 84.496094 9.554688 C 84.582031 9.398438 84.523438 9.199219 84.367188 9.113281 C 84.292969 9.070312 84.207031 9.0625 84.125 9.089844 C 84.042969 9.113281 83.976562 9.171875 83.9375 9.246094 Z M 83.9375 9.246094 "/>
<path style=" stroke:none;fill-rule:nonzero;fill:rgb(94.901961%,56.078434%,56.078434%);fill-opacity:1;" d="M 83.324219 12.136719 L 82.722656 12.359375 C 82.75 12.441406 82.808594 12.503906 82.882812 12.542969 C 82.957031 12.582031 83.042969 12.585938 83.125 12.558594 C 83.292969 12.496094 83.382812 12.308594 83.324219 12.136719 Z M 83.324219 12.136719 "/>
<path style=" stroke:none;fill-rule:nonzero;fill:rgb(14.901961%,19.607843%,21.960784%);fill-opacity:1;" d="M 81.121094 9.476562 L 81.628906 9.078125 C 81.582031 9.007812 81.507812 8.960938 81.421875 8.949219 C 81.339844 8.9375 81.253906 8.957031 81.1875 9.011719 C 81.039062 9.121094 81.011719 9.328125 81.121094 9.476562 Z M 81.121094 9.476562 "/>
<path style=" stroke:none;fill-rule:nonzero;fill:rgb(14.901961%,19.607843%,21.960784%);fill-opacity:1;" d="M 81.34375 10.257812 C 81.339844 10.402344 81.453125 10.523438 81.601562 10.527344 C 81.710938 10.53125 81.8125 10.464844 81.859375 10.363281 C 81.902344 10.261719 81.882812 10.144531 81.804688 10.066406 C 81.726562 9.984375 81.609375 9.960938 81.507812 10.003906 C 81.402344 10.042969 81.335938 10.144531 81.339844 10.257812 Z M 81.34375 10.257812 "/>
<path style=" stroke:none;fill-rule:nonzero;fill:rgb(94.901961%,56.078434%,56.078434%);fill-opacity:1;" d="M 82.636719 10.046875 L 82.605469 11.632812 L 81.671875 11.425781 Z M 82.636719 10.046875 "/>
<path style=" stroke:none;fill-rule:nonzero;fill:rgb(100%,65.882355%,65.490198%);fill-opacity:1;" d="M 90.855469 24 C 90.304688 17.601562 89.191406 15.527344 87.355469 15.265625 C 86.722656 15.820312 86.570312 17.773438 87.230469 19.074219 C 87.230469 19.074219 88.65625 23.09375 88.738281 24.554688 C 88.777344 25.953125 88.679688 27.351562 88.445312 28.734375 C 88.410156 28.921875 88.308594 29.089844 88.15625 29.207031 C 87.757812 29.527344 87.78125 29.851562 87.492188 30.226562 C 87.269531 30.523438 87.058594 30.613281 87.09375 30.695312 C 87.21875 30.878906 87.460938 30.933594 87.652344 30.824219 C 87.832031 30.734375 87.996094 30.617188 88.144531 30.480469 C 88.023438 30.867188 87.851562 31.234375 87.628906 31.570312 C 87.105469 32.371094 87.128906 32.84375 88.355469 32.714844 C 89.121094 32.636719 89.683594 32.09375 90.066406 30.339844 C 90.179688 29.832031 90.441406 28.90625 90.550781 28.261719 C 90.871094 26.398438 90.945312 25.03125 90.855469 24 Z M 90.855469 24 "/>
<path style=" stroke:none;fill-rule:nonzero;fill:rgb(87.843138%,87.843138%,87.843138%);fill-opacity:1;" d="M 86.835938 15.066406 C 86.835938 15.066406 88.171875 15.160156 88.847656 15.953125 C 89.519531 16.742188 90.164062 18.117188 90.617188 20.722656 C 90.617188 20.722656 89.773438 21.921875 87.566406 21.597656 C 87.566406 21.597656 86.605469 18.367188 86.519531 17.019531 C 86.425781 15.550781 86.835938 15.066406 86.835938 15.066406 Z M 86.835938 15.066406 "/>
<path style=" stroke:none;fill-rule:nonzero;fill:rgb(14.901961%,19.607843%,21.960784%);fill-opacity:1;" d="M 14.800781 82.671875 L 14.800781 82.425781 C 14.898438 82.714844 15.351562 83.964844 16.039062 84.59375 C 16.585938 85.089844 17.328125 85.664062 17.519531 86.21875 C 17.707031 86.777344 16.480469 86.992188 15.96875 86.902344 C 15.371094 86.796875 14.613281 86.460938 14.195312 85.949219 C 13.898438 85.585938 13.714844 85.160156 13.503906 84.875 C 13.292969 84.59375 12.808594 84.277344 12.703125 83.949219 C 12.640625 83.765625 12.714844 83.371094 12.800781 83.039062 C 12.886719 82.703125 12.96875 82.394531 13.074219 82.425781 L 13.074219 82.613281 C 13.320312 82.804688 13.625 82.910156 13.941406 82.90625 C 14.199219 82.914062 14.800781 82.867188 14.800781 82.671875 Z M 14.800781 82.671875 "/>
<path style=" stroke:none;fill-rule:nonzero;fill:rgb(100%,65.882355%,65.490198%);fill-opacity:1;" d="M 16.539062 85.03125 C 16.367188 84.878906 16.199219 84.730469 16.042969 84.589844 C 15.5625 84.152344 15.199219 83.410156 14.988281 82.902344 C 14.867188 82.617188 14.804688 82.3125 14.800781 82 L 14.800781 81 L 13.074219 81 L 13.074219 82.640625 C 13.15625 83.003906 13.949219 83.960938 14.402344 84.585938 C 14.703125 85.003906 15.28125 85.535156 15.964844 85.625 C 16.628906 85.726562 16.960938 85.523438 16.539062 85.03125 Z M 16.539062 85.03125 "/>
<path style=" stroke:none;fill-rule:nonzero;fill:rgb(14.901961%,19.607843%,21.960784%);fill-opacity:1;" d="M 21.558594 80.964844 L 21.558594 80.71875 C 21.65625 81.007812 22.109375 82.257812 22.796875 82.882812 C 23.34375 83.382812 24.085938 83.957031 24.277344 84.515625 C 24.464844 85.070312 23.238281 85.285156 22.730469 85.195312 C 22.128906 85.089844 21.371094 84.753906 20.953125 84.238281 C 20.65625 83.878906 20.472656 83.453125 20.261719 83.171875 C 20.050781 82.886719 19.570312 82.570312 19.460938 82.238281 C 19.398438 82.058594 19.472656 81.664062 19.5625 81.332031 C 19.648438 80.996094 19.726562 80.691406 19.835938 80.71875 L 19.835938 80.90625 C 20.078125 81.101562 20.382812 81.203125 20.699219 81.199219 C 20.945312 81.199219 21.558594 81.15625 21.558594 80.964844 Z M 21.558594 80.964844 "/>
<path style=" stroke:none;fill-rule:nonzero;fill:rgb(100%,65.882355%,65.490198%);fill-opacity:1;" d="M 23.289062 83.324219 C 23.121094 83.171875 22.949219 83.023438 22.796875 82.882812 C 22.316406 82.445312 21.949219 81.703125 21.738281 81.195312 C 21.621094 80.90625 21.558594 80.597656 21.558594 80.285156 L 21.558594 79.296875 L 19.828125 79.296875 L 19.828125 80.941406 C 19.910156 81.300781 20.707031 82.257812 21.15625 82.882812 C 21.460938 83.300781 22.035156 83.832031 22.722656 83.925781 C 23.378906 84.023438 23.714844 83.816406 23.289062 83.324219 Z M 23.289062 83.324219 "/>
<path style=" stroke:none;fill-rule:nonzero;fill:rgb(21.568628%,27.843139%,30.980393%);fill-opacity:1;" d="M 13.417969 55.769531 C 12.074219 58.699219 13.46875 69.023438 13.46875 69.023438 C 13.429688 69.5 12.882812 70.4375 12.679688 72.53125 C 12.441406 75.003906 13.054688 81.214844 13.054688 81.214844 C 13.59375 81.527344 14.246094 81.550781 14.804688 81.285156 C 14.804688 81.285156 16.457031 71.929688 16.765625 69.46875 C 17.035156 67.324219 17.566406 62.605469 17.566406 62.605469 L 19.042969 69.457031 C 18.828125 70.148438 18.671875 70.859375 18.574219 71.578125 C 18.4375 73.023438 19.839844 79.761719 19.839844 79.761719 C 19.839844 79.761719 20.4375 79.980469 21.566406 79.8125 C 21.566406 79.8125 22.0625 70.875 22.195312 69.128906 C 22.414062 66.203125 21.636719 57.070312 21.101562 55.328125 Z M 13.417969 55.769531 "/>
<path style=" stroke:none;fill-rule:nonzero;fill:rgb(14.901961%,19.607843%,21.960784%);fill-opacity:1;" d="M 17.554688 62.601562 L 18 59.882812 C 18 59.882812 19.84375 59.5 20.679688 58.714844 C 20.679688 58.714844 19.800781 59.804688 18.5 60.160156 L 18 62.257812 L 18.859375 68.601562 Z M 17.554688 62.601562 "/>
<path style=" stroke:none;fill-rule:nonzero;fill:rgb(100%,65.882355%,65.490198%);fill-opacity:1;" d="M 18.53125 45.503906 C 18.53125 45.503906 19.953125 45.304688 20.855469 46.488281 C 21.546875 47.398438 24.199219 50.847656 24.199219 50.847656 C 24.199219 50.847656 28.109375 48.890625 28.300781 48.660156 C 28.492188 48.429688 28.382812 47.960938 28.332031 47.703125 C 28.28125 47.445312 28.191406 46.871094 28.132812 46.703125 C 28.03125 46.421875 28.449219 46.503906 28.691406 46.757812 C 28.9375 47.015625 29.046875 47.535156 29.167969 47.625 C 29.289062 47.714844 29.683594 47.222656 29.738281 47.160156 C 29.957031 46.9375 30.273438 46.386719 30.640625 46.457031 C 30.761719 46.484375 30.867188 46.566406 30.917969 46.683594 C 30.960938 46.855469 31.035156 47.015625 31.140625 47.160156 C 31.207031 47.222656 31.265625 47.289062 31.316406 47.363281 C 31.367188 47.464844 31.339844 47.5625 31.367188 47.667969 C 31.410156 47.8125 31.59375 47.882812 31.644531 48.027344 C 31.683594 48.132812 31.644531 48.25 31.660156 48.359375 C 31.675781 48.429688 31.714844 48.492188 31.726562 48.558594 C 31.734375 48.699219 31.683594 48.839844 31.582031 48.9375 C 31.265625 49.3125 30.828125 49.457031 30.414062 49.6875 C 30.070312 49.886719 29.714844 49.964844 29.316406 50.140625 C 28.917969 50.316406 24.300781 53.519531 23.570312 53.113281 C 22.839844 52.710938 19.066406 48.3125 19.066406 48.3125 C 17.976562 46.527344 18.53125 45.503906 18.53125 45.503906 Z M 18.53125 45.503906 "/>
<path style=" stroke:none;fill-rule:nonzero;fill:rgb(100%,47.450981%,77.64706%);fill-opacity:1;" d="M 15.785156 45.585938 C 14.066406 45.703125 13.945312 46.535156 13.515625 47.441406 C 13.199219 48.140625 13.167969 48.9375 13.433594 49.660156 L 14.632812 53.128906 C 14.632812 53.128906 14.070312 54.484375 13.421875 55.769531 C 16.421875 57.445312 20.1875 56.566406 21.09375 55.339844 C 21.128906 55.078125 20.890625 53.046875 20.753906 51.71875 C 21.285156 50.390625 21.425781 49.546875 21.199219 48.667969 C 20.785156 47.035156 19.175781 45.449219 18.460938 45.507812 Z M 15.785156 45.585938 "/>
<path style=" stroke:none;fill-rule:nonzero;fill:rgb(14.901961%,19.607843%,21.960784%);fill-opacity:1;" d="M 17.832031 44 L 16.5625 44 C 15.714844 44.003906 14.898438 43.671875 14.296875 43.074219 C 13.691406 42.476562 13.351562 41.660156 13.347656 40.8125 C 13.339844 38.695312 15.050781 36.96875 17.167969 36.960938 C 18.1875 36.957031 19.167969 37.359375 19.890625 38.078125 C 20.613281 38.800781 21.019531 39.78125 21.019531 40.800781 C 21.019531 42.5625 19.59375 43.992188 17.832031 44 Z M 17.832031 44 "/>
<path style=" stroke:none;fill-rule:nonzero;fill:rgb(14.901961%,19.607843%,21.960784%);fill-opacity:1;" d="M 16.175781 36.070312 C 16.722656 36.871094 16.140625 37.425781 15.335938 37.972656 C 14.527344 38.523438 13.800781 38.859375 13.253906 38.050781 C 12.707031 37.242188 13 36.347656 13.8125 35.800781 C 14.628906 35.253906 15.625 35.265625 16.175781 36.070312 Z M 16.175781 36.070312 "/>
<path style=" stroke:none;fill-rule:nonzero;fill:rgb(14.901961%,19.607843%,21.960784%);fill-opacity:1;" d="M 14.199219 38.5625 L 13.386719 39.164062 C 13.304688 39.058594 13.265625 38.925781 13.28125 38.792969 C 13.296875 38.660156 13.367188 38.539062 13.476562 38.460938 C 13.707031 38.292969 14.027344 38.339844 14.199219 38.5625 Z M 14.199219 38.5625 "/>
<path style=" stroke:none;fill-rule:nonzero;fill:rgb(100%,65.882355%,65.490198%);fill-opacity:1;" d="M 19.539062 38.679688 C 19.9375 38.914062 20.449219 39.933594 20.410156 42.078125 C 20.375 43.886719 19.789062 44.339844 19.496094 44.476562 C 19.203125 44.617188 18.632812 44.53125 18.078125 44.441406 L 18.113281 45.542969 C 18.113281 45.542969 19.042969 46.304688 18.996094 46.800781 C 18.953125 47.300781 17.707031 47.53125 16.996094 47.046875 C 16.53125 46.722656 16.101562 46.347656 15.710938 45.9375 C 15.691406 45.914062 15.679688 45.886719 15.679688 45.859375 L 15.679688 43.121094 C 15.679688 43.121094 15.355469 43.4375 14.800781 42.957031 C 14.347656 42.554688 14.191406 41.890625 14.542969 41.53125 C 14.726562 41.359375 14.980469 41.285156 15.226562 41.332031 C 15.476562 41.375 15.6875 41.535156 15.800781 41.757812 C 15.800781 41.757812 16.679688 41.785156 17.851562 41.136719 C 18.773438 40.632812 19.398438 39.71875 19.539062 38.679688 Z M 19.539062 38.679688 "/>
<path style=" stroke:none;fill-rule:nonzero;fill:rgb(14.901961%,19.607843%,21.960784%);fill-opacity:1;" d="M 18.386719 41.621094 C 18.398438 41.707031 18.359375 41.789062 18.289062 41.839844 C 18.21875 41.886719 18.125 41.894531 18.050781 41.851562 C 17.976562 41.8125 17.929688 41.730469 17.933594 41.644531 C 17.921875 41.5625 17.957031 41.476562 18.027344 41.429688 C 18.097656 41.378906 18.191406 41.375 18.265625 41.414062 C 18.34375 41.457031 18.386719 41.535156 18.386719 41.621094 Z M 18.386719 41.621094 "/>
<path style=" stroke:none;fill-rule:nonzero;fill:rgb(94.901961%,56.078434%,56.078434%);fill-opacity:1;" d="M 18.453125 43.15625 L 18.980469 43.324219 C 18.964844 43.394531 18.917969 43.457031 18.851562 43.492188 C 18.785156 43.527344 18.710938 43.535156 18.640625 43.515625 C 18.492188 43.464844 18.410156 43.308594 18.453125 43.15625 Z M 18.453125 43.15625 "/>
<path style=" stroke:none;fill-rule:nonzero;fill:rgb(14.901961%,19.607843%,21.960784%);fill-opacity:1;" d="M 20.25 40.914062 L 19.789062 40.601562 C 19.828125 40.535156 19.890625 40.492188 19.960938 40.476562 C 20.035156 40.460938 20.109375 40.476562 20.171875 40.519531 C 20.296875 40.609375 20.332031 40.785156 20.25 40.914062 Z M 20.25 40.914062 "/>
<path style=" stroke:none;fill-rule:nonzero;fill:rgb(14.901961%,19.607843%,21.960784%);fill-opacity:1;" d="M 20.144531 41.449219 C 20.148438 41.574219 20.050781 41.679688 19.925781 41.679688 C 19.800781 41.683594 19.695312 41.585938 19.691406 41.464844 C 19.683594 41.339844 19.78125 41.234375 19.90625 41.226562 C 19.96875 41.222656 20.027344 41.246094 20.074219 41.289062 C 20.117188 41.332031 20.144531 41.386719 20.144531 41.449219 Z M 20.144531 41.449219 "/>
<path style=" stroke:none;fill-rule:nonzero;fill:rgb(94.901961%,56.078434%,56.078434%);fill-opacity:1;" d="M 19.121094 41.210938 L 19.113281 42.695312 L 19.835938 42.46875 Z M 19.121094 41.210938 "/>
<path style=" stroke:none;fill-rule:nonzero;fill:rgb(94.901961%,56.078434%,56.078434%);fill-opacity:1;" d="M 18.078125 44.425781 C 17.496094 44.351562 16.300781 44.011719 16.109375 43.539062 C 16.1875 43.777344 16.332031 43.984375 16.53125 44.136719 C 16.890625 44.445312 18.09375 44.789062 18.09375 44.789062 Z M 18.078125 44.425781 "/>
<path style=" stroke:none;fill-rule:nonzero;fill:rgb(14.901961%,19.607843%,21.960784%);fill-opacity:1;" d="M 19.4375 41.441406 C 19.378906 41.371094 19.289062 41.332031 19.195312 41.339844 C 19.050781 41.390625 18.921875 41.472656 18.816406 41.582031 L 18.683594 41.402344 C 18.8125 41.257812 18.984375 41.160156 19.175781 41.121094 C 19.304688 41.105469 19.433594 41.136719 19.539062 41.214844 Z M 19.4375 41.441406 "/>
<path style=" stroke:none;fill-rule:nonzero;fill:rgb(100%,47.450981%,77.64706%);fill-opacity:1;" d="M 18.875 41 C 18.660156 40.648438 18.386719 40.550781 17.722656 40.546875 C 17.058594 40.542969 16.699219 40.707031 16.523438 41.125 C 16.425781 41.453125 16.472656 41.804688 16.652344 42.097656 C 16.835938 42.386719 17.136719 42.582031 17.472656 42.632812 C 18.375 42.769531 18.769531 42.179688 18.875 41.816406 C 18.964844 41.511719 18.988281 41.183594 18.875 41 Z M 18.875 41 "/>
<path style=" stroke:none;fill-rule:nonzero;fill:rgb(14.901961%,19.607843%,21.960784%);fill-opacity:1;" d="M 17.578125 42.4375 L 17.511719 42.4375 C 17.222656 42.402344 16.964844 42.230469 16.820312 41.976562 C 16.679688 41.742188 16.644531 41.460938 16.71875 41.199219 C 16.828125 40.925781 17.042969 40.746094 17.71875 40.75 C 17.867188 40.75 17.988281 40.75 18.09375 40.769531 C 18.453125 40.804688 18.578125 40.910156 18.691406 41.109375 C 18.792969 41.445312 18.714844 41.808594 18.488281 42.078125 C 18.261719 42.347656 17.917969 42.480469 17.566406 42.441406 Z M 17.578125 42.4375 "/>
<path style=" stroke:none;fill-rule:nonzero;fill:rgb(100%,47.450981%,77.64706%);fill-opacity:1;" d="M 19.414062 41.074219 C 19.441406 40.75 19.792969 40.382812 20.363281 40.316406 C 20.816406 40.265625 21.234375 40.542969 21.242188 40.957031 C 21.257812 41.464844 21.109375 42.058594 20.445312 42.171875 C 19.867188 42.265625 19.316406 41.871094 19.414062 41.074219 Z M 19.414062 41.074219 "/>
<path style=" stroke:none;fill-rule:nonzero;fill:rgb(14.901961%,19.607843%,21.960784%);fill-opacity:1;" d="M 20.199219 41.976562 C 20.027344 41.960938 19.871094 41.875 19.761719 41.742188 C 19.632812 41.558594 19.582031 41.324219 19.621094 41.101562 C 19.644531 40.851562 19.9375 40.570312 20.390625 40.519531 C 20.445312 40.515625 20.5 40.515625 20.554688 40.519531 C 20.808594 40.523438 21.019531 40.714844 21.046875 40.964844 C 21.058594 41.5625 20.847656 41.898438 20.421875 41.964844 C 20.347656 41.976562 20.273438 41.980469 20.199219 41.976562 Z M 20.199219 41.976562 "/>
<use xlink:href="#surface104" mask="url(#mask33)"/>
<path style=" stroke:none;fill-rule:nonzero;fill:rgb(100%,65.882355%,65.490198%);fill-opacity:1;" d="M 10.339844 54.21875 C 11.902344 47.832031 13.054688 45.703125 14.953125 45.726562 C 15.507812 46.398438 15.355469 48.398438 14.480469 49.601562 C 14.480469 49.601562 12.527344 53.71875 12.214844 55.183594 C 11.941406 56.46875 11.632812 58.089844 11.652344 59.195312 C 11.65625 59.390625 11.734375 59.578125 11.871094 59.71875 C 12.226562 60.105469 12.226562 60.414062 12.457031 60.84375 C 12.636719 61.179688 12.835938 61.304688 12.78125 61.378906 C 12.625 61.542969 12.371094 61.5625 12.195312 61.421875 C 12.027344 61.304688 11.878906 61.160156 11.75 61 C 11.8125 61.410156 11.929688 61.808594 12.101562 62.183594 C 12.503906 63.089844 12.40625 63.550781 11.1875 63.226562 C 10.421875 63.027344 9.941406 62.390625 9.828125 60.550781 C 9.769531 59.875 9.757812 59.195312 9.800781 58.519531 C 9.96875 56.777344 10.089844 55.246094 10.339844 54.21875 Z M 10.339844 54.21875 "/>
</g>
</svg>
