<?xml version="1.0" encoding="UTF-8"?>
<svg xmlns="http://www.w3.org/2000/svg" xmlns:xlink="http://www.w3.org/1999/xlink" width="100px" height="100px" viewBox="0 0 100 100" version="1.1">
<g id="surface1">
<path style=" stroke:none;fill-rule:nonzero;fill:rgb(94.901961%,94.901961%,94.901961%);fill-opacity:1;" d="M 98.941406 44.339844 C 98.941406 43.230469 98.230469 42.328125 97.355469 42.328125 C 96.480469 42.328125 95.773438 43.230469 95.773438 44.339844 C 95.773438 45.449219 96.480469 46.347656 97.355469 46.347656 C 98.230469 46.347656 98.941406 45.449219 98.941406 44.339844 Z M 98.941406 44.339844 "/>
<path style=" stroke:none;fill-rule:nonzero;fill:rgb(100%,71.372551%,71.372551%);fill-opacity:1;" d="M 24.085938 46.84375 C 23.824219 47.074219 23.496094 47.148438 23.1875 47.042969 C 22.882812 46.9375 22.625 46.667969 22.492188 46.300781 L 18.683594 46.789062 L 19.605469 44.550781 L 23.082031 44.429688 C 23.59375 44.179688 24.171875 44.453125 24.429688 45.070312 C 24.683594 45.683594 24.539062 46.445312 24.085938 46.84375 Z M 24.085938 46.84375 "/>
<path style=" stroke:none;fill-rule:nonzero;fill:rgb(100%,47.450981%,77.64706%);fill-opacity:1;" d="M 13.097656 49.042969 L 4.707031 44.632812 C 3.324219 43.902344 2.667969 41.886719 3.238281 40.128906 C 3.546875 39.183594 4.171875 38.460938 4.941406 38.15625 C 5.714844 37.855469 6.550781 38 7.226562 38.558594 L 13.988281 44.136719 L 21.023438 43.683594 L 21.550781 46.464844 Z M 13.097656 49.042969 "/>
<path style=" stroke:none;fill-rule:nonzero;fill:rgb(100%,71.372551%,71.372551%);fill-opacity:1;" d="M 11.554688 96.472656 L 12.894531 96.472656 L 13.535156 89.898438 L 11.554688 89.898438 Z M 11.554688 96.472656 "/>
<path style=" stroke:none;fill-rule:nonzero;fill:rgb(18.431373%,18.039216%,25.490198%);fill-opacity:1;" d="M 11.097656 95.632812 L 13.222656 95.472656 L 13.222656 96.625 L 15.242188 98.394531 C 15.445312 98.574219 15.535156 98.902344 15.460938 99.203125 C 15.386719 99.503906 15.167969 99.710938 14.917969 99.710938 L 12.390625 99.710938 L 11.953125 98.566406 L 11.785156 99.710938 L 10.832031 99.710938 Z M 11.097656 95.632812 "/>
<path style=" stroke:none;fill-rule:nonzero;fill:rgb(100%,71.372551%,71.372551%);fill-opacity:1;" d="M 2.910156 96.472656 L 4.253906 96.472656 L 4.890625 89.898438 L 2.910156 89.898438 Z M 2.910156 96.472656 "/>
<path style=" stroke:none;fill-rule:nonzero;fill:rgb(18.431373%,18.039216%,25.490198%);fill-opacity:1;" d="M 2.453125 95.632812 L 4.578125 95.472656 L 4.578125 96.625 L 6.597656 98.394531 C 6.800781 98.574219 6.890625 98.902344 6.816406 99.203125 C 6.742188 99.503906 6.523438 99.710938 6.273438 99.710938 L 3.746094 99.710938 L 3.3125 98.566406 L 3.140625 99.710938 L 2.1875 99.710938 Z M 2.453125 95.632812 "/>
<path style=" stroke:none;fill-rule:nonzero;fill:rgb(18.431373%,18.039216%,25.490198%);fill-opacity:1;" d="M 9.699219 60.109375 L 14.9375 73.296875 C 15.226562 74.015625 15.3125 74.839844 15.191406 75.628906 C 15.085938 76.304688 14.921875 76.964844 14.703125 77.597656 L 14 88.179688 L 13.371094 91.5 L 11.105469 91.746094 C 11.105469 91.746094 11.28125 88.960938 10.667969 85.0625 C 10.054688 81.160156 11.105469 75.476562 11.105469 75.476562 C 11.105469 75.476562 9.175781 71.46875 6.980469 69.460938 C 4.785156 67.457031 9.699219 60.109375 9.699219 60.109375 Z M 9.699219 60.109375 "/>
<path style=" stroke:none;fill-rule:nonzero;fill:rgb(18.431373%,18.039216%,25.490198%);fill-opacity:1;" d="M 4.082031 54.152344 C 4.082031 54.152344 2.996094 56.59375 2.195312 57.910156 C 1.453125 59.101562 1.09375 60.605469 1.191406 62.117188 C 1.265625 63.199219 1.566406 64.367188 2.328125 65.289062 C 2.328125 65.289062 2.855469 66.960938 2.589844 67.851562 L 2.589844 75.765625 C 2.589844 75.765625 1.183594 85.105469 2.410156 87.890625 L 2.941406 94.144531 C 2.941406 94.144531 4.804688 94.804688 4.890625 93.691406 C 4.890625 93.691406 5.136719 91.246094 5.230469 90.46875 L 5.300781 82.472656 C 5.316406 81.433594 5.570312 80.421875 6.03125 79.566406 C 6.398438 78.882812 6.761719 77.824219 6.8125 76.320312 L 9.699219 60.109375 L 10.34375 54.449219 Z M 4.082031 54.152344 "/>
<path style=" stroke:none;fill-rule:nonzero;fill:rgb(100%,47.450981%,77.64706%);fill-opacity:1;" d="M 2.464844 45.441406 L 3.589844 52.570312 L 1.128906 59.851562 L 10.324219 55.355469 L 10.449219 54.925781 L 10.75 53.460938 L 10.390625 48.902344 C 10.519531 48.566406 12.320312 46.457031 10.433594 42.742188 L 8.398438 36.675781 L 4.585938 36.601562 L 4.570312 36.625 C 2.75 38.929688 1.960938 42.242188 2.464844 45.441406 Z M 2.464844 45.441406 "/>
<path style=" stroke:none;fill-rule:nonzero;fill:rgb(100%,71.372551%,71.372551%);fill-opacity:1;" d="M 8.058594 66.394531 C 7.804688 66.148438 7.648438 65.773438 7.632812 65.371094 C 7.617188 64.96875 7.742188 64.574219 7.976562 64.300781 L 6.4375 59.851562 L 8.398438 60.277344 L 9.558594 64.4375 C 9.902344 64.976562 9.875 65.761719 9.492188 66.261719 C 9.109375 66.757812 8.492188 66.816406 8.058594 66.394531 Z M 8.058594 66.394531 "/>
<path style=" stroke:none;fill-rule:nonzero;fill:rgb(100%,47.450981%,77.64706%);fill-opacity:1;" d="M 3.03125 53.800781 L 3.765625 42.3125 C 3.886719 40.417969 5.195312 39.003906 6.6875 39.15625 C 7.492188 39.238281 8.226562 39.769531 8.691406 40.609375 C 9.15625 41.445312 9.300781 42.5 9.089844 43.488281 L 6.984375 53.367188 L 9.484375 61.722656 L 7.5625 63.214844 Z M 3.03125 53.800781 "/>
<path style=" stroke:none;fill-rule:nonzero;fill:rgb(18.431373%,18.039216%,25.490198%);fill-opacity:1;" d="M 0.15625 36.96875 L 9.460938 34.554688 C 9.71875 33.46875 10.210938 32.472656 8.855469 30.78125 C 8.417969 28.070312 6.367188 26.285156 4.21875 26.742188 C 2.082031 26.5 0.882812 28.429688 0.890625 31.015625 Z M 0.15625 36.96875 "/>
<path style=" stroke:none;fill-rule:nonzero;fill:rgb(100%,72.156864%,72.156864%);fill-opacity:1;" d="M 8.746094 31.324219 C 8.746094 29.105469 7.328125 27.308594 5.582031 27.308594 C 3.835938 27.308594 2.417969 29.105469 2.417969 31.324219 C 2.417969 33.539062 3.835938 35.339844 5.582031 35.339844 C 7.328125 35.339844 8.746094 33.539062 8.746094 31.324219 Z M 8.746094 31.324219 "/>
<path style=" stroke:none;fill-rule:nonzero;fill:rgb(18.431373%,18.039216%,25.490198%);fill-opacity:1;" d="M 3.195312 27.964844 C 3.625 27.152344 4.285156 26.589844 5.039062 26.394531 L 5.636719 26.238281 C 7.21875 25.828125 8.761719 27.125 9.085938 29.132812 C 8.65625 29.839844 6.117188 30.375 4.601562 30.609375 C 5.023438 32.554688 6.65625 34.148438 6.480469 35.328125 L 0.511719 36.875 L 0.390625 36.121094 C -0.65625 32.925781 0.804688 29.65625 3.195312 27.964844 Z M 3.195312 27.964844 "/>
<path style=" stroke:none;fill-rule:nonzero;fill:rgb(18.431373%,18.039216%,25.490198%);fill-opacity:1;" d="M 0.128906 37.1875 L 9.4375 34.769531 C 9.691406 33.6875 10.183594 32.691406 8.828125 30.996094 C 8.390625 28.285156 6.34375 26.5 4.195312 26.957031 C 2.058594 26.71875 0.855469 28.644531 0.863281 31.230469 Z M 0.128906 37.1875 "/>
<path style=" stroke:none;fill-rule:nonzero;fill:rgb(100%,72.156864%,72.156864%);fill-opacity:1;" d="M 8.71875 31.539062 C 8.71875 29.320312 7.304688 27.523438 5.554688 27.523438 C 3.808594 27.523438 2.390625 29.320312 2.390625 31.539062 C 2.390625 33.757812 3.808594 35.554688 5.554688 35.554688 C 7.304688 35.554688 8.71875 33.757812 8.71875 31.539062 Z M 8.71875 31.539062 "/>
<path style=" stroke:none;fill-rule:nonzero;fill:rgb(18.431373%,18.039216%,25.490198%);fill-opacity:1;" d="M 3.171875 28.179688 C 3.597656 27.371094 4.261719 26.804688 5.015625 26.609375 L 5.609375 26.457031 C 7.191406 26.046875 8.738281 27.339844 9.058594 29.347656 C 8.632812 30.054688 6.089844 30.59375 4.574219 30.828125 C 5 32.769531 6.628906 34.363281 6.453125 35.542969 L 0.488281 37.09375 L 0.363281 36.335938 C -0.683594 33.140625 0.777344 29.871094 3.171875 28.179688 Z M 3.171875 28.179688 "/>
<path style=" stroke:none;fill-rule:nonzero;fill:rgb(94.117647%,94.117647%,94.117647%);fill-opacity:1;" d="M 49.160156 66.121094 L 25.027344 66.121094 C 23.636719 66.117188 22.507812 64.6875 22.503906 62.921875 L 22.503906 22.953125 C 22.507812 21.1875 23.636719 19.753906 25.027344 19.753906 L 49.160156 19.753906 C 50.554688 19.753906 51.679688 21.1875 51.683594 22.953125 L 51.683594 62.921875 C 51.679688 64.6875 50.554688 66.117188 49.160156 66.121094 Z M 49.160156 66.121094 "/>
<path style=" stroke:none;fill-rule:nonzero;fill:rgb(100%,47.450981%,77.64706%);fill-opacity:1;" d="M 49.160156 66.273438 L 25.027344 66.273438 C 23.570312 66.273438 22.386719 64.773438 22.382812 62.921875 L 22.382812 22.953125 C 22.386719 21.101562 23.570312 19.601562 25.027344 19.597656 L 49.160156 19.597656 C 50.621094 19.601562 51.804688 21.101562 51.804688 22.953125 L 51.804688 62.921875 C 51.804688 64.773438 50.621094 66.273438 49.160156 66.273438 Z M 25.027344 19.90625 C 23.703125 19.910156 22.628906 21.273438 22.628906 22.953125 L 22.628906 62.921875 C 22.628906 64.601562 23.703125 65.964844 25.027344 65.964844 L 49.160156 65.964844 C 50.484375 65.964844 51.558594 64.601562 51.5625 62.921875 L 51.5625 22.953125 C 51.558594 21.273438 50.484375 19.910156 49.160156 19.90625 Z M 25.027344 19.90625 "/>
<path style=" stroke:none;fill-rule:nonzero;fill:rgb(94.117647%,94.117647%,94.117647%);fill-opacity:1;" d="M 88.367188 66.121094 L 64.234375 66.121094 C 62.839844 66.117188 61.714844 64.6875 61.710938 62.921875 L 61.710938 22.953125 C 61.714844 21.1875 62.839844 19.753906 64.234375 19.753906 L 88.367188 19.753906 C 89.757812 19.753906 90.886719 21.1875 90.890625 22.953125 L 90.890625 62.921875 C 90.886719 64.6875 89.757812 66.117188 88.367188 66.121094 Z M 88.367188 66.121094 "/>
<path style=" stroke:none;fill-rule:nonzero;fill:rgb(79.215688%,79.215688%,79.215688%);fill-opacity:1;" d="M 99.867188 5.648438 L 16.515625 5.648438 C 16.449219 5.648438 16.394531 5.578125 16.394531 5.492188 C 16.394531 5.40625 16.449219 5.335938 16.515625 5.335938 L 99.867188 5.335938 C 99.9375 5.335938 99.988281 5.40625 99.988281 5.492188 C 99.988281 5.578125 99.9375 5.648438 99.867188 5.648438 Z M 99.867188 5.648438 "/>
<path style=" stroke:none;fill-rule:nonzero;fill:rgb(24.705882%,23.921569%,33.725491%);fill-opacity:1;" d="M 20.570312 1.726562 C 20.570312 0.773438 19.972656 0 19.238281 0 C 18.503906 0 17.910156 0.773438 17.910156 1.726562 C 17.910156 2.679688 18.503906 3.453125 19.238281 3.453125 C 19.972656 3.453125 20.570312 2.679688 20.570312 1.726562 Z M 20.570312 1.726562 "/>
<path style=" stroke:none;fill-rule:nonzero;fill:rgb(24.705882%,23.921569%,33.725491%);fill-opacity:1;" d="M 25.167969 1.726562 C 25.167969 0.773438 24.570312 0 23.835938 0 C 23.101562 0 22.503906 0.773438 22.503906 1.726562 C 22.503906 2.679688 23.101562 3.453125 23.835938 3.453125 C 24.570312 3.453125 25.167969 2.679688 25.167969 1.726562 Z M 25.167969 1.726562 "/>
<path style=" stroke:none;fill-rule:nonzero;fill:rgb(24.705882%,23.921569%,33.725491%);fill-opacity:1;" d="M 29.765625 1.726562 C 29.765625 0.773438 29.167969 0 28.433594 0 C 27.699219 0 27.101562 0.773438 27.101562 1.726562 C 27.101562 2.679688 27.699219 3.453125 28.433594 3.453125 C 29.167969 3.453125 29.765625 2.679688 29.765625 1.726562 Z M 29.765625 1.726562 "/>
<path style=" stroke:none;fill-rule:nonzero;fill:rgb(24.705882%,23.921569%,33.725491%);fill-opacity:1;" d="M 97.113281 1.054688 L 93.847656 1.054688 C 93.714844 1.050781 93.605469 0.914062 93.605469 0.742188 C 93.605469 0.570312 93.714844 0.433594 93.847656 0.429688 L 97.113281 0.429688 C 97.25 0.433594 97.355469 0.570312 97.355469 0.742188 C 97.355469 0.914062 97.25 1.050781 97.113281 1.054688 Z M 97.113281 1.054688 "/>
<path style=" stroke:none;fill-rule:nonzero;fill:rgb(24.705882%,23.921569%,33.725491%);fill-opacity:1;" d="M 97.113281 2.234375 L 93.847656 2.234375 C 93.714844 2.230469 93.605469 2.089844 93.605469 1.917969 C 93.605469 1.75 93.714844 1.609375 93.847656 1.605469 L 97.113281 1.605469 C 97.25 1.609375 97.355469 1.75 97.355469 1.917969 C 97.355469 2.089844 97.25 2.230469 97.113281 2.234375 Z M 97.113281 2.234375 "/>
<path style=" stroke:none;fill-rule:nonzero;fill:rgb(24.705882%,23.921569%,33.725491%);fill-opacity:1;" d="M 97.113281 3.410156 L 93.847656 3.410156 C 93.714844 3.40625 93.605469 3.265625 93.605469 3.097656 C 93.605469 2.925781 93.714844 2.785156 93.847656 2.78125 L 97.113281 2.78125 C 97.25 2.785156 97.355469 2.925781 97.355469 3.097656 C 97.355469 3.265625 97.25 3.40625 97.113281 3.410156 Z M 97.113281 3.410156 "/>
<path style=" stroke:none;fill-rule:nonzero;fill:rgb(81.960785%,82.745099%,83.137256%);fill-opacity:1;" d="M 89.742188 19.027344 C 89.257812 18.402344 88.46875 18.371094 87.953125 18.953125 C 87.4375 19.539062 87.375 20.53125 87.808594 21.214844 L 87.804688 21.21875 L 89.535156 23.679688 L 91.472656 21.484375 C 92.007812 20.878906 92.054688 19.839844 91.578125 19.160156 C 91.101562 18.480469 90.277344 18.421875 89.742188 19.027344 Z M 89.742188 19.027344 "/>
<path style=" stroke:none;fill-rule:nonzero;fill:rgb(24.705882%,23.921569%,33.725491%);fill-opacity:1;" d="M 29.011719 44.761719 C 28.929688 44.53125 28.929688 44.269531 29.015625 44.039062 L 30.460938 40.09375 C 30.757812 38.820312 31.8125 38.09375 32.816406 38.464844 C 33.820312 38.839844 34.394531 40.171875 34.105469 41.449219 L 33.621094 45.773438 C 33.59375 46.023438 33.480469 46.242188 33.3125 46.378906 C 33.144531 46.515625 32.941406 46.554688 32.75 46.480469 L 29.441406 45.238281 C 29.25 45.164062 29.09375 44.992188 29.011719 44.761719 Z M 29.011719 44.761719 "/>
<path style=" stroke:none;fill-rule:nonzero;fill:rgb(24.705882%,23.921569%,33.725491%);fill-opacity:1;" d="M 44.75 42.792969 L 41.4375 44.039062 C 41.25 44.109375 41.042969 44.070312 40.875 43.9375 C 40.707031 43.800781 40.597656 43.578125 40.570312 43.328125 L 40.085938 39.003906 C 39.792969 37.730469 40.371094 36.394531 41.375 36.023438 C 42.378906 35.648438 43.429688 36.375 43.726562 37.648438 L 45.175781 41.597656 C 45.257812 41.824219 45.257812 42.089844 45.175781 42.320312 C 45.097656 42.546875 44.9375 42.722656 44.75 42.792969 Z M 44.75 42.792969 "/>
<path style=" stroke:none;fill-rule:nonzero;fill:rgb(24.705882%,23.921569%,33.725491%);fill-opacity:1;" d="M 31.730469 39.269531 L 34.324219 36.875 L 38.570312 35.375 L 42.109375 36.273438 L 42.320312 38.757812 C 42.570312 41.773438 42.460938 44.824219 41.992188 47.800781 L 41.90625 50.097656 L 32.789062 50.496094 L 31.847656 48.402344 C 31.847656 48.402344 29.722656 45.707031 31.375 42.710938 Z M 31.730469 39.269531 "/>
<path style=" stroke:none;fill-rule:nonzero;fill:rgb(24.705882%,23.921569%,33.725491%);fill-opacity:1;" d="M 81.921875 34.550781 L 81.921875 37.210938 L 81.714844 40.464844 C 81.714844 40.464844 81.652344 43.304688 81.574219 45.542969 C 81.527344 46.90625 81.472656 48.042969 81.425781 48.191406 C 81.371094 48.371094 81.382812 48.863281 81.414062 49.378906 C 81.453125 49.976562 81.519531 50.609375 81.527344 50.820312 C 81.550781 51.210938 81.382812 52.902344 81.382812 52.902344 C 81.382812 52.902344 81.199219 57.144531 80.933594 57.484375 C 80.667969 57.824219 80.933594 58.785156 80.933594 58.785156 C 79.683594 59.957031 78.105469 58.527344 78.105469 58.527344 C 78.453125 57.820312 77.898438 53.007812 77.898438 53.007812 C 77.898438 53.007812 77.816406 51.363281 77.652344 50.921875 C 77.488281 50.480469 77.449219 47.71875 77.449219 47.71875 L 77.449219 43.632812 C 77.449219 43.632812 77.015625 42.796875 76.957031 42.40625 C 76.894531 42.019531 76.957031 40.640625 76.957031 40.640625 L 76.503906 38.714844 L 76.195312 40.222656 C 76.195312 40.222656 75.398438 44.4375 75.253906 44.957031 C 75.175781 45.304688 75.203125 45.679688 75.335938 46 C 75.335938 46 75.542969 46.800781 75.335938 47.167969 C 75.207031 47.398438 75.109375 47.65625 75.046875 47.925781 C 75.046875 47.925781 74.941406 49.460938 74.753906 50.011719 C 74.570312 50.558594 74.40625 51.238281 74.40625 51.238281 C 74.40625 51.238281 74.449219 52.273438 74.265625 52.507812 C 74.082031 52.742188 74.019531 53.914062 74.019531 53.914062 C 74.019531 53.914062 74.0625 55.242188 73.816406 55.710938 C 73.566406 56.179688 73.566406 58.832031 73.566406 58.832031 C 72.699219 59.542969 71.59375 59.601562 70.679688 58.988281 C 70.679688 58.988281 70.921875 58.699219 70.738281 57.347656 C 70.554688 56 70.871094 52.328125 70.871094 52.328125 C 70.871094 52.328125 70.832031 51.394531 71.035156 50.976562 C 71.242188 50.558594 70.933594 49.753906 71.015625 49.390625 C 71.097656 49.027344 71.34375 47.046875 71.34375 47.046875 C 71.34375 47.046875 71.242188 42.179688 71.242188 41.921875 C 71.214844 41.457031 71.117188 41.007812 70.949219 40.59375 C 70.765625 40.179688 70.949219 37.160156 70.949219 37.160156 C 70.949219 37.160156 71.386719 35.597656 71.242188 35.261719 C 71.09375 34.921875 71.335938 34.324219 71.335938 34.324219 C 71.335938 34.324219 71.113281 33.621094 71.335938 33.492188 C 71.5625 33.359375 71.605469 32.839844 71.605469 32.839844 L 71.761719 30.316406 C 71.761719 30.316406 71.820312 29.171875 72.007812 29.117188 C 72.195312 29.066406 72.113281 28.625 72.296875 28.3125 C 72.386719 28.101562 72.449219 27.871094 72.480469 27.636719 C 72.507812 27.492188 72.53125 27.339844 72.550781 27.195312 C 72.609375 26.804688 72.644531 26.464844 72.644531 26.464844 C 73.855469 27.738281 80.21875 26.84375 80.226562 26.84375 C 80.628906 26.957031 81.109375 28.738281 81.457031 30.289062 C 81.765625 31.675781 81.921875 33.109375 81.921875 34.550781 Z M 81.921875 34.550781 "/>
<path style=" stroke:none;fill-rule:nonzero;fill:rgb(94.117647%,94.117647%,94.117647%);fill-opacity:1;" d="M 16.617188 100.015625 L 20.152344 100.015625 C 20.207031 99.894531 20.253906 99.773438 20.300781 99.644531 C 20.707031 98.542969 20.878906 97.308594 21.042969 96.097656 L 21.308594 94.136719 C 20.457031 94.921875 19.605469 95.710938 18.753906 96.496094 C 18.476562 96.75 18.191406 97.019531 17.925781 97.308594 C 17.363281 97.914062 16.878906 98.609375 16.6875 99.496094 C 16.679688 99.546875 16.667969 99.597656 16.660156 99.644531 C 16.640625 99.769531 16.625 99.890625 16.617188 100.015625 Z M 16.617188 100.015625 "/>
<path style=" stroke:none;fill-rule:nonzero;fill:rgb(94.117647%,94.117647%,94.117647%);fill-opacity:1;" d="M 16.121094 99.644531 C 16.136719 99.789062 16.15625 99.902344 16.191406 100.015625 L 17.777344 100.015625 C 17.828125 99.898438 17.871094 99.773438 17.902344 99.644531 C 17.953125 99.476562 17.988281 99.300781 18.007812 99.121094 C 18.058594 98.515625 18.03125 97.902344 17.925781 97.308594 C 17.894531 97.113281 17.859375 96.917969 17.828125 96.726562 L 17.640625 95.632812 L 16.703125 97.550781 C 16.386719 98.191406 16.0625 98.898438 16.121094 99.644531 Z M 16.121094 99.644531 "/>
<path style=" stroke:none;fill-rule:nonzero;fill:rgb(79.215688%,79.215688%,79.215688%);fill-opacity:1;" d="M 0 99.832031 C 0 99.933594 0.0664062 100.015625 0.144531 100.015625 L 22.472656 100.015625 C 22.550781 100.015625 22.617188 99.933594 22.617188 99.832031 C 22.617188 99.730469 22.550781 99.644531 22.472656 99.644531 L 0.144531 99.644531 C 0.0664062 99.648438 0 99.730469 0 99.832031 Z M 0 99.832031 "/>
<path style=" stroke:none;fill-rule:nonzero;fill:rgb(100%,47.450981%,77.64706%);fill-opacity:1;" d="M 41.03125 65.53125 C 41.03125 62.476562 39.078125 59.996094 36.667969 59.996094 C 34.257812 59.996094 32.304688 62.476562 32.304688 65.53125 C 32.304688 68.589844 34.257812 71.066406 36.667969 71.066406 C 39.078125 71.066406 41.03125 68.589844 41.03125 65.53125 Z M 41.03125 65.53125 "/>
<path style=" stroke:none;fill-rule:nonzero;fill:rgb(100%,100%,100%);fill-opacity:1;" d="M 36.074219 68.414062 C 35.917969 68.414062 35.777344 68.320312 35.683594 68.167969 L 34.496094 66.152344 C 34.390625 65.976562 34.367188 65.742188 34.4375 65.542969 C 34.503906 65.339844 34.652344 65.199219 34.824219 65.171875 C 34.996094 65.144531 35.167969 65.238281 35.269531 65.414062 L 36.050781 66.730469 L 38.046875 62.925781 C 38.144531 62.742188 38.3125 62.636719 38.484375 62.652344 C 38.65625 62.664062 38.8125 62.796875 38.886719 62.992188 C 38.964844 63.191406 38.953125 63.425781 38.855469 63.609375 L 36.476562 68.136719 C 36.390625 68.304688 36.242188 68.40625 36.085938 68.414062 C 36.082031 68.414062 36.078125 68.414062 36.074219 68.414062 Z M 36.074219 68.414062 "/>
<path style=" stroke:none;fill-rule:nonzero;fill:rgb(94.901961%,94.901961%,94.901961%);fill-opacity:1;" d="M 53.511719 80.25 C 53.511719 79.140625 52.800781 78.242188 51.925781 78.242188 C 51.050781 78.242188 50.34375 79.140625 50.34375 80.25 C 50.34375 81.359375 51.050781 82.261719 51.925781 82.261719 C 52.800781 82.261719 53.511719 81.359375 53.511719 80.25 Z M 53.511719 80.25 "/>
<path style=" stroke:none;fill-rule:nonzero;fill:rgb(94.901961%,94.901961%,94.901961%);fill-opacity:1;" d="M 66.042969 80.25 C 66.042969 79.140625 65.332031 78.242188 64.457031 78.242188 C 63.585938 78.242188 62.875 79.140625 62.875 80.25 C 62.875 81.359375 63.585938 82.261719 64.457031 82.261719 C 65.332031 82.261719 66.042969 81.359375 66.042969 80.25 Z M 66.042969 80.25 "/>
<path style=" stroke:none;fill-rule:nonzero;fill:rgb(94.901961%,94.901961%,94.901961%);fill-opacity:1;" d="M 59.355469 80.25 C 59.355469 79.140625 58.648438 78.242188 57.773438 78.242188 C 56.898438 78.242188 56.191406 79.140625 56.191406 80.25 C 56.191406 81.359375 56.898438 82.261719 57.773438 82.261719 C 58.648438 82.261719 59.355469 81.359375 59.355469 80.25 Z M 59.355469 80.25 "/>
</g>
</svg>
