<?xml version="1.0" encoding="UTF-8"?>
<svg xmlns="http://www.w3.org/2000/svg" xmlns:xlink="http://www.w3.org/1999/xlink" width="100px" height="100px" viewBox="0 0 100 100" version="1.1">
<defs>
<filter id="alpha" filterUnits="objectBoundingBox" x="0%" y="0%" width="100%" height="100%">
  <feColorMatrix type="matrix" in="SourceGraphic" values="0 0 0 0 1 0 0 0 0 1 0 0 0 0 1 0 0 0 1 0"/>
</filter>
<mask id="mask0">
  <g filter="url(#alpha)">
<rect x="0" y="0" width="100" height="100" style="fill:rgb(0%,0%,0%);fill-opacity:0.2;stroke:none;"/>
  </g>
</mask>
<clipPath id="clip1">
  <rect x="0" y="0" width="100" height="100"/>
</clipPath>
<g id="surface5" clip-path="url(#clip1)">
<path style=" stroke:none;fill-rule:nonzero;fill:rgb(13.725491%,12.156863%,12.54902%);fill-opacity:1;" d="M 63.046875 13.769531 C 64.105469 13.71875 64.992188 14.867188 65.027344 16.335938 C 65.0625 17.804688 64.234375 19.035156 63.179688 19.082031 C 64.058594 18.628906 64.570312 17.355469 64.386719 16.074219 C 64.207031 14.796875 63.382812 13.890625 62.445312 13.933594 C 62.636719 13.835938 62.84375 13.777344 63.046875 13.769531 Z M 63.046875 13.769531 "/>
</g>
<mask id="mask1">
  <g filter="url(#alpha)">
<rect x="0" y="0" width="100" height="100" style="fill:rgb(0%,0%,0%);fill-opacity:0.2;stroke:none;"/>
  </g>
</mask>
<clipPath id="clip2">
  <rect x="0" y="0" width="100" height="100"/>
</clipPath>
<g id="surface8" clip-path="url(#clip2)">
<path style=" stroke:none;fill-rule:nonzero;fill:rgb(13.725491%,12.156863%,12.54902%);fill-opacity:1;" d="M 68.390625 13.300781 C 69.429688 17.253906 66.9375 24.945312 68.730469 32.511719 C 68.335938 32.410156 67.949219 32.269531 67.570312 32.089844 C 66.109375 24.777344 68.402344 17.46875 67.398438 13.644531 C 66.496094 10.222656 63.796875 8.628906 61.265625 9.210938 C 64.046875 7.894531 67.371094 9.425781 68.390625 13.300781 Z M 68.390625 13.300781 "/>
</g>
<mask id="mask2">
  <g filter="url(#alpha)">
<rect x="0" y="0" width="100" height="100" style="fill:rgb(0%,0%,0%);fill-opacity:0.2;stroke:none;"/>
  </g>
</mask>
<clipPath id="clip3">
  <rect x="0" y="0" width="100" height="100"/>
</clipPath>
<g id="surface11" clip-path="url(#clip3)">
<path style=" stroke:none;fill-rule:nonzero;fill:rgb(13.725491%,12.156863%,12.54902%);fill-opacity:1;" d="M 10.441406 54.917969 C 11.320312 55.511719 11.6875 56.988281 11.257812 58.210938 C 10.832031 59.433594 9.769531 59.941406 8.890625 59.347656 C 9.75 59.503906 10.570312 58.769531 10.816406 57.613281 C 11.066406 56.457031 10.675781 55.21875 9.894531 54.691406 C 10.082031 54.722656 10.269531 54.800781 10.441406 54.917969 Z M 10.441406 54.917969 "/>
</g>
<mask id="mask3">
  <g filter="url(#alpha)">
<rect x="0" y="0" width="100" height="100" style="fill:rgb(0%,0%,0%);fill-opacity:0.2;stroke:none;"/>
  </g>
</mask>
<clipPath id="clip4">
  <rect x="0" y="0" width="100" height="100"/>
</clipPath>
<g id="surface14" clip-path="url(#clip4)">
<path style=" stroke:none;fill-rule:nonzero;fill:rgb(13.725491%,12.156863%,12.54902%);fill-opacity:1;" d="M 14.960938 57.746094 C 14.578125 61.613281 10.136719 66.410156 9.246094 73.6875 C 8.957031 73.367188 8.683594 73.019531 8.429688 72.644531 C 9.515625 65.773438 13.671875 61.167969 14.039062 57.433594 C 14.371094 54.089844 12.65625 51.160156 10.402344 50.109375 C 13.089844 50.707031 15.335938 53.960938 14.960938 57.746094 Z M 14.960938 57.746094 "/>
</g>
<mask id="mask4">
  <g filter="url(#alpha)">
<rect x="0" y="0" width="100" height="100" style="fill:rgb(0%,0%,0%);fill-opacity:0.2;stroke:none;"/>
  </g>
</mask>
<clipPath id="clip5">
  <rect x="0" y="0" width="100" height="100"/>
</clipPath>
<g id="surface17" clip-path="url(#clip5)">
<path style=" stroke:none;fill-rule:nonzero;fill:rgb(13.725491%,12.156863%,12.54902%);fill-opacity:1;" d="M 31.308594 13.007812 C 30.769531 13.375 30.542969 14.277344 30.804688 15.027344 C 31.066406 15.777344 31.71875 16.085938 32.257812 15.722656 C 31.730469 15.820312 31.230469 15.371094 31.074219 14.660156 C 30.921875 13.953125 31.164062 13.191406 31.640625 12.871094 C 31.527344 12.890625 31.414062 12.9375 31.308594 13.007812 Z M 31.308594 13.007812 "/>
</g>
<mask id="mask5">
  <g filter="url(#alpha)">
<rect x="0" y="0" width="100" height="100" style="fill:rgb(0%,0%,0%);fill-opacity:0.2;stroke:none;"/>
  </g>
</mask>
<clipPath id="clip6">
  <rect x="0" y="0" width="100" height="100"/>
</clipPath>
<g id="surface20" clip-path="url(#clip6)">
<path style=" stroke:none;fill-rule:nonzero;fill:rgb(13.725491%,12.156863%,12.54902%);fill-opacity:1;" d="M 28.535156 14.742188 C 28.769531 17.113281 31.492188 20.050781 32.039062 24.511719 C 32.214844 24.3125 32.382812 24.101562 32.539062 23.871094 C 31.875 19.660156 29.328125 16.839844 29.101562 14.550781 C 28.898438 12.5 29.949219 10.707031 31.332031 10.0625 C 29.683594 10.429688 28.308594 12.421875 28.535156 14.742188 Z M 28.535156 14.742188 "/>
</g>
</defs>
<g id="surface1">
<path style=" stroke:none;fill-rule:nonzero;fill:rgb(80.000001%,80.000001%,80.000001%);fill-opacity:1;" d="M 49.28125 99.660156 L 45.441406 99.660156 L 45.441406 58.613281 L 48.5625 58.613281 C 48.878906 58.613281 49.132812 58.964844 49.136719 59.402344 Z M 49.28125 99.660156 "/>
<path style=" stroke:none;fill-rule:nonzero;fill:rgb(100%,100%,100%);fill-opacity:1;" d="M 45.800781 99.878906 L 4.570312 99.878906 L 4.570312 70.644531 L 45.800781 70.644531 Z M 45.800781 99.878906 "/>
<path style=" stroke:none;fill-rule:nonzero;fill:rgb(94.901961%,94.901961%,94.901961%);fill-opacity:1;" d="M 29.550781 99.769531 L 4.648438 99.769531 L 4.648438 70.753906 L 45.722656 70.753906 L 45.722656 77.304688 C 45.710938 89.707031 38.476562 99.757812 29.550781 99.769531 Z M 29.550781 99.769531 "/>
<path style=" stroke:none;fill-rule:nonzero;fill:rgb(94.901961%,94.901961%,94.901961%);fill-opacity:1;" d="M 48.65625 59.777344 C 48.632812 59.832031 48.617188 59.890625 48.605469 59.949219 L 47.1875 67.5625 L 45.644531 71.621094 L 4.726562 71.621094 L 4.726562 70.609375 L 7.054688 67.5625 L 9.773438 60.34375 C 9.894531 60.023438 10.050781 59.734375 10.238281 59.488281 C 10.667969 58.925781 11.238281 58.613281 11.828125 58.613281 L 48.148438 58.613281 C 48.351562 58.613281 48.535156 58.757812 48.640625 58.996094 C 48.742188 59.234375 48.75 59.53125 48.65625 59.777344 Z M 48.65625 59.777344 "/>
<path style=" stroke:none;fill-rule:nonzero;fill:rgb(90.196079%,90.196079%,90.196079%);fill-opacity:1;" d="M 45.800781 99.878906 L 4.570312 99.878906 L 4.570312 70.644531 L 45.800781 70.644531 Z M 4.882812 99.445312 L 45.488281 99.445312 L 45.488281 71.082031 L 4.882812 71.082031 Z M 4.882812 99.445312 "/>
<path style=" stroke:none;fill-rule:nonzero;fill:rgb(80.000001%,80.000001%,80.000001%);fill-opacity:1;" d="M 47.945312 63.671875 L 47.1875 67.5625 L 7.054688 67.5625 L 8.351562 64.324219 Z M 47.945312 63.671875 "/>
<path style=" stroke:none;fill-rule:nonzero;fill:rgb(100%,100%,100%);fill-opacity:1;" d="M 6.089844 85.964844 L 12.664062 85.964844 L 12.664062 86.46875 L 6.089844 86.46875 Z M 6.089844 85.964844 "/>
<path style=" stroke:none;fill-rule:nonzero;fill:rgb(100%,100%,100%);fill-opacity:1;" d="M 6.089844 87.734375 L 12.664062 87.734375 L 12.664062 88.238281 L 6.089844 88.238281 Z M 6.089844 87.734375 "/>
<path style=" stroke:none;fill-rule:nonzero;fill:rgb(100%,100%,100%);fill-opacity:1;" d="M 6.089844 89.5 L 12.664062 89.5 L 12.664062 90.007812 L 6.089844 90.007812 Z M 6.089844 89.5 "/>
<path style=" stroke:none;fill-rule:nonzero;fill:rgb(100%,100%,100%);fill-opacity:1;" d="M 11 77.050781 C 11 75.238281 9.941406 73.769531 8.636719 73.769531 C 7.328125 73.769531 6.273438 75.238281 6.273438 77.050781 C 6.273438 78.867188 7.328125 80.335938 8.636719 80.335938 C 9.941406 80.335938 11 78.867188 11 77.050781 Z M 11 77.050781 "/>
<path style=" stroke:none;fill-rule:nonzero;fill:rgb(80.000001%,80.000001%,80.000001%);fill-opacity:1;" d="M 34.546875 65.355469 L 32.539062 65.355469 L 32.539062 43.890625 L 34.171875 43.890625 C 34.335938 43.890625 34.46875 44.074219 34.472656 44.304688 Z M 34.546875 65.355469 "/>
<path style=" stroke:none;fill-rule:nonzero;fill:rgb(100%,100%,100%);fill-opacity:1;" d="M 32.726562 65.472656 L 11.164062 65.472656 L 11.164062 50.183594 L 32.726562 50.183594 Z M 32.726562 65.472656 "/>
<path style=" stroke:none;fill-rule:nonzero;fill:rgb(94.901961%,94.901961%,94.901961%);fill-opacity:1;" d="M 24.226562 65.414062 L 11.207031 65.414062 L 11.207031 50.238281 L 32.6875 50.238281 L 32.6875 53.664062 C 32.679688 60.152344 28.898438 65.40625 24.226562 65.414062 Z M 24.226562 65.414062 "/>
<path style=" stroke:none;fill-rule:nonzero;fill:rgb(94.901961%,94.901961%,94.901961%);fill-opacity:1;" d="M 34.21875 44.5 C 34.210938 44.527344 34.199219 44.558594 34.195312 44.589844 L 33.453125 48.570312 L 32.644531 50.691406 L 11.246094 50.691406 L 11.246094 50.164062 L 12.464844 48.570312 L 13.886719 44.796875 C 13.949219 44.628906 14.03125 44.476562 14.128906 44.347656 C 14.355469 44.054688 14.652344 43.890625 14.960938 43.890625 L 33.957031 43.890625 C 34.058594 43.890625 34.15625 43.96875 34.210938 44.09375 C 34.265625 44.214844 34.269531 44.371094 34.21875 44.5 Z M 34.21875 44.5 "/>
<path style=" stroke:none;fill-rule:nonzero;fill:rgb(90.196079%,90.196079%,90.196079%);fill-opacity:1;" d="M 32.726562 65.472656 L 11.164062 65.472656 L 11.164062 50.183594 L 32.726562 50.183594 Z M 11.328125 65.242188 L 32.5625 65.242188 L 32.5625 50.410156 L 11.328125 50.410156 Z M 11.328125 65.242188 "/>
<path style=" stroke:none;fill-rule:nonzero;fill:rgb(80.000001%,80.000001%,80.000001%);fill-opacity:1;" d="M 33.847656 46.539062 L 33.453125 48.570312 L 12.464844 48.570312 L 13.144531 46.878906 Z M 33.847656 46.539062 "/>
<path style=" stroke:none;fill-rule:nonzero;fill:rgb(100%,100%,100%);fill-opacity:1;" d="M 11.960938 58.195312 L 15.398438 58.195312 L 15.398438 58.457031 L 11.960938 58.457031 Z M 11.960938 58.195312 "/>
<path style=" stroke:none;fill-rule:nonzero;fill:rgb(100%,100%,100%);fill-opacity:1;" d="M 11.960938 59.117188 L 15.398438 59.117188 L 15.398438 59.382812 L 11.960938 59.382812 Z M 11.960938 59.117188 "/>
<path style=" stroke:none;fill-rule:nonzero;fill:rgb(100%,100%,100%);fill-opacity:1;" d="M 11.960938 60.042969 L 15.398438 60.042969 L 15.398438 60.308594 L 11.960938 60.308594 Z M 11.960938 60.042969 "/>
<path style=" stroke:none;fill-rule:nonzero;fill:rgb(100%,100%,100%);fill-opacity:1;" d="M 14.527344 53.535156 C 14.527344 52.585938 13.972656 51.816406 13.292969 51.816406 C 12.609375 51.816406 12.054688 52.585938 12.054688 53.535156 C 12.054688 54.480469 12.609375 55.25 13.292969 55.25 C 13.972656 55.25 14.527344 54.480469 14.527344 53.535156 Z M 14.527344 53.535156 "/>
<path style=" stroke:none;fill-rule:nonzero;fill:rgb(94.901961%,94.901961%,94.901961%);fill-opacity:1;" d="M 93.722656 99.863281 L 93.707031 99.769531 C 93.296875 96.621094 93.90625 93.378906 95.367188 90.910156 C 95.777344 90.226562 96.246094 89.621094 96.765625 89.105469 L 96.816406 89.054688 L 96.835938 89.132812 C 97.09375 90.078125 97.421875 91.023438 97.570312 91.445312 L 97.667969 88.316406 L 97.726562 88.273438 C 98.261719 87.875 98.917969 87.96875 99.382812 88.511719 C 99.867188 89.050781 100.0625 89.941406 99.882812 90.761719 C 99.804688 91.128906 99.730469 91.511719 99.660156 91.878906 C 99.417969 93.144531 99.164062 94.453125 98.675781 95.558594 C 97.914062 97.238281 96.644531 98.351562 95.226562 98.585938 Z M 93.722656 99.863281 "/>
<path style=" stroke:none;fill-rule:nonzero;fill:rgb(80.000001%,80.000001%,80.000001%);fill-opacity:1;" d="M 99.949219 99.824219 C 99.949219 99.894531 99.929688 99.960938 99.894531 100.007812 C 99.859375 100.058594 99.8125 100.085938 99.761719 100.085938 L 0.1875 100.085938 C 0.0820312 100.085938 0 99.96875 0 99.824219 C 0 99.683594 0.0820312 99.566406 0.1875 99.566406 L 99.761719 99.566406 C 99.8125 99.566406 99.859375 99.59375 99.894531 99.644531 C 99.929688 99.691406 99.949219 99.757812 99.949219 99.824219 Z M 99.949219 99.824219 "/>
<path style=" stroke:none;fill-rule:nonzero;fill:rgb(100%,72.156864%,72.156864%);fill-opacity:1;" d="M 77.363281 33.636719 L 74.511719 33.070312 C 73.546875 35.308594 73.207031 41.265625 73.207031 41.265625 L 70.417969 50.476562 C 69.90625 50.960938 69.71875 51.882812 69.972656 52.664062 C 70.226562 53.445312 70.847656 53.859375 71.445312 53.648438 C 72.042969 53.4375 72.445312 52.660156 72.398438 51.804688 L 76.976562 41.082031 Z M 77.363281 33.636719 "/>
<path style=" stroke:none;fill-rule:nonzero;fill:rgb(90.196079%,90.196079%,90.196079%);fill-opacity:1;" d="M 76.910156 22.644531 C 77.800781 22.835938 78.585938 23.570312 79.050781 24.648438 C 79.515625 25.726562 79.609375 27.035156 79.308594 28.21875 L 78.703125 30.597656 C 78.703125 30.597656 78.375 37.769531 77.117188 39.792969 L 73.265625 39.308594 C 73.265625 39.308594 73.96875 35.691406 73.429688 33.941406 C 73.097656 32.871094 73.117188 29.167969 73.441406 26.15625 C 73.566406 25.050781 74 24.058594 74.652344 23.402344 C 75.300781 22.742188 76.113281 22.46875 76.910156 22.644531 Z M 76.910156 22.644531 "/>
<path style=" stroke:none;fill-rule:nonzero;fill:rgb(100%,71.372551%,71.372551%);fill-opacity:1;" d="M 86.328125 97.046875 L 84.609375 97.046875 L 83.792969 87.847656 L 86.328125 87.847656 Z M 86.328125 97.046875 "/>
<path style=" stroke:none;fill-rule:nonzero;fill:rgb(18.431373%,18.039216%,25.490198%);fill-opacity:1;" d="M 86.386719 99.535156 L 81.109375 99.535156 L 81.109375 99.441406 C 81.109375 97.867188 82.027344 96.585938 83.164062 96.585938 L 84.128906 95.570312 L 85.925781 96.589844 L 86.386719 96.589844 Z M 86.386719 99.535156 "/>
<path style=" stroke:none;fill-rule:nonzero;fill:rgb(100%,71.372551%,71.372551%);fill-opacity:1;" d="M 78.863281 85.644531 L 77.277344 86.558594 L 73.988281 78.496094 L 76.328125 77.148438 Z M 78.863281 85.644531 "/>
<path style=" stroke:none;fill-rule:nonzero;fill:rgb(18.431373%,18.039216%,25.490198%);fill-opacity:1;" d="M 79.605469 87.914062 L 74.730469 90.722656 L 74.703125 90.636719 C 74.269531 89.179688 74.765625 87.507812 75.8125 86.90625 L 76.425781 85.453125 L 78.367188 85.433594 L 78.792969 85.191406 Z M 79.605469 87.914062 "/>
<path style=" stroke:none;fill-rule:nonzero;fill:rgb(18.431373%,18.039216%,25.490198%);fill-opacity:1;" d="M 88.292969 44.714844 L 76.105469 46.484375 L 74.476562 54.109375 L 68.832031 66.710938 L 75.066406 82.617188 L 77.257812 79.878906 L 75.152344 67.035156 L 81.441406 57.605469 L 82.632812 56.917969 L 83.578125 91.910156 L 87.082031 91.992188 L 88.613281 53.378906 C 89.347656 49.96875 89.125 47.152344 88.292969 44.714844 Z M 88.292969 44.714844 "/>
<path style=" stroke:none;fill-rule:nonzero;fill:rgb(90.196079%,90.196079%,90.196079%);fill-opacity:1;" d="M 83.824219 20.574219 L 81.824219 17.449219 L 78.664062 17.933594 L 76.640625 21.867188 C 74.40625 22.582031 72.960938 25.601562 73.351562 28.742188 C 74.136719 35.019531 76.804688 41.113281 75.925781 44.210938 C 74.585938 48.914062 74.503906 50.832031 77.707031 50.171875 C 80.910156 49.515625 91.632812 47.992188 89.554688 45.105469 C 87.476562 42.21875 87.019531 37.390625 87.019531 37.390625 L 86.933594 26.347656 C 87.113281 25 86.878906 23.613281 86.289062 22.515625 C 85.699219 21.421875 84.804688 20.714844 83.824219 20.574219 Z M 83.824219 20.574219 "/>
<path style=" stroke:none;fill-rule:nonzero;fill:rgb(100%,72.156864%,72.156864%);fill-opacity:1;" d="M 83.421875 11.773438 C 83.421875 9.082031 81.851562 6.902344 79.914062 6.902344 C 77.976562 6.902344 76.40625 9.082031 76.40625 11.773438 C 76.40625 14.464844 77.976562 16.648438 79.914062 16.648438 C 81.851562 16.648438 83.421875 14.464844 83.421875 11.773438 Z M 83.421875 11.773438 "/>
<path style=" stroke:none;fill-rule:nonzero;fill:rgb(18.431373%,18.039216%,25.490198%);fill-opacity:1;" d="M 84.238281 11.484375 C 84.082031 12.472656 83.796875 13.414062 83.402344 14.261719 C 83.296875 14.550781 83.140625 14.796875 82.949219 14.980469 C 82.746094 15.160156 82.480469 15.113281 82.316406 14.871094 L 82.230469 14.773438 C 82.398438 14.628906 82.546875 14.449219 82.671875 14.238281 C 82.800781 14.027344 82.84375 13.742188 82.792969 13.472656 C 82.730469 13.203125 82.523438 13.050781 82.328125 13.128906 C 82.121094 13.242188 81.996094 13.652344 81.78125 13.589844 C 81.609375 13.535156 81.570312 13.21875 81.570312 12.96875 C 81.578125 11.660156 81.125 9.800781 80.769531 9.859375 C 80.414062 9.886719 80.058594 9.820312 79.71875 9.664062 C 79.382812 9.507812 79.023438 9.441406 78.667969 9.476562 C 78.640625 9.480469 78.617188 9.488281 78.589844 9.492188 C 78.535156 9.246094 78.453125 9.007812 78.355469 8.785156 C 78.367188 9.054688 78.359375 9.324219 78.328125 9.589844 C 78.042969 9.75 77.75 9.878906 77.453125 9.972656 C 77.128906 10.035156 76.410156 11.386719 76.378906 11.25 C 76.320312 11 76.242188 10.761719 76.144531 10.539062 C 76.15625 10.808594 76.144531 11.078125 76.117188 11.34375 C 76.113281 11.355469 76.113281 11.363281 76.113281 11.375 C 75.953125 11.082031 75.859375 10.726562 75.910156 11 C 75.382812 9.335938 75.589844 8.144531 76.421875 6.742188 C 76.582031 6.441406 76.796875 6.199219 77.046875 6.046875 C 77.296875 5.890625 77.585938 5.929688 77.8125 6.152344 C 78.503906 5.269531 79.484375 4.980469 80.375 5.390625 C 81.242188 5.808594 81.910156 6.054688 82.042969 7.320312 C 82.761719 7.160156 83.5 7.726562 83.894531 8.570312 C 84.289062 9.417969 84.367188 10.496094 84.238281 11.484375 Z M 84.238281 11.484375 "/>
<path style=" stroke:none;fill-rule:nonzero;fill:rgb(24.705882%,23.921569%,33.725491%);fill-opacity:1;" d="M 81.394531 51.957031 L 80.230469 51.957031 L 80.230469 39.511719 L 81.175781 39.511719 C 81.269531 39.511719 81.347656 39.617188 81.347656 39.75 Z M 81.394531 51.957031 "/>
<path style=" stroke:none;fill-rule:nonzero;fill:rgb(100%,100%,100%);fill-opacity:1;" d="M 80.335938 52.023438 L 67.835938 52.023438 L 67.835938 43.160156 L 80.335938 43.160156 Z M 80.335938 52.023438 "/>
<path style=" stroke:none;fill-rule:nonzero;fill:rgb(100%,47.450981%,77.64706%);fill-opacity:1;" d="M 75.410156 51.992188 L 67.859375 51.992188 L 67.859375 43.191406 L 80.3125 43.191406 L 80.3125 45.179688 C 80.3125 48.941406 78.117188 51.988281 75.410156 51.992188 Z M 75.410156 51.992188 "/>
<path style=" stroke:none;fill-rule:nonzero;fill:rgb(24.705882%,23.921569%,33.725491%);fill-opacity:1;" d="M 81.203125 39.863281 C 81.199219 39.882812 81.191406 39.898438 81.1875 39.917969 L 80.757812 42.226562 L 80.289062 43.457031 L 67.882812 43.457031 L 67.882812 43.148438 L 68.589844 42.226562 L 69.414062 40.035156 C 69.449219 39.9375 69.496094 39.851562 69.554688 39.777344 C 69.683594 39.605469 69.855469 39.511719 70.035156 39.511719 L 81.050781 39.511719 C 81.109375 39.511719 81.167969 39.554688 81.199219 39.628906 C 81.230469 39.699219 81.230469 39.789062 81.203125 39.863281 Z M 81.203125 39.863281 "/>
<path style=" stroke:none;fill-rule:nonzero;fill:rgb(24.705882%,23.921569%,33.725491%);fill-opacity:1;" d="M 80.335938 52.023438 L 67.835938 52.023438 L 67.835938 43.160156 L 80.335938 43.160156 Z M 67.929688 51.894531 L 80.242188 51.894531 L 80.242188 43.292969 L 67.929688 43.292969 Z M 67.929688 51.894531 "/>
<path style=" stroke:none;fill-rule:nonzero;fill:rgb(100%,47.450981%,77.64706%);fill-opacity:1;" d="M 80.988281 41.046875 L 80.757812 42.226562 L 68.589844 42.226562 L 68.980469 41.242188 Z M 80.988281 41.046875 "/>
<path style=" stroke:none;fill-rule:nonzero;fill:rgb(100%,100%,100%);fill-opacity:1;" d="M 68.296875 47.804688 L 70.289062 47.804688 L 70.289062 47.957031 L 68.296875 47.957031 Z M 68.296875 47.804688 "/>
<path style=" stroke:none;fill-rule:nonzero;fill:rgb(100%,100%,100%);fill-opacity:1;" d="M 68.296875 48.339844 L 70.289062 48.339844 L 70.289062 48.496094 L 68.296875 48.496094 Z M 68.296875 48.339844 "/>
<path style=" stroke:none;fill-rule:nonzero;fill:rgb(100%,100%,100%);fill-opacity:1;" d="M 68.296875 48.878906 L 70.289062 48.878906 L 70.289062 49.03125 L 68.296875 49.03125 Z M 68.296875 48.878906 "/>
<path style=" stroke:none;fill-rule:nonzero;fill:rgb(100%,100%,100%);fill-opacity:1;" d="M 69.785156 45.101562 C 69.785156 44.550781 69.464844 44.105469 69.066406 44.105469 C 68.671875 44.105469 68.351562 44.550781 68.351562 45.101562 C 68.351562 45.652344 68.671875 46.097656 69.066406 46.097656 C 69.464844 46.097656 69.785156 45.652344 69.785156 45.101562 Z M 69.785156 45.101562 "/>
<path style=" stroke:none;fill-rule:nonzero;fill:rgb(100%,72.156864%,72.156864%);fill-opacity:1;" d="M 86.257812 32.496094 L 83.40625 31.929688 C 82.441406 34.167969 82.101562 40.128906 82.101562 40.128906 L 79.3125 49.339844 C 78.800781 49.820312 78.613281 50.742188 78.867188 51.523438 C 79.121094 52.308594 79.742188 52.722656 80.339844 52.511719 C 80.9375 52.300781 81.339844 51.519531 81.292969 50.664062 L 85.871094 39.945312 Z M 86.257812 32.496094 "/>
<path style=" stroke:none;fill-rule:nonzero;fill:rgb(90.196079%,90.196079%,90.196079%);fill-opacity:1;" d="M 84.710938 21.503906 C 85.605469 21.699219 86.390625 22.433594 86.855469 23.511719 C 87.320312 24.585938 87.414062 25.894531 87.113281 27.078125 L 86.507812 29.460938 C 86.507812 29.460938 87.269531 36.632812 86.015625 38.65625 L 82.160156 38.171875 C 82.160156 38.171875 82.867188 34.554688 82.324219 32.804688 C 81.992188 31.730469 82.011719 28.027344 82.339844 25.015625 C 82.585938 22.71875 83.058594 21.148438 84.710938 21.503906 Z M 84.710938 21.503906 "/>
<path style=" stroke:none;fill-rule:nonzero;fill:rgb(100%,47.450981%,77.64706%);fill-opacity:1;" d="M 60.511719 9.640625 C 57.609375 11.648438 56.433594 16.542969 57.878906 20.574219 C 59.324219 24.601562 64.550781 31.472656 68.71875 32.507812 C 66.925781 24.945312 69.421875 17.253906 68.378906 13.296875 C 67.265625 9.070312 63.410156 7.632812 60.511719 9.640625 Z M 60.511719 9.640625 "/>
<path style=" stroke:none;fill-rule:nonzero;fill:rgb(100%,100%,100%);fill-opacity:1;" d="M 64.378906 16.5625 C 64.378906 15.09375 63.523438 13.90625 62.464844 13.90625 C 61.410156 13.90625 60.550781 15.09375 60.550781 16.5625 C 60.550781 18.03125 61.410156 19.222656 62.464844 19.222656 C 63.523438 19.222656 64.378906 18.03125 64.378906 16.5625 Z M 64.378906 16.5625 "/>
<path style=" stroke:none;fill-rule:nonzero;fill:rgb(100%,47.450981%,77.64706%);fill-opacity:1;" d="M 69.9375 35.035156 C 69.9375 34.074219 69.375 33.292969 68.683594 33.292969 C 67.992188 33.292969 67.429688 34.074219 67.429688 35.035156 C 67.429688 35.996094 67.992188 36.777344 68.683594 36.777344 C 69.375 36.777344 69.9375 35.996094 69.9375 35.035156 Z M 69.9375 35.035156 "/>
<use xlink:href="#surface5" mask="url(#mask0)"/>
<use xlink:href="#surface8" mask="url(#mask1)"/>
<path style=" stroke:none;fill-rule:nonzero;fill:rgb(81.960785%,82.745099%,83.137256%);fill-opacity:1;" d="M 9.648438 50.007812 C 6.648438 49.910156 4.15625 53.207031 4.082031 57.378906 C 4.011719 61.546875 6.148438 70.320312 9.242188 73.679688 C 10.132812 66.40625 14.574219 61.609375 14.953125 57.742188 C 15.363281 53.609375 12.652344 50.109375 9.648438 50.007812 Z M 9.648438 50.007812 "/>
<path style=" stroke:none;fill-rule:nonzero;fill:rgb(100%,100%,100%);fill-opacity:1;" d="M 10.863281 56.855469 C 10.863281 55.496094 10.070312 54.390625 9.089844 54.390625 C 8.113281 54.390625 7.316406 55.496094 7.316406 56.855469 C 7.316406 58.214844 8.113281 59.316406 9.089844 59.316406 C 10.070312 59.316406 10.863281 58.214844 10.863281 56.855469 Z M 10.863281 56.855469 "/>
<path style=" stroke:none;fill-rule:nonzero;fill:rgb(81.960785%,82.745099%,83.137256%);fill-opacity:1;" d="M 9.582031 75.726562 C 9.582031 74.835938 9.0625 74.113281 8.421875 74.113281 C 7.78125 74.113281 7.261719 74.835938 7.261719 75.726562 C 7.261719 76.617188 7.78125 77.339844 8.421875 77.339844 C 9.0625 77.339844 9.582031 76.617188 9.582031 75.726562 Z M 9.582031 75.726562 "/>
<use xlink:href="#surface11" mask="url(#mask2)"/>
<use xlink:href="#surface14" mask="url(#mask3)"/>
<path style=" stroke:none;fill-rule:nonzero;fill:rgb(100%,71.372551%,71.372551%);fill-opacity:1;" d="M 30.277344 17.917969 C 29.433594 17.992188 28.789062 18.988281 28.820312 20.160156 C 28.824219 20.273438 28.835938 20.386719 28.855469 20.5 L 24.253906 24.527344 L 26.796875 26.089844 L 30.773438 22.023438 C 31.449219 21.738281 31.902344 20.855469 31.875 19.875 C 31.835938 18.738281 31.136719 17.855469 30.316406 17.914062 C 30.304688 17.914062 30.289062 17.914062 30.277344 17.917969 Z M 30.277344 17.917969 "/>
<path style=" stroke:none;fill-rule:nonzero;fill:rgb(100%,47.450981%,77.64706%);fill-opacity:1;" d="M 25.839844 22.695312 L 26.980469 25.964844 L 22.472656 29.992188 C 21.820312 30.582031 20.992188 30.660156 20.292969 30.195312 C 19.429688 29.621094 18.941406 28.324219 19.097656 27.011719 L 20.5625 15.410156 C 20.765625 13.726562 21.882812 12.554688 23.105469 12.746094 C 24.3125 12.929688 25.183594 14.4375 25.050781 16.113281 C 25.050781 16.144531 25.046875 16.175781 25.042969 16.207031 C 25.03125 16.316406 25.015625 16.429688 24.996094 16.539062 L 23.398438 24.789062 Z M 25.839844 22.695312 "/>
<path style=" stroke:none;fill-rule:nonzero;fill:rgb(100%,72.156864%,72.156864%);fill-opacity:1;" d="M 19.710938 27.761719 L 26.160156 27.761719 L 26.160156 36.71875 L 19.710938 36.71875 Z M 19.710938 27.761719 "/>
<path style=" stroke:none;fill-rule:nonzero;fill:rgb(100%,71.372551%,71.372551%);fill-opacity:1;" d="M 41.449219 54.136719 L 43.910156 52.988281 L 45.28125 62.296875 L 43.613281 63.078125 Z M 41.449219 54.136719 "/>
<path style=" stroke:none;fill-rule:nonzero;fill:rgb(100%,71.372551%,71.372551%);fill-opacity:1;" d="M 37.277344 53.421875 L 39.71875 52.191406 L 41.246094 61.457031 L 39.589844 62.289062 Z M 37.277344 53.421875 "/>
<path style=" stroke:none;fill-rule:nonzero;fill:rgb(18.431373%,18.039216%,25.490198%);fill-opacity:1;" d="M 19.945312 39.058594 C 18.652344 51.023438 35.859375 43.949219 35.859375 43.949219 L 41.253906 54.289062 L 44.414062 53.492188 C 44.414062 53.492188 42.992188 47.285156 40.453125 38.964844 C 39.328125 35.269531 26.527344 36.171875 26.527344 36.171875 L 26.261719 33.273438 L 18.9375 33.074219 Z M 19.945312 39.058594 "/>
<path style=" stroke:none;fill-rule:nonzero;fill:rgb(18.431373%,18.039216%,25.490198%);fill-opacity:1;" d="M 32.375 44.75 L 36.351562 41.308594 C 39.265625 49.390625 40.125 52.890625 40.125 52.890625 L 37.371094 53.964844 Z M 32.375 44.75 "/>
<path style=" stroke:none;fill-rule:nonzero;fill:rgb(100%,47.450981%,77.64706%);fill-opacity:1;" d="M 23.625 13.207031 L 22.328125 10.890625 L 20.476562 10.777344 L 20.292969 12.957031 L 19.375 13.546875 C 18.460938 18.378906 18.320312 23.433594 18.960938 28.351562 C 19.210938 28.679688 19.316406 29.167969 19.230469 29.632812 L 19.171875 29.960938 L 19.175781 29.972656 C 19.371094 30.402344 19.4375 30.917969 19.363281 31.414062 L 18.925781 32.496094 C 18.605469 33.28125 18.554688 34.222656 18.78125 35.070312 C 19.007812 35.914062 19.488281 36.578125 20.101562 36.886719 C 22.792969 38.242188 25.316406 38.746094 27.183594 34.941406 L 27.773438 21.683594 Z M 23.625 13.207031 "/>
<path style=" stroke:none;fill-rule:nonzero;fill:rgb(100%,72.156864%,72.156864%);fill-opacity:1;" d="M 25.691406 6.75 C 25.691406 4.125 24.15625 1.996094 22.265625 1.996094 C 20.378906 1.996094 18.84375 4.125 18.84375 6.75 C 18.84375 9.378906 20.378906 11.507812 22.265625 11.507812 C 24.15625 11.507812 25.691406 9.378906 25.691406 6.75 Z M 25.691406 6.75 "/>
<path style=" stroke:none;fill-rule:nonzero;fill:rgb(18.431373%,18.039216%,25.490198%);fill-opacity:1;" d="M 20.550781 1.019531 C 19.101562 1.058594 17.949219 2.925781 17.980469 5.191406 C 16.910156 6.746094 16.648438 14.390625 17.546875 16.425781 C 19.183594 16.691406 20.183594 11.054688 21.621094 11.871094 L 21.808594 10.640625 L 22.238281 12.242188 C 22.605469 12.476562 22.964844 12.734375 23.324219 13.011719 C 23.585938 11.363281 23.519531 9.761719 22.824219 8.367188 C 22.207031 7.128906 23.710938 5.65625 24.785156 5.867188 L 24.769531 4.726562 L 25.039062 5.859375 C 25.457031 6.285156 25.921875 6.132812 26.398438 5.824219 C 27.167969 0.261719 21.203125 -1.261719 20.550781 1.019531 Z M 20.550781 1.019531 "/>
<path style=" stroke:none;fill-rule:nonzero;fill:rgb(18.431373%,18.039216%,25.490198%);fill-opacity:1;" d="M 42.855469 64.652344 L 43.953125 64.453125 L 44.011719 62.980469 L 44.652344 64.328125 L 47.558594 63.796875 C 47.847656 63.746094 48.074219 63.441406 48.125 63.046875 C 48.175781 62.652344 48.03125 62.257812 47.777344 62.074219 L 45.242188 60.265625 L 45.105469 58.8125 L 42.679688 59.460938 Z M 42.855469 64.652344 "/>
<path style=" stroke:none;fill-rule:nonzero;fill:rgb(18.431373%,18.039216%,25.490198%);fill-opacity:1;" d="M 39.957031 64.664062 L 40.953125 63.996094 L 40.675781 62.570312 L 41.585938 63.566406 L 44.226562 61.785156 C 44.484375 61.613281 44.632812 61.222656 44.589844 60.824219 C 44.546875 60.429688 44.324219 60.117188 44.039062 60.058594 L 41.222656 59.457031 L 40.761719 58.136719 L 38.609375 59.816406 Z M 39.957031 64.664062 "/>
<path style=" stroke:none;fill-rule:nonzero;fill:rgb(80.000001%,80.000001%,80.000001%);fill-opacity:1;" d="M 24.933594 32.960938 L 26.15625 32.960938 L 26.15625 19.914062 L 25.164062 19.914062 C 25.0625 19.914062 24.980469 20.023438 24.980469 20.164062 Z M 24.933594 32.960938 "/>
<path style=" stroke:none;fill-rule:nonzero;fill:rgb(100%,100%,100%);fill-opacity:1;" d="M 26.039062 23.738281 L 39.144531 23.738281 L 39.144531 33.027344 L 26.039062 33.027344 Z M 26.039062 23.738281 "/>
<path style=" stroke:none;fill-rule:nonzero;fill:rgb(94.901961%,94.901961%,94.901961%);fill-opacity:1;" d="M 26.066406 25.855469 L 26.066406 23.773438 L 39.121094 23.773438 L 39.121094 32.996094 L 31.207031 32.996094 C 28.367188 32.988281 26.070312 29.796875 26.066406 25.855469 Z M 26.066406 25.855469 "/>
<path style=" stroke:none;fill-rule:nonzero;fill:rgb(94.901961%,94.901961%,94.901961%);fill-opacity:1;" d="M 25.132812 20.285156 C 25.140625 20.300781 25.144531 20.320312 25.148438 20.339844 L 25.601562 22.757812 L 26.089844 24.046875 L 39.097656 24.046875 L 39.097656 23.726562 L 38.355469 22.757812 L 37.492188 20.460938 C 37.453125 20.359375 37.402344 20.269531 37.34375 20.191406 C 37.207031 20.011719 37.027344 19.914062 36.839844 19.914062 L 25.292969 19.914062 C 25.230469 19.914062 25.171875 19.960938 25.136719 20.035156 C 25.105469 20.109375 25.105469 20.203125 25.132812 20.285156 Z M 25.132812 20.285156 "/>
<path style=" stroke:none;fill-rule:nonzero;fill:rgb(90.196079%,90.196079%,90.196079%);fill-opacity:1;" d="M 26.039062 23.738281 L 39.144531 23.738281 L 39.144531 33.027344 L 26.039062 33.027344 Z M 39.046875 32.890625 L 26.140625 32.890625 L 26.140625 23.875 L 39.046875 23.875 Z M 39.046875 32.890625 "/>
<path style=" stroke:none;fill-rule:nonzero;fill:rgb(80.000001%,80.000001%,80.000001%);fill-opacity:1;" d="M 25.359375 21.519531 L 25.601562 22.757812 L 38.355469 22.757812 L 37.945312 21.726562 Z M 25.359375 21.519531 "/>
<path style=" stroke:none;fill-rule:nonzero;fill:rgb(100%,100%,100%);fill-opacity:1;" d="M 36.574219 28.605469 L 38.664062 28.605469 L 38.664062 28.765625 L 36.574219 28.765625 Z M 36.574219 28.605469 "/>
<path style=" stroke:none;fill-rule:nonzero;fill:rgb(100%,100%,100%);fill-opacity:1;" d="M 36.574219 29.167969 L 38.664062 29.167969 L 38.664062 29.328125 L 36.574219 29.328125 Z M 36.574219 29.167969 "/>
<path style=" stroke:none;fill-rule:nonzero;fill:rgb(100%,100%,100%);fill-opacity:1;" d="M 36.574219 29.730469 L 38.664062 29.730469 L 38.664062 29.890625 L 36.574219 29.890625 Z M 36.574219 29.730469 "/>
<path style=" stroke:none;fill-rule:nonzero;fill:rgb(100%,100%,100%);fill-opacity:1;" d="M 38.605469 25.773438 C 38.605469 25.195312 38.269531 24.730469 37.855469 24.730469 C 37.4375 24.730469 37.101562 25.195312 37.101562 25.773438 C 37.101562 26.351562 37.4375 26.816406 37.855469 26.816406 C 38.269531 26.816406 38.605469 26.351562 38.605469 25.773438 Z M 38.605469 25.773438 "/>
<path style=" stroke:none;fill-rule:nonzero;fill:rgb(81.960785%,82.745099%,83.137256%);fill-opacity:1;" d="M 31.792969 10 C 33.632812 9.941406 35.15625 11.960938 35.203125 14.515625 C 35.246094 17.070312 33.9375 22.445312 32.042969 24.503906 C 31.496094 20.046875 28.773438 17.109375 28.542969 14.738281 C 28.292969 12.207031 29.953125 10.0625 31.792969 10 Z M 31.792969 10 "/>
<path style=" stroke:none;fill-rule:nonzero;fill:rgb(100%,100%,100%);fill-opacity:1;" d="M 33.21875 14.195312 C 33.21875 13.363281 32.734375 12.6875 32.132812 12.6875 C 31.535156 12.6875 31.046875 13.363281 31.046875 14.195312 C 31.046875 15.03125 31.535156 15.707031 32.132812 15.707031 C 32.734375 15.707031 33.21875 15.03125 33.21875 14.195312 Z M 33.21875 14.195312 "/>
<path style=" stroke:none;fill-rule:nonzero;fill:rgb(81.960785%,82.745099%,83.137256%);fill-opacity:1;" d="M 33.253906 25.757812 C 33.253906 25.214844 32.9375 24.769531 32.542969 24.769531 C 32.152344 24.769531 31.832031 25.214844 31.832031 25.757812 C 31.832031 26.304688 32.152344 26.75 32.542969 26.75 C 32.9375 26.75 33.253906 26.304688 33.253906 25.757812 Z M 33.253906 25.757812 "/>
<use xlink:href="#surface17" mask="url(#mask4)"/>
<use xlink:href="#surface20" mask="url(#mask5)"/>
<path style=" stroke:none;fill-rule:nonzero;fill:rgb(100%,71.372551%,71.372551%);fill-opacity:1;" d="M 29.855469 22.550781 C 29.015625 22.464844 28.277344 23.324219 28.191406 24.492188 C 28.183594 24.605469 28.183594 24.722656 28.191406 24.835938 L 23.230469 27.933594 L 25.59375 29.972656 L 29.941406 26.714844 C 30.636719 26.5625 31.171875 25.777344 31.242188 24.800781 C 31.316406 23.664062 30.714844 22.660156 29.898438 22.554688 C 29.882812 22.554688 29.871094 22.550781 29.855469 22.550781 Z M 29.855469 22.550781 "/>
<path style=" stroke:none;fill-rule:nonzero;fill:rgb(100%,47.450981%,77.64706%);fill-opacity:1;" d="M 24.984375 26.429688 L 25.789062 29.886719 L 20.921875 33.007812 C 20.214844 33.464844 19.390625 33.378906 18.742188 32.785156 C 17.945312 32.050781 17.59375 30.671875 17.878906 29.40625 L 20.488281 18.199219 C 20.859375 16.566406 22.082031 15.625 23.273438 16.050781 C 24.449219 16.464844 25.160156 18.125 24.863281 19.757812 C 24.855469 19.789062 24.851562 19.820312 24.84375 19.847656 C 24.824219 19.957031 24.796875 20.0625 24.765625 20.167969 L 22.359375 28.03125 Z M 24.984375 26.429688 "/>
</g>
</svg>
