<?xml version="1.0" encoding="UTF-8"?>
<svg xmlns="http://www.w3.org/2000/svg" xmlns:xlink="http://www.w3.org/1999/xlink" width="100px" height="100px" viewBox="0 0 100 100" version="1.1">
<g id="surface1">
<path style=" stroke:none;fill-rule:nonzero;fill:rgb(94.901961%,94.901961%,94.901961%);fill-opacity:1;" d="M 92.648438 92.746094 L 95.34375 91.757812 C 95.679688 90.09375 95.65625 88.355469 95.277344 86.703125 C 94.195312 89.476562 91.015625 90.15625 89.207031 92.371094 C 88.074219 93.78125 87.554688 95.707031 87.804688 97.605469 L 87.238281 99.824219 C 89.917969 99.558594 92.363281 97.957031 93.929688 95.4375 C 94.359375 94.734375 94.707031 93.972656 94.96875 93.167969 C 93.820312 93.035156 92.648438 92.746094 92.648438 92.746094 Z M 92.648438 92.746094 "/>
<path style=" stroke:none;fill-rule:nonzero;fill:rgb(94.901961%,94.901961%,94.901961%);fill-opacity:1;" d="M 89.765625 88.644531 L 91.796875 86.378906 C 91.453125 84.714844 90.761719 83.171875 89.78125 81.886719 C 89.886719 84.925781 87.304688 87.167969 86.542969 90.078125 C 86.074219 91.921875 86.355469 93.914062 87.3125 95.488281 L 87.664062 97.761719 C 89.960938 96.148438 91.53125 93.457031 91.957031 90.398438 C 92.066406 89.546875 92.085938 88.683594 92.007812 87.828125 C 90.929688 88.300781 89.765625 88.644531 89.765625 88.644531 Z M 89.765625 88.644531 "/>
<path style=" stroke:none;fill-rule:nonzero;fill:rgb(24.705882%,23.921569%,33.725491%);fill-opacity:1;" d="M 76.265625 6.644531 L 0.296875 6.644531 C 0.132812 6.640625 0 6.484375 0 6.296875 C 0 6.105469 0.132812 5.953125 0.296875 5.949219 L 76.265625 5.949219 C 76.429688 5.953125 76.558594 6.105469 76.558594 6.296875 C 76.558594 6.484375 76.429688 6.640625 76.265625 6.644531 Z M 76.265625 6.644531 "/>
<path style=" stroke:none;fill-rule:nonzero;fill:rgb(24.705882%,23.921569%,33.725491%);fill-opacity:1;" d="M 7.238281 2.085938 C 7.238281 0.933594 6.445312 0 5.46875 0 C 4.488281 0 3.695312 0.933594 3.695312 2.085938 C 3.695312 3.238281 4.488281 4.171875 5.46875 4.171875 C 6.445312 4.171875 7.238281 3.238281 7.238281 2.085938 Z M 7.238281 2.085938 "/>
<path style=" stroke:none;fill-rule:nonzero;fill:rgb(24.705882%,23.921569%,33.725491%);fill-opacity:1;" d="M 13.355469 2.085938 C 13.355469 0.933594 12.5625 0 11.582031 0 C 10.605469 0 9.8125 0.933594 9.8125 2.085938 C 9.8125 3.238281 10.605469 4.171875 11.582031 4.171875 C 12.5625 4.171875 13.355469 3.238281 13.355469 2.085938 Z M 13.355469 2.085938 "/>
<path style=" stroke:none;fill-rule:nonzero;fill:rgb(24.705882%,23.921569%,33.725491%);fill-opacity:1;" d="M 19.46875 2.085938 C 19.46875 0.933594 18.675781 0 17.699219 0 C 16.722656 0 15.929688 0.933594 15.929688 2.085938 C 15.929688 3.238281 16.722656 4.171875 17.699219 4.171875 C 18.675781 4.171875 19.46875 3.238281 19.46875 2.085938 Z M 19.46875 2.085938 "/>
<path style=" stroke:none;fill-rule:nonzero;fill:rgb(24.705882%,23.921569%,33.725491%);fill-opacity:1;" d="M 72.582031 0.515625 L 68.238281 0.515625 C 68.058594 0.519531 67.914062 0.691406 67.914062 0.894531 C 67.914062 1.101562 68.058594 1.269531 68.238281 1.273438 L 72.582031 1.273438 C 72.761719 1.269531 72.902344 1.101562 72.902344 0.894531 C 72.902344 0.691406 72.761719 0.519531 72.582031 0.515625 Z M 72.582031 0.515625 "/>
<path style=" stroke:none;fill-rule:nonzero;fill:rgb(24.705882%,23.921569%,33.725491%);fill-opacity:1;" d="M 72.582031 1.941406 L 68.238281 1.941406 C 68.058594 1.945312 67.914062 2.113281 67.914062 2.320312 C 67.914062 2.523438 68.058594 2.695312 68.238281 2.699219 L 72.582031 2.699219 C 72.761719 2.695312 72.902344 2.523438 72.902344 2.320312 C 72.902344 2.113281 72.761719 1.945312 72.582031 1.941406 Z M 72.582031 1.941406 "/>
<path style=" stroke:none;fill-rule:nonzero;fill:rgb(24.705882%,23.921569%,33.725491%);fill-opacity:1;" d="M 72.582031 3.359375 L 68.238281 3.359375 C 68.058594 3.363281 67.914062 3.535156 67.914062 3.738281 C 67.914062 3.945312 68.058594 4.113281 68.238281 4.117188 L 72.582031 4.117188 C 72.761719 4.113281 72.902344 3.945312 72.902344 3.738281 C 72.902344 3.535156 72.761719 3.363281 72.582031 3.359375 Z M 72.582031 3.359375 "/>
<path style=" stroke:none;fill-rule:nonzero;fill:rgb(90.196079%,90.588236%,90.980393%);fill-opacity:1;" d="M 8.074219 18.265625 C 8.074219 16.871094 7.09375 15.742188 5.886719 15.742188 C 4.675781 15.742188 3.695312 16.871094 3.695312 18.265625 C 3.695312 19.65625 4.675781 20.785156 5.886719 20.785156 C 7.09375 20.785156 8.074219 19.65625 8.074219 18.265625 Z M 8.074219 18.265625 "/>
<path style=" stroke:none;fill-rule:nonzero;fill:rgb(90.196079%,90.588236%,90.980393%);fill-opacity:1;" d="M 61.625 23.851562 L 4.347656 23.851562 C 3.988281 23.851562 3.695312 23.511719 3.695312 23.097656 C 3.695312 22.683594 3.988281 22.347656 4.347656 22.347656 L 61.625 22.347656 C 61.984375 22.347656 62.277344 22.683594 62.277344 23.097656 C 62.277344 23.511719 61.984375 23.851562 61.625 23.851562 Z M 61.625 23.851562 "/>
<path style=" stroke:none;fill-rule:nonzero;fill:rgb(90.196079%,90.588236%,90.980393%);fill-opacity:1;" d="M 46.601562 26.816406 L 4.347656 26.816406 C 3.988281 26.816406 3.695312 26.480469 3.695312 26.066406 C 3.695312 25.652344 3.988281 25.316406 4.347656 25.316406 L 46.601562 25.316406 C 46.964844 25.316406 47.253906 25.652344 47.253906 26.066406 C 47.253906 26.480469 46.964844 26.816406 46.601562 26.816406 Z M 46.601562 26.816406 "/>
<path style=" stroke:none;fill-rule:nonzero;fill:rgb(90.196079%,90.588236%,90.980393%);fill-opacity:1;" d="M 8.074219 57.628906 C 8.074219 56.238281 7.09375 55.109375 5.886719 55.109375 C 4.675781 55.109375 3.695312 56.238281 3.695312 57.628906 C 3.695312 59.023438 4.675781 60.152344 5.886719 60.152344 C 7.09375 60.152344 8.074219 59.023438 8.074219 57.628906 Z M 8.074219 57.628906 "/>
<path style=" stroke:none;fill-rule:nonzero;fill:rgb(90.196079%,90.588236%,90.980393%);fill-opacity:1;" d="M 61.625 63.214844 L 4.347656 63.214844 C 4.113281 63.214844 3.898438 63.070312 3.78125 62.839844 C 3.667969 62.605469 3.667969 62.320312 3.78125 62.085938 C 3.898438 61.855469 4.113281 61.710938 4.347656 61.710938 L 61.625 61.710938 C 62 61.738281 62.300781 62.085938 62.3125 62.523438 C 62.300781 62.71875 62.222656 62.902344 62.09375 63.035156 C 61.964844 63.164062 61.796875 63.230469 61.625 63.214844 Z M 61.625 63.214844 "/>
<path style=" stroke:none;fill-rule:nonzero;fill:rgb(90.196079%,90.588236%,90.980393%);fill-opacity:1;" d="M 46.601562 66.183594 L 4.347656 66.183594 C 3.988281 66.183594 3.695312 65.847656 3.695312 65.429688 C 3.695312 65.015625 3.988281 64.679688 4.347656 64.679688 L 46.601562 64.679688 C 46.964844 64.679688 47.253906 65.015625 47.253906 65.429688 C 47.253906 65.847656 46.964844 66.183594 46.601562 66.183594 Z M 46.601562 66.183594 "/>
<path style=" stroke:none;fill-rule:nonzero;fill:rgb(90.196079%,90.588236%,90.980393%);fill-opacity:1;" d="M 8.074219 36.464844 C 8.074219 35.070312 7.09375 33.941406 5.886719 33.941406 C 4.675781 33.941406 3.695312 35.070312 3.695312 36.464844 C 3.695312 37.855469 4.675781 38.984375 5.886719 38.984375 C 7.09375 38.984375 8.074219 37.855469 8.074219 36.464844 Z M 8.074219 36.464844 "/>
<path style=" stroke:none;fill-rule:nonzero;fill:rgb(90.196079%,90.588236%,90.980393%);fill-opacity:1;" d="M 61.625 42.046875 L 4.347656 42.046875 C 3.988281 42.046875 3.695312 41.710938 3.695312 41.296875 C 3.695312 40.882812 3.988281 40.546875 4.347656 40.546875 L 61.625 40.546875 C 61.984375 40.546875 62.277344 40.882812 62.277344 41.296875 C 62.277344 41.710938 61.984375 42.046875 61.625 42.046875 Z M 61.625 42.046875 "/>
<path style=" stroke:none;fill-rule:nonzero;fill:rgb(90.196079%,90.588236%,90.980393%);fill-opacity:1;" d="M 53.648438 45.015625 L 4.347656 45.015625 C 3.988281 45.015625 3.695312 44.679688 3.695312 44.265625 C 3.695312 43.851562 3.988281 43.515625 4.347656 43.515625 L 53.648438 43.515625 C 54.007812 43.515625 54.300781 43.851562 54.300781 44.265625 C 54.300781 44.679688 54.007812 45.015625 53.648438 45.015625 Z M 53.648438 45.015625 "/>
<path style=" stroke:none;fill-rule:nonzero;fill:rgb(90.196079%,90.588236%,90.980393%);fill-opacity:1;" d="M 50.300781 47.984375 L 4.347656 47.984375 C 3.988281 47.984375 3.695312 47.648438 3.695312 47.234375 C 3.695312 46.816406 3.988281 46.480469 4.347656 46.480469 L 50.300781 46.480469 C 50.664062 46.480469 50.953125 46.816406 50.953125 47.234375 C 50.953125 47.648438 50.664062 47.984375 50.300781 47.984375 Z M 50.300781 47.984375 "/>
<path style=" stroke:none;fill-rule:nonzero;fill:rgb(100%,47.450981%,77.64706%);fill-opacity:1;" d="M 67.464844 62.507812 C 67.464844 52.195312 60.207031 43.832031 51.253906 43.832031 C 42.300781 43.832031 35.042969 52.195312 35.042969 62.507812 C 35.042969 72.824219 42.300781 81.1875 51.253906 81.1875 C 60.207031 81.1875 67.464844 72.824219 67.464844 62.507812 Z M 67.464844 62.507812 "/>
<path style=" stroke:none;fill-rule:nonzero;fill:rgb(24.705882%,23.921569%,33.725491%);fill-opacity:1;" d="M 53.546875 66.355469 C 53.546875 64.882812 52.511719 63.6875 51.230469 63.6875 C 49.953125 63.6875 48.914062 64.882812 48.914062 66.355469 C 48.914062 67.832031 49.953125 69.023438 51.230469 69.023438 C 52.511719 69.023438 53.546875 67.832031 53.546875 66.355469 Z M 53.546875 66.355469 "/>
<path style=" stroke:none;fill-rule:nonzero;fill:rgb(100%,47.450981%,77.64706%);fill-opacity:1;" d="M 52.300781 66.355469 C 52.300781 65.675781 51.820312 65.125 51.230469 65.125 C 50.640625 65.125 50.164062 65.675781 50.164062 66.355469 C 50.164062 67.039062 50.640625 67.589844 51.230469 67.589844 C 51.820312 67.589844 52.300781 67.039062 52.300781 66.355469 Z M 52.300781 66.355469 "/>
<path style=" stroke:none;fill-rule:nonzero;fill:rgb(100%,100%,100%);fill-opacity:1;" d="M 55.53125 72.296875 L 46.976562 72.296875 C 45.214844 72.292969 43.785156 70.648438 43.78125 68.617188 L 43.78125 64.097656 C 43.785156 62.066406 45.214844 60.417969 46.976562 60.417969 L 55.53125 60.417969 C 57.292969 60.421875 58.722656 62.066406 58.722656 64.097656 L 58.722656 68.617188 C 58.722656 70.648438 57.292969 72.292969 55.53125 72.296875 Z M 46.976562 60.804688 C 45.398438 60.804688 44.117188 62.277344 44.117188 64.097656 L 44.117188 68.617188 C 44.117188 70.433594 45.398438 71.910156 46.976562 71.910156 L 55.53125 71.910156 C 57.109375 71.910156 58.386719 70.433594 58.390625 68.617188 L 58.390625 64.097656 C 58.386719 62.277344 57.109375 60.804688 55.53125 60.804688 Z M 46.976562 60.804688 "/>
<path style=" stroke:none;fill-rule:nonzero;fill:rgb(24.705882%,23.921569%,33.725491%);fill-opacity:1;" d="M 46.46875 69.84375 L 54.0625 69.84375 C 55.71875 69.84375 57.0625 68.296875 57.0625 66.386719 L 57.0625 62.605469 C 57.0625 62.1875 56.996094 61.769531 56.863281 61.378906 C 57.613281 62.03125 58.058594 63.050781 58.058594 64.132812 L 58.058594 67.914062 C 58.058594 69.824219 56.714844 71.371094 55.054688 71.371094 L 47.464844 71.371094 C 46.21875 71.371094 45.105469 70.484375 44.664062 69.140625 C 45.183594 69.597656 45.816406 69.84375 46.46875 69.84375 Z M 46.46875 69.84375 "/>
<path style=" stroke:none;fill-rule:nonzero;fill:rgb(62.7451%,38.039216%,41.568628%);fill-opacity:1;" d="M 69.71875 97.601562 L 67.851562 97.597656 L 66.964844 89.308594 L 69.71875 89.308594 Z M 69.71875 97.601562 "/>
<path style=" stroke:none;fill-rule:nonzero;fill:rgb(18.431373%,18.039216%,25.490198%);fill-opacity:1;" d="M 69.78125 99.839844 L 64.046875 99.839844 L 64.046875 99.757812 C 64.046875 98.335938 65.046875 97.183594 66.28125 97.183594 L 67.328125 96.269531 L 69.28125 97.183594 L 69.78125 97.183594 Z M 69.78125 99.839844 "/>
<path style=" stroke:none;fill-rule:nonzero;fill:rgb(62.7451%,38.039216%,41.568628%);fill-opacity:1;" d="M 82.917969 97.601562 L 84.78125 97.597656 L 85.667969 89.308594 L 82.914062 89.308594 Z M 82.917969 97.601562 "/>
<path style=" stroke:none;fill-rule:nonzero;fill:rgb(18.431373%,18.039216%,25.490198%);fill-opacity:1;" d="M 82.851562 99.839844 L 88.585938 99.839844 L 88.585938 99.757812 C 88.585938 98.335938 87.585938 97.183594 86.355469 97.183594 L 85.304688 96.269531 L 83.351562 97.183594 L 82.851562 97.183594 Z M 82.851562 99.839844 "/>
<path style=" stroke:none;fill-rule:nonzero;fill:rgb(18.431373%,18.039216%,25.490198%);fill-opacity:1;" d="M 66.882812 83.21875 C 66.910156 82.742188 67.128906 80.128906 67.128906 80.128906 L 67.652344 74.578125 L 68.578125 59.871094 L 68.640625 58.910156 L 73.484375 57.839844 L 76.792969 56.011719 L 80.726562 57.460938 L 83.792969 58.785156 C 83.792969 58.785156 83.796875 59.351562 83.820312 60.035156 C 83.851562 60.929688 83.90625 62.03125 84.039062 62.316406 C 84.257812 62.820312 84.203125 65.53125 84.203125 65.53125 C 84.203125 65.53125 84.421875 71.042969 84.695312 71.648438 C 84.96875 72.253906 85.023438 73.511719 84.941406 73.761719 C 84.859375 74.015625 85.214844 80.636719 85.214844 80.636719 C 85.214844 80.636719 86.132812 92.355469 85.558594 94.121094 C 84.980469 95.886719 82.8125 94.730469 82.8125 94.730469 C 82.8125 94.730469 82.917969 94.257812 82.285156 94.035156 C 81.65625 93.8125 79.738281 77.199219 79.738281 77.199219 C 79.738281 77.199219 79.382812 73.792969 79.054688 72.816406 C 78.726562 71.839844 78.425781 69.097656 78.425781 69.097656 C 78.425781 69.097656 76.398438 64.558594 76.375 63.546875 C 76.375 63.546875 76.109375 62.605469 75.859375 63.644531 C 75.609375 64.683594 74.871094 67.175781 74.871094 67.175781 L 74.148438 70.234375 L 73.300781 74.804688 L 72.753906 78.652344 C 72.753906 78.652344 71.933594 83.757812 71.800781 83.980469 C 71.671875 84.199219 71.800781 88.863281 71.800781 88.863281 C 71.800781 88.863281 71.167969 92.839844 70.269531 93.53125 C 69.371094 94.226562 66.996094 93.542969 66.996094 93.542969 C 66.996094 93.542969 66.855469 83.691406 66.882812 83.21875 Z M 66.882812 83.21875 "/>
<path style=" stroke:none;fill-rule:nonzero;fill:rgb(18.431373%,18.039216%,25.490198%);fill-opacity:1;" d="M 68.949219 45.496094 L 70.027344 49.234375 L 68.695312 51.058594 L 69.28125 51.75 L 68.851562 52.730469 L 67.726562 63.011719 L 73.894531 65.707031 L 75.972656 62.707031 L 77.613281 65.707031 L 84.75 63.699219 L 82.929688 50.589844 L 82.929688 49.730469 L 82.417969 48.078125 L 82.417969 44.574219 L 83.773438 34.144531 L 79.722656 32.511719 L 77.785156 30.742188 L 77.15625 33.226562 L 74.488281 32.679688 L 74.417969 30.8125 L 72.375 33.039062 L 70.65625 33.601562 L 68.597656 34.144531 L 68.335938 34.902344 L 68.859375 34.75 L 68.773438 44.582031 Z M 68.949219 45.496094 "/>
<path style=" stroke:none;fill-rule:nonzero;fill:rgb(62.7451%,38.039216%,41.568628%);fill-opacity:1;" d="M 67.105469 59.171875 L 68.140625 47.613281 L 68.414062 42.859375 L 65.515625 42.253906 C 65.515625 42.253906 65.628906 45.65625 65.25 47.574219 C 64.875 49.46875 65.199219 58.917969 65.222656 59.171875 C 64.785156 59.621094 64.636719 60.332031 64.84375 60.964844 C 65.054688 61.59375 65.578125 62.007812 66.164062 62.007812 C 66.746094 62.007812 67.273438 61.59375 67.480469 60.964844 C 67.691406 60.335938 67.539062 59.621094 67.105469 59.171875 Z M 67.105469 59.171875 "/>
<path style=" stroke:none;fill-rule:nonzero;fill:rgb(18.431373%,18.039216%,25.490198%);fill-opacity:1;" d="M 64.277344 50.011719 L 65.082031 50.203125 L 67.851562 50.863281 L 68.003906 50.898438 L 68.328125 49.402344 L 68.710938 48.9375 L 69.429688 44.582031 L 69.46875 44.355469 L 70.558594 41.671875 L 71.3125 33.601562 L 68.507812 34.183594 C 68.492188 34.199219 68.480469 34.21875 68.46875 34.234375 C 68.066406 34.761719 67.777344 35.492188 67.308594 36.230469 C 65.78125 38.625 64.605469 44.445312 64.652344 47.632812 C 64.65625 47.683594 64.609375 47.742188 64.554688 47.800781 C 64.015625 48.367188 63.902344 49.289062 64.277344 50.011719 Z M 64.277344 50.011719 "/>
<path style=" stroke:none;fill-rule:nonzero;fill:rgb(62.7451%,38.039216%,41.568628%);fill-opacity:1;" d="M 85.136719 59.171875 L 84.097656 47.613281 L 83.824219 42.859375 L 86.726562 42.253906 C 86.726562 42.253906 86.609375 45.65625 86.992188 47.574219 C 87.367188 49.46875 87.039062 58.917969 87.015625 59.171875 C 87.453125 59.621094 87.605469 60.332031 87.394531 60.964844 C 87.1875 61.59375 86.664062 62.007812 86.078125 62.007812 C 85.492188 62.007812 84.96875 61.59375 84.757812 60.964844 C 84.550781 60.335938 84.699219 59.621094 85.136719 59.171875 Z M 85.136719 59.171875 "/>
<path style=" stroke:none;fill-rule:nonzero;fill:rgb(18.431373%,18.039216%,25.490198%);fill-opacity:1;" d="M 87.964844 50.011719 L 87.15625 50.203125 L 84.390625 50.863281 L 84.238281 50.898438 L 83.910156 49.402344 L 83.53125 48.9375 L 82.808594 44.582031 L 82.769531 44.355469 L 81.679688 41.671875 L 81.929688 33.601562 L 83.730469 34.183594 C 83.746094 34.199219 83.757812 34.21875 83.773438 34.234375 C 84.175781 34.761719 84.460938 35.492188 84.933594 36.230469 C 86.460938 38.625 87.632812 44.445312 87.585938 47.632812 C 87.585938 47.683594 87.632812 47.742188 87.6875 47.800781 C 88.222656 48.367188 88.339844 49.289062 87.964844 50.011719 Z M 87.964844 50.011719 "/>
<path style=" stroke:none;fill-rule:nonzero;fill:rgb(100%,47.450981%,77.64706%);fill-opacity:1;" d="M 73.101562 34.796875 L 74.417969 30.816406 L 77.785156 30.742188 L 78.902344 34.796875 L 82.914062 60.636719 C 82.914062 60.636719 70.617188 64.582031 70.742188 59.839844 C 70.875 54.851562 71.464844 48.226562 71.464844 48.226562 Z M 73.101562 34.796875 "/>
<path style=" stroke:none;fill-rule:nonzero;fill:rgb(62.7451%,38.039216%,41.568628%);fill-opacity:1;" d="M 79.992188 25.132812 C 79.992188 22.609375 78.214844 20.5625 76.027344 20.5625 C 73.835938 20.5625 72.0625 22.609375 72.0625 25.132812 C 72.0625 27.65625 73.835938 29.699219 76.027344 29.699219 C 78.214844 29.699219 79.992188 27.65625 79.992188 25.132812 Z M 79.992188 25.132812 "/>
<path style=" stroke:none;fill-rule:nonzero;fill:rgb(18.431373%,18.039216%,25.490198%);fill-opacity:1;" d="M 71.828125 21.816406 C 72.472656 21.007812 73.28125 19.527344 75.726562 18.90625 C 78.746094 18.136719 80.175781 21.28125 79.414062 21.332031 C 81.640625 22.109375 80.210938 27.421875 79.570312 26.976562 C 79.566406 26.972656 79.5625 26.96875 79.554688 26.964844 C 78.863281 26.375 78.410156 25.480469 78.300781 24.496094 L 78.179688 23.238281 C 78.164062 24.261719 77.257812 24.398438 76.328125 24.019531 C 76.441406 23.5625 76.753906 23.210938 77.152344 23.089844 C 76.503906 23.761719 75.683594 24.175781 74.816406 24.257812 C 74.90625 23.742188 75.1875 23.292969 75.589844 23.03125 L 75.550781 22.992188 C 75.1875 23.34375 74.773438 23.613281 74.324219 23.792969 C 73.816406 23.960938 73.203125 23.867188 72.851562 23.40625 C 72.757812 23.28125 72.6875 23.132812 72.644531 22.972656 C 72.71875 23.785156 72.246094 24.707031 71.878906 24.550781 C 71.574219 24.480469 71.398438 22.355469 71.828125 21.816406 Z M 71.828125 21.816406 "/>
<path style=" stroke:none;fill-rule:nonzero;fill:rgb(80.000001%,80.000001%,80.000001%);fill-opacity:1;" d="M 100.0625 99.839844 C 100.0625 99.902344 100.042969 99.960938 100.007812 100.003906 C 99.96875 100.046875 99.917969 100.070312 99.863281 100.070312 L 52.992188 100.070312 C 52.882812 100.070312 52.792969 99.96875 52.792969 99.839844 C 52.792969 99.714844 52.882812 99.613281 52.992188 99.613281 L 99.863281 99.613281 C 99.917969 99.613281 99.96875 99.636719 100.007812 99.679688 C 100.042969 99.722656 100.0625 99.78125 100.0625 99.839844 Z M 100.0625 99.839844 "/>
<path style=" stroke:none;fill-rule:nonzero;fill:rgb(24.705882%,23.921569%,33.725491%);fill-opacity:1;" d="M 51.386719 52.382812 C 49.800781 52.382812 48.40625 53.207031 47.617188 54.449219 C 48.460938 53.742188 49.480469 53.367188 50.523438 53.375 C 52.976562 53.375 54.972656 55.359375 54.972656 57.792969 L 54.972656 59.816406 L 55.835938 59.816406 L 55.835938 56.800781 C 55.835938 54.363281 53.839844 52.382812 51.386719 52.382812 Z M 51.386719 52.382812 "/>
<path style=" stroke:none;fill-rule:nonzero;fill:rgb(100%,100%,100%);fill-opacity:1;" d="M 56.429688 60.855469 L 46.074219 60.855469 L 46.074219 57.34375 C 46.074219 54.511719 48.398438 52.207031 51.253906 52.207031 C 54.109375 52.207031 56.429688 54.511719 56.429688 57.34375 Z M 46.410156 60.46875 L 56.097656 60.46875 L 56.097656 57.34375 C 56.097656 54.722656 53.921875 52.59375 51.253906 52.59375 C 48.582031 52.59375 46.410156 54.722656 46.410156 57.34375 Z M 46.410156 60.46875 "/>
<path style=" stroke:none;fill-rule:nonzero;fill:rgb(100%,100%,100%);fill-opacity:1;" d="M 53.90625 59.515625 L 48.601562 59.515625 C 48.105469 59.511719 47.703125 59.050781 47.703125 58.476562 L 47.703125 57.082031 C 47.703125 55.132812 49.292969 53.546875 51.253906 53.546875 C 53.210938 53.546875 54.804688 55.132812 54.804688 57.082031 L 54.804688 58.476562 C 54.804688 59.050781 54.402344 59.511719 53.90625 59.515625 Z M 51.253906 53.933594 C 49.480469 53.933594 48.035156 55.34375 48.035156 57.082031 L 48.035156 58.476562 C 48.035156 58.835938 48.289062 59.128906 48.601562 59.128906 L 53.90625 59.128906 C 54.21875 59.128906 54.46875 58.835938 54.46875 58.476562 L 54.46875 57.082031 C 54.46875 55.34375 53.027344 53.933594 51.253906 53.933594 Z M 51.253906 53.933594 "/>
</g>
</svg>
