<?xml version="1.0" encoding="UTF-8"?>
<svg xmlns="http://www.w3.org/2000/svg" xmlns:xlink="http://www.w3.org/1999/xlink" width="100px" height="100px" viewBox="0 0 100 100" version="1.1">
<g id="surface1">
<path style=" stroke:none;fill-rule:nonzero;fill:rgb(89.411765%,89.411765%,89.411765%);fill-opacity:1;" d="M 99.453125 5.933594 L 0.554688 5.933594 C 0.25 5.933594 0 5.59375 0 5.179688 L 0 0.753906 C 0 0.335938 0.25 0 0.554688 0 L 99.453125 0 C 99.757812 0 100.007812 0.335938 100.007812 0.753906 L 100.007812 5.179688 C 100.007812 5.59375 99.757812 5.933594 99.453125 5.933594 Z M 99.453125 5.933594 "/>
<path style=" stroke:none;fill-rule:nonzero;fill:rgb(100%,100%,100%);fill-opacity:1;" d="M 4 2.75 C 4 2.160156 3.648438 1.683594 3.214844 1.683594 C 2.78125 1.683594 2.429688 2.160156 2.429688 2.75 C 2.429688 3.339844 2.78125 3.820312 3.214844 3.820312 C 3.648438 3.820312 4 3.339844 4 2.75 Z M 4 2.75 "/>
<path style=" stroke:none;fill-rule:nonzero;fill:rgb(100%,100%,100%);fill-opacity:1;" d="M 6.988281 2.75 C 6.988281 2.160156 6.632812 1.683594 6.199219 1.683594 C 5.765625 1.683594 5.414062 2.160156 5.414062 2.75 C 5.414062 3.339844 5.765625 3.820312 6.199219 3.820312 C 6.632812 3.820312 6.988281 3.339844 6.988281 2.75 Z M 6.988281 2.75 "/>
<path style=" stroke:none;fill-rule:nonzero;fill:rgb(100%,100%,100%);fill-opacity:1;" d="M 9.972656 2.75 C 9.972656 2.160156 9.621094 1.683594 9.183594 1.683594 C 8.75 1.683594 8.398438 2.160156 8.398438 2.75 C 8.398438 3.339844 8.75 3.820312 9.183594 3.820312 C 9.621094 3.820312 9.972656 3.339844 9.972656 2.75 Z M 9.972656 2.75 "/>
<path style=" stroke:none;fill-rule:nonzero;fill:rgb(100%,100%,100%);fill-opacity:1;" d="M 96.527344 2.015625 L 93.089844 2.015625 C 92.949219 2.015625 92.835938 1.859375 92.835938 1.667969 C 92.835938 1.476562 92.949219 1.324219 93.089844 1.324219 L 96.527344 1.324219 C 96.667969 1.324219 96.78125 1.476562 96.78125 1.667969 C 96.78125 1.859375 96.667969 2.015625 96.527344 2.015625 Z M 96.527344 2.015625 "/>
<path style=" stroke:none;fill-rule:nonzero;fill:rgb(100%,100%,100%);fill-opacity:1;" d="M 96.527344 3.3125 L 93.089844 3.3125 C 92.949219 3.3125 92.835938 3.15625 92.835938 2.964844 C 92.835938 2.777344 92.949219 2.621094 93.089844 2.621094 L 96.527344 2.621094 C 96.667969 2.621094 96.78125 2.773438 96.78125 2.964844 C 96.78125 3.15625 96.667969 3.3125 96.527344 3.3125 Z M 96.527344 3.3125 "/>
<path style=" stroke:none;fill-rule:nonzero;fill:rgb(100%,100%,100%);fill-opacity:1;" d="M 96.527344 4.609375 L 93.089844 4.609375 C 92.949219 4.609375 92.835938 4.453125 92.835938 4.265625 C 92.835938 4.074219 92.949219 3.917969 93.089844 3.917969 L 96.527344 3.917969 C 96.667969 3.917969 96.78125 4.070312 96.78125 4.261719 C 96.78125 4.453125 96.667969 4.609375 96.527344 4.609375 Z M 96.527344 4.609375 "/>
<path style=" stroke:none;fill-rule:nonzero;fill:rgb(94.117647%,94.117647%,94.117647%);fill-opacity:1;" d="M 28.199219 87.980469 C 28.5625 84.003906 30.378906 80.085938 33.167969 78.792969 C 32.066406 82.886719 32.066406 87.375 33.167969 91.46875 C 33.597656 93.042969 34.195312 94.734375 33.792969 96.324219 C 33.539062 97.3125 32.925781 98.070312 32.242188 98.542969 C 31.554688 99.015625 30.792969 99.238281 30.039062 99.460938 L 29.890625 99.625 C 28.699219 95.964844 27.835938 91.957031 28.199219 87.980469 Z M 28.199219 87.980469 "/>
<path style=" stroke:none;fill-rule:nonzero;fill:rgb(100%,100%,100%);fill-opacity:1;" d="M 33.195312 78.867188 C 31.570312 81.34375 30.558594 84.449219 30.308594 87.75 C 30.246094 88.457031 30.265625 89.175781 30.367188 89.875 C 30.480469 90.554688 30.726562 91.179688 31.078125 91.683594 C 31.402344 92.164062 31.769531 92.605469 32 93.179688 C 32.230469 93.785156 32.261719 94.492188 32.085938 95.128906 C 31.882812 95.921875 31.484375 96.566406 31.074219 97.179688 C 30.621094 97.859375 30.144531 98.554688 29.953125 99.457031 C 29.929688 99.566406 29.804688 99.511719 29.828125 99.402344 C 30.164062 97.832031 31.285156 96.941406 31.816406 95.527344 C 32.066406 94.871094 32.171875 94.105469 31.9375 93.410156 C 31.734375 92.800781 31.351562 92.347656 31.023438 91.863281 C 30.675781 91.378906 30.417969 90.78125 30.277344 90.132812 C 30.152344 89.441406 30.113281 88.722656 30.160156 88.015625 C 30.253906 86.414062 30.53125 84.84375 30.984375 83.363281 C 31.492188 81.667969 32.210938 80.101562 33.109375 78.734375 C 33.164062 78.652344 33.25 78.785156 33.195312 78.867188 Z M 33.195312 78.867188 "/>
<path style=" stroke:none;fill-rule:nonzero;fill:rgb(100%,100%,100%);fill-opacity:1;" d="M 30.34375 86.679688 C 29.515625 86.40625 28.953125 85.355469 29.015625 84.199219 C 29.019531 84.152344 29.050781 84.117188 29.085938 84.117188 C 29.121094 84.121094 29.148438 84.160156 29.148438 84.207031 C 29.085938 85.285156 29.609375 86.261719 30.382812 86.511719 C 30.464844 86.539062 30.425781 86.707031 30.34375 86.679688 Z M 30.34375 86.679688 "/>
<path style=" stroke:none;fill-rule:nonzero;fill:rgb(100%,100%,100%);fill-opacity:1;" d="M 30.890625 91.46875 C 31.617188 90.878906 32.152344 89.941406 32.390625 88.839844 C 32.414062 88.730469 32.539062 88.789062 32.515625 88.898438 C 32.265625 90.042969 31.707031 91.015625 30.949219 91.625 C 30.878906 91.683594 30.820312 91.527344 30.890625 91.46875 Z M 30.890625 91.46875 "/>
<path style=" stroke:none;fill-rule:nonzero;fill:rgb(100%,100%,100%);fill-opacity:1;" d="M 31.613281 81.835938 C 31.914062 82.027344 32.265625 82.003906 32.546875 81.769531 C 32.621094 81.710938 32.679688 81.867188 32.605469 81.929688 C 32.292969 82.183594 31.90625 82.210938 31.574219 82.003906 C 31.539062 81.984375 31.523438 81.9375 31.53125 81.890625 C 31.542969 81.84375 31.578125 81.820312 31.613281 81.835938 Z M 31.613281 81.835938 "/>
<path style=" stroke:none;fill-rule:nonzero;fill:rgb(94.117647%,94.117647%,94.117647%);fill-opacity:1;" d="M 41.675781 85.894531 C 41.628906 85.933594 41.585938 85.972656 41.542969 86.011719 C 40.957031 86.539062 40.398438 87.125 39.882812 87.773438 C 39.839844 87.824219 39.800781 87.875 39.761719 87.925781 C 38.527344 89.503906 37.519531 91.378906 36.789062 93.457031 C 36.496094 94.28125 36.253906 95.136719 36.058594 96.015625 C 35.789062 97.226562 35.570312 98.570312 35.039062 99.5625 C 34.984375 99.664062 34.925781 99.765625 34.859375 99.859375 L 30.054688 99.859375 C 30.042969 99.851562 30.03125 99.847656 30.019531 99.839844 L 29.828125 99.851562 C 29.835938 99.804688 29.84375 99.757812 29.851562 99.710938 C 29.855469 99.683594 29.863281 99.65625 29.867188 99.628906 C 29.871094 99.613281 29.875 99.59375 29.875 99.578125 C 29.875 99.570312 29.878906 99.566406 29.878906 99.5625 C 29.882812 99.542969 29.882812 99.53125 29.886719 99.515625 C 29.933594 99.25 29.984375 98.980469 30.035156 98.714844 C 30.035156 98.714844 30.035156 98.714844 30.035156 98.710938 C 30.414062 96.671875 30.964844 94.703125 31.683594 92.84375 C 31.703125 92.789062 31.726562 92.730469 31.75 92.675781 C 32.082031 91.851562 32.464844 91.066406 32.890625 90.328125 C 33.125 89.921875 33.375 89.535156 33.636719 89.164062 C 34.316406 88.210938 35.105469 87.410156 35.972656 86.789062 C 37.695312 85.554688 39.691406 85.078125 41.535156 85.835938 C 41.582031 85.855469 41.628906 85.875 41.675781 85.894531 Z M 41.675781 85.894531 "/>
<path style=" stroke:none;fill-rule:nonzero;fill:rgb(100%,100%,100%);fill-opacity:1;" d="M 41.664062 85.976562 C 39.269531 86.625 37.085938 88.277344 35.425781 90.707031 C 35.058594 91.21875 34.757812 91.808594 34.527344 92.453125 C 34.316406 93.085938 34.238281 93.785156 34.296875 94.476562 C 34.339844 95.125 34.4375 95.777344 34.367188 96.429688 C 34.285156 97.097656 33.996094 97.691406 33.574219 98.054688 C 33.058594 98.519531 32.453125 98.707031 31.855469 98.863281 C 31.195312 99.035156 30.503906 99.199219 29.949219 99.761719 C 29.882812 99.832031 29.808594 99.6875 29.875 99.617188 C 30.839844 98.640625 32.128906 98.84375 33.179688 98.152344 C 33.671875 97.832031 34.09375 97.304688 34.21875 96.558594 C 34.324219 95.90625 34.21875 95.230469 34.171875 94.578125 C 34.109375 93.902344 34.167969 93.21875 34.34375 92.585938 C 34.546875 91.929688 34.835938 91.324219 35.1875 90.796875 C 35.972656 89.597656 36.890625 88.570312 37.90625 87.757812 C 39.066406 86.820312 40.332031 86.160156 41.652344 85.800781 C 41.734375 85.78125 41.746094 85.957031 41.664062 85.976562 Z M 41.664062 85.976562 "/>
<path style=" stroke:none;fill-rule:nonzero;fill:rgb(100%,100%,100%);fill-opacity:1;" d="M 35.925781 89.882812 C 35.382812 88.984375 35.402344 87.6875 35.964844 86.816406 C 36.019531 86.730469 36.121094 86.84375 36.066406 86.929688 C 35.539062 87.738281 35.523438 88.949219 36.03125 89.78125 C 36.085938 89.867188 35.976562 89.96875 35.925781 89.882812 Z M 35.925781 89.882812 "/>
<path style=" stroke:none;fill-rule:nonzero;fill:rgb(100%,100%,100%);fill-opacity:1;" d="M 34.242188 94.15625 C 35.082031 94.277344 35.925781 93.96875 36.601562 93.28125 C 36.671875 93.214844 36.742188 93.359375 36.675781 93.429688 C 35.96875 94.136719 35.089844 94.460938 34.21875 94.328125 C 34.132812 94.316406 34.160156 94.140625 34.242188 94.15625 Z M 34.242188 94.15625 "/>
<path style=" stroke:none;fill-rule:nonzero;fill:rgb(100%,100%,100%);fill-opacity:1;" d="M 39.085938 87.050781 C 39.238281 87.453125 39.53125 87.71875 39.863281 87.765625 C 39.945312 87.777344 39.921875 87.949219 39.839844 87.9375 C 39.472656 87.886719 39.152344 87.59375 38.980469 87.152344 C 38.960938 87.113281 38.96875 87.058594 38.996094 87.03125 C 39.027344 87.003906 39.066406 87.011719 39.085938 87.050781 Z M 39.085938 87.050781 "/>
<path style=" stroke:none;fill-rule:nonzero;fill:rgb(90.196079%,90.196079%,90.196079%);fill-opacity:1;" d="M 32.414062 30.871094 L 16.507812 30.871094 C 15.484375 30.867188 14.65625 29.742188 14.65625 28.351562 L 14.65625 16.582031 C 14.65625 15.191406 15.484375 14.0625 16.507812 14.0625 L 32.414062 14.0625 C 33.4375 14.0625 34.269531 15.191406 34.269531 16.582031 L 34.269531 28.351562 C 34.269531 29.742188 33.4375 30.867188 32.414062 30.871094 Z M 32.414062 30.871094 "/>
<path style=" stroke:none;fill-rule:nonzero;fill:rgb(100%,47.450981%,77.64706%);fill-opacity:1;" d="M 56.699219 30.871094 L 40.792969 30.871094 C 39.769531 30.867188 38.941406 29.742188 38.9375 28.351562 L 38.9375 16.582031 C 38.941406 15.191406 39.769531 14.0625 40.792969 14.0625 L 56.699219 14.0625 C 57.722656 14.0625 58.550781 15.191406 58.554688 16.582031 L 58.554688 28.351562 C 58.550781 29.742188 57.722656 30.867188 56.699219 30.871094 Z M 56.699219 30.871094 "/>
<path style=" stroke:none;fill-rule:nonzero;fill:rgb(90.196079%,90.196079%,90.196079%);fill-opacity:1;" d="M 80.984375 30.871094 L 65.078125 30.871094 C 64.054688 30.867188 63.222656 29.742188 63.222656 28.351562 L 63.222656 16.582031 C 63.222656 15.191406 64.054688 14.0625 65.078125 14.0625 L 80.984375 14.0625 C 82.007812 14.0625 82.835938 15.191406 82.835938 16.582031 L 82.835938 28.351562 C 82.835938 29.742188 82.007812 30.867188 80.984375 30.871094 Z M 80.984375 30.871094 "/>
<path style=" stroke:none;fill-rule:nonzero;fill:rgb(94.901961%,94.901961%,94.901961%);fill-opacity:1;" d="M 32.414062 57.097656 L 16.507812 57.097656 C 15.484375 57.09375 14.65625 55.96875 14.65625 54.578125 L 14.65625 42.808594 C 14.65625 41.417969 15.484375 40.289062 16.507812 40.289062 L 32.414062 40.289062 C 33.4375 40.289062 34.269531 41.417969 34.269531 42.808594 L 34.269531 54.578125 C 34.269531 55.96875 33.4375 57.09375 32.414062 57.097656 Z M 32.414062 57.097656 "/>
<path style=" stroke:none;fill-rule:nonzero;fill:rgb(90.196079%,90.196079%,90.196079%);fill-opacity:1;" d="M 56.699219 57.097656 L 40.792969 57.097656 C 39.769531 57.09375 38.941406 55.96875 38.9375 54.578125 L 38.9375 42.808594 C 38.941406 41.417969 39.769531 40.289062 40.792969 40.289062 L 56.699219 40.289062 C 57.722656 40.289062 58.550781 41.417969 58.554688 42.808594 L 58.554688 54.578125 C 58.550781 55.96875 57.722656 57.09375 56.699219 57.097656 Z M 56.699219 57.097656 "/>
<path style=" stroke:none;fill-rule:nonzero;fill:rgb(100%,47.450981%,77.64706%);fill-opacity:1;" d="M 60.664062 55.402344 C 60.664062 53.269531 59.390625 51.542969 57.820312 51.542969 C 56.253906 51.542969 54.980469 53.269531 54.980469 55.402344 C 54.980469 57.535156 56.253906 59.261719 57.820312 59.261719 C 59.390625 59.261719 60.664062 57.535156 60.664062 55.402344 Z M 60.664062 55.402344 "/>
<path style=" stroke:none;fill-rule:nonzero;fill:rgb(100%,100%,100%);fill-opacity:1;" d="M 59 55.078125 L 58.035156 55.078125 L 58.035156 53.765625 C 58.035156 53.597656 57.933594 53.457031 57.808594 53.457031 C 57.683594 53.457031 57.582031 53.597656 57.582031 53.765625 L 57.582031 55.078125 L 56.617188 55.078125 C 56.488281 55.078125 56.386719 55.21875 56.386719 55.386719 C 56.386719 55.558594 56.488281 55.695312 56.617188 55.695312 L 57.582031 55.695312 L 57.582031 57.007812 C 57.582031 57.179688 57.683594 57.316406 57.808594 57.316406 C 57.933594 57.316406 58.035156 57.179688 58.035156 57.007812 L 58.035156 55.695312 L 59 55.695312 C 59.128906 55.695312 59.230469 55.558594 59.230469 55.386719 C 59.230469 55.21875 59.128906 55.078125 59 55.078125 Z M 59 55.078125 "/>
<path style=" stroke:none;fill-rule:nonzero;fill:rgb(100%,47.450981%,77.64706%);fill-opacity:1;" d="M 85.320312 29.851562 C 85.320312 27.722656 84.046875 25.992188 82.480469 25.992188 C 80.910156 25.992188 79.640625 27.722656 79.640625 29.851562 C 79.640625 31.984375 80.910156 33.714844 82.480469 33.714844 C 84.046875 33.714844 85.320312 31.984375 85.320312 29.851562 Z M 85.320312 29.851562 "/>
<path style=" stroke:none;fill-rule:nonzero;fill:rgb(100%,100%,100%);fill-opacity:1;" d="M 83.660156 29.527344 L 82.695312 29.527344 L 82.695312 28.214844 C 82.695312 28.046875 82.589844 27.90625 82.464844 27.90625 C 82.339844 27.90625 82.238281 28.046875 82.238281 28.214844 L 82.238281 29.527344 L 81.273438 29.527344 C 81.148438 29.527344 81.046875 29.667969 81.046875 29.839844 C 81.046875 30.007812 81.148438 30.148438 81.273438 30.148438 L 82.238281 30.148438 L 82.238281 31.460938 C 82.238281 31.628906 82.339844 31.769531 82.464844 31.769531 C 82.589844 31.769531 82.695312 31.628906 82.695312 31.460938 L 82.695312 30.148438 L 83.660156 30.148438 C 83.785156 30.148438 83.886719 30.007812 83.886719 29.839844 C 83.886719 29.667969 83.785156 29.527344 83.660156 29.527344 Z M 83.660156 29.527344 "/>
<path style=" stroke:none;fill-rule:nonzero;fill:rgb(100%,47.450981%,77.64706%);fill-opacity:1;" d="M 36.378906 29.515625 C 36.378906 27.382812 35.105469 25.65625 33.539062 25.65625 C 31.96875 25.65625 30.699219 27.382812 30.699219 29.515625 C 30.699219 31.648438 31.96875 33.375 33.539062 33.375 C 35.105469 33.375 36.378906 31.648438 36.378906 29.515625 Z M 36.378906 29.515625 "/>
<path style=" stroke:none;fill-rule:nonzero;fill:rgb(100%,100%,100%);fill-opacity:1;" d="M 34.71875 29.191406 L 33.753906 29.191406 L 33.753906 27.878906 C 33.753906 27.707031 33.648438 27.570312 33.523438 27.570312 C 33.398438 27.570312 33.296875 27.707031 33.296875 27.878906 L 33.296875 29.191406 L 32.332031 29.191406 C 32.207031 29.191406 32.105469 29.328125 32.105469 29.5 C 32.105469 29.671875 32.207031 29.808594 32.332031 29.808594 L 33.296875 29.808594 L 33.296875 31.121094 C 33.296875 31.292969 33.398438 31.429688 33.523438 31.429688 C 33.648438 31.429688 33.753906 31.292969 33.753906 31.121094 L 33.753906 29.808594 L 34.71875 29.808594 C 34.84375 29.808594 34.945312 29.671875 34.945312 29.5 C 34.945312 29.328125 34.84375 29.191406 34.71875 29.191406 Z M 34.71875 29.191406 "/>
<path style=" stroke:none;fill-rule:nonzero;fill:rgb(61.960787%,38.039216%,41.568628%);fill-opacity:1;" d="M 54.808594 24.183594 C 54.914062 24.613281 54.871094 25.085938 54.695312 25.472656 C 54.519531 25.859375 54.226562 26.117188 53.894531 26.183594 L 52.582031 38.367188 L 50.425781 36.9375 L 52.59375 24.777344 C 52.550781 23.996094 52.941406 23.296875 53.507812 23.144531 C 54.070312 22.992188 54.628906 23.4375 54.808594 24.183594 Z M 54.808594 24.183594 "/>
<path style=" stroke:none;fill-rule:nonzero;fill:rgb(61.960787%,38.039216%,41.568628%);fill-opacity:1;" d="M 39.117188 63.203125 C 39.3125 62.832031 39.375 62.363281 39.292969 61.925781 C 39.207031 61.484375 38.984375 61.117188 38.683594 60.921875 L 39.570312 47.964844 L 37.714844 49.257812 L 37.132812 61.746094 C 36.921875 62.472656 37.144531 63.300781 37.648438 63.671875 C 38.15625 64.042969 38.785156 63.839844 39.117188 63.203125 Z M 39.117188 63.203125 "/>
<path style=" stroke:none;fill-rule:nonzero;fill:rgb(61.960787%,38.039216%,41.568628%);fill-opacity:1;" d="M 40.386719 56.648438 L 48.351562 56.230469 L 48.8125 44.992188 L 39.621094 44.992188 Z M 40.386719 56.648438 "/>
<path style=" stroke:none;fill-rule:nonzero;fill:rgb(61.960787%,38.039216%,41.568628%);fill-opacity:1;" d="M 38.90625 96.335938 L 40.269531 96.335938 L 40.917969 89.203125 L 38.90625 89.203125 Z M 38.90625 96.335938 "/>
<path style=" stroke:none;fill-rule:nonzero;fill:rgb(18.431373%,18.039216%,25.490198%);fill-opacity:1;" d="M 38.570312 95.425781 L 40.722656 95.25 L 40.722656 96.503906 L 42.765625 98.421875 C 42.972656 98.617188 43.066406 98.972656 42.988281 99.300781 C 42.914062 99.625 42.691406 99.847656 42.441406 99.847656 L 39.878906 99.847656 L 39.4375 98.609375 L 39.265625 99.847656 L 38.296875 99.847656 Z M 38.570312 95.425781 "/>
<path style=" stroke:none;fill-rule:nonzero;fill:rgb(61.960787%,38.039216%,41.568628%);fill-opacity:1;" d="M 44.960938 96.335938 L 46.324219 96.335938 L 46.96875 89.203125 L 44.960938 89.203125 Z M 44.960938 96.335938 "/>
<path style=" stroke:none;fill-rule:nonzero;fill:rgb(18.431373%,18.039216%,25.490198%);fill-opacity:1;" d="M 40.273438 54.007812 C 40.273438 54.007812 37.890625 56.621094 39.183594 65.960938 C 38.988281 65.992188 39.210938 66.519531 39.210938 66.519531 L 39.394531 74.125 L 39.539062 74.996094 L 39.0625 76.40625 L 39.257812 77.933594 L 38.648438 91.804688 L 40.898438 92.203125 L 43.050781 77.792969 L 43.460938 76.175781 L 43.871094 74.753906 L 43.648438 73.242188 L 43.832031 70.890625 L 45.074219 62.96875 L 45.375 76.710938 L 44.953125 78.023438 L 45.1875 79.460938 L 44.664062 80.226562 L 44.457031 93.085938 L 46.851562 93.238281 L 48.835938 80.277344 L 48.683594 78.621094 L 48.945312 77.398438 L 48.945312 74.542969 L 49.398438 73.195312 L 50.382812 65.84375 C 50.382812 65.84375 50.683594 60.097656 48.511719 53.335938 Z M 40.273438 54.007812 "/>
<path style=" stroke:none;fill-rule:nonzero;fill:rgb(24.705882%,23.921569%,33.725491%);fill-opacity:1;" d="M 41.246094 35.652344 C 41.246094 35.652344 38.238281 36.460938 37.71875 39.949219 C 37.199219 43.4375 36.867188 51.328125 36.867188 51.328125 L 36.980469 52.429688 L 39.890625 53.347656 L 41.75 42.285156 Z M 41.246094 35.652344 "/>
<path style=" stroke:none;fill-rule:nonzero;fill:rgb(24.705882%,23.921569%,33.725491%);fill-opacity:1;" d="M 48.117188 36.828125 C 48.117188 36.828125 48.421875 36.246094 50.128906 36.160156 C 50.199219 36.15625 50.113281 35.964844 50.113281 35.964844 L 50.933594 30.507812 L 53.671875 32.566406 L 53.210938 38.289062 L 48.710938 45.242188 Z M 48.117188 36.828125 "/>
<path style=" stroke:none;fill-rule:nonzero;fill:rgb(24.705882%,23.921569%,33.725491%);fill-opacity:1;" d="M 46.410156 53.097656 C 45.121094 53.097656 43.179688 52.90625 40.257812 52.316406 C 39.871094 52.238281 39.566406 51.824219 39.507812 51.300781 C 39.3125 51.019531 39.269531 50.605469 39.394531 50.257812 L 39.398438 50.25 L 39.332031 50.144531 C 39.121094 49.808594 39.101562 49.324219 39.285156 48.957031 L 38.378906 40.164062 C 38.1875 38.359375 38.992188 36.636719 40.273438 36.101562 L 40.609375 35.957031 L 41.871094 33.714844 L 41.898438 33.714844 L 45.953125 33.789062 L 47.269531 36.058594 L 49.394531 36.738281 L 49.402344 36.785156 L 49.894531 40.660156 C 50.152344 42.675781 49.5625 43.46875 48.808594 45.242188 L 49.03125 50.222656 L 49.132812 50.472656 C 49.246094 50.753906 49.195312 51.105469 49.011719 51.3125 C 49.082031 51.574219 49.085938 51.855469 49.027344 52.121094 L 48.972656 52.351562 C 48.972656 52.359375 48.960938 52.453125 48.847656 52.570312 C 48.644531 52.78125 48.0625 53.097656 46.410156 53.097656 Z M 46.410156 53.097656 "/>
<path style=" stroke:none;fill-rule:nonzero;fill:rgb(18.431373%,18.039216%,25.490198%);fill-opacity:1;" d="M 44.625 95.425781 L 46.777344 95.25 L 46.777344 96.503906 L 48.820312 98.421875 C 49.027344 98.617188 49.117188 98.972656 49.042969 99.300781 C 48.96875 99.625 48.746094 99.847656 48.492188 99.847656 L 45.933594 99.847656 L 45.492188 98.609375 L 45.320312 99.847656 L 44.351562 99.847656 Z M 44.625 95.425781 "/>
<path style=" stroke:none;fill-rule:nonzero;fill:rgb(61.960787%,38.039216%,41.568628%);fill-opacity:1;" d="M 44.253906 23.867188 C 42.523438 23.484375 40.890625 25.082031 40.609375 27.4375 C 40.328125 29.792969 41.503906 32.011719 43.238281 32.394531 C 44.96875 32.777344 46.601562 31.175781 46.882812 28.820312 C 47.164062 26.46875 45.988281 24.25 44.253906 23.867188 Z M 44.253906 23.867188 "/>
<path style=" stroke:none;fill-rule:nonzero;fill:rgb(18.431373%,18.039216%,25.490198%);fill-opacity:1;" d="M 45.605469 23.910156 C 44.441406 22.820312 43.414062 22.65625 42.570312 22.964844 C 42.460938 22.734375 42.308594 22.550781 42.128906 22.429688 C 41.46875 20.179688 39.46875 18.828125 37.753906 19.484375 C 36.023438 20.144531 34.832031 22.746094 35.160156 25.144531 C 35.359375 26.632812 36.046875 27.917969 36.324219 29.382812 C 36.863281 32.21875 35.554688 35.464844 33.507812 36.378906 C 35.445312 36.90625 37.578125 35.296875 38.273438 32.785156 C 38.609375 31.5625 38.628906 30.230469 38.671875 28.929688 C 38.683594 28.03125 38.765625 27.132812 38.914062 26.257812 C 38.988281 25.863281 39.09375 25.484375 39.226562 25.121094 C 39.519531 24.324219 40.003906 23.6875 40.597656 23.3125 C 40.492188 23.769531 40.550781 24.265625 40.757812 24.652344 C 40.304688 25.425781 40.054688 26.261719 40.054688 26.761719 C 39.113281 29.105469 40.460938 31.117188 42.1875 32.402344 C 42.875 32.914062 43.671875 33.105469 44.445312 32.9375 L 44.519531 32.519531 L 44.617188 32.894531 L 44.941406 34.160156 C 45.320312 34.40625 45.691406 34.679688 46.0625 34.972656 C 45.921875 34.074219 45.808594 33.179688 45.730469 32.304688 C 45.621094 31.113281 46 29.339844 46.269531 28.261719 C 46.441406 27.597656 46.527344 26.898438 46.527344 26.195312 L 46.527344 26.164062 L 46.792969 27.320312 L 47.757812 26.761719 C 47.578125 25.363281 47.757812 23.773438 45.605469 23.910156 Z M 45.605469 23.910156 "/>
<path style=" stroke:none;fill-rule:nonzero;fill:rgb(80.000001%,80.000001%,80.000001%);fill-opacity:1;" d="M 85.328125 100.0625 L 14.679688 100.0625 C 14.597656 100.0625 14.53125 99.972656 14.53125 99.863281 C 14.53125 99.75 14.597656 99.660156 14.679688 99.660156 L 85.328125 99.660156 C 85.410156 99.660156 85.472656 99.75 85.472656 99.863281 C 85.472656 99.972656 85.410156 100.0625 85.328125 100.0625 Z M 85.328125 100.0625 "/>
<path style=" stroke:none;fill-rule:nonzero;fill:rgb(90.196079%,90.196079%,90.196079%);fill-opacity:1;" d="M 36.054688 55.910156 C 36.054688 53.777344 34.78125 52.050781 33.214844 52.050781 C 31.644531 52.050781 30.371094 53.777344 30.371094 55.910156 C 30.371094 58.042969 31.644531 59.769531 33.214844 59.769531 C 34.78125 59.769531 36.054688 58.042969 36.054688 55.910156 Z M 36.054688 55.910156 "/>
<path style=" stroke:none;fill-rule:nonzero;fill:rgb(94.901961%,94.901961%,94.901961%);fill-opacity:1;" d="M 75.957031 53.691406 L 65.992188 53.691406 C 65.351562 53.691406 64.832031 52.984375 64.832031 52.113281 L 64.832031 44.742188 C 64.832031 43.871094 65.351562 43.164062 65.992188 43.164062 L 75.957031 43.164062 C 76.597656 43.164062 77.117188 43.871094 77.117188 44.742188 L 77.117188 52.113281 C 77.117188 52.984375 76.597656 53.691406 75.957031 53.691406 Z M 75.957031 53.691406 "/>
<path style=" stroke:none;fill-rule:nonzero;fill:rgb(100%,47.450981%,77.64706%);fill-opacity:1;" d="M 77.613281 48.648438 C 77.613281 47.515625 76.9375 46.597656 76.105469 46.597656 C 75.269531 46.597656 74.59375 47.515625 74.59375 48.648438 C 74.59375 49.777344 75.269531 50.695312 76.105469 50.695312 C 76.9375 50.695312 77.613281 49.777344 77.613281 48.648438 Z M 77.613281 48.648438 "/>
<path style=" stroke:none;fill-rule:nonzero;fill:rgb(100%,100%,100%);fill-opacity:1;" d="M 76.730469 48.476562 L 76.21875 48.476562 L 76.21875 47.777344 C 76.21875 47.6875 76.164062 47.613281 76.097656 47.613281 C 76.03125 47.613281 75.976562 47.6875 75.976562 47.777344 L 75.976562 48.476562 L 75.464844 48.476562 C 75.398438 48.476562 75.34375 48.546875 75.34375 48.640625 C 75.34375 48.730469 75.398438 48.804688 75.464844 48.804688 L 75.976562 48.804688 L 75.976562 49.5 C 75.976562 49.589844 76.03125 49.664062 76.097656 49.664062 C 76.164062 49.664062 76.21875 49.589844 76.21875 49.5 L 76.21875 48.804688 L 76.730469 48.804688 C 76.796875 48.804688 76.851562 48.730469 76.851562 48.640625 C 76.851562 48.546875 76.796875 48.476562 76.730469 48.476562 Z M 76.730469 48.476562 "/>
<path style=" stroke:none;fill-rule:nonzero;fill:rgb(100%,47.450981%,77.64706%);fill-opacity:1;" d="M 80.015625 51.597656 L 71.804688 51.597656 C 71.078125 51.597656 70.492188 50.800781 70.492188 49.8125 L 70.492188 43.152344 C 70.492188 42.972656 70.601562 42.824219 70.734375 42.824219 C 70.867188 42.824219 70.976562 42.972656 70.976562 43.152344 L 70.976562 44.9375 L 80.511719 46.117188 C 80.910156 46.125 81.226562 46.5625 81.226562 47.101562 C 81.226562 47.121094 81.226562 47.144531 81.222656 47.164062 L 80.742188 50.644531 C 80.730469 51.175781 80.410156 51.597656 80.015625 51.597656 Z M 70.976562 45.597656 L 70.976562 49.8125 C 70.976562 50.4375 71.347656 50.941406 71.804688 50.941406 L 80.015625 50.941406 C 80.152344 50.941406 80.257812 50.792969 80.257812 50.613281 C 80.257812 50.59375 80.261719 50.570312 80.261719 50.550781 L 80.742188 47.078125 C 80.734375 46.90625 80.628906 46.773438 80.5 46.773438 C 80.492188 46.773438 80.488281 46.773438 80.480469 46.773438 Z M 70.976562 45.597656 "/>
<path style=" stroke:none;fill-rule:nonzero;fill:rgb(100%,47.450981%,77.64706%);fill-opacity:1;" d="M 70.027344 54.121094 C 70.027344 53.820312 69.847656 53.574219 69.625 53.574219 C 69.402344 53.574219 69.21875 53.820312 69.21875 54.121094 C 69.21875 54.425781 69.402344 54.671875 69.625 54.671875 C 69.847656 54.671875 70.027344 54.425781 70.027344 54.121094 Z M 70.027344 54.121094 "/>
<path style=" stroke:none;fill-rule:nonzero;fill:rgb(100%,47.450981%,77.64706%);fill-opacity:1;" d="M 80.097656 54.121094 C 80.097656 53.820312 79.917969 53.574219 79.695312 53.574219 C 79.472656 53.574219 79.289062 53.820312 79.289062 54.121094 C 79.289062 54.425781 79.472656 54.671875 79.695312 54.671875 C 79.917969 54.671875 80.097656 54.425781 80.097656 54.121094 Z M 80.097656 54.121094 "/>
<path style=" stroke:none;fill-rule:nonzero;fill:rgb(100%,47.450981%,77.64706%);fill-opacity:1;" d="M 80.097656 53.574219 L 69.300781 53.574219 C 69.167969 53.574219 69.058594 53.425781 69.058594 53.246094 C 69.058594 53.0625 69.167969 52.914062 69.300781 52.914062 L 80.097656 52.914062 C 80.230469 52.914062 80.339844 53.0625 80.339844 53.246094 C 80.339844 53.425781 80.230469 53.574219 80.097656 53.574219 Z M 80.097656 53.574219 "/>
<path style=" stroke:none;fill-rule:nonzero;fill:rgb(100%,47.450981%,77.64706%);fill-opacity:1;" d="M 71.378906 43.371094 L 69.28125 43.371094 C 69.148438 43.371094 69.039062 43.226562 69.039062 43.042969 C 69.039062 42.863281 69.148438 42.714844 69.28125 42.714844 L 71.378906 42.714844 C 71.511719 42.714844 71.621094 42.863281 71.621094 43.042969 C 71.621094 43.226562 71.511719 43.371094 71.378906 43.371094 Z M 71.378906 43.371094 "/>
<path style=" stroke:none;fill-rule:nonzero;fill:rgb(100%,47.450981%,77.64706%);fill-opacity:1;" d="M 73.0625 53.40625 C 73.003906 53.40625 72.949219 53.378906 72.90625 53.328125 L 71.3125 51.46875 C 71.246094 51.390625 71.214844 51.273438 71.234375 51.15625 C 71.25 51.042969 71.308594 50.945312 71.390625 50.90625 C 71.472656 50.867188 71.5625 50.890625 71.628906 50.96875 L 73.222656 52.828125 C 73.296875 52.917969 73.324219 53.0625 73.289062 53.191406 C 73.253906 53.320312 73.164062 53.40625 73.0625 53.40625 Z M 73.0625 53.40625 "/>
<path style=" stroke:none;fill-rule:nonzero;fill:rgb(100%,47.450981%,77.64706%);fill-opacity:1;" d="M 73.398438 51.398438 C 73.265625 51.398438 73.15625 51.25 73.15625 51.070312 L 73.15625 45.785156 C 73.15625 45.605469 73.265625 45.457031 73.398438 45.457031 C 73.53125 45.457031 73.640625 45.605469 73.640625 45.785156 L 73.640625 51.066406 C 73.640625 51.25 73.53125 51.398438 73.398438 51.398438 Z M 73.398438 51.398438 "/>
<path style=" stroke:none;fill-rule:nonzero;fill:rgb(100%,47.450981%,77.64706%);fill-opacity:1;" d="M 78.515625 51.398438 C 78.378906 51.398438 78.273438 51.25 78.273438 51.070312 L 78.273438 46.226562 C 78.273438 46.042969 78.378906 45.898438 78.515625 45.898438 C 78.648438 45.898438 78.757812 46.042969 78.757812 46.226562 L 78.757812 51.066406 C 78.757812 51.25 78.648438 51.398438 78.515625 51.398438 Z M 78.515625 51.398438 "/>
</g>
</svg>
