<?xml version="1.0" encoding="UTF-8"?>
<svg xmlns="http://www.w3.org/2000/svg" xmlns:xlink="http://www.w3.org/1999/xlink" width="100px" height="100px" viewBox="0 0 100 100" version="1.1">
<defs>
<filter id="alpha" filterUnits="objectBoundingBox" x="0%" y="0%" width="100%" height="100%">
  <feColorMatrix type="matrix" in="SourceGraphic" values="0 0 0 0 1 0 0 0 0 1 0 0 0 0 1 0 0 0 1 0"/>
</filter>
<mask id="mask0">
  <g filter="url(#alpha)">
<rect x="0" y="0" width="100" height="100" style="fill:rgb(0%,0%,0%);fill-opacity:0.2;stroke:none;"/>
  </g>
</mask>
<clipPath id="clip1">
  <rect x="0" y="0" width="100" height="100"/>
</clipPath>
<g id="surface5" clip-path="url(#clip1)">
<path style=" stroke:none;fill-rule:nonzero;fill:rgb(0%,0%,0%);fill-opacity:1;" d="M 30.988281 54.898438 C 31.054688 54.492188 31.09375 54.0625 31.101562 53.625 L 42.738281 36.679688 L 32.738281 28.871094 L 28.328125 47.664062 C 28.027344 47.539062 27.714844 47.464844 27.386719 47.464844 C 27.214844 47.464844 27.046875 47.492188 26.878906 47.527344 L 22.503906 28.871094 L 12.5 36.679688 L 23.679688 52.960938 C 23.671875 53.109375 23.664062 53.261719 23.664062 53.417969 C 23.664062 53.929688 23.710938 54.425781 23.785156 54.898438 C 16.933594 58.324219 14.128906 68.664062 14.128906 68.664062 L 22.734375 79.824219 C 22.222656 71.617188 25.355469 63.214844 27.050781 59.339844 C 27.160156 59.355469 27.273438 59.367188 27.386719 59.367188 C 27.5 59.367188 27.613281 59.355469 27.722656 59.339844 C 29.417969 63.214844 32.550781 71.617188 32.039062 79.824219 L 40.644531 68.664062 C 40.644531 68.664062 37.839844 58.324219 30.988281 54.898438 Z M 30.988281 54.898438 "/>
</g>
<mask id="mask1">
  <g filter="url(#alpha)">
<rect x="0" y="0" width="100" height="100" style="fill:rgb(0%,0%,0%);fill-opacity:0.2;stroke:none;"/>
  </g>
</mask>
<clipPath id="clip2">
  <rect x="0" y="0" width="100" height="100"/>
</clipPath>
<g id="surface8" clip-path="url(#clip2)">
<path style=" stroke:none;fill-rule:nonzero;fill:rgb(0%,0%,0%);fill-opacity:1;" d="M 76.640625 89.34375 C 76.78125 89.402344 76.929688 89.4375 77.078125 89.445312 L 82.925781 99.707031 L 85.621094 90.886719 L 79.136719 87 C 79.179688 86.734375 79.203125 86.457031 79.203125 86.167969 C 79.203125 86.015625 79.195312 85.867188 79.183594 85.71875 L 85.621094 81.859375 L 82.925781 73.039062 L 77.308594 82.898438 C 77.257812 82.890625 77.207031 82.886719 77.152344 82.886719 C 76.976562 82.886719 76.804688 82.925781 76.640625 82.992188 C 75.457031 76.949219 71.890625 74.472656 71.890625 74.472656 L 68.042969 82.066406 C 70.875 81.613281 73.773438 84.375 75.109375 85.871094 C 75.101562 85.96875 75.097656 86.066406 75.097656 86.167969 C 75.097656 86.269531 75.101562 86.367188 75.109375 86.464844 C 73.773438 87.960938 70.875 90.722656 68.042969 90.269531 L 71.890625 97.863281 C 71.890625 97.863281 75.457031 95.386719 76.640625 89.34375 Z M 76.640625 89.34375 "/>
</g>
<mask id="mask2">
  <g filter="url(#alpha)">
<rect x="0" y="0" width="100" height="100" style="fill:rgb(0%,0%,0%);fill-opacity:0.101961;stroke:none;"/>
  </g>
</mask>
<clipPath id="clip3">
  <rect x="0" y="0" width="100" height="100"/>
</clipPath>
<g id="surface11" clip-path="url(#clip3)">
<path style=" stroke:none;fill-rule:nonzero;fill:rgb(0%,0%,0%);fill-opacity:1;" d="M 54.890625 35.402344 L 55.699219 41.210938 L 50.964844 39.957031 L 52.894531 34.460938 Z M 54.890625 35.402344 "/>
</g>
</defs>
<g id="surface1">
<path style=" stroke:none;fill-rule:nonzero;fill:rgb(24.705882%,23.921569%,33.725491%);fill-opacity:1;" d="M 0 99.558594 C 0 99.714844 0.078125 99.835938 0.171875 99.835938 L 99.777344 99.835938 C 99.875 99.835938 99.953125 99.714844 99.953125 99.558594 C 99.953125 99.40625 99.875 99.28125 99.777344 99.28125 L 0.171875 99.28125 C 0.078125 99.28125 0 99.40625 0 99.558594 Z M 0 99.558594 "/>
<path style=" stroke:none;fill-rule:nonzero;fill:rgb(24.705882%,23.921569%,33.725491%);fill-opacity:1;" d="M 41.324219 99.765625 L 10.191406 99.765625 C 8.949219 99.765625 7.9375 98.148438 7.9375 96.160156 L 7.9375 3.605469 C 7.9375 1.617188 8.949219 0 10.191406 0 L 41.324219 0 C 42.570312 0 43.582031 1.617188 43.582031 3.605469 L 43.582031 96.160156 C 43.582031 98.148438 42.570312 99.765625 41.324219 99.765625 Z M 10.191406 0.464844 C 9.109375 0.464844 8.230469 1.875 8.230469 3.605469 L 8.230469 96.160156 C 8.230469 97.890625 9.109375 99.300781 10.191406 99.300781 L 41.324219 99.300781 C 42.410156 99.300781 43.289062 97.890625 43.289062 96.160156 L 43.289062 3.605469 C 43.289062 1.875 42.410156 0.464844 41.324219 0.464844 Z M 10.191406 0.464844 "/>
<path style=" stroke:none;fill-rule:nonzero;fill:rgb(94.901961%,94.901961%,94.901961%);fill-opacity:1;" d="M 97.164062 47.066406 C 97.039062 46.734375 96.507812 47.089844 96.410156 46.785156 C 96.3125 46.488281 96.804688 46.03125 97.089844 44.984375 C 97.140625 44.796875 97.460938 43.609375 97.222656 43.242188 C 96.773438 42.550781 94.710938 45.414062 93.988281 44.476562 C 93.828125 44.269531 93.71875 43.859375 93.238281 43.191406 C 93.050781 42.929688 92.933594 42.808594 92.824219 42.851562 C 92.664062 42.914062 92.652344 43.253906 92.480469 43.921875 C 92.226562 44.921875 92.078125 44.859375 91.929688 45.65625 C 91.816406 46.25 91.84375 46.59375 91.714844 46.660156 C 91.53125 46.753906 91.359375 46.128906 91.128906 46.183594 C 90.890625 46.242188 90.746094 46.972656 90.703125 47.519531 C 90.617188 48.546875 90.855469 49.222656 90.984375 49.9375 C 91.125 50.710938 91.210938 51.890625 90.882812 53.554688 L 87.636719 68.1875 C 88.351562 65.183594 90.429688 56.957031 91.300781 53.898438 C 91.550781 53.015625 91.828125 52.117188 92.402344 51.765625 C 92.949219 51.425781 93.707031 51.628906 94.667969 51.257812 C 94.78125 51.214844 95.09375 51.085938 95.132812 50.792969 C 95.164062 50.550781 94.980469 50.414062 95.007812 50.1875 C 95.046875 49.882812 95.40625 49.878906 95.851562 49.527344 C 96.164062 49.28125 96.359375 48.984375 96.523438 48.734375 C 96.574219 48.65625 97.328125 47.507812 97.164062 47.066406 Z M 97.164062 47.066406 "/>
<path style=" stroke:none;fill-rule:nonzero;fill:rgb(94.901961%,94.901961%,94.901961%);fill-opacity:1;" d="M 84.386719 54.765625 C 84.25 54.769531 84.203125 55.289062 84.082031 55.277344 C 83.964844 55.269531 83.964844 54.746094 83.726562 54.222656 C 83.683594 54.128906 83.410156 53.535156 83.230469 53.617188 C 82.886719 53.769531 83.171875 56.214844 82.675781 56.511719 C 82.566406 56.574219 82.410156 56.542969 82.066406 56.726562 C 81.929688 56.800781 81.859375 56.855469 81.839844 56.957031 C 81.816406 57.101562 81.914062 57.207031 82.070312 57.535156 C 82.304688 58.023438 82.242188 58.121094 82.445312 58.46875 C 82.59375 58.726562 82.707031 58.804688 82.691406 58.925781 C 82.667969 59.097656 82.425781 59.050781 82.375 59.25 C 82.324219 59.449219 82.507812 59.773438 82.660156 59.96875 C 82.953125 60.332031 83.230469 60.339844 83.484375 60.445312 C 83.765625 60.554688 84.148438 60.828125 84.566406 61.570312 L 88.121094 68.339844 C 87.40625 66.910156 85.480469 62.90625 84.792969 61.339844 C 84.59375 60.886719 84.398438 60.410156 84.457031 59.859375 C 84.507812 59.332031 84.789062 58.796875 84.953125 57.933594 C 84.972656 57.832031 85.023438 57.550781 84.945312 57.4375 C 84.878906 57.339844 84.785156 57.445312 84.722656 57.359375 C 84.640625 57.242188 84.742188 56.957031 84.765625 56.507812 C 84.777344 56.191406 84.742188 55.953125 84.714844 55.75 C 84.707031 55.6875 84.570312 54.765625 84.386719 54.765625 Z M 84.386719 54.765625 "/>
<path style=" stroke:none;fill-rule:nonzero;fill:rgb(94.901961%,94.901961%,94.901961%);fill-opacity:1;" d="M 87.125 55.75 L 87.042969 54.570312 L 87.082031 54.480469 C 87.257812 54.066406 87.347656 53.660156 87.347656 53.277344 C 87.347656 53.214844 87.34375 53.15625 87.34375 53.09375 C 87.335938 52.847656 87.328125 52.539062 87.425781 52.183594 C 87.484375 51.984375 87.640625 51.523438 87.878906 51.578125 C 87.941406 51.59375 87.988281 51.640625 88.027344 51.695312 C 88.03125 51.683594 88.035156 51.667969 88.042969 51.652344 C 88.117188 51.472656 88.175781 51.398438 88.230469 51.324219 C 88.273438 51.265625 88.316406 51.207031 88.386719 51.066406 C 88.417969 51.007812 88.441406 50.953125 88.464844 50.90625 C 88.523438 50.773438 88.605469 50.609375 88.746094 50.613281 C 88.894531 50.625 88.972656 50.824219 89.027344 50.953125 C 89.121094 51.1875 89.164062 51.359375 89.191406 51.472656 C 89.199219 51.511719 89.210938 51.558594 89.21875 51.574219 C 89.265625 51.6875 89.660156 51.578125 89.808594 51.542969 C 90.144531 51.453125 90.433594 51.375 90.550781 51.710938 C 90.636719 51.953125 90.574219 52.269531 90.355469 52.683594 C 90.289062 52.8125 90.21875 52.910156 90.15625 52.984375 C 90.207031 53.035156 90.253906 53.113281 90.273438 53.234375 C 90.316406 53.519531 90.164062 53.808594 89.816406 54.085938 C 89.730469 54.15625 89.613281 54.25 89.449219 54.296875 C 89.371094 54.316406 89.304688 54.324219 89.246094 54.324219 C 89.242188 54.378906 89.234375 54.441406 89.214844 54.5 C 89.152344 54.679688 89.027344 54.765625 88.832031 54.746094 C 88.621094 54.726562 88.449219 54.664062 88.296875 54.605469 C 88.160156 54.558594 88.046875 54.515625 87.957031 54.527344 C 87.789062 54.546875 87.65625 54.761719 87.507812 55.042969 Z M 87.125 55.75 "/>
<path style=" stroke:none;fill-rule:nonzero;fill:rgb(94.901961%,94.901961%,94.901961%);fill-opacity:1;" d="M 87.511719 48.714844 L 86.816406 49.144531 L 86.753906 49.109375 C 86.457031 48.941406 86.191406 48.90625 85.957031 49.003906 C 85.921875 49.019531 85.886719 49.035156 85.847656 49.054688 C 85.699219 49.128906 85.515625 49.21875 85.277344 49.15625 C 85.140625 49.121094 84.824219 48.992188 84.796875 48.613281 C 84.789062 48.511719 84.804688 48.425781 84.828125 48.355469 C 84.820312 48.351562 84.808594 48.34375 84.800781 48.339844 C 84.671875 48.269531 84.609375 48.199219 84.550781 48.132812 C 84.507812 48.078125 84.460938 48.027344 84.359375 47.953125 C 84.3125 47.921875 84.273438 47.898438 84.242188 47.878906 C 84.144531 47.816406 84.027344 47.734375 83.992188 47.515625 C 83.960938 47.28125 84.0625 47.109375 84.128906 46.996094 C 84.246094 46.789062 84.335938 46.683594 84.398438 46.609375 C 84.421875 46.585938 84.445312 46.554688 84.453125 46.542969 C 84.507812 46.4375 84.34375 45.855469 84.285156 45.632812 C 84.144531 45.140625 84.027344 44.714844 84.199219 44.445312 C 84.324219 44.25 84.53125 44.269531 84.835938 44.496094 C 84.929688 44.570312 85.007812 44.65625 85.070312 44.734375 C 85.085938 44.640625 85.121094 44.546875 85.191406 44.488281 C 85.351562 44.34375 85.5625 44.511719 85.824219 44.976562 C 85.886719 45.09375 85.972656 45.25 86.042969 45.492188 C 86.074219 45.605469 86.09375 45.710938 86.109375 45.800781 C 86.144531 45.789062 86.183594 45.789062 86.226562 45.804688 C 86.347656 45.851562 86.433594 46.027344 86.46875 46.332031 C 86.511719 46.660156 86.515625 46.945312 86.523438 47.199219 C 86.527344 47.417969 86.53125 47.605469 86.558594 47.746094 C 86.613281 48 86.777344 48.144531 86.984375 48.308594 Z M 87.511719 48.714844 "/>
<path style=" stroke:none;fill-rule:nonzero;fill:rgb(94.901961%,94.901961%,94.901961%);fill-opacity:1;" d="M 87.125 45.234375 L 87.042969 44.054688 L 87.082031 43.964844 C 87.257812 43.550781 87.347656 43.148438 87.347656 42.761719 C 87.347656 42.703125 87.34375 42.640625 87.34375 42.578125 C 87.335938 42.332031 87.328125 42.027344 87.425781 41.667969 C 87.484375 41.46875 87.640625 41.007812 87.878906 41.066406 C 87.941406 41.078125 87.988281 41.125 88.027344 41.179688 C 88.03125 41.167969 88.035156 41.152344 88.042969 41.140625 C 88.117188 40.960938 88.175781 40.882812 88.230469 40.808594 C 88.273438 40.75 88.316406 40.691406 88.386719 40.554688 C 88.417969 40.492188 88.441406 40.4375 88.464844 40.394531 C 88.523438 40.257812 88.605469 40.09375 88.746094 40.097656 C 88.894531 40.109375 88.972656 40.308594 89.027344 40.441406 C 89.121094 40.675781 89.164062 40.84375 89.191406 40.957031 C 89.199219 40.996094 89.210938 41.042969 89.21875 41.058594 C 89.265625 41.171875 89.660156 41.066406 89.808594 41.027344 C 90.144531 40.9375 90.433594 40.859375 90.550781 41.199219 C 90.636719 41.4375 90.574219 41.757812 90.355469 42.167969 C 90.289062 42.296875 90.21875 42.394531 90.15625 42.472656 C 90.207031 42.519531 90.253906 42.597656 90.273438 42.71875 C 90.316406 43.003906 90.164062 43.292969 89.816406 43.574219 C 89.730469 43.644531 89.613281 43.738281 89.449219 43.78125 C 89.371094 43.804688 89.304688 43.808594 89.246094 43.8125 C 89.242188 43.867188 89.234375 43.925781 89.214844 43.984375 C 89.152344 44.164062 89.027344 44.25 88.832031 44.230469 C 88.621094 44.214844 88.449219 44.148438 88.296875 44.09375 C 88.160156 44.042969 88.046875 44 87.957031 44.011719 C 87.789062 44.03125 87.65625 44.246094 87.507812 44.527344 Z M 87.125 45.234375 "/>
<path style=" stroke:none;fill-rule:nonzero;fill:rgb(94.901961%,94.901961%,94.901961%);fill-opacity:1;" d="M 87.882812 68.167969 L 87.726562 68.011719 L 87.691406 67.726562 L 87.726562 68.011719 L 87.546875 68.046875 C 87.542969 68.019531 87.535156 67.957031 87.519531 67.859375 C 87.4375 67.332031 87.191406 65.726562 86.988281 63.195312 C 86.84375 61.425781 86.761719 59.609375 86.746094 57.792969 C 86.730469 55.972656 86.78125 54.59375 86.824219 53.488281 C 86.859375 52.652344 86.898438 51.859375 86.9375 51.082031 C 87.039062 49.011719 87.136719 47.058594 87.066406 44.894531 C 87.050781 44.410156 87.015625 43.40625 86.648438 42.335938 C 86.433594 41.714844 86.140625 41.164062 85.777344 40.699219 L 86.003906 40.242188 C 86.40625 40.753906 86.730469 41.367188 86.96875 42.054688 C 87.375 43.242188 87.414062 44.335938 87.429688 44.863281 C 87.503906 47.066406 87.40625 49.039062 87.300781 51.128906 C 87.261719 51.902344 87.222656 52.691406 87.191406 53.523438 C 87.148438 54.621094 87.09375 55.988281 87.109375 57.785156 C 87.128906 59.578125 87.207031 61.375 87.347656 63.117188 C 87.550781 65.617188 87.796875 67.203125 87.875 67.722656 C 87.917969 68 87.925781 68.058594 87.882812 68.167969 Z M 87.882812 68.167969 "/>
<path style=" stroke:none;fill-rule:nonzero;fill:rgb(94.901961%,94.901961%,94.901961%);fill-opacity:1;" d="M 85.105469 41.625 C 85.089844 41.625 85.074219 41.625 85.058594 41.625 C 84.75 41.597656 84.460938 41.300781 84.203125 40.738281 C 84.082031 40.476562 84.023438 40.175781 83.898438 39.574219 C 83.878906 39.484375 83.785156 39.015625 83.730469 38.367188 C 83.695312 37.949219 83.699219 37.769531 83.75 37.617188 C 83.808594 37.441406 83.902344 37.320312 84.007812 37.238281 C 84.003906 37.183594 84.007812 37.125 84.023438 37.066406 C 84.085938 36.824219 84.25 36.855469 84.339844 36.871094 C 84.382812 36.878906 84.441406 36.890625 84.503906 36.886719 C 84.597656 36.878906 84.648438 36.832031 84.726562 36.765625 C 84.800781 36.699219 84.894531 36.617188 85.035156 36.574219 C 85.304688 36.484375 85.53125 36.605469 85.609375 36.644531 C 86.003906 36.855469 86.199219 37.347656 86.421875 37.917969 C 86.46875 38.03125 86.621094 38.445312 86.722656 39.015625 C 86.796875 39.425781 86.789062 39.609375 86.765625 39.746094 C 86.71875 40.023438 86.613281 40.183594 86.34375 40.535156 C 86.0625 40.90625 85.921875 41.089844 85.800781 41.203125 C 85.519531 41.460938 85.339844 41.625 85.105469 41.625 Z M 85.105469 41.625 "/>
<path style=" stroke:none;fill-rule:nonzero;fill:rgb(100%,47.450981%,77.64706%);fill-opacity:1;" d="M 7.851562 41.144531 L 43.667969 41.144531 L 43.667969 56.019531 L 7.851562 56.019531 Z M 7.851562 41.144531 "/>
<path style=" stroke:none;fill-rule:nonzero;fill:rgb(100%,47.450981%,77.64706%);fill-opacity:1;" d="M 21.339844 0.234375 L 30.644531 0.234375 L 30.644531 99.535156 L 21.339844 99.535156 Z M 21.339844 0.234375 "/>
<use xlink:href="#surface5" mask="url(#mask0)"/>
<path style=" stroke:none;fill-rule:nonzero;fill:rgb(100%,47.450981%,77.64706%);fill-opacity:1;" d="M 32.25 75.800781 C 32.148438 75.800781 32.050781 75.765625 31.953125 75.695312 C 31.710938 75.515625 31.558594 75.140625 31.554688 74.714844 C 31.484375 67.519531 28.917969 60.457031 27.394531 56.890625 C 27.292969 56.652344 27.117188 56.507812 26.925781 56.507812 C 26.726562 56.507812 26.550781 56.652344 26.449219 56.890625 C 24.925781 60.457031 22.359375 67.519531 22.289062 74.714844 C 22.285156 75.140625 22.132812 75.515625 21.890625 75.695312 C 21.644531 75.878906 21.363281 75.824219 21.15625 75.550781 L 14.003906 66.277344 C 13.746094 65.949219 13.671875 65.367188 13.824219 64.898438 C 14.546875 62.671875 17.332031 55.167969 22.792969 52.082031 C 23.039062 51.945312 23.1875 51.554688 23.15625 51.136719 C 23.136719 50.90625 23.128906 50.671875 23.128906 50.441406 C 23.128906 50.167969 23.0625 49.921875 22.949219 49.753906 L 12.664062 34.777344 C 12.496094 34.53125 12.414062 34.164062 12.445312 33.800781 C 12.476562 33.433594 12.621094 33.117188 12.828125 32.957031 L 21.390625 26.269531 C 21.566406 26.132812 21.769531 26.121094 21.953125 26.238281 C 22.132812 26.351562 22.277344 26.585938 22.347656 26.878906 L 26.316406 43.808594 C 26.398438 44.15625 26.609375 44.386719 26.847656 44.375 C 27.027344 44.367188 27.210938 44.386719 27.390625 44.421875 C 27.648438 44.476562 27.890625 44.246094 27.980469 43.863281 L 31.960938 26.878906 C 32.03125 26.585938 32.175781 26.351562 32.355469 26.238281 C 32.539062 26.121094 32.742188 26.132812 32.917969 26.269531 L 41.480469 32.957031 C 41.6875 33.117188 41.832031 33.433594 41.863281 33.800781 C 41.894531 34.164062 41.8125 34.53125 41.644531 34.777344 L 30.871094 50.46875 C 30.769531 50.613281 30.707031 50.8125 30.695312 51.03125 C 30.691406 51.078125 30.6875 51.125 30.683594 51.167969 C 30.65625 51.5625 30.808594 51.945312 31.046875 52.082031 C 36.511719 55.167969 39.296875 62.671875 40.019531 64.898438 C 40.171875 65.367188 40.097656 65.949219 39.839844 66.277344 L 32.6875 75.550781 C 32.5625 75.71875 32.40625 75.800781 32.25 75.800781 Z M 32.25 75.800781 "/>
<path style=" stroke:none;fill-rule:nonzero;fill:rgb(24.705882%,23.921569%,33.725491%);fill-opacity:1;" d="M 92.660156 99.859375 L 62.621094 99.859375 C 61.378906 99.859375 60.367188 98.242188 60.367188 96.253906 L 60.367188 71.8125 C 60.367188 69.824219 61.378906 68.207031 62.621094 68.207031 L 92.660156 68.207031 C 93.90625 68.207031 94.917969 69.824219 94.917969 71.8125 L 94.917969 96.253906 C 94.917969 98.242188 93.90625 99.859375 92.660156 99.859375 Z M 62.621094 68.671875 C 61.539062 68.671875 60.660156 70.082031 60.660156 71.8125 L 60.660156 96.253906 C 60.660156 97.984375 61.539062 99.390625 62.621094 99.390625 L 92.660156 99.390625 C 93.742188 99.390625 94.625 97.984375 94.625 96.253906 L 94.625 71.8125 C 94.625 70.082031 93.742188 68.671875 92.660156 68.671875 Z M 62.621094 68.671875 "/>
<path style=" stroke:none;fill-rule:nonzero;fill:rgb(100%,47.450981%,77.64706%);fill-opacity:1;" d="M 75.523438 68.234375 L 80.65625 68.234375 L 80.65625 99.832031 L 75.523438 99.832031 Z M 75.523438 68.234375 "/>
<path style=" stroke:none;fill-rule:nonzero;fill:rgb(100%,47.450981%,77.64706%);fill-opacity:1;" d="M 60.515625 80.132812 L 94.769531 80.132812 L 94.769531 88.339844 L 60.515625 88.339844 Z M 60.515625 80.132812 "/>
<use xlink:href="#surface8" mask="url(#mask1)"/>
<path style=" stroke:none;fill-rule:nonzero;fill:rgb(100%,47.450981%,77.64706%);fill-opacity:1;" d="M 83.136719 98.296875 C 83.019531 98.296875 82.910156 98.21875 82.828125 98.082031 L 77.417969 88.574219 C 77.371094 88.496094 77.304688 88.449219 77.234375 88.4375 L 77.210938 88.433594 C 77.078125 88.410156 76.957031 88.523438 76.914062 88.710938 C 75.847656 93.554688 73.246094 96.019531 72.472656 96.660156 C 72.300781 96.804688 72.085938 96.730469 71.960938 96.488281 L 68.761719 90.175781 C 68.660156 89.976562 68.640625 89.707031 68.707031 89.472656 C 68.773438 89.242188 68.914062 89.097656 69.074219 89.09375 C 71.546875 89.03125 73.976562 86.773438 75.207031 85.433594 C 75.28125 85.355469 75.324219 85.214844 75.324219 85.0625 C 75.324219 84.902344 75.28125 84.761719 75.207031 84.683594 C 73.976562 83.34375 71.546875 81.085938 69.074219 81.023438 C 68.914062 81.019531 68.773438 80.875 68.707031 80.644531 C 68.640625 80.410156 68.660156 80.140625 68.761719 79.941406 L 71.960938 73.628906 C 72.085938 73.386719 72.300781 73.3125 72.472656 73.457031 C 73.246094 74.097656 75.847656 76.5625 76.914062 81.402344 C 76.957031 81.589844 77.074219 81.707031 77.195312 81.683594 C 77.324219 81.660156 77.453125 81.652344 77.578125 81.667969 L 82.828125 72.445312 C 82.921875 72.285156 83.058594 72.203125 83.195312 72.238281 C 83.332031 72.269531 83.449219 72.40625 83.511719 72.601562 L 85.816406 80.15625 C 85.867188 80.324219 85.875 80.519531 85.828125 80.695312 C 85.785156 80.867188 85.699219 81.003906 85.589844 81.070312 L 79.75 84.574219 C 79.640625 84.636719 79.570312 84.804688 79.574219 84.992188 L 79.574219 85.058594 C 79.574219 85.203125 79.570312 85.351562 79.554688 85.496094 C 79.539062 85.683594 79.613281 85.871094 79.730469 85.941406 L 85.589844 89.457031 C 85.699219 89.523438 85.785156 89.660156 85.828125 89.832031 C 85.875 90.007812 85.867188 90.203125 85.816406 90.371094 L 83.511719 97.925781 C 83.449219 98.121094 83.332031 98.257812 83.195312 98.289062 C 83.175781 98.296875 83.15625 98.296875 83.136719 98.296875 Z M 83.136719 98.296875 "/>
<path style=" stroke:none;fill-rule:nonzero;fill:rgb(18.431373%,18.039216%,25.490198%);fill-opacity:1;" d="M 55.929688 40.019531 L 51.234375 40.019531 L 51.234375 37.546875 C 51.234375 33.402344 53.339844 30.035156 55.929688 30.035156 Z M 55.929688 40.019531 "/>
<path style=" stroke:none;fill-rule:nonzero;fill:rgb(100%,71.372551%,71.372551%);fill-opacity:1;" d="M 54.890625 35.402344 L 55.699219 41.210938 L 50.964844 39.957031 L 52.894531 34.460938 Z M 54.890625 35.402344 "/>
<use xlink:href="#surface11" mask="url(#mask2)"/>
<path style=" stroke:none;fill-rule:nonzero;fill:rgb(100%,71.372551%,71.372551%);fill-opacity:1;" d="M 50.351562 47.8125 L 54.890625 47.8125 L 54.890625 58.550781 L 50.351562 58.550781 Z M 50.351562 47.8125 "/>
<path style=" stroke:none;fill-rule:nonzero;fill:rgb(100%,71.372551%,71.372551%);fill-opacity:1;" d="M 57.839844 67.332031 L 56.839844 75.894531 C 56.839844 75.894531 57.476562 81.84375 55.570312 87.941406 L 54.300781 94.179688 L 52.394531 93.746094 C 52.394531 93.746094 53.574219 89.101562 53.574219 87.070312 C 53.574219 85.039062 53.847656 77.199219 53.847656 77.199219 L 53.710938 68.257812 Z M 57.839844 67.332031 "/>
<path style=" stroke:none;fill-rule:nonzero;fill:rgb(18.431373%,18.039216%,25.490198%);fill-opacity:1;" d="M 52.121094 93.601562 C 52.121094 93.601562 54.300781 92.292969 54.480469 94.179688 L 54.390625 95.050781 C 54.390625 95.050781 55.207031 98.96875 54.027344 99.261719 C 52.847656 99.550781 51.757812 99.984375 51.667969 99.113281 C 51.578125 98.246094 51.578125 97.15625 51.804688 96.394531 C 52.03125 95.632812 52.121094 93.601562 52.121094 93.601562 Z M 52.121094 93.601562 "/>
<path style=" stroke:none;fill-rule:nonzero;fill:rgb(100%,71.372551%,71.372551%);fill-opacity:1;" d="M 50.96875 66.003906 L 50.4375 74.671875 C 50.4375 74.671875 48.792969 80.105469 49.566406 86.808594 L 49.699219 93.367188 L 51.605469 93.796875 C 51.605469 93.796875 51.28125 88.8125 51.632812 86.859375 C 51.988281 84.910156 53.089844 77.257812 53.089844 77.257812 L 54.773438 68.730469 Z M 50.96875 66.003906 "/>
<path style=" stroke:none;fill-rule:nonzero;fill:rgb(18.431373%,18.039216%,25.490198%);fill-opacity:1;" d="M 51.894531 93.777344 C 51.894531 93.777344 50.027344 91.554688 49.527344 93.285156 L 49.460938 94.164062 C 49.460938 94.164062 48.019531 98.496094 49.105469 99.300781 C 50.1875 100.105469 51.132812 100.074219 51.371094 99.277344 C 51.609375 98.480469 51.796875 97.4375 51.710938 96.605469 C 51.625 95.769531 51.894531 93.777344 51.894531 93.777344 Z M 51.894531 93.777344 "/>
<path style=" stroke:none;fill-rule:nonzero;fill:rgb(18.431373%,18.039216%,25.490198%);fill-opacity:1;" d="M 56.660156 53.546875 L 60.5625 66.753906 C 60.5625 66.753906 52.710938 73.066406 48.082031 73.066406 L 50.382812 53.546875 Z M 56.660156 53.546875 "/>
<path style=" stroke:none;fill-rule:nonzero;fill:rgb(90.196079%,90.196079%,90.196079%);fill-opacity:1;" d="M 53.164062 38.089844 L 55.433594 38.671875 L 55.253906 47.8125 L 57.792969 55.941406 L 54.527344 58.550781 C 54.527344 58.550781 51.984375 50.859375 51.53125 46.070312 C 51.078125 41.28125 51.351562 37.800781 51.351562 37.800781 Z M 53.164062 38.089844 "/>
<path style=" stroke:none;fill-rule:nonzero;fill:rgb(90.196079%,90.196079%,90.196079%);fill-opacity:1;" d="M 51.441406 38.378906 L 49.171875 38.960938 L 49.355469 48.101562 L 48.808594 56.519531 L 50.082031 58.84375 C 50.082031 58.84375 52.621094 51.152344 53.074219 46.363281 C 53.527344 41.574219 53.257812 38.089844 53.257812 38.089844 Z M 51.441406 38.378906 "/>
<path style=" stroke:none;fill-rule:nonzero;fill:rgb(90.196079%,90.196079%,90.196079%);fill-opacity:1;" d="M 54.9375 38.886719 L 55.433594 38.671875 C 55.433594 38.671875 57.203125 38.308594 57.476562 39.46875 C 57.75 40.628906 57.660156 47.449219 57.660156 47.449219 C 57.660156 47.449219 58.125 55.820312 56.304688 55.917969 C 54.480469 56.011719 54.84375 49.046875 54.84375 49.046875 Z M 54.9375 38.886719 "/>
<path style=" stroke:none;fill-rule:nonzero;fill:rgb(100%,71.372551%,71.372551%);fill-opacity:1;" d="M 56.445312 33.242188 C 56.445312 31.167969 55.394531 29.484375 54.097656 29.484375 C 52.800781 29.484375 51.75 31.167969 51.75 33.242188 C 51.75 35.316406 52.800781 36.996094 54.097656 36.996094 C 55.394531 36.996094 56.445312 35.316406 56.445312 33.242188 Z M 56.445312 33.242188 "/>
<path style=" stroke:none;fill-rule:nonzero;fill:rgb(100%,71.372551%,71.372551%);fill-opacity:1;" d="M 53.363281 38.410156 C 53.867188 38.207031 54.4375 39.066406 54.640625 40.332031 C 54.722656 40.835938 54.730469 41.367188 54.664062 41.875 L 54.878906 43.316406 L 54.894531 43.316406 L 56.601562 49.75 C 57 51.246094 56.957031 52.964844 56.453125 54.375 C 56.148438 55.214844 55.753906 55.777344 55.289062 55.203125 C 54.519531 54.246094 54.015625 48.78125 53.785156 45.640625 L 53.253906 42.449219 C 53.042969 42.050781 52.890625 41.582031 52.816406 41.074219 C 52.613281 39.808594 52.859375 38.613281 53.363281 38.410156 Z M 53.363281 38.410156 "/>
<path style=" stroke:none;fill-rule:nonzero;fill:rgb(90.196079%,90.196079%,90.196079%);fill-opacity:1;" d="M 51.167969 38.886719 L 50.671875 38.671875 C 50.671875 38.671875 48.898438 38.308594 48.628906 39.46875 C 48.355469 40.628906 48.445312 47.449219 48.445312 47.449219 C 48.445312 47.449219 47.976562 55.820312 49.800781 55.917969 C 51.621094 56.011719 51.261719 49.046875 51.261719 49.046875 Z M 51.167969 38.886719 "/>
<path style=" stroke:none;fill-rule:nonzero;fill:rgb(100%,71.372551%,71.372551%);fill-opacity:1;" d="M 52.742188 38.410156 C 52.238281 38.207031 51.667969 39.066406 51.464844 40.332031 C 51.378906 40.835938 51.371094 41.367188 51.441406 41.875 L 51.226562 43.316406 L 51.210938 43.316406 L 49.5 49.75 C 49.105469 51.246094 49.148438 52.964844 49.652344 54.375 C 49.953125 55.214844 50.351562 55.777344 50.8125 55.203125 C 51.585938 54.246094 52.089844 48.78125 52.316406 45.640625 L 52.847656 42.449219 C 53.0625 42.050781 53.214844 41.582031 53.289062 41.074219 C 53.492188 39.808594 53.246094 38.613281 52.742188 38.410156 Z M 52.742188 38.410156 "/>
<path style=" stroke:none;fill-rule:nonzero;fill:rgb(18.431373%,18.039216%,25.490198%);fill-opacity:1;" d="M 49.601562 36.28125 C 49.722656 35.699219 49.957031 35.191406 50.0625 34.601562 C 50.203125 33.824219 50.5 35.554688 50.53125 34.742188 C 50.585938 33.203125 52.054688 29.238281 52.894531 28.476562 C 53.734375 27.714844 54.21875 27.945312 55.070312 28.660156 C 55.070312 28.660156 55.488281 28.703125 56.003906 29.109375 C 56.519531 29.519531 56.984375 30.171875 57.1875 31.035156 C 57.347656 31.722656 57.328125 32.472656 57.382812 33.199219 C 57.53125 35.21875 58.238281 37.144531 58.085938 39.164062 C 58.039062 39.792969 57.890625 40.445312 57.566406 40.816406 C 57.246094 41.1875 56.722656 41.148438 56.511719 40.609375 C 56.441406 40.429688 56.410156 40.210938 56.347656 40.019531 C 56.285156 39.824219 56.171875 39.644531 56.039062 39.652344 C 55.832031 39.660156 55.730469 40.097656 55.808594 40.398438 C 55.890625 40.695312 56.078125 40.878906 56.257812 41.039062 C 55.835938 41.339844 55.3125 41.246094 54.941406 40.800781 C 54.574219 40.355469 54.375 39.574219 54.441406 38.84375 C 54.539062 37.8125 55.476562 38.023438 55.585938 36.996094 C 55.667969 36.25 55.953125 35 55.875 34.25 C 55.796875 33.5 55.425781 34.40625 55.816406 33.972656 C 55.386719 34.304688 54.46875 32.042969 54.019531 31.789062 C 53.570312 31.535156 53.191406 30.988281 52.988281 30.300781 C 52.511719 31.402344 52.09375 31.105469 51.921875 32.417969 C 51.75 33.730469 51.910156 36.714844 52.609375 37.449219 C 52.328125 37.753906 52.105469 38.191406 51.972656 38.695312 C 51.898438 38.976562 51.851562 39.289062 51.726562 39.527344 C 51.488281 39.976562 51.050781 40.003906 50.703125 39.8125 C 50.269531 39.578125 49.902344 39.0625 49.699219 38.410156 C 49.496094 37.757812 49.457031 36.972656 49.601562 36.28125 Z M 49.601562 36.28125 "/>
</g>
</svg>
