<?xml version="1.0" encoding="UTF-8"?>
<svg xmlns="http://www.w3.org/2000/svg" xmlns:xlink="http://www.w3.org/1999/xlink" width="100px" height="100px" viewBox="0 0 100 100" version="1.1">
<g id="surface1">
<path style=" stroke:none;fill-rule:nonzero;fill:rgb(94.901961%,94.901961%,94.901961%);fill-opacity:1;" d="M 77.011719 97.054688 L 4.367188 97.054688 C 4.25 97.054688 4.15625 96.972656 4.15625 96.871094 C 4.15625 96.769531 4.25 96.6875 4.367188 96.6875 L 77.011719 96.6875 C 77.128906 96.6875 77.21875 96.769531 77.21875 96.871094 C 77.21875 96.972656 77.128906 97.054688 77.011719 97.054688 Z M 77.011719 97.054688 "/>
<path style=" stroke:none;fill-rule:nonzero;fill:rgb(94.117647%,94.117647%,94.117647%);fill-opacity:1;" d="M 96.882812 32.894531 L 3.171875 32.894531 C 1.421875 32.894531 0.00390625 32.394531 0 31.773438 L 0 6.488281 C 0.00390625 5.871094 1.421875 5.371094 3.171875 5.367188 L 96.882812 5.367188 C 98.632812 5.367188 100.050781 5.871094 100.050781 6.488281 L 100.050781 31.773438 C 100.050781 32.390625 98.632812 32.894531 96.882812 32.894531 Z M 3.171875 5.617188 C 1.804688 5.617188 0.703125 6.007812 0.699219 6.488281 L 0.699219 31.773438 C 0.699219 32.257812 1.804688 32.648438 3.171875 32.648438 L 96.882812 32.648438 C 98.246094 32.648438 99.351562 32.257812 99.351562 31.773438 L 99.351562 6.488281 C 99.351562 6.007812 98.246094 5.617188 96.882812 5.617188 Z M 3.171875 5.617188 "/>
<path style=" stroke:none;fill-rule:nonzero;fill:rgb(92.941177%,61.56863%,62.7451%);fill-opacity:1;" d="M 51.464844 68.371094 C 52.15625 68.300781 52.769531 68.039062 53.144531 67.652344 C 53.519531 67.265625 53.621094 66.792969 53.421875 66.355469 L 51.578125 62.269531 L 48.773438 62.613281 L 48.652344 66.773438 C 48.640625 67.242188 48.945312 67.691406 49.488281 67.996094 C 50.027344 68.304688 50.753906 68.441406 51.464844 68.371094 Z M 51.464844 68.371094 "/>
<path style=" stroke:none;fill-rule:nonzero;fill:rgb(18.431373%,18.039216%,25.490198%);fill-opacity:1;" d="M 35.277344 94.457031 L 38.78125 94.117188 L 37.90625 71.855469 L 42.8125 81.445312 L 45.441406 94.914062 L 48.773438 94.34375 L 49.472656 80.304688 L 45.617188 63.753906 L 26.339844 66.605469 Z M 35.277344 94.457031 "/>
<path style=" stroke:none;fill-rule:nonzero;fill:rgb(18.431373%,18.039216%,25.490198%);fill-opacity:1;" d="M 36.886719 99.9375 C 38.308594 99.9375 39.460938 99.1875 39.460938 98.257812 C 39.460938 98.203125 39.457031 98.148438 39.449219 98.09375 L 38.90625 94.492188 C 38.878906 94.316406 38.71875 94.160156 38.480469 94.078125 C 37.449219 93.714844 36.386719 93.804688 35.296875 94.277344 C 35.101562 94.363281 34.976562 94.5 34.949219 94.652344 L 34.328125 98.0625 C 34.238281 98.539062 34.46875 99.015625 34.957031 99.375 C 35.449219 99.734375 36.148438 99.9375 36.886719 99.9375 Z M 36.886719 99.9375 "/>
<path style=" stroke:none;fill-rule:nonzero;fill:rgb(18.431373%,18.039216%,25.490198%);fill-opacity:1;" d="M 51.195312 99.667969 C 51.863281 99.507812 52.382812 99.15625 52.605469 98.714844 C 52.824219 98.273438 52.71875 97.792969 52.320312 97.40625 L 48.582031 93.785156 C 47.234375 93.15625 46.421875 93.464844 46.105469 94.640625 L 45.351562 93.40625 L 44.78125 93.8125 C 44.183594 94.234375 44.144531 94.878906 44.6875 95.332031 L 48.566406 99.175781 C 49.183594 99.695312 50.25 99.894531 51.199219 99.667969 Z M 51.195312 99.667969 "/>
<path style=" stroke:none;fill-rule:nonzero;fill:rgb(92.941177%,61.56863%,62.7451%);fill-opacity:1;" d="M 32.824219 38.867188 C 32.824219 36.976562 30.46875 35.445312 27.566406 35.445312 C 24.660156 35.445312 22.304688 36.976562 22.304688 38.867188 C 22.304688 40.761719 24.660156 42.292969 27.566406 42.292969 C 30.46875 42.292969 32.824219 40.761719 32.824219 38.867188 Z M 32.824219 38.867188 "/>
<path style=" stroke:none;fill-rule:nonzero;fill:rgb(92.941177%,61.56863%,62.7451%);fill-opacity:1;" d="M 24.234375 45.148438 L 33.171875 44.003906 C 32.023438 42.40625 31.101562 41.863281 32.121094 40.125 L 24.9375 40.125 C 25.566406 41.925781 24.957031 43.621094 24.234375 45.148438 Z M 24.234375 45.148438 "/>
<path style=" stroke:none;fill-rule:nonzero;fill:rgb(90.196079%,90.196079%,90.196079%);fill-opacity:1;" d="M 25.285156 68.203125 L 46.320312 64.324219 C 42.105469 58.285156 41.226562 51.65625 42.472656 44.648438 C 42.597656 43.953125 41.832031 43.324219 40.765625 43.242188 C 40.742188 43.238281 40.71875 43.238281 40.695312 43.238281 C 37.949219 43.089844 35.089844 42.898438 32.121094 42.636719 L 28.792969 44.121094 L 24.9375 43.550781 C 23.699219 43.941406 22.453125 44.265625 21.328125 44.589844 C 19.203125 45.203125 18.140625 46.765625 18.875 48.203125 C 22.300781 54.941406 24.597656 61.617188 25.285156 68.203125 Z M 25.285156 68.203125 "/>
<path style=" stroke:none;fill-rule:nonzero;fill:rgb(90.196079%,90.196079%,90.196079%);fill-opacity:1;" d="M 48.246094 63.066406 L 52.277344 62.726562 L 42.730469 44.804688 C 42.242188 43.894531 41.039062 43.402344 39.570312 43.265625 L 38.167969 43.378906 L 39.222656 53.992188 Z M 48.246094 63.066406 "/>
<path style=" stroke:none;fill-rule:nonzero;fill:rgb(90.196079%,90.196079%,90.196079%);fill-opacity:1;" d="M 16.667969 59.640625 C 18.046875 59.710938 19.335938 59.195312 19.863281 58.367188 L 23.707031 52.339844 L 20.554688 44.917969 L 19.71875 45.265625 C 19.640625 45.296875 19.5625 45.332031 19.484375 45.367188 C 17.09375 46.457031 15.890625 48.351562 16.402344 50.222656 L 17.226562 53.367188 L 13.832031 58.113281 C 14.183594 58.960938 15.320312 59.574219 16.667969 59.640625 Z M 16.667969 59.640625 "/>
<path style=" stroke:none;fill-rule:nonzero;fill:rgb(18.431373%,18.039216%,25.490198%);fill-opacity:1;" d="M 27.0625 33.792969 C 26.175781 33.816406 25.304688 33.957031 24.511719 34.214844 C 24.332031 34.273438 24.414062 34.484375 24.25 34.554688 C 24.042969 34.640625 23.589844 34.589844 23.40625 34.691406 C 22.234375 35.300781 21.609375 36.253906 21.742188 37.226562 L 22.035156 38.867188 L 22.726562 38.441406 C 24.042969 37.648438 25.746094 37.175781 27.539062 37.113281 C 27.617188 37.109375 27.695312 37.109375 27.777344 37.105469 L 27.242188 36.582031 L 28.167969 37.101562 C 28.589844 37.105469 29.011719 37.125 29.429688 37.160156 L 28.722656 36.464844 L 30.082031 37.226562 C 31.15625 37.34375 32.089844 37.773438 32.621094 38.394531 L 32.769531 38.582031 L 32.9375 37.015625 C 33.007812 35.269531 30.550781 33.828125 27.453125 33.789062 C 27.320312 33.789062 27.191406 33.789062 27.0625 33.792969 Z M 27.0625 33.792969 "/>
<path style=" stroke:none;fill-rule:nonzero;fill:rgb(92.941177%,61.56863%,62.7451%);fill-opacity:1;" d="M 12.28125 48.050781 C 11.601562 48.160156 11.023438 48.453125 10.703125 48.859375 C 10.378906 49.265625 10.335938 49.742188 10.59375 50.167969 L 12.964844 54.136719 L 15.710938 53.640625 L 15.289062 49.488281 C 15.242188 49.019531 14.878906 48.589844 14.300781 48.3125 C 13.71875 48.035156 12.980469 47.941406 12.28125 48.050781 Z M 12.28125 48.050781 "/>
<path style=" stroke:none;fill-rule:nonzero;fill:rgb(90.196079%,90.196079%,90.196079%);fill-opacity:1;" d="M 15.472656 59.414062 L 19.851562 57.589844 L 16.171875 52.679688 L 11.613281 53.824219 L 13.894531 58.160156 Z M 15.472656 59.414062 "/>
<path style=" stroke:none;fill-rule:nonzero;fill:rgb(79.215688%,79.215688%,79.215688%);fill-opacity:1;" d="M 99.890625 3.753906 L 0.160156 3.753906 C 0.0742188 3.753906 0 3.707031 0 3.648438 C 0 3.59375 0.0742188 3.546875 0.160156 3.546875 L 99.890625 3.546875 C 99.980469 3.546875 100.050781 3.59375 100.050781 3.648438 C 100.050781 3.707031 99.980469 3.753906 99.890625 3.753906 Z M 99.890625 3.753906 "/>
<path style=" stroke:none;fill-rule:nonzero;fill:rgb(24.705882%,23.921569%,33.725491%);fill-opacity:1;" d="M 5.339844 1.148438 C 5.339844 0.511719 4.566406 0 3.617188 0 C 2.664062 0 1.894531 0.511719 1.894531 1.148438 C 1.894531 1.78125 2.664062 2.292969 3.617188 2.292969 C 4.566406 2.292969 5.339844 1.78125 5.339844 1.148438 Z M 5.339844 1.148438 "/>
<path style=" stroke:none;fill-rule:nonzero;fill:rgb(24.705882%,23.921569%,33.725491%);fill-opacity:1;" d="M 10.816406 1.148438 C 10.816406 0.511719 10.046875 0 9.09375 0 C 8.144531 0 7.371094 0.511719 7.371094 1.148438 C 7.371094 1.78125 8.144531 2.292969 9.09375 2.292969 C 10.046875 2.292969 10.816406 1.78125 10.816406 1.148438 Z M 10.816406 1.148438 "/>
<path style=" stroke:none;fill-rule:nonzero;fill:rgb(24.705882%,23.921569%,33.725491%);fill-opacity:1;" d="M 16.296875 1.148438 C 16.296875 0.511719 15.527344 0 14.574219 0 C 13.621094 0 12.851562 0.511719 12.851562 1.148438 C 12.851562 1.78125 13.621094 2.292969 14.574219 2.292969 C 15.527344 2.292969 16.296875 1.78125 16.296875 1.148438 Z M 16.296875 1.148438 "/>
<path style=" stroke:none;fill-rule:nonzero;fill:rgb(24.705882%,23.921569%,33.725491%);fill-opacity:1;" d="M 96.253906 0.285156 L 92.023438 0.285156 C 91.90625 0.28125 91.796875 0.320312 91.738281 0.386719 C 91.679688 0.453125 91.679688 0.535156 91.738281 0.597656 C 91.796875 0.664062 91.90625 0.703125 92.023438 0.699219 L 96.253906 0.699219 C 96.371094 0.703125 96.480469 0.664062 96.542969 0.597656 C 96.601562 0.535156 96.601562 0.453125 96.542969 0.386719 C 96.480469 0.320312 96.371094 0.28125 96.253906 0.285156 Z M 96.253906 0.285156 "/>
<path style=" stroke:none;fill-rule:nonzero;fill:rgb(24.705882%,23.921569%,33.725491%);fill-opacity:1;" d="M 96.253906 1.066406 L 92.023438 1.066406 C 91.90625 1.0625 91.796875 1.101562 91.738281 1.167969 C 91.679688 1.234375 91.679688 1.316406 91.738281 1.382812 C 91.796875 1.449219 91.90625 1.488281 92.023438 1.484375 L 96.253906 1.484375 C 96.371094 1.488281 96.480469 1.449219 96.542969 1.382812 C 96.601562 1.316406 96.601562 1.234375 96.542969 1.167969 C 96.480469 1.101562 96.371094 1.0625 96.253906 1.066406 Z M 96.253906 1.066406 "/>
<path style=" stroke:none;fill-rule:nonzero;fill:rgb(24.705882%,23.921569%,33.725491%);fill-opacity:1;" d="M 96.253906 1.847656 L 92.023438 1.847656 C 91.90625 1.84375 91.796875 1.882812 91.738281 1.949219 C 91.679688 2.015625 91.679688 2.097656 91.738281 2.164062 C 91.796875 2.230469 91.90625 2.269531 92.023438 2.265625 L 96.253906 2.265625 C 96.371094 2.269531 96.480469 2.230469 96.542969 2.164062 C 96.601562 2.097656 96.601562 2.015625 96.542969 1.949219 C 96.480469 1.882812 96.371094 1.84375 96.253906 1.847656 Z M 96.253906 1.847656 "/>
<path style=" stroke:none;fill-rule:nonzero;fill:rgb(100%,47.450981%,77.64706%);fill-opacity:1;" d="M 88.921875 19.34375 C 88.824219 20.246094 88.417969 21.121094 87.726562 21.90625 C 86.277344 23.566406 83.785156 24.769531 81.105469 25.484375 C 77.753906 26.375 74.019531 26.402344 70.464844 26.203125 C 67.160156 26.019531 63.890625 25.589844 60.578125 25.503906 C 58.011719 25.449219 55.449219 25.488281 52.890625 25.621094 C 47.929688 25.851562 42.992188 26.277344 38.082031 26.792969 C 36.753906 26.929688 35.429688 27.078125 34.105469 27.238281 C 33.980469 27.246094 33.855469 27.257812 33.734375 27.28125 C 33.710938 27.289062 33.671875 27.285156 33.652344 27.292969 C 33.609375 27.308594 33.8125 27.25 33.691406 27.316406 C 33.519531 27.433594 33.367188 27.5625 33.238281 27.695312 L 31.425781 29.214844 C 30.90625 29.652344 30.421875 30.179688 29.75 30.523438 C 28.78125 31.011719 27.457031 31.070312 26.394531 30.675781 C 25.851562 30.453125 25.417969 30.132812 25.148438 29.753906 C 24.730469 29.253906 24.234375 28.789062 23.664062 28.359375 C 21.507812 26.71875 18.511719 25.710938 16.003906 24.335938 C 14.789062 23.695312 13.753906 22.921875 12.941406 22.054688 C 12.246094 21.265625 11.816406 20.394531 11.675781 19.492188 C 11.375 17.660156 12.238281 15.792969 13.6875 14.234375 C 15.269531 12.558594 17.535156 11.207031 20.238281 10.332031 C 23.269531 9.324219 26.628906 8.832031 29.992188 8.589844 C 33.566406 8.332031 37.179688 8.332031 40.769531 8.355469 C 44.796875 8.386719 48.820312 8.5 52.835938 8.703125 C 56.855469 8.90625 60.859375 9.195312 64.847656 9.566406 C 68.671875 9.925781 72.546875 10.300781 76.292969 10.933594 C 79.601562 11.492188 82.902344 12.367188 85.371094 13.953125 C 87.570312 15.367188 89.097656 17.296875 88.921875 19.34375 Z M 88.921875 19.34375 "/>
<path style=" stroke:none;fill-rule:nonzero;fill:rgb(100%,100%,100%);fill-opacity:1;" d="M 70.425781 19.925781 C 70.753906 19.914062 71.066406 19.816406 71.277344 19.652344 C 71.492188 19.488281 71.589844 19.269531 71.546875 19.058594 L 71.464844 18.621094 C 71.429688 18.453125 71.527344 18.28125 71.722656 18.167969 L 72.226562 17.875 C 72.5625 17.679688 72.699219 17.375 72.578125 17.09375 C 72.457031 16.8125 72.101562 16.597656 71.660156 16.542969 L 70.996094 16.460938 C 70.738281 16.429688 70.519531 16.316406 70.414062 16.160156 L 70.144531 15.757812 C 69.960938 15.488281 69.5625 15.3125 69.109375 15.300781 C 68.660156 15.285156 68.238281 15.441406 68.023438 15.699219 L 67.699219 16.085938 C 67.570312 16.234375 67.339844 16.335938 67.078125 16.351562 L 66.40625 16.394531 C 65.960938 16.425781 65.574219 16.617188 65.417969 16.894531 C 65.261719 17.167969 65.355469 17.476562 65.664062 17.691406 L 66.128906 18.011719 C 66.308594 18.136719 66.382812 18.308594 66.324219 18.476562 L 66.183594 18.90625 C 66.089844 19.191406 66.25 19.488281 66.605469 19.671875 C 66.957031 19.855469 67.4375 19.890625 67.84375 19.765625 L 68.453125 19.578125 C 68.691406 19.503906 68.96875 19.511719 69.195312 19.597656 L 69.78125 19.820312 C 69.976562 19.894531 70.199219 19.929688 70.425781 19.925781 Z M 70.425781 19.925781 "/>
<path style=" stroke:none;fill-rule:nonzero;fill:rgb(100%,100%,100%);fill-opacity:1;" d="M 60.921875 19.746094 C 61.222656 19.738281 61.507812 19.652344 61.71875 19.515625 C 61.980469 19.335938 62.097656 19.089844 62.039062 18.847656 L 61.960938 18.445312 C 61.929688 18.273438 62.027344 18.101562 62.226562 17.984375 L 62.695312 17.714844 C 62.972656 17.558594 63.128906 17.332031 63.121094 17.09375 C 63.097656 16.734375 62.699219 16.429688 62.15625 16.363281 L 61.503906 16.28125 C 61.238281 16.25 61.019531 16.136719 60.910156 15.976562 L 60.664062 15.617188 C 60.488281 15.335938 60.085938 15.144531 59.621094 15.121094 C 59.167969 15.105469 58.738281 15.257812 58.519531 15.519531 L 58.199219 15.898438 C 58.070312 16.054688 57.835938 16.15625 57.570312 16.171875 L 56.945312 16.214844 C 56.582031 16.230469 56.25 16.355469 56.039062 16.554688 C 55.734375 16.851562 55.785156 17.25 56.164062 17.507812 L 56.621094 17.824219 C 56.804688 17.953125 56.878906 18.128906 56.824219 18.300781 L 56.691406 18.695312 C 56.605469 18.929688 56.683594 19.171875 56.90625 19.363281 C 57.246094 19.648438 57.84375 19.738281 58.34375 19.585938 L 58.945312 19.398438 C 59.1875 19.324219 59.46875 19.332031 59.703125 19.421875 L 60.277344 19.640625 C 60.472656 19.714844 60.695312 19.75 60.921875 19.746094 Z M 60.921875 19.746094 "/>
<path style=" stroke:none;fill-rule:nonzero;fill:rgb(100%,100%,100%);fill-opacity:1;" d="M 51.398438 19.71875 C 51.726562 19.710938 52.039062 19.609375 52.25 19.445312 C 52.464844 19.28125 52.5625 19.066406 52.523438 18.851562 L 52.4375 18.414062 C 52.402344 18.246094 52.5 18.074219 52.695312 17.960938 L 53.199219 17.667969 C 53.535156 17.472656 53.671875 17.171875 53.550781 16.886719 C 53.429688 16.605469 53.074219 16.390625 52.632812 16.335938 L 51.96875 16.253906 C 51.710938 16.222656 51.492188 16.109375 51.386719 15.953125 L 51.117188 15.550781 C 50.933594 15.285156 50.535156 15.105469 50.085938 15.09375 C 49.632812 15.082031 49.210938 15.234375 48.996094 15.492188 L 48.671875 15.878906 C 48.542969 16.027344 48.3125 16.128906 48.050781 16.144531 L 47.378906 16.191406 C 46.933594 16.21875 46.550781 16.410156 46.390625 16.6875 C 46.234375 16.960938 46.328125 17.269531 46.636719 17.484375 L 47.101562 17.804688 C 47.28125 17.929688 47.355469 18.101562 47.296875 18.269531 L 47.15625 18.699219 C 47.0625 18.984375 47.222656 19.285156 47.578125 19.464844 C 47.929688 19.648438 48.410156 19.683594 48.816406 19.558594 L 49.425781 19.371094 C 49.664062 19.300781 49.941406 19.308594 50.167969 19.394531 L 50.753906 19.613281 C 50.949219 19.6875 51.171875 19.726562 51.398438 19.71875 Z M 51.398438 19.71875 "/>
<path style=" stroke:none;fill-rule:nonzero;fill:rgb(100%,100%,100%);fill-opacity:1;" d="M 42.132812 19.554688 C 42.460938 19.546875 42.773438 19.445312 42.984375 19.28125 C 43.199219 19.117188 43.296875 18.902344 43.253906 18.6875 L 43.171875 18.25 C 43.136719 18.082031 43.234375 17.914062 43.429688 17.796875 L 43.933594 17.503906 C 44.269531 17.308594 44.40625 17.007812 44.285156 16.722656 C 44.164062 16.441406 43.808594 16.226562 43.367188 16.171875 L 42.703125 16.089844 C 42.445312 16.058594 42.226562 15.949219 42.121094 15.789062 L 41.847656 15.386719 C 41.667969 15.121094 41.265625 14.941406 40.816406 14.929688 C 40.367188 14.917969 39.945312 15.070312 39.726562 15.328125 L 39.402344 15.714844 C 39.277344 15.863281 39.046875 15.964844 38.785156 15.980469 L 38.113281 16.027344 C 37.664062 16.054688 37.28125 16.25 37.125 16.523438 C 36.964844 16.796875 37.0625 17.105469 37.371094 17.320312 L 37.832031 17.640625 C 38.011719 17.765625 38.085938 17.9375 38.03125 18.105469 L 37.890625 18.535156 C 37.792969 18.824219 37.957031 19.121094 38.308594 19.300781 C 38.660156 19.484375 39.144531 19.519531 39.550781 19.394531 L 40.160156 19.207031 C 40.398438 19.136719 40.675781 19.144531 40.902344 19.230469 L 41.484375 19.449219 C 41.679688 19.523438 41.90625 19.5625 42.132812 19.554688 Z M 42.132812 19.554688 "/>
<path style=" stroke:none;fill-rule:nonzero;fill:rgb(100%,100%,100%);fill-opacity:1;" d="M 32.867188 19.390625 C 33.195312 19.382812 33.507812 19.28125 33.71875 19.117188 C 33.933594 18.953125 34.03125 18.738281 33.988281 18.523438 L 33.90625 18.089844 C 33.871094 17.917969 33.96875 17.75 34.164062 17.632812 L 34.667969 17.339844 C 35.003906 17.144531 35.140625 16.84375 35.019531 16.5625 C 34.898438 16.277344 34.542969 16.066406 34.101562 16.011719 L 33.4375 15.929688 C 33.179688 15.894531 32.960938 15.785156 32.855469 15.628906 L 32.582031 15.226562 C 32.402344 14.957031 32 14.777344 31.550781 14.765625 C 31.101562 14.753906 30.679688 14.90625 30.460938 15.164062 L 30.136719 15.550781 C 30.011719 15.699219 29.78125 15.800781 29.519531 15.820312 L 28.847656 15.863281 C 28.398438 15.890625 28.015625 16.085938 27.859375 16.359375 C 27.699219 16.632812 27.796875 16.941406 28.105469 17.15625 L 28.566406 17.476562 C 28.746094 17.601562 28.820312 17.777344 28.765625 17.941406 L 28.625 18.371094 C 28.527344 18.660156 28.691406 18.957031 29.042969 19.136719 C 29.394531 19.320312 29.878906 19.359375 30.285156 19.230469 L 30.894531 19.046875 C 31.132812 18.972656 31.410156 18.980469 31.636719 19.066406 L 32.21875 19.289062 C 32.414062 19.363281 32.640625 19.398438 32.867188 19.390625 Z M 32.867188 19.390625 "/>
</g>
</svg>
