<?xml version="1.0" encoding="UTF-8"?>
<svg xmlns="http://www.w3.org/2000/svg" xmlns:xlink="http://www.w3.org/1999/xlink" width="100px" height="100px" viewBox="0 0 100 100" version="1.1">
<g id="surface1">
<path style=" stroke:none;fill-rule:nonzero;fill:rgb(99.607843%,99.607843%,99.215686%);fill-opacity:1;" d="M 0 0 C 33 0 66 0 100 0 C 100 33 100 66 100 100 C 67 100 34 100 0 100 C 0 67 0 34 0 0 Z M 0 0 "/>
<path style=" stroke:none;fill-rule:nonzero;fill:rgb(99.607843%,66.666669%,74.901962%);fill-opacity:1;" d="M 45.183594 16.113281 C 45.617188 16.03125 45.617188 16.03125 45.839844 16.246094 C 45.9375 16.363281 46.03125 16.484375 46.128906 16.605469 C 47.414062 18.125 49.394531 18.269531 50.957031 17.992188 C 52.074219 17.730469 53.398438 17.363281 54.230469 16.113281 C 54.40625 16.097656 54.578125 16.109375 54.753906 16.113281 C 54.773438 16.242188 54.796875 16.371094 54.816406 16.503906 C 54.894531 16.472656 54.96875 16.4375 55.046875 16.40625 C 55.539062 16.195312 55.960938 16.316406 56.433594 16.566406 C 56.511719 16.605469 56.511719 16.605469 56.589844 16.644531 C 57.695312 17.238281 58.25 18.089844 58.789062 19.628906 C 58.832031 19.75 58.832031 19.75 58.875 19.875 C 59.003906 20.246094 59.132812 20.621094 59.261719 20.992188 C 59.5 21.671875 59.738281 22.34375 59.984375 23.015625 C 60.078125 23.277344 60.175781 23.535156 60.269531 23.796875 C 60.320312 23.9375 60.371094 24.082031 60.425781 24.222656 C 60.484375 24.386719 60.542969 24.550781 60.601562 24.714844 C 60.644531 24.839844 60.644531 24.839844 60.691406 24.96875 C 60.757812 25.257812 60.746094 25.394531 60.675781 25.683594 C 60.484375 26.152344 60.238281 26.351562 59.917969 26.582031 C 59.871094 26.613281 59.824219 26.648438 59.777344 26.683594 C 59.453125 26.914062 59.148438 27.070312 58.789062 27.148438 C 58.8125 27.21875 58.835938 27.289062 58.859375 27.363281 C 58.929688 27.6875 58.949219 27.8125 58.855469 28.125 C 58.222656 28.757812 57.242188 29.121094 56.488281 29.109375 C 56.421875 29.105469 56.351562 29.105469 56.277344 29.105469 C 56.199219 29.101562 56.199219 29.101562 56.121094 29.101562 C 56.109375 29.195312 56.101562 29.285156 56.09375 29.382812 C 56.027344 30.027344 55.953125 30.65625 55.808594 31.273438 C 55.429688 32.925781 55.425781 34.445312 55.46875 36.167969 C 55.46875 36.523438 55.46875 36.523438 55.429688 36.882812 C 55.402344 37.222656 55.417969 37.371094 55.511719 37.679688 C 55.539062 37.769531 55.5625 37.859375 55.589844 37.953125 C 55.617188 38.046875 55.648438 38.144531 55.675781 38.246094 C 56.925781 42.710938 57.558594 47.464844 58.054688 52.234375 C 58.105469 52.746094 58.164062 53.261719 58.222656 53.773438 C 58.476562 56.003906 58.699219 58.238281 58.910156 60.476562 C 58.9375 60.765625 58.964844 61.054688 58.992188 61.34375 C 59.449219 66.167969 59.898438 70.992188 60.308594 75.828125 C 60.328125 76.027344 60.34375 76.230469 60.363281 76.429688 C 60.394531 76.800781 60.425781 77.171875 60.457031 77.539062 C 60.464844 77.648438 60.472656 77.753906 60.484375 77.867188 C 60.601562 79.300781 60.601562 79.300781 60.464844 79.765625 C 60.144531 80.371094 59.671875 80.535156 59.179688 80.664062 C 58.960938 80.699219 58.742188 80.726562 58.519531 80.75 C 57.675781 80.851562 57.089844 81.066406 56.371094 81.734375 C 56.03125 82.023438 55.648438 82.171875 55.273438 82.324219 C 55.195312 82.355469 55.121094 82.386719 55.042969 82.417969 C 53.777344 82.839844 52.332031 82.769531 51.074219 82.367188 C 50.203125 82.09375 49.371094 82.175781 48.503906 82.445312 C 46.429688 83.066406 44.261719 82.578125 42.449219 80.957031 C 42.425781 80.925781 42.40625 80.890625 42.382812 80.859375 C 42.273438 80.839844 42.164062 80.828125 42.054688 80.820312 C 40.03125 80.628906 40.03125 80.628906 39.386719 79.882812 C 39.105469 79.195312 39.277344 78.257812 39.351562 77.503906 C 39.367188 77.34375 39.367188 77.34375 39.382812 77.179688 C 39.414062 76.824219 39.449219 76.464844 39.480469 76.109375 C 39.503906 75.859375 39.527344 75.609375 39.550781 75.355469 C 39.613281 74.691406 39.675781 74.023438 39.738281 73.355469 C 39.777344 72.953125 39.816406 72.546875 39.855469 72.144531 C 40.214844 68.328125 40.585938 64.519531 40.980469 60.710938 C 41.015625 60.339844 41.054688 59.964844 41.09375 59.59375 C 41.476562 55.855469 41.875 52.121094 42.351562 48.40625 C 42.378906 48.167969 42.410156 47.925781 42.441406 47.6875 C 42.867188 44.332031 43.5 41.011719 44.402344 37.871094 C 44.429688 37.777344 44.457031 37.683594 44.484375 37.589844 C 44.507812 37.507812 44.53125 37.425781 44.554688 37.34375 C 44.605469 37.066406 44.585938 36.894531 44.53125 36.621094 C 44.511719 36.589844 44.488281 36.554688 44.464844 36.523438 C 44.464844 36.292969 44.46875 36.066406 44.472656 35.839844 C 44.5 34.222656 44.484375 32.824219 44.125 31.28125 C 44.039062 30.886719 43.996094 30.480469 43.953125 30.070312 C 43.945312 30 43.9375 29.925781 43.929688 29.851562 C 43.898438 29.53125 43.878906 29.230469 43.878906 28.90625 C 43.835938 28.9375 43.792969 28.96875 43.75 29.003906 C 42.847656 29.117188 41.835938 28.933594 41.082031 28.125 C 41.015625 28.027344 41.015625 28.027344 41.003906 27.746094 C 41.015625 27.441406 41.015625 27.441406 41.144531 27.148438 C 41.082031 27.152344 41.015625 27.160156 40.949219 27.164062 C 40.667969 27.148438 40.453125 27.042969 40.199219 26.878906 C 40.15625 26.855469 40.117188 26.832031 40.074219 26.804688 C 39.628906 26.53125 39.261719 26.191406 38.996094 25.585938 C 39.015625 25.144531 39.109375 24.820312 39.25 24.4375 C 39.304688 24.273438 39.304688 24.273438 39.367188 24.109375 C 39.410156 23.992188 39.449219 23.878906 39.492188 23.761719 C 39.539062 23.640625 39.582031 23.519531 39.625 23.398438 C 39.71875 23.144531 39.808594 22.894531 39.902344 22.644531 C 40.011719 22.335938 40.125 22.027344 40.234375 21.71875 C 40.339844 21.429688 40.445312 21.140625 40.550781 20.851562 C 40.609375 20.691406 40.609375 20.691406 40.667969 20.53125 C 41.402344 18.527344 42.34375 17.179688 43.792969 16.371094 C 44.261719 16.238281 44.714844 16.316406 45.183594 16.40625 C 45.183594 16.308594 45.183594 16.210938 45.183594 16.113281 Z M 45.183594 16.113281 "/>
<path style=" stroke:none;fill-rule:nonzero;fill:rgb(99.607843%,61.960787%,73.725492%);fill-opacity:1;" d="M 69.921875 17.96875 C 69.945312 17.90625 69.964844 17.839844 69.988281 17.773438 C 70.183594 17.78125 70.328125 17.808594 70.480469 18 C 70.953125 18.777344 71.355469 20.230469 71.355469 21.289062 C 73.78125 21.257812 76.210938 21.226562 78.710938 21.191406 C 78.839844 20.578125 78.96875 19.96875 79.101562 19.335938 C 79.285156 18.683594 79.417969 18.25 79.816406 17.871094 C 80.039062 17.792969 80.039062 17.792969 80.207031 17.773438 C 80.230469 17.871094 80.25 17.96875 80.273438 18.066406 C 80.328125 18.019531 80.382812 17.972656 80.441406 17.921875 C 80.925781 17.597656 81.488281 17.703125 81.988281 17.933594 C 83.097656 18.574219 83.578125 19.941406 84.050781 21.484375 C 84.074219 21.570312 84.101562 21.65625 84.128906 21.746094 C 85.320312 25.609375 85.320312 25.609375 84.9375 27.628906 C 84.804688 28.144531 84.628906 28.625 84.449219 29.101562 C 84.40625 29.207031 84.40625 29.207031 84.367188 29.316406 C 84.175781 29.800781 83.976562 30.152344 83.605469 30.332031 C 83.300781 30.417969 82.988281 30.394531 82.683594 30.394531 C 82.613281 30.398438 82.542969 30.398438 82.46875 30.402344 C 81.851562 30.40625 81.300781 30.238281 80.730469 29.882812 C 80.722656 29.941406 80.714844 30 80.707031 30.0625 C 80.640625 30.574219 80.566406 31.078125 80.484375 31.585938 C 79.988281 34.722656 79.765625 37.15625 80.632812 40.167969 C 81.238281 42.378906 81.609375 44.746094 81.996094 47.054688 C 82.027344 47.25 82.0625 47.445312 82.09375 47.636719 C 82.351562 49.160156 82.574219 50.6875 82.792969 52.222656 C 82.804688 52.308594 82.816406 52.390625 82.828125 52.480469 C 83.136719 54.65625 83.351562 56.847656 83.546875 59.050781 C 83.5625 59.265625 83.582031 59.480469 83.601562 59.699219 C 83.761719 61.484375 83.914062 63.269531 84.070312 65.058594 C 84.074219 65.121094 84.082031 65.1875 84.085938 65.253906 C 84.300781 67.753906 84.300781 67.753906 84.375 68.71875 C 84.460938 69.832031 84.558594 70.941406 84.65625 72.050781 C 84.664062 72.167969 84.675781 72.28125 84.6875 72.402344 C 84.785156 73.566406 84.886719 74.734375 85 75.898438 C 85.007812 76.019531 85.007812 76.019531 85.019531 76.144531 C 85.054688 76.511719 85.09375 76.882812 85.128906 77.253906 C 85.316406 79.160156 85.316406 79.160156 85.054688 79.699219 C 82.824219 82.980469 77.808594 83.074219 74.855469 83.042969 C 72.539062 82.996094 70.214844 82.578125 67.96875 81.738281 C 67.886719 81.707031 67.886719 81.707031 67.800781 81.675781 C 66.914062 81.34375 65.984375 80.824219 65.300781 79.882812 C 65.261719 79.832031 65.222656 79.777344 65.183594 79.726562 C 64.980469 79.425781 64.910156 79.261719 64.890625 78.828125 C 64.902344 78.242188 64.960938 77.667969 65.019531 77.09375 C 65.054688 76.707031 65.09375 76.320312 65.128906 75.933594 C 65.136719 75.847656 65.144531 75.761719 65.152344 75.671875 C 65.273438 74.410156 65.382812 73.148438 65.492188 71.886719 C 65.503906 71.757812 65.511719 71.628906 65.523438 71.496094 C 65.589844 70.730469 65.65625 69.964844 65.722656 69.199219 C 65.761719 68.769531 65.800781 68.34375 65.835938 67.914062 C 65.863281 67.628906 65.886719 67.34375 65.910156 67.058594 C 65.941406 66.695312 65.972656 66.332031 66.003906 65.96875 C 66.078125 65.140625 66.148438 64.3125 66.21875 63.480469 C 66.386719 61.515625 66.558594 59.554688 66.777344 57.597656 C 66.828125 57.152344 66.875 56.703125 66.917969 56.253906 C 67.0625 54.679688 67.257812 53.136719 67.488281 51.585938 C 67.503906 51.472656 67.523438 51.355469 67.539062 51.238281 C 67.847656 49.152344 68.179688 47.078125 68.554688 45.019531 C 68.574219 44.910156 68.59375 44.796875 68.617188 44.683594 C 68.996094 42.601562 69.417969 40.46875 69.996094 38.488281 C 70.167969 37.894531 70.25 37.367188 70.246094 36.71875 C 70.25 36.660156 70.253906 36.597656 70.253906 36.535156 C 70.277344 35.71875 70.167969 34.929688 70.066406 34.132812 C 70.035156 33.882812 70.007812 33.632812 69.976562 33.386719 C 69.835938 32.207031 69.660156 31.042969 69.464844 29.882812 C 69.410156 29.910156 69.351562 29.9375 69.292969 29.964844 C 69.183594 30.019531 69.183594 30.019531 69.066406 30.070312 C 68.957031 30.125 68.957031 30.125 68.84375 30.179688 C 68.421875 30.359375 68.023438 30.390625 67.585938 30.394531 C 67.503906 30.398438 67.503906 30.398438 67.417969 30.402344 C 66.964844 30.40625 66.605469 30.308594 66.242188 29.886719 C 65.628906 28.863281 65.195312 27.523438 65.214844 26.128906 C 65.351562 23.789062 66.085938 21.230469 66.992188 19.335938 C 67.019531 19.277344 67.046875 19.21875 67.078125 19.160156 C 67.652344 18.039062 69.054688 17.167969 69.921875 17.96875 Z M 69.921875 17.96875 "/>
<path style=" stroke:none;fill-rule:nonzero;fill:rgb(99.607843%,61.960787%,73.333335%);fill-opacity:1;" d="M 20.832031 16.40625 C 20.851562 16.484375 20.867188 16.558594 20.882812 16.640625 C 21.363281 18.84375 21.363281 18.84375 22.070312 20.898438 C 22.109375 20.992188 22.109375 20.992188 22.148438 21.085938 C 23.339844 23.953125 23.339844 23.953125 25.066406 25.976562 C 25.324219 25.886719 25.503906 25.667969 25.707031 25.414062 C 25.792969 25.308594 25.792969 25.308594 25.878906 25.203125 C 25.933594 25.136719 25.988281 25.070312 26.042969 25 C 26.105469 24.921875 26.105469 24.921875 26.167969 24.847656 C 26.464844 24.480469 26.707031 24.070312 26.953125 23.632812 C 27.027344 23.503906 27.027344 23.503906 27.105469 23.375 C 28.285156 21.3125 29.011719 18.988281 29.558594 16.40625 C 30.15625 16.4375 30.679688 16.621094 31.25 16.894531 C 31.25 16.960938 31.25 17.027344 31.25 17.097656 C 31.246094 17.746094 31.242188 18.394531 31.238281 19.042969 C 31.238281 19.378906 31.238281 19.710938 31.234375 20.042969 C 31.222656 22.269531 31.328125 24.4375 31.554688 26.632812 C 31.609375 27.460938 31.558594 28.183594 31.425781 28.992188 C 31.398438 29.148438 31.398438 29.148438 31.375 29.308594 C 31.3125 29.695312 31.25 30.082031 31.183594 30.46875 C 31.171875 30.554688 31.15625 30.636719 31.140625 30.726562 C 31 31.589844 30.855469 32.457031 30.710938 33.324219 C 30.6875 33.460938 30.6875 33.460938 30.664062 33.601562 C 30.632812 33.773438 30.605469 33.945312 30.574219 34.121094 C 30.4375 34.945312 30.386719 35.6875 30.382812 36.542969 C 30.382812 36.65625 30.378906 36.769531 30.378906 36.886719 C 30.371094 38.433594 30.683594 39.898438 30.96875 41.371094 C 31.046875 41.789062 31.125 42.203125 31.203125 42.621094 C 31.21875 42.703125 31.234375 42.785156 31.25 42.867188 C 31.664062 45.054688 31.96875 47.238281 32.179688 49.488281 C 32.183594 49.566406 32.191406 49.640625 32.199219 49.714844 C 32.367188 51.519531 32.511719 53.324219 32.660156 55.132812 C 33.257812 62.503906 33.257812 62.503906 34.125 69.816406 C 34.171875 70.152344 34.214844 70.492188 34.257812 70.832031 C 34.644531 73.789062 35.175781 76.710938 35.753906 79.59375 C 35.78125 79.714844 35.78125 79.714844 35.804688 79.835938 C 35.832031 79.984375 35.863281 80.132812 35.894531 80.28125 C 35.980469 80.703125 36.035156 81.105469 36.066406 81.542969 C 35.992188 81.621094 35.917969 81.699219 35.839844 81.773438 C 35.796875 81.816406 35.753906 81.859375 35.710938 81.90625 C 35.203125 82.292969 34.664062 82.253906 34.109375 82.246094 C 33.964844 82.246094 33.820312 82.246094 33.679688 82.246094 C 33.167969 82.242188 32.667969 82.210938 32.160156 82.128906 C 31.179688 81.996094 30.351562 82.355469 29.425781 82.8125 C 27.90625 83.550781 26.484375 83.773438 24.933594 83.105469 C 24.855469 83.070312 24.777344 83.039062 24.699219 83.003906 C 24.34375 82.851562 23.988281 82.695312 23.632812 82.535156 C 23.003906 82.253906 22.398438 81.992188 21.742188 82 C 21.691406 82 21.640625 82 21.585938 82 C 21.054688 82.011719 20.523438 82.097656 19.996094 82.179688 C 16.335938 82.722656 16.335938 82.722656 14.941406 81.496094 C 14.773438 81.066406 14.898438 80.636719 14.972656 80.175781 C 14.996094 80.042969 14.996094 80.042969 15.015625 79.902344 C 15.058594 79.621094 15.105469 79.339844 15.152344 79.058594 C 15.371094 77.710938 15.566406 76.359375 15.753906 75 C 15.765625 74.917969 15.777344 74.835938 15.789062 74.75 C 15.871094 74.183594 15.945312 73.617188 16.015625 73.046875 C 16.03125 72.925781 16.046875 72.800781 16.0625 72.675781 C 16.578125 68.59375 16.957031 64.480469 17.335938 60.363281 C 17.339844 60.289062 17.347656 60.214844 17.355469 60.136719 C 17.578125 57.675781 17.796875 55.210938 18 52.742188 C 18.3125 48.898438 18.703125 45.136719 19.476562 41.429688 C 20.027344 38.792969 20.1875 36.195312 19.726562 33.496094 C 19.703125 33.367188 19.683594 33.242188 19.660156 33.113281 C 19.550781 32.453125 19.4375 31.789062 19.320312 31.128906 C 19.191406 30.371094 19.058594 29.609375 18.941406 28.84375 C 18.929688 28.761719 18.914062 28.679688 18.902344 28.597656 C 18.75 27.605469 18.832031 26.667969 18.910156 25.664062 C 18.917969 25.542969 18.925781 25.421875 18.933594 25.296875 C 19 24.386719 19 24.386719 19.042969 24.039062 C 19.085938 23.636719 19.097656 23.234375 19.113281 22.824219 C 19.113281 22.738281 19.117188 22.648438 19.121094 22.558594 C 19.152344 21.425781 19.148438 20.292969 19.144531 19.160156 C 19.144531 18.9375 19.144531 18.714844 19.144531 18.496094 C 19.144531 17.960938 19.140625 17.429688 19.140625 16.894531 C 19.234375 16.847656 19.328125 16.800781 19.421875 16.753906 C 19.472656 16.726562 19.523438 16.699219 19.578125 16.671875 C 19.75 16.589844 19.917969 16.53125 20.097656 16.484375 C 20.152344 16.46875 20.210938 16.453125 20.269531 16.4375 C 20.457031 16.402344 20.640625 16.402344 20.832031 16.40625 Z M 20.832031 16.40625 "/>
<path style=" stroke:none;fill-rule:nonzero;fill:rgb(96.470588%,40.392157%,55.29412%);fill-opacity:1;" d="M 79.816406 17.871094 C 79.882812 17.917969 79.882812 17.917969 79.949219 17.96875 C 79.625 20.234375 79.164062 23.324219 77.800781 24.707031 C 77.0625 25.28125 76.050781 25.226562 75.246094 25.21875 C 75.199219 25.21875 75.15625 25.21875 75.113281 25.21875 C 72.546875 25.203125 72.546875 25.203125 71.941406 24.316406 C 71.183594 23.035156 70.816406 21.242188 70.507812 19.628906 C 70.484375 19.519531 70.464844 19.40625 70.441406 19.292969 C 70.351562 18.84375 70.285156 18.445312 70.3125 17.96875 C 70.605469 18.113281 70.75 18.464844 70.898438 18.847656 C 70.996094 19.207031 71.074219 19.574219 71.148438 19.945312 C 71.167969 20.042969 71.1875 20.140625 71.207031 20.238281 C 71.355469 20.949219 71.355469 20.949219 71.355469 21.289062 C 73.78125 21.257812 76.210938 21.226562 78.710938 21.191406 C 78.839844 20.578125 78.96875 19.96875 79.101562 19.335938 C 79.289062 18.671875 79.425781 18.28125 79.816406 17.871094 Z M 79.816406 17.871094 "/>
<path style=" stroke:none;fill-rule:nonzero;fill:rgb(99.607843%,62.7451%,70.980394%);fill-opacity:1;" d="M 44.597656 16.308594 C 44.660156 16.375 44.726562 16.4375 44.792969 16.503906 C 44.683594 16.503906 44.578125 16.503906 44.464844 16.503906 C 44.464844 16.570312 44.464844 16.632812 44.464844 16.699219 C 44.390625 16.691406 44.390625 16.691406 44.316406 16.683594 C 43.890625 16.664062 43.59375 16.703125 43.21875 17.015625 C 43.097656 17.089844 43.097656 17.089844 42.902344 16.992188 C 43.449219 16.5625 43.964844 16.183594 44.597656 16.308594 Z M 44.597656 16.308594 "/>
<path style=" stroke:none;fill-rule:nonzero;fill:rgb(99.607843%,61.960787%,70.980394%);fill-opacity:1;" d="M 60.089844 23.535156 C 60.300781 23.800781 60.410156 24.140625 60.53125 24.5 C 60.550781 24.558594 60.574219 24.617188 60.59375 24.679688 C 60.691406 24.960938 60.742188 25.160156 60.730469 25.476562 C 60.675781 25.683594 60.675781 25.683594 60.546875 25.78125 C 60.542969 25.660156 60.542969 25.539062 60.539062 25.414062 C 60.5 24.871094 60.347656 24.449219 60.175781 23.976562 C 60.089844 23.730469 60.089844 23.730469 60.089844 23.535156 Z M 60.089844 23.535156 "/>
<path style=" stroke:none;fill-rule:nonzero;fill:rgb(100%,62.7451%,70.980394%);fill-opacity:1;" d="M 39.257812 24.511719 C 39.28125 24.578125 39.300781 24.640625 39.324219 24.707031 C 39.304688 24.757812 39.28125 24.8125 39.261719 24.867188 C 39.160156 25.207031 39.183594 25.503906 39.191406 25.878906 C 39.089844 25.769531 39.089844 25.769531 38.996094 25.585938 C 39.011719 25.15625 39.097656 24.867188 39.257812 24.511719 Z M 39.257812 24.511719 "/>
<path style=" stroke:none;fill-rule:nonzero;fill:rgb(100%,58.431375%,70.19608%);fill-opacity:1;" d="M 67.511719 18.554688 C 67.511719 18.847656 67.511719 18.847656 67.398438 19.046875 C 67.351562 19.117188 67.300781 19.183594 67.253906 19.257812 C 67.203125 19.328125 67.15625 19.394531 67.105469 19.46875 C 67.070312 19.519531 67.03125 19.574219 66.992188 19.628906 C 66.992188 19.207031 67.132812 19.054688 67.316406 18.75 C 67.382812 18.6875 67.445312 18.621094 67.511719 18.554688 Z M 67.511719 18.554688 "/>
<path style=" stroke:none;fill-rule:nonzero;fill:rgb(100%,63.529414%,71.372551%);fill-opacity:1;" d="M 44.597656 22.460938 C 44.617188 22.460938 44.640625 22.460938 44.660156 22.460938 C 44.660156 22.914062 44.660156 23.363281 44.660156 23.828125 C 44.640625 23.828125 44.617188 23.828125 44.597656 23.828125 C 44.585938 23.753906 44.578125 23.679688 44.566406 23.601562 C 44.535156 23.332031 44.535156 23.332031 44.464844 23.046875 C 44.527344 22.734375 44.527344 22.734375 44.597656 22.460938 Z M 44.597656 22.460938 "/>
</g>
</svg>
