<?xml version="1.0" encoding="UTF-8"?>
<svg xmlns="http://www.w3.org/2000/svg" xmlns:xlink="http://www.w3.org/1999/xlink" width="100px" height="100px" viewBox="0 0 100 100" version="1.1">
<g id="surface1">
<path style=" stroke:none;fill-rule:nonzero;fill:rgb(99.607843%,99.607843%,99.607843%);fill-opacity:1;" d="M 0 0 C 33 0 66 0 100 0 C 100 33 100 66 100 100 C 67 100 34 100 0 100 C 0 67 0 34 0 0 Z M 0 0 "/>
<path style=" stroke:none;fill-rule:nonzero;fill:rgb(99.607843%,56.078434%,73.725492%);fill-opacity:1;" d="M 84.800781 39.324219 C 84.886719 39.324219 84.886719 39.324219 84.972656 39.328125 C 86.367188 39.363281 87.46875 40.058594 88.476562 41.503906 C 88.515625 41.558594 88.554688 41.609375 88.597656 41.664062 C 89.570312 43.019531 90.101562 44.917969 90.496094 46.777344 C 90.519531 46.890625 90.542969 47.007812 90.570312 47.125 C 90.699219 47.75 90.792969 48.378906 90.863281 49.023438 C 90.871094 49.089844 90.878906 49.15625 90.886719 49.226562 C 91.363281 53.683594 91.105469 59.460938 89.300781 63.214844 C 88.414062 65.003906 87.417969 66.109375 85.945312 66.5625 C 84.660156 66.816406 83.238281 66.507812 82.183594 65.304688 C 82.027344 65.109375 81.878906 64.902344 81.734375 64.6875 C 81.574219 64.445312 81.574219 64.445312 81.382812 64.222656 C 80.085938 62.621094 79.527344 59.59375 79.230469 57.226562 C 79.222656 57.148438 79.210938 57.074219 79.203125 56.992188 C 78.824219 53.835938 78.957031 50.460938 79.492188 47.363281 C 79.503906 47.292969 79.515625 47.226562 79.527344 47.15625 C 79.867188 45.179688 80.4375 43.457031 81.316406 41.894531 C 81.378906 41.78125 81.378906 41.78125 81.441406 41.664062 C 82.300781 40.148438 83.46875 39.3125 84.800781 39.324219 Z M 84.800781 39.324219 "/>
<path style=" stroke:none;fill-rule:nonzero;fill:rgb(99.607843%,58.431375%,75.294119%);fill-opacity:1;" d="M 71.207031 37.847656 C 71.277344 37.847656 71.347656 37.84375 71.417969 37.84375 C 72.144531 37.84375 72.546875 38.230469 73.066406 38.96875 C 73.632812 39.855469 73.9375 41.042969 74 42.253906 C 73.988281 42.777344 73.867188 43.011719 73.625 43.371094 C 73.367188 43.757812 73.199219 44.148438 73.136719 44.691406 C 73.203125 45.242188 73.382812 45.480469 73.675781 45.789062 C 73.8125 45.921875 73.949219 46.054688 74.085938 46.1875 C 74.636719 46.746094 75.050781 47.449219 75.457031 48.242188 C 75.496094 48.320312 75.535156 48.398438 75.578125 48.480469 C 76.917969 51.210938 77.3125 54.796875 77 58.097656 C 76.703125 60.972656 75.980469 63.394531 74.414062 65.234375 C 74.183594 65.445312 73.949219 65.585938 73.699219 65.722656 C 73.652344 65.746094 73.609375 65.769531 73.5625 65.796875 C 73.21875 65.976562 72.875 66.152344 72.527344 66.308594 C 72.464844 66.339844 72.464844 66.339844 72.398438 66.367188 C 71.933594 66.554688 71.453125 66.539062 70.976562 66.539062 C 70.828125 66.539062 70.679688 66.542969 70.527344 66.546875 C 69.683594 66.558594 68.902344 66.351562 68.148438 65.753906 C 68.105469 65.71875 68.0625 65.6875 68.015625 65.652344 C 67.609375 65.328125 67.265625 64.921875 66.925781 64.453125 C 66.878906 64.386719 66.828125 64.316406 66.777344 64.246094 C 65.867188 62.945312 65.328125 61.519531 65.066406 59.671875 C 65.050781 59.542969 65.03125 59.410156 65.007812 59.28125 C 64.726562 57.460938 64.742188 55.523438 65.039062 53.710938 C 65.050781 53.644531 65.058594 53.582031 65.070312 53.511719 C 65.472656 50.984375 66.410156 48.933594 67.550781 47.03125 C 67.632812 46.894531 67.710938 46.753906 67.789062 46.613281 C 68.121094 46.019531 68.511719 45.464844 69.011719 45.214844 C 69.042969 44.910156 69.050781 44.640625 69.011719 44.335938 C 68.898438 44.113281 68.769531 43.941406 68.632812 43.75 C 68.292969 43.28125 68.078125 42.824219 68.054688 42.121094 C 68.097656 40.976562 68.441406 39.976562 68.878906 39.0625 C 68.921875 38.96875 68.921875 38.96875 68.96875 38.875 C 69.46875 37.890625 70.445312 37.839844 71.207031 37.847656 Z M 71.207031 37.847656 "/>
<path style=" stroke:none;fill-rule:nonzero;fill:rgb(99.607843%,52.941179%,70.980394%);fill-opacity:1;" d="M 14.523438 33.734375 C 14.566406 33.730469 14.613281 33.730469 14.660156 33.726562 C 14.917969 33.726562 15.03125 33.777344 15.234375 34.023438 C 15.363281 34.277344 15.363281 34.277344 15.363281 34.472656 C 15.417969 34.46875 15.476562 34.46875 15.53125 34.464844 C 15.957031 34.457031 16.332031 34.457031 16.730469 34.667969 C 16.796875 34.699219 16.863281 34.734375 16.929688 34.765625 C 17.417969 35.027344 17.820312 35.355469 18.230469 35.839844 C 18.28125 35.898438 18.335938 35.957031 18.390625 36.019531 C 19.871094 37.914062 20.519531 41.144531 21.027344 43.847656 C 21.039062 43.773438 21.050781 43.695312 21.066406 43.617188 C 21.300781 42.261719 21.714844 40.070312 22.527344 39.257812 C 22.839844 39.171875 23.128906 39.152344 23.40625 39.410156 C 23.53125 39.578125 23.648438 39.75 23.761719 39.941406 C 23.722656 40.304688 23.613281 40.535156 23.472656 40.839844 C 22.871094 42.242188 22.46875 43.96875 22.265625 45.605469 C 22.253906 45.695312 22.242188 45.785156 22.230469 45.878906 C 22.035156 47.496094 21.921875 49.074219 21.917969 50.714844 C 21.917969 50.789062 21.917969 50.863281 21.917969 50.9375 C 21.917969 53.011719 22.042969 55.144531 22.460938 57.128906 C 22.476562 57.203125 22.492188 57.277344 22.507812 57.355469 C 23.113281 60.199219 24.039062 62.554688 25.847656 63.964844 C 26.148438 64.171875 26.375 64.199219 26.691406 64.0625 C 28.050781 63.179688 28.933594 61.375 29.492188 59.375 C 29.867188 57.910156 30.101562 56.441406 30.25 54.890625 C 30.261719 54.761719 30.261719 54.761719 30.273438 54.632812 C 30.738281 49.382812 30.480469 43.082031 28.304688 38.703125 C 27.808594 37.746094 27.257812 36.898438 26.496094 36.425781 C 26.410156 36.425781 26.324219 36.425781 26.238281 36.425781 C 26.210938 36.515625 26.1875 36.605469 26.160156 36.699219 C 25.996094 37.128906 25.824219 37.25 25.519531 37.402344 C 25.128906 37.445312 24.75 37.484375 24.378906 37.269531 C 24.152344 36.902344 23.894531 36.359375 23.894531 35.839844 C 23.84375 35.84375 23.789062 35.84375 23.738281 35.847656 C 23.296875 35.859375 22.929688 35.847656 22.527344 35.546875 C 22.527344 35.320312 22.527344 35.320312 22.589844 35.058594 C 22.957031 34.808594 23.292969 34.710938 23.695312 34.660156 C 23.871094 34.640625 24.042969 34.609375 24.21875 34.570312 C 24.242188 34.507812 24.261719 34.441406 24.285156 34.375 C 24.710938 34.097656 25.195312 33.941406 25.652344 34.136719 C 25.816406 34.234375 25.949219 34.332031 26.070312 34.527344 C 26.203125 34.710938 26.285156 34.707031 26.460938 34.71875 C 26.519531 34.722656 26.578125 34.726562 26.636719 34.734375 C 26.695312 34.738281 26.757812 34.742188 26.820312 34.746094 C 27.398438 34.8125 27.828125 34.960938 28.320312 35.449219 C 28.390625 35.515625 28.460938 35.578125 28.53125 35.644531 C 30.449219 37.472656 31.332031 41.261719 31.8125 44.425781 C 31.851562 44.695312 31.886719 44.96875 31.921875 45.238281 C 31.929688 45.316406 31.941406 45.394531 31.949219 45.472656 C 32.140625 47.125 32.183594 48.773438 32.179688 50.445312 C 32.179688 50.773438 32.179688 51.101562 32.179688 51.429688 C 32.179688 53.113281 32.136719 54.796875 31.90625 56.453125 C 31.894531 56.535156 31.882812 56.621094 31.871094 56.710938 C 31.839844 56.949219 31.804688 57.183594 31.769531 57.421875 C 31.753906 57.53125 31.738281 57.636719 31.722656 57.75 C 31.269531 60.691406 30.421875 63.710938 28.664062 65.371094 C 28.304688 65.695312 27.949219 65.953125 27.539062 66.113281 C 27.488281 66.136719 27.4375 66.15625 27.386719 66.179688 C 26.1875 66.621094 25 66.164062 23.953125 65.253906 C 23.277344 64.621094 22.773438 63.769531 22.332031 62.792969 C 22.28125 62.6875 22.234375 62.582031 22.183594 62.472656 C 21.550781 61.03125 21.183594 59.34375 20.832031 57.714844 C 20.816406 57.808594 20.800781 57.90625 20.78125 58.003906 C 20.394531 60.132812 19.84375 62.175781 18.878906 63.867188 C 18.847656 63.933594 18.8125 64 18.78125 64.070312 C 18.234375 65.128906 17.089844 66.011719 16.21875 66.191406 C 15.9375 66.230469 15.660156 66.234375 15.375 66.234375 C 15.285156 66.238281 15.285156 66.238281 15.191406 66.242188 C 13.90625 66.253906 12.855469 65.136719 11.964844 63.851562 C 9.882812 60.585938 9.425781 55.277344 9.417969 50.976562 C 9.417969 50.898438 9.417969 50.820312 9.417969 50.738281 C 9.414062 46.792969 9.882812 41.707031 11.71875 38.671875 C 11.96875 38.738281 12.160156 38.914062 12.378906 39.105469 C 12.445312 39.164062 12.515625 39.226562 12.585938 39.289062 C 12.761719 39.453125 12.761719 39.453125 12.890625 39.648438 C 12.878906 40.140625 12.683594 40.539062 12.519531 40.953125 C 11.558594 43.496094 11.0625 46.46875 11.054688 49.386719 C 11.054688 49.535156 11.054688 49.535156 11.054688 49.683594 C 11.054688 49.890625 11.050781 50.097656 11.050781 50.304688 C 11.050781 50.613281 11.050781 50.921875 11.046875 51.230469 C 11.042969 52.535156 11.113281 53.789062 11.261719 55.078125 C 11.269531 55.148438 11.277344 55.214844 11.285156 55.285156 C 11.609375 58.136719 12.324219 61.222656 13.917969 63.023438 C 14.6875 63.84375 14.6875 63.84375 15.589844 64.109375 C 16.527344 63.847656 17.394531 62.582031 17.917969 61.445312 C 20.007812 56.683594 20.046875 49.921875 19.308594 44.496094 C 19.0625 42.765625 18.707031 41.105469 18.160156 39.53125 C 18.132812 39.457031 18.109375 39.382812 18.082031 39.304688 C 17.6875 38.214844 17.214844 37.511719 16.527344 36.839844 C 16.488281 36.804688 16.449219 36.765625 16.410156 36.726562 C 16.023438 36.355469 15.761719 36.203125 15.300781 36.230469 C 15.285156 36.304688 15.269531 36.375 15.253906 36.449219 C 15.144531 36.796875 15.070312 36.921875 14.84375 37.109375 C 14.46875 37.179688 14.082031 37.171875 13.738281 36.914062 C 13.558594 36.671875 13.558594 36.671875 13.410156 36.425781 C 13.367188 36.359375 13.324219 36.296875 13.28125 36.230469 C 13.273438 35.925781 13.273438 35.925781 13.28125 35.644531 C 13.226562 35.644531 13.226562 35.644531 13.171875 35.648438 C 13.003906 35.652344 12.839844 35.652344 12.675781 35.65625 C 12.589844 35.660156 12.589844 35.660156 12.5 35.660156 C 12.445312 35.664062 12.390625 35.664062 12.332031 35.664062 C 12.28125 35.664062 12.230469 35.664062 12.179688 35.667969 C 12.042969 35.644531 12.042969 35.644531 11.847656 35.449219 C 11.835938 35.191406 11.835938 35.191406 11.847656 34.960938 C 12.390625 34.671875 12.964844 34.53125 13.542969 34.570312 C 13.542969 34.515625 13.546875 34.457031 13.550781 34.398438 C 13.707031 33.789062 14.136719 33.726562 14.523438 33.734375 Z M 14.523438 33.734375 "/>
<path style=" stroke:none;fill-rule:nonzero;fill:rgb(99.607843%,50.588238%,70.588237%);fill-opacity:1;" d="M 41.667969 51.367188 C 42.214844 51.558594 42.636719 51.71875 42.96875 52.441406 C 43.253906 53.261719 43.292969 53.988281 43.164062 54.882812 C 43.203125 54.898438 43.246094 54.917969 43.289062 54.933594 C 44.015625 55.242188 44.433594 55.589844 44.855469 56.542969 C 44.882812 56.847656 44.882812 56.847656 44.898438 57.195312 C 44.90625 57.367188 44.90625 57.367188 44.914062 57.546875 C 44.917969 57.675781 44.917969 57.675781 44.921875 57.8125 C 44.988281 57.816406 45.050781 57.820312 45.121094 57.824219 C 46.179688 57.894531 46.179688 57.894531 46.601562 58.582031 C 46.753906 58.863281 46.886719 59.109375 46.941406 59.472656 C 46.921875 59.636719 46.898438 59.796875 46.875 59.960938 C 46.890625 60.191406 46.914062 60.417969 46.941406 60.644531 C 47.089844 60.59375 47.226562 60.53125 47.371094 60.441406 C 47.757812 60.28125 48.105469 60.289062 48.492188 60.46875 C 48.824219 60.753906 49.058594 61.15625 49.285156 61.621094 C 49.285156 61.6875 49.285156 61.75 49.285156 61.816406 C 49.316406 61.769531 49.347656 61.722656 49.382812 61.675781 C 49.65625 61.296875 49.894531 60.992188 50.261719 60.839844 C 50.402344 60.851562 50.546875 60.863281 50.6875 60.875 C 50.90625 60.894531 50.90625 60.894531 51.105469 60.839844 C 51.246094 60.640625 51.316406 60.449219 51.402344 60.195312 C 51.5625 59.796875 51.816406 59.597656 52.082031 59.375 C 52.125 59.335938 52.167969 59.300781 52.210938 59.261719 C 52.367188 59.164062 52.484375 59.160156 52.652344 59.167969 C 52.703125 59.167969 52.757812 59.171875 52.8125 59.171875 C 52.851562 59.175781 52.890625 59.175781 52.929688 59.179688 C 52.929688 59.242188 52.929688 59.308594 52.929688 59.375 C 53.082031 59.375 53.230469 59.375 53.386719 59.375 C 53.382812 59.285156 53.378906 59.195312 53.375 59.101562 C 53.351562 57.792969 53.351562 57.792969 53.644531 57.226562 C 54.085938 56.566406 54.542969 56.398438 55.144531 56.347656 C 55.140625 56.25 55.140625 56.152344 55.140625 56.050781 C 55.140625 55.921875 55.140625 55.789062 55.140625 55.65625 C 55.136719 55.53125 55.136719 55.402344 55.136719 55.269531 C 55.152344 54.304688 55.152344 54.304688 55.351562 53.925781 C 55.71875 53.433594 56.003906 53.050781 56.511719 53.027344 C 56.582031 53.023438 56.65625 53.019531 56.730469 53.015625 C 57.222656 53.246094 57.644531 53.769531 57.941406 54.394531 C 58.101562 55.105469 57.972656 55.605469 57.773438 56.273438 C 57.597656 56.789062 57.398438 57.042969 57.03125 57.226562 C 56.882812 57.253906 56.734375 57.273438 56.585938 57.289062 C 56.511719 57.292969 56.4375 57.300781 56.359375 57.308594 C 56.300781 57.316406 56.242188 57.320312 56.183594 57.324219 C 56.1875 57.378906 56.1875 57.433594 56.191406 57.488281 C 56.253906 59.410156 56.253906 59.410156 55.914062 59.984375 C 55.875 60.039062 55.835938 60.097656 55.792969 60.15625 C 55.753906 60.222656 55.714844 60.289062 55.675781 60.359375 C 55.394531 60.777344 55.15625 60.875 54.773438 60.886719 C 54.546875 60.882812 54.324219 60.863281 54.101562 60.839844 C 54.101562 60.9375 54.101562 61.039062 54.097656 61.140625 C 54.074219 62.332031 54.074219 62.332031 53.902344 62.652344 C 53.839844 62.730469 53.777344 62.808594 53.710938 62.890625 C 53.679688 62.941406 53.644531 62.992188 53.613281 63.042969 C 53.195312 63.628906 52.628906 63.664062 52.082031 63.769531 C 52.082031 63.835938 52.082031 63.898438 52.082031 63.964844 C 51.710938 63.976562 51.710938 63.976562 51.5625 63.867188 C 51.230469 63.808594 51.230469 63.808594 50.933594 63.972656 C 50.808594 64.242188 50.796875 64.492188 50.769531 64.8125 C 50.757812 64.929688 50.75 65.042969 50.738281 65.164062 C 50.730469 65.25 50.722656 65.339844 50.714844 65.429688 C 50.757812 65.460938 50.796875 65.488281 50.839844 65.519531 C 50.929688 65.589844 51.015625 65.65625 51.105469 65.722656 C 51.25 65.714844 51.390625 65.703125 51.535156 65.6875 C 51.648438 65.671875 51.648438 65.671875 51.765625 65.660156 C 51.945312 65.65625 51.945312 65.65625 52.019531 65.527344 C 52.578125 65.445312 53.101562 65.710938 53.601562 66.078125 C 54.167969 66.828125 54.492188 67.628906 54.546875 68.765625 C 54.609375 70.832031 54.019531 72.148438 53.125 73.632812 C 53.09375 73.683594 53.0625 73.734375 53.03125 73.789062 C 52.339844 74.921875 51.542969 75.628906 50.628906 76.289062 C 50.386719 76.464844 50.160156 76.664062 49.933594 76.882812 C 49.6875 77.015625 49.496094 76.910156 49.261719 76.753906 C 49.082031 76.617188 48.90625 76.472656 48.730469 76.324219 C 48.667969 76.273438 48.601562 76.21875 48.539062 76.164062 C 47.0625 74.921875 45.480469 72.972656 44.957031 70.445312 C 44.898438 70.0625 44.890625 69.695312 44.894531 69.304688 C 44.894531 69.222656 44.894531 69.144531 44.894531 69.058594 C 44.917969 67.976562 45.097656 67.203125 45.609375 66.417969 C 46.148438 65.714844 46.632812 65.585938 47.332031 65.625 C 47.460938 65.65625 47.589844 65.691406 47.722656 65.722656 C 48.039062 65.753906 48.332031 65.78125 48.632812 65.613281 C 48.8125 65.359375 48.890625 65.207031 48.957031 64.84375 C 48.902344 64.492188 48.824219 64.175781 48.699219 63.867188 C 48.375 63.707031 48.039062 63.75 47.703125 63.804688 C 47.054688 63.914062 47.054688 63.914062 46.832031 63.695312 C 46.636719 63.414062 46.539062 63.183594 46.480469 62.792969 C 46.445312 62.558594 46.40625 62.339844 46.355469 62.109375 C 46.289062 62.128906 46.289062 62.128906 46.226562 62.152344 C 45.652344 62.335938 45.242188 62.390625 44.726562 61.914062 C 44.332031 61.371094 44.1875 60.878906 44.164062 60.082031 C 44.160156 59.980469 44.160156 59.980469 44.15625 59.875 C 44.152344 59.710938 44.144531 59.542969 44.140625 59.375 C 44.078125 59.378906 44.011719 59.382812 43.945312 59.390625 C 43.007812 59.4375 43.007812 59.4375 42.644531 58.984375 C 42.320312 58.515625 42.046875 58.070312 42.03125 57.371094 C 42.03125 57.289062 42.027344 57.207031 42.027344 57.125 C 42.023438 57.039062 42.023438 56.953125 42.019531 56.867188 C 42.015625 56.695312 42.011719 56.527344 42.007812 56.359375 C 42.007812 56.285156 42.003906 56.210938 42.003906 56.132812 C 42.003906 55.953125 42.003906 55.953125 41.925781 55.859375 C 41.839844 55.855469 41.753906 55.851562 41.667969 55.847656 C 41.238281 55.78125 40.933594 55.398438 40.664062 54.914062 C 40.410156 54.367188 40.382812 53.835938 40.457031 53.195312 C 40.566406 52.5625 40.792969 52.222656 41.144531 51.855469 C 41.484375 51.5625 41.484375 51.5625 41.667969 51.5625 C 41.667969 51.5 41.667969 51.433594 41.667969 51.367188 Z M 41.667969 51.367188 "/>
<path style=" stroke:none;fill-rule:nonzero;fill:rgb(99.607843%,99.607843%,99.607843%);fill-opacity:1;" d="M 84.894531 41.210938 C 85.417969 41.597656 85.84375 42.171875 86.261719 42.773438 C 86.332031 42.871094 86.332031 42.871094 86.402344 42.96875 C 87.882812 45.085938 88.472656 48.589844 88.554688 51.5625 C 88.5625 51.953125 88.5625 52.34375 88.5625 52.734375 C 88.5625 52.804688 88.5625 52.871094 88.5625 52.945312 C 88.550781 56.789062 87.992188 60.703125 86.171875 63.554688 C 85.339844 64.757812 85.339844 64.757812 84.761719 64.832031 C 84.097656 64.75 83.550781 63.796875 83.136719 63.085938 C 82.988281 62.773438 82.867188 62.445312 82.746094 62.109375 C 82.695312 61.976562 82.644531 61.84375 82.59375 61.710938 C 81 57.59375 80.867188 52.269531 81.65625 47.722656 C 82.097656 45.359375 82.894531 42.746094 84.289062 41.324219 C 84.519531 41.152344 84.640625 41.148438 84.894531 41.210938 Z M 84.894531 41.210938 "/>
<path style=" stroke:none;fill-rule:nonzero;fill:rgb(99.607843%,99.607843%,99.607843%);fill-opacity:1;" d="M 72.453125 48.246094 C 72.71875 48.480469 72.910156 48.789062 73.09375 49.160156 C 73.222656 49.40625 73.378906 49.605469 73.53125 49.816406 C 73.824219 50.265625 74.066406 50.738281 74.285156 51.269531 C 74.328125 51.378906 74.328125 51.378906 74.375 51.488281 C 74.65625 52.242188 74.757812 53.070312 74.871094 53.90625 C 74.882812 54.011719 74.898438 54.117188 74.914062 54.222656 C 75.265625 57.050781 74.855469 59.945312 73.808594 62.335938 C 73.144531 63.667969 72.339844 64.570312 71.222656 64.84375 C 70.53125 64.972656 69.800781 64.730469 69.207031 64.171875 C 69.046875 63.984375 68.898438 63.785156 68.75 63.574219 C 68.691406 63.496094 68.691406 63.496094 68.628906 63.417969 C 67.582031 61.976562 66.894531 59.574219 66.785156 57.460938 C 66.734375 55.488281 66.925781 53.914062 67.511719 52.148438 C 67.550781 52.035156 67.585938 51.917969 67.625 51.800781 C 68.550781 49.0625 70.335938 47.109375 72.453125 48.246094 Z M 72.453125 48.246094 "/>
<path style=" stroke:none;fill-rule:nonzero;fill:rgb(99.607843%,93.725491%,95.686275%);fill-opacity:1;" d="M 26.496094 76.855469 C 26.597656 76.863281 26.597656 76.863281 26.695312 76.871094 C 28.136719 76.984375 29.574219 77.121094 31.007812 77.351562 C 31.058594 77.359375 31.109375 77.367188 31.160156 77.375 C 31.304688 77.398438 31.445312 77.421875 31.589844 77.445312 C 31.667969 77.457031 31.75 77.472656 31.832031 77.484375 C 32.011719 77.535156 32.136719 77.59375 32.292969 77.734375 C 31.683594 77.949219 31.09375 78.09375 30.472656 78.171875 C 30.386719 78.1875 30.300781 78.199219 30.210938 78.210938 C 29.976562 78.242188 29.742188 78.269531 29.507812 78.300781 C 29.359375 78.320312 29.210938 78.339844 29.0625 78.359375 C 27.902344 78.515625 26.746094 78.632812 25.582031 78.667969 C 25.523438 78.671875 25.46875 78.671875 25.410156 78.675781 C 24.0625 78.71875 22.710938 78.734375 21.363281 78.734375 C 21.300781 78.734375 21.238281 78.734375 21.175781 78.734375 C 18.777344 78.738281 16.390625 78.632812 13.996094 78.417969 C 13.847656 78.40625 13.695312 78.390625 13.542969 78.378906 C 13.132812 78.34375 12.726562 78.304688 12.316406 78.265625 C 12.226562 78.257812 12.226562 78.257812 12.136719 78.25 C 10.28125 78.066406 10.28125 78.066406 9.894531 77.734375 C 12.046875 76.199219 15.699219 76.871094 18.035156 76.757812 C 18.09375 76.753906 18.152344 76.75 18.214844 76.75 C 20.980469 76.613281 23.734375 76.636719 26.496094 76.855469 Z M 26.496094 76.855469 "/>
<path style=" stroke:none;fill-rule:nonzero;fill:rgb(99.607843%,66.666669%,82.352942%);fill-opacity:1;" d="M 56.730469 53.015625 C 57.222656 53.246094 57.644531 53.769531 57.941406 54.394531 C 58.101562 55.105469 57.972656 55.605469 57.773438 56.273438 C 57.597656 56.789062 57.398438 57.042969 57.03125 57.226562 C 56.882812 57.253906 56.734375 57.273438 56.585938 57.289062 C 56.511719 57.292969 56.4375 57.300781 56.359375 57.308594 C 56.300781 57.316406 56.242188 57.320312 56.183594 57.324219 C 56.1875 57.378906 56.1875 57.433594 56.191406 57.488281 C 56.253906 59.410156 56.253906 59.410156 55.914062 59.984375 C 55.875 60.039062 55.835938 60.097656 55.792969 60.15625 C 55.753906 60.222656 55.714844 60.289062 55.675781 60.359375 C 55.394531 60.777344 55.15625 60.875 54.773438 60.886719 C 54.546875 60.882812 54.324219 60.863281 54.101562 60.839844 C 54.101562 60.9375 54.101562 61.039062 54.097656 61.140625 C 54.074219 62.332031 54.074219 62.332031 53.902344 62.652344 C 53.839844 62.730469 53.777344 62.808594 53.710938 62.890625 C 53.679688 62.941406 53.644531 62.992188 53.613281 63.042969 C 53.195312 63.628906 52.628906 63.664062 52.082031 63.769531 C 52.082031 63.835938 52.082031 63.898438 52.082031 63.964844 C 51.722656 63.992188 51.390625 63.886719 51.042969 63.769531 C 51.207031 63.519531 51.332031 63.519531 51.5625 63.476562 C 51.539062 62.917969 51.488281 62.507812 51.300781 62.011719 C 51.300781 61.945312 51.300781 61.882812 51.300781 61.816406 C 51.257812 61.816406 51.214844 61.816406 51.171875 61.816406 C 51.105469 61.71875 51.042969 61.621094 50.976562 61.523438 C 50.785156 61.429688 50.652344 61.417969 50.457031 61.425781 C 50.433594 61.359375 50.414062 61.296875 50.390625 61.230469 C 50.027344 61.304688 50.027344 61.304688 49.675781 61.425781 C 50.003906 60.894531 50.003906 60.894531 50.261719 60.839844 C 50.398438 60.855469 50.539062 60.871094 50.675781 60.890625 C 50.984375 60.90625 50.984375 60.90625 51.226562 60.664062 C 51.289062 60.511719 51.347656 60.355469 51.402344 60.195312 C 51.5625 59.796875 51.816406 59.597656 52.082031 59.375 C 52.125 59.335938 52.167969 59.300781 52.210938 59.261719 C 52.367188 59.164062 52.484375 59.160156 52.652344 59.167969 C 52.703125 59.167969 52.757812 59.171875 52.8125 59.171875 C 52.851562 59.175781 52.890625 59.175781 52.929688 59.179688 C 52.929688 59.242188 52.929688 59.308594 52.929688 59.375 C 53.082031 59.375 53.230469 59.375 53.386719 59.375 C 53.382812 59.285156 53.378906 59.195312 53.375 59.101562 C 53.351562 57.792969 53.351562 57.792969 53.644531 57.226562 C 54.085938 56.566406 54.542969 56.398438 55.144531 56.347656 C 55.140625 56.25 55.140625 56.152344 55.140625 56.050781 C 55.140625 55.921875 55.140625 55.789062 55.140625 55.65625 C 55.136719 55.53125 55.136719 55.402344 55.136719 55.269531 C 55.152344 54.304688 55.152344 54.304688 55.351562 53.925781 C 55.820312 53.300781 56.113281 53.050781 56.730469 53.015625 Z M 56.730469 53.015625 "/>
<path style=" stroke:none;fill-rule:nonzero;fill:rgb(99.607843%,66.666669%,82.352942%);fill-opacity:1;" d="M 57.824219 25.148438 C 58.292969 25.710938 58.398438 26.480469 58.464844 27.34375 C 58.472656 27.425781 58.480469 27.507812 58.488281 27.59375 C 58.453125 27.949219 58.328125 28.058594 58.144531 28.285156 C 57.957031 28.519531 57.820312 28.695312 57.683594 29.003906 C 57.789062 28.941406 57.898438 28.878906 58.003906 28.816406 C 58.0625 28.78125 58.125 28.746094 58.183594 28.707031 C 58.328125 28.632812 58.328125 28.632812 58.398438 28.515625 C 58.789062 28.441406 59.144531 28.414062 59.472656 28.765625 C 59.871094 29.300781 60.050781 29.988281 60.15625 30.761719 C 60.164062 31.398438 59.878906 31.835938 59.605469 32.285156 C 59.355469 32.628906 59.058594 32.800781 58.722656 32.828125 C 58.273438 32.792969 57.976562 32.675781 57.65625 32.183594 C 57.367188 31.699219 57.273438 31.292969 57.28125 30.644531 C 57.28125 30.542969 57.28125 30.441406 57.28125 30.335938 C 57.292969 30.078125 57.292969 30.078125 57.355469 29.882812 C 57.367188 29.585938 57.367188 29.585938 57.355469 29.296875 C 57.246094 29.128906 57.082031 29.183594 56.929688 29.175781 C 56.425781 29.117188 56.167969 28.855469 55.800781 28.355469 C 55.558594 27.777344 55.492188 27.046875 55.535156 26.367188 C 55.71875 25.839844 55.992188 25.210938 56.363281 24.953125 C 56.851562 24.78125 57.386719 24.746094 57.824219 25.148438 Z M 57.824219 25.148438 "/>
<path style=" stroke:none;fill-rule:nonzero;fill:rgb(99.607843%,66.274512%,81.960785%);fill-opacity:1;" d="M 48.839844 20.378906 C 49.230469 20.445312 49.59375 20.789062 49.871094 21.191406 C 50.15625 21.761719 50.183594 22.246094 50.128906 22.949219 C 50.085938 23.289062 50.011719 23.539062 49.828125 23.765625 C 49.691406 23.894531 49.554688 24.007812 49.414062 24.121094 C 49.367188 24.167969 49.320312 24.210938 49.269531 24.257812 C 48.925781 24.582031 48.648438 24.726562 48.242188 24.609375 C 48.050781 24.511719 47.890625 24.378906 47.722656 24.21875 C 47.648438 24.148438 47.578125 24.082031 47.5 24.011719 C 47.269531 23.625 47.238281 23.261719 47.199219 22.753906 C 47.113281 22.722656 47.027344 22.6875 46.941406 22.65625 C 46.949219 22.710938 46.960938 22.765625 46.972656 22.824219 C 47.085938 23.5 47.097656 24.007812 46.863281 24.628906 C 46.625 25.15625 46.3125 25.445312 45.898438 25.585938 C 45.417969 25.679688 45.105469 25.601562 44.71875 25.160156 C 44.4375 24.792969 44.289062 24.484375 44.25 23.921875 C 44.234375 23.21875 44.242188 22.710938 44.542969 22.152344 C 44.878906 21.644531 45.128906 21.457031 45.613281 21.4375 C 46.023438 21.460938 46.269531 21.589844 46.585938 21.984375 C 46.753906 22.179688 46.863281 22.230469 47.070312 22.265625 C 47.085938 22.195312 47.105469 22.128906 47.125 22.058594 C 47.148438 21.964844 47.175781 21.871094 47.199219 21.777344 C 47.226562 21.683594 47.25 21.59375 47.273438 21.496094 C 47.445312 21.070312 47.632812 20.761719 47.917969 20.507812 C 48.222656 20.398438 48.527344 20.425781 48.839844 20.378906 Z M 48.839844 20.378906 "/>
<path style=" stroke:none;fill-rule:nonzero;fill:rgb(99.607843%,93.725491%,95.686275%);fill-opacity:1;" d="M 49.199219 82.402344 C 49.449219 82.402344 49.695312 82.402344 49.941406 82.402344 C 53.96875 82.378906 53.96875 82.378906 55.664062 82.910156 C 55.664062 83.039062 55.664062 83.167969 55.664062 83.300781 C 55.375 83.460938 55.101562 83.542969 54.796875 83.601562 C 54.71875 83.613281 54.636719 83.628906 54.554688 83.644531 C 53.648438 83.785156 52.742188 83.804688 51.832031 83.808594 C 51.710938 83.808594 51.585938 83.808594 51.464844 83.8125 C 51.074219 83.8125 50.683594 83.8125 50.292969 83.8125 C 50.226562 83.8125 50.160156 83.8125 50.09375 83.8125 C 48.492188 83.816406 46.890625 83.816406 45.292969 83.65625 C 45.230469 83.648438 45.167969 83.640625 45.105469 83.636719 C 43.296875 83.449219 43.296875 83.449219 42.96875 83.203125 C 42.992188 83.105469 43.011719 83.007812 43.035156 82.910156 C 43.503906 82.75 43.964844 82.664062 44.445312 82.609375 C 44.539062 82.601562 44.539062 82.601562 44.632812 82.589844 C 44.859375 82.5625 45.085938 82.539062 45.3125 82.519531 C 45.359375 82.515625 45.40625 82.511719 45.453125 82.507812 C 46.699219 82.394531 47.949219 82.402344 49.199219 82.402344 Z M 49.199219 82.402344 "/>
<path style=" stroke:none;fill-rule:nonzero;fill:rgb(99.607843%,67.450982%,82.745099%);fill-opacity:1;" d="M 41.667969 51.367188 C 42.214844 51.558594 42.636719 51.71875 42.96875 52.441406 C 43.246094 53.234375 43.320312 54.011719 43.164062 54.882812 C 43.230469 54.914062 43.292969 54.945312 43.359375 54.980469 C 43.164062 55.175781 42.96875 55.320312 42.757812 55.46875 C 42.632812 55.554688 42.632812 55.554688 42.578125 55.761719 C 42.535156 55.761719 42.492188 55.761719 42.449219 55.761719 C 42.195312 56.441406 42.152344 57.058594 42.253906 57.8125 C 42.367188 58.296875 42.546875 58.613281 42.839844 58.886719 C 43.011719 59.003906 43.179688 59.089844 43.359375 59.179688 C 43.359375 59.242188 43.359375 59.308594 43.359375 59.375 C 42.878906 59.289062 42.566406 58.917969 42.269531 58.378906 C 42.113281 58.042969 42.042969 57.78125 42.03125 57.371094 C 42.03125 57.289062 42.027344 57.207031 42.027344 57.125 C 42.023438 57.039062 42.023438 56.953125 42.019531 56.867188 C 42.015625 56.695312 42.011719 56.527344 42.007812 56.359375 C 42.007812 56.285156 42.003906 56.210938 42.003906 56.132812 C 42.003906 55.953125 42.003906 55.953125 41.925781 55.859375 C 41.839844 55.855469 41.753906 55.851562 41.667969 55.847656 C 41.238281 55.78125 40.933594 55.398438 40.664062 54.914062 C 40.410156 54.367188 40.382812 53.835938 40.457031 53.195312 C 40.566406 52.5625 40.792969 52.222656 41.144531 51.855469 C 41.484375 51.5625 41.484375 51.5625 41.667969 51.5625 C 41.667969 51.5 41.667969 51.433594 41.667969 51.367188 Z M 41.667969 51.367188 "/>
<path style=" stroke:none;fill-rule:nonzero;fill:rgb(99.607843%,65.882355%,81.960785%);fill-opacity:1;" d="M 38.019531 39.648438 C 38.226562 39.632812 38.433594 39.621094 38.640625 39.613281 C 38.726562 39.605469 38.726562 39.605469 38.8125 39.597656 C 39.210938 39.582031 39.433594 39.695312 39.738281 40.078125 C 40.023438 40.5 40.117188 40.84375 40.125 41.449219 C 40.117188 41.628906 40.113281 41.8125 40.105469 41.992188 C 40.105469 42.101562 40.105469 42.101562 40.105469 42.214844 C 40.097656 42.601562 40.035156 42.828125 39.851562 43.089844 C 39.386719 43.609375 38.84375 43.835938 38.269531 43.808594 C 37.953125 43.707031 37.769531 43.425781 37.566406 43.066406 C 37.519531 42.992188 37.472656 42.921875 37.421875 42.847656 C 37.273438 42.503906 37.261719 42.214844 37.269531 41.816406 C 37.269531 41.746094 37.269531 41.675781 37.269531 41.605469 C 37.285156 41.027344 37.371094 40.65625 37.628906 40.234375 C 37.675781 40.152344 37.722656 40.074219 37.773438 39.992188 C 37.890625 39.84375 37.890625 39.84375 38.019531 39.84375 C 38.019531 39.78125 38.019531 39.714844 38.019531 39.648438 Z M 38.019531 39.648438 "/>
<path style=" stroke:none;fill-rule:nonzero;fill:rgb(99.607843%,64.705884%,81.176472%);fill-opacity:1;" d="M 41.644531 27.128906 C 41.945312 27.359375 42.132812 27.597656 42.308594 28.046875 C 42.449219 28.761719 42.4375 29.394531 42.214844 30.066406 C 42 30.554688 41.71875 30.9375 41.339844 31.097656 C 41.253906 31.121094 41.167969 31.136719 41.082031 31.152344 C 40.953125 31.175781 40.953125 31.175781 40.824219 31.203125 C 40.476562 31.183594 40.226562 30.898438 39.972656 30.566406 C 39.648438 30.023438 39.492188 29.582031 39.5 28.847656 C 39.554688 28.125 39.871094 27.597656 40.234375 27.148438 C 40.714844 26.671875 41.144531 26.800781 41.644531 27.128906 Z M 41.644531 27.128906 "/>
<path style=" stroke:none;fill-rule:nonzero;fill:rgb(99.607843%,64.313728%,80.784315%);fill-opacity:1;" d="M 39.882812 30.921875 C 40.027344 30.988281 40.164062 31.0625 40.300781 31.152344 C 40.34375 31.179688 40.390625 31.203125 40.433594 31.230469 C 40.703125 31.484375 40.792969 31.988281 40.886719 32.421875 C 40.992188 33.332031 40.78125 33.976562 40.449219 34.71875 C 40.078125 35.078125 39.558594 35.121094 39.128906 35.058594 C 38.671875 34.84375 38.386719 34.402344 38.140625 33.800781 C 38.007812 33.296875 38.027344 32.683594 38.140625 32.175781 C 38.527344 31.03125 39.042969 30.621094 39.882812 30.921875 Z M 39.882812 30.921875 "/>
<path style=" stroke:none;fill-rule:nonzero;fill:rgb(99.607843%,65.098041%,81.176472%);fill-opacity:1;" d="M 60.9375 41.894531 C 61.144531 42.144531 61.273438 42.414062 61.394531 42.773438 C 61.402344 43.007812 61.40625 43.246094 61.410156 43.480469 C 61.410156 43.609375 61.414062 43.734375 61.414062 43.867188 C 61.386719 44.320312 61.3125 44.648438 61.097656 44.976562 C 61.066406 45.015625 61.03125 45.050781 61 45.085938 C 60.800781 45.296875 60.800781 45.296875 60.675781 45.605469 C 60.117188 45.769531 59.605469 45.523438 59.113281 45.117188 C 58.847656 44.824219 58.703125 44.617188 58.59375 44.140625 C 58.53125 43.402344 58.597656 42.734375 58.855469 42.089844 C 59.457031 41.082031 60.191406 41.390625 60.9375 41.894531 Z M 60.9375 41.894531 "/>
<path style=" stroke:none;fill-rule:nonzero;fill:rgb(99.607843%,64.705884%,81.176472%);fill-opacity:1;" d="M 38.421875 35.210938 C 38.496094 35.214844 38.496094 35.214844 38.574219 35.21875 C 38.714844 35.226562 38.855469 35.238281 38.996094 35.253906 C 39.097656 35.261719 39.097656 35.261719 39.199219 35.269531 C 39.453125 35.3125 39.59375 35.363281 39.773438 35.648438 C 40.042969 36.234375 40.183594 36.78125 40.105469 37.5 C 39.828125 38.695312 39.828125 38.695312 39.492188 39.015625 C 39.347656 39.085938 39.210938 39.128906 39.0625 39.160156 C 39 39.207031 39 39.207031 38.933594 39.257812 C 38.066406 39.390625 38.066406 39.390625 37.757812 39.027344 C 37.429688 38.492188 37.222656 37.878906 37.199219 37.152344 C 37.222656 36.460938 37.425781 36.003906 37.707031 35.476562 C 37.945312 35.191406 38.132812 35.191406 38.421875 35.210938 Z M 38.421875 35.210938 "/>
<path style=" stroke:none;fill-rule:nonzero;fill:rgb(99.607843%,67.058825%,82.352942%);fill-opacity:1;" d="M 61.199219 37.5 C 61.511719 37.960938 61.664062 38.3125 61.671875 38.984375 C 61.664062 39.632812 61.585938 40.089844 61.316406 40.601562 C 60.875 41.128906 60.53125 41.277344 59.960938 41.25 C 59.601562 41.179688 59.441406 40.925781 59.199219 40.546875 C 58.863281 39.847656 58.769531 39.238281 58.855469 38.378906 C 58.972656 37.957031 59.144531 37.605469 59.375 37.304688 C 59.558594 37.234375 59.738281 37.179688 59.925781 37.132812 C 59.972656 37.121094 60.023438 37.105469 60.074219 37.09375 C 60.523438 36.980469 60.820312 37.089844 61.199219 37.5 Z M 61.199219 37.5 "/>
<path style=" stroke:none;fill-rule:nonzero;fill:rgb(99.607843%,64.313728%,80.784315%);fill-opacity:1;" d="M 43.652344 23.78125 C 44.074219 24.15625 44.398438 24.78125 44.53125 25.488281 C 44.539062 26.132812 44.335938 26.652344 44.074219 27.148438 C 43.652344 27.675781 43.25 27.796875 42.707031 27.734375 C 42.3125 27.636719 42.019531 27.320312 41.765625 26.863281 C 41.5625 26.25 41.585938 25.46875 41.667969 24.804688 C 41.785156 24.394531 41.941406 24.195312 42.1875 23.949219 C 42.242188 23.890625 42.300781 23.835938 42.359375 23.773438 C 42.789062 23.378906 43.210938 23.496094 43.652344 23.78125 Z M 43.652344 23.78125 "/>
<path style=" stroke:none;fill-rule:nonzero;fill:rgb(99.607843%,66.274512%,82.352942%);fill-opacity:1;" d="M 41.21875 48.289062 C 41.484375 48.613281 41.671875 49.003906 41.730469 49.511719 C 41.761719 50.066406 41.78125 50.589844 41.644531 51.109375 C 41.3125 51.597656 40.859375 52.125 40.386719 52.171875 C 39.917969 52.160156 39.585938 51.835938 39.257812 51.367188 C 38.96875 50.84375 38.894531 49.980469 38.933594 49.316406 C 39.074219 48.78125 39.273438 48.425781 39.621094 48.164062 C 40.210938 47.832031 40.679688 47.746094 41.21875 48.289062 Z M 41.21875 48.289062 "/>
<path style=" stroke:none;fill-rule:nonzero;fill:rgb(99.607843%,65.098041%,81.176472%);fill-opacity:1;" d="M 60.742188 33.007812 C 61.046875 33.402344 61.238281 33.851562 61.285156 34.460938 C 61.289062 35.078125 61.289062 35.5625 61.003906 36.035156 C 60.664062 36.523438 60.363281 36.8125 59.894531 36.914062 C 59.8125 36.9375 59.730469 36.957031 59.644531 36.980469 C 59.304688 36.96875 59.101562 36.613281 58.867188 36.285156 C 58.523438 35.683594 58.472656 35.128906 58.484375 34.351562 C 58.558594 33.726562 58.785156 33.382812 59.113281 33.007812 C 59.679688 32.476562 60.164062 32.527344 60.742188 33.007812 Z M 60.742188 33.007812 "/>
<path style=" stroke:none;fill-rule:nonzero;fill:rgb(99.607843%,65.490198%,81.568629%);fill-opacity:1;" d="M 58.398438 49.511719 C 58.855469 49.769531 59.21875 50.117188 59.441406 50.78125 C 59.449219 51.015625 59.453125 51.253906 59.453125 51.488281 C 59.453125 51.617188 59.453125 51.742188 59.457031 51.875 C 59.441406 52.230469 59.394531 52.5 59.308594 52.832031 C 59.265625 52.832031 59.222656 52.832031 59.179688 52.832031 C 59.167969 52.886719 59.152344 52.945312 59.140625 53.003906 C 59.011719 53.3125 58.878906 53.480469 58.660156 53.613281 C 58.226562 53.765625 57.855469 53.804688 57.457031 53.472656 C 57.109375 53.109375 56.839844 52.660156 56.707031 52.050781 C 56.679688 51.457031 56.703125 50.921875 56.902344 50.390625 C 57.367188 49.632812 57.710938 49.382812 58.398438 49.511719 Z M 58.398438 49.511719 "/>
<path style=" stroke:none;fill-rule:nonzero;fill:rgb(99.607843%,66.666669%,82.352942%);fill-opacity:1;" d="M 59.710938 45.757812 C 60.410156 46.25 60.410156 46.25 60.546875 46.777344 C 60.640625 47.660156 60.554688 48.382812 60.222656 49.121094 C 60.183594 49.210938 60.148438 49.296875 60.113281 49.386719 C 59.9375 49.644531 59.824219 49.675781 59.582031 49.683594 C 59.53125 49.679688 59.484375 49.679688 59.4375 49.675781 C 59.386719 49.675781 59.335938 49.675781 59.285156 49.671875 C 58.746094 49.636719 58.34375 49.339844 57.96875 48.761719 C 57.746094 48.207031 57.773438 47.597656 57.8125 46.972656 C 57.914062 46.433594 58.074219 46.019531 58.382812 45.691406 C 58.859375 45.320312 59.226562 45.472656 59.710938 45.757812 Z M 59.710938 45.757812 "/>
<path style=" stroke:none;fill-rule:nonzero;fill:rgb(99.607843%,65.098041%,81.568629%);fill-opacity:1;" d="M 39.386719 43.75 C 39.636719 43.800781 39.738281 43.871094 39.910156 44.140625 C 40 44.203125 40 44.203125 40.097656 44.269531 C 40.386719 44.503906 40.550781 44.820312 40.710938 45.246094 C 40.839844 46 40.757812 46.691406 40.496094 47.363281 C 40.148438 47.804688 39.8125 47.976562 39.359375 47.972656 C 39.289062 47.972656 39.21875 47.976562 39.144531 47.976562 C 38.789062 47.933594 38.539062 47.808594 38.292969 47.417969 C 38.253906 47.359375 38.21875 47.300781 38.179688 47.242188 C 37.96875 46.855469 38.003906 46.390625 37.996094 45.917969 C 37.992188 45.839844 37.992188 45.761719 37.988281 45.679688 C 37.984375 45.277344 37.996094 45.007812 38.167969 44.6875 C 38.457031 44.277344 38.613281 44.109375 39.015625 44.023438 C 39.117188 44 39.117188 44 39.226562 43.976562 C 39.28125 43.96875 39.332031 43.957031 39.386719 43.945312 C 39.386719 43.882812 39.386719 43.816406 39.386719 43.75 Z M 39.386719 43.75 "/>
<path style=" stroke:none;fill-rule:nonzero;fill:rgb(99.607843%,66.274512%,81.960785%);fill-opacity:1;" d="M 55.09375 22.480469 C 55.433594 22.816406 55.726562 23.242188 55.859375 23.828125 C 55.929688 24.40625 55.9375 24.886719 55.746094 25.410156 C 55.617188 25.675781 55.480469 25.925781 55.339844 26.171875 C 55.304688 26.269531 55.304688 26.269531 55.273438 26.367188 C 54.898438 26.621094 54.519531 26.675781 54.128906 26.476562 C 53.675781 26.167969 53.375 25.777344 53.164062 25.097656 C 53.0625 24.363281 53.148438 23.796875 53.386719 23.144531 C 53.789062 22.390625 54.503906 22.15625 55.09375 22.480469 Z M 55.09375 22.480469 "/>
<path style=" stroke:none;fill-rule:nonzero;fill:rgb(99.607843%,66.274512%,81.960785%);fill-opacity:1;" d="M 52.398438 21.109375 C 52.546875 21.253906 52.671875 21.402344 52.800781 21.582031 C 52.882812 21.683594 52.882812 21.683594 52.964844 21.789062 C 53.148438 22.332031 53.105469 22.929688 53.019531 23.511719 C 52.878906 24.128906 52.644531 24.550781 52.277344 24.902344 C 51.949219 25.078125 51.578125 25.050781 51.238281 25 C 51.007812 24.828125 51.007812 24.828125 50.847656 24.609375 C 50.769531 24.507812 50.769531 24.507812 50.691406 24.402344 C 50.585938 24.21875 50.585938 24.21875 50.585938 24.023438 C 50.523438 23.992188 50.457031 23.960938 50.390625 23.925781 C 50.234375 23.457031 50.289062 22.753906 50.351562 22.25 C 50.472656 21.742188 50.757812 21.398438 51.042969 21.09375 C 51.453125 20.886719 51.996094 20.863281 52.398438 21.109375 Z M 52.398438 21.109375 "/>
<path style=" stroke:none;fill-rule:nonzero;fill:rgb(100%,72.156864%,85.09804%);fill-opacity:1;" d="M 51.171875 60.742188 C 51.195312 60.742188 51.214844 60.742188 51.238281 60.742188 C 51.25 60.828125 51.25 60.828125 51.265625 60.917969 C 51.390625 61.605469 51.589844 62.179688 51.824219 62.792969 C 51.867188 62.921875 51.910156 63.050781 51.953125 63.183594 C 51.902344 63.242188 51.847656 63.304688 51.792969 63.367188 C 51.625 63.550781 51.625 63.550781 51.5625 63.769531 C 51.390625 63.769531 51.21875 63.769531 51.042969 63.769531 C 51.207031 63.519531 51.332031 63.519531 51.5625 63.476562 C 51.539062 62.917969 51.488281 62.507812 51.300781 62.011719 C 51.300781 61.945312 51.300781 61.882812 51.300781 61.816406 C 51.257812 61.816406 51.214844 61.816406 51.171875 61.816406 C 51.105469 61.71875 51.042969 61.621094 50.976562 61.523438 C 50.785156 61.429688 50.652344 61.417969 50.457031 61.425781 C 50.433594 61.359375 50.414062 61.296875 50.390625 61.230469 C 50.027344 61.304688 50.027344 61.304688 49.675781 61.425781 C 50 60.898438 50 60.898438 50.261719 60.839844 C 50.40625 60.835938 50.550781 60.835938 50.695312 60.839844 C 50.832031 60.84375 50.96875 60.84375 51.105469 60.839844 C 51.128906 60.808594 51.148438 60.773438 51.171875 60.742188 Z M 51.171875 60.742188 "/>
<path style=" stroke:none;fill-rule:nonzero;fill:rgb(99.607843%,65.490198%,79.607844%);fill-opacity:1;" d="M 13.996094 33.789062 C 14.0625 33.820312 14.125 33.851562 14.191406 33.886719 C 13.882812 34.265625 13.882812 34.265625 13.738281 34.375 C 13.664062 34.605469 13.664062 34.605469 13.597656 34.871094 C 13.5625 35.003906 13.5625 35.003906 13.527344 35.140625 C 13.511719 35.210938 13.496094 35.28125 13.476562 35.351562 C 13.433594 35.351562 13.390625 35.347656 13.347656 35.347656 C 13.152344 35.34375 12.960938 35.34375 12.769531 35.339844 C 12.667969 35.335938 12.667969 35.335938 12.566406 35.335938 C 12.5 35.332031 12.4375 35.332031 12.371094 35.332031 C 12.3125 35.332031 12.25 35.332031 12.191406 35.328125 C 12.03125 35.332031 12.03125 35.332031 11.914062 35.546875 C 11.847656 35.449219 11.847656 35.449219 11.84375 35.199219 C 11.847656 35.121094 11.847656 35.042969 11.847656 34.960938 C 12.390625 34.671875 12.964844 34.53125 13.542969 34.570312 C 13.542969 34.515625 13.546875 34.457031 13.550781 34.398438 C 13.636719 34.0625 13.789062 33.957031 13.996094 33.789062 Z M 13.996094 33.789062 "/>
<path style=" stroke:none;fill-rule:nonzero;fill:rgb(99.607843%,37.254903%,61.56863%);fill-opacity:1;" d="M 44.921875 68.945312 C 44.945312 68.945312 44.964844 68.945312 44.988281 68.945312 C 44.992188 69.03125 44.992188 69.121094 44.996094 69.210938 C 45.09375 70.800781 45.585938 71.992188 46.269531 73.1875 C 46.347656 73.324219 46.417969 73.464844 46.492188 73.605469 C 47.296875 75.066406 48.5625 75.933594 49.675781 76.757812 C 49.511719 76.851562 49.433594 76.867188 49.265625 76.773438 C 49.214844 76.730469 49.160156 76.6875 49.105469 76.644531 C 49.046875 76.59375 48.988281 76.546875 48.929688 76.496094 C 48.867188 76.445312 48.804688 76.390625 48.738281 76.335938 C 48.675781 76.28125 48.609375 76.230469 48.542969 76.175781 C 47.109375 74.957031 45.421875 72.957031 44.945312 70.445312 C 44.894531 69.949219 44.90625 69.445312 44.921875 68.945312 Z M 44.921875 68.945312 "/>
<path style=" stroke:none;fill-rule:nonzero;fill:rgb(99.607843%,60.392159%,76.078433%);fill-opacity:1;" d="M 23.289062 34.851562 C 23.40625 34.855469 23.40625 34.855469 23.523438 34.855469 C 23.609375 34.859375 23.609375 34.859375 23.699219 34.863281 C 23.71875 34.960938 23.742188 35.054688 23.761719 35.15625 C 23.894531 35.273438 23.894531 35.273438 24.023438 35.351562 C 24 35.414062 23.980469 35.480469 23.957031 35.546875 C 23.792969 35.609375 23.792969 35.609375 23.632812 35.644531 C 23.792969 35.691406 23.792969 35.691406 23.957031 35.742188 C 23.9375 35.839844 23.914062 35.9375 23.894531 36.035156 C 23.894531 35.96875 23.894531 35.90625 23.894531 35.839844 C 23.816406 35.84375 23.816406 35.84375 23.738281 35.847656 C 23.296875 35.859375 22.929688 35.847656 22.527344 35.546875 C 22.542969 35.316406 22.542969 35.316406 22.589844 35.058594 C 22.8125 34.820312 23.023438 34.84375 23.289062 34.851562 Z M 23.289062 34.851562 "/>
<path style=" stroke:none;fill-rule:nonzero;fill:rgb(99.607843%,70.980394%,84.313726%);fill-opacity:1;" d="M 43.097656 54.589844 C 43.121094 54.6875 43.140625 54.78125 43.164062 54.882812 C 43.226562 54.914062 43.292969 54.945312 43.359375 54.980469 C 43.164062 55.175781 42.96875 55.320312 42.757812 55.46875 C 42.632812 55.554688 42.632812 55.554688 42.578125 55.761719 C 42.535156 55.761719 42.492188 55.761719 42.449219 55.761719 C 42.195312 56.441406 42.152344 57.058594 42.253906 57.8125 C 42.367188 58.296875 42.546875 58.613281 42.839844 58.886719 C 43.011719 59.003906 43.179688 59.089844 43.359375 59.179688 C 43.359375 59.242188 43.359375 59.308594 43.359375 59.375 C 42.878906 59.289062 42.566406 58.917969 42.269531 58.378906 C 42.113281 58.046875 42.042969 57.78125 42.03125 57.375 C 42.03125 57.292969 42.027344 57.210938 42.027344 57.128906 C 42.023438 57.042969 42.023438 56.960938 42.019531 56.871094 C 42.015625 56.703125 42.011719 56.535156 42.007812 56.367188 C 42.007812 56.292969 42.003906 56.21875 42.003906 56.144531 C 42 55.949219 42 55.949219 41.925781 55.761719 C 41.980469 55.730469 41.980469 55.730469 42.035156 55.695312 C 42.660156 55.3125 42.660156 55.3125 43.097656 54.589844 Z M 43.097656 54.589844 "/>
<path style=" stroke:none;fill-rule:nonzero;fill:rgb(99.607843%,84.313726%,91.37255%);fill-opacity:1;" d="M 59.960938 31.445312 C 59.984375 31.445312 60.003906 31.445312 60.027344 31.445312 C 60.027344 31.800781 60.027344 32.15625 60.027344 32.519531 C 60.089844 32.519531 60.15625 32.519531 60.222656 32.519531 C 60.222656 32.585938 60.222656 32.648438 60.222656 32.714844 C 60.148438 32.703125 60.078125 32.695312 60 32.683594 C 59.570312 32.683594 59.195312 33.007812 58.878906 33.429688 C 58.847656 33.484375 58.820312 33.539062 58.789062 33.59375 C 58.789062 33.53125 58.789062 33.464844 58.789062 33.398438 C 58.746094 33.398438 58.703125 33.398438 58.660156 33.398438 C 58.574219 33.171875 58.488281 32.945312 58.398438 32.714844 C 58.472656 32.726562 58.542969 32.734375 58.617188 32.746094 C 59.019531 32.746094 59.390625 32.480469 59.683594 32.070312 C 59.792969 31.875 59.882812 31.675781 59.960938 31.445312 Z M 59.960938 31.445312 "/>
<path style=" stroke:none;fill-rule:nonzero;fill:rgb(100%,87.843138%,93.333334%);fill-opacity:1;" d="M 40.363281 47.460938 C 40.386719 47.558594 40.40625 47.65625 40.429688 47.753906 C 40.472656 47.785156 40.515625 47.820312 40.558594 47.851562 C 40.476562 47.890625 40.398438 47.925781 40.3125 47.964844 C 40.207031 48.015625 40.097656 48.070312 39.992188 48.121094 C 39.9375 48.144531 39.882812 48.167969 39.828125 48.195312 C 39.535156 48.335938 39.324219 48.453125 39.128906 48.828125 C 39.105469 48.765625 39.085938 48.699219 39.0625 48.632812 C 39.011719 48.589844 38.960938 48.542969 38.90625 48.5 C 38.734375 48.339844 38.652344 48.199219 38.542969 47.949219 C 38.5625 47.882812 38.585938 47.820312 38.605469 47.753906 C 38.675781 47.777344 38.675781 47.777344 38.742188 47.800781 C 39.328125 47.957031 39.847656 47.910156 40.363281 47.460938 Z M 40.363281 47.460938 "/>
<path style=" stroke:none;fill-rule:nonzero;fill:rgb(100%,83.137256%,90.196079%);fill-opacity:1;" d="M 61.328125 40.332031 C 61.371094 40.363281 61.414062 40.398438 61.457031 40.429688 C 61.394531 40.558594 61.332031 40.691406 61.269531 40.820312 C 61.238281 40.894531 61.203125 40.964844 61.164062 41.039062 C 61.117188 41.125 61.117188 41.125 61.066406 41.210938 C 61.023438 41.210938 60.980469 41.210938 60.9375 41.210938 C 60.917969 41.4375 60.894531 41.664062 60.871094 41.894531 C 60.785156 41.851562 60.785156 41.851562 60.695312 41.808594 C 60.242188 41.601562 59.851562 41.453125 59.375 41.503906 C 59.398438 41.3125 59.417969 41.117188 59.441406 40.917969 C 59.484375 40.949219 59.53125 40.980469 59.578125 41.011719 C 59.996094 41.234375 60.507812 41.226562 60.914062 40.941406 C 61.09375 40.78125 61.222656 40.613281 61.328125 40.332031 Z M 61.328125 40.332031 "/>
<path style=" stroke:none;fill-rule:nonzero;fill:rgb(99.607843%,87.843138%,93.333334%);fill-opacity:1;" d="M 39.648438 43.164062 C 39.730469 43.40625 39.699219 43.496094 39.648438 43.75 C 39.5625 43.75 39.476562 43.75 39.386719 43.75 C 39.386719 43.8125 39.386719 43.878906 39.386719 43.945312 C 39.308594 43.972656 39.308594 43.972656 39.226562 44.003906 C 39.15625 44.027344 39.085938 44.054688 39.015625 44.078125 C 38.945312 44.105469 38.875 44.128906 38.804688 44.15625 C 38.636719 44.226562 38.496094 44.308594 38.347656 44.433594 C 38.347656 44.335938 38.347656 44.242188 38.347656 44.140625 C 38.261719 44.109375 38.175781 44.078125 38.085938 44.042969 C 38.0625 43.914062 38.042969 43.785156 38.019531 43.652344 C 38.074219 43.65625 38.125 43.660156 38.179688 43.667969 C 38.699219 43.691406 39.113281 43.597656 39.582031 43.261719 C 39.605469 43.230469 39.625 43.195312 39.648438 43.164062 Z M 39.648438 43.164062 "/>
<path style=" stroke:none;fill-rule:nonzero;fill:rgb(99.607843%,89.019608%,93.725491%);fill-opacity:1;" d="M 58.855469 44.824219 C 58.898438 44.855469 58.9375 44.890625 58.984375 44.925781 C 59.5625 45.367188 60.027344 45.546875 60.675781 45.605469 C 60.488281 45.886719 60.273438 45.96875 60.027344 46.09375 C 59.855469 46 59.855469 46 59.65625 45.863281 C 59.335938 45.652344 59.070312 45.539062 58.722656 45.507812 C 58.765625 45.28125 58.808594 45.054688 58.855469 44.824219 Z M 58.855469 44.824219 "/>
<path style=" stroke:none;fill-rule:nonzero;fill:rgb(99.607843%,87.843138%,92.941177%);fill-opacity:1;" d="M 39.546875 38.898438 C 39.597656 38.929688 39.597656 38.929688 39.648438 38.964844 C 39.539062 38.996094 39.433594 39.03125 39.324219 39.0625 C 39.324219 39.257812 39.324219 39.449219 39.324219 39.648438 C 38.894531 39.648438 38.464844 39.648438 38.019531 39.648438 C 38 39.710938 37.976562 39.777344 37.957031 39.84375 C 37.933594 39.585938 37.914062 39.328125 37.890625 39.0625 C 37.953125 39.109375 37.953125 39.109375 38.019531 39.160156 C 38.53125 39.210938 39.109375 38.8125 39.546875 38.898438 Z M 39.546875 38.898438 "/>
<path style=" stroke:none;fill-rule:nonzero;fill:rgb(100%,84.313726%,91.37255%);fill-opacity:1;" d="M 58.464844 27.539062 C 58.625 27.757812 58.625 27.757812 58.789062 28.027344 C 58.789062 28.15625 58.789062 28.285156 58.789062 28.417969 C 58.898438 28.417969 59.003906 28.417969 59.113281 28.417969 C 59.113281 28.449219 59.113281 28.484375 59.113281 28.515625 C 59.046875 28.519531 59.046875 28.519531 58.972656 28.523438 C 58.550781 28.5625 58.300781 28.664062 57.941406 29.003906 C 57.855469 29.003906 57.769531 29.003906 57.683594 29.003906 C 57.773438 28.695312 57.878906 28.488281 58.039062 28.253906 C 58.078125 28.195312 58.121094 28.136719 58.160156 28.074219 C 58.269531 27.929688 58.269531 27.929688 58.398438 27.832031 C 58.421875 27.734375 58.441406 27.640625 58.464844 27.539062 Z M 58.464844 27.539062 "/>
<path style=" stroke:none;fill-rule:nonzero;fill:rgb(100%,80.784315%,89.411765%);fill-opacity:1;" d="M 58.136719 49.023438 C 58.179688 49.058594 58.222656 49.089844 58.265625 49.125 C 58.746094 49.488281 59.164062 49.59375 59.699219 49.609375 C 59.660156 49.632812 59.617188 49.65625 59.574219 49.683594 C 59.429688 49.785156 59.429688 49.785156 59.402344 49.996094 C 59.394531 50.101562 59.394531 50.101562 59.390625 50.207031 C 59.386719 50.332031 59.378906 50.457031 59.375 50.585938 C 59.347656 50.546875 59.320312 50.511719 59.292969 50.472656 C 58.882812 49.917969 58.5 49.582031 57.941406 49.511719 C 58.007812 49.351562 58.070312 49.1875 58.136719 49.023438 Z M 58.136719 49.023438 "/>
<path style=" stroke:none;fill-rule:nonzero;fill:rgb(99.607843%,85.09804%,91.37255%);fill-opacity:1;" d="M 38.410156 34.375 C 38.453125 34.410156 38.492188 34.441406 38.535156 34.476562 C 38.589844 34.523438 38.640625 34.566406 38.695312 34.613281 C 38.75 34.65625 38.800781 34.703125 38.855469 34.746094 C 39.089844 34.941406 39.222656 34.972656 39.492188 34.96875 C 39.558594 34.964844 39.625 34.964844 39.691406 34.964844 C 39.765625 34.960938 39.765625 34.960938 39.84375 34.960938 C 39.820312 35.21875 39.800781 35.476562 39.777344 35.742188 C 39.734375 35.710938 39.691406 35.679688 39.648438 35.644531 C 39.648438 35.578125 39.648438 35.515625 39.648438 35.449219 C 39.195312 35.382812 38.746094 35.320312 38.28125 35.253906 C 38.324219 35.125 38.367188 34.996094 38.410156 34.863281 C 38.421875 34.601562 38.421875 34.601562 38.410156 34.375 Z M 38.410156 34.375 "/>
<path style=" stroke:none;fill-rule:nonzero;fill:rgb(99.607843%,88.235295%,93.333334%);fill-opacity:1;" d="M 61.003906 35.9375 C 61.003906 36.230469 61.003906 36.230469 60.902344 36.460938 C 60.789062 36.710938 60.789062 36.710938 60.828125 36.992188 C 60.84375 37.0625 60.855469 37.132812 60.871094 37.207031 C 60.824219 37.1875 60.773438 37.167969 60.722656 37.144531 C 60.441406 37.101562 60.210938 37.175781 59.9375 37.257812 C 59.746094 37.308594 59.566406 37.320312 59.375 37.304688 C 59.375 37.175781 59.375 37.046875 59.375 36.914062 C 59.464844 36.902344 59.464844 36.902344 59.554688 36.890625 C 60.160156 36.792969 60.566406 36.589844 61.003906 35.9375 Z M 61.003906 35.9375 "/>
<path style=" stroke:none;fill-rule:nonzero;fill:rgb(100%,89.803922%,94.117647%);fill-opacity:1;" d="M 53.058594 22.851562 C 53.1875 22.914062 53.316406 22.980469 53.449219 23.046875 C 53.433594 23.117188 53.414062 23.1875 53.394531 23.261719 C 53.21875 23.96875 53.21875 23.96875 53.125 24.707031 C 52.910156 24.707031 52.695312 24.707031 52.472656 24.707031 C 52.566406 24.519531 52.566406 24.519531 52.65625 24.328125 C 52.867188 23.859375 52.972656 23.398438 53.058594 22.851562 Z M 53.058594 22.851562 "/>
<path style=" stroke:none;fill-rule:nonzero;fill:rgb(99.607843%,79.607844%,88.627452%);fill-opacity:1;" d="M 41.601562 24.902344 C 41.625 24.902344 41.644531 24.902344 41.667969 24.902344 C 41.664062 25.011719 41.664062 25.121094 41.664062 25.234375 C 41.65625 26.242188 41.65625 26.242188 41.984375 27.09375 C 42.132812 27.304688 42.277344 27.464844 42.449219 27.636719 C 42.40625 27.636719 42.363281 27.636719 42.316406 27.636719 C 42.296875 27.765625 42.273438 27.894531 42.253906 28.027344 C 41.925781 27.539062 41.925781 27.539062 41.835938 27.386719 C 41.707031 27.214844 41.59375 27.15625 41.425781 27.082031 C 41.375 27.058594 41.320312 27.03125 41.265625 27.007812 C 41.226562 26.988281 41.1875 26.972656 41.144531 26.953125 C 41.207031 26.941406 41.207031 26.941406 41.269531 26.929688 C 41.410156 26.875 41.410156 26.875 41.484375 26.703125 C 41.558594 26.359375 41.566406 26.015625 41.578125 25.660156 C 41.578125 25.585938 41.582031 25.511719 41.585938 25.4375 C 41.589844 25.261719 41.597656 25.082031 41.601562 24.902344 Z M 41.601562 24.902344 "/>
<path style=" stroke:none;fill-rule:nonzero;fill:rgb(100%,85.490197%,91.764706%);fill-opacity:1;" d="M 50.066406 21.777344 C 50.257812 21.824219 50.257812 21.824219 50.457031 21.875 C 50.445312 21.957031 50.433594 22.035156 50.421875 22.121094 C 50.386719 22.492188 50.382812 22.855469 50.386719 23.230469 C 50.386719 23.296875 50.386719 23.363281 50.386719 23.433594 C 50.386719 23.597656 50.390625 23.761719 50.390625 23.925781 C 50.199219 23.894531 50.003906 23.859375 49.804688 23.828125 C 49.835938 23.753906 49.867188 23.683594 49.898438 23.609375 C 50.0625 23.175781 50.074219 22.832031 50.070312 22.339844 C 50.066406 22.179688 50.066406 22.179688 50.066406 22.019531 C 50.066406 21.941406 50.066406 21.859375 50.066406 21.777344 Z M 50.066406 21.777344 "/>
<path style=" stroke:none;fill-rule:nonzero;fill:rgb(99.607843%,42.352942%,63.529414%);fill-opacity:1;" d="M 12.5 60.839844 C 12.710938 61.144531 12.90625 61.460938 13.097656 61.792969 C 13.824219 63 14.574219 63.808594 15.625 64.257812 C 15.625 64.289062 15.625 64.320312 15.625 64.355469 C 14.820312 64.332031 14.125 63.558594 13.542969 62.792969 C 13.5 62.746094 13.460938 62.703125 13.421875 62.65625 C 13.042969 62.214844 12.761719 61.628906 12.5 61.035156 C 12.5 60.96875 12.5 60.90625 12.5 60.839844 Z M 12.5 60.839844 "/>
<path style=" stroke:none;fill-rule:nonzero;fill:rgb(99.607843%,82.352942%,90.196079%);fill-opacity:1;" d="M 41.667969 50.78125 C 41.6875 50.78125 41.710938 50.78125 41.730469 50.78125 C 41.753906 51.320312 41.753906 51.320312 41.652344 51.515625 C 41.515625 51.6875 41.371094 51.808594 41.214844 51.941406 C 40.960938 52.164062 40.785156 52.359375 40.625 52.734375 C 40.582031 52.832031 40.539062 52.929688 40.496094 53.027344 C 40.464844 52.890625 40.464844 52.890625 40.4375 52.753906 C 40.371094 52.433594 40.371094 52.433594 40.234375 52.148438 C 40.304688 52.128906 40.375 52.113281 40.449219 52.09375 C 40.878906 51.933594 41.34375 51.566406 41.585938 51.003906 C 41.613281 50.929688 41.640625 50.855469 41.667969 50.78125 Z M 41.667969 50.78125 "/>
<path style=" stroke:none;fill-rule:nonzero;fill:rgb(100%,88.235295%,93.333334%);fill-opacity:1;" d="M 55.859375 24.902344 C 55.96875 25.03125 56.074219 25.160156 56.183594 25.292969 C 56.136719 25.363281 56.089844 25.429688 56.039062 25.5 C 55.796875 25.878906 55.613281 26.285156 55.46875 26.757812 C 55.363281 26.628906 55.253906 26.5 55.144531 26.367188 C 55.1875 26.367188 55.230469 26.367188 55.273438 26.367188 C 55.289062 26.296875 55.308594 26.226562 55.324219 26.15625 C 55.410156 25.859375 55.515625 25.621094 55.640625 25.359375 C 55.679688 25.273438 55.722656 25.1875 55.765625 25.097656 C 55.796875 25.035156 55.828125 24.96875 55.859375 24.902344 Z M 55.859375 24.902344 "/>
<path style=" stroke:none;fill-rule:nonzero;fill:rgb(99.607843%,89.019608%,93.725491%);fill-opacity:1;" d="M 56.835938 52.539062 C 56.875 52.59375 56.875 52.59375 56.917969 52.648438 C 57.164062 52.980469 57.417969 53.253906 57.703125 53.507812 C 57.8125 53.613281 57.8125 53.613281 57.941406 53.808594 C 57.878906 53.90625 57.8125 54 57.746094 54.101562 C 57.714844 54.0625 57.683594 54.027344 57.648438 53.988281 C 57.019531 53.257812 57.019531 53.257812 56.25 53.125 C 56.445312 52.929688 56.640625 52.734375 56.835938 52.539062 Z M 56.835938 52.539062 "/>
<path style=" stroke:none;fill-rule:nonzero;fill:rgb(100%,69.01961%,83.529413%);fill-opacity:1;" d="M 58.136719 28.710938 C 58.179688 28.742188 58.222656 28.773438 58.269531 28.808594 C 58.21875 28.882812 58.167969 28.957031 58.113281 29.035156 C 58.046875 29.132812 57.980469 29.230469 57.914062 29.328125 C 57.878906 29.375 57.847656 29.425781 57.8125 29.476562 C 57.65625 29.707031 57.558594 29.859375 57.488281 30.175781 C 57.421875 30.207031 57.359375 30.242188 57.292969 30.273438 C 57.296875 30.207031 57.300781 30.140625 57.304688 30.070312 C 57.3125 29.980469 57.316406 29.894531 57.324219 29.804688 C 57.332031 29.714844 57.335938 29.628906 57.34375 29.539062 C 57.359375 29.289062 57.359375 29.289062 57.355469 29.003906 C 57.464844 28.9375 57.570312 28.875 57.683594 28.808594 C 57.683594 28.875 57.683594 28.9375 57.683594 29.003906 C 57.753906 28.953125 57.828125 28.902344 57.902344 28.851562 C 57.980469 28.804688 58.058594 28.757812 58.136719 28.710938 Z M 58.136719 28.710938 "/>
<path style=" stroke:none;fill-rule:nonzero;fill:rgb(99.607843%,81.176472%,89.411765%);fill-opacity:1;" d="M 39.777344 30.175781 C 39.808594 30.214844 39.835938 30.253906 39.867188 30.292969 C 40.242188 30.785156 40.503906 31.078125 41.015625 31.152344 C 41.015625 31.183594 41.015625 31.21875 41.015625 31.25 C 40.9375 31.269531 40.9375 31.269531 40.859375 31.285156 C 40.679688 31.328125 40.679688 31.328125 40.558594 31.542969 C 40.558594 31.476562 40.558594 31.414062 40.558594 31.347656 C 40.503906 31.328125 40.503906 31.328125 40.445312 31.308594 C 40.304688 31.25 40.167969 31.179688 40.03125 31.101562 C 39.710938 30.941406 39.398438 30.890625 39.0625 30.859375 C 39.0625 30.828125 39.0625 30.796875 39.0625 30.761719 C 39.277344 30.695312 39.492188 30.632812 39.714844 30.566406 C 39.734375 30.4375 39.757812 30.308594 39.777344 30.175781 Z M 39.777344 30.175781 "/>
<path style=" stroke:none;fill-rule:nonzero;fill:rgb(100%,81.176472%,89.803922%);fill-opacity:1;" d="M 51.171875 60.742188 C 51.195312 60.871094 51.214844 61 51.238281 61.132812 C 50.980469 61.320312 50.8125 61.335938 50.527344 61.28125 C 50.203125 61.226562 49.980469 61.25 49.675781 61.425781 C 50 60.898438 50 60.898438 50.261719 60.839844 C 50.40625 60.835938 50.550781 60.835938 50.695312 60.839844 C 50.832031 60.84375 50.96875 60.84375 51.105469 60.839844 C 51.128906 60.808594 51.148438 60.773438 51.171875 60.742188 Z M 51.171875 60.742188 "/>
<path style=" stroke:none;fill-rule:nonzero;fill:rgb(100%,85.09804%,91.764706%);fill-opacity:1;" d="M 46.941406 22.65625 C 47.101562 22.703125 47.101562 22.703125 47.265625 22.753906 C 47.277344 22.855469 47.277344 22.855469 47.289062 22.957031 C 47.296875 23.046875 47.308594 23.132812 47.320312 23.222656 C 47.328125 23.3125 47.339844 23.398438 47.347656 23.488281 C 47.390625 23.765625 47.390625 23.765625 47.589844 24.023438 C 47.300781 24.070312 47.300781 24.070312 47.003906 24.121094 C 46.984375 23.636719 46.960938 23.15625 46.941406 22.65625 Z M 46.941406 22.65625 "/>
<path style=" stroke:none;fill-rule:nonzero;fill:rgb(99.607843%,82.745099%,90.588236%);fill-opacity:1;" d="M 53.386719 59.082031 C 53.484375 59.277344 53.582031 59.472656 53.679688 59.671875 C 53.710938 59.738281 53.742188 59.800781 53.777344 59.871094 C 53.824219 59.96875 53.824219 59.96875 53.875 60.066406 C 53.96875 60.257812 53.96875 60.257812 54.082031 60.414062 C 54.167969 60.546875 54.167969 60.546875 54.167969 60.742188 C 54.511719 60.742188 54.855469 60.742188 55.207031 60.742188 C 55.207031 60.773438 55.207031 60.804688 55.207031 60.839844 C 54.84375 60.839844 54.476562 60.839844 54.101562 60.839844 C 54.101562 61 54.101562 61.164062 54.101562 61.328125 C 54.082031 61.328125 54.058594 61.328125 54.035156 61.328125 C 54.019531 61.160156 54.019531 61.160156 54.003906 60.992188 C 53.914062 60.4375 53.667969 60.039062 53.386719 59.667969 C 53.214844 59.542969 53.214844 59.542969 53.058594 59.472656 C 53.058594 59.441406 53.058594 59.40625 53.058594 59.375 C 53.167969 59.375 53.273438 59.375 53.386719 59.375 C 53.386719 59.277344 53.386719 59.179688 53.386719 59.082031 Z M 53.386719 59.082031 "/>
<path style=" stroke:none;fill-rule:nonzero;fill:rgb(99.607843%,78.823531%,88.235295%);fill-opacity:1;" d="M 55.207031 55.957031 C 55.25 56.027344 55.292969 56.09375 55.339844 56.164062 C 55.792969 56.84375 55.792969 56.84375 56.378906 57.128906 C 56.316406 57.195312 56.25 57.257812 56.183594 57.324219 C 56.105469 57.523438 56.105469 57.523438 56.054688 57.714844 C 56.019531 57.613281 56.019531 57.613281 55.984375 57.507812 C 55.820312 57.136719 55.671875 56.847656 55.402344 56.640625 C 55.097656 56.5625 54.800781 56.542969 54.492188 56.542969 C 54.492188 56.511719 54.492188 56.476562 54.492188 56.445312 C 54.707031 56.414062 54.921875 56.382812 55.144531 56.347656 C 55.164062 56.21875 55.1875 56.089844 55.207031 55.957031 Z M 55.207031 55.957031 "/>
<path style=" stroke:none;fill-rule:nonzero;fill:rgb(99.607843%,80.784315%,89.411765%);fill-opacity:1;" d="M 44.207031 23.339844 C 44.226562 23.339844 44.25 23.339844 44.269531 23.339844 C 44.277344 23.417969 44.285156 23.5 44.292969 23.582031 C 44.304688 23.6875 44.316406 23.792969 44.328125 23.902344 C 44.34375 24.058594 44.34375 24.058594 44.359375 24.21875 C 44.398438 24.480469 44.441406 24.671875 44.53125 24.902344 C 44.488281 24.902344 44.445312 24.902344 44.402344 24.902344 C 44.378906 24.96875 44.359375 25.03125 44.335938 25.097656 C 44.3125 25.03125 44.289062 24.964844 44.261719 24.894531 C 44.066406 24.4375 43.855469 24.03125 43.554688 23.730469 C 43.707031 23.730469 43.855469 23.730469 44.011719 23.730469 C 44.011719 23.828125 44.011719 23.921875 44.011719 24.023438 C 44.054688 24.054688 44.097656 24.085938 44.140625 24.121094 C 44.164062 23.863281 44.183594 23.605469 44.207031 23.339844 Z M 44.207031 23.339844 "/>
<path style=" stroke:none;fill-rule:nonzero;fill:rgb(100%,77.64706%,87.843138%);fill-opacity:1;" d="M 38.542969 47.753906 C 38.886719 47.820312 39.230469 47.882812 39.582031 47.949219 C 39.496094 47.980469 39.410156 48.015625 39.324219 48.046875 C 39.300781 48.144531 39.28125 48.242188 39.257812 48.339844 C 38.910156 48.375 38.910156 48.375 38.738281 48.339844 C 38.605469 48.15625 38.605469 48.15625 38.542969 47.949219 C 38.542969 47.882812 38.542969 47.820312 38.542969 47.753906 Z M 38.542969 47.753906 "/>
<path style=" stroke:none;fill-rule:nonzero;fill:rgb(99.607843%,95.686275%,97.254902%);fill-opacity:1;" d="M 59.441406 40.917969 C 59.484375 40.949219 59.53125 40.980469 59.578125 41.011719 C 59.773438 41.117188 59.9375 41.152344 60.144531 41.175781 C 60.238281 41.183594 60.238281 41.183594 60.335938 41.195312 C 60.382812 41.203125 60.433594 41.207031 60.480469 41.210938 C 60.480469 41.308594 60.480469 41.40625 60.480469 41.503906 C 60.117188 41.503906 59.75 41.503906 59.375 41.503906 C 59.398438 41.3125 59.417969 41.117188 59.441406 40.917969 Z M 59.441406 40.917969 "/>
<path style=" stroke:none;fill-rule:nonzero;fill:rgb(100%,83.137256%,90.588236%);fill-opacity:1;" d="M 58.136719 49.023438 C 58.558594 49.3125 58.558594 49.3125 58.984375 49.609375 C 58.984375 49.707031 58.984375 49.804688 58.984375 49.902344 C 58.820312 49.863281 58.683594 49.824219 58.535156 49.707031 C 58.34375 49.570312 58.152344 49.546875 57.941406 49.511719 C 58.007812 49.351562 58.070312 49.1875 58.136719 49.023438 Z M 58.136719 49.023438 "/>
<path style=" stroke:none;fill-rule:nonzero;fill:rgb(100%,54.11765%,72.941178%);fill-opacity:1;" d="M 72.851562 48.828125 C 73.101562 48.980469 73.25 49.21875 73.4375 49.511719 C 73.472656 49.5625 73.507812 49.613281 73.542969 49.664062 C 73.84375 50.101562 74.097656 50.570312 74.347656 51.074219 C 74.304688 51.140625 74.261719 51.203125 74.21875 51.269531 C 74.183594 51.199219 74.152344 51.128906 74.117188 51.054688 C 73.78125 50.355469 73.417969 49.75 73 49.152344 C 72.953125 49.078125 72.902344 49.003906 72.851562 48.925781 C 72.851562 48.894531 72.851562 48.859375 72.851562 48.828125 Z M 72.851562 48.828125 "/>
<path style=" stroke:none;fill-rule:nonzero;fill:rgb(100%,80.392158%,89.411765%);fill-opacity:1;" d="M 38.410156 34.375 C 38.605469 34.535156 38.796875 34.695312 38.996094 34.863281 C 38.933594 34.910156 38.933594 34.910156 38.867188 34.960938 C 38.867188 35.058594 38.867188 35.15625 38.867188 35.253906 C 38.671875 35.253906 38.480469 35.253906 38.28125 35.253906 C 38.324219 35.125 38.367188 34.996094 38.410156 34.863281 C 38.410156 34.703125 38.410156 34.539062 38.410156 34.375 Z M 38.410156 34.375 "/>
<path style=" stroke:none;fill-rule:nonzero;fill:rgb(99.607843%,85.490197%,91.764706%);fill-opacity:1;" d="M 61.003906 35.9375 C 61.003906 36.230469 61.003906 36.230469 60.902344 36.460938 C 60.789062 36.710938 60.789062 36.710938 60.828125 36.992188 C 60.84375 37.0625 60.855469 37.132812 60.871094 37.207031 C 60.699219 37.175781 60.527344 37.140625 60.351562 37.109375 C 60.375 37.011719 60.394531 36.914062 60.417969 36.816406 C 60.375 36.785156 60.332031 36.75 60.285156 36.71875 C 60.328125 36.679688 60.367188 36.640625 60.410156 36.597656 C 60.464844 36.542969 60.515625 36.492188 60.570312 36.4375 C 60.652344 36.359375 60.652344 36.359375 60.730469 36.28125 C 60.878906 36.136719 60.878906 36.136719 61.003906 35.9375 Z M 61.003906 35.9375 "/>
<path style=" stroke:none;fill-rule:nonzero;fill:rgb(99.607843%,65.882355%,80.000001%);fill-opacity:1;" d="M 22.851562 34.863281 C 23.132812 34.863281 23.410156 34.863281 23.699219 34.863281 C 23.71875 34.960938 23.742188 35.054688 23.761719 35.15625 C 23.699219 35.253906 23.699219 35.253906 23.507812 35.261719 C 23.390625 35.261719 23.390625 35.261719 23.269531 35.261719 C 23.152344 35.257812 23.152344 35.257812 23.035156 35.257812 C 22.972656 35.257812 22.914062 35.253906 22.851562 35.253906 C 22.851562 35.125 22.851562 34.996094 22.851562 34.863281 Z M 22.851562 34.863281 "/>
<path style=" stroke:none;fill-rule:nonzero;fill:rgb(99.607843%,55.29412%,72.941178%);fill-opacity:1;" d="M 13.050781 34.65625 C 13.121094 34.65625 13.121094 34.65625 13.195312 34.660156 C 13.308594 34.660156 13.425781 34.664062 13.542969 34.667969 C 13.542969 34.699219 13.542969 34.734375 13.542969 34.765625 C 13.019531 34.871094 12.5 34.976562 11.980469 35.058594 C 12.042969 34.863281 12.042969 34.863281 12.242188 34.753906 C 12.511719 34.648438 12.769531 34.644531 13.050781 34.65625 Z M 13.050781 34.65625 "/>
<path style=" stroke:none;fill-rule:nonzero;fill:rgb(100%,79.607844%,89.019608%);fill-opacity:1;" d="M 50.066406 22.949219 C 50.085938 23.015625 50.109375 23.078125 50.128906 23.144531 C 50.171875 23.144531 50.214844 23.144531 50.261719 23.144531 C 50.28125 23.078125 50.304688 23.015625 50.324219 22.949219 C 50.347656 23.273438 50.367188 23.59375 50.390625 23.925781 C 50.199219 23.894531 50.003906 23.859375 49.804688 23.828125 C 49.851562 23.71875 49.851562 23.71875 49.898438 23.609375 C 49.984375 23.378906 50.035156 23.207031 50.066406 22.949219 Z M 50.066406 22.949219 "/>
<path style=" stroke:none;fill-rule:nonzero;fill:rgb(100%,79.607844%,89.411765%);fill-opacity:1;" d="M 37.890625 39.0625 C 37.953125 39.109375 37.953125 39.109375 38.019531 39.160156 C 38.152344 39.183594 38.285156 39.199219 38.417969 39.214844 C 38.527344 39.226562 38.527344 39.226562 38.636719 39.238281 C 38.691406 39.246094 38.746094 39.25 38.800781 39.257812 C 38.800781 39.289062 38.800781 39.320312 38.800781 39.355469 C 38.695312 39.355469 38.585938 39.355469 38.476562 39.355469 C 38.476562 39.453125 38.476562 39.546875 38.476562 39.648438 C 38.328125 39.648438 38.175781 39.648438 38.019531 39.648438 C 38 39.710938 37.976562 39.777344 37.957031 39.84375 C 37.933594 39.585938 37.914062 39.328125 37.890625 39.0625 Z M 37.890625 39.0625 "/>
<path style=" stroke:none;fill-rule:nonzero;fill:rgb(99.607843%,46.666667%,66.274512%);fill-opacity:1;" d="M 12.5 60.839844 C 12.894531 61.414062 13.28125 62.023438 13.605469 62.695312 C 13.296875 62.558594 13.136719 62.296875 12.945312 61.933594 C 12.914062 61.882812 12.886719 61.832031 12.855469 61.777344 C 12.695312 61.480469 12.582031 61.203125 12.5 60.839844 Z M 12.5 60.839844 "/>
<path style=" stroke:none;fill-rule:nonzero;fill:rgb(99.607843%,81.960785%,89.803922%);fill-opacity:1;" d="M 41.730469 26.953125 C 41.980469 27.007812 42.082031 27.171875 42.253906 27.441406 C 42.316406 27.507812 42.382812 27.570312 42.449219 27.636719 C 42.40625 27.636719 42.363281 27.636719 42.316406 27.636719 C 42.296875 27.765625 42.273438 27.894531 42.253906 28.027344 C 42.144531 27.863281 42.035156 27.703125 41.925781 27.539062 C 41.886719 27.488281 41.847656 27.433594 41.808594 27.378906 C 41.730469 27.246094 41.730469 27.246094 41.730469 26.953125 Z M 41.730469 26.953125 "/>
<path style=" stroke:none;fill-rule:nonzero;fill:rgb(100%,81.176472%,89.803922%);fill-opacity:1;" d="M 55.859375 24.902344 C 55.96875 25.03125 56.074219 25.160156 56.183594 25.292969 C 55.875 25.769531 55.875 25.769531 55.730469 25.878906 C 55.730469 25.8125 55.730469 25.75 55.730469 25.683594 C 55.664062 25.652344 55.601562 25.617188 55.535156 25.585938 C 55.640625 25.359375 55.75 25.132812 55.859375 24.902344 Z M 55.859375 24.902344 "/>
<path style=" stroke:none;fill-rule:nonzero;fill:rgb(99.607843%,80.392158%,89.411765%);fill-opacity:1;" d="M 53.058594 22.851562 C 53.1875 22.914062 53.316406 22.980469 53.449219 23.046875 C 53.363281 23.402344 53.277344 23.757812 53.191406 24.121094 C 53.167969 24.121094 53.148438 24.121094 53.125 24.121094 C 53.125 23.894531 53.125 23.671875 53.125 23.4375 C 53.082031 23.4375 53.039062 23.4375 52.996094 23.4375 C 53.015625 23.242188 53.039062 23.050781 53.058594 22.851562 Z M 53.058594 22.851562 "/>
<path style=" stroke:none;fill-rule:nonzero;fill:rgb(99.607843%,82.352942%,89.803922%);fill-opacity:1;" d="M 48.828125 64.355469 C 48.835938 64.417969 48.84375 64.480469 48.851562 64.542969 C 48.871094 64.644531 48.871094 64.644531 48.894531 64.746094 C 48.9375 64.777344 48.980469 64.8125 49.023438 64.84375 C 48.976562 64.972656 48.925781 65.101562 48.875 65.226562 C 48.851562 65.300781 48.824219 65.371094 48.792969 65.445312 C 48.679688 65.65625 48.613281 65.6875 48.4375 65.722656 C 48.460938 65.65625 48.484375 65.589844 48.507812 65.523438 C 48.535156 65.4375 48.566406 65.347656 48.597656 65.257812 C 48.625 65.171875 48.65625 65.085938 48.683594 64.996094 C 48.753906 64.78125 48.796875 64.589844 48.828125 64.355469 Z M 48.828125 64.355469 "/>
<path style=" stroke:none;fill-rule:nonzero;fill:rgb(100%,74.509805%,86.666667%);fill-opacity:1;" d="M 42.253906 55.664062 C 42.253906 55.726562 42.253906 55.792969 42.253906 55.859375 C 42.316406 55.890625 42.382812 55.921875 42.449219 55.957031 C 42.402344 56.039062 42.402344 56.039062 42.359375 56.121094 C 42.25 56.351562 42.1875 56.570312 42.121094 56.835938 C 42.101562 56.835938 42.078125 56.835938 42.058594 56.835938 C 42.054688 56.773438 42.050781 56.714844 42.046875 56.652344 C 42.039062 56.570312 42.035156 56.492188 42.027344 56.410156 C 42.023438 56.328125 42.019531 56.25 42.011719 56.167969 C 42 55.953125 42 55.953125 41.925781 55.761719 C 42.121094 55.664062 42.121094 55.664062 42.253906 55.664062 Z M 42.253906 55.664062 "/>
<path style=" stroke:none;fill-rule:nonzero;fill:rgb(100%,54.901963%,72.549021%);fill-opacity:1;" d="M 73.113281 44.042969 C 73.175781 44.335938 73.175781 44.335938 73.160156 44.660156 C 73.183594 45.125 73.289062 45.277344 73.503906 45.605469 C 73.542969 45.664062 73.582031 45.726562 73.621094 45.789062 C 73.644531 45.824219 73.671875 45.859375 73.699219 45.898438 C 73.476562 45.816406 73.328125 45.730469 73.15625 45.507812 C 73.003906 45.105469 72.964844 44.699219 72.980469 44.238281 C 73.023438 44.171875 73.066406 44.109375 73.113281 44.042969 Z M 73.113281 44.042969 "/>
<path style=" stroke:none;fill-rule:nonzero;fill:rgb(99.607843%,53.333336%,71.372551%);fill-opacity:1;" d="M 22.589844 35.351562 C 22.804688 35.351562 23.019531 35.351562 23.242188 35.351562 C 23.242188 35.480469 23.242188 35.613281 23.242188 35.742188 C 23.070312 35.742188 22.898438 35.742188 22.722656 35.742188 C 22.679688 35.613281 22.636719 35.484375 22.589844 35.351562 Z M 22.589844 35.351562 "/>
<path style=" stroke:none;fill-rule:nonzero;fill:rgb(100%,80.784315%,89.411765%);fill-opacity:1;" d="M 40.753906 52.050781 C 40.777344 52.148438 40.796875 52.242188 40.820312 52.34375 C 40.734375 52.539062 40.734375 52.539062 40.625 52.734375 C 40.5625 52.878906 40.5625 52.878906 40.496094 53.027344 C 40.464844 52.890625 40.464844 52.890625 40.4375 52.753906 C 40.371094 52.433594 40.371094 52.433594 40.234375 52.148438 C 40.609375 52.050781 40.609375 52.050781 40.753906 52.050781 Z M 40.753906 52.050781 "/>
<path style=" stroke:none;fill-rule:nonzero;fill:rgb(100%,76.862746%,86.666667%);fill-opacity:1;" d="M 24.738281 34.277344 C 24.621094 34.472656 24.621094 34.472656 24.480469 34.667969 C 24.414062 34.667969 24.351562 34.667969 24.285156 34.667969 C 24.285156 34.734375 24.285156 34.796875 24.285156 34.863281 C 24.175781 34.894531 24.070312 34.929688 23.957031 34.960938 C 23.957031 34.898438 23.957031 34.832031 23.957031 34.765625 C 23.851562 34.765625 23.742188 34.765625 23.632812 34.765625 C 23.632812 34.734375 23.632812 34.703125 23.632812 34.667969 C 23.695312 34.660156 23.695312 34.660156 23.757812 34.652344 C 23.8125 34.644531 23.867188 34.640625 23.921875 34.632812 C 23.976562 34.625 24.027344 34.617188 24.085938 34.609375 C 24.128906 34.597656 24.171875 34.585938 24.21875 34.570312 C 24.242188 34.507812 24.261719 34.441406 24.285156 34.375 C 24.582031 34.15625 24.582031 34.15625 24.738281 34.277344 Z M 24.738281 34.277344 "/>
<path style=" stroke:none;fill-rule:nonzero;fill:rgb(99.607843%,84.705883%,91.37255%);fill-opacity:1;" d="M 40.363281 47.460938 C 40.386719 47.558594 40.40625 47.65625 40.429688 47.753906 C 40.472656 47.785156 40.515625 47.820312 40.558594 47.851562 C 40.238281 47.996094 40.238281 47.996094 39.910156 48.144531 C 39.910156 48.078125 39.910156 48.015625 39.910156 47.949219 C 39.867188 47.917969 39.824219 47.882812 39.777344 47.851562 C 39.972656 47.722656 40.164062 47.59375 40.363281 47.460938 Z M 40.363281 47.460938 "/>
<path style=" stroke:none;fill-rule:nonzero;fill:rgb(100%,77.254903%,87.843138%);fill-opacity:1;" d="M 46.417969 62.109375 C 46.417969 62.140625 46.417969 62.171875 46.417969 62.207031 C 46.039062 62.410156 45.652344 62.492188 45.246094 62.402344 C 45.128906 62.253906 45.128906 62.253906 45.050781 62.109375 C 45.09375 62.117188 45.136719 62.128906 45.179688 62.136719 C 45.570312 62.214844 45.570312 62.214844 45.957031 62.109375 C 46.152344 62.015625 46.230469 61.996094 46.417969 62.109375 Z M 46.417969 62.109375 "/>
<path style=" stroke:none;fill-rule:nonzero;fill:rgb(99.607843%,82.352942%,90.196079%);fill-opacity:1;" d="M 58.855469 44.824219 C 59.027344 44.953125 59.199219 45.082031 59.375 45.214844 C 59.207031 45.445312 59.132812 45.507812 58.902344 45.527344 C 58.84375 45.519531 58.785156 45.515625 58.722656 45.507812 C 58.765625 45.28125 58.808594 45.054688 58.855469 44.824219 Z M 58.855469 44.824219 "/>
<path style=" stroke:none;fill-rule:nonzero;fill:rgb(99.607843%,96.470588%,97.647059%);fill-opacity:1;" d="M 58.136719 28.320312 C 58.179688 28.351562 58.222656 28.382812 58.269531 28.417969 C 58.179688 28.726562 58.140625 28.808594 57.941406 29.003906 C 57.855469 29.003906 57.769531 29.003906 57.683594 29.003906 C 57.777344 28.632812 57.898438 28.488281 58.136719 28.320312 Z M 58.136719 28.320312 "/>
<path style=" stroke:none;fill-rule:nonzero;fill:rgb(100%,86.274511%,92.54902%);fill-opacity:1;" d="M 39.648438 43.164062 C 39.730469 43.40625 39.699219 43.496094 39.648438 43.75 C 39.5625 43.75 39.476562 43.75 39.386719 43.75 C 39.386719 43.8125 39.386719 43.878906 39.386719 43.945312 C 39.34375 43.945312 39.300781 43.945312 39.257812 43.945312 C 39.257812 43.847656 39.257812 43.75 39.257812 43.652344 C 39.214844 43.621094 39.171875 43.585938 39.128906 43.554688 C 39.300781 43.425781 39.472656 43.296875 39.648438 43.164062 Z M 39.648438 43.164062 "/>
<path style=" stroke:none;fill-rule:nonzero;fill:rgb(99.607843%,79.607844%,87.843138%);fill-opacity:1;" d="M 13.996094 33.789062 C 14.0625 33.820312 14.125 33.851562 14.191406 33.886719 C 13.882812 34.265625 13.882812 34.265625 13.738281 34.375 C 13.714844 34.472656 13.695312 34.570312 13.671875 34.667969 C 13.476562 34.667969 13.285156 34.667969 13.085938 34.667969 C 13.085938 34.636719 13.085938 34.601562 13.085938 34.570312 C 13.234375 34.570312 13.386719 34.570312 13.542969 34.570312 C 13.542969 34.515625 13.546875 34.457031 13.550781 34.398438 C 13.636719 34.0625 13.789062 33.957031 13.996094 33.789062 Z M 13.996094 33.789062 "/>
<path style=" stroke:none;fill-rule:nonzero;fill:rgb(99.607843%,97.254902%,98.431373%);fill-opacity:1;" d="M 46.941406 22.65625 C 47.101562 22.703125 47.101562 22.703125 47.265625 22.753906 C 47.265625 22.980469 47.265625 23.203125 47.265625 23.4375 C 47.179688 23.40625 47.09375 23.375 47.003906 23.339844 C 46.984375 23.113281 46.960938 22.890625 46.941406 22.65625 Z M 46.941406 22.65625 "/>
<path style=" stroke:none;fill-rule:nonzero;fill:rgb(100%,80.392158%,88.235295%);fill-opacity:1;" d="M 22.65625 38.867188 C 22.921875 38.921875 22.976562 38.957031 23.175781 39.257812 C 22.789062 39.304688 22.789062 39.304688 22.394531 39.355469 C 22.480469 39.195312 22.566406 39.03125 22.65625 38.867188 Z M 22.65625 38.867188 "/>
<path style=" stroke:none;fill-rule:nonzero;fill:rgb(100%,80.392158%,89.411765%);fill-opacity:1;" d="M 57.617188 28.808594 C 57.640625 28.875 57.660156 28.9375 57.683594 29.003906 C 57.746094 29.035156 57.8125 29.070312 57.878906 29.101562 C 57.828125 29.160156 57.777344 29.222656 57.722656 29.285156 C 57.554688 29.480469 57.554688 29.480469 57.421875 29.6875 C 57.378906 29.492188 57.335938 29.300781 57.292969 29.101562 C 57.398438 29.003906 57.507812 28.90625 57.617188 28.808594 Z M 57.617188 28.808594 "/>
<path style=" stroke:none;fill-rule:nonzero;fill:rgb(99.607843%,96.862745%,98.039216%);fill-opacity:1;" d="M 39.257812 43.652344 C 39.234375 43.78125 39.214844 43.910156 39.191406 44.042969 C 39.019531 44.042969 38.847656 44.042969 38.671875 44.042969 C 38.695312 43.945312 38.714844 43.851562 38.738281 43.75 C 38.914062 43.617188 39.0625 43.644531 39.257812 43.652344 Z M 39.257812 43.652344 "/>
<path style=" stroke:none;fill-rule:nonzero;fill:rgb(100%,82.352942%,90.196079%);fill-opacity:1;" d="M 56.835938 52.539062 C 56.902344 52.601562 56.964844 52.667969 57.03125 52.734375 C 57.03125 52.796875 57.03125 52.863281 57.03125 52.929688 C 56.988281 52.929688 56.945312 52.929688 56.902344 52.929688 C 56.902344 52.992188 56.902344 53.058594 56.902344 53.125 C 56.6875 53.125 56.472656 53.125 56.25 53.125 C 56.445312 52.929688 56.640625 52.734375 56.835938 52.539062 Z M 56.835938 52.539062 "/>
<path style=" stroke:none;fill-rule:nonzero;fill:rgb(99.607843%,63.137257%,79.215688%);fill-opacity:1;" d="M 81.835938 41.015625 C 81.878906 41.078125 81.921875 41.144531 81.964844 41.210938 C 81.773438 41.5 81.578125 41.789062 81.378906 42.089844 C 81.335938 42.058594 81.292969 42.023438 81.25 41.992188 C 81.445312 41.671875 81.636719 41.347656 81.835938 41.015625 Z M 81.835938 41.015625 "/>
<path style=" stroke:none;fill-rule:nonzero;fill:rgb(100%,81.960785%,89.803922%);fill-opacity:1;" d="M 59.441406 40.917969 C 59.664062 41.0625 59.664062 41.0625 59.894531 41.210938 C 59.894531 41.273438 59.894531 41.339844 59.894531 41.40625 C 59.722656 41.4375 59.550781 41.46875 59.375 41.503906 C 59.398438 41.3125 59.417969 41.117188 59.441406 40.917969 Z M 59.441406 40.917969 "/>
<path style=" stroke:none;fill-rule:nonzero;fill:rgb(100%,81.176472%,89.411765%);fill-opacity:1;" d="M 40.664062 31.046875 C 40.761719 31.078125 40.761719 31.078125 40.863281 31.105469 C 40.9375 31.128906 40.9375 31.128906 41.015625 31.152344 C 41.015625 31.183594 41.015625 31.21875 41.015625 31.25 C 40.964844 31.261719 40.914062 31.273438 40.859375 31.285156 C 40.679688 31.328125 40.679688 31.328125 40.558594 31.542969 C 40.558594 31.476562 40.558594 31.414062 40.558594 31.347656 C 40.519531 31.335938 40.480469 31.324219 40.4375 31.3125 C 40.300781 31.25 40.300781 31.25 40.167969 31.054688 C 40.351562 30.917969 40.464844 30.988281 40.664062 31.046875 Z M 40.664062 31.046875 "/>
<path style=" stroke:none;fill-rule:nonzero;fill:rgb(100%,78.431374%,88.235295%);fill-opacity:1;" d="M 47.136719 21.972656 C 47.15625 21.972656 47.179688 21.972656 47.199219 21.972656 C 47.199219 22.199219 47.199219 22.421875 47.199219 22.65625 C 47.09375 22.625 46.984375 22.59375 46.875 22.558594 C 46.855469 22.460938 46.832031 22.367188 46.808594 22.265625 C 46.894531 22.265625 46.980469 22.265625 47.070312 22.265625 C 47.09375 22.167969 47.113281 22.070312 47.136719 21.972656 Z M 47.136719 21.972656 "/>
<path style=" stroke:none;fill-rule:nonzero;fill:rgb(100%,81.176472%,89.411765%);fill-opacity:1;" d="M 46.875 59.277344 C 46.917969 59.308594 46.960938 59.34375 47.003906 59.375 C 46.984375 59.761719 46.960938 60.148438 46.941406 60.546875 C 47.027344 60.578125 47.113281 60.609375 47.199219 60.644531 C 47.074219 60.699219 47.074219 60.699219 46.941406 60.742188 C 46.800781 60.535156 46.820312 60.148438 46.808594 59.863281 C 46.839844 59.632812 46.839844 59.632812 46.875 59.472656 C 46.875 59.40625 46.875 59.34375 46.875 59.277344 Z M 46.875 59.277344 "/>
<path style=" stroke:none;fill-rule:nonzero;fill:rgb(99.607843%,93.333334%,96.078432%);fill-opacity:1;" d="M 58.464844 49.414062 C 58.839844 49.5 58.839844 49.5 58.984375 49.609375 C 58.984375 49.707031 58.984375 49.804688 58.984375 49.902344 C 58.765625 49.847656 58.652344 49.800781 58.464844 49.609375 C 58.464844 49.546875 58.464844 49.480469 58.464844 49.414062 Z M 58.464844 49.414062 "/>
<path style=" stroke:none;fill-rule:nonzero;fill:rgb(99.607843%,94.509804%,96.862745%);fill-opacity:1;" d="M 59.894531 36.816406 C 60.066406 36.816406 60.238281 36.816406 60.417969 36.816406 C 60.394531 36.914062 60.375 37.007812 60.351562 37.109375 C 60.179688 37.109375 60.007812 37.109375 59.832031 37.109375 C 59.851562 37.011719 59.875 36.914062 59.894531 36.816406 Z M 59.894531 36.816406 "/>
<path style=" stroke:none;fill-rule:nonzero;fill:rgb(99.607843%,90.980393%,94.509804%);fill-opacity:1;" d="M 58.59375 27.832031 C 58.636719 27.832031 58.679688 27.832031 58.722656 27.832031 C 58.746094 28.023438 58.765625 28.21875 58.789062 28.417969 C 58.898438 28.417969 59.003906 28.417969 59.113281 28.417969 C 59.113281 28.449219 59.113281 28.484375 59.113281 28.515625 C 58.921875 28.515625 58.726562 28.515625 58.527344 28.515625 C 58.550781 28.289062 58.570312 28.0625 58.59375 27.832031 Z M 58.59375 27.832031 "/>
<path style=" stroke:none;fill-rule:nonzero;fill:rgb(100%,94.901961%,96.862745%);fill-opacity:1;" d="M 52.996094 23.4375 C 53.039062 23.4375 53.082031 23.4375 53.125 23.4375 C 53.125 23.695312 53.125 23.953125 53.125 24.21875 C 53.039062 24.21875 52.953125 24.21875 52.863281 24.21875 C 52.921875 23.65625 52.921875 23.65625 52.996094 23.4375 Z M 52.996094 23.4375 "/>
<path style=" stroke:none;fill-rule:nonzero;fill:rgb(99.607843%,83.529413%,90.588236%);fill-opacity:1;" d="M 55.792969 56.933594 C 56.085938 57.03125 56.085938 57.03125 56.378906 57.128906 C 56.316406 57.195312 56.25 57.257812 56.183594 57.324219 C 56.105469 57.523438 56.105469 57.523438 56.054688 57.714844 C 55.945312 57.453125 55.859375 57.226562 55.792969 56.933594 Z M 55.792969 56.933594 "/>
<path style=" stroke:none;fill-rule:nonzero;fill:rgb(99.607843%,90.196079%,94.117647%);fill-opacity:1;" d="M 42.773438 55.273438 C 42.773438 55.335938 42.773438 55.402344 42.773438 55.46875 C 42.488281 55.859375 42.488281 55.859375 42.253906 55.859375 C 42.367188 55.464844 42.464844 55.273438 42.773438 55.273438 Z M 42.773438 55.273438 "/>
<path style=" stroke:none;fill-rule:nonzero;fill:rgb(99.607843%,78.823531%,88.235295%);fill-opacity:1;" d="M 47.917969 63.671875 C 48.007812 63.667969 48.101562 63.664062 48.195312 63.660156 C 48.246094 63.65625 48.296875 63.65625 48.347656 63.652344 C 48.519531 63.675781 48.621094 63.726562 48.761719 63.867188 C 48.8125 64.125 48.8125 64.125 48.828125 64.355469 C 48.773438 64.277344 48.722656 64.199219 48.664062 64.117188 C 48.425781 63.8125 48.226562 63.792969 47.917969 63.769531 C 47.917969 63.738281 47.917969 63.703125 47.917969 63.671875 Z M 47.917969 63.671875 "/>
<path style=" stroke:none;fill-rule:nonzero;fill:rgb(99.607843%,97.647059%,98.823529%);fill-opacity:1;" d="M 38.476562 39.355469 C 38.648438 39.355469 38.820312 39.355469 38.996094 39.355469 C 38.996094 39.421875 38.996094 39.484375 38.996094 39.550781 C 38.820312 39.683594 38.671875 39.65625 38.476562 39.648438 C 38.476562 39.550781 38.476562 39.453125 38.476562 39.355469 Z M 38.476562 39.355469 "/>
<path style=" stroke:none;fill-rule:nonzero;fill:rgb(100%,65.882355%,80.000001%);fill-opacity:1;" d="M 14.0625 33.886719 C 14.105469 33.886719 14.148438 33.886719 14.191406 33.886719 C 14.191406 33.953125 14.191406 34.015625 14.191406 34.082031 C 14.148438 34.082031 14.105469 34.082031 14.0625 34.082031 C 14.046875 34.140625 14.03125 34.203125 14.015625 34.265625 C 13.917969 34.507812 13.84375 34.566406 13.671875 34.667969 C 13.695312 34.539062 13.714844 34.410156 13.738281 34.277344 C 13.800781 34.261719 13.800781 34.261719 13.863281 34.246094 C 13.90625 34.226562 13.953125 34.203125 13.996094 34.179688 C 14.019531 34.082031 14.039062 33.984375 14.0625 33.886719 Z M 14.0625 33.886719 "/>
<path style=" stroke:none;fill-rule:nonzero;fill:rgb(99.607843%,95.686275%,97.254902%);fill-opacity:1;" d="M 59.179688 32.519531 C 59.308594 32.519531 59.4375 32.519531 59.570312 32.519531 C 59.550781 32.617188 59.527344 32.710938 59.503906 32.8125 C 59.375 32.84375 59.246094 32.875 59.113281 32.910156 C 59.136719 32.78125 59.15625 32.652344 59.179688 32.519531 Z M 59.179688 32.519531 "/>
<path style=" stroke:none;fill-rule:nonzero;fill:rgb(99.607843%,78.823531%,88.627452%);fill-opacity:1;" d="M 51.628906 62.597656 C 51.734375 62.757812 51.84375 62.921875 51.953125 63.085938 C 51.824219 63.183594 51.824219 63.183594 51.691406 63.28125 C 51.628906 63.183594 51.628906 63.183594 51.625 62.882812 C 51.625 62.789062 51.625 62.695312 51.628906 62.597656 Z M 51.628906 62.597656 "/>
<path style=" stroke:none;fill-rule:nonzero;fill:rgb(99.607843%,84.705883%,91.37255%);fill-opacity:1;" d="M 57.753906 53.605469 C 57.816406 53.640625 57.878906 53.675781 57.941406 53.710938 C 57.878906 53.839844 57.8125 53.96875 57.746094 54.101562 C 57.640625 53.941406 57.53125 53.78125 57.421875 53.613281 C 57.550781 53.515625 57.550781 53.515625 57.753906 53.605469 Z M 57.753906 53.605469 "/>
<path style=" stroke:none;fill-rule:nonzero;fill:rgb(100%,75.294119%,86.274511%);fill-opacity:1;" d="M 39.386719 43.75 C 39.542969 43.78125 39.542969 43.78125 39.714844 43.847656 C 39.757812 43.945312 39.800781 44.039062 39.84375 44.140625 C 39.628906 44.109375 39.414062 44.078125 39.191406 44.042969 C 39.257812 44.011719 39.320312 43.976562 39.386719 43.945312 C 39.386719 43.882812 39.386719 43.816406 39.386719 43.75 Z M 39.386719 43.75 "/>
<path style=" stroke:none;fill-rule:nonzero;fill:rgb(100%,89.019608%,93.725491%);fill-opacity:1;" d="M 43.554688 23.730469 C 43.703125 23.730469 43.855469 23.730469 44.011719 23.730469 C 44.011719 23.828125 44.011719 23.921875 44.011719 24.023438 C 44.054688 24.054688 44.097656 24.085938 44.140625 24.121094 C 44.164062 24.054688 44.183594 23.992188 44.207031 23.925781 C 44.207031 24.023438 44.207031 24.117188 44.207031 24.21875 C 43.917969 24.167969 43.769531 24.015625 43.554688 23.730469 Z M 43.554688 23.730469 "/>
<path style=" stroke:none;fill-rule:nonzero;fill:rgb(99.607843%,94.901961%,96.862745%);fill-opacity:1;" d="M 50.195312 22.363281 C 50.238281 22.363281 50.28125 22.363281 50.324219 22.363281 C 50.332031 22.925781 50.332031 22.925781 50.261719 23.144531 C 50.21875 23.144531 50.175781 23.144531 50.128906 23.144531 C 50.121094 22.582031 50.121094 22.582031 50.195312 22.363281 Z M 50.195312 22.363281 "/>
<path style=" stroke:none;fill-rule:nonzero;fill:rgb(99.607843%,87.843138%,92.941177%);fill-opacity:1;" d="M 50.714844 64.453125 C 50.738281 64.453125 50.757812 64.453125 50.78125 64.453125 C 50.78125 64.710938 50.78125 64.96875 50.78125 65.234375 C 50.867188 65.296875 50.953125 65.363281 51.042969 65.429688 C 51 65.492188 50.957031 65.558594 50.910156 65.625 C 50.847656 65.5625 50.78125 65.496094 50.714844 65.429688 C 50.695312 65.195312 50.695312 65.195312 50.703125 64.929688 C 50.707031 64.839844 50.707031 64.75 50.710938 64.660156 C 50.710938 64.589844 50.714844 64.523438 50.714844 64.453125 Z M 50.714844 64.453125 "/>
<path style=" stroke:none;fill-rule:nonzero;fill:rgb(100%,98.039216%,98.823529%);fill-opacity:1;" d="M 39.910156 47.949219 C 39.910156 48.015625 39.910156 48.078125 39.910156 48.144531 C 39.734375 48.277344 39.582031 48.25 39.386719 48.242188 C 39.386719 48.179688 39.386719 48.113281 39.386719 48.046875 C 39.578125 47.953125 39.710938 47.941406 39.910156 47.949219 Z M 39.910156 47.949219 "/>
<path style=" stroke:none;fill-rule:nonzero;fill:rgb(100%,80.392158%,89.411765%);fill-opacity:1;" d="M 41.925781 55.761719 C 42.011719 55.761719 42.097656 55.761719 42.1875 55.761719 C 42.164062 56.117188 42.144531 56.46875 42.121094 56.835938 C 42.101562 56.835938 42.078125 56.835938 42.058594 56.835938 C 42.054688 56.773438 42.050781 56.714844 42.046875 56.652344 C 42.039062 56.570312 42.035156 56.492188 42.027344 56.410156 C 42.023438 56.328125 42.019531 56.25 42.011719 56.167969 C 42 55.953125 42 55.953125 41.925781 55.761719 Z M 41.925781 55.761719 "/>
<path style=" stroke:none;fill-rule:nonzero;fill:rgb(99.607843%,93.333334%,95.686275%);fill-opacity:1;" d="M 41.210938 51.855469 C 40.902344 52.246094 40.902344 52.246094 40.753906 52.246094 C 40.753906 52.148438 40.753906 52.054688 40.753906 51.953125 C 40.992188 51.746094 40.992188 51.746094 41.210938 51.855469 Z M 41.210938 51.855469 "/>
<path style=" stroke:none;fill-rule:nonzero;fill:rgb(100%,58.039218%,74.509805%);fill-opacity:1;" d="M 22.65625 40.917969 C 22.699219 40.917969 22.742188 40.917969 22.785156 40.917969 C 22.699219 41.269531 22.59375 41.578125 22.460938 41.894531 C 22.394531 41.601562 22.394531 41.601562 22.445312 41.421875 C 22.515625 41.253906 22.585938 41.085938 22.65625 40.917969 Z M 22.65625 40.917969 "/>
<path style=" stroke:none;fill-rule:nonzero;fill:rgb(100%,78.431374%,88.235295%);fill-opacity:1;" d="M 58.464844 27.539062 C 58.484375 27.539062 58.507812 27.539062 58.527344 27.539062 C 58.546875 27.765625 58.546875 27.765625 58.527344 28.027344 C 58.398438 28.203125 58.398438 28.203125 58.269531 28.320312 C 58.226562 28.257812 58.183594 28.191406 58.136719 28.125 C 58.179688 28.082031 58.222656 28.039062 58.265625 27.996094 C 58.414062 27.839844 58.414062 27.839844 58.464844 27.539062 Z M 58.464844 27.539062 "/>
<path style=" stroke:none;fill-rule:nonzero;fill:rgb(100%,85.490197%,91.764706%);fill-opacity:1;" d="M 50.261719 23.242188 C 50.261719 23.402344 50.261719 23.5625 50.261719 23.730469 C 50.304688 23.730469 50.347656 23.730469 50.390625 23.730469 C 50.390625 23.796875 50.390625 23.859375 50.390625 23.925781 C 50.261719 23.859375 50.132812 23.796875 50 23.730469 C 50 23.535156 50 23.535156 50.09375 23.375 C 50.195312 23.242188 50.195312 23.242188 50.261719 23.242188 Z M 50.261719 23.242188 "/>
<path style=" stroke:none;fill-rule:nonzero;fill:rgb(100%,50.196081%,70.19608%);fill-opacity:1;" d="M 73.113281 44.042969 C 73.199219 44.4375 73.152344 44.707031 73.113281 45.117188 C 73.089844 45.117188 73.070312 45.117188 73.046875 45.117188 C 73.03125 44.976562 73.019531 44.832031 73.007812 44.691406 C 73 44.609375 72.992188 44.53125 72.984375 44.449219 C 72.984375 44.378906 72.980469 44.308594 72.980469 44.238281 C 73.023438 44.171875 73.066406 44.109375 73.113281 44.042969 Z M 73.113281 44.042969 "/>
<path style=" stroke:none;fill-rule:nonzero;fill:rgb(99.607843%,67.058825%,80.392158%);fill-opacity:1;" d="M 23.632812 34.667969 C 23.847656 34.667969 24.0625 34.667969 24.285156 34.667969 C 24.285156 34.734375 24.285156 34.796875 24.285156 34.863281 C 24.175781 34.894531 24.070312 34.929688 23.957031 34.960938 C 23.957031 34.898438 23.957031 34.832031 23.957031 34.765625 C 23.851562 34.765625 23.742188 34.765625 23.632812 34.765625 C 23.632812 34.734375 23.632812 34.703125 23.632812 34.667969 Z M 23.632812 34.667969 "/>
<path style=" stroke:none;fill-rule:nonzero;fill:rgb(99.607843%,93.333334%,96.470588%);fill-opacity:1;" d="M 39.910156 30.664062 C 40.070312 30.710938 40.070312 30.710938 40.234375 30.761719 C 40.257812 30.859375 40.277344 30.953125 40.300781 31.054688 C 40.191406 31.023438 40.085938 30.992188 39.972656 30.957031 C 39.953125 30.859375 39.929688 30.765625 39.910156 30.664062 Z M 39.910156 30.664062 "/>
<path style=" stroke:none;fill-rule:nonzero;fill:rgb(99.607843%,91.37255%,94.901961%);fill-opacity:1;" d="M 41.730469 26.953125 C 41.816406 26.984375 41.902344 27.015625 41.992188 27.050781 C 42.015625 27.179688 42.035156 27.308594 42.058594 27.441406 C 41.894531 27.34375 41.894531 27.34375 41.730469 27.246094 C 41.730469 27.148438 41.730469 27.054688 41.730469 26.953125 Z M 41.730469 26.953125 "/>
<path style=" stroke:none;fill-rule:nonzero;fill:rgb(99.607843%,98.039216%,98.823529%);fill-opacity:1;" d="M 55.535156 25.683594 C 55.597656 25.683594 55.664062 25.683594 55.730469 25.683594 C 55.730469 25.8125 55.730469 25.941406 55.730469 26.074219 C 55.621094 26.074219 55.515625 26.074219 55.402344 26.074219 C 55.445312 25.945312 55.488281 25.816406 55.535156 25.683594 Z M 55.535156 25.683594 "/>
</g>
</svg>
