<?xml version="1.0" encoding="UTF-8"?>
<svg xmlns="http://www.w3.org/2000/svg" xmlns:xlink="http://www.w3.org/1999/xlink" width="100px" height="100px" viewBox="0 0 100 100" version="1.1">
<g id="surface1">
<path style=" stroke:none;fill-rule:nonzero;fill:rgb(99.607843%,98.431373%,98.039216%);fill-opacity:1;" d="M 0 0 C 33 0 66 0 100 0 C 100 33 100 66 100 100 C 67 100 34 100 0 100 C 0 67 0 34 0 0 Z M 0 0 "/>
<path style=" stroke:none;fill-rule:nonzero;fill:rgb(99.607843%,49.019608%,64.313728%);fill-opacity:1;" d="M 83.980469 26.328125 C 84.179688 26.582031 84.367188 26.835938 84.539062 27.136719 C 84.570312 27.195312 84.605469 27.253906 84.636719 27.3125 C 84.679688 27.386719 84.722656 27.460938 84.765625 27.539062 C 84.816406 27.625 84.816406 27.625 84.867188 27.710938 C 85.132812 28.15625 85.375 28.617188 85.609375 29.101562 C 85.644531 29.175781 85.679688 29.25 85.714844 29.328125 C 86.425781 30.828125 87.128906 32.347656 87.695312 33.984375 C 87.726562 34.070312 87.753906 34.152344 87.785156 34.242188 C 90.527344 42.144531 92.683594 53.4375 91.453125 65.554688 C 91.03125 67.484375 90.390625 69.144531 89.453125 70.605469 C 89.390625 70.710938 89.390625 70.710938 89.324219 70.820312 C 87.425781 73.90625 84.136719 74.230469 81.523438 74.394531 C 80.886719 74.429688 80.253906 74.429688 79.617188 74.425781 C 79.394531 74.425781 79.171875 74.425781 78.953125 74.425781 C 75.476562 74.429688 72.339844 73.921875 69.769531 70.085938 C 68.871094 68.652344 68.265625 66.820312 67.902344 64.941406 C 67.867188 64.765625 67.867188 64.765625 67.832031 64.589844 C 66.394531 56.789062 68.230469 47.609375 69.867188 40.1875 C 69.917969 39.964844 69.964844 39.742188 70.011719 39.523438 C 70.320312 38.125 70.667969 36.773438 71.09375 35.449219 C 71.117188 35.382812 71.136719 35.3125 71.160156 35.242188 C 71.953125 32.765625 72.886719 30.480469 74.136719 28.460938 C 74.265625 28.253906 74.390625 28.042969 74.515625 27.824219 C 74.550781 27.765625 74.585938 27.703125 74.625 27.640625 C 74.707031 27.496094 74.792969 27.347656 74.875 27.203125 C 75.160156 26.714844 75.449219 26.289062 75.792969 25.890625 C 75.929688 25.738281 76.0625 25.578125 76.191406 25.417969 C 78.703125 22.332031 81.675781 23.46875 83.980469 26.328125 Z M 83.980469 26.328125 "/>
<path style=" stroke:none;fill-rule:nonzero;fill:rgb(99.607843%,48.627451%,64.705884%);fill-opacity:1;" d="M 52.707031 28.882812 C 52.910156 29.085938 53.117188 29.246094 53.335938 29.402344 C 53.726562 29.683594 54.039062 30.035156 54.363281 30.46875 C 54.421875 30.546875 54.480469 30.625 54.539062 30.703125 C 55.785156 32.453125 56.429688 35.011719 56.789062 37.460938 C 56.816406 37.652344 56.84375 37.84375 56.875 38.035156 C 57.050781 39.226562 57.171875 40.394531 57.183594 41.613281 C 57.207031 41.914062 57.207031 41.914062 57.382812 42.046875 C 57.46875 42.117188 57.46875 42.117188 57.550781 42.1875 C 57.625 42.441406 57.625 42.441406 57.671875 42.726562 C 57.683594 42.816406 57.699219 42.910156 57.714844 43.007812 C 57.746094 43.261719 57.746094 43.261719 57.746094 43.554688 C 57.808594 43.550781 57.867188 43.550781 57.929688 43.546875 C 58.152344 43.542969 58.378906 43.535156 58.601562 43.535156 C 58.699219 43.53125 58.796875 43.527344 58.890625 43.523438 C 59.550781 43.503906 60.128906 43.523438 60.664062 44.164062 C 61.015625 44.824219 61.1875 45.375 61.269531 46.210938 C 61.285156 46.351562 61.285156 46.351562 61.300781 46.496094 C 61.332031 46.785156 61.363281 47.074219 61.394531 47.363281 C 61.410156 47.535156 61.429688 47.703125 61.449219 47.875 C 61.503906 48.386719 61.558594 48.898438 61.609375 49.414062 C 61.617188 49.507812 61.628906 49.601562 61.636719 49.699219 C 61.824219 51.523438 61.984375 53.355469 62.136719 55.191406 C 62.238281 56.371094 62.34375 57.550781 62.460938 58.730469 C 62.621094 60.320312 62.761719 61.914062 62.898438 63.507812 C 62.921875 63.800781 62.949219 64.097656 62.972656 64.390625 C 63.371094 68.964844 63.371094 68.964844 63.371094 70.851562 C 63.371094 70.96875 63.375 71.089844 63.375 71.210938 C 63.378906 72.152344 63.304688 73.15625 62.914062 73.933594 C 62.304688 74.800781 61.492188 74.664062 60.714844 74.65625 C 60.578125 74.65625 60.441406 74.65625 60.308594 74.65625 C 59.941406 74.65625 59.574219 74.65625 59.207031 74.652344 C 58.820312 74.648438 58.429688 74.648438 58.042969 74.648438 C 57.390625 74.648438 56.734375 74.648438 56.082031 74.644531 C 55.253906 74.640625 54.425781 74.636719 53.597656 74.636719 C 52.875 74.636719 52.152344 74.636719 51.429688 74.632812 C 51.277344 74.632812 51.125 74.632812 50.972656 74.632812 C 49.203125 74.628906 47.429688 74.609375 45.65625 74.542969 C 44.742188 74.511719 43.828125 74.507812 42.910156 74.519531 C 42.773438 74.519531 42.632812 74.523438 42.496094 74.523438 C 41.972656 74.527344 41.453125 74.535156 40.933594 74.542969 C 40.601562 74.550781 40.269531 74.550781 39.9375 74.554688 C 39.816406 74.554688 39.691406 74.558594 39.566406 74.558594 C 38.808594 74.578125 38.253906 74.550781 37.640625 73.796875 C 36.898438 72.425781 36.949219 70.785156 37.0625 69.089844 C 37.144531 67.988281 37.253906 66.890625 37.363281 65.792969 C 37.441406 64.988281 37.503906 64.179688 37.558594 63.367188 C 37.613281 62.601562 37.679688 61.839844 37.746094 61.074219 C 37.769531 60.816406 37.792969 60.554688 37.816406 60.296875 C 37.824219 60.230469 37.828125 60.160156 37.835938 60.09375 C 37.902344 59.324219 37.96875 58.558594 38.035156 57.789062 C 38.046875 57.648438 38.058594 57.503906 38.070312 57.359375 C 38.121094 56.777344 38.171875 56.191406 38.222656 55.609375 C 38.304688 54.617188 38.390625 53.628906 38.476562 52.636719 C 38.480469 52.570312 38.488281 52.503906 38.492188 52.4375 C 38.617188 51.03125 38.738281 49.628906 38.9375 48.242188 C 38.964844 48.039062 38.992188 47.839844 39.019531 47.636719 C 39.425781 44.707031 39.425781 44.707031 40.234375 43.847656 C 40.574219 43.5625 40.835938 43.445312 41.222656 43.449219 C 41.289062 43.449219 41.351562 43.449219 41.417969 43.449219 C 41.484375 43.449219 41.550781 43.449219 41.617188 43.449219 C 41.71875 43.453125 41.71875 43.453125 41.820312 43.453125 C 41.988281 43.453125 42.152344 43.453125 42.316406 43.457031 C 42.320312 43.398438 42.324219 43.335938 42.328125 43.273438 C 42.332031 43.195312 42.339844 43.117188 42.34375 43.035156 C 42.347656 42.957031 42.351562 42.878906 42.359375 42.800781 C 42.394531 42.46875 42.476562 42.304688 42.644531 42.089844 C 42.773438 42.050781 42.902344 42.019531 43.035156 41.992188 C 43.039062 41.910156 43.039062 41.910156 43.042969 41.824219 C 43.164062 39.855469 43.433594 37.953125 43.75 36.035156 C 43.765625 35.9375 43.78125 35.839844 43.796875 35.738281 C 44.003906 34.519531 44.414062 33.554688 44.890625 32.53125 C 44.96875 32.359375 45.046875 32.191406 45.121094 32.019531 C 45.566406 31.027344 46.042969 30.261719 46.746094 29.6875 C 46.78125 29.65625 46.820312 29.625 46.859375 29.59375 C 47.515625 29.058594 48.183594 28.660156 48.894531 28.320312 C 48.941406 28.296875 48.988281 28.273438 49.039062 28.25 C 50.386719 27.582031 51.511719 27.664062 52.707031 28.882812 Z M 52.707031 28.882812 "/>
<path style=" stroke:none;fill-rule:nonzero;fill:rgb(99.607843%,63.137257%,72.941178%);fill-opacity:1;" d="M 52.707031 28.882812 C 52.910156 29.085938 53.117188 29.246094 53.335938 29.402344 C 53.726562 29.683594 54.039062 30.035156 54.363281 30.46875 C 54.449219 30.585938 54.449219 30.585938 54.539062 30.703125 C 55.785156 32.453125 56.429688 35.011719 56.789062 37.460938 C 56.816406 37.652344 56.84375 37.84375 56.875 38.035156 C 57.050781 39.226562 57.171875 40.394531 57.183594 41.613281 C 57.207031 41.914062 57.207031 41.914062 57.382812 42.046875 C 57.46875 42.117188 57.46875 42.117188 57.550781 42.1875 C 57.625 42.441406 57.625 42.441406 57.671875 42.726562 C 57.683594 42.816406 57.699219 42.910156 57.714844 43.007812 C 57.746094 43.261719 57.746094 43.261719 57.746094 43.554688 C 57.796875 43.550781 57.847656 43.542969 57.898438 43.539062 C 59.394531 43.390625 59.394531 43.390625 59.769531 43.757812 C 59.957031 44.039062 60.089844 44.285156 60.222656 44.628906 C 60.25 44.699219 60.277344 44.773438 60.304688 44.847656 C 60.523438 45.449219 60.625 46.023438 60.695312 46.699219 C 60.707031 46.835938 60.707031 46.835938 60.726562 46.976562 C 60.753906 47.234375 60.78125 47.496094 60.808594 47.753906 C 60.820312 47.863281 60.832031 47.972656 60.84375 48.085938 C 60.890625 48.628906 60.890625 49.171875 60.890625 49.71875 C 60.890625 49.851562 60.894531 49.988281 60.894531 50.121094 C 60.917969 51.605469 60.691406 52.859375 60 53.960938 C 59.492188 54.675781 59 55.007812 58.332031 55.273438 C 58.28125 55.296875 58.226562 55.316406 58.171875 55.339844 C 57.421875 55.617188 56.660156 55.757812 55.894531 55.914062 C 55.753906 55.945312 55.613281 55.972656 55.46875 56.003906 C 55.199219 56.0625 54.925781 56.117188 54.65625 56.175781 C 54.441406 56.21875 54.226562 56.265625 54.011719 56.3125 C 53.617188 56.402344 53.242188 56.46875 52.839844 56.457031 C 52.757812 56.457031 52.675781 56.453125 52.589844 56.453125 C 52.5 56.449219 52.5 56.449219 52.410156 56.445312 C 52.390625 56.261719 52.390625 56.261719 52.371094 56.078125 C 52.355469 55.917969 52.339844 55.757812 52.324219 55.597656 C 52.316406 55.515625 52.308594 55.4375 52.300781 55.355469 C 52.253906 54.914062 52.207031 54.558594 52.019531 54.199219 C 51.953125 54.167969 51.890625 54.132812 51.824219 54.101562 C 51.875 54.160156 51.925781 54.21875 51.976562 54.277344 C 52.257812 54.695312 52.277344 55.320312 52.28125 55.886719 C 52.28125 56.003906 52.28125 56.003906 52.28125 56.121094 C 52.28125 56.203125 52.28125 56.28125 52.277344 56.363281 C 52.277344 56.453125 52.277344 56.453125 52.277344 56.542969 C 51.347656 56.710938 50.433594 56.761719 49.496094 56.75 C 49.367188 56.75 49.238281 56.75 49.109375 56.746094 C 48.796875 56.746094 48.488281 56.742188 48.175781 56.738281 C 48.175781 56.578125 48.175781 56.414062 48.175781 56.25 C 48.089844 56.25 48.003906 56.25 47.917969 56.25 C 47.894531 56.378906 47.875 56.507812 47.851562 56.640625 C 47.203125 56.6875 46.59375 56.542969 45.960938 56.371094 C 45.75 56.316406 45.542969 56.261719 45.335938 56.210938 C 45.28125 56.195312 45.230469 56.183594 45.175781 56.167969 C 44.78125 56.066406 44.382812 55.980469 43.980469 55.898438 C 43.300781 55.761719 42.683594 55.605469 42.058594 55.175781 C 41.992188 55.136719 41.929688 55.097656 41.863281 55.054688 C 40.929688 54.433594 40.113281 53.300781 39.734375 51.863281 C 39.597656 51.21875 39.617188 50.554688 39.621094 49.882812 C 39.621094 49.816406 39.621094 49.746094 39.621094 49.675781 C 39.625 48.453125 39.707031 47.28125 39.910156 46.09375 C 39.925781 45.984375 39.945312 45.878906 39.964844 45.765625 C 40.097656 45.117188 40.34375 44.625 40.625 44.105469 C 40.769531 43.839844 40.769531 43.839844 40.886719 43.457031 C 41.359375 43.457031 41.832031 43.457031 42.316406 43.457031 C 42.339844 43.167969 42.359375 42.875 42.382812 42.578125 C 42.492188 42.285156 42.492188 42.285156 42.644531 42.089844 C 42.773438 42.050781 42.902344 42.019531 43.035156 41.992188 C 43.035156 41.9375 43.039062 41.882812 43.042969 41.824219 C 43.164062 39.855469 43.433594 37.953125 43.75 36.035156 C 43.773438 35.886719 43.773438 35.886719 43.796875 35.738281 C 44.003906 34.519531 44.414062 33.554688 44.890625 32.53125 C 44.96875 32.359375 45.046875 32.191406 45.121094 32.019531 C 45.566406 31.027344 46.042969 30.261719 46.746094 29.6875 C 46.800781 29.640625 46.800781 29.640625 46.859375 29.59375 C 47.515625 29.058594 48.183594 28.660156 48.894531 28.320312 C 48.941406 28.296875 48.988281 28.273438 49.039062 28.25 C 50.386719 27.582031 51.511719 27.664062 52.707031 28.882812 Z M 52.707031 28.882812 "/>
<path style=" stroke:none;fill-rule:nonzero;fill:rgb(99.607843%,99.607843%,99.215686%);fill-opacity:1;" d="M 82.355469 26.359375 C 83.113281 27.167969 83.789062 28.214844 84.375 29.296875 C 84.425781 29.394531 84.480469 29.488281 84.535156 29.589844 C 85.78125 31.921875 86.867188 34.4375 87.628906 37.207031 C 87.664062 37.324219 87.695312 37.445312 87.730469 37.566406 C 88.179688 39.203125 88.566406 40.835938 88.800781 42.578125 C 88.820312 42.714844 88.820312 42.714844 88.839844 42.859375 C 88.949219 43.683594 88.988281 44.28125 88.714844 45.042969 C 88.695312 45.109375 88.671875 45.175781 88.644531 45.246094 C 88.570312 45.464844 88.492188 45.679688 88.410156 45.898438 C 88.371094 46.011719 88.371094 46.011719 88.328125 46.125 C 87.742188 47.742188 87.046875 49.164062 86.199219 50.488281 C 86.15625 50.558594 86.113281 50.628906 86.066406 50.703125 C 85.09375 52.253906 83.703125 53.167969 82.355469 53.710938 C 82.289062 53.738281 82.289062 53.738281 82.214844 53.769531 C 80.703125 54.398438 79.152344 54.511719 77.605469 54.042969 C 77.484375 54.007812 77.363281 53.976562 77.238281 53.941406 C 75.054688 53.335938 73.417969 51.46875 72.171875 48.765625 C 71.929688 48.21875 71.707031 47.65625 71.488281 47.089844 C 71.21875 46.417969 70.941406 45.753906 70.5625 45.210938 C 70.316406 44.820312 70.367188 44.203125 70.367188 43.691406 C 70.382812 43.316406 70.449219 42.976562 70.519531 42.621094 C 70.542969 42.503906 70.542969 42.503906 70.566406 42.386719 C 70.613281 42.144531 70.664062 41.898438 70.710938 41.65625 C 70.742188 41.496094 70.773438 41.335938 70.804688 41.175781 C 70.898438 40.699219 70.996094 40.222656 71.09375 39.746094 C 71.109375 39.667969 71.125 39.59375 71.140625 39.515625 C 71.355469 38.496094 71.601562 37.535156 71.917969 36.578125 C 71.941406 36.519531 71.960938 36.457031 71.980469 36.394531 C 72.902344 33.574219 74.035156 30.9375 75.421875 28.585938 C 75.507812 28.441406 75.589844 28.292969 75.671875 28.144531 C 76.078125 27.417969 76.5625 26.894531 77.082031 26.367188 C 77.148438 26.300781 77.210938 26.234375 77.277344 26.167969 C 78.929688 24.589844 80.742188 24.78125 82.355469 26.359375 Z M 82.355469 26.359375 "/>
<path style=" stroke:none;fill-rule:nonzero;fill:rgb(99.607843%,85.490197%,88.627452%);fill-opacity:1;" d="M 23.632812 26.855469 C 23.667969 26.898438 23.707031 26.941406 23.742188 26.988281 C 24.167969 27.5 24.582031 28 24.871094 28.710938 C 24.894531 28.769531 24.917969 28.824219 24.945312 28.882812 C 25.28125 29.769531 25.359375 30.835938 25.324219 31.835938 C 25.441406 31.835938 25.441406 31.835938 25.558594 31.832031 C 28.109375 31.804688 28.109375 31.804688 28.84375 32.796875 C 29.253906 33.476562 29.324219 34.605469 29.449219 35.480469 C 29.480469 35.695312 29.511719 35.910156 29.542969 36.121094 C 29.5625 36.257812 29.582031 36.394531 29.601562 36.53125 C 29.621094 36.65625 29.640625 36.777344 29.65625 36.902344 C 29.6875 37.207031 29.6875 37.207031 29.621094 37.5 C 29.578125 37.5 29.535156 37.5 29.492188 37.5 C 29.496094 37.59375 29.5 37.691406 29.507812 37.789062 C 29.578125 39.414062 29.578125 41.046875 29.558594 42.675781 C 29.554688 42.773438 29.554688 42.871094 29.554688 42.972656 C 29.539062 43.714844 29.507812 44.292969 29.144531 44.847656 C 29.046875 44.972656 28.945312 45.097656 28.839844 45.214844 C 28.785156 45.296875 28.730469 45.378906 28.675781 45.464844 C 28.621094 45.542969 28.570312 45.621094 28.515625 45.703125 C 28.480469 45.761719 28.445312 45.816406 28.40625 45.875 C 27.972656 46.554688 27.480469 47.222656 26.886719 47.558594 C 26.808594 47.632812 26.808594 47.632812 26.726562 47.703125 C 26.320312 48.066406 25.84375 48.253906 25.390625 48.4375 C 25.316406 48.472656 25.242188 48.507812 25.167969 48.542969 C 24.914062 48.640625 24.675781 48.6875 24.414062 48.730469 C 24.371094 48.746094 24.328125 48.761719 24.285156 48.78125 C 24.144531 48.832031 24.015625 48.847656 23.875 48.855469 C 23.820312 48.859375 23.769531 48.863281 23.714844 48.867188 C 23.660156 48.871094 23.605469 48.875 23.546875 48.875 C 23.179688 48.898438 22.824219 48.933594 22.460938 49.023438 C 22.4375 49.152344 22.417969 49.28125 22.394531 49.414062 C 22.609375 49.414062 22.824219 49.414062 23.046875 49.414062 C 23.046875 49.445312 23.046875 49.476562 23.046875 49.511719 C 22.875 49.542969 22.703125 49.578125 22.527344 49.609375 C 22.367188 50.21875 22.335938 50.839844 22.292969 51.484375 C 22.242188 52.101562 22.148438 52.460938 21.875 52.929688 C 21.425781 53.335938 20.882812 53.398438 20.375 53.234375 C 20.234375 53.179688 20.117188 53.125 19.988281 53.027344 C 19.988281 52.960938 19.988281 52.898438 19.988281 52.832031 C 19.945312 52.824219 19.90625 52.820312 19.867188 52.8125 C 19.726562 52.734375 19.726562 52.734375 19.644531 52.523438 C 19.40625 51.476562 19.390625 50.515625 19.402344 49.414062 C 19.316406 49.382812 19.230469 49.351562 19.140625 49.316406 C 19.226562 49.316406 19.3125 49.316406 19.402344 49.316406 C 19.402344 49.15625 19.402344 48.992188 19.402344 48.828125 C 19.351562 48.835938 19.300781 48.84375 19.25 48.851562 C 19.152344 48.867188 19.152344 48.867188 19.054688 48.882812 C 18.992188 48.894531 18.925781 48.902344 18.859375 48.914062 C 18.683594 48.925781 18.683594 48.925781 18.488281 48.828125 C 18.308594 48.808594 18.132812 48.792969 17.953125 48.78125 C 17.097656 48.71875 17.097656 48.71875 16.730469 48.535156 C 16.667969 48.535156 16.601562 48.535156 16.535156 48.535156 C 16.535156 48.46875 16.535156 48.40625 16.535156 48.339844 C 16.472656 48.371094 16.40625 48.40625 16.339844 48.4375 C 16.210938 48.410156 16.078125 48.378906 15.949219 48.339844 C 15.949219 48.273438 15.949219 48.210938 15.949219 48.144531 C 15.886719 48.175781 15.820312 48.210938 15.753906 48.242188 C 15.648438 48.179688 15.542969 48.113281 15.4375 48.042969 C 15.28125 47.9375 15.125 47.855469 14.960938 47.773438 C 14.222656 47.371094 13.582031 46.792969 12.957031 46.09375 C 12.90625 46.039062 12.855469 45.980469 12.800781 45.921875 C 12.398438 45.433594 12.015625 44.726562 11.914062 43.945312 C 11.898438 43.5 11.902344 43.054688 11.902344 42.609375 C 11.902344 42.542969 11.902344 42.480469 11.902344 42.414062 C 11.902344 40.972656 11.917969 39.5 12.109375 38.085938 C 12.113281 37.945312 12.113281 37.804688 12.113281 37.664062 C 12.113281 37.546875 12.109375 37.425781 12.109375 37.304688 C 12.042969 37.5 12.042969 37.5 11.980469 37.695312 C 11.898438 37.328125 11.941406 37.152344 12 36.777344 C 12.019531 36.652344 12.039062 36.527344 12.058594 36.398438 C 12.074219 36.296875 12.074219 36.296875 12.089844 36.199219 C 12.121094 36.003906 12.152344 35.808594 12.183594 35.613281 C 12.609375 32.871094 12.609375 32.871094 13.21875 32.292969 C 13.9375 31.765625 14.730469 31.808594 15.507812 31.824219 C 15.605469 31.824219 15.707031 31.824219 15.808594 31.828125 C 16.050781 31.828125 16.292969 31.832031 16.535156 31.835938 C 16.53125 31.722656 16.53125 31.613281 16.527344 31.5 C 16.480469 29.816406 16.789062 28.425781 17.53125 27.136719 C 19.320312 24.277344 21.691406 24.511719 23.632812 26.855469 Z M 23.632812 26.855469 "/>
<path style=" stroke:none;fill-rule:nonzero;fill:rgb(99.607843%,99.607843%,99.215686%);fill-opacity:1;" d="M 52.964844 30.933594 C 54.476562 32.65625 55.269531 35.390625 55.585938 38.128906 C 55.609375 38.34375 55.636719 38.554688 55.664062 38.765625 C 55.769531 39.679688 55.871094 40.585938 55.863281 41.515625 C 55.863281 41.605469 55.863281 41.699219 55.863281 41.792969 C 55.859375 41.890625 55.859375 41.890625 55.859375 41.992188 C 55.730469 42.089844 55.730469 42.089844 55.597656 42.1875 C 55.535156 42.605469 55.46875 43.023438 55.402344 43.457031 C 52.007812 43.457031 48.613281 43.457031 45.117188 43.457031 C 44.988281 42.875 44.988281 42.875 44.855469 42.285156 C 44.628906 42.054688 44.628906 42.054688 44.402344 41.992188 C 44.425781 40.820312 44.523438 39.695312 44.671875 38.546875 C 44.707031 38.28125 44.738281 38.019531 44.769531 37.753906 C 45.113281 35.027344 45.894531 32.875 47.371094 31.148438 C 49.058594 29.445312 51.253906 29.144531 52.964844 30.933594 Z M 52.964844 30.933594 "/>
<path style=" stroke:none;fill-rule:nonzero;fill:rgb(99.607843%,48.235294%,63.921571%);fill-opacity:1;" d="M 52.707031 28.882812 C 52.910156 29.085938 53.117188 29.246094 53.335938 29.402344 C 53.726562 29.683594 54.039062 30.035156 54.363281 30.46875 C 54.449219 30.585938 54.449219 30.585938 54.539062 30.703125 C 55.785156 32.453125 56.429688 35.011719 56.789062 37.460938 C 56.816406 37.652344 56.84375 37.84375 56.875 38.035156 C 57.050781 39.226562 57.171875 40.394531 57.183594 41.613281 C 57.199219 41.707031 57.210938 41.800781 57.226562 41.894531 C 57.335938 41.992188 57.441406 42.085938 57.550781 42.1875 C 57.617188 42.605469 57.679688 43.023438 57.746094 43.457031 C 56.972656 43.457031 56.199219 43.457031 55.402344 43.457031 C 55.484375 42.382812 55.484375 42.382812 55.597656 42.089844 C 55.734375 42.027344 55.734375 42.027344 55.859375 41.992188 C 55.761719 39.496094 55.546875 36.703125 54.753906 34.472656 C 54.707031 34.335938 54.660156 34.199219 54.613281 34.058594 C 54.015625 32.328125 53.132812 30.867188 51.886719 30.175781 C 51.359375 29.925781 50.859375 29.828125 50.308594 29.835938 C 50.238281 29.835938 50.167969 29.835938 50.09375 29.835938 C 49.488281 29.855469 48.996094 30.003906 48.4375 30.371094 C 48.394531 30.398438 48.355469 30.425781 48.3125 30.453125 C 47.664062 30.890625 47.175781 31.476562 46.679688 32.226562 C 46.636719 32.285156 46.597656 32.34375 46.554688 32.402344 C 45.410156 34.007812 45.054688 36.039062 44.777344 38.273438 C 44.746094 38.507812 44.714844 38.738281 44.6875 38.96875 C 44.558594 39.976562 44.488281 40.964844 44.464844 41.992188 C 44.527344 42.019531 44.589844 42.042969 44.652344 42.070312 C 44.855469 42.1875 44.855469 42.1875 44.976562 42.503906 C 45.050781 42.871094 45.050781 42.871094 45.117188 43.457031 C 44.195312 43.457031 43.269531 43.457031 42.316406 43.457031 C 42.394531 42.410156 42.394531 42.410156 42.644531 42.089844 C 42.773438 42.050781 42.902344 42.019531 43.035156 41.992188 C 43.035156 41.9375 43.039062 41.882812 43.042969 41.824219 C 43.164062 39.855469 43.433594 37.953125 43.75 36.035156 C 43.773438 35.886719 43.773438 35.886719 43.796875 35.738281 C 44.003906 34.519531 44.414062 33.554688 44.890625 32.53125 C 44.96875 32.359375 45.046875 32.191406 45.121094 32.019531 C 45.566406 31.027344 46.042969 30.261719 46.746094 29.6875 C 46.800781 29.640625 46.800781 29.640625 46.859375 29.59375 C 47.515625 29.058594 48.183594 28.660156 48.894531 28.320312 C 48.941406 28.296875 48.988281 28.273438 49.039062 28.25 C 50.386719 27.582031 51.511719 27.664062 52.707031 28.882812 Z M 52.707031 28.882812 "/>
<path style=" stroke:none;fill-rule:nonzero;fill:rgb(99.607843%,91.764706%,92.941177%);fill-opacity:1;" d="M 81.835938 74.316406 C 81.835938 74.347656 81.835938 74.382812 81.835938 74.414062 C 81.914062 74.414062 81.914062 74.414062 81.992188 74.414062 C 84.28125 74.394531 86.574219 74.386719 88.863281 74.5 C 88.945312 74.503906 89.023438 74.507812 89.105469 74.511719 C 92.03125 74.652344 92.03125 74.652344 93.359375 75 C 93.335938 75.0625 93.316406 75.128906 93.292969 75.195312 C 92.84375 75.382812 92.394531 75.445312 91.925781 75.492188 C 91.847656 75.5 91.773438 75.507812 91.691406 75.519531 C 90.738281 75.613281 89.78125 75.660156 88.824219 75.695312 C 88.742188 75.699219 88.742188 75.699219 88.664062 75.703125 C 83.261719 75.90625 77.839844 75.886719 72.441406 75.695312 C 72.386719 75.695312 72.328125 75.691406 72.273438 75.691406 C 71.117188 75.648438 69.96875 75.585938 68.816406 75.492188 C 68.769531 75.488281 68.722656 75.484375 68.675781 75.484375 C 68.085938 75.4375 67.507812 75.347656 66.925781 75.195312 C 66.925781 75.097656 66.925781 75 66.925781 74.902344 C 68.011719 74.667969 69.082031 74.546875 70.175781 74.5 C 70.335938 74.492188 70.5 74.484375 70.664062 74.476562 C 74.386719 74.308594 78.113281 74.300781 81.835938 74.316406 Z M 81.835938 74.316406 "/>
<path style=" stroke:none;fill-rule:nonzero;fill:rgb(99.607843%,91.37255%,92.941177%);fill-opacity:1;" d="M 41.996094 74.402344 C 42.257812 74.402344 42.519531 74.402344 42.785156 74.402344 C 43.730469 74.402344 44.671875 74.417969 45.617188 74.449219 C 47.425781 74.511719 49.238281 74.523438 51.046875 74.523438 C 51.445312 74.519531 51.84375 74.519531 52.242188 74.519531 C 52.992188 74.519531 53.738281 74.519531 54.488281 74.519531 C 55.339844 74.519531 56.195312 74.515625 57.050781 74.515625 C 58.800781 74.515625 60.554688 74.515625 62.304688 74.511719 C 62.285156 74.609375 62.261719 74.703125 62.238281 74.804688 C 62.292969 74.804688 62.347656 74.800781 62.402344 74.800781 C 62.851562 74.796875 63.289062 74.816406 63.738281 74.902344 C 63.738281 74.964844 63.738281 75.03125 63.738281 75.097656 C 63.476562 75.292969 63.148438 75.257812 62.863281 75.285156 C 62.78125 75.296875 62.699219 75.304688 62.613281 75.3125 C 61.789062 75.390625 60.960938 75.445312 60.136719 75.496094 C 60.074219 75.5 60.011719 75.503906 59.945312 75.507812 C 59.429688 75.539062 58.914062 75.5625 58.398438 75.585938 C 58.351562 75.589844 58.300781 75.589844 58.25 75.59375 C 55.742188 75.703125 53.234375 75.699219 50.722656 75.695312 C 50.332031 75.695312 49.941406 75.695312 49.550781 75.695312 C 46.34375 75.699219 43.140625 75.695312 39.9375 75.503906 C 39.734375 75.492188 39.53125 75.484375 39.324219 75.472656 C 38.324219 75.417969 37.320312 75.320312 36.328125 75.097656 C 36.351562 75.03125 36.371094 74.96875 36.394531 74.902344 C 36.878906 74.746094 37.390625 74.769531 37.886719 74.746094 C 37.957031 74.742188 38.027344 74.738281 38.097656 74.734375 C 38.160156 74.730469 38.226562 74.730469 38.289062 74.726562 C 38.484375 74.707031 38.675781 74.664062 38.867188 74.609375 C 38.867188 74.578125 38.867188 74.542969 38.867188 74.511719 C 39.910156 74.414062 40.949219 74.398438 41.996094 74.402344 Z M 41.996094 74.402344 "/>
<path style=" stroke:none;fill-rule:nonzero;fill:rgb(99.607843%,99.607843%,99.215686%);fill-opacity:1;" d="M 21.941406 27.148438 C 21.992188 27.175781 22.042969 27.199219 22.097656 27.226562 C 22.703125 27.570312 23.1875 28.320312 23.632812 29.003906 C 23.667969 29.058594 23.707031 29.113281 23.742188 29.167969 C 24.222656 29.929688 24.21875 30.691406 24.21875 31.738281 C 22.027344 31.738281 19.835938 31.738281 17.578125 31.738281 C 17.578125 30.097656 17.664062 29.570312 18.398438 28.457031 C 19.488281 26.914062 20.503906 26.351562 21.941406 27.148438 Z M 21.941406 27.148438 "/>
<path style=" stroke:none;fill-rule:nonzero;fill:rgb(99.607843%,67.058825%,76.078433%);fill-opacity:1;" d="M 52.277344 57.226562 C 52.316406 58.210938 52.21875 59.152344 52.105469 60.117188 C 52.074219 60.382812 52.046875 60.648438 52.019531 60.914062 C 52 61.082031 51.980469 61.253906 51.960938 61.425781 C 51.953125 61.503906 51.945312 61.582031 51.9375 61.660156 C 51.867188 62.234375 51.71875 62.59375 51.433594 62.988281 C 51.257812 63.160156 51.257812 63.160156 51.09375 63.269531 C 51.011719 63.324219 51.011719 63.324219 50.929688 63.382812 C 50.414062 63.707031 49.808594 63.652344 49.285156 63.378906 C 48.953125 63.105469 48.707031 62.8125 48.578125 62.269531 C 48.328125 60.949219 48.238281 59.628906 48.242188 58.261719 C 48.242188 58.179688 48.242188 58.097656 48.242188 58.015625 C 48.242188 57.816406 48.242188 57.621094 48.242188 57.421875 C 48.3125 57.417969 48.378906 57.417969 48.449219 57.414062 C 48.710938 57.40625 48.972656 57.394531 49.234375 57.386719 C 49.347656 57.382812 49.457031 57.378906 49.570312 57.375 C 50.214844 57.351562 50.859375 57.320312 51.503906 57.257812 C 51.761719 57.234375 52.019531 57.222656 52.277344 57.226562 Z M 52.277344 57.226562 "/>
<path style=" stroke:none;fill-rule:nonzero;fill:rgb(91.764706%,47.450981%,59.215689%);fill-opacity:1;" d="M 22.136719 46.386719 C 22.308594 46.601562 22.382812 46.730469 22.414062 47.066406 C 22.417969 47.328125 22.410156 47.578125 22.363281 47.832031 C 22.316406 48.136719 22.3125 48.4375 22.304688 48.75 C 22.296875 48.890625 22.292969 49.027344 22.289062 49.167969 C 22.28125 49.386719 22.273438 49.605469 22.265625 49.824219 C 22.199219 52.046875 22.199219 52.046875 21.921875 52.613281 C 21.542969 53.125 21.117188 53.164062 20.632812 53.148438 C 20.304688 53.105469 20.09375 52.960938 19.835938 52.648438 C 19.292969 51.625 19.449219 49.613281 19.441406 48.394531 C 19.441406 48.273438 19.4375 48.152344 19.4375 48.023438 C 19.433594 46.933594 19.433594 46.933594 19.726562 46.484375 C 20.417969 45.949219 21.425781 45.851562 22.136719 46.386719 Z M 22.136719 46.386719 "/>
<path style=" stroke:none;fill-rule:nonzero;fill:rgb(99.607843%,36.862746%,54.901963%);fill-opacity:1;" d="M 80.894531 23.714844 C 82.082031 24.113281 83.082031 25.0625 83.855469 26.464844 C 83.925781 26.582031 83.996094 26.699219 84.066406 26.820312 C 84.371094 27.339844 84.652344 27.890625 84.9375 28.441406 C 85.019531 28.597656 85.101562 28.753906 85.1875 28.910156 C 86.566406 31.503906 87.574219 34.632812 88.214844 37.792969 C 88.238281 37.90625 88.261719 38.019531 88.285156 38.136719 C 88.332031 38.351562 88.375 38.566406 88.417969 38.78125 C 88.46875 39.019531 88.523438 39.246094 88.582031 39.476562 C 88.667969 39.824219 88.722656 40.152344 88.769531 40.511719 C 88.800781 40.703125 88.835938 40.890625 88.875 41.078125 C 88.957031 41.539062 88.96875 41.929688 88.867188 42.382812 C 88.863281 42.546875 88.863281 42.707031 88.867188 42.871094 C 88.742188 42.59375 88.707031 42.445312 88.660156 42.125 C 88.335938 39.964844 87.800781 37.941406 87.175781 35.9375 C 87.15625 35.875 87.136719 35.8125 87.117188 35.75 C 86.21875 32.816406 84.890625 30.207031 83.417969 27.871094 C 83.34375 27.753906 83.273438 27.636719 83.203125 27.515625 C 82.648438 26.617188 81.882812 25.914062 81.121094 25.488281 C 81.070312 25.457031 81.015625 25.429688 80.964844 25.398438 C 80.347656 25.089844 79.679688 25.125 79.035156 25.097656 C 79.035156 24.679688 79.035156 24.257812 79.035156 23.828125 C 78.863281 23.828125 78.691406 23.828125 78.515625 23.828125 C 79.074219 23.269531 80.253906 23.542969 80.894531 23.714844 Z M 80.894531 23.714844 "/>
<path style=" stroke:none;fill-rule:nonzero;fill:rgb(99.607843%,36.470589%,54.509807%);fill-opacity:1;" d="M 70.441406 45.019531 C 71.066406 45.691406 71.425781 46.761719 71.8125 47.730469 C 72.164062 48.609375 72.542969 49.417969 72.980469 50.195312 C 73.0625 50.339844 73.0625 50.339844 73.148438 50.492188 C 74.347656 52.539062 75.976562 53.527344 77.734375 54.003906 C 77.808594 54.023438 77.882812 54.046875 77.960938 54.066406 C 78.808594 54.269531 79.675781 54.265625 80.535156 54.296875 C 80.535156 54.328125 80.535156 54.359375 80.535156 54.394531 C 79.320312 54.558594 78.164062 54.671875 76.953125 54.421875 C 76.835938 54.398438 76.71875 54.378906 76.601562 54.363281 C 75.210938 54.132812 73.773438 53.363281 72.722656 51.953125 C 72.667969 51.886719 72.613281 51.820312 72.558594 51.75 C 71.328125 50.183594 70.601562 47.921875 70.46875 45.539062 C 70.457031 45.367188 70.449219 45.191406 70.441406 45.019531 Z M 70.441406 45.019531 "/>
<path style=" stroke:none;fill-rule:nonzero;fill:rgb(99.607843%,74.901962%,81.960785%);fill-opacity:1;" d="M 50.523438 54.066406 C 50.628906 54.066406 50.738281 54.0625 50.84375 54.058594 C 50.996094 54.054688 51.148438 54.050781 51.304688 54.050781 C 51.375 54.046875 51.375 54.046875 51.445312 54.042969 C 51.703125 54.046875 51.8125 54.089844 52.015625 54.332031 C 52.15625 54.605469 52.203125 54.761719 52.234375 55.101562 C 52.242188 55.1875 52.253906 55.273438 52.261719 55.359375 C 52.277344 55.617188 52.28125 55.863281 52.28125 56.121094 C 52.28125 56.242188 52.28125 56.242188 52.277344 56.363281 C 52.277344 56.421875 52.277344 56.480469 52.277344 56.542969 C 51.359375 56.710938 50.453125 56.761719 49.527344 56.75 C 49.402344 56.75 49.277344 56.75 49.152344 56.746094 C 48.847656 56.746094 48.546875 56.742188 48.242188 56.738281 C 48.238281 56.078125 48.253906 55.492188 48.472656 54.90625 C 49.082031 54.066406 49.742188 54.074219 50.523438 54.066406 Z M 50.523438 54.066406 "/>
<path style=" stroke:none;fill-rule:nonzero;fill:rgb(99.607843%,40.784314%,57.647061%);fill-opacity:1;" d="M 44.335938 41.113281 C 44.359375 41.113281 44.378906 41.113281 44.402344 41.113281 C 44.433594 41.546875 44.433594 41.546875 44.464844 41.992188 C 44.527344 42.011719 44.585938 42.027344 44.648438 42.046875 C 44.855469 42.1875 44.855469 42.1875 44.976562 42.503906 C 45.050781 42.871094 45.050781 42.871094 45.117188 43.457031 C 44.195312 43.457031 43.269531 43.457031 42.316406 43.457031 C 42.394531 42.40625 42.394531 42.40625 42.644531 42.089844 C 42.839844 42.019531 42.839844 42.019531 43.066406 42.011719 C 43.144531 42.007812 43.226562 42 43.308594 41.996094 C 43.429688 41.996094 43.429688 41.996094 43.554688 41.992188 C 43.632812 41.992188 43.707031 41.988281 43.789062 41.988281 C 43.972656 41.984375 44.152344 41.988281 44.335938 41.992188 C 44.335938 41.703125 44.335938 41.414062 44.335938 41.113281 Z M 44.335938 41.113281 "/>
<path style=" stroke:none;fill-rule:nonzero;fill:rgb(99.607843%,43.921569%,60.392159%);fill-opacity:1;" d="M 57.097656 40.917969 C 57.117188 40.917969 57.140625 40.917969 57.160156 40.917969 C 57.164062 40.984375 57.164062 41.050781 57.164062 41.121094 C 57.167969 41.210938 57.171875 41.296875 57.171875 41.386719 C 57.175781 41.519531 57.175781 41.519531 57.179688 41.652344 C 57.21875 41.964844 57.21875 41.964844 57.550781 42.1875 C 57.617188 42.605469 57.679688 43.023438 57.746094 43.457031 C 56.972656 43.457031 56.199219 43.457031 55.402344 43.457031 C 55.484375 42.363281 55.484375 42.363281 55.597656 42.089844 C 55.769531 42.011719 55.769531 42.011719 55.925781 41.992188 C 55.945312 41.863281 55.96875 41.734375 55.988281 41.601562 C 55.988281 41.730469 55.988281 41.859375 55.988281 41.992188 C 56.355469 41.992188 56.71875 41.992188 57.097656 41.992188 C 57.097656 41.636719 57.097656 41.28125 57.097656 40.917969 Z M 57.097656 40.917969 "/>
<path style=" stroke:none;fill-rule:nonzero;fill:rgb(99.607843%,45.882353%,61.176473%);fill-opacity:1;" d="M 52.460938 56.535156 C 52.515625 56.539062 52.566406 56.539062 52.621094 56.539062 C 52.746094 56.539062 52.871094 56.542969 52.996094 56.542969 C 52.996094 56.574219 52.996094 56.609375 52.996094 56.640625 C 52.914062 56.648438 52.832031 56.652344 52.746094 56.660156 C 52.601562 56.679688 52.601562 56.679688 52.472656 56.738281 C 52.367188 56.980469 52.367188 56.980469 52.277344 57.226562 C 52.019531 57.320312 51.769531 57.335938 51.503906 57.335938 C 51.429688 57.335938 51.355469 57.335938 51.277344 57.335938 C 51.199219 57.335938 51.121094 57.335938 51.039062 57.332031 C 50.957031 57.332031 50.875 57.332031 50.789062 57.332031 C 50.574219 57.332031 50.355469 57.332031 50.140625 57.332031 C 49.917969 57.328125 49.699219 57.328125 49.476562 57.328125 C 49.042969 57.328125 48.609375 57.328125 48.175781 57.324219 C 48.175781 57.773438 48.175781 58.226562 48.175781 58.691406 C 48.15625 58.691406 48.132812 58.691406 48.113281 58.691406 C 48.113281 58.273438 48.113281 57.851562 48.113281 57.421875 C 48.003906 57.390625 47.898438 57.359375 47.785156 57.324219 C 47.785156 57.164062 47.785156 57 47.785156 56.835938 C 47.722656 56.804688 47.65625 56.773438 47.589844 56.738281 C 47.632812 56.738281 47.671875 56.734375 47.714844 56.734375 C 48.140625 56.722656 48.566406 56.714844 48.992188 56.703125 C 49.148438 56.699219 49.308594 56.695312 49.464844 56.691406 C 49.695312 56.683594 49.925781 56.679688 50.152344 56.671875 C 50.222656 56.667969 50.292969 56.667969 50.363281 56.667969 C 50.789062 56.65625 51.210938 56.617188 51.632812 56.5625 C 51.910156 56.535156 52.183594 56.53125 52.460938 56.535156 Z M 52.460938 56.535156 "/>
<path style=" stroke:none;fill-rule:nonzero;fill:rgb(99.607843%,45.09804%,61.56863%);fill-opacity:1;" d="M 83.398438 25.683594 C 83.90625 26.246094 84.355469 26.816406 84.765625 27.539062 C 84.800781 27.597656 84.832031 27.652344 84.867188 27.710938 C 85.132812 28.15625 85.375 28.617188 85.609375 29.101562 C 85.644531 29.175781 85.679688 29.25 85.714844 29.328125 C 86.425781 30.828125 87.125 32.347656 87.695312 33.984375 C 87.722656 34.066406 87.753906 34.148438 87.785156 34.234375 C 87.878906 34.503906 87.96875 34.769531 88.0625 35.039062 C 88.089844 35.125 88.121094 35.210938 88.152344 35.296875 C 88.175781 35.375 88.203125 35.457031 88.230469 35.535156 C 88.253906 35.605469 88.277344 35.675781 88.304688 35.75 C 88.347656 35.9375 88.347656 35.9375 88.28125 36.230469 C 88.257812 36.15625 88.234375 36.085938 88.210938 36.007812 C 87.722656 34.496094 87.214844 33.039062 86.589844 31.640625 C 86.523438 31.671875 86.460938 31.703125 86.394531 31.738281 C 86.375 31.691406 86.355469 31.644531 86.335938 31.597656 C 85.875 30.453125 85.375 29.378906 84.816406 28.339844 C 84.699219 28.125 84.585938 27.90625 84.46875 27.691406 C 84.398438 27.554688 84.324219 27.414062 84.25 27.277344 C 84.214844 27.214844 84.183594 27.152344 84.148438 27.089844 C 83.941406 26.707031 83.722656 26.359375 83.484375 26.023438 C 83.398438 25.878906 83.398438 25.878906 83.398438 25.683594 Z M 83.398438 25.683594 "/>
<path style=" stroke:none;fill-rule:nonzero;fill:rgb(99.607843%,85.490197%,89.019608%);fill-opacity:1;" d="M 17.707031 74.609375 C 18.347656 74.605469 18.984375 74.605469 19.625 74.605469 C 19.917969 74.605469 20.214844 74.601562 20.511719 74.601562 C 20.800781 74.601562 21.085938 74.601562 21.371094 74.601562 C 21.480469 74.601562 21.589844 74.597656 21.699219 74.597656 C 21.851562 74.597656 22.003906 74.597656 22.15625 74.597656 C 22.203125 74.597656 22.246094 74.597656 22.292969 74.597656 C 22.550781 74.597656 22.792969 74.632812 23.046875 74.707031 C 23.023438 74.773438 23.003906 74.835938 22.980469 74.902344 C 22.4375 74.90625 21.894531 74.90625 21.351562 74.90625 C 21.097656 74.90625 20.847656 74.910156 20.59375 74.910156 C 20.351562 74.910156 20.105469 74.910156 19.859375 74.910156 C 19.769531 74.910156 19.675781 74.914062 19.582031 74.914062 C 18.957031 74.917969 18.335938 74.878906 17.707031 74.804688 C 17.707031 74.742188 17.707031 74.675781 17.707031 74.609375 Z M 17.707031 74.609375 "/>
<path style=" stroke:none;fill-rule:nonzero;fill:rgb(98.823529%,81.960785%,86.274511%);fill-opacity:1;" d="M 22.265625 48.046875 C 22.289062 48.046875 22.308594 48.046875 22.332031 48.046875 C 22.363281 48.433594 22.363281 48.433594 22.394531 48.828125 C 22.566406 48.828125 22.738281 48.828125 22.917969 48.828125 C 22.917969 48.859375 22.917969 48.890625 22.917969 48.925781 C 22.765625 48.957031 22.617188 48.992188 22.460938 49.023438 C 22.4375 49.152344 22.417969 49.28125 22.394531 49.414062 C 22.609375 49.414062 22.824219 49.414062 23.046875 49.414062 C 23.046875 49.445312 23.046875 49.476562 23.046875 49.511719 C 22.875 49.542969 22.703125 49.578125 22.527344 49.609375 C 22.367188 50.21875 22.335938 50.839844 22.292969 51.484375 C 22.242188 52.101562 22.148438 52.460938 21.875 52.929688 C 21.425781 53.335938 20.882812 53.398438 20.375 53.234375 C 20.234375 53.179688 20.117188 53.125 19.988281 53.027344 C 20.007812 52.960938 20.03125 52.898438 20.050781 52.832031 C 20.101562 52.863281 20.148438 52.898438 20.199219 52.929688 C 20.71875 53.136719 21.199219 53.105469 21.691406 52.761719 C 21.917969 52.523438 22.027344 52.238281 22.078125 51.839844 C 22.164062 51.097656 22.183594 50.347656 22.207031 49.597656 C 22.214844 49.445312 22.21875 49.296875 22.226562 49.144531 C 22.238281 48.777344 22.253906 48.414062 22.265625 48.046875 Z M 22.265625 48.046875 "/>
<path style=" stroke:none;fill-rule:nonzero;fill:rgb(99.607843%,80.000001%,84.705883%);fill-opacity:1;" d="M 28.320312 32.324219 C 28.613281 32.460938 28.777344 32.644531 28.972656 33.007812 C 29.210938 33.792969 29.328125 34.640625 29.449219 35.480469 C 29.480469 35.695312 29.511719 35.910156 29.542969 36.121094 C 29.5625 36.257812 29.582031 36.394531 29.601562 36.53125 C 29.621094 36.65625 29.640625 36.777344 29.65625 36.902344 C 29.6875 37.207031 29.6875 37.207031 29.621094 37.5 C 29.535156 37.46875 29.449219 37.4375 29.363281 37.402344 C 29.351562 37.296875 29.339844 37.1875 29.332031 37.078125 C 29.238281 36.148438 29.132812 35.21875 29.011719 34.296875 C 28.992188 34.144531 28.992188 34.144531 28.976562 33.992188 C 28.894531 33.398438 28.804688 33.046875 28.515625 32.617188 C 28.476562 32.558594 28.4375 32.496094 28.398438 32.433594 C 28.371094 32.398438 28.347656 32.363281 28.320312 32.324219 Z M 28.320312 32.324219 "/>
<path style=" stroke:none;fill-rule:nonzero;fill:rgb(99.607843%,39.607844%,56.470591%);fill-opacity:1;" d="M 50.597656 27.796875 C 50.644531 27.796875 50.695312 27.796875 50.742188 27.796875 C 51.339844 27.816406 51.941406 28.03125 52.410156 28.613281 C 52.410156 28.644531 52.410156 28.679688 52.410156 28.710938 C 52.191406 28.671875 51.988281 28.632812 51.78125 28.519531 C 51.492188 28.386719 51.207031 28.34375 50.90625 28.300781 C 50.847656 28.292969 50.785156 28.285156 50.726562 28.277344 C 50.257812 28.214844 49.816406 28.222656 49.347656 28.320312 C 49.613281 27.773438 50.1875 27.792969 50.597656 27.796875 Z M 50.597656 27.796875 "/>
<path style=" stroke:none;fill-rule:nonzero;fill:rgb(99.607843%,36.862746%,54.11765%);fill-opacity:1;" d="M 57.550781 42.675781 C 57.683594 42.871094 57.683594 42.871094 57.746094 43.457031 C 56.972656 43.457031 56.199219 43.457031 55.402344 43.457031 C 55.425781 43.296875 55.445312 43.132812 55.46875 42.96875 C 55.511719 43 55.554688 43.03125 55.597656 43.066406 C 55.710938 43.074219 55.824219 43.078125 55.9375 43.074219 C 56.039062 43.074219 56.039062 43.074219 56.144531 43.074219 C 56.214844 43.074219 56.285156 43.074219 56.355469 43.074219 C 56.425781 43.070312 56.496094 43.070312 56.570312 43.070312 C 56.746094 43.070312 56.921875 43.070312 57.097656 43.066406 C 57.097656 43.132812 57.097656 43.195312 57.097656 43.261719 C 57.246094 43.261719 57.398438 43.261719 57.550781 43.261719 C 57.550781 43.070312 57.550781 42.875 57.550781 42.675781 Z M 57.550781 42.675781 "/>
<path style=" stroke:none;fill-rule:nonzero;fill:rgb(99.607843%,35.294119%,52.941179%);fill-opacity:1;" d="M 43.097656 42.089844 C 43.027344 42.382812 42.988281 42.464844 42.796875 42.601562 C 42.746094 42.625 42.695312 42.652344 42.644531 42.675781 C 42.6875 42.835938 42.730469 43 42.773438 43.164062 C 43.742188 43.210938 43.742188 43.210938 44.726562 43.261719 C 44.726562 43.292969 44.726562 43.328125 44.726562 43.359375 C 43.921875 43.425781 43.121094 43.472656 42.316406 43.457031 C 42.332031 43.019531 42.351562 42.667969 42.488281 42.277344 C 42.695312 42.023438 42.835938 42.050781 43.097656 42.089844 Z M 43.097656 42.089844 "/>
<path style=" stroke:none;fill-rule:nonzero;fill:rgb(99.607843%,33.333334%,51.764709%);fill-opacity:1;" d="M 57.097656 40.917969 C 57.117188 40.917969 57.140625 40.917969 57.160156 40.917969 C 57.164062 40.984375 57.164062 41.050781 57.164062 41.121094 C 57.171875 41.386719 57.1875 41.632812 57.226562 41.894531 C 57.382812 42.109375 57.382812 42.109375 57.550781 42.1875 C 57.53125 42.285156 57.507812 42.382812 57.488281 42.480469 C 57.488281 42.414062 57.488281 42.351562 57.488281 42.285156 C 56.863281 42.285156 56.242188 42.285156 55.597656 42.285156 C 55.597656 42.476562 55.597656 42.671875 55.597656 42.871094 C 55.578125 42.871094 55.554688 42.871094 55.535156 42.871094 C 55.527344 42.542969 55.527344 42.542969 55.535156 42.1875 C 55.578125 42.125 55.621094 42.058594 55.664062 41.992188 C 55.75 41.992188 55.835938 41.992188 55.925781 41.992188 C 55.945312 41.863281 55.96875 41.734375 55.988281 41.601562 C 55.988281 41.730469 55.988281 41.859375 55.988281 41.992188 C 56.355469 41.992188 56.71875 41.992188 57.097656 41.992188 C 57.097656 41.636719 57.097656 41.28125 57.097656 40.917969 Z M 57.097656 40.917969 "/>
<path style=" stroke:none;fill-rule:nonzero;fill:rgb(99.607843%,81.176472%,85.882354%);fill-opacity:1;" d="M 31.054688 56.640625 C 31.1875 56.8125 31.1875 56.8125 31.316406 57.03125 C 31.300781 57.25 31.300781 57.25 31.25 57.421875 C 31.230469 57.324219 31.207031 57.226562 31.183594 57.128906 C 31.183594 57.207031 31.183594 57.285156 31.179688 57.367188 C 31.175781 57.722656 31.167969 58.078125 31.160156 58.433594 C 31.160156 58.558594 31.15625 58.683594 31.15625 58.8125 C 31.152344 58.929688 31.148438 59.046875 31.148438 59.167969 C 31.144531 59.277344 31.144531 59.386719 31.140625 59.5 C 31.121094 59.765625 31.121094 59.765625 30.988281 59.960938 C 30.988281 59.503906 30.988281 59.046875 30.984375 58.589844 C 30.984375 58.433594 30.984375 58.277344 30.984375 58.121094 C 30.984375 57.898438 30.984375 57.675781 30.984375 57.453125 C 30.984375 57.382812 30.984375 57.3125 30.980469 57.242188 C 30.980469 57.074219 30.984375 56.90625 30.988281 56.738281 C 31.011719 56.707031 31.03125 56.671875 31.054688 56.640625 Z M 31.054688 56.640625 "/>
<path style=" stroke:none;fill-rule:nonzero;fill:rgb(99.607843%,41.568628%,58.823532%);fill-opacity:1;" d="M 78.703125 54.289062 C 78.753906 54.289062 78.808594 54.289062 78.863281 54.289062 C 79.027344 54.289062 79.195312 54.289062 79.363281 54.289062 C 79.476562 54.292969 79.589844 54.292969 79.703125 54.292969 C 79.980469 54.292969 80.257812 54.292969 80.535156 54.296875 C 80.535156 54.328125 80.535156 54.359375 80.535156 54.394531 C 78.214844 54.703125 78.214844 54.703125 77.605469 54.492188 C 77.605469 54.460938 77.605469 54.429688 77.605469 54.394531 C 77.972656 54.316406 78.328125 54.285156 78.703125 54.289062 Z M 78.703125 54.289062 "/>
<path style=" stroke:none;fill-rule:nonzero;fill:rgb(99.607843%,78.823531%,84.313726%);fill-opacity:1;" d="M 30.859375 46.972656 C 31.035156 47.238281 31.019531 47.414062 31.046875 47.78125 C 31.054688 47.90625 31.0625 48.03125 31.070312 48.160156 C 31.074219 48.222656 31.078125 48.289062 31.082031 48.355469 C 31.09375 48.550781 31.109375 48.746094 31.121094 48.941406 C 31.160156 49.527344 31.191406 50.097656 31.183594 50.683594 C 31.054688 50.597656 31.054688 50.597656 30.925781 50.390625 C 30.890625 50.070312 30.902344 49.753906 30.914062 49.433594 C 30.914062 49.246094 30.917969 49.0625 30.917969 48.875 C 30.921875 48.785156 30.921875 48.695312 30.921875 48.601562 C 30.925781 48.054688 30.894531 47.515625 30.859375 46.972656 Z M 30.859375 46.972656 "/>
<path style=" stroke:none;fill-rule:nonzero;fill:rgb(100%,41.176471%,58.823532%);fill-opacity:1;" d="M 50.222656 29.570312 C 50.300781 29.574219 50.300781 29.574219 50.382812 29.574219 C 50.746094 29.582031 51.109375 29.609375 51.472656 29.667969 C 51.644531 29.695312 51.644531 29.695312 51.886719 29.6875 C 51.921875 29.882812 51.921875 29.882812 51.953125 30.078125 C 51.464844 29.992188 51.464844 29.992188 51.285156 29.929688 C 51.09375 29.878906 50.914062 29.863281 50.71875 29.851562 C 50.648438 29.847656 50.574219 29.84375 50.5 29.839844 C 50.425781 29.835938 50.351562 29.832031 50.273438 29.828125 C 50.195312 29.824219 50.121094 29.820312 50.042969 29.816406 C 49.855469 29.804688 49.667969 29.792969 49.480469 29.785156 C 49.730469 29.535156 49.933594 29.5625 50.222656 29.570312 Z M 50.222656 29.570312 "/>
<path style=" stroke:none;fill-rule:nonzero;fill:rgb(97.647059%,75.686276%,81.176472%);fill-opacity:1;" d="M 18.621094 25.78125 C 18.664062 25.8125 18.707031 25.84375 18.75 25.878906 C 18.71875 25.914062 18.683594 25.949219 18.652344 25.984375 C 17.9375 26.777344 17.289062 27.667969 16.925781 28.90625 C 16.863281 28.613281 16.863281 28.613281 16.921875 28.40625 C 17.332031 27.390625 17.894531 26.324219 18.621094 25.78125 Z M 18.621094 25.78125 "/>
<path style=" stroke:none;fill-rule:nonzero;fill:rgb(99.607843%,44.705883%,60.784316%);fill-opacity:1;" d="M 39.386719 45.605469 C 39.453125 45.734375 39.515625 45.863281 39.582031 45.996094 C 39.519531 46.140625 39.519531 46.140625 39.453125 46.289062 C 39.417969 46.488281 39.417969 46.488281 39.398438 46.703125 C 39.390625 46.78125 39.382812 46.859375 39.371094 46.941406 C 39.363281 47.019531 39.355469 47.101562 39.347656 47.1875 C 39.339844 47.269531 39.328125 47.351562 39.320312 47.4375 C 39.300781 47.640625 39.277344 47.84375 39.257812 48.046875 C 39.195312 48.015625 39.128906 47.984375 39.0625 47.949219 C 39.085938 47.121094 39.210938 46.390625 39.386719 45.605469 Z M 39.386719 45.605469 "/>
<path style=" stroke:none;fill-rule:nonzero;fill:rgb(99.607843%,35.686275%,53.333336%);fill-opacity:1;" d="M 50.652344 27.929688 C 51.320312 27.867188 51.851562 28.027344 52.410156 28.613281 C 52.410156 28.644531 52.410156 28.679688 52.410156 28.710938 C 51.957031 28.648438 51.539062 28.429688 51.105469 28.222656 C 51.105469 28.191406 51.105469 28.15625 51.105469 28.125 C 50.957031 28.09375 50.804688 28.0625 50.652344 28.027344 C 50.652344 27.996094 50.652344 27.960938 50.652344 27.929688 Z M 50.652344 27.929688 "/>
<path style=" stroke:none;fill-rule:nonzero;fill:rgb(99.607843%,80.000001%,84.705883%);fill-opacity:1;" d="M 12.628906 33.398438 C 12.71875 33.765625 12.671875 34.023438 12.605469 34.394531 C 12.539062 34.785156 12.488281 35.15625 12.472656 35.558594 C 12.433594 35.9375 12.433594 35.9375 12.300781 36.109375 C 12.261719 36.148438 12.21875 36.1875 12.175781 36.230469 C 12.203125 35.292969 12.347656 34.242188 12.628906 33.398438 Z M 12.628906 33.398438 "/>
<path style=" stroke:none;fill-rule:nonzero;fill:rgb(99.607843%,38.82353%,56.862748%);fill-opacity:1;" d="M 59.503906 43.554688 C 59.898438 43.597656 60.214844 43.714844 60.546875 44.042969 C 60.570312 44.109375 60.589844 44.171875 60.613281 44.238281 C 60.347656 44.082031 60.089844 43.917969 59.832031 43.75 C 59.871094 43.820312 59.910156 43.890625 59.953125 43.960938 C 60.5 44.9375 60.5 44.9375 60.613281 45.507812 C 60.589844 45.605469 60.570312 45.703125 60.546875 45.800781 C 60.527344 45.726562 60.503906 45.652344 60.484375 45.578125 C 60.265625 44.863281 60.019531 44.367188 59.632812 43.835938 C 59.589844 43.773438 59.550781 43.714844 59.503906 43.652344 C 59.503906 43.621094 59.503906 43.585938 59.503906 43.554688 Z M 59.503906 43.554688 "/>
<path style=" stroke:none;fill-rule:nonzero;fill:rgb(99.607843%,83.92157%,87.843138%);fill-opacity:1;" d="M 25.910156 74.511719 C 26.511719 74.511719 27.113281 74.511719 27.734375 74.511719 C 27.441406 74.84375 27.363281 74.839844 27.011719 74.828125 C 26.96875 74.828125 26.925781 74.828125 26.878906 74.824219 C 26.535156 74.8125 26.191406 74.773438 25.847656 74.707031 C 25.867188 74.640625 25.890625 74.578125 25.910156 74.511719 Z M 25.910156 74.511719 "/>
<path style=" stroke:none;fill-rule:nonzero;fill:rgb(99.607843%,78.823531%,83.92157%);fill-opacity:1;" d="M 11.914062 37.792969 C 12.023438 38.285156 11.984375 38.660156 11.886719 39.148438 C 11.8125 39.566406 11.761719 39.996094 11.710938 40.421875 C 11.699219 40.519531 11.6875 40.613281 11.675781 40.710938 C 11.644531 40.941406 11.617188 41.175781 11.589844 41.40625 C 11.546875 41.40625 11.503906 41.40625 11.457031 41.40625 C 11.789062 37.980469 11.789062 37.980469 11.914062 37.792969 Z M 11.914062 37.792969 "/>
<path style=" stroke:none;fill-rule:nonzero;fill:rgb(99.607843%,36.078432%,54.11765%);fill-opacity:1;" d="M 47.589844 56.738281 C 47.785156 56.738281 47.976562 56.738281 48.175781 56.738281 C 48.175781 57.382812 48.175781 58.027344 48.175781 58.691406 C 48.15625 58.691406 48.132812 58.691406 48.113281 58.691406 C 48.113281 58.273438 48.113281 57.851562 48.113281 57.421875 C 48.003906 57.390625 47.898438 57.359375 47.785156 57.324219 C 47.785156 57.164062 47.785156 57 47.785156 56.835938 C 47.722656 56.804688 47.65625 56.773438 47.589844 56.738281 Z M 47.589844 56.738281 "/>
<path style=" stroke:none;fill-rule:nonzero;fill:rgb(99.607843%,42.745098%,60.000002%);fill-opacity:1;" d="M 38.996094 48.046875 C 39.039062 48.109375 39.082031 48.175781 39.128906 48.242188 C 39.109375 48.472656 39.089844 48.699219 39.0625 48.925781 C 39.066406 49.007812 39.066406 49.089844 39.070312 49.175781 C 39.058594 49.5 38.972656 49.722656 38.867188 50 C 38.84375 50 38.824219 50 38.800781 50 C 38.851562 48.667969 38.851562 48.667969 38.996094 48.046875 Z M 38.996094 48.046875 "/>
<path style=" stroke:none;fill-rule:nonzero;fill:rgb(90.196079%,38.431373%,52.549022%);fill-opacity:1;" d="M 20.3125 46.289062 C 20.175781 46.398438 20.066406 46.480469 19.914062 46.519531 C 19.78125 46.566406 19.78125 46.566406 19.714844 46.757812 C 19.609375 47.179688 19.582031 47.574219 19.558594 48.023438 C 19.554688 48.136719 19.546875 48.25 19.542969 48.367188 C 19.539062 48.457031 19.535156 48.542969 19.53125 48.632812 C 19.507812 48.632812 19.488281 48.632812 19.464844 48.632812 C 19.460938 48.382812 19.453125 48.136719 19.449219 47.886719 C 19.449219 47.820312 19.445312 47.75 19.441406 47.675781 C 19.4375 47.167969 19.503906 46.886719 19.726562 46.484375 C 19.949219 46.261719 20.050781 46.273438 20.3125 46.289062 Z M 20.3125 46.289062 "/>
<path style=" stroke:none;fill-rule:nonzero;fill:rgb(100%,43.921569%,60.784316%);fill-opacity:1;" d="M 85.9375 29.980469 C 86.175781 30.316406 86.351562 30.644531 86.523438 31.054688 C 86.5 31.117188 86.480469 31.183594 86.457031 31.25 C 86.378906 31.097656 86.300781 30.945312 86.222656 30.792969 C 86.128906 30.628906 86.128906 30.628906 85.9375 30.664062 C 85.871094 30.359375 85.875 30.273438 85.9375 29.980469 Z M 85.9375 29.980469 "/>
<path style=" stroke:none;fill-rule:nonzero;fill:rgb(99.607843%,80.000001%,84.313726%);fill-opacity:1;" d="M 12.109375 36.425781 C 12.25 36.742188 12.253906 36.84375 12.238281 37.207031 C 12.175781 37.253906 12.175781 37.253906 12.109375 37.304688 C 12.035156 37.5 12.035156 37.5 11.980469 37.695312 C 11.910156 37.375 11.921875 37.269531 11.972656 36.949219 C 11.984375 36.871094 11.996094 36.796875 12.007812 36.714844 C 12.042969 36.523438 12.042969 36.523438 12.109375 36.425781 Z M 12.109375 36.425781 "/>
<path style=" stroke:none;fill-rule:nonzero;fill:rgb(99.607843%,38.039216%,56.078434%);fill-opacity:1;" d="M 40.949219 43.554688 C 40.84375 43.75 40.734375 43.941406 40.625 44.140625 C 40.601562 44.042969 40.582031 43.945312 40.558594 43.847656 C 40.429688 43.914062 40.300781 43.976562 40.167969 44.042969 C 40.421875 43.636719 40.582031 43.539062 40.949219 43.554688 Z M 40.949219 43.554688 "/>
<path style=" stroke:none;fill-rule:nonzero;fill:rgb(99.607843%,94.509804%,92.54902%);fill-opacity:1;" d="M 9.699219 65.332031 C 9.773438 65.5 9.773438 65.5 9.832031 65.722656 C 9.785156 65.953125 9.785156 65.953125 9.707031 66.1875 C 9.683594 66.265625 9.65625 66.34375 9.632812 66.421875 C 9.613281 66.480469 9.589844 66.539062 9.570312 66.601562 C 9.492188 66.265625 9.519531 66.078125 9.597656 65.746094 C 9.617188 65.667969 9.636719 65.589844 9.65625 65.511719 C 9.671875 65.453125 9.683594 65.394531 9.699219 65.332031 Z M 9.699219 65.332031 "/>
<path style=" stroke:none;fill-rule:nonzero;fill:rgb(100%,41.568628%,59.215689%);fill-opacity:1;" d="M 39.972656 44.140625 C 40.015625 44.171875 40.058594 44.203125 40.105469 44.238281 C 40.105469 44.335938 40.105469 44.429688 40.105469 44.53125 C 39.972656 44.664062 39.84375 44.792969 39.714844 44.921875 C 39.625 45.128906 39.625 45.128906 39.582031 45.3125 C 39.539062 45.28125 39.496094 45.25 39.453125 45.214844 C 39.515625 45.070312 39.578125 44.929688 39.640625 44.789062 C 39.675781 44.707031 39.710938 44.628906 39.746094 44.546875 C 39.84375 44.335938 39.84375 44.335938 39.972656 44.140625 Z M 39.972656 44.140625 "/>
<path style=" stroke:none;fill-rule:nonzero;fill:rgb(99.607843%,81.568629%,85.882354%);fill-opacity:1;" d="M 13.214844 32.324219 C 13.257812 32.355469 13.300781 32.390625 13.347656 32.421875 C 13.152344 32.710938 12.960938 33 12.761719 33.300781 C 12.738281 33.234375 12.71875 33.171875 12.695312 33.105469 C 12.757812 32.992188 12.820312 32.882812 12.882812 32.769531 C 12.917969 32.707031 12.953125 32.644531 12.988281 32.582031 C 13.085938 32.421875 13.085938 32.421875 13.214844 32.324219 Z M 13.214844 32.324219 "/>
<path style=" stroke:none;fill-rule:nonzero;fill:rgb(100%,40.784314%,58.431375%);fill-opacity:1;" d="M 55.535156 37.695312 C 55.65625 38 55.675781 38.21875 55.664062 38.574219 C 55.707031 38.574219 55.75 38.574219 55.792969 38.574219 C 55.773438 38.765625 55.75 38.960938 55.730469 39.160156 C 55.515625 38.683594 55.527344 38.257812 55.535156 37.695312 Z M 55.535156 37.695312 "/>
<path style=" stroke:none;fill-rule:nonzero;fill:rgb(99.607843%,29.803923%,49.411765%);fill-opacity:1;" d="M 50.652344 27.929688 C 50.777344 27.925781 50.90625 27.921875 51.035156 27.917969 C 51.140625 27.914062 51.140625 27.914062 51.25 27.910156 C 51.433594 27.929688 51.433594 27.929688 51.5625 28.125 C 51.457031 28.1875 51.347656 28.253906 51.238281 28.320312 C 51.195312 28.257812 51.152344 28.191406 51.105469 28.125 C 50.957031 28.085938 50.804688 28.054688 50.652344 28.027344 C 50.652344 27.996094 50.652344 27.960938 50.652344 27.929688 Z M 50.652344 27.929688 "/>
<path style=" stroke:none;fill-rule:nonzero;fill:rgb(99.607843%,34.901962%,53.333336%);fill-opacity:1;" d="M 52.277344 56.542969 C 52.515625 56.542969 52.75 56.542969 52.996094 56.542969 C 52.996094 56.574219 52.996094 56.609375 52.996094 56.640625 C 52.910156 56.648438 52.828125 56.65625 52.742188 56.664062 C 52.601562 56.683594 52.601562 56.683594 52.472656 56.738281 C 52.371094 56.925781 52.371094 56.925781 52.34375 57.128906 C 52.320312 57.128906 52.300781 57.128906 52.277344 57.128906 C 52.277344 56.9375 52.277344 56.742188 52.277344 56.542969 Z M 52.277344 56.542969 "/>
<path style=" stroke:none;fill-rule:nonzero;fill:rgb(100%,43.529412%,60.784316%);fill-opacity:1;" d="M 73.828125 29.003906 C 73.828125 29.355469 73.785156 29.40625 73.632812 29.65625 C 73.597656 29.71875 73.558594 29.777344 73.523438 29.839844 C 73.496094 29.886719 73.464844 29.933594 73.4375 29.980469 C 73.394531 29.949219 73.351562 29.914062 73.308594 29.882812 C 73.480469 29.59375 73.652344 29.304688 73.828125 29.003906 Z M 73.828125 29.003906 "/>
</g>
</svg>
